<?xml version="1.0" standalone="no"?>
<!DOCTYPE svg PUBLIC "-//W3C//DTD SVG 20010904//EN"
 "http://www.w3.org/TR/2001/REC-SVG-20010904/DTD/svg10.dtd">
<svg version="1.0" xmlns="http://www.w3.org/2000/svg"
 width="240.000000pt" height="240.000000pt" viewBox="0 0 240.000000 240.000000"
 preserveAspectRatio="xMidYMid meet">
<metadata>
Created by potrace 1.14, written by Peter Selinger 2001-2017
</metadata>
<g transform="translate(0.000000,240.000000) scale(0.100000,-0.100000)"
fill="#000000" stroke="none">
<path d="M0 1200 l0 -1200 1200 0 1200 0 0 1200 0 1200 -1200 0 -1200 0 0
-1200z m335 876 c110 -62 201 -120 203 -128 2 -11 -18 -24 -63 -43 -36 -16
-68 -32 -71 -36 -2 -4 61 -116 141 -248 80 -133 145 -244 145 -247 0 -3 -30
-19 -66 -36 -55 -26 -68 -29 -78 -17 -7 8 -75 118 -151 244 -75 127 -138 231
-140 233 -1 1 -31 -11 -66 -28 -109 -51 -103 -64 -94 187 4 120 9 221 12 225
9 16 32 5 228 -106z m1419 -1505 c138 -77 258 -142 266 -146 10 -3 21 5 32 22
9 16 30 44 47 63 26 31 31 33 45 20 23 -23 226 -362 226 -379 0 -12 -36 -13
-247 -7 -137 4 -252 11 -257 16 -6 6 6 32 32 69 23 33 42 62 42 65 0 2 -119
70 -265 151 -146 81 -265 149 -265 152 0 9 80 113 86 113 4 0 119 -63 258
-139z m-1131 19 c19 0 -2 -28 -118 -155 -69 -75 -125 -140 -124 -143 0 -4 27
-26 60 -50 33 -24 59 -48 57 -54 -6 -17 -460 -170 -471 -159 -15 15 65 435 83
439 9 1 43 -18 76 -42 l62 -45 131 144 132 144 52 -39 c29 -22 55 -40 60 -40z"/>
</g>
</svg>
