<?xml version="1.0" encoding="UTF-8" standalone="no"?>
<!DOCTYPE svg PUBLIC "-//W3C//DTD SVG 1.1//EN"
 "http://www.w3.org/Graphics/SVG/1.1/DTD/svg11.dtd">
<!-- Generated by graphviz version 2.43.0 (0)
 -->
<!-- Title: G Pages: 1 -->
<svg width="1853pt" height="1769pt"
 viewBox="0.00 0.00 1853.20 1768.81" xmlns="http://www.w3.org/2000/svg" xmlns:xlink="http://www.w3.org/1999/xlink">
<g id="graph0" class="graph" transform="scale(1 1) rotate(0) translate(21.6 1747.21)">
<title>G</title>
<polygon fill="#111111" stroke="transparent" points="-21.6,21.6 -21.6,-1747.21 1831.6,-1747.21 1831.6,21.6 -21.6,21.6"/>
<!-- components/keyboard.js -->
<g id="node1" class="node">
<title>components/keyboard.js</title>
<path fill="none" stroke="#cfffac" d="M421.33,-993.61C421.33,-993.61 272.67,-993.61 272.67,-993.61 268.83,-993.61 265,-989.78 265,-985.95 265,-985.95 265,-978.28 265,-978.28 265,-974.45 268.83,-970.61 272.67,-970.61 272.67,-970.61 421.33,-970.61 421.33,-970.61 425.17,-970.61 429,-974.45 429,-978.28 429,-978.28 429,-985.95 429,-985.95 429,-989.78 425.17,-993.61 421.33,-993.61"/>
<text text-anchor="middle" x="347" y="-978.41" font-family="Arial" font-size="14.00" fill="#cfffac">components/keyboard.js</text>
</g>
<!-- components/mouse.js -->
<g id="node2" class="node">
<title>components/mouse.js</title>
<path fill="none" stroke="#c6c5fe" d="M861.33,-1571.61C861.33,-1571.61 727.67,-1571.61 727.67,-1571.61 723.83,-1571.61 720,-1567.78 720,-1563.95 720,-1563.95 720,-1556.28 720,-1556.28 720,-1552.45 723.83,-1548.61 727.67,-1548.61 727.67,-1548.61 861.33,-1548.61 861.33,-1548.61 865.17,-1548.61 869,-1552.45 869,-1556.28 869,-1556.28 869,-1563.95 869,-1563.95 869,-1567.78 865.17,-1571.61 861.33,-1571.61"/>
<text text-anchor="middle" x="794.5" y="-1556.41" font-family="Arial" font-size="14.00" fill="#c6c5fe">components/mouse.js</text>
</g>
<!-- helpers.js -->
<g id="node3" class="node">
<title>helpers.js</title>
<path fill="none" stroke="#c6c5fe" d="M1647.83,-977.61C1647.83,-977.61 1589.17,-977.61 1589.17,-977.61 1585.33,-977.61 1581.5,-973.78 1581.5,-969.95 1581.5,-969.95 1581.5,-962.28 1581.5,-962.28 1581.5,-958.45 1585.33,-954.61 1589.17,-954.61 1589.17,-954.61 1647.83,-954.61 1647.83,-954.61 1651.67,-954.61 1655.5,-958.45 1655.5,-962.28 1655.5,-962.28 1655.5,-969.95 1655.5,-969.95 1655.5,-973.78 1651.67,-977.61 1647.83,-977.61"/>
<text text-anchor="middle" x="1618.5" y="-962.41" font-family="Arial" font-size="14.00" fill="#c6c5fe">helpers.js</text>
</g>
<!-- components/mouse.js&#45;&gt;helpers.js -->
<g id="edge1" class="edge">
<title>components/mouse.js&#45;&gt;helpers.js</title>
<path fill="none" stroke="#757575" d="M869.17,-1562.66C1040.27,-1567.88 1453.64,-1576.13 1501,-1536.11 1587.18,-1463.29 1611.67,-1083.43 1616.51,-987.92"/>
<polygon fill="#757575" stroke="#757575" points="1620.01,-987.88 1617,-977.72 1613.02,-987.54 1620.01,-987.88"/>
</g>
<!-- particle.js -->
<g id="node7" class="node">
<title>particle.js</title>
<path fill="none" stroke="#cfffac" d="M1802.33,-890.61C1802.33,-890.61 1743.67,-890.61 1743.67,-890.61 1739.83,-890.61 1736,-886.78 1736,-882.95 1736,-882.95 1736,-875.28 1736,-875.28 1736,-871.45 1739.83,-867.61 1743.67,-867.61 1743.67,-867.61 1802.33,-867.61 1802.33,-867.61 1806.17,-867.61 1810,-871.45 1810,-875.28 1810,-875.28 1810,-882.95 1810,-882.95 1810,-886.78 1806.17,-890.61 1802.33,-890.61"/>
<text text-anchor="middle" x="1773" y="-875.41" font-family="Arial" font-size="14.00" fill="#cfffac">particle.js</text>
</g>
<!-- helpers.js&#45;&gt;particle.js -->
<g id="edge47" class="edge">
<title>helpers.js&#45;&gt;particle.js</title>
<path fill="none" stroke="#757575" d="M1639.75,-954.56C1666.18,-939.48 1712.63,-912.98 1742.85,-895.74"/>
<polygon fill="#757575" stroke="#757575" points="1744.71,-898.71 1751.67,-890.71 1741.25,-892.63 1744.71,-898.71"/>
</g>
<!-- components/ruler.js -->
<g id="node4" class="node">
<title>components/ruler.js</title>
<path fill="none" stroke="#c6c5fe" d="M628.33,-831.61C628.33,-831.61 509.67,-831.61 509.67,-831.61 505.83,-831.61 502,-827.78 502,-823.95 502,-823.95 502,-816.28 502,-816.28 502,-812.45 505.83,-808.61 509.67,-808.61 509.67,-808.61 628.33,-808.61 628.33,-808.61 632.17,-808.61 636,-812.45 636,-816.28 636,-816.28 636,-823.95 636,-823.95 636,-827.78 632.17,-831.61 628.33,-831.61"/>
<text text-anchor="middle" x="569" y="-816.41" font-family="Arial" font-size="14.00" fill="#c6c5fe">components/ruler.js</text>
</g>
<!-- components/ruler.js&#45;&gt;helpers.js -->
<g id="edge3" class="edge">
<title>components/ruler.js&#45;&gt;helpers.js</title>
<path fill="none" stroke="#757575" d="M636.08,-825.21C649.03,-828.29 661.99,-832.99 673,-840.11 923.09,-1001.99 794.56,-1250.92 1059,-1388.11 1146.88,-1433.71 1429.15,-1400.23 1501,-1332.11 1602.59,-1235.8 1615.91,-1051.32 1617.41,-988.05"/>
<polygon fill="#757575" stroke="#757575" points="1620.91,-987.74 1617.57,-977.69 1613.92,-987.63 1620.91,-987.74"/>
</g>
<!-- core.js -->
<g id="node5" class="node">
<title>core.js</title>
<path fill="none" stroke="#ff6c60" d="M814.83,-669.61C814.83,-669.61 774.17,-669.61 774.17,-669.61 770.33,-669.61 766.5,-665.78 766.5,-661.95 766.5,-661.95 766.5,-654.28 766.5,-654.28 766.5,-650.45 770.33,-646.61 774.17,-646.61 774.17,-646.61 814.83,-646.61 814.83,-646.61 818.67,-646.61 822.5,-650.45 822.5,-654.28 822.5,-654.28 822.5,-661.95 822.5,-661.95 822.5,-665.78 818.67,-669.61 814.83,-669.61"/>
<text text-anchor="middle" x="794.5" y="-654.41" font-family="Arial" font-size="14.00" fill="#ff6c60">core.js</text>
</g>
<!-- components/ruler.js&#45;&gt;core.js -->
<g id="edge2" class="edge">
<title>components/ruler.js&#45;&gt;core.js</title>
<path fill="none" stroke="#757575" d="M636.14,-813.37C648.94,-810.23 661.84,-805.69 673,-799.11 723.79,-769.19 763.56,-709.96 782.1,-678.64"/>
<polygon fill="#757575" stroke="#757575" points="785.19,-680.29 787.16,-669.88 779.13,-676.79 785.19,-680.29"/>
</g>
<!-- core.js&#45;&gt;helpers.js -->
<g id="edge12" class="edge">
<title>core.js&#45;&gt;helpers.js</title>
<path fill="none" stroke="#757575" d="M822.83,-654.41C938.74,-639.28 1388.96,-586.55 1501,-664.11 1596.51,-730.24 1613.74,-886.49 1616.83,-944.2"/>
<polygon fill="#757575" stroke="#757575" points="1613.34,-944.53 1617.28,-954.37 1620.33,-944.23 1613.34,-944.53"/>
</g>
<!-- core.js&#45;&gt;particle.js -->
<g id="edge13" class="edge">
<title>core.js&#45;&gt;particle.js</title>
<path fill="none" stroke="#757575" d="M820.88,-646.45C844.95,-635.77 882.33,-620.14 916,-610.11 1165.57,-535.75 1246.32,-522.76 1501,-577.11 1595.75,-597.34 1634.81,-594.44 1700,-666.11 1750.89,-722.06 1765.99,-815.32 1770.33,-857.37"/>
<polygon fill="#757575" stroke="#757575" points="1766.86,-857.94 1771.27,-867.58 1773.83,-857.3 1766.86,-857.94"/>
</g>
<!-- physics.js -->
<g id="node8" class="node">
<title>physics.js</title>
<path fill="none" stroke="#c6c5fe" d="M1441.33,-696.61C1441.33,-696.61 1381.67,-696.61 1381.67,-696.61 1377.83,-696.61 1374,-692.78 1374,-688.95 1374,-688.95 1374,-681.28 1374,-681.28 1374,-677.45 1377.83,-673.61 1381.67,-673.61 1381.67,-673.61 1441.33,-673.61 1441.33,-673.61 1445.17,-673.61 1449,-677.45 1449,-681.28 1449,-681.28 1449,-688.95 1449,-688.95 1449,-692.78 1445.17,-696.61 1441.33,-696.61"/>
<text text-anchor="middle" x="1411.5" y="-681.41" font-family="Arial" font-size="14.00" fill="#c6c5fe">physics.js</text>
</g>
<!-- core.js&#45;&gt;physics.js -->
<g id="edge14" class="edge">
<title>core.js&#45;&gt;physics.js</title>
<path fill="none" stroke="#757575" d="M822.72,-659.31C918.72,-663.52 1242.24,-677.73 1363.81,-683.06"/>
<polygon fill="#757575" stroke="#757575" points="1363.77,-686.56 1373.91,-683.51 1364.07,-679.57 1363.77,-686.56"/>
</g>
<!-- gpu/field.js -->
<g id="node9" class="node">
<title>gpu/field.js</title>
<path fill="none" stroke="#c6c5fe" d="M1444.33,-385.61C1444.33,-385.61 1378.67,-385.61 1378.67,-385.61 1374.83,-385.61 1371,-381.78 1371,-377.95 1371,-377.95 1371,-370.28 1371,-370.28 1371,-366.45 1374.83,-362.61 1378.67,-362.61 1378.67,-362.61 1444.33,-362.61 1444.33,-362.61 1448.17,-362.61 1452,-366.45 1452,-370.28 1452,-370.28 1452,-377.95 1452,-377.95 1452,-381.78 1448.17,-385.61 1444.33,-385.61"/>
<text text-anchor="middle" x="1411.5" y="-370.41" font-family="Arial" font-size="14.00" fill="#c6c5fe">gpu/field.js</text>
</g>
<!-- core.js&#45;&gt;gpu/field.js -->
<g id="edge8" class="edge">
<title>core.js&#45;&gt;gpu/field.js</title>
<path fill="none" stroke="#757575" d="M801.06,-646.31C815.42,-617.33 856.78,-542.69 916,-510.11 1061.1,-430.29 1132.05,-527.13 1286,-466.11 1328.24,-449.37 1368.99,-414.62 1391.79,-392.94"/>
<polygon fill="#757575" stroke="#757575" points="1394.34,-395.35 1399.08,-385.87 1389.47,-390.32 1394.34,-395.35"/>
</g>
<!-- gpu/graphics.js -->
<g id="node10" class="node">
<title>gpu/graphics.js</title>
<path fill="none" stroke="#c6c5fe" d="M1015.33,-457.61C1015.33,-457.61 923.67,-457.61 923.67,-457.61 919.83,-457.61 916,-453.78 916,-449.95 916,-449.95 916,-442.28 916,-442.28 916,-438.45 919.83,-434.61 923.67,-434.61 923.67,-434.61 1015.33,-434.61 1015.33,-434.61 1019.17,-434.61 1023,-438.45 1023,-442.28 1023,-442.28 1023,-449.95 1023,-449.95 1023,-453.78 1019.17,-457.61 1015.33,-457.61"/>
<text text-anchor="middle" x="969.5" y="-442.41" font-family="Arial" font-size="14.00" fill="#c6c5fe">gpu/graphics.js</text>
</g>
<!-- core.js&#45;&gt;gpu/graphics.js -->
<g id="edge9" class="edge">
<title>core.js&#45;&gt;gpu/graphics.js</title>
<path fill="none" stroke="#757575" d="M800.32,-646.56C814.05,-614.87 856.25,-525.36 916,-472.11 919.93,-468.61 924.42,-465.46 929.09,-462.66"/>
<polygon fill="#757575" stroke="#757575" points="931.05,-465.57 938.16,-457.72 927.7,-459.43 931.05,-465.57"/>
</g>
<!-- gpu/shaders/computeShader.glsl.js -->
<g id="node11" class="node">
<title>gpu/shaders/computeShader.glsl.js</title>
<path fill="none" stroke="#c6c5fe" d="M1278.33,-377.61C1278.33,-377.61 1066.67,-377.61 1066.67,-377.61 1062.83,-377.61 1059,-373.78 1059,-369.95 1059,-369.95 1059,-362.28 1059,-362.28 1059,-358.45 1062.83,-354.61 1066.67,-354.61 1066.67,-354.61 1278.33,-354.61 1278.33,-354.61 1282.17,-354.61 1286,-358.45 1286,-362.28 1286,-362.28 1286,-369.95 1286,-369.95 1286,-373.78 1282.17,-377.61 1278.33,-377.61"/>
<text text-anchor="middle" x="1172.5" y="-362.41" font-family="Arial" font-size="14.00" fill="#c6c5fe">gpu/shaders/computeShader.glsl.js</text>
</g>
<!-- core.js&#45;&gt;gpu/shaders/computeShader.glsl.js -->
<g id="edge10" class="edge">
<title>core.js&#45;&gt;gpu/shaders/computeShader.glsl.js</title>
<path fill="none" stroke="#757575" d="M797.89,-646.45C806.39,-608.12 838.84,-485.02 916,-425.11 953.69,-395.85 1003.34,-380.66 1048.85,-372.92"/>
<polygon fill="#757575" stroke="#757575" points="1049.47,-376.37 1058.79,-371.34 1048.36,-369.45 1049.47,-376.37"/>
</g>
<!-- gpu/simulation.js -->
<g id="node12" class="node">
<title>gpu/simulation.js</title>
<path fill="none" stroke="#c6c5fe" d="M1223.83,-613.61C1223.83,-613.61 1121.17,-613.61 1121.17,-613.61 1117.33,-613.61 1113.5,-609.78 1113.5,-605.95 1113.5,-605.95 1113.5,-598.28 1113.5,-598.28 1113.5,-594.45 1117.33,-590.61 1121.17,-590.61 1121.17,-590.61 1223.83,-590.61 1223.83,-590.61 1227.67,-590.61 1231.5,-594.45 1231.5,-598.28 1231.5,-598.28 1231.5,-605.95 1231.5,-605.95 1231.5,-609.78 1227.67,-613.61 1223.83,-613.61"/>
<text text-anchor="middle" x="1172.5" y="-598.41" font-family="Arial" font-size="14.00" fill="#c6c5fe">gpu/simulation.js</text>
</g>
<!-- core.js&#45;&gt;gpu/simulation.js -->
<g id="edge11" class="edge">
<title>core.js&#45;&gt;gpu/simulation.js</title>
<path fill="none" stroke="#757575" d="M822.54,-650.2C846.81,-643.39 883.51,-633.78 916,-628.11 979,-617.12 1051.62,-610.28 1103.29,-606.4"/>
<polygon fill="#757575" stroke="#757575" points="1103.62,-609.88 1113.34,-605.66 1103.11,-602.9 1103.62,-609.88"/>
</g>
<!-- scenarios.js -->
<g id="node13" class="node">
<title>scenarios.js</title>
<path fill="none" stroke="#ff6c60" d="M1005.83,-1071.61C1005.83,-1071.61 933.17,-1071.61 933.17,-1071.61 929.33,-1071.61 925.5,-1067.78 925.5,-1063.95 925.5,-1063.95 925.5,-1056.28 925.5,-1056.28 925.5,-1052.45 929.33,-1048.61 933.17,-1048.61 933.17,-1048.61 1005.83,-1048.61 1005.83,-1048.61 1009.67,-1048.61 1013.5,-1052.45 1013.5,-1056.28 1013.5,-1056.28 1013.5,-1063.95 1013.5,-1063.95 1013.5,-1067.78 1009.67,-1071.61 1005.83,-1071.61"/>
<text text-anchor="middle" x="969.5" y="-1056.41" font-family="Arial" font-size="14.00" fill="#ff6c60">scenarios.js</text>
</g>
<!-- core.js&#45;&gt;scenarios.js -->
<g id="edge15" class="edge">
<title>core.js&#45;&gt;scenarios.js</title>
<path fill="none" stroke="#757575" d="M800.49,-669.71C824.46,-725.42 927.92,-965.82 959.39,-1038.94"/>
<polygon fill="#757575" stroke="#757575" points="956.32,-1040.67 963.49,-1048.47 962.75,-1037.9 956.32,-1040.67"/>
</g>
<!-- components/selection.js -->
<g id="node6" class="node">
<title>components/selection.js</title>
<path fill="none" stroke="#c6c5fe" d="M641.83,-335.61C641.83,-335.61 496.17,-335.61 496.17,-335.61 492.33,-335.61 488.5,-331.78 488.5,-327.95 488.5,-327.95 488.5,-320.28 488.5,-320.28 488.5,-316.45 492.33,-312.61 496.17,-312.61 496.17,-312.61 641.83,-312.61 641.83,-312.61 645.67,-312.61 649.5,-316.45 649.5,-320.28 649.5,-320.28 649.5,-327.95 649.5,-327.95 649.5,-331.78 645.67,-335.61 641.83,-335.61"/>
<text text-anchor="middle" x="569" y="-320.41" font-family="Arial" font-size="14.00" fill="#c6c5fe">components/selection.js</text>
</g>
<!-- components/selection.js&#45;&gt;helpers.js -->
<g id="edge5" class="edge">
<title>components/selection.js&#45;&gt;helpers.js</title>
<path fill="none" stroke="#757575" d="M589.72,-312.46C681.25,-260.05 1069.4,-56.35 1286,-236.11 1352.81,-291.56 1269.17,-359.21 1322,-428.11 1375.7,-498.15 1444.98,-445.91 1501,-514.11 1610.86,-647.88 1618.5,-873.11 1618.01,-944.04"/>
<polygon fill="#757575" stroke="#757575" points="1614.51,-944.36 1617.87,-954.41 1621.51,-944.46 1614.51,-944.36"/>
</g>
<!-- components/selection.js&#45;&gt;core.js -->
<g id="edge4" class="edge">
<title>components/selection.js&#45;&gt;core.js</title>
<path fill="none" stroke="#757575" d="M581.73,-335.69C601.87,-355.93 643.67,-399.54 673,-441.11 720.76,-508.81 764.75,-597.22 783.69,-637.05"/>
<polygon fill="#757575" stroke="#757575" points="780.62,-638.75 788.06,-646.3 786.96,-635.76 780.62,-638.75"/>
</g>
<!-- components/selection.js&#45;&gt;particle.js -->
<g id="edge6" class="edge">
<title>components/selection.js&#45;&gt;particle.js</title>
<path fill="none" stroke="#757575" d="M577.82,-312.58C596.78,-285.63 648.14,-218.44 709,-187.11 938.28,-69.1 1035.72,-63.99 1286,-126.11 1488.03,-176.26 1580.9,-174.39 1700,-345.11 1759.28,-430.09 1769.88,-767.86 1771.66,-857.29"/>
<polygon fill="#757575" stroke="#757575" points="1768.16,-857.43 1771.84,-867.36 1775.16,-857.3 1768.16,-857.43"/>
</g>
<!-- components/selection.js&#45;&gt;physics.js -->
<g id="edge7" class="edge">
<title>components/selection.js&#45;&gt;physics.js</title>
<path fill="none" stroke="#757575" d="M649.54,-314.47C815.84,-296.16 1192.67,-264.94 1286,-345.11 1353.52,-403.11 1290.02,-459.05 1322,-542.11 1340.28,-589.6 1374.69,-638.71 1394.8,-665.22"/>
<polygon fill="#757575" stroke="#757575" points="1392.15,-667.52 1401.02,-673.31 1397.7,-663.25 1392.15,-667.52"/>
</g>
<!-- physics.js&#45;&gt;particle.js -->
<g id="edge50" class="edge">
<title>physics.js&#45;&gt;particle.js</title>
<path fill="none" stroke="#757575" d="M1449.26,-677.43C1508.24,-667.32 1624.98,-656.64 1700,-711.11 1748.17,-746.09 1764.4,-820.02 1769.64,-857.03"/>
<polygon fill="#757575" stroke="#757575" points="1766.21,-857.77 1770.94,-867.25 1773.15,-856.88 1766.21,-857.77"/>
</g>
<!-- gpu/field.js&#45;&gt;helpers.js -->
<g id="edge16" class="edge">
<title>gpu/field.js&#45;&gt;helpers.js</title>
<path fill="none" stroke="#757575" d="M1452.12,-376.75C1469.4,-379.94 1488.53,-386.56 1501,-400.11 1576.74,-482.39 1608.91,-850.61 1615.96,-944.35"/>
<polygon fill="#757575" stroke="#757575" points="1612.48,-944.66 1616.7,-954.38 1619.46,-944.15 1612.48,-944.66"/>
</g>
<!-- gpu/field.js&#45;&gt;particle.js -->
<g id="edge17" class="edge">
<title>gpu/field.js&#45;&gt;particle.js</title>
<path fill="none" stroke="#757575" d="M1452.16,-375.88C1515.21,-380.98 1637.53,-400.63 1700,-476.11 1749.03,-535.35 1766.62,-782.39 1770.88,-857.41"/>
<polygon fill="#757575" stroke="#757575" points="1767.4,-857.76 1771.44,-867.56 1774.39,-857.38 1767.4,-857.76"/>
</g>
<!-- gpu/graphics.js&#45;&gt;helpers.js -->
<g id="edge20" class="edge">
<title>gpu/graphics.js&#45;&gt;helpers.js</title>
<path fill="none" stroke="#757575" d="M1009.84,-457.65C1074.63,-476.48 1207.96,-514.46 1322,-542.11 1401.04,-561.28 1441.13,-525.07 1501,-580.11 1610.12,-680.43 1618.43,-878.88 1618.04,-944.49"/>
<polygon fill="#757575" stroke="#757575" points="1614.54,-944.45 1617.9,-954.5 1621.54,-944.55 1614.54,-944.45"/>
</g>
<!-- gpu/graphics.js&#45;&gt;particle.js -->
<g id="edge21" class="edge">
<title>gpu/graphics.js&#45;&gt;particle.js</title>
<path fill="none" stroke="#757575" d="M1016.77,-434.55C1030.34,-431.32 1045.23,-427.93 1059,-425.11 1159.29,-404.62 1194.09,-431.2 1286,-386.11 1305.49,-376.55 1301.77,-360.98 1322,-353.11 1396.14,-324.27 1421.71,-346.58 1501,-353.11 1590.35,-360.47 1637.22,-322.11 1700,-386.11 1766.81,-454.22 1771.94,-771.02 1772.08,-857.34"/>
<polygon fill="#757575" stroke="#757575" points="1768.58,-857.53 1772.08,-867.53 1775.58,-857.53 1768.58,-857.53"/>
</g>
<!-- gpu/graphics.js&#45;&gt;gpu/shaders/computeShader.glsl.js -->
<g id="edge18" class="edge">
<title>gpu/graphics.js&#45;&gt;gpu/shaders/computeShader.glsl.js</title>
<path fill="none" stroke="#757575" d="M985.99,-434.52C1003.04,-422.29 1031.67,-403.27 1059,-392.11 1070.57,-387.39 1083.17,-383.43 1095.63,-380.13"/>
<polygon fill="#757575" stroke="#757575" points="1096.71,-383.47 1105.56,-377.63 1095,-376.68 1096.71,-383.47"/>
</g>
<!-- gpu/shaders/particleShader.glsl.js -->
<g id="node14" class="node">
<title>gpu/shaders/particleShader.glsl.js</title>
<path fill="none" stroke="#cfffac" d="M1273.83,-457.61C1273.83,-457.61 1071.17,-457.61 1071.17,-457.61 1067.33,-457.61 1063.5,-453.78 1063.5,-449.95 1063.5,-449.95 1063.5,-442.28 1063.5,-442.28 1063.5,-438.45 1067.33,-434.61 1071.17,-434.61 1071.17,-434.61 1273.83,-434.61 1273.83,-434.61 1277.67,-434.61 1281.5,-438.45 1281.5,-442.28 1281.5,-442.28 1281.5,-449.95 1281.5,-449.95 1281.5,-453.78 1277.67,-457.61 1273.83,-457.61"/>
<text text-anchor="middle" x="1172.5" y="-442.41" font-family="Arial" font-size="14.00" fill="#cfffac">gpu/shaders/particleShader.glsl.js</text>
</g>
<!-- gpu/graphics.js&#45;&gt;gpu/shaders/particleShader.glsl.js -->
<g id="edge19" class="edge">
<title>gpu/graphics.js&#45;&gt;gpu/shaders/particleShader.glsl.js</title>
<path fill="none" stroke="#757575" d="M1023.05,-446.11C1032.48,-446.11 1042.65,-446.11 1053.08,-446.11"/>
<polygon fill="#757575" stroke="#757575" points="1053.15,-449.61 1063.15,-446.11 1053.15,-442.61 1053.15,-449.61"/>
</g>
<!-- gpu/shaders/computeShader.glsl.js&#45;&gt;physics.js -->
<g id="edge22" class="edge">
<title>gpu/shaders/computeShader.glsl.js&#45;&gt;physics.js</title>
<path fill="none" stroke="#757575" d="M1211.85,-377.64C1236.28,-386.83 1266.84,-402.04 1286,-425.11 1320.76,-466.96 1299.5,-492.58 1322,-542.11 1343.15,-588.68 1376.8,-638.49 1395.94,-665.28"/>
<polygon fill="#757575" stroke="#757575" points="1393.14,-667.39 1401.83,-673.45 1398.82,-663.3 1393.14,-667.39"/>
</g>
<!-- gpu/simulation.js&#45;&gt;helpers.js -->
<g id="edge23" class="edge">
<title>gpu/simulation.js&#45;&gt;helpers.js</title>
<path fill="none" stroke="#757575" d="M1223.83,-590.57C1293.76,-577.66 1420.74,-565.94 1501,-628.11 1603.78,-707.73 1616.36,-883.34 1617.54,-944.56"/>
<polygon fill="#757575" stroke="#757575" points="1614.04,-944.65 1617.65,-954.61 1621.04,-944.57 1614.04,-944.65"/>
</g>
<!-- gpu/simulation.js&#45;&gt;physics.js -->
<g id="edge24" class="edge">
<title>gpu/simulation.js&#45;&gt;physics.js</title>
<path fill="none" stroke="#757575" d="M1206.45,-613.65C1248.61,-628.42 1321.69,-654.01 1367.99,-670.23"/>
<polygon fill="#757575" stroke="#757575" points="1366.85,-673.53 1377.44,-673.54 1369.16,-666.93 1366.85,-673.53"/>
</g>
<!-- scenarios_v0/elements.js -->
<g id="node30" class="node">
<title>scenarios_v0/elements.js</title>
<path fill="none" stroke="#c6c5fe" d="M1249.33,-928.61C1249.33,-928.61 1095.67,-928.61 1095.67,-928.61 1091.83,-928.61 1088,-924.78 1088,-920.95 1088,-920.95 1088,-913.28 1088,-913.28 1088,-909.45 1091.83,-905.61 1095.67,-905.61 1095.67,-905.61 1249.33,-905.61 1249.33,-905.61 1253.17,-905.61 1257,-909.45 1257,-913.28 1257,-913.28 1257,-920.95 1257,-920.95 1257,-924.78 1253.17,-928.61 1249.33,-928.61"/>
<text text-anchor="middle" x="1172.5" y="-913.41" font-family="Arial" font-size="14.00" fill="#c6c5fe">scenarios_v0/elements.js</text>
</g>
<!-- scenarios.js&#45;&gt;scenarios_v0/elements.js -->
<g id="edge51" class="edge">
<title>scenarios.js&#45;&gt;scenarios_v0/elements.js</title>
<path fill="none" stroke="#757575" d="M975.28,-1048.3C986.08,-1023.26 1014.91,-964.85 1059,-937.11 1064.92,-933.39 1071.35,-930.31 1078.03,-927.77"/>
<polygon fill="#757575" stroke="#757575" points="1079.61,-930.93 1087.97,-924.42 1077.37,-924.3 1079.61,-930.93"/>
</g>
<!-- scenarios_v0/experiments0.js -->
<g id="node31" class="node">
<title>scenarios_v0/experiments0.js</title>
<path fill="none" stroke="#c6c5fe" d="M1262.33,-1297.61C1262.33,-1297.61 1082.67,-1297.61 1082.67,-1297.61 1078.83,-1297.61 1075,-1293.78 1075,-1289.95 1075,-1289.95 1075,-1282.28 1075,-1282.28 1075,-1278.45 1078.83,-1274.61 1082.67,-1274.61 1082.67,-1274.61 1262.33,-1274.61 1262.33,-1274.61 1266.17,-1274.61 1270,-1278.45 1270,-1282.28 1270,-1282.28 1270,-1289.95 1270,-1289.95 1270,-1293.78 1266.17,-1297.61 1262.33,-1297.61"/>
<text text-anchor="middle" x="1172.5" y="-1282.41" font-family="Arial" font-size="14.00" fill="#c6c5fe">scenarios_v0/experiments0.js</text>
</g>
<!-- scenarios.js&#45;&gt;scenarios_v0/experiments0.js -->
<g id="edge52" class="edge">
<title>scenarios.js&#45;&gt;scenarios_v0/experiments0.js</title>
<path fill="none" stroke="#757575" d="M971.75,-1071.65C976.23,-1106.9 994.78,-1213.83 1059,-1265.11 1061.29,-1266.94 1063.69,-1268.63 1066.19,-1270.19"/>
<polygon fill="#757575" stroke="#757575" points="1064.52,-1273.27 1074.97,-1275 1067.88,-1267.13 1064.52,-1273.27"/>
</g>
<!-- scenarios_v0/experiments1.js -->
<g id="node32" class="node">
<title>scenarios_v0/experiments1.js</title>
<path fill="none" stroke="#c6c5fe" d="M1262.33,-1051.61C1262.33,-1051.61 1082.67,-1051.61 1082.67,-1051.61 1078.83,-1051.61 1075,-1047.78 1075,-1043.95 1075,-1043.95 1075,-1036.28 1075,-1036.28 1075,-1032.45 1078.83,-1028.61 1082.67,-1028.61 1082.67,-1028.61 1262.33,-1028.61 1262.33,-1028.61 1266.17,-1028.61 1270,-1032.45 1270,-1036.28 1270,-1036.28 1270,-1043.95 1270,-1043.95 1270,-1047.78 1266.17,-1051.61 1262.33,-1051.61"/>
<text text-anchor="middle" x="1172.5" y="-1036.41" font-family="Arial" font-size="14.00" fill="#c6c5fe">scenarios_v0/experiments1.js</text>
</g>
<!-- scenarios.js&#45;&gt;scenarios_v0/experiments1.js -->
<g id="edge53" class="edge">
<title>scenarios.js&#45;&gt;scenarios_v0/experiments1.js</title>
<path fill="none" stroke="#757575" d="M1013.62,-1055.82C1028.8,-1054.31 1046.61,-1052.54 1064.7,-1050.74"/>
<polygon fill="#757575" stroke="#757575" points="1065.15,-1054.21 1074.76,-1049.74 1064.46,-1047.25 1065.15,-1054.21"/>
</g>
<!-- scenarios_v0/fieldTest.js -->
<g id="node33" class="node">
<title>scenarios_v0/fieldTest.js</title>
<path fill="none" stroke="#c6c5fe" d="M1692.33,-1538.61C1692.33,-1538.61 1544.67,-1538.61 1544.67,-1538.61 1540.83,-1538.61 1537,-1534.78 1537,-1530.95 1537,-1530.95 1537,-1523.28 1537,-1523.28 1537,-1519.45 1540.83,-1515.61 1544.67,-1515.61 1544.67,-1515.61 1692.33,-1515.61 1692.33,-1515.61 1696.17,-1515.61 1700,-1519.45 1700,-1523.28 1700,-1523.28 1700,-1530.95 1700,-1530.95 1700,-1534.78 1696.17,-1538.61 1692.33,-1538.61"/>
<text text-anchor="middle" x="1618.5" y="-1523.41" font-family="Arial" font-size="14.00" fill="#c6c5fe">scenarios_v0/fieldTest.js</text>
</g>
<!-- scenarios.js&#45;&gt;scenarios_v0/fieldTest.js -->
<g id="edge54" class="edge">
<title>scenarios.js&#45;&gt;scenarios_v0/fieldTest.js</title>
<path fill="none" stroke="#757575" d="M972.04,-1071.68C979.31,-1124.46 1011.73,-1341.76 1059,-1388.11 1185.12,-1511.78 1403.38,-1530.94 1526.39,-1530.95"/>
<polygon fill="#757575" stroke="#757575" points="1526.54,-1534.45 1536.53,-1530.9 1526.52,-1527.45 1526.54,-1534.45"/>
</g>
<!-- scenarios_v0/gpgpuTest.js -->
<g id="node34" class="node">
<title>scenarios_v0/gpgpuTest.js</title>
<path fill="none" stroke="#c6c5fe" d="M1252.83,-1256.61C1252.83,-1256.61 1092.17,-1256.61 1092.17,-1256.61 1088.33,-1256.61 1084.5,-1252.78 1084.5,-1248.95 1084.5,-1248.95 1084.5,-1241.28 1084.5,-1241.28 1084.5,-1237.45 1088.33,-1233.61 1092.17,-1233.61 1092.17,-1233.61 1252.83,-1233.61 1252.83,-1233.61 1256.67,-1233.61 1260.5,-1237.45 1260.5,-1241.28 1260.5,-1241.28 1260.5,-1248.95 1260.5,-1248.95 1260.5,-1252.78 1256.67,-1256.61 1252.83,-1256.61"/>
<text text-anchor="middle" x="1172.5" y="-1241.41" font-family="Arial" font-size="14.00" fill="#c6c5fe">scenarios_v0/gpgpuTest.js</text>
</g>
<!-- scenarios.js&#45;&gt;scenarios_v0/gpgpuTest.js -->
<g id="edge55" class="edge">
<title>scenarios.js&#45;&gt;scenarios_v0/gpgpuTest.js</title>
<path fill="none" stroke="#757575" d="M973.15,-1071.94C980.66,-1102.58 1005.16,-1184.83 1059,-1224.11 1063.88,-1227.68 1069.2,-1230.69 1074.77,-1233.23"/>
<polygon fill="#757575" stroke="#757575" points="1073.77,-1236.6 1084.35,-1237.08 1076.38,-1230.11 1073.77,-1236.6"/>
</g>
<!-- scenarios_v0/nuclearForce.js -->
<g id="node35" class="node">
<title>scenarios_v0/nuclearForce.js</title>
<path fill="none" stroke="#c6c5fe" d="M1260.83,-1215.61C1260.83,-1215.61 1084.17,-1215.61 1084.17,-1215.61 1080.33,-1215.61 1076.5,-1211.78 1076.5,-1207.95 1076.5,-1207.95 1076.5,-1200.28 1076.5,-1200.28 1076.5,-1196.45 1080.33,-1192.61 1084.17,-1192.61 1084.17,-1192.61 1260.83,-1192.61 1260.83,-1192.61 1264.67,-1192.61 1268.5,-1196.45 1268.5,-1200.28 1268.5,-1200.28 1268.5,-1207.95 1268.5,-1207.95 1268.5,-1211.78 1264.67,-1215.61 1260.83,-1215.61"/>
<text text-anchor="middle" x="1172.5" y="-1200.41" font-family="Arial" font-size="14.00" fill="#c6c5fe">scenarios_v0/nuclearForce.js</text>
</g>
<!-- scenarios.js&#45;&gt;scenarios_v0/nuclearForce.js -->
<g id="edge56" class="edge">
<title>scenarios.js&#45;&gt;scenarios_v0/nuclearForce.js</title>
<path fill="none" stroke="#757575" d="M975.3,-1071.89C986.13,-1096.88 1015.03,-1155.19 1059,-1183.11 1062.03,-1185.03 1065.19,-1186.79 1068.44,-1188.39"/>
<polygon fill="#757575" stroke="#757575" points="1067.29,-1191.71 1077.86,-1192.52 1070.1,-1185.3 1067.29,-1191.71"/>
</g>
<!-- scenarios_v0/nuclearForce1.js -->
<g id="node36" class="node">
<title>scenarios_v0/nuclearForce1.js</title>
<path fill="none" stroke="#c6c5fe" d="M1264.83,-1174.61C1264.83,-1174.61 1080.17,-1174.61 1080.17,-1174.61 1076.33,-1174.61 1072.5,-1170.78 1072.5,-1166.95 1072.5,-1166.95 1072.5,-1159.28 1072.5,-1159.28 1072.5,-1155.45 1076.33,-1151.61 1080.17,-1151.61 1080.17,-1151.61 1264.83,-1151.61 1264.83,-1151.61 1268.67,-1151.61 1272.5,-1155.45 1272.5,-1159.28 1272.5,-1159.28 1272.5,-1166.95 1272.5,-1166.95 1272.5,-1170.78 1268.67,-1174.61 1264.83,-1174.61"/>
<text text-anchor="middle" x="1172.5" y="-1159.41" font-family="Arial" font-size="14.00" fill="#c6c5fe">scenarios_v0/nuclearForce1.js</text>
</g>
<!-- scenarios.js&#45;&gt;scenarios_v0/nuclearForce1.js -->
<g id="edge57" class="edge">
<title>scenarios.js&#45;&gt;scenarios_v0/nuclearForce1.js</title>
<path fill="none" stroke="#757575" d="M979.39,-1071.81C993.91,-1090.01 1024.57,-1124.8 1059,-1142.11 1063.6,-1144.42 1068.42,-1146.48 1073.36,-1148.32"/>
<polygon fill="#757575" stroke="#757575" points="1072.42,-1151.69 1083.01,-1151.57 1074.66,-1145.06 1072.42,-1151.69"/>
</g>
<!-- scenarios_v0/sandbox.js -->
<g id="node37" class="node">
<title>scenarios_v0/sandbox.js</title>
<path fill="none" stroke="#c6c5fe" d="M1246.83,-1010.61C1246.83,-1010.61 1098.17,-1010.61 1098.17,-1010.61 1094.33,-1010.61 1090.5,-1006.78 1090.5,-1002.95 1090.5,-1002.95 1090.5,-995.28 1090.5,-995.28 1090.5,-991.45 1094.33,-987.61 1098.17,-987.61 1098.17,-987.61 1246.83,-987.61 1246.83,-987.61 1250.67,-987.61 1254.5,-991.45 1254.5,-995.28 1254.5,-995.28 1254.5,-1002.95 1254.5,-1002.95 1254.5,-1006.78 1250.67,-1010.61 1246.83,-1010.61"/>
<text text-anchor="middle" x="1172.5" y="-995.41" font-family="Arial" font-size="14.00" fill="#c6c5fe">scenarios_v0/sandbox.js</text>
</g>
<!-- scenarios.js&#45;&gt;scenarios_v0/sandbox.js -->
<g id="edge58" class="edge">
<title>scenarios.js&#45;&gt;scenarios_v0/sandbox.js</title>
<path fill="none" stroke="#757575" d="M991.34,-1048.58C1008.9,-1039.33 1034.93,-1026.69 1059,-1019.11 1066.38,-1016.79 1074.13,-1014.71 1081.96,-1012.85"/>
<polygon fill="#757575" stroke="#757575" points="1082.91,-1016.23 1091.9,-1010.62 1081.37,-1009.4 1082.91,-1016.23"/>
</g>
<!-- scenarios_v0/scenarios0.js -->
<g id="node38" class="node">
<title>scenarios_v0/scenarios0.js</title>
<path fill="none" stroke="#c6c5fe" d="M1493.33,-890.61C1493.33,-890.61 1329.67,-890.61 1329.67,-890.61 1325.83,-890.61 1322,-886.78 1322,-882.95 1322,-882.95 1322,-875.28 1322,-875.28 1322,-871.45 1325.83,-867.61 1329.67,-867.61 1329.67,-867.61 1493.33,-867.61 1493.33,-867.61 1497.17,-867.61 1501,-871.45 1501,-875.28 1501,-875.28 1501,-882.95 1501,-882.95 1501,-886.78 1497.17,-890.61 1493.33,-890.61"/>
<text text-anchor="middle" x="1411.5" y="-875.41" font-family="Arial" font-size="14.00" fill="#c6c5fe">scenarios_v0/scenarios0.js</text>
</g>
<!-- scenarios.js&#45;&gt;scenarios_v0/scenarios0.js -->
<g id="edge59" class="edge">
<title>scenarios.js&#45;&gt;scenarios_v0/scenarios0.js</title>
<path fill="none" stroke="#757575" d="M972.76,-1048.31C979.44,-1017 1002.33,-931.81 1059,-896.11 1148.61,-839.66 1278.03,-851.87 1352.26,-865.63"/>
<polygon fill="#757575" stroke="#757575" points="1351.88,-869.12 1362.36,-867.58 1353.2,-862.25 1351.88,-869.12"/>
</g>
<!-- scenarios_v0/scenarios1.js -->
<g id="node39" class="node">
<title>scenarios_v0/scenarios1.js</title>
<path fill="none" stroke="#c6c5fe" d="M1254.33,-1338.61C1254.33,-1338.61 1090.67,-1338.61 1090.67,-1338.61 1086.83,-1338.61 1083,-1334.78 1083,-1330.95 1083,-1330.95 1083,-1323.28 1083,-1323.28 1083,-1319.45 1086.83,-1315.61 1090.67,-1315.61 1090.67,-1315.61 1254.33,-1315.61 1254.33,-1315.61 1258.17,-1315.61 1262,-1319.45 1262,-1323.28 1262,-1323.28 1262,-1330.95 1262,-1330.95 1262,-1334.78 1258.17,-1338.61 1254.33,-1338.61"/>
<text text-anchor="middle" x="1172.5" y="-1323.41" font-family="Arial" font-size="14.00" fill="#c6c5fe">scenarios_v0/scenarios1.js</text>
</g>
<!-- scenarios.js&#45;&gt;scenarios_v0/scenarios1.js -->
<g id="edge60" class="edge">
<title>scenarios.js&#45;&gt;scenarios_v0/scenarios1.js</title>
<path fill="none" stroke="#757575" d="M970.85,-1071.88C972.72,-1111.74 984.51,-1242.73 1059,-1306.11 1063.51,-1309.95 1068.49,-1313.18 1073.77,-1315.88"/>
<polygon fill="#757575" stroke="#757575" points="1072.37,-1319.09 1082.92,-1319.97 1075.22,-1312.7 1072.37,-1319.09"/>
</g>
<!-- scenarios_v0/scenarios2.js -->
<g id="node40" class="node">
<title>scenarios_v0/scenarios2.js</title>
<path fill="none" stroke="#c6c5fe" d="M1254.33,-1092.61C1254.33,-1092.61 1090.67,-1092.61 1090.67,-1092.61 1086.83,-1092.61 1083,-1088.78 1083,-1084.95 1083,-1084.95 1083,-1077.28 1083,-1077.28 1083,-1073.45 1086.83,-1069.61 1090.67,-1069.61 1090.67,-1069.61 1254.33,-1069.61 1254.33,-1069.61 1258.17,-1069.61 1262,-1073.45 1262,-1077.28 1262,-1077.28 1262,-1084.95 1262,-1084.95 1262,-1088.78 1258.17,-1092.61 1254.33,-1092.61"/>
<text text-anchor="middle" x="1172.5" y="-1077.41" font-family="Arial" font-size="14.00" fill="#c6c5fe">scenarios_v0/scenarios2.js</text>
</g>
<!-- scenarios.js&#45;&gt;scenarios_v0/scenarios2.js -->
<g id="edge61" class="edge">
<title>scenarios.js&#45;&gt;scenarios_v0/scenarios2.js</title>
<path fill="none" stroke="#757575" d="M1013.62,-1064.62C1031.07,-1066.44 1051.98,-1068.63 1072.8,-1070.8"/>
<polygon fill="#757575" stroke="#757575" points="1072.68,-1074.31 1082.99,-1071.87 1073.41,-1067.34 1072.68,-1074.31"/>
</g>
<!-- scenarios_v0/tests.js -->
<g id="node41" class="node">
<title>scenarios_v0/tests.js</title>
<path fill="none" stroke="#c6c5fe" d="M1235.83,-1379.61C1235.83,-1379.61 1109.17,-1379.61 1109.17,-1379.61 1105.33,-1379.61 1101.5,-1375.78 1101.5,-1371.95 1101.5,-1371.95 1101.5,-1364.28 1101.5,-1364.28 1101.5,-1360.45 1105.33,-1356.61 1109.17,-1356.61 1109.17,-1356.61 1235.83,-1356.61 1235.83,-1356.61 1239.67,-1356.61 1243.5,-1360.45 1243.5,-1364.28 1243.5,-1364.28 1243.5,-1371.95 1243.5,-1371.95 1243.5,-1375.78 1239.67,-1379.61 1235.83,-1379.61"/>
<text text-anchor="middle" x="1172.5" y="-1364.41" font-family="Arial" font-size="14.00" fill="#c6c5fe">scenarios_v0/tests.js</text>
</g>
<!-- scenarios.js&#45;&gt;scenarios_v0/tests.js -->
<g id="edge62" class="edge">
<title>scenarios.js&#45;&gt;scenarios_v0/tests.js</title>
<path fill="none" stroke="#757575" d="M970.17,-1071.9C969.61,-1115.82 973.96,-1271.3 1059,-1347.11 1068.24,-1355.35 1079.66,-1360.83 1091.63,-1364.39"/>
<polygon fill="#757575" stroke="#757575" points="1090.78,-1367.78 1101.33,-1366.86 1092.5,-1361 1090.78,-1367.78"/>
</g>
<!-- scenarios_v1/epnModel.js -->
<g id="node42" class="node">
<title>scenarios_v1/epnModel.js</title>
<path fill="none" stroke="#c6c5fe" d="M1251.33,-969.61C1251.33,-969.61 1093.67,-969.61 1093.67,-969.61 1089.83,-969.61 1086,-965.78 1086,-961.95 1086,-961.95 1086,-954.28 1086,-954.28 1086,-950.45 1089.83,-946.61 1093.67,-946.61 1093.67,-946.61 1251.33,-946.61 1251.33,-946.61 1255.17,-946.61 1259,-950.45 1259,-954.28 1259,-954.28 1259,-961.95 1259,-961.95 1259,-965.78 1255.17,-969.61 1251.33,-969.61"/>
<text text-anchor="middle" x="1172.5" y="-954.41" font-family="Arial" font-size="14.00" fill="#c6c5fe">scenarios_v1/epnModel.js</text>
</g>
<!-- scenarios.js&#45;&gt;scenarios_v1/epnModel.js -->
<g id="edge63" class="edge">
<title>scenarios.js&#45;&gt;scenarios_v1/epnModel.js</title>
<path fill="none" stroke="#757575" d="M979.38,-1048.38C993.87,-1030.13 1024.49,-995.28 1059,-978.11 1064.54,-975.36 1070.39,-972.98 1076.41,-970.92"/>
<polygon fill="#757575" stroke="#757575" points="1077.46,-974.26 1085.97,-967.95 1075.38,-967.58 1077.46,-974.26"/>
</g>
<!-- scenarios_v1/forceMap.js -->
<g id="node43" class="node">
<title>scenarios_v1/forceMap.js</title>
<path fill="none" stroke="#ff6c60" d="M1249.83,-769.61C1249.83,-769.61 1095.17,-769.61 1095.17,-769.61 1091.33,-769.61 1087.5,-765.78 1087.5,-761.95 1087.5,-761.95 1087.5,-754.28 1087.5,-754.28 1087.5,-750.45 1091.33,-746.61 1095.17,-746.61 1095.17,-746.61 1249.83,-746.61 1249.83,-746.61 1253.67,-746.61 1257.5,-750.45 1257.5,-754.28 1257.5,-754.28 1257.5,-761.95 1257.5,-761.95 1257.5,-765.78 1253.67,-769.61 1249.83,-769.61"/>
<text text-anchor="middle" x="1172.5" y="-754.41" font-family="Arial" font-size="14.00" fill="#ff6c60">scenarios_v1/forceMap.js</text>
</g>
<!-- scenarios.js&#45;&gt;scenarios_v1/forceMap.js -->
<g id="edge64" class="edge">
<title>scenarios.js&#45;&gt;scenarios_v1/forceMap.js</title>
<path fill="none" stroke="#757575" d="M970.22,-1048.5C969.86,-1005.24 974.81,-852.15 1059,-778.11 1064.63,-773.16 1071.06,-769.23 1077.91,-766.14"/>
<polygon fill="#757575" stroke="#757575" points="1079.45,-769.3 1087.5,-762.41 1076.91,-762.77 1079.45,-769.3"/>
</g>
<!-- scenarios_v1/quarkModel.js -->
<g id="node44" class="node">
<title>scenarios_v1/quarkModel.js</title>
<path fill="none" stroke="#c6c5fe" d="M1257.33,-1133.61C1257.33,-1133.61 1087.67,-1133.61 1087.67,-1133.61 1083.83,-1133.61 1080,-1129.78 1080,-1125.95 1080,-1125.95 1080,-1118.28 1080,-1118.28 1080,-1114.45 1083.83,-1110.61 1087.67,-1110.61 1087.67,-1110.61 1257.33,-1110.61 1257.33,-1110.61 1261.17,-1110.61 1265,-1114.45 1265,-1118.28 1265,-1118.28 1265,-1125.95 1265,-1125.95 1265,-1129.78 1261.17,-1133.61 1257.33,-1133.61"/>
<text text-anchor="middle" x="1172.5" y="-1118.41" font-family="Arial" font-size="14.00" fill="#c6c5fe">scenarios_v1/quarkModel.js</text>
</g>
<!-- scenarios.js&#45;&gt;scenarios_v1/quarkModel.js -->
<g id="edge65" class="edge">
<title>scenarios.js&#45;&gt;scenarios_v1/quarkModel.js</title>
<path fill="none" stroke="#757575" d="M991.72,-1071.78C1009.28,-1080.97 1035.13,-1093.49 1059,-1101.11 1067.55,-1103.84 1076.58,-1106.26 1085.66,-1108.4"/>
<polygon fill="#757575" stroke="#757575" points="1084.99,-1111.84 1095.52,-1110.6 1086.52,-1105 1084.99,-1111.84"/>
</g>
<!-- scenarios_v1/record.js -->
<g id="node45" class="node">
<title>scenarios_v1/record.js</title>
<path fill="none" stroke="#ff6c60" d="M1240.83,-810.61C1240.83,-810.61 1104.17,-810.61 1104.17,-810.61 1100.33,-810.61 1096.5,-806.78 1096.5,-802.95 1096.5,-802.95 1096.5,-795.28 1096.5,-795.28 1096.5,-791.45 1100.33,-787.61 1104.17,-787.61 1104.17,-787.61 1240.83,-787.61 1240.83,-787.61 1244.67,-787.61 1248.5,-791.45 1248.5,-795.28 1248.5,-795.28 1248.5,-802.95 1248.5,-802.95 1248.5,-806.78 1244.67,-810.61 1240.83,-810.61"/>
<text text-anchor="middle" x="1172.5" y="-795.41" font-family="Arial" font-size="14.00" fill="#ff6c60">scenarios_v1/record.js</text>
</g>
<!-- scenarios.js&#45;&gt;scenarios_v1/record.js -->
<g id="edge66" class="edge">
<title>scenarios.js&#45;&gt;scenarios_v1/record.js</title>
<path fill="none" stroke="#757575" d="M973.02,-1048.49C980.66,-1015.71 1006.28,-921.09 1059,-863.11 1078.6,-841.56 1107.2,-825.42 1130.65,-814.74"/>
<polygon fill="#757575" stroke="#757575" points="1132.26,-817.86 1140.02,-810.64 1129.46,-811.45 1132.26,-817.86"/>
</g>
<!-- gui/advanced.js -->
<g id="node15" class="node">
<title>gui/advanced.js</title>
<path fill="none" stroke="#c6c5fe" d="M616.33,-913.61C616.33,-913.61 521.67,-913.61 521.67,-913.61 517.83,-913.61 514,-909.78 514,-905.95 514,-905.95 514,-898.28 514,-898.28 514,-894.45 517.83,-890.61 521.67,-890.61 521.67,-890.61 616.33,-890.61 616.33,-890.61 620.17,-890.61 624,-894.45 624,-898.28 624,-898.28 624,-905.95 624,-905.95 624,-909.78 620.17,-913.61 616.33,-913.61"/>
<text text-anchor="middle" x="569" y="-898.41" font-family="Arial" font-size="14.00" fill="#c6c5fe">gui/advanced.js</text>
</g>
<!-- gui/advanced.js&#45;&gt;helpers.js -->
<g id="edge26" class="edge">
<title>gui/advanced.js&#45;&gt;helpers.js</title>
<path fill="none" stroke="#757575" d="M590.55,-913.63C615.04,-928.63 654.92,-957.31 673,-994.11 722.32,-1094.49 627.35,-1419.68 709,-1496.11 745.04,-1529.85 1454,-1535.93 1501,-1498.11 1582.85,-1432.25 1610.39,-1079.83 1616.23,-988"/>
<polygon fill="#757575" stroke="#757575" points="1619.73,-988.11 1616.85,-977.91 1612.74,-987.68 1619.73,-988.11"/>
</g>
<!-- gui/advanced.js&#45;&gt;core.js -->
<g id="edge25" class="edge">
<title>gui/advanced.js&#45;&gt;core.js</title>
<path fill="none" stroke="#757575" d="M624.19,-899.94C641.11,-897.06 659,-891.5 673,-881.11 742.87,-829.28 776.69,-724.51 788.47,-679.48"/>
<polygon fill="#757575" stroke="#757575" points="791.9,-680.17 790.94,-669.62 785.11,-678.47 791.9,-680.17"/>
</g>
<!-- gui/controls.js -->
<g id="node16" class="node">
<title>gui/controls.js</title>
<path fill="none" stroke="#c6c5fe" d="M610.83,-872.61C610.83,-872.61 527.17,-872.61 527.17,-872.61 523.33,-872.61 519.5,-868.78 519.5,-864.95 519.5,-864.95 519.5,-857.28 519.5,-857.28 519.5,-853.45 523.33,-849.61 527.17,-849.61 527.17,-849.61 610.83,-849.61 610.83,-849.61 614.67,-849.61 618.5,-853.45 618.5,-857.28 618.5,-857.28 618.5,-864.95 618.5,-864.95 618.5,-868.78 614.67,-872.61 610.83,-872.61"/>
<text text-anchor="middle" x="569" y="-857.41" font-family="Arial" font-size="14.00" fill="#c6c5fe">gui/controls.js</text>
</g>
<!-- gui/controls.js&#45;&gt;helpers.js -->
<g id="edge28" class="edge">
<title>gui/controls.js&#45;&gt;helpers.js</title>
<path fill="none" stroke="#757575" d="M618.56,-858.48C638.29,-860.12 659.57,-865.88 673,-881.11 752.69,-971.48 621.63,-1339.15 709,-1422.11 836.64,-1543.31 1362.24,-1539.4 1501,-1431.11 1573.14,-1374.82 1607.3,-1072.15 1615.51,-987.89"/>
<polygon fill="#757575" stroke="#757575" points="1619.01,-987.99 1616.47,-977.71 1612.04,-987.33 1619.01,-987.99"/>
</g>
<!-- gui/controls.js&#45;&gt;core.js -->
<g id="edge27" class="edge">
<title>gui/controls.js&#45;&gt;core.js</title>
<path fill="none" stroke="#757575" d="M618.65,-859C636.93,-856.29 657.12,-850.83 673,-840.11 733.01,-799.62 770.56,-718.21 785.75,-679.5"/>
<polygon fill="#757575" stroke="#757575" points="789.16,-680.38 789.45,-669.78 782.62,-677.89 789.16,-680.38"/>
</g>
<!-- gui/controls.js&#45;&gt;scenarios.js -->
<g id="edge29" class="edge">
<title>gui/controls.js&#45;&gt;scenarios.js</title>
<path fill="none" stroke="#757575" d="M618.68,-866.95C636.18,-869.98 655.84,-874.49 673,-881.11 782.84,-923.49 897.96,-1006.11 945.69,-1042.35"/>
<polygon fill="#757575" stroke="#757575" points="943.74,-1045.26 953.81,-1048.56 947.99,-1039.7 943.74,-1045.26"/>
</g>
<!-- gui/dat.gui.js -->
<g id="node17" class="node">
<title>gui/dat.gui.js</title>
<path fill="none" stroke="#cfffac" d="M385.33,-710.61C385.33,-710.61 308.67,-710.61 308.67,-710.61 304.83,-710.61 301,-706.78 301,-702.95 301,-702.95 301,-695.28 301,-695.28 301,-691.45 304.83,-687.61 308.67,-687.61 308.67,-687.61 385.33,-687.61 385.33,-687.61 389.17,-687.61 393,-691.45 393,-695.28 393,-695.28 393,-702.95 393,-702.95 393,-706.78 389.17,-710.61 385.33,-710.61"/>
<text text-anchor="middle" x="347" y="-695.41" font-family="Arial" font-size="14.00" fill="#cfffac">gui/dat.gui.js</text>
</g>
<!-- gui/field.js -->
<g id="node18" class="node">
<title>gui/field.js</title>
<path fill="none" stroke="#c6c5fe" d="M377.83,-669.61C377.83,-669.61 316.17,-669.61 316.17,-669.61 312.33,-669.61 308.5,-665.78 308.5,-661.95 308.5,-661.95 308.5,-654.28 308.5,-654.28 308.5,-650.45 312.33,-646.61 316.17,-646.61 316.17,-646.61 377.83,-646.61 377.83,-646.61 381.67,-646.61 385.5,-650.45 385.5,-654.28 385.5,-654.28 385.5,-661.95 385.5,-661.95 385.5,-665.78 381.67,-669.61 377.83,-669.61"/>
<text text-anchor="middle" x="347" y="-654.41" font-family="Arial" font-size="14.00" fill="#c6c5fe">gui/field.js</text>
</g>
<!-- gui/field.js&#45;&gt;core.js -->
<g id="edge30" class="edge">
<title>gui/field.js&#45;&gt;core.js</title>
<path fill="none" stroke="#757575" d="M385.6,-658.11C469.79,-658.11 672.62,-658.11 756.37,-658.11"/>
<polygon fill="#757575" stroke="#757575" points="756.44,-661.61 766.44,-658.11 756.44,-654.61 756.44,-661.61"/>
</g>
<!-- gui/generator.js -->
<g id="node19" class="node">
<title>gui/generator.js</title>
<path fill="none" stroke="#c6c5fe" d="M393.83,-298.61C393.83,-298.61 300.17,-298.61 300.17,-298.61 296.33,-298.61 292.5,-294.78 292.5,-290.95 292.5,-290.95 292.5,-283.28 292.5,-283.28 292.5,-279.45 296.33,-275.61 300.17,-275.61 300.17,-275.61 393.83,-275.61 393.83,-275.61 397.67,-275.61 401.5,-279.45 401.5,-283.28 401.5,-283.28 401.5,-290.95 401.5,-290.95 401.5,-294.78 397.67,-298.61 393.83,-298.61"/>
<text text-anchor="middle" x="347" y="-283.41" font-family="Arial" font-size="14.00" fill="#c6c5fe">gui/generator.js</text>
</g>
<!-- gui/generator.js&#45;&gt;helpers.js -->
<g id="edge33" class="edge">
<title>gui/generator.js&#45;&gt;helpers.js</title>
<path fill="none" stroke="#757575" d="M351.59,-275.29C362.36,-242.22 397.85,-148.88 465,-113.11 620.72,-30.17 1033.97,99.08 1286,-126.11 1375.62,-206.19 1239.35,-306.86 1322,-394.11 1377.69,-452.9 1443.01,-371.59 1501,-428.11 1577.04,-502.24 1608.85,-853.09 1615.92,-944.37"/>
<polygon fill="#757575" stroke="#757575" points="1612.44,-944.69 1616.68,-954.39 1619.42,-944.16 1612.44,-944.69"/>
</g>
<!-- gui/generator.js&#45;&gt;core.js -->
<g id="edge32" class="edge">
<title>gui/generator.js&#45;&gt;core.js</title>
<path fill="none" stroke="#757575" d="M361.82,-298.62C425.73,-351.84 692.82,-574.27 771.56,-639.84"/>
<polygon fill="#757575" stroke="#757575" points="769.47,-642.66 779.4,-646.37 773.95,-637.28 769.47,-642.66"/>
</g>
<!-- gui/generator.js&#45;&gt;components/selection.js -->
<g id="edge31" class="edge">
<title>gui/generator.js&#45;&gt;components/selection.js</title>
<path fill="none" stroke="#757575" d="M401.54,-296.12C427.93,-300.56 460.28,-306 489.42,-310.9"/>
<polygon fill="#757575" stroke="#757575" points="489.13,-314.4 499.57,-312.6 490.29,-307.49 489.13,-314.4"/>
</g>
<!-- gui/generator.js&#45;&gt;physics.js -->
<g id="edge34" class="edge">
<title>gui/generator.js&#45;&gt;physics.js</title>
<path fill="none" stroke="#757575" d="M364.68,-275.44C381.22,-263.76 407.18,-245.12 429,-228.11 445.43,-215.31 445.69,-205.91 465,-198.11 600.74,-143.29 647.11,-174.11 793.5,-174.11 793.5,-174.11 793.5,-174.11 970.5,-174.11 1117.6,-174.11 1186.08,-166.16 1286,-274.11 1333.74,-325.7 1302.53,-360.57 1322,-428.11 1347.6,-516.92 1385.83,-620.26 1402.38,-663.92"/>
<polygon fill="#757575" stroke="#757575" points="1399.18,-665.37 1406.01,-673.47 1405.72,-662.87 1399.18,-665.37"/>
</g>
<!-- scenariosHelpers.js -->
<g id="node20" class="node">
<title>scenariosHelpers.js</title>
<path fill="none" stroke="#c6c5fe" d="M1470.83,-1046.61C1470.83,-1046.61 1352.17,-1046.61 1352.17,-1046.61 1348.33,-1046.61 1344.5,-1042.78 1344.5,-1038.95 1344.5,-1038.95 1344.5,-1031.28 1344.5,-1031.28 1344.5,-1027.45 1348.33,-1023.61 1352.17,-1023.61 1352.17,-1023.61 1470.83,-1023.61 1470.83,-1023.61 1474.67,-1023.61 1478.5,-1027.45 1478.5,-1031.28 1478.5,-1031.28 1478.5,-1038.95 1478.5,-1038.95 1478.5,-1042.78 1474.67,-1046.61 1470.83,-1046.61"/>
<text text-anchor="middle" x="1411.5" y="-1031.41" font-family="Arial" font-size="14.00" fill="#c6c5fe">scenariosHelpers.js</text>
</g>
<!-- gui/generator.js&#45;&gt;scenariosHelpers.js -->
<g id="edge35" class="edge">
<title>gui/generator.js&#45;&gt;scenariosHelpers.js</title>
<path fill="none" stroke="#757575" d="M401.65,-281.42C582.55,-263.52 1165.56,-216.9 1286,-345.11 1328.23,-390.07 1302.54,-840.58 1322,-899.11 1337.33,-945.23 1372.18,-990.94 1393.29,-1015.86"/>
<polygon fill="#757575" stroke="#757575" points="1390.69,-1018.2 1399.87,-1023.49 1395.98,-1013.63 1390.69,-1018.2"/>
</g>
<!-- scenariosHelpers.js&#45;&gt;helpers.js -->
<g id="edge67" class="edge">
<title>scenariosHelpers.js&#45;&gt;helpers.js</title>
<path fill="none" stroke="#757575" d="M1454.1,-1023.52C1468.97,-1019.21 1485.8,-1014.14 1501,-1009.11 1527.03,-1000.5 1555.95,-989.83 1578.46,-981.27"/>
<polygon fill="#757575" stroke="#757575" points="1579.91,-984.47 1588.01,-977.63 1577.42,-977.93 1579.91,-984.47"/>
</g>
<!-- scenariosHelpers.js&#45;&gt;particle.js -->
<g id="edge68" class="edge">
<title>scenariosHelpers.js&#45;&gt;particle.js</title>
<path fill="none" stroke="#757575" d="M1478.57,-1038.15C1540.52,-1037.88 1633.34,-1029.19 1700,-986.11 1732.07,-965.39 1753.36,-924.81 1764,-900.01"/>
<polygon fill="#757575" stroke="#757575" points="1767.24,-901.33 1767.8,-890.75 1760.77,-898.68 1767.24,-901.33"/>
</g>
<!-- gui/info.js -->
<g id="node21" class="node">
<title>gui/info.js</title>
<path fill="none" stroke="#c6c5fe" d="M598.33,-790.61C598.33,-790.61 539.67,-790.61 539.67,-790.61 535.83,-790.61 532,-786.78 532,-782.95 532,-782.95 532,-775.28 532,-775.28 532,-771.45 535.83,-767.61 539.67,-767.61 539.67,-767.61 598.33,-767.61 598.33,-767.61 602.17,-767.61 606,-771.45 606,-775.28 606,-775.28 606,-782.95 606,-782.95 606,-786.78 602.17,-790.61 598.33,-790.61"/>
<text text-anchor="middle" x="569" y="-775.41" font-family="Arial" font-size="14.00" fill="#c6c5fe">gui/info.js</text>
</g>
<!-- gui/info.js&#45;&gt;helpers.js -->
<g id="edge37" class="edge">
<title>gui/info.js&#45;&gt;helpers.js</title>
<path fill="none" stroke="#757575" d="M606.28,-786C690.57,-801.76 897.84,-839.11 968.5,-839.11 968.5,-839.11 968.5,-839.11 1173.5,-839.11 1319.3,-839.11 1366.87,-800.97 1501,-858.11 1545.49,-877.07 1583.68,-920.72 1603.34,-946.34"/>
<polygon fill="#757575" stroke="#757575" points="1600.71,-948.67 1609.5,-954.59 1606.32,-944.48 1600.71,-948.67"/>
</g>
<!-- gui/info.js&#45;&gt;core.js -->
<g id="edge36" class="edge">
<title>gui/info.js&#45;&gt;core.js</title>
<path fill="none" stroke="#757575" d="M606.1,-773.84C626.47,-769.94 651.99,-763.46 673,-753.11 713.23,-733.31 752.65,-698.47 774.94,-676.94"/>
<polygon fill="#757575" stroke="#757575" points="777.66,-679.17 782.34,-669.66 772.76,-674.17 777.66,-679.17"/>
</g>
<!-- gui/info.js&#45;&gt;physics.js -->
<g id="edge38" class="edge">
<title>gui/info.js&#45;&gt;physics.js</title>
<path fill="none" stroke="#757575" d="M606.12,-775.07C740.51,-760.04 1211.75,-707.34 1363.23,-690.4"/>
<polygon fill="#757575" stroke="#757575" points="1364.02,-693.83 1373.57,-689.24 1363.25,-686.88 1364.02,-693.83"/>
</g>
<!-- gui/parameters.js -->
<g id="node22" class="node">
<title>gui/parameters.js</title>
<path fill="none" stroke="#c6c5fe" d="M621.83,-145.61C621.83,-145.61 516.17,-145.61 516.17,-145.61 512.33,-145.61 508.5,-141.78 508.5,-137.95 508.5,-137.95 508.5,-130.28 508.5,-130.28 508.5,-126.45 512.33,-122.61 516.17,-122.61 516.17,-122.61 621.83,-122.61 621.83,-122.61 625.67,-122.61 629.5,-126.45 629.5,-130.28 629.5,-130.28 629.5,-137.95 629.5,-137.95 629.5,-141.78 625.67,-145.61 621.83,-145.61"/>
<text text-anchor="middle" x="569" y="-130.41" font-family="Arial" font-size="14.00" fill="#c6c5fe">gui/parameters.js</text>
</g>
<!-- gui/parameters.js&#45;&gt;core.js -->
<g id="edge39" class="edge">
<title>gui/parameters.js&#45;&gt;core.js</title>
<path fill="none" stroke="#757575" d="M578.45,-145.9C597.4,-172.73 643.9,-240.86 673,-303.11 729.72,-424.44 773.11,-580.1 787.96,-636.5"/>
<polygon fill="#757575" stroke="#757575" points="784.63,-637.62 790.54,-646.41 791.41,-635.85 784.63,-637.62"/>
</g>
<!-- gui/parameters.js&#45;&gt;physics.js -->
<g id="edge40" class="edge">
<title>gui/parameters.js&#45;&gt;physics.js</title>
<path fill="none" stroke="#757575" d="M629.55,-131.98C792.7,-126.71 1237.95,-116.52 1286,-160.11 1330.51,-200.49 1308.15,-369.64 1322,-428.11 1343.3,-518.05 1383.81,-620.79 1401.67,-664.11"/>
<polygon fill="#757575" stroke="#757575" points="1398.53,-665.68 1405.6,-673.57 1404.99,-663 1398.53,-665.68"/>
</g>
<!-- gui/particle.js -->
<g id="node23" class="node">
<title>gui/particle.js</title>
<path fill="none" stroke="#c6c5fe" d="M608.83,-1418.61C608.83,-1418.61 529.17,-1418.61 529.17,-1418.61 525.33,-1418.61 521.5,-1414.78 521.5,-1410.95 521.5,-1410.95 521.5,-1403.28 521.5,-1403.28 521.5,-1399.45 525.33,-1395.61 529.17,-1395.61 529.17,-1395.61 608.83,-1395.61 608.83,-1395.61 612.67,-1395.61 616.5,-1399.45 616.5,-1403.28 616.5,-1403.28 616.5,-1410.95 616.5,-1410.95 616.5,-1414.78 612.67,-1418.61 608.83,-1418.61"/>
<text text-anchor="middle" x="569" y="-1403.41" font-family="Arial" font-size="14.00" fill="#c6c5fe">gui/particle.js</text>
</g>
<!-- gui/particle.js&#45;&gt;helpers.js -->
<g id="edge42" class="edge">
<title>gui/particle.js&#45;&gt;helpers.js</title>
<path fill="none" stroke="#757575" d="M575,-1418.93C589.71,-1451.99 636.44,-1545.2 709,-1580.11 867.63,-1656.43 1369.66,-1681.33 1501,-1564.11 1545.5,-1524.4 1602.02,-1090.48 1614.84,-987.8"/>
<polygon fill="#757575" stroke="#757575" points="1618.33,-988.04 1616.09,-977.69 1611.39,-987.18 1618.33,-988.04"/>
</g>
<!-- gui/particle.js&#45;&gt;core.js -->
<g id="edge41" class="edge">
<title>gui/particle.js&#45;&gt;core.js</title>
<path fill="none" stroke="#757575" d="M573.51,-1395.35C598.82,-1310.51 753.43,-792.4 787.05,-679.73"/>
<polygon fill="#757575" stroke="#757575" points="790.49,-680.43 790,-669.85 783.78,-678.43 790.49,-680.43"/>
</g>
<!-- gui/particle.js&#45;&gt;particle.js -->
<g id="edge43" class="edge">
<title>gui/particle.js&#45;&gt;particle.js</title>
<path fill="none" stroke="#757575" d="M574.13,-1418.94C587.4,-1455.08 632.56,-1564.69 709,-1617.11 806.38,-1683.9 850.42,-1674.11 968.5,-1674.11 968.5,-1674.11 968.5,-1674.11 1412.5,-1674.11 1552.19,-1674.11 1617.58,-1659.89 1700,-1547.11 1739.05,-1493.68 1765.45,-1009.91 1770.94,-900.88"/>
<polygon fill="#757575" stroke="#757575" points="1774.44,-900.9 1771.44,-890.74 1767.45,-900.56 1774.44,-900.9"/>
</g>
<!-- gui/selection.js -->
<g id="node24" class="node">
<title>gui/selection.js</title>
<path fill="none" stroke="#c6c5fe" d="M391.83,-571.61C391.83,-571.61 302.17,-571.61 302.17,-571.61 298.33,-571.61 294.5,-567.78 294.5,-563.95 294.5,-563.95 294.5,-556.28 294.5,-556.28 294.5,-552.45 298.33,-548.61 302.17,-548.61 302.17,-548.61 391.83,-548.61 391.83,-548.61 395.67,-548.61 399.5,-552.45 399.5,-556.28 399.5,-556.28 399.5,-563.95 399.5,-563.95 399.5,-567.78 395.67,-571.61 391.83,-571.61"/>
<text text-anchor="middle" x="347" y="-556.41" font-family="Arial" font-size="14.00" fill="#c6c5fe">gui/selection.js</text>
</g>
<!-- gui/selection.js&#45;&gt;helpers.js -->
<g id="edge46" class="edge">
<title>gui/selection.js&#45;&gt;helpers.js</title>
<path fill="none" stroke="#757575" d="M363.11,-548.54C458.2,-477.16 979.69,-107.6 1286,-345.11 1336.77,-384.48 1277.87,-438.42 1322,-485.11 1379.34,-545.8 1443.16,-481.9 1501,-542.11 1613.72,-659.45 1619.5,-875.3 1618.28,-944.3"/>
<polygon fill="#757575" stroke="#757575" points="1614.77,-944.33 1618.02,-954.42 1621.77,-944.51 1614.77,-944.33"/>
</g>
<!-- gui/selection.js&#45;&gt;core.js -->
<g id="edge45" class="edge">
<title>gui/selection.js&#45;&gt;core.js</title>
<path fill="none" stroke="#757575" d="M399.54,-571.45C490.4,-591.44 676.96,-632.48 756.38,-649.95"/>
<polygon fill="#757575" stroke="#757575" points="755.89,-653.42 766.41,-652.15 757.4,-646.59 755.89,-653.42"/>
</g>
<!-- gui/selection.js&#45;&gt;components/selection.js -->
<g id="edge44" class="edge">
<title>gui/selection.js&#45;&gt;components/selection.js</title>
<path fill="none" stroke="#757575" d="M354.92,-548.61C369.16,-524.82 402.62,-468.42 429,-420.11 445.77,-389.41 437.61,-371.88 465,-350.11 470.07,-346.08 475.69,-342.67 481.6,-339.78"/>
<polygon fill="#757575" stroke="#757575" points="483.33,-342.85 491.12,-335.66 480.55,-336.42 483.33,-342.85"/>
</g>
<!-- gui/stats.js -->
<g id="node25" class="node">
<title>gui/stats.js</title>
<path fill="none" stroke="#cfffac" d="M379.33,-1034.61C379.33,-1034.61 314.67,-1034.61 314.67,-1034.61 310.83,-1034.61 307,-1030.78 307,-1026.95 307,-1026.95 307,-1019.28 307,-1019.28 307,-1015.45 310.83,-1011.61 314.67,-1011.61 314.67,-1011.61 379.33,-1011.61 379.33,-1011.61 383.17,-1011.61 387,-1015.45 387,-1019.28 387,-1019.28 387,-1026.95 387,-1026.95 387,-1030.78 383.17,-1034.61 379.33,-1034.61"/>
<text text-anchor="middle" x="347" y="-1019.41" font-family="Arial" font-size="14.00" fill="#cfffac">gui/stats.js</text>
</g>
<!-- main.js -->
<g id="node26" class="node">
<title>main.js</title>
<path fill="none" stroke="#c6c5fe" d="M81.33,-830.61C81.33,-830.61 36.67,-830.61 36.67,-830.61 32.83,-830.61 29,-826.78 29,-822.95 29,-822.95 29,-815.28 29,-815.28 29,-811.45 32.83,-807.61 36.67,-807.61 36.67,-807.61 81.33,-807.61 81.33,-807.61 85.17,-807.61 89,-811.45 89,-815.28 89,-815.28 89,-822.95 89,-822.95 89,-826.78 85.17,-830.61 81.33,-830.61"/>
<text text-anchor="middle" x="59" y="-815.41" font-family="Arial" font-size="14.00" fill="#c6c5fe">main.js</text>
</g>
<!-- ui/App.jsx -->
<g id="node27" class="node">
<title>ui/App.jsx</title>
<path fill="none" stroke="#c6c5fe" d="M221.33,-1113.61C221.33,-1113.61 161.67,-1113.61 161.67,-1113.61 157.83,-1113.61 154,-1109.78 154,-1105.95 154,-1105.95 154,-1098.28 154,-1098.28 154,-1094.45 157.83,-1090.61 161.67,-1090.61 161.67,-1090.61 221.33,-1090.61 221.33,-1090.61 225.17,-1090.61 229,-1094.45 229,-1098.28 229,-1098.28 229,-1105.95 229,-1105.95 229,-1109.78 225.17,-1113.61 221.33,-1113.61"/>
<text text-anchor="middle" x="191.5" y="-1098.41" font-family="Arial" font-size="14.00" fill="#c6c5fe">ui/App.jsx</text>
</g>
<!-- main.js&#45;&gt;ui/App.jsx -->
<g id="edge48" class="edge">
<title>main.js&#45;&gt;ui/App.jsx</title>
<path fill="none" stroke="#757575" d="M89.04,-823.35C99.42,-826.22 110.42,-831.04 118,-839.11 183.11,-908.47 190.68,-1030.89 190.92,-1080.41"/>
<polygon fill="#757575" stroke="#757575" points="187.42,-1080.58 190.87,-1090.6 194.42,-1080.62 187.42,-1080.58"/>
</g>
<!-- view.js -->
<g id="node28" class="node">
<title>view.js</title>
<path fill="none" stroke="#c6c5fe" d="M211.83,-810.61C211.83,-810.61 171.17,-810.61 171.17,-810.61 167.33,-810.61 163.5,-806.78 163.5,-802.95 163.5,-802.95 163.5,-795.28 163.5,-795.28 163.5,-791.45 167.33,-787.61 171.17,-787.61 171.17,-787.61 211.83,-787.61 211.83,-787.61 215.67,-787.61 219.5,-791.45 219.5,-795.28 219.5,-795.28 219.5,-802.95 219.5,-802.95 219.5,-806.78 215.67,-810.61 211.83,-810.61"/>
<text text-anchor="middle" x="191.5" y="-795.41" font-family="Arial" font-size="14.00" fill="#c6c5fe">view.js</text>
</g>
<!-- main.js&#45;&gt;view.js -->
<g id="edge49" class="edge">
<title>main.js&#45;&gt;view.js</title>
<path fill="none" stroke="#757575" d="M89.29,-814.62C108.1,-811.74 132.72,-807.97 152.96,-804.87"/>
<polygon fill="#757575" stroke="#757575" points="153.74,-808.29 163.09,-803.31 152.68,-801.37 153.74,-808.29"/>
</g>
<!-- ui/views/Information.jsx -->
<g id="node46" class="node">
<title>ui/views/Information.jsx</title>
<path fill="none" stroke="#c6c5fe" d="M417.83,-1646.61C417.83,-1646.61 276.17,-1646.61 276.17,-1646.61 272.33,-1646.61 268.5,-1642.78 268.5,-1638.95 268.5,-1638.95 268.5,-1631.28 268.5,-1631.28 268.5,-1627.45 272.33,-1623.61 276.17,-1623.61 276.17,-1623.61 417.83,-1623.61 417.83,-1623.61 421.67,-1623.61 425.5,-1627.45 425.5,-1631.28 425.5,-1631.28 425.5,-1638.95 425.5,-1638.95 425.5,-1642.78 421.67,-1646.61 417.83,-1646.61"/>
<text text-anchor="middle" x="347" y="-1631.41" font-family="Arial" font-size="14.00" fill="#c6c5fe">ui/views/Information.jsx</text>
</g>
<!-- ui/App.jsx&#45;&gt;ui/views/Information.jsx -->
<g id="edge110" class="edge">
<title>ui/App.jsx&#45;&gt;ui/views/Information.jsx</title>
<path fill="none" stroke="#757575" d="M195.85,-1113.74C215.31,-1181.33 313.91,-1523.7 339.78,-1613.51"/>
<polygon fill="#757575" stroke="#757575" points="336.43,-1614.54 342.56,-1623.18 343.16,-1612.6 336.43,-1614.54"/>
</g>
<!-- view.js&#45;&gt;components/keyboard.js -->
<g id="edge115" class="edge">
<title>view.js&#45;&gt;components/keyboard.js</title>
<path fill="none" stroke="#757575" d="M194.58,-810.89C200.33,-839.93 219.13,-915.53 265,-956.11 269.46,-960.06 274.53,-963.41 279.91,-966.26"/>
<polygon fill="#757575" stroke="#757575" points="278.64,-969.53 289.18,-970.57 281.6,-963.18 278.64,-969.53"/>
</g>
<!-- view.js&#45;&gt;components/mouse.js -->
<g id="edge116" class="edge">
<title>view.js&#45;&gt;components/mouse.js</title>
<path fill="none" stroke="#757575" d="M199.61,-810.83C211.27,-829.21 236.07,-864.99 265,-887.11 328.52,-935.68 369.77,-907.39 429,-961.11 590.32,-1107.45 592.23,-1183.84 673,-1386.11 698.1,-1448.98 662.59,-1484.83 709,-1534.11 712.44,-1537.76 716.37,-1540.9 720.62,-1543.61"/>
<polygon fill="#757575" stroke="#757575" points="719.27,-1546.86 729.73,-1548.56 722.62,-1540.71 719.27,-1546.86"/>
</g>
<!-- view.js&#45;&gt;components/ruler.js -->
<g id="edge117" class="edge">
<title>view.js&#45;&gt;components/ruler.js</title>
<path fill="none" stroke="#757575" d="M219.68,-801.58C233.28,-802.75 250,-804.12 265,-805.11 342,-810.2 430.12,-814.38 491.4,-817.02"/>
<polygon fill="#757575" stroke="#757575" points="491.62,-820.53 501.76,-817.47 491.92,-813.54 491.62,-820.53"/>
</g>
<!-- view.js&#45;&gt;core.js -->
<g id="edge119" class="edge">
<title>view.js&#45;&gt;core.js</title>
<path fill="none" stroke="#757575" d="M219.89,-792.69C317.09,-769.88 645.62,-692.81 756.56,-666.78"/>
<polygon fill="#757575" stroke="#757575" points="757.36,-670.19 766.3,-664.49 755.76,-663.37 757.36,-670.19"/>
</g>
<!-- view.js&#45;&gt;components/selection.js -->
<g id="edge118" class="edge">
<title>view.js&#45;&gt;components/selection.js</title>
<path fill="none" stroke="#757575" d="M193.53,-787.35C197.34,-748.97 213.2,-624.98 265,-539.11 328.17,-434.39 357.8,-408.98 465,-350.11 473.28,-345.57 482.37,-341.8 491.61,-338.68"/>
<polygon fill="#757575" stroke="#757575" points="492.77,-341.98 501.27,-335.66 490.68,-335.3 492.77,-341.98"/>
</g>
<!-- view.js&#45;&gt;gui/advanced.js -->
<g id="edge120" class="edge">
<title>view.js&#45;&gt;gui/advanced.js</title>
<path fill="none" stroke="#757575" d="M204.73,-810.89C218.3,-823.25 241.42,-842.22 265,-852.11 343,-884.85 440.71,-896.22 503.73,-900.12"/>
<polygon fill="#757575" stroke="#757575" points="503.74,-903.63 513.92,-900.71 504.14,-896.64 503.74,-903.63"/>
</g>
<!-- view.js&#45;&gt;gui/controls.js -->
<g id="edge121" class="edge">
<title>view.js&#45;&gt;gui/controls.js</title>
<path fill="none" stroke="#757575" d="M219.64,-809.99C233.09,-814.99 249.69,-820.58 265,-824.11 348.59,-843.4 447.63,-853.09 509.15,-857.61"/>
<polygon fill="#757575" stroke="#757575" points="509.22,-861.12 519.44,-858.34 509.71,-854.14 509.22,-861.12"/>
</g>
<!-- view.js&#45;&gt;gui/dat.gui.js -->
<g id="edge122" class="edge">
<title>view.js&#45;&gt;gui/dat.gui.js</title>
<path fill="none" stroke="#757575" d="M201,-787.37C213.35,-771.14 237.76,-741.93 265,-725.11 272.94,-720.21 281.89,-716.15 290.87,-712.8"/>
<polygon fill="#757575" stroke="#757575" points="292.27,-716.02 300.58,-709.45 289.98,-709.41 292.27,-716.02"/>
</g>
<!-- view.js&#45;&gt;gui/field.js -->
<g id="edge123" class="edge">
<title>view.js&#45;&gt;gui/field.js</title>
<path fill="none" stroke="#757575" d="M196.1,-787.36C204.18,-762.98 226.2,-706.79 265,-678.11 274.64,-670.99 286.51,-666.38 298.17,-663.4"/>
<polygon fill="#757575" stroke="#757575" points="299.27,-666.75 308.29,-661.19 297.77,-659.91 299.27,-666.75"/>
</g>
<!-- view.js&#45;&gt;gui/generator.js -->
<g id="edge124" class="edge">
<title>view.js&#45;&gt;gui/generator.js</title>
<path fill="none" stroke="#757575" d="M192.58,-787.53C193.32,-737.78 200.37,-538.14 265,-392.11 279.91,-358.44 307.81,-325.85 326.65,-306.14"/>
<polygon fill="#757575" stroke="#757575" points="329.37,-308.35 333.86,-298.76 324.37,-303.46 329.37,-308.35"/>
</g>
<!-- view.js&#45;&gt;gui/info.js -->
<g id="edge125" class="edge">
<title>view.js&#45;&gt;gui/info.js</title>
<path fill="none" stroke="#757575" d="M219.51,-797.67C282.99,-794.29 442.35,-785.8 521.66,-781.58"/>
<polygon fill="#757575" stroke="#757575" points="522.04,-785.07 531.84,-781.04 521.67,-778.08 522.04,-785.07"/>
</g>
<!-- view.js&#45;&gt;gui/parameters.js -->
<g id="edge126" class="edge">
<title>view.js&#45;&gt;gui/parameters.js</title>
<path fill="none" stroke="#757575" d="M192.67,-787.39C193.91,-717.37 203.27,-354.56 265,-266.11 318.55,-189.38 426.84,-156.84 498.39,-143.33"/>
<polygon fill="#757575" stroke="#757575" points="499.01,-146.77 508.23,-141.55 497.77,-139.89 499.01,-146.77"/>
</g>
<!-- view.js&#45;&gt;gui/particle.js -->
<g id="edge127" class="edge">
<title>view.js&#45;&gt;gui/particle.js</title>
<path fill="none" stroke="#757575" d="M194.23,-810.68C199.98,-846.85 220.68,-960.32 265,-1043.11 345.28,-1193.08 493.69,-1338.38 547.68,-1388.62"/>
<polygon fill="#757575" stroke="#757575" points="545.51,-1391.37 555.23,-1395.59 550.26,-1386.23 545.51,-1391.37"/>
</g>
<!-- view.js&#45;&gt;gui/selection.js -->
<g id="edge128" class="edge">
<title>view.js&#45;&gt;gui/selection.js</title>
<path fill="none" stroke="#757575" d="M196.02,-787.31C204.69,-759.41 229.05,-687.92 265,-637.11 281.18,-614.24 304.87,-592.68 322.46,-578.22"/>
<polygon fill="#757575" stroke="#757575" points="324.94,-580.72 330.54,-571.72 320.55,-575.26 324.94,-580.72"/>
</g>
<!-- view.js&#45;&gt;gui/stats.js -->
<g id="edge129" class="edge">
<title>view.js&#45;&gt;gui/stats.js</title>
<path fill="none" stroke="#757575" d="M193.03,-810.79C195.26,-845.47 206.73,-948.83 265,-1002.11 273.79,-1010.15 285.26,-1015.19 296.79,-1018.34"/>
<polygon fill="#757575" stroke="#757575" points="296.34,-1021.82 306.87,-1020.64 297.9,-1015 296.34,-1021.82"/>
</g>
<!-- mock/graphics.js -->
<g id="node29" class="node">
<title>mock/graphics.js</title>
<path fill="none" stroke="#cfffac" d="M110.33,-871.61C110.33,-871.61 7.67,-871.61 7.67,-871.61 3.83,-871.61 0,-867.78 0,-863.95 0,-863.95 0,-856.28 0,-856.28 0,-852.45 3.83,-848.61 7.67,-848.61 7.67,-848.61 110.33,-848.61 110.33,-848.61 114.17,-848.61 118,-852.45 118,-856.28 118,-856.28 118,-863.95 118,-863.95 118,-867.78 114.17,-871.61 110.33,-871.61"/>
<text text-anchor="middle" x="59" y="-856.41" font-family="Arial" font-size="14.00" fill="#cfffac">mock/graphics.js</text>
</g>
<!-- scenarios_v0/elements.js&#45;&gt;physics.js -->
<g id="edge69" class="edge">
<title>scenarios_v0/elements.js&#45;&gt;physics.js</title>
<path fill="none" stroke="#757575" d="M1187.78,-905.5C1209.56,-887.61 1252.14,-851.91 1286,-819.11 1326.14,-780.24 1369.92,-731.5 1393.37,-704.82"/>
<polygon fill="#757575" stroke="#757575" points="1396.28,-706.8 1400.24,-696.97 1391.02,-702.19 1396.28,-706.8"/>
</g>
<!-- scenarios_v0/elements.js&#45;&gt;scenariosHelpers.js -->
<g id="edge70" class="edge">
<title>scenarios_v0/elements.js&#45;&gt;scenariosHelpers.js</title>
<path fill="none" stroke="#757575" d="M1257.22,-927.24C1267.14,-929.82 1276.95,-933.06 1286,-937.11 1328.89,-956.34 1369.98,-993.55 1392.58,-1016.18"/>
<polygon fill="#757575" stroke="#757575" points="1390.27,-1018.83 1399.77,-1023.52 1395.27,-1013.93 1390.27,-1018.83"/>
</g>
<!-- scenarios_v0/experiments0.js&#45;&gt;helpers.js -->
<g id="edge71" class="edge">
<title>scenarios_v0/experiments0.js&#45;&gt;helpers.js</title>
<path fill="none" stroke="#757575" d="M1246.28,-1274.58C1259.6,-1271.89 1273.29,-1268.73 1286,-1265.11 1302.51,-1260.41 1305.69,-1256.45 1322,-1251.11 1400.28,-1225.48 1437.37,-1255.41 1501,-1203.11 1571.34,-1145.3 1602.65,-1034.57 1613.16,-987.81"/>
<polygon fill="#757575" stroke="#757575" points="1616.62,-988.37 1615.3,-977.85 1609.78,-986.9 1616.62,-988.37"/>
</g>
<!-- scenarios_v0/experiments0.js&#45;&gt;scenariosHelpers.js -->
<g id="edge72" class="edge">
<title>scenarios_v0/experiments0.js&#45;&gt;scenariosHelpers.js</title>
<path fill="none" stroke="#757575" d="M1269.64,-1274.49C1275.42,-1271.89 1280.94,-1268.8 1286,-1265.11 1304.96,-1251.3 1374.43,-1109.93 1400.51,-1055.93"/>
<polygon fill="#757575" stroke="#757575" points="1403.67,-1057.44 1404.86,-1046.91 1397.36,-1054.4 1403.67,-1057.44"/>
</g>
<!-- scenarios_v0/experiments1.js&#45;&gt;helpers.js -->
<g id="edge73" class="edge">
<title>scenarios_v0/experiments1.js&#45;&gt;helpers.js</title>
<path fill="none" stroke="#757575" d="M1263.71,-1028.61C1271.47,-1026.04 1279.02,-1022.91 1286,-1019.11 1306.43,-1007.99 1300.87,-990.84 1322,-981.11 1403.38,-943.64 1511.03,-950.26 1571.38,-958.29"/>
<polygon fill="#757575" stroke="#757575" points="1570.98,-961.77 1581.37,-959.69 1571.95,-954.84 1570.98,-961.77"/>
</g>
<!-- scenarios_v0/experiments1.js&#45;&gt;physics.js -->
<g id="edge74" class="edge">
<title>scenarios_v0/experiments1.js&#45;&gt;physics.js</title>
<path fill="none" stroke="#757575" d="M1270.13,-1030.43C1275.91,-1027.39 1281.28,-1023.67 1286,-1019.11 1338.76,-968.19 1297.1,-927.08 1322,-858.11 1342.87,-800.31 1378.84,-737.18 1397.87,-705.56"/>
<polygon fill="#757575" stroke="#757575" points="1400.99,-707.17 1403.19,-696.8 1395,-703.53 1400.99,-707.17"/>
</g>
<!-- scenarios_v0/experiments1.js&#45;&gt;scenariosHelpers.js -->
<g id="edge75" class="edge">
<title>scenarios_v0/experiments1.js&#45;&gt;scenariosHelpers.js</title>
<path fill="none" stroke="#757575" d="M1270.24,-1038.07C1291.59,-1037.62 1313.92,-1037.15 1334.32,-1036.72"/>
<polygon fill="#757575" stroke="#757575" points="1334.56,-1040.22 1344.48,-1036.51 1334.41,-1033.22 1334.56,-1040.22"/>
</g>
<!-- scenarios_v0/fieldTest.js&#45;&gt;particle.js -->
<g id="edge76" class="edge">
<title>scenarios_v0/fieldTest.js&#45;&gt;particle.js</title>
<path fill="none" stroke="#757575" d="M1628.82,-1515.39C1646.03,-1493.05 1682.62,-1442.24 1700,-1393.11 1764.48,-1210.88 1771.45,-973.12 1772.02,-900.87"/>
<polygon fill="#757575" stroke="#757575" points="1775.52,-900.74 1772.06,-890.72 1768.52,-900.71 1775.52,-900.74"/>
</g>
<!-- scenarios_v0/gpgpuTest.js&#45;&gt;helpers.js -->
<g id="edge77" class="edge">
<title>scenarios_v0/gpgpuTest.js&#45;&gt;helpers.js</title>
<path fill="none" stroke="#757575" d="M1242.18,-1233.56C1256.71,-1230.76 1271.91,-1227.57 1286,-1224.11 1302.25,-1220.13 1305.92,-1217.72 1322,-1213.11 1401.18,-1190.41 1435.51,-1215.06 1501,-1165.11 1562.66,-1118.09 1597.7,-1028.3 1611.11,-987.38"/>
<polygon fill="#757575" stroke="#757575" points="1614.51,-988.24 1614.19,-977.65 1607.84,-986.13 1614.51,-988.24"/>
</g>
<!-- scenarios_v0/gpgpuTest.js&#45;&gt;scenariosHelpers.js -->
<g id="edge78" class="edge">
<title>scenarios_v0/gpgpuTest.js&#45;&gt;scenariosHelpers.js</title>
<path fill="none" stroke="#757575" d="M1260.75,-1236.21C1269.69,-1233.17 1278.3,-1229.23 1286,-1224.11 1294.3,-1218.6 1367.7,-1103.02 1397.75,-1055.37"/>
<polygon fill="#757575" stroke="#757575" points="1400.79,-1057.13 1403.16,-1046.8 1394.86,-1053.4 1400.79,-1057.13"/>
</g>
<!-- scenarios_v0/nuclearForce.js&#45;&gt;helpers.js -->
<g id="edge79" class="edge">
<title>scenarios_v0/nuclearForce.js&#45;&gt;helpers.js</title>
<path fill="none" stroke="#757575" d="M1239.69,-1192.56C1254.94,-1189.67 1271.07,-1186.45 1286,-1183.11 1298.05,-1180.42 1490.81,-1134.08 1501,-1127.11 1554.14,-1090.79 1591.71,-1021.89 1608.17,-987.19"/>
<polygon fill="#757575" stroke="#757575" points="1611.41,-988.53 1612.42,-977.98 1605.05,-985.59 1611.41,-988.53"/>
</g>
<!-- scenarios_v0/nuclearForce.js&#45;&gt;scenariosHelpers.js -->
<g id="edge80" class="edge">
<title>scenarios_v0/nuclearForce.js&#45;&gt;scenariosHelpers.js</title>
<path fill="none" stroke="#757575" d="M1266.12,-1192.57C1273.08,-1189.99 1279.8,-1186.88 1286,-1183.11 1308.19,-1169.64 1305.49,-1157.15 1322,-1137.11 1346.11,-1107.86 1375.08,-1074.86 1393.14,-1054.52"/>
<polygon fill="#757575" stroke="#757575" points="1395.91,-1056.68 1399.95,-1046.88 1390.68,-1052.02 1395.91,-1056.68"/>
</g>
<!-- scenarios_v0/nuclearForce1.js&#45;&gt;helpers.js -->
<g id="edge81" class="edge">
<title>scenarios_v0/nuclearForce1.js&#45;&gt;helpers.js</title>
<path fill="none" stroke="#757575" d="M1238.46,-1151.59C1254.06,-1148.66 1270.65,-1145.4 1286,-1142.11 1382.13,-1121.53 1416.03,-1139.55 1501,-1090.11 1546.42,-1063.69 1584.97,-1014.11 1604.27,-986.32"/>
<polygon fill="#757575" stroke="#757575" points="1607.33,-988.03 1610.05,-977.79 1601.54,-984.1 1607.33,-988.03"/>
</g>
<!-- scenarios_v0/nuclearForce1.js&#45;&gt;scenariosHelpers.js -->
<g id="edge82" class="edge">
<title>scenarios_v0/nuclearForce1.js&#45;&gt;scenariosHelpers.js</title>
<path fill="none" stroke="#757575" d="M1265.41,-1151.55C1272.61,-1148.98 1279.57,-1145.87 1286,-1142.11 1307.52,-1129.53 1303.76,-1116.1 1322,-1099.11 1341.08,-1081.34 1365.19,-1064.2 1383.43,-1052.13"/>
<polygon fill="#757575" stroke="#757575" points="1385.4,-1055.03 1391.86,-1046.64 1381.57,-1049.17 1385.4,-1055.03"/>
</g>
<!-- scenarios_v0/sandbox.js&#45;&gt;physics.js -->
<g id="edge83" class="edge">
<title>scenarios_v0/sandbox.js&#45;&gt;physics.js</title>
<path fill="none" stroke="#757575" d="M1254.76,-995.04C1266.24,-991.47 1277.13,-986.08 1286,-978.11 1327.42,-940.9 1301.24,-909.78 1322,-858.11 1344.92,-801.09 1380.03,-737.63 1398.38,-705.76"/>
<polygon fill="#757575" stroke="#757575" points="1401.51,-707.33 1403.5,-696.92 1395.46,-703.82 1401.51,-707.33"/>
</g>
<!-- scenarios_v0/sandbox.js&#45;&gt;scenariosHelpers.js -->
<g id="edge84" class="edge">
<title>scenarios_v0/sandbox.js&#45;&gt;scenariosHelpers.js</title>
<path fill="none" stroke="#757575" d="M1249.47,-1010.65C1276.48,-1014.75 1306.89,-1019.37 1333.95,-1023.48"/>
<polygon fill="#757575" stroke="#757575" points="1333.73,-1026.99 1344.15,-1025.03 1334.78,-1020.07 1333.73,-1026.99"/>
</g>
<!-- scenarios_v0/scenarios0.js&#45;&gt;helpers.js -->
<g id="edge85" class="edge">
<title>scenarios_v0/scenarios0.js&#45;&gt;helpers.js</title>
<path fill="none" stroke="#757575" d="M1458.11,-890.66C1472.07,-894.68 1487.34,-899.59 1501,-905.11 1532.26,-917.74 1566.21,-936.1 1589.36,-949.37"/>
<polygon fill="#757575" stroke="#757575" points="1587.87,-952.55 1598.27,-954.54 1591.38,-946.49 1587.87,-952.55"/>
</g>
<!-- scenarios_v0/scenarios0.js&#45;&gt;particle.js -->
<g id="edge86" class="edge">
<title>scenarios_v0/scenarios0.js&#45;&gt;particle.js</title>
<path fill="none" stroke="#757575" d="M1501.37,-879.11C1572.42,-879.11 1669.19,-879.11 1725.69,-879.11"/>
<polygon fill="#757575" stroke="#757575" points="1725.76,-882.61 1735.76,-879.11 1725.76,-875.61 1725.76,-882.61"/>
</g>
<!-- scenarios_v0/scenarios1.js&#45;&gt;helpers.js -->
<g id="edge87" class="edge">
<title>scenarios_v0/scenarios1.js&#45;&gt;helpers.js</title>
<path fill="none" stroke="#757575" d="M1250.11,-1315.55C1262.25,-1312.94 1274.56,-1309.81 1286,-1306.11 1302.84,-1300.67 1305.39,-1295.21 1322,-1289.11 1399.33,-1260.75 1438.86,-1295.18 1501,-1241.11 1580.26,-1172.15 1607.04,-1040.06 1614.76,-987.99"/>
<polygon fill="#757575" stroke="#757575" points="1618.25,-988.26 1616.16,-977.88 1611.32,-987.3 1618.25,-988.26"/>
</g>
<!-- scenarios_v0/scenarios1.js&#45;&gt;particle.js -->
<g id="edge88" class="edge">
<title>scenarios_v0/scenarios1.js&#45;&gt;particle.js</title>
<path fill="none" stroke="#757575" d="M1262.03,-1331.47C1331.46,-1330.98 1428.19,-1321.37 1501,-1279.11 1656.29,-1188.99 1741.35,-969.93 1765.06,-900.56"/>
<polygon fill="#757575" stroke="#757575" points="1768.49,-901.34 1768.34,-890.75 1761.85,-899.12 1768.49,-901.34"/>
</g>
<!-- scenarios_v0/scenarios1.js&#45;&gt;scenariosHelpers.js -->
<g id="edge89" class="edge">
<title>scenarios_v0/scenarios1.js&#45;&gt;scenariosHelpers.js</title>
<path fill="none" stroke="#757575" d="M1262.14,-1319.14C1270.72,-1315.92 1278.87,-1311.67 1286,-1306.11 1307.47,-1289.37 1377.7,-1117.2 1402.08,-1056.31"/>
<polygon fill="#757575" stroke="#757575" points="1405.37,-1057.49 1405.83,-1046.91 1398.87,-1054.9 1405.37,-1057.49"/>
</g>
<!-- scenarios_v0/scenarios2.js&#45;&gt;helpers.js -->
<g id="edge90" class="edge">
<title>scenarios_v0/scenarios2.js&#45;&gt;helpers.js</title>
<path fill="none" stroke="#757575" d="M1262.09,-1071C1270.49,-1068.17 1278.61,-1064.6 1286,-1060.11 1308.19,-1046.64 1299.65,-1027.32 1322,-1014.11 1332.64,-1007.82 1490.6,-984.38 1571.09,-972.75"/>
<polygon fill="#757575" stroke="#757575" points="1572.04,-976.15 1581.44,-971.25 1571.05,-969.22 1572.04,-976.15"/>
</g>
<!-- scenarios_v0/scenarios2.js&#45;&gt;scenariosHelpers.js -->
<g id="edge91" class="edge">
<title>scenarios_v0/scenarios2.js&#45;&gt;scenariosHelpers.js</title>
<path fill="none" stroke="#757575" d="M1236.01,-1069.6C1252.29,-1066.56 1269.81,-1063.25 1286,-1060.11 1304.81,-1056.47 1325.19,-1052.42 1343.91,-1048.66"/>
<polygon fill="#757575" stroke="#757575" points="1344.71,-1052.07 1353.82,-1046.66 1343.33,-1045.21 1344.71,-1052.07"/>
</g>
<!-- scenarios_v0/tests.js&#45;&gt;helpers.js -->
<g id="edge92" class="edge">
<title>scenarios_v0/tests.js&#45;&gt;helpers.js</title>
<path fill="none" stroke="#757575" d="M1243.54,-1367.66C1316.97,-1363.4 1431.2,-1345.51 1501,-1279.11 1587.47,-1196.86 1610.2,-1044.55 1615.79,-988"/>
<polygon fill="#757575" stroke="#757575" points="1619.31,-988 1616.72,-977.72 1612.34,-987.37 1619.31,-988"/>
</g>
<!-- scenarios_v0/tests.js&#45;&gt;particle.js -->
<g id="edge93" class="edge">
<title>scenarios_v0/tests.js&#45;&gt;particle.js</title>
<path fill="none" stroke="#757575" d="M1243.59,-1367.27C1311.8,-1364.2 1417.12,-1353.45 1501,-1318.11 1603.07,-1275.11 1638.88,-1260.48 1700,-1168.11 1757.56,-1081.12 1769.11,-951.76 1771.43,-900.83"/>
<polygon fill="#757575" stroke="#757575" points="1774.93,-900.8 1771.81,-890.68 1767.93,-900.54 1774.93,-900.8"/>
</g>
<!-- scenarios_v0/tests.js&#45;&gt;scenariosHelpers.js -->
<g id="edge94" class="edge">
<title>scenarios_v0/tests.js&#45;&gt;scenariosHelpers.js</title>
<path fill="none" stroke="#757575" d="M1243.67,-1366.04C1258.91,-1362.74 1274.03,-1356.95 1286,-1347.11 1310.06,-1327.34 1380.63,-1123.4 1403.36,-1056.35"/>
<polygon fill="#757575" stroke="#757575" points="1406.69,-1057.41 1406.58,-1046.81 1400.06,-1055.17 1406.69,-1057.41"/>
</g>
<!-- scenarios_v1/epnModel.js&#45;&gt;helpers.js -->
<g id="edge95" class="edge">
<title>scenarios_v1/epnModel.js&#45;&gt;helpers.js</title>
<path fill="none" stroke="#757575" d="M1259.18,-947.5C1325.35,-940.92 1419.14,-935.11 1501,-943.11 1524.47,-945.41 1550.22,-950.24 1571.54,-954.89"/>
<polygon fill="#757575" stroke="#757575" points="1570.78,-958.31 1581.3,-957.07 1572.31,-951.48 1570.78,-958.31"/>
</g>
<!-- scenarios_v1/epnModel.js&#45;&gt;physics.js -->
<g id="edge96" class="edge">
<title>scenarios_v1/epnModel.js&#45;&gt;physics.js</title>
<path fill="none" stroke="#757575" d="M1259.03,-951.29C1268.75,-947.95 1278.02,-943.36 1286,-937.11 1316.39,-913.34 1305.21,-892.85 1322,-858.11 1348.88,-802.51 1382.57,-737.96 1399.59,-705.7"/>
<polygon fill="#757575" stroke="#757575" points="1402.73,-707.24 1404.31,-696.77 1396.54,-703.97 1402.73,-707.24"/>
</g>
<!-- scenarios_v1/epnModel.js&#45;&gt;scenariosHelpers.js -->
<g id="edge97" class="edge">
<title>scenarios_v1/epnModel.js&#45;&gt;scenariosHelpers.js</title>
<path fill="none" stroke="#757575" d="M1253.09,-969.66C1264.25,-972.03 1275.49,-974.83 1286,-978.11 1319.6,-988.6 1355.99,-1006.03 1380.69,-1018.86"/>
<polygon fill="#757575" stroke="#757575" points="1379.08,-1021.96 1389.56,-1023.53 1382.34,-1015.77 1379.08,-1021.96"/>
</g>
<!-- scenarios_v1/forceMap.js&#45;&gt;helpers.js -->
<g id="edge99" class="edge">
<title>scenarios_v1/forceMap.js&#45;&gt;helpers.js</title>
<path fill="none" stroke="#757575" d="M1241.17,-746.58C1311.33,-738.23 1421.65,-735.54 1501,-783.11 1563.14,-820.36 1597.67,-904.96 1611,-944.72"/>
<polygon fill="#757575" stroke="#757575" points="1607.74,-946 1614.14,-954.45 1614.4,-943.86 1607.74,-946"/>
</g>
<!-- scenarios_v1/forceMap.js&#45;&gt;core.js -->
<g id="edge98" class="edge">
<title>scenarios_v1/forceMap.js&#45;&gt;core.js</title>
<path fill="none" stroke="#757575" d="M1122.82,-746.61C1071.29,-734.27 987.66,-713.78 916,-694.11 887.81,-686.38 856.15,-676.89 832.36,-669.59"/>
<polygon fill="#757575" stroke="#757575" points="833.27,-666.21 822.68,-666.61 831.21,-672.9 833.27,-666.21"/>
</g>
<!-- scenarios_v1/forceMap.js&#45;&gt;particle.js -->
<g id="edge100" class="edge">
<title>scenarios_v1/forceMap.js&#45;&gt;particle.js</title>
<path fill="none" stroke="#757575" d="M1221.75,-746.6C1286.34,-733.15 1404.01,-715.54 1501,-739.11 1599.65,-763.09 1702.54,-829.67 1747.98,-861.6"/>
<polygon fill="#757575" stroke="#757575" points="1746.11,-864.56 1756.29,-867.5 1750.16,-858.85 1746.11,-864.56"/>
</g>
<!-- scenarios_v1/forceMap.js&#45;&gt;physics.js -->
<g id="edge101" class="edge">
<title>scenarios_v1/forceMap.js&#45;&gt;physics.js</title>
<path fill="none" stroke="#757575" d="M1238.47,-746.6C1254.31,-742.84 1271,-738.06 1286,-732.11 1303.22,-725.28 1304.99,-718.44 1322,-711.11 1335.25,-705.4 1350.14,-700.49 1363.88,-696.52"/>
<polygon fill="#757575" stroke="#757575" points="1364.94,-699.86 1373.63,-693.8 1363.06,-693.11 1364.94,-699.86"/>
</g>
<!-- scenarios_v1/forceMap.js&#45;&gt;scenariosHelpers.js -->
<g id="edge102" class="edge">
<title>scenarios_v1/forceMap.js&#45;&gt;scenariosHelpers.js</title>
<path fill="none" stroke="#757575" d="M1257.6,-762.3C1268.03,-765.78 1277.86,-770.85 1286,-778.11 1327.86,-815.48 1298.46,-848.18 1322,-899.11 1342.41,-943.26 1375.54,-989.71 1394.95,-1015.29"/>
<polygon fill="#757575" stroke="#757575" points="1392.34,-1017.63 1401.2,-1023.42 1397.89,-1013.36 1392.34,-1017.63"/>
</g>
<!-- scenarios_v1/quarkModel.js&#45;&gt;helpers.js -->
<g id="edge103" class="edge">
<title>scenarios_v1/quarkModel.js&#45;&gt;helpers.js</title>
<path fill="none" stroke="#757575" d="M1250.25,-1110.56C1332.53,-1097.45 1457.25,-1075.26 1501,-1055.11 1539.5,-1037.38 1577.22,-1005.05 1598.87,-984.62"/>
<polygon fill="#757575" stroke="#757575" points="1601.31,-987.14 1606.09,-977.68 1596.46,-982.09 1601.31,-987.14"/>
</g>
<!-- scenarios_v1/quarkModel.js&#45;&gt;physics.js -->
<g id="edge104" class="edge">
<title>scenarios_v1/quarkModel.js&#45;&gt;physics.js</title>
<path fill="none" stroke="#757575" d="M1265.23,-1115.47C1272.96,-1111.94 1280.07,-1107.27 1286,-1101.11 1361.74,-1022.48 1288.7,-962.09 1322,-858.11 1340.74,-799.59 1377.62,-736.76 1397.34,-705.38"/>
<polygon fill="#757575" stroke="#757575" points="1400.45,-707.01 1402.86,-696.69 1394.54,-703.25 1400.45,-707.01"/>
</g>
<!-- scenarios_v1/quarkModel.js&#45;&gt;scenariosHelpers.js -->
<g id="edge105" class="edge">
<title>scenarios_v1/quarkModel.js&#45;&gt;scenariosHelpers.js</title>
<path fill="none" stroke="#757575" d="M1264.4,-1110.6C1271.93,-1108.03 1279.24,-1104.9 1286,-1101.11 1306.86,-1089.41 1301.76,-1073.85 1322,-1061.11 1328.84,-1056.81 1336.42,-1053.19 1344.19,-1050.15"/>
<polygon fill="#757575" stroke="#757575" points="1345.49,-1053.4 1353.72,-1046.73 1343.13,-1046.82 1345.49,-1053.4"/>
</g>
<!-- scenarios_v1/record.js&#45;&gt;helpers.js -->
<g id="edge107" class="edge">
<title>scenarios_v1/record.js&#45;&gt;helpers.js</title>
<path fill="none" stroke="#757575" d="M1248.58,-789.09C1318.05,-783.38 1422.19,-784.11 1501,-825.11 1552.82,-852.07 1590.33,-913.1 1607.33,-945.31"/>
<polygon fill="#757575" stroke="#757575" points="1604.27,-947.01 1611.94,-954.31 1610.5,-943.81 1604.27,-947.01"/>
</g>
<!-- scenarios_v1/record.js&#45;&gt;core.js -->
<g id="edge106" class="edge">
<title>scenarios_v1/record.js&#45;&gt;core.js</title>
<path fill="none" stroke="#757575" d="M1098.71,-787.61C1085.4,-784.91 1071.7,-781.75 1059,-778.11 993.38,-759.32 978.02,-750.61 916,-722.11 884.08,-707.44 848.7,-688.29 824.58,-674.77"/>
<polygon fill="#757575" stroke="#757575" points="826.04,-671.57 815.61,-669.71 822.6,-677.67 826.04,-671.57"/>
</g>
<!-- scenarios_v1/record.js&#45;&gt;physics.js -->
<g id="edge108" class="edge">
<title>scenarios_v1/record.js&#45;&gt;physics.js</title>
<path fill="none" stroke="#757575" d="M1248.77,-790.01C1261.5,-787.08 1274.35,-783.22 1286,-778.11 1327.78,-759.8 1368.67,-725.12 1391.63,-703.67"/>
<polygon fill="#757575" stroke="#757575" points="1394.14,-706.11 1398.98,-696.68 1389.32,-701.04 1394.14,-706.11"/>
</g>
<!-- scenarios_v1/record.js&#45;&gt;scenariosHelpers.js -->
<g id="edge109" class="edge">
<title>scenarios_v1/record.js&#45;&gt;scenariosHelpers.js</title>
<path fill="none" stroke="#757575" d="M1188.23,-810.79C1210.24,-828.47 1252.68,-863.42 1286,-896.11 1327.28,-936.62 1371.54,-988.23 1394.54,-1015.76"/>
<polygon fill="#757575" stroke="#757575" points="1391.88,-1018.04 1400.97,-1023.49 1397.26,-1013.56 1391.88,-1018.04"/>
</g>
<!-- ui/components/Dialog.jsx -->
<g id="node48" class="node">
<title>ui/components/Dialog.jsx</title>
<path fill="none" stroke="#c6c5fe" d="M644.83,-1626.61C644.83,-1626.61 493.17,-1626.61 493.17,-1626.61 489.33,-1626.61 485.5,-1622.78 485.5,-1618.95 485.5,-1618.95 485.5,-1611.28 485.5,-1611.28 485.5,-1607.45 489.33,-1603.61 493.17,-1603.61 493.17,-1603.61 644.83,-1603.61 644.83,-1603.61 648.67,-1603.61 652.5,-1607.45 652.5,-1611.28 652.5,-1611.28 652.5,-1618.95 652.5,-1618.95 652.5,-1622.78 648.67,-1626.61 644.83,-1626.61"/>
<text text-anchor="middle" x="569" y="-1611.41" font-family="Arial" font-size="14.00" fill="#c6c5fe">ui/components/Dialog.jsx</text>
</g>
<!-- ui/views/Information.jsx&#45;&gt;ui/components/Dialog.jsx -->
<g id="edge112" class="edge">
<title>ui/views/Information.jsx&#45;&gt;ui/components/Dialog.jsx</title>
<path fill="none" stroke="#757575" d="M425.56,-1628.06C441.55,-1626.61 458.53,-1625.06 474.99,-1623.57"/>
<polygon fill="#757575" stroke="#757575" points="475.52,-1627.03 485.17,-1622.64 474.89,-1620.06 475.52,-1627.03"/>
</g>
<!-- ui/components/NumberInput.jsx -->
<g id="node49" class="node">
<title>ui/components/NumberInput.jsx</title>
<path fill="none" stroke="#cfffac" d="M665.33,-1708.61C665.33,-1708.61 472.67,-1708.61 472.67,-1708.61 468.83,-1708.61 465,-1704.78 465,-1700.95 465,-1700.95 465,-1693.28 465,-1693.28 465,-1689.45 468.83,-1685.61 472.67,-1685.61 472.67,-1685.61 665.33,-1685.61 665.33,-1685.61 669.17,-1685.61 673,-1689.45 673,-1693.28 673,-1693.28 673,-1700.95 673,-1700.95 673,-1704.78 669.17,-1708.61 665.33,-1708.61"/>
<text text-anchor="middle" x="569" y="-1693.41" font-family="Arial" font-size="14.00" fill="#cfffac">ui/components/NumberInput.jsx</text>
</g>
<!-- ui/views/Information.jsx&#45;&gt;ui/components/NumberInput.jsx -->
<g id="edge113" class="edge">
<title>ui/views/Information.jsx&#45;&gt;ui/components/NumberInput.jsx</title>
<path fill="none" stroke="#757575" d="M376.46,-1646.71C399.91,-1655.93 434.2,-1668.65 465,-1677.11 473.3,-1679.39 482.04,-1681.51 490.77,-1683.45"/>
<polygon fill="#757575" stroke="#757575" points="490.1,-1686.89 500.61,-1685.57 491.57,-1680.04 490.1,-1686.89"/>
</g>
<!-- ui/components/TextInput.jsx -->
<g id="node50" class="node">
<title>ui/components/TextInput.jsx</title>
<path fill="none" stroke="#cfffac" d="M653.33,-1667.61C653.33,-1667.61 484.67,-1667.61 484.67,-1667.61 480.83,-1667.61 477,-1663.78 477,-1659.95 477,-1659.95 477,-1652.28 477,-1652.28 477,-1648.45 480.83,-1644.61 484.67,-1644.61 484.67,-1644.61 653.33,-1644.61 653.33,-1644.61 657.17,-1644.61 661,-1648.45 661,-1652.28 661,-1652.28 661,-1659.95 661,-1659.95 661,-1663.78 657.17,-1667.61 653.33,-1667.61"/>
<text text-anchor="middle" x="569" y="-1652.41" font-family="Arial" font-size="14.00" fill="#cfffac">ui/components/TextInput.jsx</text>
</g>
<!-- ui/views/Information.jsx&#45;&gt;ui/components/TextInput.jsx -->
<g id="edge114" class="edge">
<title>ui/views/Information.jsx&#45;&gt;ui/components/TextInput.jsx</title>
<path fill="none" stroke="#757575" d="M425.56,-1642.52C438.9,-1643.79 452.94,-1645.13 466.79,-1646.45"/>
<polygon fill="#757575" stroke="#757575" points="466.55,-1649.94 476.83,-1647.41 467.21,-1642.98 466.55,-1649.94"/>
</g>
<!-- ui/components/Dialog.css -->
<g id="node47" class="node">
<title>ui/components/Dialog.css</title>
<path fill="none" stroke="#cfffac" d="M872.33,-1725.61C872.33,-1725.61 716.67,-1725.61 716.67,-1725.61 712.83,-1725.61 709,-1721.78 709,-1717.95 709,-1717.95 709,-1710.28 709,-1710.28 709,-1706.45 712.83,-1702.61 716.67,-1702.61 716.67,-1702.61 872.33,-1702.61 872.33,-1702.61 876.17,-1702.61 880,-1706.45 880,-1710.28 880,-1710.28 880,-1717.95 880,-1717.95 880,-1721.78 876.17,-1725.61 872.33,-1725.61"/>
<text text-anchor="middle" x="794.5" y="-1710.41" font-family="Arial" font-size="14.00" fill="#cfffac">ui/components/Dialog.css</text>
</g>
<!-- ui/components/Dialog.jsx&#45;&gt;ui/components/Dialog.css -->
<g id="edge111" class="edge">
<title>ui/components/Dialog.jsx&#45;&gt;ui/components/Dialog.css</title>
<path fill="none" stroke="#757575" d="M652.7,-1625.95C659.87,-1628.65 666.75,-1631.99 673,-1636.11 696.46,-1651.59 686.32,-1671.51 709,-1688.11 714.58,-1692.19 720.8,-1695.64 727.28,-1698.56"/>
<polygon fill="#757575" stroke="#757575" points="726.32,-1701.94 736.9,-1702.46 728.95,-1695.46 726.32,-1701.94"/>
</g>
</g>
</svg>
