<?xml version="1.0" encoding="UTF-8" standalone="no"?>
<!DOCTYPE svg PUBLIC "-//W3C//DTD SVG 1.1//EN"
 "http://www.w3.org/Graphics/SVG/1.1/DTD/svg11.dtd">
<!-- Generated by graphviz version 2.40.1 (20161225.0304)
 -->
<!-- Title: G Pages: 1 -->
<svg width="1409pt" height="956pt"
 viewBox="0.00 0.00 1409.20 955.92" xmlns="http://www.w3.org/2000/svg" xmlns:xlink="http://www.w3.org/1999/xlink">
<g id="graph0" class="graph" transform="scale(1 1) rotate(0) translate(21.6 934.3158)">
<title>G</title>
<polygon fill="#111111" stroke="transparent" points="-21.6,21.6 -21.6,-934.3158 1387.6,-934.3158 1387.6,21.6 -21.6,21.6"/>
<!-- components/csv.js -->
<g id="node1" class="node">
<title>components/csv.js</title>
<path fill="none" stroke="#c6c5fe" d="M1075.8333,-838.7455C1075.8333,-838.7455 954.1667,-838.7455 954.1667,-838.7455 950.3333,-838.7455 946.5,-834.9122 946.5,-831.0788 946.5,-831.0788 946.5,-823.4122 946.5,-823.4122 946.5,-819.5788 950.3333,-815.7455 954.1667,-815.7455 954.1667,-815.7455 1075.8333,-815.7455 1075.8333,-815.7455 1079.6667,-815.7455 1083.5,-819.5788 1083.5,-823.4122 1083.5,-823.4122 1083.5,-831.0788 1083.5,-831.0788 1083.5,-834.9122 1079.6667,-838.7455 1075.8333,-838.7455"/>
<text text-anchor="middle" x="1015" y="-823.5455" font-family="Arial" font-size="14.00" fill="#c6c5fe">components/csv.js</text>
</g>
<!-- particle.js -->
<g id="node2" class="node">
<title>particle.js</title>
<path fill="none" stroke="#cfffac" d="M1358.3333,-486.7455C1358.3333,-486.7455 1296.6667,-486.7455 1296.6667,-486.7455 1292.8333,-486.7455 1289,-482.9122 1289,-479.0788 1289,-479.0788 1289,-471.4122 1289,-471.4122 1289,-467.5788 1292.8333,-463.7455 1296.6667,-463.7455 1296.6667,-463.7455 1358.3333,-463.7455 1358.3333,-463.7455 1362.1667,-463.7455 1366,-467.5788 1366,-471.4122 1366,-471.4122 1366,-479.0788 1366,-479.0788 1366,-482.9122 1362.1667,-486.7455 1358.3333,-486.7455"/>
<text text-anchor="middle" x="1327.5" y="-471.5455" font-family="Arial" font-size="14.00" fill="#cfffac">particle.js</text>
</g>
<!-- components/csv.js&#45;&gt;particle.js -->
<g id="edge1" class="edge">
<title>components/csv.js&#45;&gt;particle.js</title>
<path fill="none" stroke="#757575" d="M1083.5182,-823.6561C1137.3953,-817.0646 1210.2643,-799.148 1253,-751.2455 1287.2993,-712.7993 1314.966,-555.1773 1324.1983,-496.9732"/>
<polygon fill="#757575" stroke="#757575" points="1327.6682,-497.4368 1325.7504,-487.017 1320.7518,-496.3584 1327.6682,-497.4368"/>
</g>
<!-- physics.js -->
<g id="node3" class="node">
<title>physics.js</title>
<path fill="none" stroke="#c6c5fe" d="M1245.3333,-741.7455C1245.3333,-741.7455 1180.6667,-741.7455 1180.6667,-741.7455 1176.8333,-741.7455 1173,-737.9122 1173,-734.0788 1173,-734.0788 1173,-726.4122 1173,-726.4122 1173,-722.5788 1176.8333,-718.7455 1180.6667,-718.7455 1180.6667,-718.7455 1245.3333,-718.7455 1245.3333,-718.7455 1249.1667,-718.7455 1253,-722.5788 1253,-726.4122 1253,-726.4122 1253,-734.0788 1253,-734.0788 1253,-737.9122 1249.1667,-741.7455 1245.3333,-741.7455"/>
<text text-anchor="middle" x="1213" y="-726.5455" font-family="Arial" font-size="14.00" fill="#c6c5fe">physics.js</text>
</g>
<!-- components/csv.js&#45;&gt;physics.js -->
<g id="edge2" class="edge">
<title>components/csv.js&#45;&gt;physics.js</title>
<path fill="none" stroke="#757575" d="M1083.7345,-819.3342C1101.7453,-815.4827 1120.6782,-809.757 1137,-801.2455 1161.268,-788.5902 1183.4422,-766.0298 1197.494,-749.7308"/>
<polygon fill="#757575" stroke="#757575" points="1200.3419,-751.7811 1204.07,-741.8638 1194.9711,-747.2916 1200.3419,-751.7811"/>
</g>
<!-- physics.js&#45;&gt;particle.js -->
<g id="edge43" class="edge">
<title>physics.js&#45;&gt;particle.js</title>
<path fill="none" stroke="#757575" d="M1218.2174,-718.626C1236.0998,-678.8005 1295.0806,-547.4458 1318.1416,-496.0874"/>
<polygon fill="#757575" stroke="#757575" points="1321.3486,-497.4894 1322.252,-486.9332 1314.9628,-494.622 1321.3486,-497.4894"/>
</g>
<!-- components/keyboard.js -->
<g id="node4" class="node">
<title>components/keyboard.js</title>
<path fill="none" stroke="#cfffac" d="M361.3333,-93.7455C361.3333,-93.7455 200.6667,-93.7455 200.6667,-93.7455 196.8333,-93.7455 193,-89.9122 193,-86.0788 193,-86.0788 193,-78.4122 193,-78.4122 193,-74.5788 196.8333,-70.7455 200.6667,-70.7455 200.6667,-70.7455 361.3333,-70.7455 361.3333,-70.7455 365.1667,-70.7455 369,-74.5788 369,-78.4122 369,-78.4122 369,-86.0788 369,-86.0788 369,-89.9122 365.1667,-93.7455 361.3333,-93.7455"/>
<text text-anchor="middle" x="281" y="-78.5455" font-family="Arial" font-size="14.00" fill="#cfffac">components/keyboard.js</text>
</g>
<!-- components/mouseHelper.js -->
<g id="node5" class="node">
<title>components/mouseHelper.js</title>
<path fill="none" stroke="#c6c5fe" d="M598.3333,-131.7455C598.3333,-131.7455 412.6667,-131.7455 412.6667,-131.7455 408.8333,-131.7455 405,-127.9122 405,-124.0788 405,-124.0788 405,-116.4122 405,-116.4122 405,-112.5788 408.8333,-108.7455 412.6667,-108.7455 412.6667,-108.7455 598.3333,-108.7455 598.3333,-108.7455 602.1667,-108.7455 606,-112.5788 606,-116.4122 606,-116.4122 606,-124.0788 606,-124.0788 606,-127.9122 602.1667,-131.7455 598.3333,-131.7455"/>
<text text-anchor="middle" x="505.5" y="-116.5455" font-family="Arial" font-size="14.00" fill="#c6c5fe">components/mouseHelper.js</text>
</g>
<!-- helpers.js -->
<g id="node6" class="node">
<title>helpers.js</title>
<path fill="none" stroke="#c6c5fe" d="M1046.8333,-407.7455C1046.8333,-407.7455 983.1667,-407.7455 983.1667,-407.7455 979.3333,-407.7455 975.5,-403.9122 975.5,-400.0788 975.5,-400.0788 975.5,-392.4122 975.5,-392.4122 975.5,-388.5788 979.3333,-384.7455 983.1667,-384.7455 983.1667,-384.7455 1046.8333,-384.7455 1046.8333,-384.7455 1050.6667,-384.7455 1054.5,-388.5788 1054.5,-392.4122 1054.5,-392.4122 1054.5,-400.0788 1054.5,-400.0788 1054.5,-403.9122 1050.6667,-407.7455 1046.8333,-407.7455"/>
<text text-anchor="middle" x="1015" y="-392.5455" font-family="Arial" font-size="14.00" fill="#c6c5fe">helpers.js</text>
</g>
<!-- components/mouseHelper.js&#45;&gt;helpers.js -->
<g id="edge3" class="edge">
<title>components/mouseHelper.js&#45;&gt;helpers.js</title>
<path fill="none" stroke="#757575" d="M578.1533,-108.7274C653.4746,-100.6186 771.8962,-98.9414 857,-150.2455 944.6802,-203.1027 992.2776,-325.3786 1008.5244,-374.872"/>
<polygon fill="#757575" stroke="#757575" points="1005.2315,-376.0663 1011.5979,-384.5351 1011.9022,-373.9446 1005.2315,-376.0663"/>
</g>
<!-- helpers.js&#45;&gt;particle.js -->
<g id="edge28" class="edge">
<title>helpers.js&#45;&gt;particle.js</title>
<path fill="none" stroke="#757575" d="M1054.7148,-394.8849C1103.1241,-394.5334 1186.6727,-398.1912 1253,-423.2455 1273.3522,-430.9332 1293.4001,-445.4321 1307.5636,-457.1708"/>
<polygon fill="#757575" stroke="#757575" points="1305.3078,-459.847 1315.1807,-463.6911 1309.8599,-454.5292 1305.3078,-459.847"/>
</g>
<!-- components/ruler.js -->
<g id="node7" class="node">
<title>components/ruler.js</title>
<path fill="none" stroke="#c6c5fe" d="M344.8333,-404.7455C344.8333,-404.7455 217.1667,-404.7455 217.1667,-404.7455 213.3333,-404.7455 209.5,-400.9122 209.5,-397.0788 209.5,-397.0788 209.5,-389.4122 209.5,-389.4122 209.5,-385.5788 213.3333,-381.7455 217.1667,-381.7455 217.1667,-381.7455 344.8333,-381.7455 344.8333,-381.7455 348.6667,-381.7455 352.5,-385.5788 352.5,-389.4122 352.5,-389.4122 352.5,-397.0788 352.5,-397.0788 352.5,-400.9122 348.6667,-404.7455 344.8333,-404.7455"/>
<text text-anchor="middle" x="281" y="-389.5455" font-family="Arial" font-size="14.00" fill="#c6c5fe">components/ruler.js</text>
</g>
<!-- components/ruler.js&#45;&gt;helpers.js -->
<g id="edge5" class="edge">
<title>components/ruler.js&#45;&gt;helpers.js</title>
<path fill="none" stroke="#757575" d="M291.5487,-381.6954C311.3618,-360.9635 356.5316,-318.122 405,-302.2455 595.9078,-239.711 663.3007,-248.9828 857,-302.2455 910.7806,-317.0339 964.7607,-355.4335 993.608,-378.3185"/>
<polygon fill="#757575" stroke="#757575" points="991.4129,-381.0446 1001.3918,-384.6045 995.8109,-375.5987 991.4129,-381.0446"/>
</g>
<!-- core.js -->
<g id="node8" class="node">
<title>core.js</title>
<path fill="none" stroke="#c6c5fe" d="M527.3333,-526.7455C527.3333,-526.7455 483.6667,-526.7455 483.6667,-526.7455 479.8333,-526.7455 476,-522.9122 476,-519.0788 476,-519.0788 476,-511.4122 476,-511.4122 476,-507.5788 479.8333,-503.7455 483.6667,-503.7455 483.6667,-503.7455 527.3333,-503.7455 527.3333,-503.7455 531.1667,-503.7455 535,-507.5788 535,-511.4122 535,-511.4122 535,-519.0788 535,-519.0788 535,-522.9122 531.1667,-526.7455 527.3333,-526.7455"/>
<text text-anchor="middle" x="505.5" y="-511.5455" font-family="Arial" font-size="14.00" fill="#c6c5fe">core.js</text>
</g>
<!-- components/ruler.js&#45;&gt;core.js -->
<g id="edge4" class="edge">
<title>components/ruler.js&#45;&gt;core.js</title>
<path fill="none" stroke="#757575" d="M346.4249,-404.8749C354.1972,-407.197 361.888,-409.9613 369,-413.2455 415.2892,-434.621 461.1192,-473.4459 486.128,-496.5368"/>
<polygon fill="#757575" stroke="#757575" points="483.8012,-499.1529 493.4904,-503.439 488.5887,-494.0462 483.8012,-499.1529"/>
</g>
<!-- core.js&#45;&gt;components/csv.js -->
<g id="edge10" class="edge">
<title>core.js&#45;&gt;components/csv.js</title>
<path fill="none" stroke="#757575" d="M511.8227,-527.0751C528.8173,-557.811 578.5224,-641.0101 642,-687.2455 736.2306,-755.8805 868.0598,-794.824 947.1366,-813.4222"/>
<polygon fill="#757575" stroke="#757575" points="946.4552,-816.8569 956.9864,-815.6976 948.0308,-810.0365 946.4552,-816.8569"/>
</g>
<!-- core.js&#45;&gt;particle.js -->
<g id="edge16" class="edge">
<title>core.js&#45;&gt;particle.js</title>
<path fill="none" stroke="#757575" d="M535.1858,-520.8684C562.7445,-525.7847 604.9742,-532.5474 642,-535.2455 737.3029,-542.1903 761.5715,-540.1724 857,-535.2455 879.0882,-534.1051 1231.2258,-498.1277 1253,-494.2455 1261.406,-492.7468 1270.2628,-490.8107 1278.8201,-488.7494"/>
<polygon fill="#757575" stroke="#757575" points="1279.8268,-492.1057 1288.6833,-486.2908 1278.1337,-485.3135 1279.8268,-492.1057"/>
</g>
<!-- core.js&#45;&gt;physics.js -->
<g id="edge17" class="edge">
<title>core.js&#45;&gt;physics.js</title>
<path fill="none" stroke="#757575" d="M513.4258,-526.8481C532.1941,-553.2489 582.2876,-617.6546 642,-645.2455 842.8102,-738.0323 923.0635,-640.9847 1137,-697.2455 1152.3364,-701.2786 1168.558,-707.9579 1182.0582,-714.2563"/>
<polygon fill="#757575" stroke="#757575" points="1180.8274,-717.5482 1191.3559,-718.7319 1183.8636,-711.2409 1180.8274,-717.5482"/>
</g>
<!-- core.js&#45;&gt;helpers.js -->
<g id="edge15" class="edge">
<title>core.js&#45;&gt;helpers.js</title>
<path fill="none" stroke="#757575" d="M526.0844,-503.7212C552.221,-489.606 599.0885,-466.004 642,-453.2455 754.6652,-419.7478 892.6312,-405.2056 965.0872,-399.5029"/>
<polygon fill="#757575" stroke="#757575" points="965.5865,-402.9751 975.2912,-398.7245 965.0539,-395.9954 965.5865,-402.9751"/>
</g>
<!-- gpu/field.js -->
<g id="node10" class="node">
<title>gpu/field.js</title>
<path fill="none" stroke="#c6c5fe" d="M784.8333,-526.7455C784.8333,-526.7455 714.1667,-526.7455 714.1667,-526.7455 710.3333,-526.7455 706.5,-522.9122 706.5,-519.0788 706.5,-519.0788 706.5,-511.4122 706.5,-511.4122 706.5,-507.5788 710.3333,-503.7455 714.1667,-503.7455 714.1667,-503.7455 784.8333,-503.7455 784.8333,-503.7455 788.6667,-503.7455 792.5,-507.5788 792.5,-511.4122 792.5,-511.4122 792.5,-519.0788 792.5,-519.0788 792.5,-522.9122 788.6667,-526.7455 784.8333,-526.7455"/>
<text text-anchor="middle" x="749.5" y="-511.5455" font-family="Arial" font-size="14.00" fill="#c6c5fe">gpu/field.js</text>
</g>
<!-- core.js&#45;&gt;gpu/field.js -->
<g id="edge11" class="edge">
<title>core.js&#45;&gt;gpu/field.js</title>
<path fill="none" stroke="#757575" d="M535.4192,-515.2455C575.3378,-515.2455 646.701,-515.2455 695.9944,-515.2455"/>
<polygon fill="#757575" stroke="#757575" points="696.1589,-518.7456 706.1589,-515.2455 696.1588,-511.7456 696.1589,-518.7456"/>
</g>
<!-- gpu/graphics.js -->
<g id="node11" class="node">
<title>gpu/graphics.js</title>
<path fill="none" stroke="#c6c5fe" d="M799.3333,-606.7455C799.3333,-606.7455 699.6667,-606.7455 699.6667,-606.7455 695.8333,-606.7455 692,-602.9122 692,-599.0788 692,-599.0788 692,-591.4122 692,-591.4122 692,-587.5788 695.8333,-583.7455 699.6667,-583.7455 699.6667,-583.7455 799.3333,-583.7455 799.3333,-583.7455 803.1667,-583.7455 807,-587.5788 807,-591.4122 807,-591.4122 807,-599.0788 807,-599.0788 807,-602.9122 803.1667,-606.7455 799.3333,-606.7455"/>
<text text-anchor="middle" x="749.5" y="-591.5455" font-family="Arial" font-size="14.00" fill="#c6c5fe">gpu/graphics.js</text>
</g>
<!-- core.js&#45;&gt;gpu/graphics.js -->
<g id="edge12" class="edge">
<title>core.js&#45;&gt;gpu/graphics.js</title>
<path fill="none" stroke="#757575" d="M531.5298,-526.8032C558.7097,-538.5714 602.7663,-556.8072 642,-569.2455 655.9793,-573.6774 671.1856,-577.779 685.6426,-581.353"/>
<polygon fill="#757575" stroke="#757575" points="684.9646,-584.7898 695.5073,-583.7405 686.6113,-577.9863 684.9646,-584.7898"/>
</g>
<!-- gpu/shaders/computeShader.glsl.js -->
<g id="node12" class="node">
<title>gpu/shaders/computeShader.glsl.js</title>
<path fill="none" stroke="#c6c5fe" d="M1129.3333,-644.7455C1129.3333,-644.7455 900.6667,-644.7455 900.6667,-644.7455 896.8333,-644.7455 893,-640.9122 893,-637.0788 893,-637.0788 893,-629.4122 893,-629.4122 893,-625.5788 896.8333,-621.7455 900.6667,-621.7455 900.6667,-621.7455 1129.3333,-621.7455 1129.3333,-621.7455 1133.1667,-621.7455 1137,-625.5788 1137,-629.4122 1137,-629.4122 1137,-637.0788 1137,-637.0788 1137,-640.9122 1133.1667,-644.7455 1129.3333,-644.7455"/>
<text text-anchor="middle" x="1015" y="-629.5455" font-family="Arial" font-size="14.00" fill="#c6c5fe">gpu/shaders/computeShader.glsl.js</text>
</g>
<!-- core.js&#45;&gt;gpu/shaders/computeShader.glsl.js -->
<g id="edge13" class="edge">
<title>core.js&#45;&gt;gpu/shaders/computeShader.glsl.js</title>
<path fill="none" stroke="#757575" d="M516.1579,-526.7801C537.5067,-548.9715 588.1077,-597.1039 642,-616.2455 722.9487,-644.997 820.0397,-648.5376 894.8704,-645.2638"/>
<polygon fill="#757575" stroke="#757575" points="895.4591,-648.7394 905.2775,-644.7585 895.1196,-641.7477 895.4591,-648.7394"/>
</g>
<!-- gpu/simulation.js -->
<g id="node13" class="node">
<title>gpu/simulation.js</title>
<path fill="none" stroke="#c6c5fe" d="M804.3333,-485.7455C804.3333,-485.7455 694.6667,-485.7455 694.6667,-485.7455 690.8333,-485.7455 687,-481.9122 687,-478.0788 687,-478.0788 687,-470.4122 687,-470.4122 687,-466.5788 690.8333,-462.7455 694.6667,-462.7455 694.6667,-462.7455 804.3333,-462.7455 804.3333,-462.7455 808.1667,-462.7455 812,-466.5788 812,-470.4122 812,-470.4122 812,-478.0788 812,-478.0788 812,-481.9122 808.1667,-485.7455 804.3333,-485.7455"/>
<text text-anchor="middle" x="749.5" y="-470.5455" font-family="Arial" font-size="14.00" fill="#c6c5fe">gpu/simulation.js</text>
</g>
<!-- core.js&#45;&gt;gpu/simulation.js -->
<g id="edge14" class="edge">
<title>core.js&#45;&gt;gpu/simulation.js</title>
<path fill="none" stroke="#757575" d="M535.4192,-510.2181C570.4668,-504.3289 629.7532,-494.3669 677.0609,-486.4176"/>
<polygon fill="#757575" stroke="#757575" points="677.6793,-489.8629 686.961,-484.7541 676.5192,-482.9597 677.6793,-489.8629"/>
</g>
<!-- scenarios.js -->
<g id="node14" class="node">
<title>scenarios.js</title>
<path fill="none" stroke="#cfffac" d="M788.8333,-367.7455C788.8333,-367.7455 710.1667,-367.7455 710.1667,-367.7455 706.3333,-367.7455 702.5,-363.9122 702.5,-360.0788 702.5,-360.0788 702.5,-352.4122 702.5,-352.4122 702.5,-348.5788 706.3333,-344.7455 710.1667,-344.7455 710.1667,-344.7455 788.8333,-344.7455 788.8333,-344.7455 792.6667,-344.7455 796.5,-348.5788 796.5,-352.4122 796.5,-352.4122 796.5,-360.0788 796.5,-360.0788 796.5,-363.9122 792.6667,-367.7455 788.8333,-367.7455"/>
<text text-anchor="middle" x="749.5" y="-352.5455" font-family="Arial" font-size="14.00" fill="#cfffac">scenarios.js</text>
</g>
<!-- core.js&#45;&gt;scenarios.js -->
<g id="edge18" class="edge">
<title>core.js&#45;&gt;scenarios.js</title>
<path fill="none" stroke="#757575" d="M521.6342,-503.459C546.9199,-485.115 597.5885,-448.869 642,-420.2455 668.0389,-403.4632 698.431,-385.5156 720.2434,-372.9102"/>
<polygon fill="#757575" stroke="#757575" points="722.1074,-375.8757 729.0286,-367.8539 718.6156,-369.8088 722.1074,-375.8757"/>
</g>
<!-- components/selectionHelper.js -->
<g id="node9" class="node">
<title>components/selectionHelper.js</title>
<path fill="none" stroke="#c6c5fe" d="M849.3333,-838.7455C849.3333,-838.7455 649.6667,-838.7455 649.6667,-838.7455 645.8333,-838.7455 642,-834.9122 642,-831.0788 642,-831.0788 642,-823.4122 642,-823.4122 642,-819.5788 645.8333,-815.7455 649.6667,-815.7455 649.6667,-815.7455 849.3333,-815.7455 849.3333,-815.7455 853.1667,-815.7455 857,-819.5788 857,-823.4122 857,-823.4122 857,-831.0788 857,-831.0788 857,-834.9122 853.1667,-838.7455 849.3333,-838.7455"/>
<text text-anchor="middle" x="749.5" y="-823.5455" font-family="Arial" font-size="14.00" fill="#c6c5fe">components/selectionHelper.js</text>
</g>
<!-- components/selectionHelper.js&#45;&gt;components/csv.js -->
<g id="edge6" class="edge">
<title>components/selectionHelper.js&#45;&gt;components/csv.js</title>
<path fill="none" stroke="#757575" d="M857.1063,-827.2455C883.5104,-827.2455 911.2921,-827.2455 936.0643,-827.2455"/>
<polygon fill="#757575" stroke="#757575" points="936.1206,-830.7456 946.1205,-827.2455 936.1205,-823.7456 936.1206,-830.7456"/>
</g>
<!-- components/selectionHelper.js&#45;&gt;particle.js -->
<g id="edge8" class="edge">
<title>components/selectionHelper.js&#45;&gt;particle.js</title>
<path fill="none" stroke="#757575" d="M783.6911,-838.8002C877.5441,-868.1148 1139.6959,-933.3501 1253,-790.2455 1289.7744,-743.7989 1316.5085,-560.1906 1324.7961,-496.8578"/>
<polygon fill="#757575" stroke="#757575" points="1328.2845,-497.171 1326.0876,-486.8065 1321.3416,-496.2789 1328.2845,-497.171"/>
</g>
<!-- components/selectionHelper.js&#45;&gt;physics.js -->
<g id="edge9" class="edge">
<title>components/selectionHelper.js&#45;&gt;physics.js</title>
<path fill="none" stroke="#757575" d="M825.6382,-815.7001C929.9421,-799.7256 1107.7321,-771.8732 1137,-763.2455 1151.8777,-758.8598 1167.7057,-752.314 1181.0439,-746.2059"/>
<polygon fill="#757575" stroke="#757575" points="1182.7044,-749.2929 1190.267,-741.8728 1179.7278,-742.9572 1182.7044,-749.2929"/>
</g>
<!-- components/selectionHelper.js&#45;&gt;helpers.js -->
<g id="edge7" class="edge">
<title>components/selectionHelper.js&#45;&gt;helpers.js</title>
<path fill="none" stroke="#757575" d="M755.8401,-815.4843C772.8952,-783.7046 820.902,-693.3126 857,-616.2455 874.2288,-579.4631 871.1486,-566.4843 893,-532.2455 922.6918,-485.7217 968.3823,-439.6125 994.6063,-414.8472"/>
<polygon fill="#757575" stroke="#757575" points="997.1591,-417.2523 1002.0806,-407.8699 992.3823,-412.1353 997.1591,-417.2523"/>
</g>
<!-- gpu/field.js&#45;&gt;particle.js -->
<g id="edge20" class="edge">
<title>gpu/field.js&#45;&gt;particle.js</title>
<path fill="none" stroke="#757575" d="M792.7676,-509.7839C821.2138,-506.3506 859.2756,-502.0548 893,-499.2455 1032.6031,-487.6163 1197.9259,-480.2423 1278.4696,-477.0604"/>
<polygon fill="#757575" stroke="#757575" points="1278.9399,-480.5448 1288.7956,-476.6571 1278.6667,-473.5501 1278.9399,-480.5448"/>
</g>
<!-- gpu/field.js&#45;&gt;helpers.js -->
<g id="edge19" class="edge">
<title>gpu/field.js&#45;&gt;helpers.js</title>
<path fill="none" stroke="#757575" d="M792.5948,-512.262C812.9768,-509.5186 837.138,-504.2707 857,-494.2455 876.3767,-484.4652 875.2811,-473.7815 893,-461.2455 920.4482,-441.826 954.3929,-424.194 979.5025,-412.2094"/>
<polygon fill="#757575" stroke="#757575" points="981.1027,-415.3246 988.6615,-407.9007 978.1229,-408.9905 981.1027,-415.3246"/>
</g>
<!-- gpu/graphics.js&#45;&gt;particle.js -->
<g id="edge24" class="edge">
<title>gpu/graphics.js&#45;&gt;particle.js</title>
<path fill="none" stroke="#757575" d="M807.0752,-597.6694C883.4486,-599.5982 1022.0135,-598.6114 1137,-573.2455 1191.1591,-561.298 1204.1551,-553.5157 1253,-527.2455 1271.2911,-517.408 1290.4753,-503.9337 1304.7949,-493.1661"/>
<polygon fill="#757575" stroke="#757575" points="1307.2132,-495.723 1313.0309,-486.8683 1302.9611,-490.1624 1307.2132,-495.723"/>
</g>
<!-- gpu/graphics.js&#45;&gt;helpers.js -->
<g id="edge23" class="edge">
<title>gpu/graphics.js&#45;&gt;helpers.js</title>
<path fill="none" stroke="#757575" d="M773.4308,-583.742C795.8096,-572.561 829.7724,-554.4907 857,-535.2455 910.9957,-497.08 967.6142,-443.4051 996.1596,-415.2255"/>
<polygon fill="#757575" stroke="#757575" points="998.8162,-417.5198 1003.4409,-407.9876 993.8812,-412.5552 998.8162,-417.5198"/>
</g>
<!-- gpu/graphics.js&#45;&gt;gpu/shaders/computeShader.glsl.js -->
<g id="edge21" class="edge">
<title>gpu/graphics.js&#45;&gt;gpu/shaders/computeShader.glsl.js</title>
<path fill="none" stroke="#757575" d="M807.1095,-603.4909C841.3396,-608.3901 885.5083,-614.7118 924.3243,-620.2674"/>
<polygon fill="#757575" stroke="#757575" points="924.1961,-623.7847 934.5912,-621.7369 925.188,-616.8553 924.1961,-623.7847"/>
</g>
<!-- gpu/shaders/particleShader.glsl.js -->
<g id="node15" class="node">
<title>gpu/shaders/particleShader.glsl.js</title>
<path fill="none" stroke="#cfffac" d="M1124.3333,-564.7455C1124.3333,-564.7455 905.6667,-564.7455 905.6667,-564.7455 901.8333,-564.7455 898,-560.9122 898,-557.0788 898,-557.0788 898,-549.4122 898,-549.4122 898,-545.5788 901.8333,-541.7455 905.6667,-541.7455 905.6667,-541.7455 1124.3333,-541.7455 1124.3333,-541.7455 1128.1667,-541.7455 1132,-545.5788 1132,-549.4122 1132,-549.4122 1132,-557.0788 1132,-557.0788 1132,-560.9122 1128.1667,-564.7455 1124.3333,-564.7455"/>
<text text-anchor="middle" x="1015" y="-549.5455" font-family="Arial" font-size="14.00" fill="#cfffac">gpu/shaders/particleShader.glsl.js</text>
</g>
<!-- gpu/graphics.js&#45;&gt;gpu/shaders/particleShader.glsl.js -->
<g id="edge22" class="edge">
<title>gpu/graphics.js&#45;&gt;gpu/shaders/particleShader.glsl.js</title>
<path fill="none" stroke="#757575" d="M807.1095,-586.1321C843.524,-580.3716 891.1858,-572.8319 931.6858,-566.4251"/>
<polygon fill="#757575" stroke="#757575" points="932.4866,-569.8421 941.8169,-564.8225 931.3928,-562.928 932.4866,-569.8421"/>
</g>
<!-- gpu/shaders/computeShader.glsl.js&#45;&gt;physics.js -->
<g id="edge25" class="edge">
<title>gpu/shaders/computeShader.glsl.js&#45;&gt;physics.js</title>
<path fill="none" stroke="#757575" d="M1098.8097,-644.8003C1112.0145,-648.3872 1125.1907,-653.0872 1137,-659.2455 1161.268,-671.9008 1183.4422,-694.4612 1197.494,-710.7602"/>
<polygon fill="#757575" stroke="#757575" points="1194.9711,-713.1993 1204.07,-718.6272 1200.3419,-708.7099 1194.9711,-713.1993"/>
</g>
<!-- gpu/simulation.js&#45;&gt;particle.js -->
<g id="edge27" class="edge">
<title>gpu/simulation.js&#45;&gt;particle.js</title>
<path fill="none" stroke="#757575" d="M812.283,-467.3195C837.3554,-464.8775 866.5109,-462.4429 893,-461.2455 1052.8368,-454.0203 1093.6896,-446.4066 1253,-461.2455 1261.3823,-462.0262 1270.2272,-463.291 1278.7801,-464.749"/>
<polygon fill="#757575" stroke="#757575" points="1278.1779,-468.1968 1288.6412,-466.5321 1279.4235,-461.3085 1278.1779,-468.1968"/>
</g>
<!-- gpu/simulation.js&#45;&gt;helpers.js -->
<g id="edge26" class="edge">
<title>gpu/simulation.js&#45;&gt;helpers.js</title>
<path fill="none" stroke="#757575" d="M812.1978,-463.2C827.2347,-459.4384 842.9875,-454.5392 857,-448.2455 874.7696,-440.2643 875.1534,-431.053 893,-423.2455 915.75,-413.2928 942.5473,-406.8424 965.2239,-402.7521"/>
<polygon fill="#757575" stroke="#757575" points="966.0518,-406.1616 975.3236,-401.0347 964.8783,-399.2607 966.0518,-406.1616"/>
</g>
<!-- main.js -->
<g id="node16" class="node">
<title>main.js</title>
<path fill="none" stroke="#c6c5fe" d="M54.3333,-424.7455C54.3333,-424.7455 7.6667,-424.7455 7.6667,-424.7455 3.8333,-424.7455 0,-420.9122 0,-417.0788 0,-417.0788 0,-409.4122 0,-409.4122 0,-405.5788 3.8333,-401.7455 7.6667,-401.7455 7.6667,-401.7455 54.3333,-401.7455 54.3333,-401.7455 58.1667,-401.7455 62,-405.5788 62,-409.4122 62,-409.4122 62,-417.0788 62,-417.0788 62,-420.9122 58.1667,-424.7455 54.3333,-424.7455"/>
<text text-anchor="middle" x="31" y="-409.5455" font-family="Arial" font-size="14.00" fill="#c6c5fe">main.js</text>
</g>
<!-- view.js -->
<g id="node17" class="node">
<title>view.js</title>
<path fill="none" stroke="#c6c5fe" d="M149.3333,-424.7455C149.3333,-424.7455 105.6667,-424.7455 105.6667,-424.7455 101.8333,-424.7455 98,-420.9122 98,-417.0788 98,-417.0788 98,-409.4122 98,-409.4122 98,-405.5788 101.8333,-401.7455 105.6667,-401.7455 105.6667,-401.7455 149.3333,-401.7455 149.3333,-401.7455 153.1667,-401.7455 157,-405.5788 157,-409.4122 157,-409.4122 157,-417.0788 157,-417.0788 157,-420.9122 153.1667,-424.7455 149.3333,-424.7455"/>
<text text-anchor="middle" x="127.5" y="-409.5455" font-family="Arial" font-size="14.00" fill="#c6c5fe">view.js</text>
</g>
<!-- main.js&#45;&gt;view.js -->
<g id="edge29" class="edge">
<title>main.js&#45;&gt;view.js</title>
<path fill="none" stroke="#757575" d="M62.0644,-413.2455C70.212,-413.2455 79.1116,-413.2455 87.6492,-413.2455"/>
<polygon fill="#757575" stroke="#757575" points="87.8088,-416.7456 97.8088,-413.2455 87.8087,-409.7456 87.8088,-416.7456"/>
</g>
<!-- view.js&#45;&gt;components/csv.js -->
<g id="edge46" class="edge">
<title>view.js&#45;&gt;components/csv.js</title>
<path fill="none" stroke="#757575" d="M128.8175,-424.7531C134.4987,-472.7023 158.1977,-656.208 193,-701.2455 257.9063,-785.2403 304.13,-778.1819 405,-811.2455 596.5339,-874.0272 655.8789,-861.5526 857,-848.2455 882.9601,-846.5278 911.1633,-843.2393 936.4603,-839.7654"/>
<polygon fill="#757575" stroke="#757575" points="936.9519,-843.2308 946.3687,-838.3755 935.9794,-836.2987 936.9519,-843.2308"/>
</g>
<!-- view.js&#45;&gt;particle.js -->
<g id="edge58" class="edge">
<title>view.js&#45;&gt;particle.js</title>
<path fill="none" stroke="#757575" d="M127.9275,-401.5268C130.2022,-346.0066 142.7423,-110.0937 193,-61.2455 293.8128,36.7401 364.9141,-12.2455 505.5,-12.2455 505.5,-12.2455 505.5,-12.2455 1015,-12.2455 1132.6729,-12.2455 1190.905,-28.2899 1253,-128.2455 1287.5012,-183.7828 1315.9986,-385.7094 1324.7361,-453.1464"/>
<polygon fill="#757575" stroke="#757575" points="1321.3127,-453.9696 1326.0514,-463.4456 1328.2563,-453.0828 1321.3127,-453.9696"/>
</g>
<!-- view.js&#45;&gt;physics.js -->
<g id="edge59" class="edge">
<title>view.js&#45;&gt;physics.js</title>
<path fill="none" stroke="#757575" d="M128.254,-425.027C131.9713,-479.823 149.9282,-709.3982 193,-764.2455 287.1084,-884.0822 353.128,-905.2455 505.5,-905.2455 505.5,-905.2455 505.5,-905.2455 749.5,-905.2455 923.5755,-905.2455 990.6646,-942.5228 1137,-848.2455 1172.7828,-825.1922 1195.1188,-778.6579 1205.6981,-751.4213"/>
<polygon fill="#757575" stroke="#757575" points="1208.9902,-752.6098 1209.1806,-742.0167 1202.4258,-750.179 1208.9902,-752.6098"/>
</g>
<!-- view.js&#45;&gt;components/keyboard.js -->
<g id="edge47" class="edge">
<title>view.js&#45;&gt;components/keyboard.js</title>
<path fill="none" stroke="#757575" d="M128.4381,-401.5554C132.7144,-351.0983 151.9473,-152.5315 193,-108.2455 196.3438,-104.6383 200.161,-101.5231 204.2889,-98.8335"/>
<polygon fill="#757575" stroke="#757575" points="206.1201,-101.8198 213.146,-93.8896 202.7083,-95.7075 206.1201,-101.8198"/>
</g>
<!-- view.js&#45;&gt;components/mouseHelper.js -->
<g id="edge48" class="edge">
<title>view.js&#45;&gt;components/mouseHelper.js</title>
<path fill="none" stroke="#757575" d="M128.5079,-401.6469C132.8826,-354.2223 151.8839,-175.9329 193,-141.2455 222.7818,-116.1203 317.1574,-112.545 394.4705,-114.2657"/>
<polygon fill="#757575" stroke="#757575" points="394.6877,-117.7722 404.7735,-114.528 394.8659,-110.7745 394.6877,-117.7722"/>
</g>
<!-- view.js&#45;&gt;helpers.js -->
<g id="edge52" class="edge">
<title>view.js&#45;&gt;helpers.js</title>
<path fill="none" stroke="#757575" d="M134.7972,-401.6319C145.6491,-385.2127 167.5205,-355.2159 193,-337.2455 275.5571,-279.0187 305.6904,-273.7824 405,-255.2455 434.2558,-249.7847 843.5557,-251.1154 857,-256.2455 920.8497,-280.6092 975.512,-343.7582 1000.4951,-376.2642"/>
<polygon fill="#757575" stroke="#757575" points="997.9289,-378.6751 1006.7375,-384.5623 1003.5228,-374.4669 997.9289,-378.6751"/>
</g>
<!-- view.js&#45;&gt;components/ruler.js -->
<g id="edge49" class="edge">
<title>view.js&#45;&gt;components/ruler.js</title>
<path fill="none" stroke="#757575" d="M157.0963,-409.3893C169.3884,-407.7877 184.3151,-405.8429 199.4908,-403.8656"/>
<polygon fill="#757575" stroke="#757575" points="200.0103,-407.3276 209.4743,-402.5648 199.1058,-400.3862 200.0103,-407.3276"/>
</g>
<!-- view.js&#45;&gt;core.js -->
<g id="edge51" class="edge">
<title>view.js&#45;&gt;core.js</title>
<path fill="none" stroke="#757575" d="M129.5765,-424.7521C134.8731,-450.2751 151.5168,-511.3377 193,-536.2455 280.1739,-588.5874 406.7331,-553.2578 468.6266,-530.409"/>
<polygon fill="#757575" stroke="#757575" points="469.876,-533.6785 477.9889,-526.8644 467.3975,-527.1319 469.876,-533.6785"/>
</g>
<!-- view.js&#45;&gt;components/selectionHelper.js -->
<g id="edge50" class="edge">
<title>view.js&#45;&gt;components/selectionHelper.js</title>
<path fill="none" stroke="#757575" d="M128.7418,-424.9532C132.745,-458.0508 147.7971,-553.995 193,-617.2455 261.3263,-712.8515 296.5437,-730.0104 405,-775.2455 476.6845,-805.1437 563.1311,-818.1314 631.495,-823.6507"/>
<polygon fill="#757575" stroke="#757575" points="631.6386,-827.1718 641.8759,-824.443 632.1713,-820.1921 631.6386,-827.1718"/>
</g>
<!-- view.js&#45;&gt;scenarios.js -->
<g id="edge60" class="edge">
<title>view.js&#45;&gt;scenarios.js</title>
<path fill="none" stroke="#757575" d="M141.484,-401.3694C154.0514,-391.501 173.4833,-378.1549 193,-372.2455 368.5169,-319.1008 589.5515,-335.9434 692.2215,-348.2239"/>
<polygon fill="#757575" stroke="#757575" points="692.0223,-351.7256 702.3742,-349.47 692.8751,-344.7778 692.0223,-351.7256"/>
</g>
<!-- menu/field.js -->
<g id="node18" class="node">
<title>menu/field.js</title>
<path fill="none" stroke="#c6c5fe" d="M322.3333,-527.7455C322.3333,-527.7455 239.6667,-527.7455 239.6667,-527.7455 235.8333,-527.7455 232,-523.9122 232,-520.0788 232,-520.0788 232,-512.4122 232,-512.4122 232,-508.5788 235.8333,-504.7455 239.6667,-504.7455 239.6667,-504.7455 322.3333,-504.7455 322.3333,-504.7455 326.1667,-504.7455 330,-508.5788 330,-512.4122 330,-512.4122 330,-520.0788 330,-520.0788 330,-523.9122 326.1667,-527.7455 322.3333,-527.7455"/>
<text text-anchor="middle" x="281" y="-512.5455" font-family="Arial" font-size="14.00" fill="#c6c5fe">menu/field.js</text>
</g>
<!-- view.js&#45;&gt;menu/field.js -->
<g id="edge53" class="edge">
<title>view.js&#45;&gt;menu/field.js</title>
<path fill="none" stroke="#757575" d="M133.412,-424.7928C143.2407,-442.7789 164.6944,-477.2806 193,-495.2455 201.7431,-500.7946 211.8196,-504.8783 221.9627,-507.8834"/>
<polygon fill="#757575" stroke="#757575" points="221.1043,-511.2766 231.6665,-510.4467 222.892,-504.5087 221.1043,-511.2766"/>
</g>
<!-- menu/generator.js -->
<g id="node19" class="node">
<title>menu/generator.js</title>
<path fill="none" stroke="#c6c5fe" d="M339.8333,-486.7455C339.8333,-486.7455 222.1667,-486.7455 222.1667,-486.7455 218.3333,-486.7455 214.5,-482.9122 214.5,-479.0788 214.5,-479.0788 214.5,-471.4122 214.5,-471.4122 214.5,-467.5788 218.3333,-463.7455 222.1667,-463.7455 222.1667,-463.7455 339.8333,-463.7455 339.8333,-463.7455 343.6667,-463.7455 347.5,-467.5788 347.5,-471.4122 347.5,-471.4122 347.5,-479.0788 347.5,-479.0788 347.5,-482.9122 343.6667,-486.7455 339.8333,-486.7455"/>
<text text-anchor="middle" x="281" y="-471.5455" font-family="Arial" font-size="14.00" fill="#c6c5fe">menu/generator.js</text>
</g>
<!-- view.js&#45;&gt;menu/generator.js -->
<g id="edge54" class="edge">
<title>view.js&#45;&gt;menu/generator.js</title>
<path fill="none" stroke="#757575" d="M142.8589,-424.8831C155.6568,-434.0682 174.6874,-446.5727 193,-454.2455 198.7992,-456.6753 204.9365,-458.8587 211.1643,-460.8133"/>
<polygon fill="#757575" stroke="#757575" points="210.409,-464.2392 220.99,-463.6991 212.3816,-457.5229 210.409,-464.2392"/>
</g>
<!-- scenariosHelpers.js -->
<g id="node20" class="node">
<title>scenariosHelpers.js</title>
<path fill="none" stroke="#c6c5fe" d="M569.8333,-211.7455C569.8333,-211.7455 441.1667,-211.7455 441.1667,-211.7455 437.3333,-211.7455 433.5,-207.9122 433.5,-204.0788 433.5,-204.0788 433.5,-196.4122 433.5,-196.4122 433.5,-192.5788 437.3333,-188.7455 441.1667,-188.7455 441.1667,-188.7455 569.8333,-188.7455 569.8333,-188.7455 573.6667,-188.7455 577.5,-192.5788 577.5,-196.4122 577.5,-196.4122 577.5,-204.0788 577.5,-204.0788 577.5,-207.9122 573.6667,-211.7455 569.8333,-211.7455"/>
<text text-anchor="middle" x="505.5" y="-196.5455" font-family="Arial" font-size="14.00" fill="#c6c5fe">scenariosHelpers.js</text>
</g>
<!-- view.js&#45;&gt;scenariosHelpers.js -->
<g id="edge61" class="edge">
<title>view.js&#45;&gt;scenariosHelpers.js</title>
<path fill="none" stroke="#757575" d="M129.8598,-401.6155C137.6766,-364.3095 163.8876,-248.7674 193,-226.2455 227.7382,-199.3714 342.8251,-196.0449 423.1785,-197.2588"/>
<polygon fill="#757575" stroke="#757575" points="423.2286,-200.7601 433.289,-197.438 423.3527,-193.7612 423.2286,-200.7601"/>
</g>
<!-- menu/info.js -->
<g id="node21" class="node">
<title>menu/info.js</title>
<path fill="none" stroke="#c6c5fe" d="M320.8333,-445.7455C320.8333,-445.7455 241.1667,-445.7455 241.1667,-445.7455 237.3333,-445.7455 233.5,-441.9122 233.5,-438.0788 233.5,-438.0788 233.5,-430.4122 233.5,-430.4122 233.5,-426.5788 237.3333,-422.7455 241.1667,-422.7455 241.1667,-422.7455 320.8333,-422.7455 320.8333,-422.7455 324.6667,-422.7455 328.5,-426.5788 328.5,-430.4122 328.5,-430.4122 328.5,-438.0788 328.5,-438.0788 328.5,-441.9122 324.6667,-445.7455 320.8333,-445.7455"/>
<text text-anchor="middle" x="281" y="-430.5455" font-family="Arial" font-size="14.00" fill="#c6c5fe">menu/info.js</text>
</g>
<!-- view.js&#45;&gt;menu/info.js -->
<g id="edge55" class="edge">
<title>view.js&#45;&gt;menu/info.js</title>
<path fill="none" stroke="#757575" d="M157.0963,-417.2945C175.8325,-419.8578 200.6899,-423.2584 223.2203,-426.3408"/>
<polygon fill="#757575" stroke="#757575" points="222.9958,-429.8426 233.378,-427.7304 223.9447,-422.9072 222.9958,-429.8426"/>
</g>
<!-- menu/parameters.js -->
<g id="node22" class="node">
<title>menu/parameters.js</title>
<path fill="none" stroke="#c6c5fe" d="M345.8333,-607.7455C345.8333,-607.7455 216.1667,-607.7455 216.1667,-607.7455 212.3333,-607.7455 208.5,-603.9122 208.5,-600.0788 208.5,-600.0788 208.5,-592.4122 208.5,-592.4122 208.5,-588.5788 212.3333,-584.7455 216.1667,-584.7455 216.1667,-584.7455 345.8333,-584.7455 345.8333,-584.7455 349.6667,-584.7455 353.5,-588.5788 353.5,-592.4122 353.5,-592.4122 353.5,-600.0788 353.5,-600.0788 353.5,-603.9122 349.6667,-607.7455 345.8333,-607.7455"/>
<text text-anchor="middle" x="281" y="-592.5455" font-family="Arial" font-size="14.00" fill="#c6c5fe">menu/parameters.js</text>
</g>
<!-- view.js&#45;&gt;menu/parameters.js -->
<g id="edge56" class="edge">
<title>view.js&#45;&gt;menu/parameters.js</title>
<path fill="none" stroke="#757575" d="M128.9595,-425.0661C133.1909,-454.2007 148.1608,-530.0035 193,-570.2455 197.4053,-574.1991 202.3856,-577.5527 207.6812,-580.3973"/>
<polygon fill="#757575" stroke="#757575" points="206.3076,-583.6192 216.8452,-584.72 209.294,-577.2882 206.3076,-583.6192"/>
</g>
<!-- menu/particle.js -->
<g id="node23" class="node">
<title>menu/particle.js</title>
<path fill="none" stroke="#c6c5fe" d="M332.3333,-173.7455C332.3333,-173.7455 229.6667,-173.7455 229.6667,-173.7455 225.8333,-173.7455 222,-169.9122 222,-166.0788 222,-166.0788 222,-158.4122 222,-158.4122 222,-154.5788 225.8333,-150.7455 229.6667,-150.7455 229.6667,-150.7455 332.3333,-150.7455 332.3333,-150.7455 336.1667,-150.7455 340,-154.5788 340,-158.4122 340,-158.4122 340,-166.0788 340,-166.0788 340,-169.9122 336.1667,-173.7455 332.3333,-173.7455"/>
<text text-anchor="middle" x="281" y="-158.5455" font-family="Arial" font-size="14.00" fill="#c6c5fe">menu/particle.js</text>
</g>
<!-- view.js&#45;&gt;menu/particle.js -->
<g id="edge57" class="edge">
<title>view.js&#45;&gt;menu/particle.js</title>
<path fill="none" stroke="#757575" d="M129.3802,-401.6364C136.3286,-360.0874 161.7775,-219.5931 193,-188.2455 198.5332,-182.6901 205.1917,-178.3098 212.3381,-174.8581"/>
<polygon fill="#757575" stroke="#757575" points="213.7406,-178.0653 221.6033,-170.964 211.0283,-171.6121 213.7406,-178.0653"/>
</g>
<!-- menu/field.js&#45;&gt;core.js -->
<g id="edge30" class="edge">
<title>menu/field.js&#45;&gt;core.js</title>
<path fill="none" stroke="#757575" d="M330.2675,-516.026C370.9708,-515.8447 428.01,-515.5907 465.8208,-515.4222"/>
<polygon fill="#757575" stroke="#757575" points="465.9616,-518.9217 475.9459,-515.3771 465.9304,-511.9218 465.9616,-518.9217"/>
</g>
<!-- menu/generator.js&#45;&gt;physics.js -->
<g id="edge34" class="edge">
<title>menu/generator.js&#45;&gt;physics.js</title>
<path fill="none" stroke="#757575" d="M347.5754,-485.7059C355.0687,-488.2287 362.379,-491.3597 369,-495.2455 389.6274,-507.3516 386.6074,-519.9562 405,-535.2455 499.9589,-614.1822 524.7154,-641.6125 642,-680.2455 738.0866,-711.896 1041.7341,-724.8111 1162.6263,-728.786"/>
<polygon fill="#757575" stroke="#757575" points="1162.6139,-732.2873 1172.7214,-729.111 1162.8392,-725.2909 1162.6139,-732.2873"/>
</g>
<!-- menu/generator.js&#45;&gt;helpers.js -->
<g id="edge33" class="edge">
<title>menu/generator.js&#45;&gt;helpers.js</title>
<path fill="none" stroke="#757575" d="M332.083,-463.7037C401.7284,-448.507 530.5716,-422.3077 642,-410.2455 757.2901,-397.7652 893.6587,-395.892 965.3031,-395.8951"/>
<polygon fill="#757575" stroke="#757575" points="965.3892,-399.3951 975.3938,-395.9081 965.3983,-392.3951 965.3892,-399.3951"/>
</g>
<!-- menu/generator.js&#45;&gt;core.js -->
<g id="edge32" class="edge">
<title>menu/generator.js&#45;&gt;core.js</title>
<path fill="none" stroke="#757575" d="M345.6335,-486.7615C384.3224,-493.6548 432.2752,-502.1987 465.5179,-508.1217"/>
<polygon fill="#757575" stroke="#757575" points="465.3048,-511.6388 475.7637,-509.9473 466.5327,-504.7473 465.3048,-511.6388"/>
</g>
<!-- menu/generator.js&#45;&gt;components/selectionHelper.js -->
<g id="edge31" class="edge">
<title>menu/generator.js&#45;&gt;components/selectionHelper.js</title>
<path fill="none" stroke="#757575" d="M347.6817,-481.2262C355.7018,-484.4334 363.1181,-488.9481 369,-495.2455 439.6247,-570.8599 336.8456,-647.3972 405,-725.2455 439.8503,-765.0527 579.7886,-796.8926 670.2365,-813.8444"/>
<polygon fill="#757575" stroke="#757575" points="669.7216,-817.3085 680.1917,-815.6877 670.9961,-810.4255 669.7216,-817.3085"/>
</g>
<!-- menu/generator.js&#45;&gt;scenariosHelpers.js -->
<g id="edge35" class="edge">
<title>menu/generator.js&#45;&gt;scenariosHelpers.js</title>
<path fill="none" stroke="#757575" d="M347.8418,-465.9917C355.4572,-463.0528 362.7247,-459.2243 369,-454.2455 397.0273,-432.0087 388.3493,-413.9118 405,-382.2455 436.0371,-323.2192 474.6229,-254.5929 493.6943,-220.9698"/>
<polygon fill="#757575" stroke="#757575" points="496.8489,-222.5026 498.7456,-212.0789 490.7626,-219.0447 496.8489,-222.5026"/>
</g>
<!-- scenariosHelpers.js&#45;&gt;particle.js -->
<g id="edge45" class="edge">
<title>scenariosHelpers.js&#45;&gt;particle.js</title>
<path fill="none" stroke="#757575" d="M556.7985,-188.694C626.1096,-175.1549 752.9677,-157.7179 857,-184.2455 1051.2632,-233.7814 1092.6819,-279.8707 1253,-400.2455 1274.9962,-416.7613 1296.772,-439.6451 1311.0463,-455.7798"/>
<polygon fill="#757575" stroke="#757575" points="1308.5853,-458.2835 1317.7885,-463.5325 1313.8673,-453.69 1308.5853,-458.2835"/>
</g>
<!-- scenariosHelpers.js&#45;&gt;helpers.js -->
<g id="edge44" class="edge">
<title>scenariosHelpers.js&#45;&gt;helpers.js</title>
<path fill="none" stroke="#757575" d="M577.7598,-190.733C651.707,-184.2985 768.0625,-183.5138 857,-226.2455 926.3451,-259.5636 980.1422,-337.7507 1003.0082,-375.3411"/>
<polygon fill="#757575" stroke="#757575" points="1000.2667,-377.5788 1008.3862,-384.385 1006.2833,-374.001 1000.2667,-377.5788"/>
</g>
<!-- menu/info.js&#45;&gt;helpers.js -->
<g id="edge37" class="edge">
<title>menu/info.js&#45;&gt;helpers.js</title>
<path fill="none" stroke="#757575" d="M328.5967,-427.2186C342.1246,-424.0855 356.5531,-419.6086 369,-413.2455 387.8004,-403.6344 386.0182,-391.4931 405,-382.2455 586.5706,-293.7875 658.4456,-298.2477 857,-335.2455 902.8437,-343.7878 952.525,-365.1572 983.6948,-380.1823"/>
<polygon fill="#757575" stroke="#757575" points="982.2294,-383.3617 992.7492,-384.6203 985.3103,-377.0762 982.2294,-383.3617"/>
</g>
<!-- menu/info.js&#45;&gt;core.js -->
<g id="edge36" class="edge">
<title>menu/info.js&#45;&gt;core.js</title>
<path fill="none" stroke="#757575" d="M328.5119,-443.2484C341.7641,-446.2425 356.0694,-449.9336 369,-454.2455 406.225,-466.6587 447.0861,-485.6835 474.3075,-499.1823"/>
<polygon fill="#757575" stroke="#757575" points="472.8304,-502.3569 483.339,-503.7067 475.9658,-496.0983 472.8304,-502.3569"/>
</g>
<!-- menu/parameters.js&#45;&gt;physics.js -->
<g id="edge39" class="edge">
<title>menu/parameters.js&#45;&gt;physics.js</title>
<path fill="none" stroke="#757575" d="M353.7068,-603.5045C359.2592,-606.0262 364.459,-609.2198 369,-613.2455 408.1251,-647.9305 362.8439,-694.3151 405,-725.2455 465.8961,-769.9255 996.1856,-742.968 1162.9941,-733.2846"/>
<polygon fill="#757575" stroke="#757575" points="1163.2075,-736.7782 1172.986,-732.6999 1162.7985,-729.7902 1163.2075,-736.7782"/>
</g>
<!-- menu/parameters.js&#45;&gt;core.js -->
<g id="edge38" class="edge">
<title>menu/parameters.js&#45;&gt;core.js</title>
<path fill="none" stroke="#757575" d="M323.3374,-584.627C337.9052,-580.3942 354.2566,-575.3805 369,-570.2455 403.5969,-558.1955 442.2617,-542.389 469.5831,-530.8147"/>
<polygon fill="#757575" stroke="#757575" points="471.2793,-533.8965 479.1071,-526.7568 468.5355,-527.4567 471.2793,-533.8965"/>
</g>
<!-- menu/particle.js&#45;&gt;particle.js -->
<g id="edge42" class="edge">
<title>menu/particle.js&#45;&gt;particle.js</title>
<path fill="none" stroke="#757575" d="M299.0888,-150.637C322.5394,-136.1683 365.1624,-111.8172 405,-99.2455 552.4827,-52.7038 594.8479,-50.2455 749.5,-50.2455 749.5,-50.2455 749.5,-50.2455 1015,-50.2455 1217.4426,-50.2455 1303.2716,-367.1102 1322.9355,-453.6393"/>
<polygon fill="#757575" stroke="#757575" points="1319.5247,-454.4254 1325.0995,-463.435 1326.3599,-452.9154 1319.5247,-454.4254"/>
</g>
<!-- menu/particle.js&#45;&gt;helpers.js -->
<g id="edge41" class="edge">
<title>menu/particle.js&#45;&gt;helpers.js</title>
<path fill="none" stroke="#757575" d="M340.3595,-158.167C468.9495,-150.3404 768.7651,-137.8319 857,-184.2455 937.6555,-226.6721 988.2379,-330.7987 1006.8825,-375.408"/>
<polygon fill="#757575" stroke="#757575" points="1003.6484,-376.7465 1010.6572,-384.6918 1010.1329,-374.1099 1003.6484,-376.7465"/>
</g>
<!-- menu/particle.js&#45;&gt;core.js -->
<g id="edge40" class="edge">
<title>menu/particle.js&#45;&gt;core.js</title>
<path fill="none" stroke="#757575" d="M288.4695,-173.9904C321.0292,-225.1867 450.785,-429.2125 492.5075,-494.8162"/>
<polygon fill="#757575" stroke="#757575" points="489.6826,-496.8966 498.0024,-503.4564 495.5893,-493.1401 489.6826,-496.8966"/>
</g>
</g>
</svg>
