<?xml version="1.0" encoding="UTF-8" standalone="no"?>
<!DOCTYPE svg PUBLIC "-//W3C//DTD SVG 1.1//EN"
 "http://www.w3.org/Graphics/SVG/1.1/DTD/svg11.dtd">
<!-- Generated by graphviz version 2.40.1 (20161225.0304)
 -->
<!-- Title: G Pages: 1 -->
<svg width="1578pt" height="990pt"
 viewBox="0.00 0.00 1578.20 989.55" xmlns="http://www.w3.org/2000/svg" xmlns:xlink="http://www.w3.org/1999/xlink">
<g id="graph0" class="graph" transform="scale(1 1) rotate(0) translate(21.6 967.9486)">
<title>G</title>
<polygon fill="#111111" stroke="transparent" points="-21.6,21.6 -21.6,-967.9486 1556.6,-967.9486 1556.6,21.6 -21.6,21.6"/>
<!-- components/csv.js -->
<g id="node1" class="node">
<title>components/csv.js</title>
<path fill="none" stroke="#c6c5fe" d="M1014.8333,-124.3486C1014.8333,-124.3486 893.1667,-124.3486 893.1667,-124.3486 889.3333,-124.3486 885.5,-120.5152 885.5,-116.6819 885.5,-116.6819 885.5,-109.0152 885.5,-109.0152 885.5,-105.1819 889.3333,-101.3486 893.1667,-101.3486 893.1667,-101.3486 1014.8333,-101.3486 1014.8333,-101.3486 1018.6667,-101.3486 1022.5,-105.1819 1022.5,-109.0152 1022.5,-109.0152 1022.5,-116.6819 1022.5,-116.6819 1022.5,-120.5152 1018.6667,-124.3486 1014.8333,-124.3486"/>
<text text-anchor="middle" x="954" y="-109.1486" font-family="Arial" font-size="14.00" fill="#c6c5fe">components/csv.js</text>
</g>
<!-- particle.js -->
<g id="node2" class="node">
<title>particle.js</title>
<path fill="none" stroke="#cfffac" d="M1527.3333,-418.3486C1527.3333,-418.3486 1465.6667,-418.3486 1465.6667,-418.3486 1461.8333,-418.3486 1458,-414.5152 1458,-410.6819 1458,-410.6819 1458,-403.0152 1458,-403.0152 1458,-399.1819 1461.8333,-395.3486 1465.6667,-395.3486 1465.6667,-395.3486 1527.3333,-395.3486 1527.3333,-395.3486 1531.1667,-395.3486 1535,-399.1819 1535,-403.0152 1535,-403.0152 1535,-410.6819 1535,-410.6819 1535,-414.5152 1531.1667,-418.3486 1527.3333,-418.3486"/>
<text text-anchor="middle" x="1496.5" y="-403.1486" font-family="Arial" font-size="14.00" fill="#cfffac">particle.js</text>
</g>
<!-- components/csv.js&#45;&gt;particle.js -->
<g id="edge1" class="edge">
<title>components/csv.js&#45;&gt;particle.js</title>
<path fill="none" stroke="#757575" d="M1011.252,-101.3215C1081.8884,-89.3366 1205.0224,-75.7821 1306,-102.8486 1363.5073,-118.263 1384.7584,-123.3969 1422,-169.8486 1474.9759,-235.9258 1490.5145,-340.0717 1494.8793,-385.0113"/>
<polygon fill="#757575" stroke="#757575" points="1491.4039,-385.4459 1495.7643,-395.1018 1498.3772,-384.8343 1491.4039,-385.4459"/>
</g>
<!-- physics.js -->
<g id="node3" class="node">
<title>physics.js</title>
<path fill="none" stroke="#c6c5fe" d="M1414.3333,-202.3486C1414.3333,-202.3486 1349.6667,-202.3486 1349.6667,-202.3486 1345.8333,-202.3486 1342,-198.5152 1342,-194.6819 1342,-194.6819 1342,-187.0152 1342,-187.0152 1342,-183.1819 1345.8333,-179.3486 1349.6667,-179.3486 1349.6667,-179.3486 1414.3333,-179.3486 1414.3333,-179.3486 1418.1667,-179.3486 1422,-183.1819 1422,-187.0152 1422,-187.0152 1422,-194.6819 1422,-194.6819 1422,-198.5152 1418.1667,-202.3486 1414.3333,-202.3486"/>
<text text-anchor="middle" x="1382" y="-187.1486" font-family="Arial" font-size="14.00" fill="#c6c5fe">physics.js</text>
</g>
<!-- components/csv.js&#45;&gt;physics.js -->
<g id="edge2" class="edge">
<title>components/csv.js&#45;&gt;physics.js</title>
<path fill="none" stroke="#757575" d="M1022.6231,-107.5626C1095.1626,-104.3241 1211.8768,-105.8827 1306,-138.8486 1326.9378,-146.1819 1347.5073,-160.8438 1361.9557,-172.7347"/>
<polygon fill="#757575" stroke="#757575" points="1359.8291,-175.5208 1369.7119,-179.3393 1364.3674,-170.1913 1359.8291,-175.5208"/>
</g>
<!-- physics.js&#45;&gt;particle.js -->
<g id="edge55" class="edge">
<title>physics.js&#45;&gt;particle.js</title>
<path fill="none" stroke="#757575" d="M1388.156,-202.4617C1406.6391,-237.3293 1461.831,-341.4468 1485.511,-386.1183"/>
<polygon fill="#757575" stroke="#757575" points="1482.5375,-387.9819 1490.3135,-395.1781 1488.7223,-384.7034 1482.5375,-387.9819"/>
</g>
<!-- components/keyboard.js -->
<g id="node4" class="node">
<title>components/keyboard.js</title>
<path fill="none" stroke="#cfffac" d="M361.3333,-916.3486C361.3333,-916.3486 200.6667,-916.3486 200.6667,-916.3486 196.8333,-916.3486 193,-912.5152 193,-908.6819 193,-908.6819 193,-901.0152 193,-901.0152 193,-897.1819 196.8333,-893.3486 200.6667,-893.3486 200.6667,-893.3486 361.3333,-893.3486 361.3333,-893.3486 365.1667,-893.3486 369,-897.1819 369,-901.0152 369,-901.0152 369,-908.6819 369,-908.6819 369,-912.5152 365.1667,-916.3486 361.3333,-916.3486"/>
<text text-anchor="middle" x="281" y="-901.1486" font-family="Arial" font-size="14.00" fill="#cfffac">components/keyboard.js</text>
</g>
<!-- components/mouseHelper.js -->
<g id="node5" class="node">
<title>components/mouseHelper.js</title>
<path fill="none" stroke="#c6c5fe" d="M831.3333,-946.3486C831.3333,-946.3486 645.6667,-946.3486 645.6667,-946.3486 641.8333,-946.3486 638,-942.5152 638,-938.6819 638,-938.6819 638,-931.0152 638,-931.0152 638,-927.1819 641.8333,-923.3486 645.6667,-923.3486 645.6667,-923.3486 831.3333,-923.3486 831.3333,-923.3486 835.1667,-923.3486 839,-927.1819 839,-931.0152 839,-931.0152 839,-938.6819 839,-938.6819 839,-942.5152 835.1667,-946.3486 831.3333,-946.3486"/>
<text text-anchor="middle" x="738.5" y="-931.1486" font-family="Arial" font-size="14.00" fill="#c6c5fe">components/mouseHelper.js</text>
</g>
<!-- helpers.js -->
<g id="node6" class="node">
<title>helpers.js</title>
<path fill="none" stroke="#c6c5fe" d="M1215.8333,-594.3486C1215.8333,-594.3486 1152.1667,-594.3486 1152.1667,-594.3486 1148.3333,-594.3486 1144.5,-590.5152 1144.5,-586.6819 1144.5,-586.6819 1144.5,-579.0152 1144.5,-579.0152 1144.5,-575.1819 1148.3333,-571.3486 1152.1667,-571.3486 1152.1667,-571.3486 1215.8333,-571.3486 1215.8333,-571.3486 1219.6667,-571.3486 1223.5,-575.1819 1223.5,-579.0152 1223.5,-579.0152 1223.5,-586.6819 1223.5,-586.6819 1223.5,-590.5152 1219.6667,-594.3486 1215.8333,-594.3486"/>
<text text-anchor="middle" x="1184" y="-579.1486" font-family="Arial" font-size="14.00" fill="#c6c5fe">helpers.js</text>
</g>
<!-- components/mouseHelper.js&#45;&gt;helpers.js -->
<g id="edge3" class="edge">
<title>components/mouseHelper.js&#45;&gt;helpers.js</title>
<path fill="none" stroke="#757575" d="M839.2232,-932.7076C898.6861,-926.8246 972.534,-910.9922 1026,-870.8486 1119.4398,-800.6916 1164.5178,-658.3596 1178.7939,-604.3181"/>
<polygon fill="#757575" stroke="#757575" points="1182.2286,-605.0135 1181.3116,-594.4584 1175.4462,-603.2815 1182.2286,-605.0135"/>
</g>
<!-- helpers.js&#45;&gt;particle.js -->
<g id="edge28" class="edge">
<title>helpers.js&#45;&gt;particle.js</title>
<path fill="none" stroke="#757575" d="M1222.0229,-571.2296C1270.8966,-555.2469 1357.1711,-523.4274 1422,-479.8486 1444.5238,-464.7078 1466.2095,-442.2745 1480.3183,-426.277"/>
<polygon fill="#757575" stroke="#757575" points="1483.0854,-428.4278 1486.97,-418.5707 1477.7863,-423.8539 1483.0854,-428.4278"/>
</g>
<!-- components/ruler.js -->
<g id="node7" class="node">
<title>components/ruler.js</title>
<path fill="none" stroke="#c6c5fe" d="M563.8333,-795.3486C563.8333,-795.3486 436.1667,-795.3486 436.1667,-795.3486 432.3333,-795.3486 428.5,-791.5152 428.5,-787.6819 428.5,-787.6819 428.5,-780.0152 428.5,-780.0152 428.5,-776.1819 432.3333,-772.3486 436.1667,-772.3486 436.1667,-772.3486 563.8333,-772.3486 563.8333,-772.3486 567.6667,-772.3486 571.5,-776.1819 571.5,-780.0152 571.5,-780.0152 571.5,-787.6819 571.5,-787.6819 571.5,-791.5152 567.6667,-795.3486 563.8333,-795.3486"/>
<text text-anchor="middle" x="500" y="-780.1486" font-family="Arial" font-size="14.00" fill="#c6c5fe">components/ruler.js</text>
</g>
<!-- components/ruler.js&#45;&gt;helpers.js -->
<g id="edge5" class="edge">
<title>components/ruler.js&#45;&gt;helpers.js</title>
<path fill="none" stroke="#757575" d="M571.7919,-791.4562C696.6856,-803.4465 948.0729,-821.7133 1026,-783.8486 1104.7248,-745.5962 1155.9156,-647.0146 1175.2803,-603.7407"/>
<polygon fill="#757575" stroke="#757575" points="1178.5385,-605.0248 1179.3218,-594.459 1172.1205,-602.2302 1178.5385,-605.0248"/>
</g>
<!-- core.js -->
<g id="node8" class="node">
<title>core.js</title>
<path fill="none" stroke="#c6c5fe" d="M760.3333,-576.3486C760.3333,-576.3486 716.6667,-576.3486 716.6667,-576.3486 712.8333,-576.3486 709,-572.5152 709,-568.6819 709,-568.6819 709,-561.0152 709,-561.0152 709,-557.1819 712.8333,-553.3486 716.6667,-553.3486 716.6667,-553.3486 760.3333,-553.3486 760.3333,-553.3486 764.1667,-553.3486 768,-557.1819 768,-561.0152 768,-561.0152 768,-568.6819 768,-568.6819 768,-572.5152 764.1667,-576.3486 760.3333,-576.3486"/>
<text text-anchor="middle" x="738.5" y="-561.1486" font-family="Arial" font-size="14.00" fill="#c6c5fe">core.js</text>
</g>
<!-- components/ruler.js&#45;&gt;core.js -->
<g id="edge4" class="edge">
<title>components/ruler.js&#45;&gt;core.js</title>
<path fill="none" stroke="#757575" d="M571.8214,-774.7666C580.0074,-772.0075 587.936,-768.4441 595,-763.8486 664.4493,-718.6674 711.2075,-627.256 729.6616,-585.953"/>
<polygon fill="#757575" stroke="#757575" points="732.9551,-587.1562 733.7401,-576.5905 726.5376,-584.3606 732.9551,-587.1562"/>
</g>
<!-- core.js&#45;&gt;components/csv.js -->
<g id="edge10" class="edge">
<title>core.js&#45;&gt;components/csv.js</title>
<path fill="none" stroke="#757575" d="M742.8725,-553.1906C762.9144,-499.9192 846.5363,-279.4754 882,-214.8486 898.6227,-184.5565 922.4616,-152.4394 938.0843,-132.5159"/>
<polygon fill="#757575" stroke="#757575" points="940.9567,-134.5267 944.4302,-124.5174 935.4729,-130.176 940.9567,-134.5267"/>
</g>
<!-- core.js&#45;&gt;particle.js -->
<g id="edge16" class="edge">
<title>core.js&#45;&gt;particle.js</title>
<path fill="none" stroke="#757575" d="M747.767,-553.3007C768.6181,-528.3059 822.1093,-469.5398 882,-445.8486 993.7949,-401.6255 1302.0765,-421.3412 1422,-412.8486 1430.2818,-412.2621 1439.0777,-411.5939 1447.6133,-410.9216"/>
<polygon fill="#757575" stroke="#757575" points="1448.1542,-414.3897 1457.8438,-410.1046 1447.5969,-407.4119 1448.1542,-414.3897"/>
</g>
<!-- core.js&#45;&gt;physics.js -->
<g id="edge17" class="edge">
<title>core.js&#45;&gt;physics.js</title>
<path fill="none" stroke="#757575" d="M752.2342,-553.1979C775.4984,-532.6442 822.4214,-487.4942 846,-438.8486 881.7744,-365.0414 821.9537,-313.7212 882,-257.8486 951.5161,-193.1643 1212.1575,-219.3447 1306,-204.8486 1314.3864,-203.5531 1323.2681,-202.0432 1331.8884,-200.5038"/>
<polygon fill="#757575" stroke="#757575" points="1332.6297,-203.9265 1341.8424,-198.6943 1331.3776,-197.0394 1332.6297,-203.9265"/>
</g>
<!-- core.js&#45;&gt;helpers.js -->
<g id="edge15" class="edge">
<title>core.js&#45;&gt;helpers.js</title>
<path fill="none" stroke="#757575" d="M768.0755,-566.0435C843.0952,-569.0746 1041.427,-577.088 1134.4799,-580.8478"/>
<polygon fill="#757575" stroke="#757575" points="1134.3557,-584.3455 1144.4889,-581.2522 1134.6384,-577.3512 1134.3557,-584.3455"/>
</g>
<!-- gpu/field.js -->
<g id="node10" class="node">
<title>gpu/field.js</title>
<path fill="none" stroke="#c6c5fe" d="M989.3333,-478.3486C989.3333,-478.3486 918.6667,-478.3486 918.6667,-478.3486 914.8333,-478.3486 911,-474.5152 911,-470.6819 911,-470.6819 911,-463.0152 911,-463.0152 911,-459.1819 914.8333,-455.3486 918.6667,-455.3486 918.6667,-455.3486 989.3333,-455.3486 989.3333,-455.3486 993.1667,-455.3486 997,-459.1819 997,-463.0152 997,-463.0152 997,-470.6819 997,-470.6819 997,-474.5152 993.1667,-478.3486 989.3333,-478.3486"/>
<text text-anchor="middle" x="954" y="-463.1486" font-family="Arial" font-size="14.00" fill="#c6c5fe">gpu/field.js</text>
</g>
<!-- core.js&#45;&gt;gpu/field.js -->
<g id="edge11" class="edge">
<title>core.js&#45;&gt;gpu/field.js</title>
<path fill="none" stroke="#757575" d="M764.0669,-553.2218C802.6256,-535.687 875.7537,-502.4316 919.1565,-482.6939"/>
<polygon fill="#757575" stroke="#757575" points="920.8123,-485.7859 928.4663,-478.4602 917.9145,-479.4138 920.8123,-485.7859"/>
</g>
<!-- gpu/graphics.js -->
<g id="node11" class="node">
<title>gpu/graphics.js</title>
<path fill="none" stroke="#c6c5fe" d="M1003.8333,-318.3486C1003.8333,-318.3486 904.1667,-318.3486 904.1667,-318.3486 900.3333,-318.3486 896.5,-314.5152 896.5,-310.6819 896.5,-310.6819 896.5,-303.0152 896.5,-303.0152 896.5,-299.1819 900.3333,-295.3486 904.1667,-295.3486 904.1667,-295.3486 1003.8333,-295.3486 1003.8333,-295.3486 1007.6667,-295.3486 1011.5,-299.1819 1011.5,-303.0152 1011.5,-303.0152 1011.5,-310.6819 1011.5,-310.6819 1011.5,-314.5152 1007.6667,-318.3486 1003.8333,-318.3486"/>
<text text-anchor="middle" x="954" y="-303.1486" font-family="Arial" font-size="14.00" fill="#c6c5fe">gpu/graphics.js</text>
</g>
<!-- core.js&#45;&gt;gpu/graphics.js -->
<g id="edge12" class="edge">
<title>core.js&#45;&gt;gpu/graphics.js</title>
<path fill="none" stroke="#757575" d="M750.2608,-553.1413C771.2935,-531.7836 815.9569,-484.4805 846,-438.8486 865.8927,-408.634 859.5008,-394.1757 882,-365.8486 894.8553,-349.6633 912.837,-334.9239 927.614,-324.2255"/>
<polygon fill="#757575" stroke="#757575" points="929.7137,-327.0277 935.8811,-318.413 925.6876,-321.3014 929.7137,-327.0277"/>
</g>
<!-- gpu/shaders/computeShader.glsl.js -->
<g id="node12" class="node">
<title>gpu/shaders/computeShader.glsl.js</title>
<path fill="none" stroke="#c6c5fe" d="M1298.3333,-280.3486C1298.3333,-280.3486 1069.6667,-280.3486 1069.6667,-280.3486 1065.8333,-280.3486 1062,-276.5152 1062,-272.6819 1062,-272.6819 1062,-265.0152 1062,-265.0152 1062,-261.1819 1065.8333,-257.3486 1069.6667,-257.3486 1069.6667,-257.3486 1298.3333,-257.3486 1298.3333,-257.3486 1302.1667,-257.3486 1306,-261.1819 1306,-265.0152 1306,-265.0152 1306,-272.6819 1306,-272.6819 1306,-276.5152 1302.1667,-280.3486 1298.3333,-280.3486"/>
<text text-anchor="middle" x="1184" y="-265.1486" font-family="Arial" font-size="14.00" fill="#c6c5fe">gpu/shaders/computeShader.glsl.js</text>
</g>
<!-- core.js&#45;&gt;gpu/shaders/computeShader.glsl.js -->
<g id="edge13" class="edge">
<title>core.js&#45;&gt;gpu/shaders/computeShader.glsl.js</title>
<path fill="none" stroke="#757575" d="M752.056,-553.1096C775.0512,-532.4226 821.5796,-487.0771 846,-438.8486 877.5571,-376.5256 828.4791,-330.7431 882,-285.8486 907.6927,-264.297 982.9177,-260.0183 1051.8566,-261.1418"/>
<polygon fill="#757575" stroke="#757575" points="1051.9073,-264.6434 1061.9757,-261.3453 1052.0481,-257.6448 1051.9073,-264.6434"/>
</g>
<!-- gpu/simulation.js -->
<g id="node13" class="node">
<title>gpu/simulation.js</title>
<path fill="none" stroke="#c6c5fe" d="M1008.8333,-752.3486C1008.8333,-752.3486 899.1667,-752.3486 899.1667,-752.3486 895.3333,-752.3486 891.5,-748.5152 891.5,-744.6819 891.5,-744.6819 891.5,-737.0152 891.5,-737.0152 891.5,-733.1819 895.3333,-729.3486 899.1667,-729.3486 899.1667,-729.3486 1008.8333,-729.3486 1008.8333,-729.3486 1012.6667,-729.3486 1016.5,-733.1819 1016.5,-737.0152 1016.5,-737.0152 1016.5,-744.6819 1016.5,-744.6819 1016.5,-748.5152 1012.6667,-752.3486 1008.8333,-752.3486"/>
<text text-anchor="middle" x="954" y="-737.1486" font-family="Arial" font-size="14.00" fill="#c6c5fe">gpu/simulation.js</text>
</g>
<!-- core.js&#45;&gt;gpu/simulation.js -->
<g id="edge14" class="edge">
<title>core.js&#45;&gt;gpu/simulation.js</title>
<path fill="none" stroke="#757575" d="M752.6396,-576.3964C789.3227,-606.3557 887.7548,-686.7457 931.9668,-722.8539"/>
<polygon fill="#757575" stroke="#757575" points="929.8492,-725.6435 939.8084,-729.2582 934.2771,-720.2218 929.8492,-725.6435"/>
</g>
<!-- scenarios.js -->
<g id="node14" class="node">
<title>scenarios.js</title>
<path fill="none" stroke="#cfffac" d="M993.3333,-634.3486C993.3333,-634.3486 914.6667,-634.3486 914.6667,-634.3486 910.8333,-634.3486 907,-630.5152 907,-626.6819 907,-626.6819 907,-619.0152 907,-619.0152 907,-615.1819 910.8333,-611.3486 914.6667,-611.3486 914.6667,-611.3486 993.3333,-611.3486 993.3333,-611.3486 997.1667,-611.3486 1001,-615.1819 1001,-619.0152 1001,-619.0152 1001,-626.6819 1001,-626.6819 1001,-630.5152 997.1667,-634.3486 993.3333,-634.3486"/>
<text text-anchor="middle" x="954" y="-619.1486" font-family="Arial" font-size="14.00" fill="#cfffac">scenarios.js</text>
</g>
<!-- core.js&#45;&gt;scenarios.js -->
<g id="edge18" class="edge">
<title>core.js&#45;&gt;scenarios.js</title>
<path fill="none" stroke="#757575" d="M768.0125,-572.7916C802.269,-582.0115 859.4162,-597.3921 901.341,-608.6759"/>
<polygon fill="#757575" stroke="#757575" points="900.545,-612.0861 911.1111,-611.3054 902.3643,-605.3266 900.545,-612.0861"/>
</g>
<!-- components/selectionHelper.js -->
<g id="node9" class="node">
<title>components/selectionHelper.js</title>
<path fill="none" stroke="#c6c5fe" d="M838.3333,-204.3486C838.3333,-204.3486 638.6667,-204.3486 638.6667,-204.3486 634.8333,-204.3486 631,-200.5152 631,-196.6819 631,-196.6819 631,-189.0152 631,-189.0152 631,-185.1819 634.8333,-181.3486 638.6667,-181.3486 638.6667,-181.3486 838.3333,-181.3486 838.3333,-181.3486 842.1667,-181.3486 846,-185.1819 846,-189.0152 846,-189.0152 846,-196.6819 846,-196.6819 846,-200.5152 842.1667,-204.3486 838.3333,-204.3486"/>
<text text-anchor="middle" x="738.5" y="-189.1486" font-family="Arial" font-size="14.00" fill="#c6c5fe">components/selectionHelper.js</text>
</g>
<!-- components/selectionHelper.js&#45;&gt;components/csv.js -->
<g id="edge6" class="edge">
<title>components/selectionHelper.js&#45;&gt;components/csv.js</title>
<path fill="none" stroke="#757575" d="M768.9688,-181.2481C797.9873,-170.2317 842.9136,-153.2593 882,-138.8486 891.7262,-135.2626 902.2096,-131.4481 912.0859,-127.8773"/>
<polygon fill="#757575" stroke="#757575" points="913.4906,-131.0914 921.7092,-124.4052 911.1148,-124.5069 913.4906,-131.0914"/>
</g>
<!-- components/selectionHelper.js&#45;&gt;particle.js -->
<g id="edge8" class="edge">
<title>components/selectionHelper.js&#45;&gt;particle.js</title>
<path fill="none" stroke="#757575" d="M747.7355,-181.3182C768.5239,-156.4079 821.8978,-98.1028 882,-76.8486 1108.6905,3.3172 1249.8426,58.0113 1422,-109.8486 1461.8627,-148.7162 1486.3688,-322.8137 1493.9612,-384.8262"/>
<polygon fill="#757575" stroke="#757575" points="1490.5202,-385.5289 1495.1819,-395.043 1497.4708,-384.6984 1490.5202,-385.5289"/>
</g>
<!-- components/selectionHelper.js&#45;&gt;physics.js -->
<g id="edge9" class="edge">
<title>components/selectionHelper.js&#45;&gt;physics.js</title>
<path fill="none" stroke="#757575" d="M749.7591,-181.085C772.2985,-158.4925 825.6544,-109.6895 882,-91.8486 948.4617,-70.8045 1256.6446,-79.0771 1306,-102.8486 1335.8084,-117.2055 1358.6003,-149.2495 1371.1417,-170.4483"/>
<polygon fill="#757575" stroke="#757575" points="1368.1955,-172.3483 1376.1711,-179.3226 1374.2855,-168.8969 1368.1955,-172.3483"/>
</g>
<!-- components/selectionHelper.js&#45;&gt;helpers.js -->
<g id="edge7" class="edge">
<title>components/selectionHelper.js&#45;&gt;helpers.js</title>
<path fill="none" stroke="#757575" d="M750.5653,-204.7543C782.2758,-235.9524 866.5865,-318.2707 882,-326.8486 939.9379,-359.092 971.387,-328.2472 1026,-365.8486 1101.6897,-417.9614 1154.5211,-518.5439 1174.7998,-562.0057"/>
<polygon fill="#757575" stroke="#757575" points="1171.7073,-563.6595 1179.0443,-571.3028 1178.0751,-560.7524 1171.7073,-563.6595"/>
</g>
<!-- gpu/field.js&#45;&gt;particle.js -->
<g id="edge20" class="edge">
<title>gpu/field.js&#45;&gt;particle.js</title>
<path fill="none" stroke="#757575" d="M997.0505,-469.7158C1080.4611,-474.1262 1269.3179,-478.5072 1422,-440.8486 1437.6617,-436.9856 1454.0749,-429.8682 1467.4969,-423.1398"/>
<polygon fill="#757575" stroke="#757575" points="1469.43,-426.0796 1476.6881,-418.3614 1466.2011,-419.8688 1469.43,-426.0796"/>
</g>
<!-- gpu/field.js&#45;&gt;helpers.js -->
<g id="edge19" class="edge">
<title>gpu/field.js&#45;&gt;helpers.js</title>
<path fill="none" stroke="#757575" d="M989.642,-478.3599C1001.3932,-482.5127 1014.4145,-487.5049 1026,-492.8486 1073.801,-514.8962 1126.3661,-546.4068 1157.208,-565.6982"/>
<polygon fill="#757575" stroke="#757575" points="1155.726,-568.9011 1166.0529,-571.2689 1159.4565,-562.978 1155.726,-568.9011"/>
</g>
<!-- gpu/graphics.js&#45;&gt;particle.js -->
<g id="edge24" class="edge">
<title>gpu/graphics.js&#45;&gt;particle.js</title>
<path fill="none" stroke="#757575" d="M1006.3858,-318.384C1024.0281,-322.1677 1043.8426,-326.3073 1062,-329.8486 1201.4259,-357.0407 1366.8282,-385.2382 1447.4292,-398.7188"/>
<polygon fill="#757575" stroke="#757575" points="1447.3229,-402.2494 1457.7628,-400.4441 1448.4758,-395.345 1447.3229,-402.2494"/>
</g>
<!-- gpu/graphics.js&#45;&gt;helpers.js -->
<g id="edge23" class="edge">
<title>gpu/graphics.js&#45;&gt;helpers.js</title>
<path fill="none" stroke="#757575" d="M1000.1811,-318.3963C1009.3328,-322.0467 1018.4371,-326.7719 1026,-332.8486 1106.1894,-397.2791 1157.6362,-513.9808 1176.2147,-561.6758"/>
<polygon fill="#757575" stroke="#757575" points="1173.0349,-563.1607 1179.8642,-571.2608 1179.5767,-560.6699 1173.0349,-563.1607"/>
</g>
<!-- gpu/graphics.js&#45;&gt;gpu/shaders/computeShader.glsl.js -->
<g id="edge21" class="edge">
<title>gpu/graphics.js&#45;&gt;gpu/shaders/computeShader.glsl.js</title>
<path fill="none" stroke="#757575" d="M1011.726,-297.1984C1027.9843,-294.4884 1045.6839,-291.5456 1062,-288.8486 1075.3764,-286.6374 1089.5796,-284.2998 1103.3871,-282.0327"/>
<polygon fill="#757575" stroke="#757575" points="1104.0525,-285.4704 1113.3537,-280.3972 1102.9189,-278.5628 1104.0525,-285.4704"/>
</g>
<!-- gpu/shaders/particleShader.glsl.js -->
<g id="node15" class="node">
<title>gpu/shaders/particleShader.glsl.js</title>
<path fill="none" stroke="#cfffac" d="M1293.3333,-321.3486C1293.3333,-321.3486 1074.6667,-321.3486 1074.6667,-321.3486 1070.8333,-321.3486 1067,-317.5152 1067,-313.6819 1067,-313.6819 1067,-306.0152 1067,-306.0152 1067,-302.1819 1070.8333,-298.3486 1074.6667,-298.3486 1074.6667,-298.3486 1293.3333,-298.3486 1293.3333,-298.3486 1297.1667,-298.3486 1301,-302.1819 1301,-306.0152 1301,-306.0152 1301,-313.6819 1301,-313.6819 1301,-317.5152 1297.1667,-321.3486 1293.3333,-321.3486"/>
<text text-anchor="middle" x="1184" y="-306.1486" font-family="Arial" font-size="14.00" fill="#cfffac">gpu/shaders/particleShader.glsl.js</text>
</g>
<!-- gpu/graphics.js&#45;&gt;gpu/shaders/particleShader.glsl.js -->
<g id="edge22" class="edge">
<title>gpu/graphics.js&#45;&gt;gpu/shaders/particleShader.glsl.js</title>
<path fill="none" stroke="#757575" d="M1011.7418,-307.6017C1025.6047,-307.7825 1040.958,-307.9828 1056.6212,-308.1871"/>
<polygon fill="#757575" stroke="#757575" points="1056.9015,-311.691 1066.9464,-308.3218 1056.9929,-304.6916 1056.9015,-311.691"/>
</g>
<!-- gpu/shaders/computeShader.glsl.js&#45;&gt;physics.js -->
<g id="edge25" class="edge">
<title>gpu/shaders/computeShader.glsl.js&#45;&gt;physics.js</title>
<path fill="none" stroke="#757575" d="M1260.5895,-257.3073C1275.9698,-253.6711 1291.7685,-248.9498 1306,-242.8486 1326.0216,-234.265 1346.2605,-220.0873 1360.8134,-208.7022"/>
<polygon fill="#757575" stroke="#757575" points="1363.0745,-211.3753 1368.6802,-202.3849 1358.6915,-205.9173 1363.0745,-211.3753"/>
</g>
<!-- gpu/simulation.js&#45;&gt;particle.js -->
<g id="edge27" class="edge">
<title>gpu/simulation.js&#45;&gt;particle.js</title>
<path fill="none" stroke="#757575" d="M1003.5818,-729.3012C1097.3089,-705.0918 1301.8309,-640.5681 1422,-514.8486 1448.1663,-487.4737 1471.7666,-450.1063 1485.0983,-427.27"/>
<polygon fill="#757575" stroke="#757575" points="1488.2212,-428.86 1490.1608,-418.4442 1482.1492,-425.377 1488.2212,-428.86"/>
</g>
<!-- gpu/simulation.js&#45;&gt;helpers.js -->
<g id="edge26" class="edge">
<title>gpu/simulation.js&#45;&gt;helpers.js</title>
<path fill="none" stroke="#757575" d="M998.6423,-729.2106C1008.1928,-725.5293 1017.8496,-720.8143 1026,-714.8486 1047.2325,-699.3074 1042.9794,-686.0299 1062,-667.8486 1090.7111,-640.4044 1128.9791,-615.2454 1154.9455,-599.538"/>
<polygon fill="#757575" stroke="#757575" points="1156.7852,-602.5161 1163.5813,-594.3881 1153.1999,-596.504 1156.7852,-602.5161"/>
</g>
<!-- main.js -->
<g id="node16" class="node">
<title>main.js</title>
<path fill="none" stroke="#c6c5fe" d="M54.3333,-619.3486C54.3333,-619.3486 7.6667,-619.3486 7.6667,-619.3486 3.8333,-619.3486 0,-615.5152 0,-611.6819 0,-611.6819 0,-604.0152 0,-604.0152 0,-600.1819 3.8333,-596.3486 7.6667,-596.3486 7.6667,-596.3486 54.3333,-596.3486 54.3333,-596.3486 58.1667,-596.3486 62,-600.1819 62,-604.0152 62,-604.0152 62,-611.6819 62,-611.6819 62,-615.5152 58.1667,-619.3486 54.3333,-619.3486"/>
<text text-anchor="middle" x="31" y="-604.1486" font-family="Arial" font-size="14.00" fill="#c6c5fe">main.js</text>
</g>
<!-- view.js -->
<g id="node17" class="node">
<title>view.js</title>
<path fill="none" stroke="#c6c5fe" d="M149.3333,-619.3486C149.3333,-619.3486 105.6667,-619.3486 105.6667,-619.3486 101.8333,-619.3486 98,-615.5152 98,-611.6819 98,-611.6819 98,-604.0152 98,-604.0152 98,-600.1819 101.8333,-596.3486 105.6667,-596.3486 105.6667,-596.3486 149.3333,-596.3486 149.3333,-596.3486 153.1667,-596.3486 157,-600.1819 157,-604.0152 157,-604.0152 157,-611.6819 157,-611.6819 157,-615.5152 153.1667,-619.3486 149.3333,-619.3486"/>
<text text-anchor="middle" x="127.5" y="-604.1486" font-family="Arial" font-size="14.00" fill="#c6c5fe">view.js</text>
</g>
<!-- main.js&#45;&gt;view.js -->
<g id="edge29" class="edge">
<title>main.js&#45;&gt;view.js</title>
<path fill="none" stroke="#757575" d="M62.0644,-607.8486C70.212,-607.8486 79.1116,-607.8486 87.6492,-607.8486"/>
<polygon fill="#757575" stroke="#757575" points="87.8088,-611.3487 97.8088,-607.8486 87.8087,-604.3487 87.8088,-611.3487"/>
</g>
<!-- view.js&#45;&gt;components/keyboard.js -->
<g id="edge58" class="edge">
<title>view.js&#45;&gt;components/keyboard.js</title>
<path fill="none" stroke="#757575" d="M128.7712,-619.4868C134.1068,-666.2872 156.1397,-840.0925 193,-878.8486 196.4549,-882.4812 200.3901,-885.6135 204.6354,-888.3138"/>
<polygon fill="#757575" stroke="#757575" points="203.2748,-891.5584 213.7303,-893.2714 206.6252,-885.4122 203.2748,-891.5584"/>
</g>
<!-- view.js&#45;&gt;components/mouseHelper.js -->
<g id="edge59" class="edge">
<title>view.js&#45;&gt;components/mouseHelper.js</title>
<path fill="none" stroke="#757575" d="M129.9019,-619.3967C137.9513,-657.0301 165.0444,-775.1847 193,-800.8486 257.3907,-859.9607 499.088,-901.9932 638.2001,-921.8804"/>
<polygon fill="#757575" stroke="#757575" points="638.0548,-925.3947 648.4469,-923.3318 639.0366,-918.4639 638.0548,-925.3947"/>
</g>
<!-- view.js&#45;&gt;components/ruler.js -->
<g id="edge60" class="edge">
<title>view.js&#45;&gt;components/ruler.js</title>
<path fill="none" stroke="#757575" d="M131.8046,-619.4322C140.2098,-640.412 160.844,-684.6689 193,-707.8486 259.1976,-755.5672 352.0038,-773.4946 418.2123,-780.1384"/>
<polygon fill="#757575" stroke="#757575" points="417.9079,-783.6252 428.1912,-781.0749 418.562,-776.6558 417.9079,-783.6252"/>
</g>
<!-- view.js&#45;&gt;core.js -->
<g id="edge62" class="edge">
<title>view.js&#45;&gt;core.js</title>
<path fill="none" stroke="#757575" d="M134.1241,-596.1557C144.2994,-579.5344 165.5165,-549.7708 193,-537.8486 283.8012,-498.4593 589.2785,-541.2689 698.9141,-558.4074"/>
<polygon fill="#757575" stroke="#757575" points="698.4757,-561.8814 708.8989,-559.9822 699.5663,-554.9669 698.4757,-561.8814"/>
</g>
<!-- view.js&#45;&gt;components/selectionHelper.js -->
<g id="edge61" class="edge">
<title>view.js&#45;&gt;components/selectionHelper.js</title>
<path fill="none" stroke="#757575" d="M128.1896,-596.108C131.5667,-542.5476 148.0549,-321.8884 193,-272.8486 316.3586,-138.2514 558.7302,-159.8156 674.2802,-179.5554"/>
<polygon fill="#757575" stroke="#757575" points="673.934,-183.0481 684.3892,-181.3334 675.1466,-176.154 673.934,-183.0481"/>
</g>
<!-- menu/advancedControls.js -->
<g id="node18" class="node">
<title>menu/advancedControls.js</title>
<path fill="none" stroke="#c6c5fe" d="M587.3333,-754.3486C587.3333,-754.3486 412.6667,-754.3486 412.6667,-754.3486 408.8333,-754.3486 405,-750.5152 405,-746.6819 405,-746.6819 405,-739.0152 405,-739.0152 405,-735.1819 408.8333,-731.3486 412.6667,-731.3486 412.6667,-731.3486 587.3333,-731.3486 587.3333,-731.3486 591.1667,-731.3486 595,-735.1819 595,-739.0152 595,-739.0152 595,-746.6819 595,-746.6819 595,-750.5152 591.1667,-754.3486 587.3333,-754.3486"/>
<text text-anchor="middle" x="500" y="-739.1486" font-family="Arial" font-size="14.00" fill="#c6c5fe">menu/advancedControls.js</text>
</g>
<!-- view.js&#45;&gt;menu/advancedControls.js -->
<g id="edge63" class="edge">
<title>view.js&#45;&gt;menu/advancedControls.js</title>
<path fill="none" stroke="#757575" d="M137.9668,-619.4172C150.0466,-632.0932 171.0799,-652.1735 193,-663.8486 257.6485,-698.2815 338.0537,-718.2643 400.3589,-729.5152"/>
<polygon fill="#757575" stroke="#757575" points="400.1354,-733.0295 410.5904,-731.314 401.3476,-726.1352 400.1354,-733.0295"/>
</g>
<!-- menu/controls.js -->
<g id="node19" class="node">
<title>menu/controls.js</title>
<path fill="none" stroke="#c6c5fe" d="M334.3333,-619.3486C334.3333,-619.3486 227.6667,-619.3486 227.6667,-619.3486 223.8333,-619.3486 220,-615.5152 220,-611.6819 220,-611.6819 220,-604.0152 220,-604.0152 220,-600.1819 223.8333,-596.3486 227.6667,-596.3486 227.6667,-596.3486 334.3333,-596.3486 334.3333,-596.3486 338.1667,-596.3486 342,-600.1819 342,-604.0152 342,-604.0152 342,-611.6819 342,-611.6819 342,-615.5152 338.1667,-619.3486 334.3333,-619.3486"/>
<text text-anchor="middle" x="281" y="-604.1486" font-family="Arial" font-size="14.00" fill="#c6c5fe">menu/controls.js</text>
</g>
<!-- view.js&#45;&gt;menu/controls.js -->
<g id="edge64" class="edge">
<title>view.js&#45;&gt;menu/controls.js</title>
<path fill="none" stroke="#757575" d="M157.0963,-607.8486C172.0918,-607.8486 191.0083,-607.8486 209.5146,-607.8486"/>
<polygon fill="#757575" stroke="#757575" points="209.7262,-611.3487 219.7262,-607.8486 209.7261,-604.3487 209.7262,-611.3487"/>
</g>
<!-- menu/info.js -->
<g id="node20" class="node">
<title>menu/info.js</title>
<path fill="none" stroke="#c6c5fe" d="M539.8333,-713.3486C539.8333,-713.3486 460.1667,-713.3486 460.1667,-713.3486 456.3333,-713.3486 452.5,-709.5152 452.5,-705.6819 452.5,-705.6819 452.5,-698.0152 452.5,-698.0152 452.5,-694.1819 456.3333,-690.3486 460.1667,-690.3486 460.1667,-690.3486 539.8333,-690.3486 539.8333,-690.3486 543.6667,-690.3486 547.5,-694.1819 547.5,-698.0152 547.5,-698.0152 547.5,-705.6819 547.5,-705.6819 547.5,-709.5152 543.6667,-713.3486 539.8333,-713.3486"/>
<text text-anchor="middle" x="500" y="-698.1486" font-family="Arial" font-size="14.00" fill="#c6c5fe">menu/info.js</text>
</g>
<!-- view.js&#45;&gt;menu/info.js -->
<g id="edge67" class="edge">
<title>view.js&#45;&gt;menu/info.js</title>
<path fill="none" stroke="#757575" d="M157.0627,-617.2857C168.2749,-620.7567 181.1856,-624.6241 193,-627.8486 279.4249,-651.4366 380.5986,-675.0614 442.4817,-689.0659"/>
<polygon fill="#757575" stroke="#757575" points="441.917,-692.5264 452.4422,-691.3137 443.458,-685.6981 441.917,-692.5264"/>
</g>
<!-- menu/parameters.js -->
<g id="node21" class="node">
<title>menu/parameters.js</title>
<path fill="none" stroke="#c6c5fe" d="M564.8333,-481.3486C564.8333,-481.3486 435.1667,-481.3486 435.1667,-481.3486 431.3333,-481.3486 427.5,-477.5152 427.5,-473.6819 427.5,-473.6819 427.5,-466.0152 427.5,-466.0152 427.5,-462.1819 431.3333,-458.3486 435.1667,-458.3486 435.1667,-458.3486 564.8333,-458.3486 564.8333,-458.3486 568.6667,-458.3486 572.5,-462.1819 572.5,-466.0152 572.5,-466.0152 572.5,-473.6819 572.5,-473.6819 572.5,-477.5152 568.6667,-481.3486 564.8333,-481.3486"/>
<text text-anchor="middle" x="500" y="-466.1486" font-family="Arial" font-size="14.00" fill="#c6c5fe">menu/parameters.js</text>
</g>
<!-- view.js&#45;&gt;menu/parameters.js -->
<g id="edge68" class="edge">
<title>view.js&#45;&gt;menu/parameters.js</title>
<path fill="none" stroke="#757575" d="M130.4549,-596.159C137.1045,-572.5474 155.6654,-519.4144 193,-495.8486 260.1938,-453.4353 352.7806,-451.4906 418.664,-457.3297"/>
<polygon fill="#757575" stroke="#757575" points="418.7103,-460.8504 429.0006,-458.3286 419.3837,-453.8828 418.7103,-460.8504"/>
</g>
<!-- menu/field.js -->
<g id="node22" class="node">
<title>menu/field.js</title>
<path fill="none" stroke="#c6c5fe" d="M322.3333,-570.3486C322.3333,-570.3486 239.6667,-570.3486 239.6667,-570.3486 235.8333,-570.3486 232,-566.5152 232,-562.6819 232,-562.6819 232,-555.0152 232,-555.0152 232,-551.1819 235.8333,-547.3486 239.6667,-547.3486 239.6667,-547.3486 322.3333,-547.3486 322.3333,-547.3486 326.1667,-547.3486 330,-551.1819 330,-555.0152 330,-555.0152 330,-562.6819 330,-562.6819 330,-566.5152 326.1667,-570.3486 322.3333,-570.3486"/>
<text text-anchor="middle" x="281" y="-555.1486" font-family="Arial" font-size="14.00" fill="#c6c5fe">menu/field.js</text>
</g>
<!-- view.js&#45;&gt;menu/field.js -->
<g id="edge65" class="edge">
<title>view.js&#45;&gt;menu/field.js</title>
<path fill="none" stroke="#757575" d="M157.1672,-598.3217C168.3916,-594.7213 181.2832,-590.5909 193,-586.8486 206.6414,-582.4916 221.4764,-577.7663 235.0115,-573.4602"/>
<polygon fill="#757575" stroke="#757575" points="236.1329,-576.7764 244.6017,-570.41 234.0112,-570.1056 236.1329,-576.7764"/>
</g>
<!-- menu/generator.js -->
<g id="node23" class="node">
<title>menu/generator.js</title>
<path fill="none" stroke="#c6c5fe" d="M558.8333,-420.3486C558.8333,-420.3486 441.1667,-420.3486 441.1667,-420.3486 437.3333,-420.3486 433.5,-416.5152 433.5,-412.6819 433.5,-412.6819 433.5,-405.0152 433.5,-405.0152 433.5,-401.1819 437.3333,-397.3486 441.1667,-397.3486 441.1667,-397.3486 558.8333,-397.3486 558.8333,-397.3486 562.6667,-397.3486 566.5,-401.1819 566.5,-405.0152 566.5,-405.0152 566.5,-412.6819 566.5,-412.6819 566.5,-416.5152 562.6667,-420.3486 558.8333,-420.3486"/>
<text text-anchor="middle" x="500" y="-405.1486" font-family="Arial" font-size="14.00" fill="#c6c5fe">menu/generator.js</text>
</g>
<!-- view.js&#45;&gt;menu/generator.js -->
<g id="edge66" class="edge">
<title>view.js&#45;&gt;menu/generator.js</title>
<path fill="none" stroke="#757575" d="M128.5824,-596.1158C131.9888,-566.522 145.2904,-488.588 193,-451.8486 258.4012,-401.4855 355.6337,-396.0352 423.0796,-399.7587"/>
<polygon fill="#757575" stroke="#757575" points="423.0219,-403.262 433.2228,-400.3998 423.4635,-396.2759 423.0219,-403.262"/>
</g>
<!-- menu/particle.js -->
<g id="node25" class="node">
<title>menu/particle.js</title>
<path fill="none" stroke="#c6c5fe" d="M551.3333,-836.3486C551.3333,-836.3486 448.6667,-836.3486 448.6667,-836.3486 444.8333,-836.3486 441,-832.5152 441,-828.6819 441,-828.6819 441,-821.0152 441,-821.0152 441,-817.1819 444.8333,-813.3486 448.6667,-813.3486 448.6667,-813.3486 551.3333,-813.3486 551.3333,-813.3486 555.1667,-813.3486 559,-817.1819 559,-821.0152 559,-821.0152 559,-828.6819 559,-828.6819 559,-832.5152 555.1667,-836.3486 551.3333,-836.3486"/>
<text text-anchor="middle" x="500" y="-821.1486" font-family="Arial" font-size="14.00" fill="#c6c5fe">menu/particle.js</text>
</g>
<!-- view.js&#45;&gt;menu/particle.js -->
<g id="edge69" class="edge">
<title>view.js&#45;&gt;menu/particle.js</title>
<path fill="none" stroke="#757575" d="M129.179,-619.4006C133.8424,-647.1334 149.5978,-717.8384 193,-753.8486 260.1765,-809.5839 362.8756,-823.4238 430.72,-825.9414"/>
<polygon fill="#757575" stroke="#757575" points="430.7836,-829.4448 440.8833,-826.2438 430.9918,-822.4479 430.7836,-829.4448"/>
</g>
<!-- menu/selection.js -->
<g id="node26" class="node">
<title>menu/selection.js</title>
<path fill="none" stroke="#c6c5fe" d="M556.8333,-244.3486C556.8333,-244.3486 443.1667,-244.3486 443.1667,-244.3486 439.3333,-244.3486 435.5,-240.5152 435.5,-236.6819 435.5,-236.6819 435.5,-229.0152 435.5,-229.0152 435.5,-225.1819 439.3333,-221.3486 443.1667,-221.3486 443.1667,-221.3486 556.8333,-221.3486 556.8333,-221.3486 560.6667,-221.3486 564.5,-225.1819 564.5,-229.0152 564.5,-229.0152 564.5,-236.6819 564.5,-236.6819 564.5,-240.5152 560.6667,-244.3486 556.8333,-244.3486"/>
<text text-anchor="middle" x="500" y="-229.1486" font-family="Arial" font-size="14.00" fill="#c6c5fe">menu/selection.js</text>
</g>
<!-- view.js&#45;&gt;menu/selection.js -->
<g id="edge70" class="edge">
<title>view.js&#45;&gt;menu/selection.js</title>
<path fill="none" stroke="#757575" d="M128.3525,-596.0193C131.3679,-561.6786 144.1476,-460.3289 193,-395.8486 260.7465,-306.4299 302.5856,-304.6369 405,-258.8486 414.92,-254.4135 425.7688,-250.5782 436.4741,-247.3181"/>
<polygon fill="#757575" stroke="#757575" points="437.6063,-250.634 446.2343,-244.4853 435.655,-243.9115 437.6063,-250.634"/>
</g>
<!-- menu/advancedControls.js&#45;&gt;helpers.js -->
<g id="edge31" class="edge">
<title>menu/advancedControls.js&#45;&gt;helpers.js</title>
<path fill="none" stroke="#757575" d="M580.6413,-754.3757C707.9188,-771.1386 948.8486,-796.656 1026,-761.8486 1099.1467,-728.8479 1152.0192,-643.3931 1173.4503,-603.6908"/>
<polygon fill="#757575" stroke="#757575" points="1176.6524,-605.1216 1178.2146,-594.6426 1170.4586,-601.8602 1176.6524,-605.1216"/>
</g>
<!-- menu/advancedControls.js&#45;&gt;core.js -->
<g id="edge30" class="edge">
<title>menu/advancedControls.js&#45;&gt;core.js</title>
<path fill="none" stroke="#757575" d="M576.2746,-731.3213C582.8103,-728.9945 589.1509,-726.2012 595,-722.8486 655.241,-688.3188 704.1767,-619.6863 726.0818,-585.375"/>
<polygon fill="#757575" stroke="#757575" points="729.1946,-586.9986 731.5304,-576.6645 723.2599,-583.2864 729.1946,-586.9986"/>
</g>
<!-- menu/controls.js&#45;&gt;components/csv.js -->
<g id="edge32" class="edge">
<title>menu/controls.js&#45;&gt;components/csv.js</title>
<path fill="none" stroke="#757575" d="M342.0104,-597.2124C352.2049,-592.9797 361.7925,-587.0767 369,-578.8486 425.9196,-513.8694 347.6592,-452.4563 405,-387.8486 541.413,-234.1476 699.8923,-393.3651 846,-248.8486 882.5725,-212.6743 846.1804,-175.7685 882,-138.8486 885.6092,-135.1285 889.7897,-131.9385 894.2837,-129.2034"/>
<polygon fill="#757575" stroke="#757575" points="896.0274,-132.2409 903.2446,-124.4844 892.7656,-126.0472 896.0274,-132.2409"/>
</g>
<!-- menu/controls.js&#45;&gt;helpers.js -->
<g id="edge34" class="edge">
<title>menu/controls.js&#45;&gt;helpers.js</title>
<path fill="none" stroke="#757575" d="M342.0231,-617.5833C497.3575,-641.2807 904.0517,-696.2413 1026,-642.8486 1047.6087,-633.3876 1041.2751,-615.1147 1062,-603.8486 1083.9586,-591.9118 1111.1424,-586.4864 1134.273,-584.1199"/>
<polygon fill="#757575" stroke="#757575" points="1134.5835,-587.6062 1144.2454,-583.2591 1133.9814,-580.6322 1134.5835,-587.6062"/>
</g>
<!-- menu/controls.js&#45;&gt;core.js -->
<g id="edge33" class="edge">
<title>menu/controls.js&#45;&gt;core.js</title>
<path fill="none" stroke="#757575" d="M342.2258,-602.094C437.5323,-593.1362 618.7231,-576.1063 698.7772,-568.5821"/>
<polygon fill="#757575" stroke="#757575" points="699.3028,-572.0482 708.9314,-567.6277 698.6477,-565.0789 699.3028,-572.0482"/>
</g>
<!-- menu/controls.js&#45;&gt;scenarios.js -->
<g id="edge37" class="edge">
<title>menu/controls.js&#45;&gt;scenarios.js</title>
<path fill="none" stroke="#757575" d="M342.2095,-609.2128C471.428,-612.0929 770.5037,-618.7588 896.4462,-621.5658"/>
<polygon fill="#757575" stroke="#757575" points="896.5742,-625.0694 906.6498,-621.7932 896.7303,-618.0712 896.5742,-625.0694"/>
</g>
<!-- menu/controls.js&#45;&gt;menu/info.js -->
<g id="edge35" class="edge">
<title>menu/controls.js&#45;&gt;menu/info.js</title>
<path fill="none" stroke="#757575" d="M298.8269,-619.3787C322.3439,-634.1718 365.3962,-659.8291 405,-675.8486 416.8827,-680.655 429.952,-684.876 442.494,-688.4421"/>
<polygon fill="#757575" stroke="#757575" points="441.8371,-691.8912 452.4067,-691.1604 443.6884,-685.1404 441.8371,-691.8912"/>
</g>
<!-- menu/controls.js&#45;&gt;menu/parameters.js -->
<g id="edge36" class="edge">
<title>menu/controls.js&#45;&gt;menu/parameters.js</title>
<path fill="none" stroke="#757575" d="M327.137,-596.2265C341.0509,-591.7869 356.0565,-586.0235 369,-578.8486 413.8695,-553.976 458.0564,-512.79 481.8999,-488.8011"/>
<polygon fill="#757575" stroke="#757575" points="484.679,-490.9658 489.1776,-481.3735 479.679,-486.0668 484.679,-490.9658"/>
</g>
<!-- menu/info.js&#45;&gt;helpers.js -->
<g id="edge45" class="edge">
<title>menu/info.js&#45;&gt;helpers.js</title>
<path fill="none" stroke="#757575" d="M547.726,-707.1465C641.659,-715.9434 856.1525,-727.9201 1026,-676.8486 1079.1361,-660.871 1132.9645,-623.2472 1162.0427,-600.7431"/>
<polygon fill="#757575" stroke="#757575" points="1164.2112,-603.4904 1169.9058,-594.5561 1159.8826,-597.9892 1164.2112,-603.4904"/>
</g>
<!-- menu/info.js&#45;&gt;core.js -->
<g id="edge44" class="edge">
<title>menu/info.js&#45;&gt;core.js</title>
<path fill="none" stroke="#757575" d="M520.3344,-690.168C562.6655,-665.852 660.3803,-609.7224 709.3784,-581.5767"/>
<polygon fill="#757575" stroke="#757575" points="711.2892,-584.5155 718.2171,-576.4995 707.8025,-578.4456 711.2892,-584.5155"/>
</g>
<!-- menu/parameters.js&#45;&gt;physics.js -->
<g id="edge47" class="edge">
<title>menu/parameters.js&#45;&gt;physics.js</title>
<path fill="none" stroke="#757575" d="M572.7267,-464.8663C651.2649,-455.5359 774.6816,-428.746 846,-351.8486 889.3955,-305.0584 832.4142,-253.02 882,-212.8486 916.3181,-185.0461 1211.527,-187.5292 1331.5618,-189.7282"/>
<polygon fill="#757575" stroke="#757575" points="1331.5353,-193.2283 1341.6,-189.919 1331.6684,-186.2295 1331.5353,-193.2283"/>
</g>
<!-- menu/parameters.js&#45;&gt;core.js -->
<g id="edge46" class="edge">
<title>menu/parameters.js&#45;&gt;core.js</title>
<path fill="none" stroke="#757575" d="M563.6159,-481.4839C574.586,-485.0739 585.5013,-489.7541 595,-495.8486 615.9779,-509.3083 609.8237,-525.7033 631,-538.8486 651.3284,-551.4675 677.337,-557.962 698.6796,-561.3044"/>
<polygon fill="#757575" stroke="#757575" points="698.3495,-564.7921 708.7367,-562.705 699.3151,-557.859 698.3495,-564.7921"/>
</g>
<!-- menu/field.js&#45;&gt;core.js -->
<g id="edge38" class="edge">
<title>menu/field.js&#45;&gt;core.js</title>
<path fill="none" stroke="#757575" d="M330.3952,-559.4964C421.6848,-560.6936 615.1053,-563.2303 698.6689,-564.3262"/>
<polygon fill="#757575" stroke="#757575" points="698.7264,-567.8272 708.7714,-564.4587 698.8182,-560.8278 698.7264,-567.8272"/>
</g>
<!-- menu/generator.js&#45;&gt;physics.js -->
<g id="edge42" class="edge">
<title>menu/generator.js&#45;&gt;physics.js</title>
<path fill="none" stroke="#757575" d="M556.0069,-397.3374C643.0885,-378.3837 805.2066,-338.5327 846,-296.8486 884.9454,-257.0528 837.327,-210.0866 882,-176.8486 957.5938,-120.6044 1212.1684,-168.2783 1306,-176.8486 1314.4507,-177.6204 1323.3649,-178.8655 1331.9977,-180.3028"/>
<polygon fill="#757575" stroke="#757575" points="1331.5017,-183.7693 1341.958,-182.0616 1332.719,-176.8759 1331.5017,-183.7693"/>
</g>
<!-- menu/generator.js&#45;&gt;helpers.js -->
<g id="edge41" class="edge">
<title>menu/generator.js&#45;&gt;helpers.js</title>
<path fill="none" stroke="#757575" d="M535.8064,-420.4258C603.1328,-441.9526 753.3996,-488.8536 882,-520.8486 970.1348,-542.7759 1074.1138,-562.8742 1134.2121,-573.9346"/>
<polygon fill="#757575" stroke="#757575" points="1133.7232,-577.4033 1144.1902,-575.7621 1134.9843,-570.5178 1133.7232,-577.4033"/>
</g>
<!-- menu/generator.js&#45;&gt;core.js -->
<g id="edge40" class="edge">
<title>menu/generator.js&#45;&gt;core.js</title>
<path fill="none" stroke="#757575" d="M546.9104,-420.3645C563.835,-426.4792 581.9589,-435.5704 595,-448.8486 625.1874,-479.5848 598.4356,-510.6429 631,-538.8486 649.5438,-554.9103 676.3544,-561.4159 698.5612,-563.9033"/>
<polygon fill="#757575" stroke="#757575" points="698.444,-567.4066 708.7144,-564.8048 699.0631,-560.434 698.444,-567.4066"/>
</g>
<!-- menu/generator.js&#45;&gt;components/selectionHelper.js -->
<g id="edge39" class="edge">
<title>menu/generator.js&#45;&gt;components/selectionHelper.js</title>
<path fill="none" stroke="#757575" d="M512.8228,-397.2355C551.9695,-361.7818 670.1714,-254.7311 718.0409,-211.3775"/>
<polygon fill="#757575" stroke="#757575" points="720.5512,-213.8261 725.6138,-204.5191 715.8522,-208.6377 720.5512,-213.8261"/>
</g>
<!-- scenariosHelpers.js -->
<g id="node24" class="node">
<title>scenariosHelpers.js</title>
<path fill="none" stroke="#c6c5fe" d="M1018.3333,-398.3486C1018.3333,-398.3486 889.6667,-398.3486 889.6667,-398.3486 885.8333,-398.3486 882,-394.5152 882,-390.6819 882,-390.6819 882,-383.0152 882,-383.0152 882,-379.1819 885.8333,-375.3486 889.6667,-375.3486 889.6667,-375.3486 1018.3333,-375.3486 1018.3333,-375.3486 1022.1667,-375.3486 1026,-379.1819 1026,-383.0152 1026,-383.0152 1026,-390.6819 1026,-390.6819 1026,-394.5152 1022.1667,-398.3486 1018.3333,-398.3486"/>
<text text-anchor="middle" x="954" y="-383.1486" font-family="Arial" font-size="14.00" fill="#c6c5fe">scenariosHelpers.js</text>
</g>
<!-- menu/generator.js&#45;&gt;scenariosHelpers.js -->
<g id="edge43" class="edge">
<title>menu/generator.js&#45;&gt;scenariosHelpers.js</title>
<path fill="none" stroke="#757575" d="M566.5017,-405.626C647.4079,-401.7055 784.0056,-395.0862 871.5286,-390.845"/>
<polygon fill="#757575" stroke="#757575" points="871.8686,-394.3327 881.6874,-390.3527 871.5297,-387.3409 871.8686,-394.3327"/>
</g>
<!-- scenariosHelpers.js&#45;&gt;particle.js -->
<g id="edge57" class="edge">
<title>scenariosHelpers.js&#45;&gt;particle.js</title>
<path fill="none" stroke="#757575" d="M1026.0398,-389.5044C1138.2495,-393.6412 1351.8247,-401.5149 1447.7357,-405.0508"/>
<polygon fill="#757575" stroke="#757575" points="1447.6185,-408.5488 1457.7407,-405.4197 1447.8764,-401.5535 1447.6185,-408.5488"/>
</g>
<!-- scenariosHelpers.js&#45;&gt;helpers.js -->
<g id="edge56" class="edge">
<title>scenariosHelpers.js&#45;&gt;helpers.js</title>
<path fill="none" stroke="#757575" d="M968.4408,-398.4857C983.0476,-410.3024 1006.2301,-429.1828 1026,-445.8486 1075.4783,-487.5582 1132.6518,-537.6007 1162.819,-564.1527"/>
<polygon fill="#757575" stroke="#757575" points="1160.7655,-567.0081 1170.5826,-570.9923 1165.3928,-561.7556 1160.7655,-567.0081"/>
</g>
<!-- menu/particle.js&#45;&gt;particle.js -->
<g id="edge50" class="edge">
<title>menu/particle.js&#45;&gt;particle.js</title>
<path fill="none" stroke="#757575" d="M526.5045,-836.487C552.5567,-847.3639 593.7197,-863.061 631,-870.8486 771.9098,-900.2835 810.0487,-894.8486 954,-894.8486 954,-894.8486 954,-894.8486 1184,-894.8486 1408.7688,-894.8486 1479.2303,-523.1627 1493.5252,-428.5511"/>
<polygon fill="#757575" stroke="#757575" points="1497.0214,-428.8298 1494.9966,-418.4302 1490.0942,-427.8226 1497.0214,-428.8298"/>
</g>
<!-- menu/particle.js&#45;&gt;helpers.js -->
<g id="edge49" class="edge">
<title>menu/particle.js&#45;&gt;helpers.js</title>
<path fill="none" stroke="#757575" d="M545.7286,-836.3648C641.5901,-857.8778 867.7917,-894.6614 1026,-808.8486 1110.1149,-763.2243 1159.1998,-651.0683 1176.6776,-604.0897"/>
<polygon fill="#757575" stroke="#757575" points="1179.9976,-605.2005 1180.1022,-594.6062 1173.4137,-602.8229 1179.9976,-605.2005"/>
</g>
<!-- menu/particle.js&#45;&gt;core.js -->
<g id="edge48" class="edge">
<title>menu/particle.js&#45;&gt;core.js</title>
<path fill="none" stroke="#757575" d="M559.3872,-820.1242C571.9634,-817.0733 584.5724,-812.2882 595,-804.8486 674.01,-748.478 717.1334,-633.7771 732.2339,-586.2343"/>
<polygon fill="#757575" stroke="#757575" points="735.6622,-586.9931 735.2563,-576.4061 728.9715,-584.9355 735.6622,-586.9931"/>
</g>
<!-- menu/selection.js&#45;&gt;components/csv.js -->
<g id="edge51" class="edge">
<title>menu/selection.js&#45;&gt;components/csv.js</title>
<path fill="none" stroke="#757575" d="M548.9512,-244.3728C620.685,-258.3192 755.6266,-273.0813 846,-212.8486 876.4342,-192.5646 854.8014,-163.3009 882,-138.8486 886.3687,-134.921 891.3753,-131.5746 896.6694,-128.7258"/>
<polygon fill="#757575" stroke="#757575" points="898.2625,-131.8438 905.7883,-124.3863 895.2546,-125.5229 898.2625,-131.8438"/>
</g>
<!-- menu/selection.js&#45;&gt;helpers.js -->
<g id="edge54" class="edge">
<title>menu/selection.js&#45;&gt;helpers.js</title>
<path fill="none" stroke="#757575" d="M523.7691,-244.5312C582.119,-273.8264 735.6924,-354.6997 846,-446.8486 864.3555,-462.1824 861.4235,-474.656 882,-486.8486 938.5736,-520.3712 963.234,-501.2329 1026,-520.8486 1068.9483,-534.2708 1116.8773,-553.7405 1148.5637,-567.2674"/>
<polygon fill="#757575" stroke="#757575" points="1147.2831,-570.5265 1157.8524,-571.2613 1150.0482,-564.0958 1147.2831,-570.5265"/>
</g>
<!-- menu/selection.js&#45;&gt;core.js -->
<g id="edge53" class="edge">
<title>menu/selection.js&#45;&gt;core.js</title>
<path fill="none" stroke="#757575" d="M508.4883,-244.6646C543.8421,-293.8782 679.6251,-482.8928 724.2185,-544.9682"/>
<polygon fill="#757575" stroke="#757575" points="721.4364,-547.0945 730.1134,-553.1741 727.1216,-543.0104 721.4364,-547.0945"/>
</g>
<!-- menu/selection.js&#45;&gt;components/selectionHelper.js -->
<g id="edge52" class="edge">
<title>menu/selection.js&#45;&gt;components/selectionHelper.js</title>
<path fill="none" stroke="#757575" d="M564.5415,-222.024C593.9194,-217.0969 628.9529,-211.2212 659.8553,-206.0385"/>
<polygon fill="#757575" stroke="#757575" points="660.4476,-209.4881 669.7309,-204.3822 659.2897,-202.5845 660.4476,-209.4881"/>
</g>
</g>
</svg>
