<?xml version="1.0" encoding="UTF-8" standalone="no"?>
<!DOCTYPE svg PUBLIC "-//W3C//DTD SVG 1.1//EN"
 "http://www.w3.org/Graphics/SVG/1.1/DTD/svg11.dtd">
<!-- Generated by graphviz version 2.43.0 (0)
 -->
<!-- Title: G Pages: 1 -->
<svg width="2487pt" height="1488pt"
 viewBox="0.00 0.00 2487.20 1487.97" xmlns="http://www.w3.org/2000/svg" xmlns:xlink="http://www.w3.org/1999/xlink">
<g id="graph0" class="graph" transform="scale(1 1) rotate(0) translate(21.6 1466.37)">
<title>G</title>
<polygon fill="#111111" stroke="transparent" points="-21.6,21.6 -21.6,-1466.37 2465.6,-1466.37 2465.6,21.6 -21.6,21.6"/>
<!-- components/keyboard.js -->
<g id="node1" class="node">
<title>components/keyboard.js</title>
<path fill="none" stroke="#cfffac" d="M662.33,-1128C662.33,-1128 513.67,-1128 513.67,-1128 509.83,-1128 506,-1124.17 506,-1120.33 506,-1120.33 506,-1112.67 506,-1112.67 506,-1108.83 509.83,-1105 513.67,-1105 513.67,-1105 662.33,-1105 662.33,-1105 666.17,-1105 670,-1108.83 670,-1112.67 670,-1112.67 670,-1120.33 670,-1120.33 670,-1124.17 666.17,-1128 662.33,-1128"/>
<text text-anchor="middle" x="588" y="-1112.8" font-family="Arial" font-size="14.00" fill="#cfffac">components/keyboard.js</text>
</g>
<!-- components/mouse.js -->
<g id="node2" class="node">
<title>components/mouse.js</title>
<path fill="none" stroke="#c6c5fe" d="M1452.33,-1398C1452.33,-1398 1318.67,-1398 1318.67,-1398 1314.83,-1398 1311,-1394.17 1311,-1390.33 1311,-1390.33 1311,-1382.67 1311,-1382.67 1311,-1378.83 1314.83,-1375 1318.67,-1375 1318.67,-1375 1452.33,-1375 1452.33,-1375 1456.17,-1375 1460,-1378.83 1460,-1382.67 1460,-1382.67 1460,-1390.33 1460,-1390.33 1460,-1394.17 1456.17,-1398 1452.33,-1398"/>
<text text-anchor="middle" x="1385.5" y="-1382.8" font-family="Arial" font-size="14.00" fill="#c6c5fe">components/mouse.js</text>
</g>
<!-- ../node_modules/three/build/three.cjs -->
<g id="node3" class="node">
<title>../node_modules/three/build/three.cjs</title>
<path fill="none" stroke="#cfffac" d="M2436.33,-1131C2436.33,-1131 2212.67,-1131 2212.67,-1131 2208.83,-1131 2205,-1127.17 2205,-1123.33 2205,-1123.33 2205,-1115.67 2205,-1115.67 2205,-1111.83 2208.83,-1108 2212.67,-1108 2212.67,-1108 2436.33,-1108 2436.33,-1108 2440.17,-1108 2444,-1111.83 2444,-1115.67 2444,-1115.67 2444,-1123.33 2444,-1123.33 2444,-1127.17 2440.17,-1131 2436.33,-1131"/>
<text text-anchor="middle" x="2324.5" y="-1115.8" font-family="Arial" font-size="14.00" fill="#cfffac">../node_modules/three/build/three.cjs</text>
</g>
<!-- components/mouse.js&#45;&gt;../node_modules/three/build/three.cjs -->
<g id="edge1" class="edge">
<title>components/mouse.js&#45;&gt;../node_modules/three/build/three.cjs</title>
<path fill="none" stroke="#757575" d="M1429.62,-1398.06C1554.14,-1428.87 1921.15,-1501.41 2169,-1360.5 2256.15,-1310.95 2301.88,-1189.88 2317.36,-1140.74"/>
<polygon fill="#757575" stroke="#757575" points="2320.72,-1141.73 2320.28,-1131.14 2314.02,-1139.69 2320.72,-1141.73"/>
</g>
<!-- helpers.js -->
<g id="node4" class="node">
<title>helpers.js</title>
<path fill="none" stroke="#c6c5fe" d="M1751.33,-950C1751.33,-950 1692.67,-950 1692.67,-950 1688.83,-950 1685,-946.17 1685,-942.33 1685,-942.33 1685,-934.67 1685,-934.67 1685,-930.83 1688.83,-927 1692.67,-927 1692.67,-927 1751.33,-927 1751.33,-927 1755.17,-927 1759,-930.83 1759,-934.67 1759,-934.67 1759,-942.33 1759,-942.33 1759,-946.17 1755.17,-950 1751.33,-950"/>
<text text-anchor="middle" x="1722" y="-934.8" font-family="Arial" font-size="14.00" fill="#c6c5fe">helpers.js</text>
</g>
<!-- components/mouse.js&#45;&gt;helpers.js -->
<g id="edge2" class="edge">
<title>components/mouse.js&#45;&gt;helpers.js</title>
<path fill="none" stroke="#757575" d="M1395.1,-1374.98C1440.01,-1314.83 1647.64,-1036.76 1705.81,-958.84"/>
<polygon fill="#757575" stroke="#757575" points="1708.97,-960.47 1712.14,-950.36 1703.36,-956.28 1708.97,-960.47"/>
</g>
<!-- helpers.js&#45;&gt;../node_modules/three/build/three.cjs -->
<g id="edge59" class="edge">
<title>helpers.js&#45;&gt;../node_modules/three/build/three.cjs</title>
<path fill="none" stroke="#757575" d="M1759.21,-949.41C1862.57,-980.57 2159.02,-1069.92 2275.59,-1105.06"/>
<polygon fill="#757575" stroke="#757575" points="2274.73,-1108.46 2285.32,-1107.99 2276.75,-1101.75 2274.73,-1108.46"/>
</g>
<!-- particle.js -->
<g id="node8" class="node">
<title>particle.js</title>
<path fill="none" stroke="#c6c5fe" d="M2161.33,-851C2161.33,-851 2102.67,-851 2102.67,-851 2098.83,-851 2095,-847.17 2095,-843.33 2095,-843.33 2095,-835.67 2095,-835.67 2095,-831.83 2098.83,-828 2102.67,-828 2102.67,-828 2161.33,-828 2161.33,-828 2165.17,-828 2169,-831.83 2169,-835.67 2169,-835.67 2169,-843.33 2169,-843.33 2169,-847.17 2165.17,-851 2161.33,-851"/>
<text text-anchor="middle" x="2132" y="-835.8" font-family="Arial" font-size="14.00" fill="#c6c5fe">particle.js</text>
</g>
<!-- helpers.js&#45;&gt;particle.js -->
<g id="edge60" class="edge">
<title>helpers.js&#45;&gt;particle.js</title>
<path fill="none" stroke="#757575" d="M1759.21,-929.71C1833.53,-911.68 2003.2,-870.51 2085.1,-850.64"/>
<polygon fill="#757575" stroke="#757575" points="2085.98,-854.03 2094.87,-848.27 2084.33,-847.22 2085.98,-854.03"/>
</g>
<!-- components/ruler.js -->
<g id="node5" class="node">
<title>components/ruler.js</title>
<path fill="none" stroke="#c6c5fe" d="M880.83,-1157C880.83,-1157 762.17,-1157 762.17,-1157 758.33,-1157 754.5,-1153.17 754.5,-1149.33 754.5,-1149.33 754.5,-1141.67 754.5,-1141.67 754.5,-1137.83 758.33,-1134 762.17,-1134 762.17,-1134 880.83,-1134 880.83,-1134 884.67,-1134 888.5,-1137.83 888.5,-1141.67 888.5,-1141.67 888.5,-1149.33 888.5,-1149.33 888.5,-1153.17 884.67,-1157 880.83,-1157"/>
<text text-anchor="middle" x="821.5" y="-1141.8" font-family="Arial" font-size="14.00" fill="#c6c5fe">components/ruler.js</text>
</g>
<!-- components/ruler.js&#45;&gt;../node_modules/three/build/three.cjs -->
<g id="edge3" class="edge">
<title>components/ruler.js&#45;&gt;../node_modules/three/build/three.cjs</title>
<path fill="none" stroke="#757575" d="M852.17,-1157.09C927.42,-1185.78 1132.41,-1259.59 1311,-1284.5 1424.78,-1300.37 1675.98,-1306.87 1948,-1272.5 2048.01,-1259.86 2076.36,-1261.23 2169,-1221.5 2220.13,-1199.57 2272.75,-1160.66 2301.47,-1137.76"/>
<polygon fill="#757575" stroke="#757575" points="2304.01,-1140.21 2309.59,-1131.21 2299.61,-1134.77 2304.01,-1140.21"/>
</g>
<!-- components/ruler.js&#45;&gt;helpers.js -->
<g id="edge5" class="edge">
<title>components/ruler.js&#45;&gt;helpers.js</title>
<path fill="none" stroke="#757575" d="M888.79,-1150.37C1007.5,-1156.69 1262.42,-1159.37 1460,-1085.5 1552.51,-1050.91 1651.41,-986.74 1696.3,-955.92"/>
<polygon fill="#757575" stroke="#757575" points="1698.56,-958.61 1704.79,-950.04 1694.57,-952.85 1698.56,-958.61"/>
</g>
<!-- core.js -->
<g id="node6" class="node">
<title>core.js</title>
<path fill="none" stroke="#c6c5fe" d="M1144.33,-698C1144.33,-698 1103.67,-698 1103.67,-698 1099.83,-698 1096,-694.17 1096,-690.33 1096,-690.33 1096,-682.67 1096,-682.67 1096,-678.83 1099.83,-675 1103.67,-675 1103.67,-675 1144.33,-675 1144.33,-675 1148.17,-675 1152,-678.83 1152,-682.67 1152,-682.67 1152,-690.33 1152,-690.33 1152,-694.17 1148.17,-698 1144.33,-698"/>
<text text-anchor="middle" x="1124" y="-682.8" font-family="Arial" font-size="14.00" fill="#c6c5fe">core.js</text>
</g>
<!-- components/ruler.js&#45;&gt;core.js -->
<g id="edge4" class="edge">
<title>components/ruler.js&#45;&gt;core.js</title>
<path fill="none" stroke="#757575" d="M834.72,-1133.95C857.05,-1112.41 905.08,-1063.96 937,-1016.5 957.19,-986.48 955.87,-975.36 973,-943.5 1021.21,-853.81 1084.1,-749.89 1110.49,-706.81"/>
<polygon fill="#757575" stroke="#757575" points="1113.58,-708.47 1115.83,-698.12 1107.61,-704.81 1113.58,-708.47"/>
</g>
<!-- core.js&#45;&gt;../node_modules/three/build/three.cjs -->
<g id="edge11" class="edge">
<title>core.js&#45;&gt;../node_modules/three/build/three.cjs</title>
<path fill="none" stroke="#757575" d="M1136.8,-674.72C1165.13,-645.74 1237.44,-567.58 1275,-488.5 1304.05,-427.35 1265.81,-390.9 1311,-340.5 1369.38,-275.39 1409.87,-288.62 1496,-273.5 1693.86,-238.77 1753.59,-222.89 1948,-273.5 2065.35,-304.05 2107.46,-329.01 2169,-433.5 2305.95,-666.02 2321.59,-1008.45 2323.3,-1097.63"/>
<polygon fill="#757575" stroke="#757575" points="2319.81,-1097.71 2323.46,-1107.65 2326.8,-1097.6 2319.81,-1097.71"/>
</g>
<!-- core.js&#45;&gt;helpers.js -->
<g id="edge16" class="edge">
<title>core.js&#45;&gt;helpers.js</title>
<path fill="none" stroke="#757575" d="M1152.16,-687.34C1183.35,-689.27 1235.32,-695.52 1275,-715.5 1294.39,-725.26 1292.94,-736.46 1311,-748.5 1377.22,-792.64 1596.01,-886.16 1683.94,-923.06"/>
<polygon fill="#757575" stroke="#757575" points="1682.68,-926.33 1693.26,-926.97 1685.39,-919.88 1682.68,-926.33"/>
</g>
<!-- core.js&#45;&gt;particle.js -->
<g id="edge17" class="edge">
<title>core.js&#45;&gt;particle.js</title>
<path fill="none" stroke="#757575" d="M1152.1,-674.99C1187.75,-660.53 1252.75,-636.52 1311,-627.5 1376.44,-617.37 1394.48,-617.91 1460,-627.5 1711.56,-664.32 1997.54,-781.37 2095.74,-823.88"/>
<polygon fill="#757575" stroke="#757575" points="2094.62,-827.21 2105.19,-827.99 2097.41,-820.79 2094.62,-827.21"/>
</g>
<!-- physics.js -->
<g id="node9" class="node">
<title>physics.js</title>
<path fill="none" stroke="#c6c5fe" d="M2051.33,-623C2051.33,-623 1991.67,-623 1991.67,-623 1987.83,-623 1984,-619.17 1984,-615.33 1984,-615.33 1984,-607.67 1984,-607.67 1984,-603.83 1987.83,-600 1991.67,-600 1991.67,-600 2051.33,-600 2051.33,-600 2055.17,-600 2059,-603.83 2059,-607.67 2059,-607.67 2059,-615.33 2059,-615.33 2059,-619.17 2055.17,-623 2051.33,-623"/>
<text text-anchor="middle" x="2021.5" y="-607.8" font-family="Arial" font-size="14.00" fill="#c6c5fe">physics.js</text>
</g>
<!-- core.js&#45;&gt;physics.js -->
<g id="edge18" class="edge">
<title>core.js&#45;&gt;physics.js</title>
<path fill="none" stroke="#757575" d="M1136.18,-674.69C1163.11,-647.23 1234.94,-579.6 1311,-555.5 1361.85,-539.39 1789.13,-575.39 1948,-597.5 1956.4,-598.67 1965.29,-600.17 1973.87,-601.75"/>
<polygon fill="#757575" stroke="#757575" points="1973.26,-605.2 1983.74,-603.63 1974.57,-598.32 1973.26,-605.2"/>
</g>
<!-- gpu/field.js -->
<g id="node10" class="node">
<title>gpu/field.js</title>
<path fill="none" stroke="#c6c5fe" d="M1418.33,-739C1418.33,-739 1352.67,-739 1352.67,-739 1348.83,-739 1345,-735.17 1345,-731.33 1345,-731.33 1345,-723.67 1345,-723.67 1345,-719.83 1348.83,-716 1352.67,-716 1352.67,-716 1418.33,-716 1418.33,-716 1422.17,-716 1426,-719.83 1426,-723.67 1426,-723.67 1426,-731.33 1426,-731.33 1426,-735.17 1422.17,-739 1418.33,-739"/>
<text text-anchor="middle" x="1385.5" y="-723.8" font-family="Arial" font-size="14.00" fill="#c6c5fe">gpu/field.js</text>
</g>
<!-- core.js&#45;&gt;gpu/field.js -->
<g id="edge12" class="edge">
<title>core.js&#45;&gt;gpu/field.js</title>
<path fill="none" stroke="#757575" d="M1152.28,-690.81C1195.56,-697.65 1280.59,-711.08 1334.87,-719.66"/>
<polygon fill="#757575" stroke="#757575" points="1334.54,-723.15 1344.97,-721.25 1335.64,-716.24 1334.54,-723.15"/>
</g>
<!-- gpu/graphics.js -->
<g id="node11" class="node">
<title>gpu/graphics.js</title>
<path fill="none" stroke="#c6c5fe" d="M1431.33,-445C1431.33,-445 1339.67,-445 1339.67,-445 1335.83,-445 1332,-441.17 1332,-437.33 1332,-437.33 1332,-429.67 1332,-429.67 1332,-425.83 1335.83,-422 1339.67,-422 1339.67,-422 1431.33,-422 1431.33,-422 1435.17,-422 1439,-425.83 1439,-429.67 1439,-429.67 1439,-437.33 1439,-437.33 1439,-441.17 1435.17,-445 1431.33,-445"/>
<text text-anchor="middle" x="1385.5" y="-429.8" font-family="Arial" font-size="14.00" fill="#c6c5fe">gpu/graphics.js</text>
</g>
<!-- core.js&#45;&gt;gpu/graphics.js -->
<g id="edge13" class="edge">
<title>core.js&#45;&gt;gpu/graphics.js</title>
<path fill="none" stroke="#757575" d="M1136.82,-674.97C1177.86,-634.96 1314.38,-501.86 1365.21,-452.31"/>
<polygon fill="#757575" stroke="#757575" points="1367.89,-454.58 1372.61,-445.1 1363,-449.57 1367.89,-454.58"/>
</g>
<!-- gpu/shaders/computeShader.glsl.js -->
<g id="node12" class="node">
<title>gpu/shaders/computeShader.glsl.js</title>
<path fill="none" stroke="#c6c5fe" d="M1827.83,-343C1827.83,-343 1616.17,-343 1616.17,-343 1612.33,-343 1608.5,-339.17 1608.5,-335.33 1608.5,-335.33 1608.5,-327.67 1608.5,-327.67 1608.5,-323.83 1612.33,-320 1616.17,-320 1616.17,-320 1827.83,-320 1827.83,-320 1831.67,-320 1835.5,-323.83 1835.5,-327.67 1835.5,-327.67 1835.5,-335.33 1835.5,-335.33 1835.5,-339.17 1831.67,-343 1827.83,-343"/>
<text text-anchor="middle" x="1722" y="-327.8" font-family="Arial" font-size="14.00" fill="#c6c5fe">gpu/shaders/computeShader.glsl.js</text>
</g>
<!-- core.js&#45;&gt;gpu/shaders/computeShader.glsl.js -->
<g id="edge14" class="edge">
<title>core.js&#45;&gt;gpu/shaders/computeShader.glsl.js</title>
<path fill="none" stroke="#757575" d="M1134.88,-674.71C1160.04,-644.37 1227.89,-560.65 1275,-484.5 1293.61,-454.41 1284.17,-436.56 1311,-413.5 1389.71,-345.84 1508.41,-328.18 1597.86,-325.78"/>
<polygon fill="#757575" stroke="#757575" points="1598.15,-329.27 1608.07,-325.56 1598,-322.27 1598.15,-329.27"/>
</g>
<!-- gpu/simulation.js -->
<g id="node13" class="node">
<title>gpu/simulation.js</title>
<path fill="none" stroke="#c6c5fe" d="M1436.83,-659C1436.83,-659 1334.17,-659 1334.17,-659 1330.33,-659 1326.5,-655.17 1326.5,-651.33 1326.5,-651.33 1326.5,-643.67 1326.5,-643.67 1326.5,-639.83 1330.33,-636 1334.17,-636 1334.17,-636 1436.83,-636 1436.83,-636 1440.67,-636 1444.5,-639.83 1444.5,-643.67 1444.5,-643.67 1444.5,-651.33 1444.5,-651.33 1444.5,-655.17 1440.67,-659 1436.83,-659"/>
<text text-anchor="middle" x="1385.5" y="-643.8" font-family="Arial" font-size="14.00" fill="#c6c5fe">gpu/simulation.js</text>
</g>
<!-- core.js&#45;&gt;gpu/simulation.js -->
<g id="edge15" class="edge">
<title>core.js&#45;&gt;gpu/simulation.js</title>
<path fill="none" stroke="#757575" d="M1152.28,-682.4C1190.85,-676.6 1262.59,-665.82 1316.16,-657.77"/>
<polygon fill="#757575" stroke="#757575" points="1316.91,-661.2 1326.28,-656.25 1315.87,-654.27 1316.91,-661.2"/>
</g>
<!-- scenarios.js -->
<g id="node14" class="node">
<title>scenarios.js</title>
<path fill="none" stroke="#cfffac" d="M1421.83,-267C1421.83,-267 1349.17,-267 1349.17,-267 1345.33,-267 1341.5,-263.17 1341.5,-259.33 1341.5,-259.33 1341.5,-251.67 1341.5,-251.67 1341.5,-247.83 1345.33,-244 1349.17,-244 1349.17,-244 1421.83,-244 1421.83,-244 1425.67,-244 1429.5,-247.83 1429.5,-251.67 1429.5,-251.67 1429.5,-259.33 1429.5,-259.33 1429.5,-263.17 1425.67,-267 1421.83,-267"/>
<text text-anchor="middle" x="1385.5" y="-251.8" font-family="Arial" font-size="14.00" fill="#cfffac">scenarios.js</text>
</g>
<!-- core.js&#45;&gt;scenarios.js -->
<g id="edge19" class="edge">
<title>core.js&#45;&gt;scenarios.js</title>
<path fill="none" stroke="#757575" d="M1137.11,-674.58C1166.14,-645.23 1239.89,-565.92 1275,-484.5 1311.28,-400.36 1251.75,-351.4 1311,-281.5 1316.6,-274.9 1323.99,-269.97 1331.93,-266.29"/>
<polygon fill="#757575" stroke="#757575" points="1333.41,-269.47 1341.42,-262.53 1330.83,-262.96 1333.41,-269.47"/>
</g>
<!-- components/selection.js -->
<g id="node7" class="node">
<title>components/selection.js</title>
<path fill="none" stroke="#c6c5fe" d="M894.33,-1007C894.33,-1007 748.67,-1007 748.67,-1007 744.83,-1007 741,-1003.17 741,-999.33 741,-999.33 741,-991.67 741,-991.67 741,-987.83 744.83,-984 748.67,-984 748.67,-984 894.33,-984 894.33,-984 898.17,-984 902,-987.83 902,-991.67 902,-991.67 902,-999.33 902,-999.33 902,-1003.17 898.17,-1007 894.33,-1007"/>
<text text-anchor="middle" x="821.5" y="-991.8" font-family="Arial" font-size="14.00" fill="#c6c5fe">components/selection.js</text>
</g>
<!-- components/selection.js&#45;&gt;../node_modules/three/build/three.cjs -->
<g id="edge6" class="edge">
<title>components/selection.js&#45;&gt;../node_modules/three/build/three.cjs</title>
<path fill="none" stroke="#757575" d="M853.41,-1007.05C883.48,-1017.73 930.7,-1033.04 973,-1040.5 1416.22,-1118.63 1952.59,-1124.06 2194.33,-1121.85"/>
<polygon fill="#757575" stroke="#757575" points="2194.59,-1125.35 2204.56,-1121.75 2194.53,-1118.35 2194.59,-1125.35"/>
</g>
<!-- components/selection.js&#45;&gt;helpers.js -->
<g id="edge8" class="edge">
<title>components/selection.js&#45;&gt;helpers.js</title>
<path fill="none" stroke="#757575" d="M902.24,-990.44C1084.92,-978.85 1529.16,-950.67 1674.29,-941.46"/>
<polygon fill="#757575" stroke="#757575" points="1674.85,-944.93 1684.61,-940.81 1674.41,-937.95 1674.85,-944.93"/>
</g>
<!-- components/selection.js&#45;&gt;core.js -->
<g id="edge7" class="edge">
<title>components/selection.js&#45;&gt;core.js</title>
<path fill="none" stroke="#757575" d="M861.69,-984C885.84,-975.28 916.07,-961.21 937,-940.5 962.71,-915.05 953.32,-897.86 973,-867.5 1014.34,-803.73 1074.91,-736.96 1104.85,-705.3"/>
<polygon fill="#757575" stroke="#757575" points="1107.42,-707.68 1111.78,-698.03 1102.35,-702.86 1107.42,-707.68"/>
</g>
<!-- components/selection.js&#45;&gt;particle.js -->
<g id="edge9" class="edge">
<title>components/selection.js&#45;&gt;particle.js</title>
<path fill="none" stroke="#757575" d="M897.33,-1007.01C1081.52,-1032.41 1569.42,-1081.8 1948,-959.5 2014.04,-938.16 2079.01,-886.18 2110.82,-858.14"/>
<polygon fill="#757575" stroke="#757575" points="2113.41,-860.52 2118.52,-851.24 2108.74,-855.3 2113.41,-860.52"/>
</g>
<!-- components/selection.js&#45;&gt;physics.js -->
<g id="edge10" class="edge">
<title>components/selection.js&#45;&gt;physics.js</title>
<path fill="none" stroke="#757575" d="M849.48,-983.97C873.08,-973.56 908.01,-957.32 937,-940.5 1094.82,-848.94 1158.15,-847.63 1275,-707.5 1299.97,-677.56 1278.5,-649.04 1311,-627.5 1365.91,-591.11 1824.25,-604.36 1973.63,-609.7"/>
<polygon fill="#757575" stroke="#757575" points="1973.72,-613.21 1983.85,-610.07 1973.98,-606.21 1973.72,-613.21"/>
</g>
<!-- particle.js&#45;&gt;../node_modules/three/build/three.cjs -->
<g id="edge66" class="edge">
<title>particle.js&#45;&gt;../node_modules/three/build/three.cjs</title>
<path fill="none" stroke="#757575" d="M2140.94,-851.17C2170.23,-894.22 2272.41,-1044.41 2309.73,-1099.25"/>
<polygon fill="#757575" stroke="#757575" points="2307,-1101.48 2315.52,-1107.78 2312.79,-1097.54 2307,-1101.48"/>
</g>
<!-- physics.js&#45;&gt;../node_modules/three/build/three.cjs -->
<g id="edge67" class="edge">
<title>physics.js&#45;&gt;../node_modules/three/build/three.cjs</title>
<path fill="none" stroke="#757575" d="M2038.69,-623.06C2068.16,-644.81 2131.02,-694.62 2169,-749.5 2251.42,-868.59 2301.92,-1038.49 2317.94,-1097.95"/>
<polygon fill="#757575" stroke="#757575" points="2314.59,-1098.97 2320.54,-1107.74 2321.36,-1097.17 2314.59,-1098.97"/>
</g>
<!-- physics.js&#45;&gt;particle.js -->
<g id="edge68" class="edge">
<title>physics.js&#45;&gt;particle.js</title>
<path fill="none" stroke="#757575" d="M2028.03,-623.12C2045.37,-659.56 2098.84,-771.93 2121.11,-818.72"/>
<polygon fill="#757575" stroke="#757575" points="2118.02,-820.38 2125.48,-827.9 2124.34,-817.37 2118.02,-820.38"/>
</g>
<!-- gpu/field.js&#45;&gt;../node_modules/three/build/three.cjs -->
<g id="edge20" class="edge">
<title>gpu/field.js&#45;&gt;../node_modules/three/build/three.cjs</title>
<path fill="none" stroke="#757575" d="M1426.18,-727.08C1568.32,-726.32 2049.82,-730.48 2169,-819.5 2265.81,-891.81 2306.91,-1042.33 2319.23,-1098.11"/>
<polygon fill="#757575" stroke="#757575" points="2315.82,-1098.89 2321.32,-1107.95 2322.67,-1097.44 2315.82,-1098.89"/>
</g>
<!-- gpu/field.js&#45;&gt;helpers.js -->
<g id="edge21" class="edge">
<title>gpu/field.js&#45;&gt;helpers.js</title>
<path fill="none" stroke="#757575" d="M1426.16,-735.93C1437.96,-739.84 1450.31,-745.46 1460,-753.5 1484.53,-773.84 1473.18,-793.26 1496,-815.5 1549.39,-867.53 1629.21,-904.12 1678.04,-923.21"/>
<polygon fill="#757575" stroke="#757575" points="1677.08,-926.59 1687.67,-926.91 1679.58,-920.06 1677.08,-926.59"/>
</g>
<!-- gpu/field.js&#45;&gt;particle.js -->
<g id="edge22" class="edge">
<title>gpu/field.js&#45;&gt;particle.js</title>
<path fill="none" stroke="#757575" d="M1426.36,-732.83C1437.66,-735.36 1449.69,-739.07 1460,-744.5 1479.21,-754.61 1476.12,-768.78 1496,-777.5 1610.98,-827.95 1934.64,-808.16 2059,-825.5 2067.43,-826.68 2076.37,-828.19 2084.97,-829.79"/>
<polygon fill="#757575" stroke="#757575" points="2084.39,-833.24 2094.87,-831.69 2085.71,-826.37 2084.39,-833.24"/>
</g>
<!-- gpu/graphics.js&#45;&gt;../node_modules/three/build/three.cjs -->
<g id="edge23" class="edge">
<title>gpu/graphics.js&#45;&gt;../node_modules/three/build/three.cjs</title>
<path fill="none" stroke="#757575" d="M1392.46,-421.87C1406.42,-396.11 1444.02,-334.69 1496,-311.5 1587.73,-270.57 1860.13,-262.84 1948,-311.5 2255.78,-481.93 2313.06,-987.29 2322.01,-1097.94"/>
<polygon fill="#757575" stroke="#757575" points="2318.52,-1098.2 2322.77,-1107.91 2325.5,-1097.67 2318.52,-1098.2"/>
</g>
<!-- gpu/graphics.js&#45;&gt;helpers.js -->
<g id="edge30" class="edge">
<title>gpu/graphics.js&#45;&gt;helpers.js</title>
<path fill="none" stroke="#757575" d="M1394.44,-445.49C1438.4,-511.85 1652.02,-834.35 1707.7,-918.43"/>
<polygon fill="#757575" stroke="#757575" points="1704.84,-920.44 1713.28,-926.85 1710.68,-916.58 1704.84,-920.44"/>
</g>
<!-- gpu/graphics.js&#45;&gt;particle.js -->
<g id="edge31" class="edge">
<title>gpu/graphics.js&#45;&gt;particle.js</title>
<path fill="none" stroke="#757575" d="M1397.28,-445.19C1415.51,-464.07 1454.52,-500.75 1496,-516.5 1613.99,-561.31 1972.62,-499.47 2059,-591.5 2120.07,-656.57 2129.7,-770.38 2130.96,-817.8"/>
<polygon fill="#757575" stroke="#757575" points="2127.46,-817.92 2131.13,-827.86 2134.46,-817.81 2127.46,-817.92"/>
</g>
<!-- gpu/graphics.js&#45;&gt;gpu/shaders/computeShader.glsl.js -->
<g id="edge28" class="edge">
<title>gpu/graphics.js&#45;&gt;gpu/shaders/computeShader.glsl.js</title>
<path fill="none" stroke="#757575" d="M1407.56,-421.92C1422.7,-413.23 1443.3,-400.6 1460,-387.5 1477.56,-373.73 1475.74,-361.85 1496,-352.5 1527.45,-337.99 1563.97,-330.99 1598.32,-328.05"/>
<polygon fill="#757575" stroke="#757575" points="1598.71,-331.53 1608.42,-327.29 1598.19,-324.55 1598.71,-331.53"/>
</g>
<!-- ../node_modules/three/examples/jsm/controls/OrbitControls.js -->
<g id="node15" class="node">
<title>../node_modules/three/examples/jsm/controls/OrbitControls.js</title>
<path fill="none" stroke="#cfffac" d="M1908.33,-187C1908.33,-187 1535.67,-187 1535.67,-187 1531.83,-187 1528,-183.17 1528,-179.33 1528,-179.33 1528,-171.67 1528,-171.67 1528,-167.83 1531.83,-164 1535.67,-164 1535.67,-164 1908.33,-164 1908.33,-164 1912.17,-164 1916,-167.83 1916,-171.67 1916,-171.67 1916,-179.33 1916,-179.33 1916,-183.17 1912.17,-187 1908.33,-187"/>
<text text-anchor="middle" x="1722" y="-171.8" font-family="Arial" font-size="14.00" fill="#cfffac">../node_modules/three/examples/jsm/controls/OrbitControls.js</text>
</g>
<!-- gpu/graphics.js&#45;&gt;../node_modules/three/examples/jsm/controls/OrbitControls.js -->
<g id="edge24" class="edge">
<title>gpu/graphics.js&#45;&gt;../node_modules/three/examples/jsm/controls/OrbitControls.js</title>
<path fill="none" stroke="#757575" d="M1391.99,-421.72C1405.73,-393.34 1444.29,-320.37 1496,-277.5 1547.89,-234.48 1620.88,-205.83 1669.5,-190.13"/>
<polygon fill="#757575" stroke="#757575" points="1670.7,-193.42 1679.18,-187.07 1668.59,-186.75 1670.7,-193.42"/>
</g>
<!-- ../node_modules/three/examples/jsm/geometries/TextGeometry.js -->
<g id="node16" class="node">
<title>../node_modules/three/examples/jsm/geometries/TextGeometry.js</title>
<path fill="none" stroke="#cfffac" d="M1920.83,-384C1920.83,-384 1523.17,-384 1523.17,-384 1519.33,-384 1515.5,-380.17 1515.5,-376.33 1515.5,-376.33 1515.5,-368.67 1515.5,-368.67 1515.5,-364.83 1519.33,-361 1523.17,-361 1523.17,-361 1920.83,-361 1920.83,-361 1924.67,-361 1928.5,-364.83 1928.5,-368.67 1928.5,-368.67 1928.5,-376.33 1928.5,-376.33 1928.5,-380.17 1924.67,-384 1920.83,-384"/>
<text text-anchor="middle" x="1722" y="-368.8" font-family="Arial" font-size="14.00" fill="#cfffac">../node_modules/three/examples/jsm/geometries/TextGeometry.js</text>
</g>
<!-- gpu/graphics.js&#45;&gt;../node_modules/three/examples/jsm/geometries/TextGeometry.js -->
<g id="edge25" class="edge">
<title>gpu/graphics.js&#45;&gt;../node_modules/three/examples/jsm/geometries/TextGeometry.js</title>
<path fill="none" stroke="#757575" d="M1412.48,-421.85C1434.31,-412.59 1466.58,-400.13 1496,-393.5 1509.76,-390.4 1524.09,-387.76 1538.57,-385.5"/>
<polygon fill="#757575" stroke="#757575" points="1539.23,-388.94 1548.6,-384 1538.2,-382.02 1539.23,-388.94"/>
</g>
<!-- ../node_modules/three/examples/jsm/loaders/FontLoader.js -->
<g id="node17" class="node">
<title>../node_modules/three/examples/jsm/loaders/FontLoader.js</title>
<path fill="none" stroke="#cfffac" d="M1900.83,-507C1900.83,-507 1543.17,-507 1543.17,-507 1539.33,-507 1535.5,-503.17 1535.5,-499.33 1535.5,-499.33 1535.5,-491.67 1535.5,-491.67 1535.5,-487.83 1539.33,-484 1543.17,-484 1543.17,-484 1900.83,-484 1900.83,-484 1904.67,-484 1908.5,-487.83 1908.5,-491.67 1908.5,-491.67 1908.5,-499.33 1908.5,-499.33 1908.5,-503.17 1904.67,-507 1900.83,-507"/>
<text text-anchor="middle" x="1722" y="-491.8" font-family="Arial" font-size="14.00" fill="#cfffac">../node_modules/three/examples/jsm/loaders/FontLoader.js</text>
</g>
<!-- gpu/graphics.js&#45;&gt;../node_modules/three/examples/jsm/loaders/FontLoader.js -->
<g id="edge26" class="edge">
<title>gpu/graphics.js&#45;&gt;../node_modules/three/examples/jsm/loaders/FontLoader.js</title>
<path fill="none" stroke="#757575" d="M1410.67,-445.01C1432.47,-454.85 1465.65,-468.48 1496,-475.5 1507.27,-478.11 1518.93,-480.38 1530.73,-482.36"/>
<polygon fill="#757575" stroke="#757575" points="1530.26,-485.83 1540.68,-483.96 1531.36,-478.92 1530.26,-485.83"/>
</g>
<!-- ../node_modules/three/examples/jsm/misc/GPUComputationRenderer.js -->
<g id="node18" class="node">
<title>../node_modules/three/examples/jsm/misc/GPUComputationRenderer.js</title>
<path fill="none" stroke="#cfffac" d="M1940.33,-466C1940.33,-466 1503.67,-466 1503.67,-466 1499.83,-466 1496,-462.17 1496,-458.33 1496,-458.33 1496,-450.67 1496,-450.67 1496,-446.83 1499.83,-443 1503.67,-443 1503.67,-443 1940.33,-443 1940.33,-443 1944.17,-443 1948,-446.83 1948,-450.67 1948,-450.67 1948,-458.33 1948,-458.33 1948,-462.17 1944.17,-466 1940.33,-466"/>
<text text-anchor="middle" x="1722" y="-450.8" font-family="Arial" font-size="14.00" fill="#cfffac">../node_modules/three/examples/jsm/misc/GPUComputationRenderer.js</text>
</g>
<!-- gpu/graphics.js&#45;&gt;../node_modules/three/examples/jsm/misc/GPUComputationRenderer.js -->
<g id="edge27" class="edge">
<title>gpu/graphics.js&#45;&gt;../node_modules/three/examples/jsm/misc/GPUComputationRenderer.js</title>
<path fill="none" stroke="#757575" d="M1439.13,-436.8C1463.81,-438.35 1494.9,-440.31 1527.35,-442.34"/>
<polygon fill="#757575" stroke="#757575" points="1527.26,-445.84 1537.46,-442.98 1527.7,-438.86 1527.26,-445.84"/>
</g>
<!-- gpu/shaders/particleShader.glsl.js -->
<g id="node19" class="node">
<title>gpu/shaders/particleShader.glsl.js</title>
<path fill="none" stroke="#cfffac" d="M1823.33,-425C1823.33,-425 1620.67,-425 1620.67,-425 1616.83,-425 1613,-421.17 1613,-417.33 1613,-417.33 1613,-409.67 1613,-409.67 1613,-405.83 1616.83,-402 1620.67,-402 1620.67,-402 1823.33,-402 1823.33,-402 1827.17,-402 1831,-405.83 1831,-409.67 1831,-409.67 1831,-417.33 1831,-417.33 1831,-421.17 1827.17,-425 1823.33,-425"/>
<text text-anchor="middle" x="1722" y="-409.8" font-family="Arial" font-size="14.00" fill="#cfffac">gpu/shaders/particleShader.glsl.js</text>
</g>
<!-- gpu/graphics.js&#45;&gt;gpu/shaders/particleShader.glsl.js -->
<g id="edge29" class="edge">
<title>gpu/graphics.js&#45;&gt;gpu/shaders/particleShader.glsl.js</title>
<path fill="none" stroke="#757575" d="M1439.13,-430.35C1482.96,-427.73 1547.01,-423.9 1602.99,-420.56"/>
<polygon fill="#757575" stroke="#757575" points="1603.2,-424.05 1612.98,-419.96 1602.79,-417.06 1603.2,-424.05"/>
</g>
<!-- gpu/shaders/computeShader.glsl.js&#45;&gt;physics.js -->
<g id="edge32" class="edge">
<title>gpu/shaders/computeShader.glsl.js&#45;&gt;physics.js</title>
<path fill="none" stroke="#757575" d="M1783.05,-319.98C1832.87,-314.06 1902.67,-314.67 1948,-352.5 1985.05,-383.42 2009.54,-533.29 2017.59,-589.84"/>
<polygon fill="#757575" stroke="#757575" points="2014.14,-590.42 2018.98,-599.84 2021.07,-589.46 2014.14,-590.42"/>
</g>
<!-- gpu/simulation.js&#45;&gt;helpers.js -->
<g id="edge33" class="edge">
<title>gpu/simulation.js&#45;&gt;helpers.js</title>
<path fill="none" stroke="#757575" d="M1401.01,-659.05C1415.95,-671 1439.81,-690.3 1460,-707.5 1476.3,-721.38 1479.98,-725.3 1496,-739.5 1571.04,-806.04 1660.32,-884.91 1700.09,-920.04"/>
<polygon fill="#757575" stroke="#757575" points="1697.99,-922.85 1707.8,-926.85 1702.62,-917.6 1697.99,-922.85"/>
</g>
<!-- gpu/simulation.js&#45;&gt;physics.js -->
<g id="edge34" class="edge">
<title>gpu/simulation.js&#45;&gt;physics.js</title>
<path fill="none" stroke="#757575" d="M1444.52,-648.12C1546.65,-648.56 1765.08,-646.62 1948,-625.5 1956.42,-624.53 1965.33,-623.12 1973.91,-621.58"/>
<polygon fill="#757575" stroke="#757575" points="1974.61,-625.01 1983.78,-619.71 1973.31,-618.13 1974.61,-625.01"/>
</g>
<!-- gui/advanced.js -->
<g id="node20" class="node">
<title>gui/advanced.js</title>
<path fill="none" stroke="#c6c5fe" d="M868.83,-931C868.83,-931 774.17,-931 774.17,-931 770.33,-931 766.5,-927.17 766.5,-923.33 766.5,-923.33 766.5,-915.67 766.5,-915.67 766.5,-911.83 770.33,-908 774.17,-908 774.17,-908 868.83,-908 868.83,-908 872.67,-908 876.5,-911.83 876.5,-915.67 876.5,-915.67 876.5,-923.33 876.5,-923.33 876.5,-927.17 872.67,-931 868.83,-931"/>
<text text-anchor="middle" x="821.5" y="-915.8" font-family="Arial" font-size="14.00" fill="#c6c5fe">gui/advanced.js</text>
</g>
<!-- gui/advanced.js&#45;&gt;helpers.js -->
<g id="edge36" class="edge">
<title>gui/advanced.js&#45;&gt;helpers.js</title>
<path fill="none" stroke="#757575" d="M876.71,-921.34C966.84,-924.35 1153.22,-930.28 1311,-933.5 1442.87,-936.19 1598.63,-937.61 1674.62,-938.18"/>
<polygon fill="#757575" stroke="#757575" points="1674.77,-941.68 1684.8,-938.26 1674.83,-934.68 1674.77,-941.68"/>
</g>
<!-- gui/advanced.js&#45;&gt;core.js -->
<g id="edge35" class="edge">
<title>gui/advanced.js&#45;&gt;core.js</title>
<path fill="none" stroke="#757575" d="M876.61,-917.58C896.6,-914.98 918.8,-909.75 937,-899.5 959.09,-887.06 1066.62,-756.03 1107.33,-705.88"/>
<polygon fill="#757575" stroke="#757575" points="1110.12,-708 1113.7,-698.03 1104.68,-703.59 1110.12,-708"/>
</g>
<!-- gui/controls.js -->
<g id="node21" class="node">
<title>gui/controls.js</title>
<path fill="none" stroke="#c6c5fe" d="M863.33,-696C863.33,-696 779.67,-696 779.67,-696 775.83,-696 772,-692.17 772,-688.33 772,-688.33 772,-680.67 772,-680.67 772,-676.83 775.83,-673 779.67,-673 779.67,-673 863.33,-673 863.33,-673 867.17,-673 871,-676.83 871,-680.67 871,-680.67 871,-688.33 871,-688.33 871,-692.17 867.17,-696 863.33,-696"/>
<text text-anchor="middle" x="821.5" y="-680.8" font-family="Arial" font-size="14.00" fill="#c6c5fe">gui/controls.js</text>
</g>
<!-- gui/controls.js&#45;&gt;helpers.js -->
<g id="edge38" class="edge">
<title>gui/controls.js&#45;&gt;helpers.js</title>
<path fill="none" stroke="#757575" d="M850.64,-696C880.76,-708.2 930.02,-727.84 973,-743.5 1121.95,-797.78 1157.8,-816.72 1311,-857.5 1441.25,-892.17 1598.35,-919.18 1674.76,-931.38"/>
<polygon fill="#757575" stroke="#757575" points="1674.57,-934.9 1684.99,-933.01 1675.67,-927.98 1674.57,-934.9"/>
</g>
<!-- gui/controls.js&#45;&gt;core.js -->
<g id="edge37" class="edge">
<title>gui/controls.js&#45;&gt;core.js</title>
<path fill="none" stroke="#757575" d="M871.11,-684.82C931.07,-685.22 1031.67,-685.89 1085.82,-686.25"/>
<polygon fill="#757575" stroke="#757575" points="1085.98,-689.75 1096,-686.32 1086.02,-682.75 1085.98,-689.75"/>
</g>
<!-- gui/controls.js&#45;&gt;scenarios.js -->
<g id="edge39" class="edge">
<title>gui/controls.js&#45;&gt;scenarios.js</title>
<path fill="none" stroke="#757575" d="M871.17,-682.67C892.37,-680.23 916.92,-675.09 937,-664.5 1147.47,-553.56 1110.52,-409.62 1311,-281.5 1317.35,-277.44 1324.42,-273.92 1331.59,-270.89"/>
<polygon fill="#757575" stroke="#757575" points="1333.33,-273.96 1341.37,-267.06 1330.78,-267.45 1333.33,-273.96"/>
</g>
<!-- gui/dat.gui.js -->
<g id="node22" class="node">
<title>gui/dat.gui.js</title>
<path fill="none" stroke="#cfffac" d="M626.33,-1210C626.33,-1210 549.67,-1210 549.67,-1210 545.83,-1210 542,-1206.17 542,-1202.33 542,-1202.33 542,-1194.67 542,-1194.67 542,-1190.83 545.83,-1187 549.67,-1187 549.67,-1187 626.33,-1187 626.33,-1187 630.17,-1187 634,-1190.83 634,-1194.67 634,-1194.67 634,-1202.33 634,-1202.33 634,-1206.17 630.17,-1210 626.33,-1210"/>
<text text-anchor="middle" x="588" y="-1194.8" font-family="Arial" font-size="14.00" fill="#cfffac">gui/dat.gui.js</text>
</g>
<!-- gui/field.js -->
<g id="node23" class="node">
<title>gui/field.js</title>
<path fill="none" stroke="#c6c5fe" d="M618.83,-814C618.83,-814 557.17,-814 557.17,-814 553.33,-814 549.5,-810.17 549.5,-806.33 549.5,-806.33 549.5,-798.67 549.5,-798.67 549.5,-794.83 553.33,-791 557.17,-791 557.17,-791 618.83,-791 618.83,-791 622.67,-791 626.5,-794.83 626.5,-798.67 626.5,-798.67 626.5,-806.33 626.5,-806.33 626.5,-810.17 622.67,-814 618.83,-814"/>
<text text-anchor="middle" x="588" y="-798.8" font-family="Arial" font-size="14.00" fill="#c6c5fe">gui/field.js</text>
</g>
<!-- gui/field.js&#45;&gt;core.js -->
<g id="edge40" class="edge">
<title>gui/field.js&#45;&gt;core.js</title>
<path fill="none" stroke="#757575" d="M626.57,-796.74C690.62,-786.66 824.93,-764.41 937,-738.5 989.11,-726.45 1048.49,-709.23 1085.85,-697.96"/>
<polygon fill="#757575" stroke="#757575" points="1087.23,-701.2 1095.78,-694.95 1085.2,-694.5 1087.23,-701.2"/>
</g>
<!-- gui/generator.js -->
<g id="node24" class="node">
<title>gui/generator.js</title>
<path fill="none" stroke="#c6c5fe" d="M634.83,-1087C634.83,-1087 541.17,-1087 541.17,-1087 537.33,-1087 533.5,-1083.17 533.5,-1079.33 533.5,-1079.33 533.5,-1071.67 533.5,-1071.67 533.5,-1067.83 537.33,-1064 541.17,-1064 541.17,-1064 634.83,-1064 634.83,-1064 638.67,-1064 642.5,-1067.83 642.5,-1071.67 642.5,-1071.67 642.5,-1079.33 642.5,-1079.33 642.5,-1083.17 638.67,-1087 634.83,-1087"/>
<text text-anchor="middle" x="588" y="-1071.8" font-family="Arial" font-size="14.00" fill="#c6c5fe">gui/generator.js</text>
</g>
<!-- gui/generator.js&#45;&gt;../node_modules/three/build/three.cjs -->
<g id="edge41" class="edge">
<title>gui/generator.js&#45;&gt;../node_modules/three/build/three.cjs</title>
<path fill="none" stroke="#757575" d="M642.52,-1080.31C652.83,-1083.55 662.68,-1088.62 670,-1096.5 730.87,-1162.04 641.01,-1233.04 706,-1294.5 773.85,-1358.67 1029.62,-1346.5 1123,-1346.5 1123,-1346.5 1123,-1346.5 2022.5,-1346.5 2159.24,-1346.5 2273.26,-1195.32 2310.57,-1139.71"/>
<polygon fill="#757575" stroke="#757575" points="2313.69,-1141.35 2316.27,-1131.07 2307.85,-1137.49 2313.69,-1141.35"/>
</g>
<!-- gui/generator.js&#45;&gt;helpers.js -->
<g id="edge44" class="edge">
<title>gui/generator.js&#45;&gt;helpers.js</title>
<path fill="none" stroke="#757575" d="M642.88,-1081.6C652.8,-1084.79 662.41,-1089.51 670,-1096.5 705.68,-1129.35 666.46,-1171.43 706,-1199.5 774.71,-1248.27 1384.77,-1156.45 1460,-1118.5 1479.11,-1108.86 1479.01,-1099.53 1496,-1086.5 1563.72,-1034.57 1649.24,-981.46 1692.77,-955.25"/>
<polygon fill="#757575" stroke="#757575" points="1694.62,-958.22 1701.39,-950.07 1691.02,-952.21 1694.62,-958.22"/>
</g>
<!-- gui/generator.js&#45;&gt;core.js -->
<g id="edge43" class="edge">
<title>gui/generator.js&#45;&gt;core.js</title>
<path fill="none" stroke="#757575" d="M613.27,-1063.93C631.64,-1053.92 656.02,-1037.71 670,-1016.5 709.63,-956.36 654.38,-908.72 706,-858.5 781.03,-785.5 851.18,-872.45 937,-812.5 962.18,-794.91 949.94,-773.79 973,-753.5 1005.99,-724.48 1053.6,-706.12 1086.28,-696.1"/>
<polygon fill="#757575" stroke="#757575" points="1087.31,-699.45 1095.91,-693.26 1085.33,-692.74 1087.31,-699.45"/>
</g>
<!-- gui/generator.js&#45;&gt;components/selection.js -->
<g id="edge42" class="edge">
<title>gui/generator.js&#45;&gt;components/selection.js</title>
<path fill="none" stroke="#757575" d="M622.66,-1063.87C663.58,-1049.73 732.71,-1025.84 777.46,-1010.37"/>
<polygon fill="#757575" stroke="#757575" points="778.86,-1013.59 787.17,-1007.02 776.58,-1006.98 778.86,-1013.59"/>
</g>
<!-- gui/generator.js&#45;&gt;physics.js -->
<g id="edge45" class="edge">
<title>gui/generator.js&#45;&gt;physics.js</title>
<path fill="none" stroke="#757575" d="M642.57,-1082.59C652.4,-1085.7 662.06,-1090.15 670,-1096.5 697.32,-1118.35 676.14,-1148.28 706,-1166.5 749.82,-1193.24 889.6,-1186.21 937,-1166.5 1133.74,-1084.67 1165.8,-1009.46 1275,-826.5 1303.32,-779.05 1268.14,-742.38 1311,-707.5 1366.11,-662.64 1879.93,-670.91 1948,-650.5 1964.57,-645.53 1981.69,-636.54 1995.12,-628.44"/>
<polygon fill="#757575" stroke="#757575" points="1997.15,-631.3 2003.78,-623.04 1993.44,-625.36 1997.15,-631.3"/>
</g>
<!-- scenariosHelpers.js -->
<g id="node25" class="node">
<title>scenariosHelpers.js</title>
<path fill="none" stroke="#c6c5fe" d="M1444.83,-1275C1444.83,-1275 1326.17,-1275 1326.17,-1275 1322.33,-1275 1318.5,-1271.17 1318.5,-1267.33 1318.5,-1267.33 1318.5,-1259.67 1318.5,-1259.67 1318.5,-1255.83 1322.33,-1252 1326.17,-1252 1326.17,-1252 1444.83,-1252 1444.83,-1252 1448.67,-1252 1452.5,-1255.83 1452.5,-1259.67 1452.5,-1259.67 1452.5,-1267.33 1452.5,-1267.33 1452.5,-1271.17 1448.67,-1275 1444.83,-1275"/>
<text text-anchor="middle" x="1385.5" y="-1259.8" font-family="Arial" font-size="14.00" fill="#c6c5fe">scenariosHelpers.js</text>
</g>
<!-- gui/generator.js&#45;&gt;scenariosHelpers.js -->
<g id="edge46" class="edge">
<title>gui/generator.js&#45;&gt;scenariosHelpers.js</title>
<path fill="none" stroke="#757575" d="M642.52,-1080.83C652.71,-1084.05 662.51,-1088.99 670,-1096.5 715.65,-1142.32 655.69,-1196.85 706,-1237.5 895.55,-1390.65 1221.41,-1313.41 1339.83,-1278"/>
<polygon fill="#757575" stroke="#757575" points="1341.1,-1281.28 1349.65,-1275.02 1339.06,-1274.58 1341.1,-1281.28"/>
</g>
<!-- scenariosHelpers.js&#45;&gt;../node_modules/three/build/three.cjs -->
<g id="edge69" class="edge">
<title>scenariosHelpers.js&#45;&gt;../node_modules/three/build/three.cjs</title>
<path fill="none" stroke="#757575" d="M1452.74,-1259.8C1589.23,-1256.75 1910.7,-1250.74 2169,-1181.5 2209.14,-1170.74 2251.85,-1150.35 2282.17,-1135.66"/>
<polygon fill="#757575" stroke="#757575" points="2284.08,-1138.62 2291.55,-1131.12 2281.03,-1132.32 2284.08,-1138.62"/>
</g>
<!-- scenariosHelpers.js&#45;&gt;../node_modules/three/build/three.cjs -->
<g id="edge70" class="edge">
<title>scenariosHelpers.js&#45;&gt;../node_modules/three/build/three.cjs</title>
<path fill="none" stroke="#757575" d="M1452.74,-1269.72C1589.23,-1274.75 1910.7,-1268.74 2169,-1199.5 2220.2,-1185.78 2275.59,-1156.37 2304.1,-1136.93"/>
<polygon fill="#757575" stroke="#757575" points="2306.28,-1139.67 2312.37,-1131 2302.2,-1133.98 2306.28,-1139.67"/>
</g>
<!-- scenariosHelpers.js&#45;&gt;helpers.js -->
<g id="edge71" class="edge">
<title>scenariosHelpers.js&#45;&gt;helpers.js</title>
<path fill="none" stroke="#757575" d="M1431.02,-1251.87C1441.03,-1248.16 1451.27,-1243.43 1460,-1237.5 1475.34,-1227.08 1649.54,-1022.64 1704.49,-957.95"/>
<polygon fill="#757575" stroke="#757575" points="1707.35,-960 1711.15,-950.11 1702.01,-955.47 1707.35,-960"/>
</g>
<!-- scenariosHelpers.js&#45;&gt;particle.js -->
<g id="edge72" class="edge">
<title>scenariosHelpers.js&#45;&gt;particle.js</title>
<path fill="none" stroke="#757575" d="M1428.1,-1251.87C1567.43,-1212.6 2011.53,-1084.83 2059,-1038.5 2109.47,-989.24 2124.73,-901.97 2129.21,-861.39"/>
<polygon fill="#757575" stroke="#757575" points="2132.71,-861.54 2130.21,-851.25 2125.75,-860.86 2132.71,-861.54"/>
</g>
<!-- gui/info.js -->
<g id="node26" class="node">
<title>gui/info.js</title>
<path fill="none" stroke="#c6c5fe" d="M850.83,-655C850.83,-655 792.17,-655 792.17,-655 788.33,-655 784.5,-651.17 784.5,-647.33 784.5,-647.33 784.5,-639.67 784.5,-639.67 784.5,-635.83 788.33,-632 792.17,-632 792.17,-632 850.83,-632 850.83,-632 854.67,-632 858.5,-635.83 858.5,-639.67 858.5,-639.67 858.5,-647.33 858.5,-647.33 858.5,-651.17 854.67,-655 850.83,-655"/>
<text text-anchor="middle" x="821.5" y="-639.8" font-family="Arial" font-size="14.00" fill="#c6c5fe">gui/info.js</text>
</g>
<!-- gui/info.js&#45;&gt;helpers.js -->
<g id="edge48" class="edge">
<title>gui/info.js&#45;&gt;helpers.js</title>
<path fill="none" stroke="#757575" d="M858.74,-643.9C882.42,-645.6 913.25,-650.66 937,-664.5 958.54,-677.05 951.08,-695.63 973,-707.5 1091.87,-771.86 1160.41,-671.81 1275,-743.5 1300.08,-759.19 1287.68,-781.29 1311,-799.5 1340.63,-822.64 1574.4,-894.52 1675.11,-924.82"/>
<polygon fill="#757575" stroke="#757575" points="1674.13,-928.18 1684.71,-927.7 1676.14,-921.47 1674.13,-928.18"/>
</g>
<!-- gui/info.js&#45;&gt;core.js -->
<g id="edge47" class="edge">
<title>gui/info.js&#45;&gt;core.js</title>
<path fill="none" stroke="#757575" d="M858.75,-648.69C916.21,-656.91 1027.63,-672.85 1085.72,-681.17"/>
<polygon fill="#757575" stroke="#757575" points="1085.53,-684.67 1095.93,-682.63 1086.52,-677.74 1085.53,-684.67"/>
</g>
<!-- gui/info.js&#45;&gt;physics.js -->
<g id="edge49" class="edge">
<title>gui/info.js&#45;&gt;physics.js</title>
<path fill="none" stroke="#757575" d="M858.7,-647.54C884.27,-648.23 917.35,-644.35 937,-623.5 1033.65,-520.96 886.08,-419.41 973,-308.5 1061.3,-195.82 1157.55,-278.35 1275,-196.5 1295.17,-182.44 1288.66,-164.77 1311,-154.5 1568.21,-36.2 1732.7,29.34 1948,-154.5 2015.02,-211.73 2020.42,-506.57 2020.59,-589.67"/>
<polygon fill="#757575" stroke="#757575" points="2017.09,-589.75 2020.58,-599.75 2024.09,-589.75 2017.09,-589.75"/>
</g>
<!-- gui/parameters.js -->
<g id="node27" class="node">
<title>gui/parameters.js</title>
<path fill="none" stroke="#c6c5fe" d="M874.33,-614C874.33,-614 768.67,-614 768.67,-614 764.83,-614 761,-610.17 761,-606.33 761,-606.33 761,-598.67 761,-598.67 761,-594.83 764.83,-591 768.67,-591 768.67,-591 874.33,-591 874.33,-591 878.17,-591 882,-594.83 882,-598.67 882,-598.67 882,-606.33 882,-606.33 882,-610.17 878.17,-614 874.33,-614"/>
<text text-anchor="middle" x="821.5" y="-598.8" font-family="Arial" font-size="14.00" fill="#c6c5fe">gui/parameters.js</text>
</g>
<!-- gui/parameters.js&#45;&gt;core.js -->
<g id="edge50" class="edge">
<title>gui/parameters.js&#45;&gt;core.js</title>
<path fill="none" stroke="#757575" d="M882.29,-611.77C900.02,-614.98 919.39,-618.93 937,-623.5 989.86,-637.22 1049.39,-658.44 1086.55,-672.4"/>
<polygon fill="#757575" stroke="#757575" points="1085.37,-675.69 1095.96,-675.96 1087.84,-669.14 1085.37,-675.69"/>
</g>
<!-- gui/parameters.js&#45;&gt;physics.js -->
<g id="edge51" class="edge">
<title>gui/parameters.js&#45;&gt;physics.js</title>
<path fill="none" stroke="#757575" d="M824.72,-590.95C833.9,-546.51 873.2,-385.19 973,-308.5 1094.86,-214.86 1158.18,-251.81 1311,-235.5 1452.75,-220.37 1843.12,-214.94 1948,-311.5 1989.38,-349.59 2011.65,-526.96 2018.32,-589.55"/>
<polygon fill="#757575" stroke="#757575" points="2014.88,-590.26 2019.39,-599.85 2021.84,-589.54 2014.88,-590.26"/>
</g>
<!-- gui/particle.js -->
<g id="node28" class="node">
<title>gui/particle.js</title>
<path fill="none" stroke="#c6c5fe" d="M861.33,-890C861.33,-890 781.67,-890 781.67,-890 777.83,-890 774,-886.17 774,-882.33 774,-882.33 774,-874.67 774,-874.67 774,-870.83 777.83,-867 781.67,-867 781.67,-867 861.33,-867 861.33,-867 865.17,-867 869,-870.83 869,-874.67 869,-874.67 869,-882.33 869,-882.33 869,-886.17 865.17,-890 861.33,-890"/>
<text text-anchor="middle" x="821.5" y="-874.8" font-family="Arial" font-size="14.00" fill="#c6c5fe">gui/particle.js</text>
</g>
<!-- gui/particle.js&#45;&gt;helpers.js -->
<g id="edge53" class="edge">
<title>gui/particle.js&#45;&gt;helpers.js</title>
<path fill="none" stroke="#757575" d="M869.23,-881.62C1024.16,-891.97 1519.9,-925.07 1674.5,-935.39"/>
<polygon fill="#757575" stroke="#757575" points="1674.4,-938.9 1684.61,-936.07 1674.86,-931.91 1674.4,-938.9"/>
</g>
<!-- gui/particle.js&#45;&gt;core.js -->
<g id="edge52" class="edge">
<title>gui/particle.js&#45;&gt;core.js</title>
<path fill="none" stroke="#757575" d="M869.01,-878.04C891.91,-875.51 918.5,-868.81 937,-852.5 972.12,-821.54 941.1,-787.76 973,-753.5 1003.3,-720.96 1052.31,-703.21 1086.02,-694.3"/>
<polygon fill="#757575" stroke="#757575" points="1087.1,-697.64 1095.95,-691.81 1085.4,-690.85 1087.1,-697.64"/>
</g>
<!-- gui/particle.js&#45;&gt;particle.js -->
<g id="edge54" class="edge">
<title>gui/particle.js&#45;&gt;particle.js</title>
<path fill="none" stroke="#757575" d="M869.07,-877.11C1072.56,-871.05 1882.52,-846.91 2084.96,-840.87"/>
<polygon fill="#757575" stroke="#757575" points="2085.07,-844.37 2094.96,-840.57 2084.86,-837.37 2085.07,-844.37"/>
</g>
<!-- gui/selection.js -->
<g id="node29" class="node">
<title>gui/selection.js</title>
<path fill="none" stroke="#c6c5fe" d="M632.83,-1007C632.83,-1007 543.17,-1007 543.17,-1007 539.33,-1007 535.5,-1003.17 535.5,-999.33 535.5,-999.33 535.5,-991.67 535.5,-991.67 535.5,-987.83 539.33,-984 543.17,-984 543.17,-984 632.83,-984 632.83,-984 636.67,-984 640.5,-987.83 640.5,-991.67 640.5,-991.67 640.5,-999.33 640.5,-999.33 640.5,-1003.17 636.67,-1007 632.83,-1007"/>
<text text-anchor="middle" x="588" y="-991.8" font-family="Arial" font-size="14.00" fill="#c6c5fe">gui/selection.js</text>
</g>
<!-- gui/selection.js&#45;&gt;../node_modules/three/build/three.cjs -->
<g id="edge55" class="edge">
<title>gui/selection.js&#45;&gt;../node_modules/three/build/three.cjs</title>
<path fill="none" stroke="#757575" d="M640.83,-1003.46C650.71,-1005.79 660.82,-1008.75 670,-1012.5 687.58,-1019.68 688.11,-1029.13 706,-1035.5 1242.77,-1226.5 1414.3,-1129.08 1984,-1135.5 2066.22,-1136.43 2086.89,-1139.74 2169,-1135.5 2184.61,-1134.69 2201.07,-1133.43 2217.2,-1131.96"/>
<polygon fill="#757575" stroke="#757575" points="2217.56,-1135.44 2227.19,-1131.02 2216.91,-1128.48 2217.56,-1135.44"/>
</g>
<!-- gui/selection.js&#45;&gt;helpers.js -->
<g id="edge58" class="edge">
<title>gui/selection.js&#45;&gt;helpers.js</title>
<path fill="none" stroke="#757575" d="M640.57,-1006.79C660.86,-1010.7 684.42,-1014.58 706,-1016.5 1040.36,-1046.27 1126.37,-1009.55 1460,-972.5 1535.36,-964.13 1622.69,-952.33 1674.8,-945.06"/>
<polygon fill="#757575" stroke="#757575" points="1675.32,-948.52 1684.74,-943.67 1674.35,-941.59 1675.32,-948.52"/>
</g>
<!-- gui/selection.js&#45;&gt;core.js -->
<g id="edge57" class="edge">
<title>gui/selection.js&#45;&gt;core.js</title>
<path fill="none" stroke="#757575" d="M593.44,-983.68C605.88,-952.26 644.29,-866.18 706,-824.5 793.13,-765.65 838.68,-810.75 937,-773.5 954.12,-767.01 956.63,-761.68 973,-753.5 1011.1,-734.45 1055.79,-714.83 1086.42,-701.78"/>
<polygon fill="#757575" stroke="#757575" points="1088.01,-704.91 1095.85,-697.79 1085.27,-698.47 1088.01,-704.91"/>
</g>
<!-- gui/selection.js&#45;&gt;components/selection.js -->
<g id="edge56" class="edge">
<title>gui/selection.js&#45;&gt;components/selection.js</title>
<path fill="none" stroke="#757575" d="M640.66,-995.5C667.12,-995.5 700.11,-995.5 730.57,-995.5"/>
<polygon fill="#757575" stroke="#757575" points="730.8,-999 740.8,-995.5 730.8,-992 730.8,-999"/>
</g>
<!-- gui/stats.js -->
<g id="node30" class="node">
<title>gui/stats.js</title>
<path fill="none" stroke="#cfffac" d="M620.33,-1169C620.33,-1169 555.67,-1169 555.67,-1169 551.83,-1169 548,-1165.17 548,-1161.33 548,-1161.33 548,-1153.67 548,-1153.67 548,-1149.83 551.83,-1146 555.67,-1146 555.67,-1146 620.33,-1146 620.33,-1146 624.17,-1146 628,-1149.83 628,-1153.67 628,-1153.67 628,-1161.33 628,-1161.33 628,-1165.17 624.17,-1169 620.33,-1169"/>
<text text-anchor="middle" x="588" y="-1153.8" font-family="Arial" font-size="14.00" fill="#cfffac">gui/stats.js</text>
</g>
<!-- main.js -->
<g id="node31" class="node">
<title>main.js</title>
<path fill="none" stroke="#c6c5fe" d="M52.33,-599C52.33,-599 7.67,-599 7.67,-599 3.83,-599 0,-595.17 0,-591.33 0,-591.33 0,-583.67 0,-583.67 0,-579.83 3.83,-576 7.67,-576 7.67,-576 52.33,-576 52.33,-576 56.17,-576 60,-579.83 60,-583.67 60,-583.67 60,-591.33 60,-591.33 60,-595.17 56.17,-599 52.33,-599"/>
<text text-anchor="middle" x="30" y="-583.8" font-family="Arial" font-size="14.00" fill="#c6c5fe">main.js</text>
</g>
<!-- ../node_modules/three/examples/jsm/capabilities/WebGL.js -->
<g id="node32" class="node">
<title>../node_modules/three/examples/jsm/capabilities/WebGL.js</title>
<path fill="none" stroke="#cfffac" d="M462.33,-599C462.33,-599 103.67,-599 103.67,-599 99.83,-599 96,-595.17 96,-591.33 96,-591.33 96,-583.67 96,-583.67 96,-579.83 99.83,-576 103.67,-576 103.67,-576 462.33,-576 462.33,-576 466.17,-576 470,-579.83 470,-583.67 470,-583.67 470,-591.33 470,-591.33 470,-595.17 466.17,-599 462.33,-599"/>
<text text-anchor="middle" x="283" y="-583.8" font-family="Arial" font-size="14.00" fill="#cfffac">../node_modules/three/examples/jsm/capabilities/WebGL.js</text>
</g>
<!-- main.js&#45;&gt;../node_modules/three/examples/jsm/capabilities/WebGL.js -->
<g id="edge61" class="edge">
<title>main.js&#45;&gt;../node_modules/three/examples/jsm/capabilities/WebGL.js</title>
<path fill="none" stroke="#757575" d="M60.28,-587.5C67.77,-587.5 76.4,-587.5 85.81,-587.5"/>
<polygon fill="#757575" stroke="#757575" points="85.9,-591 95.9,-587.5 85.9,-584 85.9,-591"/>
</g>
<!-- ui/App.jsx -->
<g id="node33" class="node">
<title>ui/App.jsx</title>
<path fill="none" stroke="#c6c5fe" d="M312.83,-288C312.83,-288 253.17,-288 253.17,-288 249.33,-288 245.5,-284.17 245.5,-280.33 245.5,-280.33 245.5,-272.67 245.5,-272.67 245.5,-268.83 249.33,-265 253.17,-265 253.17,-265 312.83,-265 312.83,-265 316.67,-265 320.5,-268.83 320.5,-272.67 320.5,-272.67 320.5,-280.33 320.5,-280.33 320.5,-284.17 316.67,-288 312.83,-288"/>
<text text-anchor="middle" x="283" y="-272.8" font-family="Arial" font-size="14.00" fill="#c6c5fe">ui/App.jsx</text>
</g>
<!-- main.js&#45;&gt;ui/App.jsx -->
<g id="edge62" class="edge">
<title>main.js&#45;&gt;ui/App.jsx</title>
<path fill="none" stroke="#757575" d="M40.53,-575.69C78.43,-528.73 218.64,-355 266.14,-296.15"/>
<polygon fill="#757575" stroke="#757575" points="268.9,-298.3 272.46,-288.32 263.45,-293.91 268.9,-298.3"/>
</g>
<!-- view.js -->
<g id="node34" class="node">
<title>view.js</title>
<path fill="none" stroke="#c6c5fe" d="M303.33,-948C303.33,-948 262.67,-948 262.67,-948 258.83,-948 255,-944.17 255,-940.33 255,-940.33 255,-932.67 255,-932.67 255,-928.83 258.83,-925 262.67,-925 262.67,-925 303.33,-925 303.33,-925 307.17,-925 311,-928.83 311,-932.67 311,-932.67 311,-940.33 311,-940.33 311,-944.17 307.17,-948 303.33,-948"/>
<text text-anchor="middle" x="283" y="-932.8" font-family="Arial" font-size="14.00" fill="#c6c5fe">view.js</text>
</g>
<!-- main.js&#45;&gt;view.js -->
<g id="edge63" class="edge">
<title>main.js&#45;&gt;view.js</title>
<path fill="none" stroke="#757575" d="M39.35,-599.11C75.83,-649.83 221.42,-852.27 267.76,-916.7"/>
<polygon fill="#757575" stroke="#757575" points="264.94,-918.77 273.62,-924.84 270.62,-914.68 264.94,-918.77"/>
</g>
<!-- ../node_modules/react&#45;dom/client.js -->
<g id="node36" class="node">
<title>../node_modules/react&#45;dom/client.js</title>
<path fill="none" stroke="#cfffac" d="M929.33,-267C929.33,-267 713.67,-267 713.67,-267 709.83,-267 706,-263.17 706,-259.33 706,-259.33 706,-251.67 706,-251.67 706,-247.83 709.83,-244 713.67,-244 713.67,-244 929.33,-244 929.33,-244 933.17,-244 937,-247.83 937,-251.67 937,-251.67 937,-259.33 937,-259.33 937,-263.17 933.17,-267 929.33,-267"/>
<text text-anchor="middle" x="821.5" y="-251.8" font-family="Arial" font-size="14.00" fill="#cfffac">../node_modules/react&#45;dom/client.js</text>
</g>
<!-- ui/App.jsx&#45;&gt;../node_modules/react&#45;dom/client.js -->
<g id="edge73" class="edge">
<title>ui/App.jsx&#45;&gt;../node_modules/react&#45;dom/client.js</title>
<path fill="none" stroke="#757575" d="M320.88,-275.06C396.92,-272.08 574.2,-265.14 695.76,-260.38"/>
<polygon fill="#757575" stroke="#757575" points="696.02,-263.88 705.88,-259.99 695.75,-256.88 696.02,-263.88"/>
</g>
<!-- ../node_modules/react/index.js -->
<g id="node37" class="node">
<title>../node_modules/react/index.js</title>
<path fill="none" stroke="#cfffac" d="M1216.33,-187C1216.33,-187 1031.67,-187 1031.67,-187 1027.83,-187 1024,-183.17 1024,-179.33 1024,-179.33 1024,-171.67 1024,-171.67 1024,-167.83 1027.83,-164 1031.67,-164 1031.67,-164 1216.33,-164 1216.33,-164 1220.17,-164 1224,-167.83 1224,-171.67 1224,-171.67 1224,-179.33 1224,-179.33 1224,-183.17 1220.17,-187 1216.33,-187"/>
<text text-anchor="middle" x="1124" y="-171.8" font-family="Arial" font-size="14.00" fill="#cfffac">../node_modules/react/index.js</text>
</g>
<!-- ui/App.jsx&#45;&gt;../node_modules/react/index.js -->
<g id="edge74" class="edge">
<title>ui/App.jsx&#45;&gt;../node_modules/react/index.js</title>
<path fill="none" stroke="#757575" d="M317.96,-288.11C420.82,-321.03 734.3,-404.58 937,-276.5 968.26,-256.75 943.51,-223.8 973,-201.5 985.11,-192.35 999.33,-185.99 1014.11,-181.64"/>
<polygon fill="#757575" stroke="#757575" points="1015.11,-184.99 1023.88,-179.06 1013.32,-178.23 1015.11,-184.99"/>
</g>
<!-- ui/views/Information.jsx -->
<g id="node38" class="node">
<title>ui/views/Information.jsx</title>
<path fill="none" stroke="#c6c5fe" d="M658.83,-207C658.83,-207 517.17,-207 517.17,-207 513.33,-207 509.5,-203.17 509.5,-199.33 509.5,-199.33 509.5,-191.67 509.5,-191.67 509.5,-187.83 513.33,-184 517.17,-184 517.17,-184 658.83,-184 658.83,-184 662.67,-184 666.5,-187.83 666.5,-191.67 666.5,-191.67 666.5,-199.33 666.5,-199.33 666.5,-203.17 662.67,-207 658.83,-207"/>
<text text-anchor="middle" x="588" y="-191.8" font-family="Arial" font-size="14.00" fill="#c6c5fe">ui/views/Information.jsx</text>
</g>
<!-- ui/App.jsx&#45;&gt;ui/views/Information.jsx -->
<g id="edge75" class="edge">
<title>ui/App.jsx&#45;&gt;ui/views/Information.jsx</title>
<path fill="none" stroke="#757575" d="M320.55,-266.73C373.78,-252.5 472.93,-225.99 534.12,-209.64"/>
<polygon fill="#757575" stroke="#757575" points="535.22,-212.97 543.98,-207 533.41,-206.2 535.22,-212.97"/>
</g>
<!-- view.js&#45;&gt;components/keyboard.js -->
<g id="edge88" class="edge">
<title>view.js&#45;&gt;components/keyboard.js</title>
<path fill="none" stroke="#757575" d="M296.4,-948.15C328.42,-977.61 417.61,-1055.61 506,-1096.5 510.1,-1098.4 514.41,-1100.13 518.81,-1101.71"/>
<polygon fill="#757575" stroke="#757575" points="517.96,-1105.11 528.55,-1104.93 520.15,-1098.47 517.96,-1105.11"/>
</g>
<!-- view.js&#45;&gt;components/mouse.js -->
<g id="edge89" class="edge">
<title>view.js&#45;&gt;components/mouse.js</title>
<path fill="none" stroke="#757575" d="M290.2,-948.28C322.9,-1008.79 482.18,-1284.79 706,-1360.5 910.6,-1429.71 1169.9,-1413.17 1300.79,-1398.17"/>
<polygon fill="#757575" stroke="#757575" points="1301.23,-1401.64 1310.75,-1397 1300.41,-1394.69 1301.23,-1401.64"/>
</g>
<!-- view.js&#45;&gt;components/ruler.js -->
<g id="edge90" class="edge">
<title>view.js&#45;&gt;components/ruler.js</title>
<path fill="none" stroke="#757575" d="M311.01,-947.35C352.48,-963.75 434.54,-995.2 506,-1016.5 577.8,-1037.9 610.17,-1010.4 670,-1055.5 696.06,-1075.14 679.84,-1099.99 706,-1119.5 717.24,-1127.89 730.71,-1133.64 744.4,-1137.58"/>
<polygon fill="#757575" stroke="#757575" points="743.82,-1141.04 754.38,-1140.13 745.56,-1134.26 743.82,-1141.04"/>
</g>
<!-- view.js&#45;&gt;core.js -->
<g id="edge92" class="edge">
<title>view.js&#45;&gt;core.js</title>
<path fill="none" stroke="#757575" d="M296.9,-924.76C329.4,-895.84 418.3,-820.78 506,-782.5 589.42,-746.09 616.3,-753.93 706,-738.5 845.12,-714.58 1012.15,-697.11 1085.43,-690.01"/>
<polygon fill="#757575" stroke="#757575" points="1085.93,-693.48 1095.55,-689.04 1085.26,-686.51 1085.93,-693.48"/>
</g>
<!-- view.js&#45;&gt;components/selection.js -->
<g id="edge91" class="edge">
<title>view.js&#45;&gt;components/selection.js</title>
<path fill="none" stroke="#757575" d="M311.17,-938.95C374.26,-944.7 535.53,-959.78 670,-975.5 689.71,-977.8 710.84,-980.48 730.85,-983.12"/>
<polygon fill="#757575" stroke="#757575" points="730.52,-986.6 740.89,-984.45 731.44,-979.66 730.52,-986.6"/>
</g>
<!-- view.js&#45;&gt;gui/advanced.js -->
<g id="edge93" class="edge">
<title>view.js&#45;&gt;gui/advanced.js</title>
<path fill="none" stroke="#757575" d="M311.34,-935.63C393.22,-933.04 638.01,-925.28 755.79,-921.55"/>
<polygon fill="#757575" stroke="#757575" points="756.22,-925.04 766.1,-921.22 756,-918.04 756.22,-925.04"/>
</g>
<!-- view.js&#45;&gt;gui/controls.js -->
<g id="edge94" class="edge">
<title>view.js&#45;&gt;gui/controls.js</title>
<path fill="none" stroke="#757575" d="M291.02,-924.83C315.12,-885.98 398.93,-760.7 506,-710.5 588.28,-671.92 695.98,-672.42 761.6,-677.55"/>
<polygon fill="#757575" stroke="#757575" points="761.51,-681.06 771.77,-678.41 762.1,-674.08 761.51,-681.06"/>
</g>
<!-- view.js&#45;&gt;gui/dat.gui.js -->
<g id="edge95" class="edge">
<title>view.js&#45;&gt;gui/dat.gui.js</title>
<path fill="none" stroke="#757575" d="M290.98,-948.05C315.25,-987.18 400.32,-1115.83 506,-1178.5 513.96,-1183.22 522.99,-1186.83 532.07,-1189.59"/>
<polygon fill="#757575" stroke="#757575" points="531.31,-1193.01 541.88,-1192.26 533.15,-1186.26 531.31,-1193.01"/>
</g>
<!-- view.js&#45;&gt;gui/field.js -->
<g id="edge96" class="edge">
<title>view.js&#45;&gt;gui/field.js</title>
<path fill="none" stroke="#757575" d="M310.1,-924.96C364.46,-900.92 489.92,-845.43 551.54,-818.18"/>
<polygon fill="#757575" stroke="#757575" points="553.13,-821.31 560.86,-814.06 550.3,-814.9 553.13,-821.31"/>
</g>
<!-- view.js&#45;&gt;gui/generator.js -->
<g id="edge97" class="edge">
<title>view.js&#45;&gt;gui/generator.js</title>
<path fill="none" stroke="#757575" d="M303.99,-948.06C342.29,-969.88 429.02,-1017.79 506,-1049.5 515.83,-1053.55 526.54,-1057.38 536.85,-1060.79"/>
<polygon fill="#757575" stroke="#757575" points="535.99,-1064.19 546.58,-1063.92 538.14,-1057.52 535.99,-1064.19"/>
</g>
<!-- view.js&#45;&gt;gui/info.js -->
<g id="edge98" class="edge">
<title>view.js&#45;&gt;gui/info.js</title>
<path fill="none" stroke="#757575" d="M289.56,-924.72C310.58,-881.64 390.02,-732.05 506,-671.5 592.08,-626.56 709.61,-630.41 773.86,-637.04"/>
<polygon fill="#757575" stroke="#757575" points="773.75,-640.55 784.08,-638.17 774.52,-633.59 773.75,-640.55"/>
</g>
<!-- view.js&#45;&gt;gui/parameters.js -->
<g id="edge99" class="edge">
<title>view.js&#45;&gt;gui/parameters.js</title>
<path fill="none" stroke="#757575" d="M288.22,-924.87C305.97,-877.88 379.51,-701.12 506,-629.5 581.41,-586.8 683.66,-586.55 750.82,-592.6"/>
<polygon fill="#757575" stroke="#757575" points="750.58,-596.09 760.87,-593.58 751.26,-589.13 750.58,-596.09"/>
</g>
<!-- view.js&#45;&gt;gui/particle.js -->
<g id="edge100" class="edge">
<title>view.js&#45;&gt;gui/particle.js</title>
<path fill="none" stroke="#757575" d="M311.34,-933.54C395.08,-924.49 649.25,-897.01 763.64,-884.65"/>
<polygon fill="#757575" stroke="#757575" points="764.04,-888.12 773.61,-883.57 763.29,-881.16 764.04,-888.12"/>
</g>
<!-- view.js&#45;&gt;gui/selection.js -->
<g id="edge101" class="edge">
<title>view.js&#45;&gt;gui/selection.js</title>
<path fill="none" stroke="#757575" d="M311.16,-941.79C359,-951.1 459.45,-970.66 525.01,-983.43"/>
<polygon fill="#757575" stroke="#757575" points="524.74,-986.94 535.23,-985.42 526.08,-980.07 524.74,-986.94"/>
</g>
<!-- view.js&#45;&gt;gui/stats.js -->
<g id="edge102" class="edge">
<title>view.js&#45;&gt;gui/stats.js</title>
<path fill="none" stroke="#757575" d="M293.19,-948.17C321.14,-982.84 409.15,-1085.97 506,-1137.5 515.79,-1142.71 526.97,-1146.59 537.83,-1149.47"/>
<polygon fill="#757575" stroke="#757575" points="537.13,-1152.9 547.67,-1151.85 538.77,-1146.1 537.13,-1152.9"/>
</g>
<!-- mock/graphics.js -->
<g id="node35" class="node">
<title>mock/graphics.js</title>
<path fill="none" stroke="#c6c5fe" d="M1436.83,-187C1436.83,-187 1334.17,-187 1334.17,-187 1330.33,-187 1326.5,-183.17 1326.5,-179.33 1326.5,-179.33 1326.5,-171.67 1326.5,-171.67 1326.5,-167.83 1330.33,-164 1334.17,-164 1334.17,-164 1436.83,-164 1436.83,-164 1440.67,-164 1444.5,-167.83 1444.5,-171.67 1444.5,-171.67 1444.5,-179.33 1444.5,-179.33 1444.5,-183.17 1440.67,-187 1436.83,-187"/>
<text text-anchor="middle" x="1385.5" y="-171.8" font-family="Arial" font-size="14.00" fill="#c6c5fe">mock/graphics.js</text>
</g>
<!-- mock/graphics.js&#45;&gt;../node_modules/three/build/three.cjs -->
<g id="edge64" class="edge">
<title>mock/graphics.js&#45;&gt;../node_modules/three/build/three.cjs</title>
<path fill="none" stroke="#757575" d="M1421.49,-163.88C1547.49,-124.46 1980.59,-10.61 2169,-239.5 2282.16,-376.97 2316.61,-975.62 2322.52,-1097.71"/>
<polygon fill="#757575" stroke="#757575" points="2319.02,-1097.9 2322.99,-1107.73 2326.02,-1097.57 2319.02,-1097.9"/>
</g>
<!-- mock/graphics.js&#45;&gt;../node_modules/three/examples/jsm/controls/OrbitControls.js -->
<g id="edge65" class="edge">
<title>mock/graphics.js&#45;&gt;../node_modules/three/examples/jsm/controls/OrbitControls.js</title>
<path fill="none" stroke="#757575" d="M1444.77,-175.5C1465.84,-175.5 1491.01,-175.5 1517.46,-175.5"/>
<polygon fill="#757575" stroke="#757575" points="1517.65,-179 1527.65,-175.5 1517.65,-172 1517.65,-179"/>
</g>
<!-- ui/views/Information.jsx&#45;&gt;../node_modules/react&#45;dom/client.js -->
<g id="edge83" class="edge">
<title>ui/views/Information.jsx&#45;&gt;../node_modules/react&#45;dom/client.js</title>
<path fill="none" stroke="#757575" d="M626.52,-207.02C649.39,-213.89 679.27,-222.59 706,-229.5 722.34,-233.73 740.09,-237.94 756.63,-241.7"/>
<polygon fill="#757575" stroke="#757575" points="756.22,-245.2 766.75,-243.99 757.77,-238.37 756.22,-245.2"/>
</g>
<!-- ui/views/Information.jsx&#45;&gt;../node_modules/react/index.js -->
<g id="edge84" class="edge">
<title>ui/views/Information.jsx&#45;&gt;../node_modules/react/index.js</title>
<path fill="none" stroke="#757575" d="M666.72,-196.26C679.83,-196.36 693.3,-196.45 706,-196.5 808.67,-196.94 834.5,-202.27 937,-196.5 966.89,-194.82 999.36,-191.63 1028.68,-188.23"/>
<polygon fill="#757575" stroke="#757575" points="1029.39,-191.67 1038.91,-187.02 1028.57,-184.72 1029.39,-191.67"/>
</g>
<!-- ui/components/Dialog.jsx -->
<g id="node40" class="node">
<title>ui/components/Dialog.jsx</title>
<path fill="none" stroke="#c6c5fe" d="M897.33,-105C897.33,-105 745.67,-105 745.67,-105 741.83,-105 738,-101.17 738,-97.33 738,-97.33 738,-89.67 738,-89.67 738,-85.83 741.83,-82 745.67,-82 745.67,-82 897.33,-82 897.33,-82 901.17,-82 905,-85.83 905,-89.67 905,-89.67 905,-97.33 905,-97.33 905,-101.17 901.17,-105 897.33,-105"/>
<text text-anchor="middle" x="821.5" y="-89.8" font-family="Arial" font-size="14.00" fill="#c6c5fe">ui/components/Dialog.jsx</text>
</g>
<!-- ui/views/Information.jsx&#45;&gt;ui/components/Dialog.jsx -->
<g id="edge85" class="edge">
<title>ui/views/Information.jsx&#45;&gt;ui/components/Dialog.jsx</title>
<path fill="none" stroke="#757575" d="M601.55,-183.83C621.83,-165.67 663.82,-130.94 706,-113.5 713.08,-110.57 720.58,-108.07 728.22,-105.94"/>
<polygon fill="#757575" stroke="#757575" points="729.14,-109.32 737.94,-103.43 727.39,-102.54 729.14,-109.32"/>
</g>
<!-- ui/components/NumberInput.jsx -->
<g id="node44" class="node">
<title>ui/components/NumberInput.jsx</title>
<path fill="none" stroke="#c6c5fe" d="M917.83,-187C917.83,-187 725.17,-187 725.17,-187 721.33,-187 717.5,-183.17 717.5,-179.33 717.5,-179.33 717.5,-171.67 717.5,-171.67 717.5,-167.83 721.33,-164 725.17,-164 725.17,-164 917.83,-164 917.83,-164 921.67,-164 925.5,-167.83 925.5,-171.67 925.5,-171.67 925.5,-179.33 925.5,-179.33 925.5,-183.17 921.67,-187 917.83,-187"/>
<text text-anchor="middle" x="821.5" y="-171.8" font-family="Arial" font-size="14.00" fill="#c6c5fe">ui/components/NumberInput.jsx</text>
</g>
<!-- ui/views/Information.jsx&#45;&gt;ui/components/NumberInput.jsx -->
<g id="edge86" class="edge">
<title>ui/views/Information.jsx&#45;&gt;ui/components/NumberInput.jsx</title>
<path fill="none" stroke="#757575" d="M666.73,-188.78C679.84,-187.65 693.68,-186.46 707.46,-185.27"/>
<polygon fill="#757575" stroke="#757575" points="707.82,-188.75 717.48,-184.4 707.22,-181.77 707.82,-188.75"/>
</g>
<!-- ui/components/TextInput.jsx -->
<g id="node45" class="node">
<title>ui/components/TextInput.jsx</title>
<path fill="none" stroke="#c6c5fe" d="M905.83,-146C905.83,-146 737.17,-146 737.17,-146 733.33,-146 729.5,-142.17 729.5,-138.33 729.5,-138.33 729.5,-130.67 729.5,-130.67 729.5,-126.83 733.33,-123 737.17,-123 737.17,-123 905.83,-123 905.83,-123 909.67,-123 913.5,-126.83 913.5,-130.67 913.5,-130.67 913.5,-138.33 913.5,-138.33 913.5,-142.17 909.67,-146 905.83,-146"/>
<text text-anchor="middle" x="821.5" y="-130.8" font-family="Arial" font-size="14.00" fill="#c6c5fe">ui/components/TextInput.jsx</text>
</g>
<!-- ui/views/Information.jsx&#45;&gt;ui/components/TextInput.jsx -->
<g id="edge87" class="edge">
<title>ui/views/Information.jsx&#45;&gt;ui/components/TextInput.jsx</title>
<path fill="none" stroke="#757575" d="M617.92,-183.87C641.35,-174.81 675.38,-162.48 706,-154.5 715.06,-152.14 724.59,-149.98 734.13,-148.02"/>
<polygon fill="#757575" stroke="#757575" points="734.93,-151.43 744.06,-146.05 733.57,-144.56 734.93,-151.43"/>
</g>
<!-- ui/components/Dialog.css -->
<g id="node39" class="node">
<title>ui/components/Dialog.css</title>
<path fill="none" stroke="#cfffac" d="M1201.83,-23C1201.83,-23 1046.17,-23 1046.17,-23 1042.33,-23 1038.5,-19.17 1038.5,-15.33 1038.5,-15.33 1038.5,-7.67 1038.5,-7.67 1038.5,-3.83 1042.33,0 1046.17,0 1046.17,0 1201.83,0 1201.83,0 1205.67,0 1209.5,-3.83 1209.5,-7.67 1209.5,-7.67 1209.5,-15.33 1209.5,-15.33 1209.5,-19.17 1205.67,-23 1201.83,-23"/>
<text text-anchor="middle" x="1124" y="-7.8" font-family="Arial" font-size="14.00" fill="#cfffac">ui/components/Dialog.css</text>
</g>
<!-- ui/components/Dialog.jsx&#45;&gt;../node_modules/react/index.js -->
<g id="edge79" class="edge">
<title>ui/components/Dialog.jsx&#45;&gt;../node_modules/react/index.js</title>
<path fill="none" stroke="#757575" d="M905.22,-101C916.32,-103.97 927.23,-108.02 937,-113.5 958.15,-125.37 951.66,-142.99 973,-154.5 985.6,-161.3 999.62,-166.15 1013.89,-169.58"/>
<polygon fill="#757575" stroke="#757575" points="1013.29,-173.03 1023.8,-171.74 1014.77,-166.19 1013.29,-173.03"/>
</g>
<!-- ui/components/Dialog.jsx&#45;&gt;ui/components/Dialog.css -->
<g id="edge80" class="edge">
<title>ui/components/Dialog.jsx&#45;&gt;ui/components/Dialog.css</title>
<path fill="none" stroke="#757575" d="M845.31,-81.92C874.25,-67.74 926.05,-44.07 973,-31.5 990.64,-26.78 1009.76,-23.14 1028.25,-20.36"/>
<polygon fill="#757575" stroke="#757575" points="1028.75,-23.82 1038.15,-18.93 1027.76,-16.89 1028.75,-23.82"/>
</g>
<!-- ../node_modules/react&#45;draggable/build/cjs/cjs.js -->
<g id="node41" class="node">
<title>../node_modules/react&#45;draggable/build/cjs/cjs.js</title>
<path fill="none" stroke="#cfffac" d="M1267.33,-146C1267.33,-146 980.67,-146 980.67,-146 976.83,-146 973,-142.17 973,-138.33 973,-138.33 973,-130.67 973,-130.67 973,-126.83 976.83,-123 980.67,-123 980.67,-123 1267.33,-123 1267.33,-123 1271.17,-123 1275,-126.83 1275,-130.67 1275,-130.67 1275,-138.33 1275,-138.33 1275,-142.17 1271.17,-146 1267.33,-146"/>
<text text-anchor="middle" x="1124" y="-130.8" font-family="Arial" font-size="14.00" fill="#cfffac">../node_modules/react&#45;draggable/build/cjs/cjs.js</text>
</g>
<!-- ui/components/Dialog.jsx&#45;&gt;../node_modules/react&#45;draggable/build/cjs/cjs.js -->
<g id="edge76" class="edge">
<title>ui/components/Dialog.jsx&#45;&gt;../node_modules/react&#45;draggable/build/cjs/cjs.js</title>
<path fill="none" stroke="#757575" d="M905.01,-104.76C943.29,-109.98 988.99,-116.22 1028.64,-121.63"/>
<polygon fill="#757575" stroke="#757575" points="1028.2,-125.1 1038.58,-122.98 1029.15,-118.16 1028.2,-125.1"/>
</g>
<!-- ../node_modules/react&#45;resizable/css/styles.css -->
<g id="node42" class="node">
<title>../node_modules/react&#45;resizable/css/styles.css</title>
<path fill="none" stroke="#cfffac" d="M1264.33,-105C1264.33,-105 983.67,-105 983.67,-105 979.83,-105 976,-101.17 976,-97.33 976,-97.33 976,-89.67 976,-89.67 976,-85.83 979.83,-82 983.67,-82 983.67,-82 1264.33,-82 1264.33,-82 1268.17,-82 1272,-85.83 1272,-89.67 1272,-89.67 1272,-97.33 1272,-97.33 1272,-101.17 1268.17,-105 1264.33,-105"/>
<text text-anchor="middle" x="1124" y="-89.8" font-family="Arial" font-size="14.00" fill="#cfffac">../node_modules/react&#45;resizable/css/styles.css</text>
</g>
<!-- ui/components/Dialog.jsx&#45;&gt;../node_modules/react&#45;resizable/css/styles.css -->
<g id="edge77" class="edge">
<title>ui/components/Dialog.jsx&#45;&gt;../node_modules/react&#45;resizable/css/styles.css</title>
<path fill="none" stroke="#757575" d="M905.01,-93.5C923.9,-93.5 944.59,-93.5 965.48,-93.5"/>
<polygon fill="#757575" stroke="#757575" points="965.74,-97 975.74,-93.5 965.74,-90 965.74,-97"/>
</g>
<!-- ../node_modules/react&#45;resizable/index.js -->
<g id="node43" class="node">
<title>../node_modules/react&#45;resizable/index.js</title>
<path fill="none" stroke="#cfffac" d="M1245.83,-64C1245.83,-64 1002.17,-64 1002.17,-64 998.33,-64 994.5,-60.17 994.5,-56.33 994.5,-56.33 994.5,-48.67 994.5,-48.67 994.5,-44.83 998.33,-41 1002.17,-41 1002.17,-41 1245.83,-41 1245.83,-41 1249.67,-41 1253.5,-44.83 1253.5,-48.67 1253.5,-48.67 1253.5,-56.33 1253.5,-56.33 1253.5,-60.17 1249.67,-64 1245.83,-64"/>
<text text-anchor="middle" x="1124" y="-48.8" font-family="Arial" font-size="14.00" fill="#cfffac">../node_modules/react&#45;resizable/index.js</text>
</g>
<!-- ui/components/Dialog.jsx&#45;&gt;../node_modules/react&#45;resizable/index.js -->
<g id="edge78" class="edge">
<title>ui/components/Dialog.jsx&#45;&gt;../node_modules/react&#45;resizable/index.js</title>
<path fill="none" stroke="#757575" d="M904.5,-81.97C926.73,-78.86 950.78,-75.53 973,-72.5 989.97,-70.18 1008.03,-67.75 1025.52,-65.41"/>
<polygon fill="#757575" stroke="#757575" points="1026.29,-68.84 1035.74,-64.04 1025.36,-61.9 1026.29,-68.84"/>
</g>
<!-- ui/components/NumberInput.jsx&#45;&gt;../node_modules/react/index.js -->
<g id="edge81" class="edge">
<title>ui/components/NumberInput.jsx&#45;&gt;../node_modules/react/index.js</title>
<path fill="none" stroke="#757575" d="M925.92,-175.5C954.31,-175.5 985.19,-175.5 1013.9,-175.5"/>
<polygon fill="#757575" stroke="#757575" points="1013.96,-179 1023.96,-175.5 1013.96,-172 1013.96,-179"/>
</g>
<!-- ui/components/TextInput.jsx&#45;&gt;../node_modules/react/index.js -->
<g id="edge82" class="edge">
<title>ui/components/TextInput.jsx&#45;&gt;../node_modules/react/index.js</title>
<path fill="none" stroke="#757575" d="M907.01,-146.03C944.77,-151.18 989.44,-157.28 1028.33,-162.58"/>
<polygon fill="#757575" stroke="#757575" points="1028.23,-166.1 1038.61,-163.99 1029.17,-159.17 1028.23,-166.1"/>
</g>
</g>
</svg>
