<?xml version="1.0" encoding="UTF-8" standalone="no"?>
<!DOCTYPE svg PUBLIC "-//W3C//DTD SVG 1.1//EN"
 "http://www.w3.org/Graphics/SVG/1.1/DTD/svg11.dtd">
<!-- Generated by graphviz version 2.43.0 (0)
 -->
<!-- Title: G Pages: 1 -->
<svg width="1489pt" height="1010pt"
 viewBox="0.00 0.00 1489.20 1010.41" xmlns="http://www.w3.org/2000/svg" xmlns:xlink="http://www.w3.org/1999/xlink">
<g id="graph0" class="graph" transform="scale(1 1) rotate(0) translate(21.6 988.81)">
<title>G</title>
<polygon fill="#111111" stroke="transparent" points="-21.6,21.6 -21.6,-988.81 1467.6,-988.81 1467.6,21.6 -21.6,21.6"/>
<!-- components/keyboard.js -->
<g id="node1" class="node">
<title>components/keyboard.js</title>
<path fill="none" stroke="#cfffac" d="M402.33,-967.21C402.33,-967.21 253.67,-967.21 253.67,-967.21 249.83,-967.21 246,-963.38 246,-959.55 246,-959.55 246,-951.88 246,-951.88 246,-948.05 249.83,-944.21 253.67,-944.21 253.67,-944.21 402.33,-944.21 402.33,-944.21 406.17,-944.21 410,-948.05 410,-951.88 410,-951.88 410,-959.55 410,-959.55 410,-963.38 406.17,-967.21 402.33,-967.21"/>
<text text-anchor="middle" x="328" y="-952.01" font-family="Arial" font-size="14.00" fill="#cfffac">components/keyboard.js</text>
</g>
<!-- components/mouse.js -->
<g id="node2" class="node">
<title>components/mouse.js</title>
<path fill="none" stroke="#c6c5fe" d="M784.33,-870.21C784.33,-870.21 650.67,-870.21 650.67,-870.21 646.83,-870.21 643,-866.38 643,-862.55 643,-862.55 643,-854.88 643,-854.88 643,-851.05 646.83,-847.21 650.67,-847.21 650.67,-847.21 784.33,-847.21 784.33,-847.21 788.17,-847.21 792,-851.05 792,-854.88 792,-854.88 792,-862.55 792,-862.55 792,-866.38 788.17,-870.21 784.33,-870.21"/>
<text text-anchor="middle" x="717.5" y="-855.01" font-family="Arial" font-size="14.00" fill="#c6c5fe">components/mouse.js</text>
</g>
<!-- helpers.js -->
<g id="node3" class="node">
<title>helpers.js</title>
<path fill="none" stroke="#c6c5fe" d="M1140.83,-528.21C1140.83,-528.21 1082.17,-528.21 1082.17,-528.21 1078.33,-528.21 1074.5,-524.38 1074.5,-520.55 1074.5,-520.55 1074.5,-512.88 1074.5,-512.88 1074.5,-509.05 1078.33,-505.21 1082.17,-505.21 1082.17,-505.21 1140.83,-505.21 1140.83,-505.21 1144.67,-505.21 1148.5,-509.05 1148.5,-512.88 1148.5,-512.88 1148.5,-520.55 1148.5,-520.55 1148.5,-524.38 1144.67,-528.21 1140.83,-528.21"/>
<text text-anchor="middle" x="1111.5" y="-513.01" font-family="Arial" font-size="14.00" fill="#c6c5fe">helpers.js</text>
</g>
<!-- components/mouse.js&#45;&gt;helpers.js -->
<g id="edge1" class="edge">
<title>components/mouse.js&#45;&gt;helpers.js</title>
<path fill="none" stroke="#757575" d="M769.55,-847.19C822.51,-833.14 905.36,-805.07 962,-756.71 1035.98,-693.55 1084.53,-584.01 1102.59,-538.01"/>
<polygon fill="#757575" stroke="#757575" points="1105.94,-539.07 1106.26,-528.48 1099.41,-536.55 1105.94,-539.07"/>
</g>
<!-- particle.js -->
<g id="node7" class="node">
<title>particle.js</title>
<path fill="none" stroke="#cfffac" d="M1438.33,-334.21C1438.33,-334.21 1379.67,-334.21 1379.67,-334.21 1375.83,-334.21 1372,-330.38 1372,-326.55 1372,-326.55 1372,-318.88 1372,-318.88 1372,-315.05 1375.83,-311.21 1379.67,-311.21 1379.67,-311.21 1438.33,-311.21 1438.33,-311.21 1442.17,-311.21 1446,-315.05 1446,-318.88 1446,-318.88 1446,-326.55 1446,-326.55 1446,-330.38 1442.17,-334.21 1438.33,-334.21"/>
<text text-anchor="middle" x="1409" y="-319.01" font-family="Arial" font-size="14.00" fill="#cfffac">particle.js</text>
</g>
<!-- helpers.js&#45;&gt;particle.js -->
<g id="edge48" class="edge">
<title>helpers.js&#45;&gt;particle.js</title>
<path fill="none" stroke="#757575" d="M1148.61,-513.16C1171.53,-509.77 1201.23,-503.23 1225,-490.71 1297.81,-452.35 1363.76,-377.83 1392.62,-342.37"/>
<polygon fill="#757575" stroke="#757575" points="1395.61,-344.24 1399.13,-334.25 1390.15,-339.86 1395.61,-344.24"/>
</g>
<!-- components/ruler.js -->
<g id="node4" class="node">
<title>components/ruler.js</title>
<path fill="none" stroke="#c6c5fe" d="M585.83,-755.21C585.83,-755.21 467.17,-755.21 467.17,-755.21 463.33,-755.21 459.5,-751.38 459.5,-747.55 459.5,-747.55 459.5,-739.88 459.5,-739.88 459.5,-736.05 463.33,-732.21 467.17,-732.21 467.17,-732.21 585.83,-732.21 585.83,-732.21 589.67,-732.21 593.5,-736.05 593.5,-739.88 593.5,-739.88 593.5,-747.55 593.5,-747.55 593.5,-751.38 589.67,-755.21 585.83,-755.21"/>
<text text-anchor="middle" x="526.5" y="-740.01" font-family="Arial" font-size="14.00" fill="#c6c5fe">components/ruler.js</text>
</g>
<!-- components/ruler.js&#45;&gt;helpers.js -->
<g id="edge3" class="edge">
<title>components/ruler.js&#45;&gt;helpers.js</title>
<path fill="none" stroke="#757575" d="M593.55,-748.85C683.26,-752.72 845.75,-748.43 962,-680.71 1024.76,-644.15 1075.83,-572.12 1098.24,-536.97"/>
<polygon fill="#757575" stroke="#757575" points="1101.21,-538.81 1103.54,-528.48 1095.27,-535.1 1101.21,-538.81"/>
</g>
<!-- core.js -->
<g id="node5" class="node">
<title>core.js</title>
<path fill="none" stroke="#c6c5fe" d="M737.83,-388.21C737.83,-388.21 697.17,-388.21 697.17,-388.21 693.33,-388.21 689.5,-384.38 689.5,-380.55 689.5,-380.55 689.5,-372.88 689.5,-372.88 689.5,-369.05 693.33,-365.21 697.17,-365.21 697.17,-365.21 737.83,-365.21 737.83,-365.21 741.67,-365.21 745.5,-369.05 745.5,-372.88 745.5,-372.88 745.5,-380.55 745.5,-380.55 745.5,-384.38 741.67,-388.21 737.83,-388.21"/>
<text text-anchor="middle" x="717.5" y="-373.01" font-family="Arial" font-size="14.00" fill="#c6c5fe">core.js</text>
</g>
<!-- components/ruler.js&#45;&gt;core.js -->
<g id="edge2" class="edge">
<title>components/ruler.js&#45;&gt;core.js</title>
<path fill="none" stroke="#757575" d="M540.01,-732.12C557.06,-715.78 587.66,-684.41 607,-652.71 660.56,-564.94 697.13,-446.39 710.67,-398.31"/>
<polygon fill="#757575" stroke="#757575" points="714.12,-398.97 713.42,-388.4 707.37,-397.11 714.12,-398.97"/>
</g>
<!-- core.js&#45;&gt;helpers.js -->
<g id="edge12" class="edge">
<title>core.js&#45;&gt;helpers.js</title>
<path fill="none" stroke="#757575" d="M745.69,-378.87C791.65,-383.21 887.01,-395.23 962,-424.71 1009.88,-443.54 1059.51,-477.81 1087.55,-498.8"/>
<polygon fill="#757575" stroke="#757575" points="1085.78,-501.85 1095.86,-505.1 1090.01,-496.27 1085.78,-501.85"/>
</g>
<!-- core.js&#45;&gt;particle.js -->
<g id="edge13" class="edge">
<title>core.js&#45;&gt;particle.js</title>
<path fill="none" stroke="#757575" d="M724.05,-364.91C736.34,-338.77 766.75,-274.02 792,-219.71 808.09,-185.09 797.16,-164.23 828,-141.71 889.49,-96.82 922.01,-125.39 998,-120.71 1149.04,-111.42 1225.49,-58.34 1336,-161.71 1377.36,-200.41 1396.54,-267.24 1404,-301.35"/>
<polygon fill="#757575" stroke="#757575" points="1400.58,-302.1 1406.02,-311.19 1407.44,-300.69 1400.58,-302.1"/>
</g>
<!-- physics.js -->
<g id="node8" class="node">
<title>physics.js</title>
<path fill="none" stroke="#c6c5fe" d="M1328.33,-374.21C1328.33,-374.21 1268.67,-374.21 1268.67,-374.21 1264.83,-374.21 1261,-370.38 1261,-366.55 1261,-366.55 1261,-358.88 1261,-358.88 1261,-355.05 1264.83,-351.21 1268.67,-351.21 1268.67,-351.21 1328.33,-351.21 1328.33,-351.21 1332.17,-351.21 1336,-355.05 1336,-358.88 1336,-358.88 1336,-366.55 1336,-366.55 1336,-370.38 1332.17,-374.21 1328.33,-374.21"/>
<text text-anchor="middle" x="1298.5" y="-359.01" font-family="Arial" font-size="14.00" fill="#c6c5fe">physics.js</text>
</g>
<!-- core.js&#45;&gt;physics.js -->
<g id="edge14" class="edge">
<title>core.js&#45;&gt;physics.js</title>
<path fill="none" stroke="#757575" d="M730.31,-364.94C749.07,-347.15 787.72,-314.18 828,-301.71 911.54,-275.85 1214.2,-329.9 1225,-332.71 1238.42,-336.21 1252.63,-341.67 1264.88,-346.97"/>
<polygon fill="#757575" stroke="#757575" points="1263.67,-350.27 1274.23,-351.16 1266.53,-343.88 1263.67,-350.27"/>
</g>
<!-- gpu/field.js -->
<g id="node9" class="node">
<title>gpu/field.js</title>
<path fill="none" stroke="#c6c5fe" d="M927.83,-254.21C927.83,-254.21 862.17,-254.21 862.17,-254.21 858.33,-254.21 854.5,-250.38 854.5,-246.55 854.5,-246.55 854.5,-238.88 854.5,-238.88 854.5,-235.05 858.33,-231.21 862.17,-231.21 862.17,-231.21 927.83,-231.21 927.83,-231.21 931.67,-231.21 935.5,-235.05 935.5,-238.88 935.5,-238.88 935.5,-246.55 935.5,-246.55 935.5,-250.38 931.67,-254.21 927.83,-254.21"/>
<text text-anchor="middle" x="895" y="-239.01" font-family="Arial" font-size="14.00" fill="#c6c5fe">gpu/field.js</text>
</g>
<!-- core.js&#45;&gt;gpu/field.js -->
<g id="edge8" class="edge">
<title>core.js&#45;&gt;gpu/field.js</title>
<path fill="none" stroke="#757575" d="M727.55,-365.08C744.92,-343.44 785.03,-296.67 828,-268.71 834.1,-264.74 840.91,-261.22 847.76,-258.15"/>
<polygon fill="#757575" stroke="#757575" points="849.22,-261.33 857.08,-254.24 846.51,-254.88 849.22,-261.33"/>
</g>
<!-- gpu/graphics.js -->
<g id="node10" class="node">
<title>gpu/graphics.js</title>
<path fill="none" stroke="#c6c5fe" d="M940.83,-174.21C940.83,-174.21 849.17,-174.21 849.17,-174.21 845.33,-174.21 841.5,-170.38 841.5,-166.55 841.5,-166.55 841.5,-158.88 841.5,-158.88 841.5,-155.05 845.33,-151.21 849.17,-151.21 849.17,-151.21 940.83,-151.21 940.83,-151.21 944.67,-151.21 948.5,-155.05 948.5,-158.88 948.5,-158.88 948.5,-166.55 948.5,-166.55 948.5,-170.38 944.67,-174.21 940.83,-174.21"/>
<text text-anchor="middle" x="895" y="-159.01" font-family="Arial" font-size="14.00" fill="#c6c5fe">gpu/graphics.js</text>
</g>
<!-- core.js&#45;&gt;gpu/graphics.js -->
<g id="edge9" class="edge">
<title>core.js&#45;&gt;gpu/graphics.js</title>
<path fill="none" stroke="#757575" d="M722.32,-364.76C733.36,-332.01 768.38,-239.88 828,-188.71 832.49,-184.86 837.62,-181.54 842.99,-178.68"/>
<polygon fill="#757575" stroke="#757575" points="844.66,-181.76 852.19,-174.3 841.65,-175.44 844.66,-181.76"/>
</g>
<!-- gpu/shaders/computeShader.glsl.js -->
<g id="node11" class="node">
<title>gpu/shaders/computeShader.glsl.js</title>
<path fill="none" stroke="#c6c5fe" d="M1217.33,-218.21C1217.33,-218.21 1005.67,-218.21 1005.67,-218.21 1001.83,-218.21 998,-214.38 998,-210.55 998,-210.55 998,-202.88 998,-202.88 998,-199.05 1001.83,-195.21 1005.67,-195.21 1005.67,-195.21 1217.33,-195.21 1217.33,-195.21 1221.17,-195.21 1225,-199.05 1225,-202.88 1225,-202.88 1225,-210.55 1225,-210.55 1225,-214.38 1221.17,-218.21 1217.33,-218.21"/>
<text text-anchor="middle" x="1111.5" y="-203.01" font-family="Arial" font-size="14.00" fill="#c6c5fe">gpu/shaders/computeShader.glsl.js</text>
</g>
<!-- core.js&#45;&gt;gpu/shaders/computeShader.glsl.js -->
<g id="edge10" class="edge">
<title>core.js&#45;&gt;gpu/shaders/computeShader.glsl.js</title>
<path fill="none" stroke="#757575" d="M722.6,-365.04C733.89,-334.89 768.58,-254.51 828,-221.71 892.42,-186.15 978.21,-187.08 1038.28,-193.96"/>
<polygon fill="#757575" stroke="#757575" points="1038.08,-197.46 1048.44,-195.21 1038.94,-190.52 1038.08,-197.46"/>
</g>
<!-- gpu/simulation.js -->
<g id="node12" class="node">
<title>gpu/simulation.js</title>
<path fill="none" stroke="#c6c5fe" d="M946.33,-334.21C946.33,-334.21 843.67,-334.21 843.67,-334.21 839.83,-334.21 836,-330.38 836,-326.55 836,-326.55 836,-318.88 836,-318.88 836,-315.05 839.83,-311.21 843.67,-311.21 843.67,-311.21 946.33,-311.21 946.33,-311.21 950.17,-311.21 954,-315.05 954,-318.88 954,-318.88 954,-326.55 954,-326.55 954,-330.38 950.17,-334.21 946.33,-334.21"/>
<text text-anchor="middle" x="895" y="-319.01" font-family="Arial" font-size="14.00" fill="#c6c5fe">gpu/simulation.js</text>
</g>
<!-- core.js&#45;&gt;gpu/simulation.js -->
<g id="edge11" class="edge">
<title>core.js&#45;&gt;gpu/simulation.js</title>
<path fill="none" stroke="#757575" d="M745.54,-368.39C772.46,-360.11 814.35,-347.22 846.77,-337.24"/>
<polygon fill="#757575" stroke="#757575" points="847.97,-340.54 856.5,-334.25 845.92,-333.85 847.97,-340.54"/>
</g>
<!-- scenarios.js -->
<g id="node13" class="node">
<title>scenarios.js</title>
<path fill="none" stroke="#cfffac" d="M931.33,-94.21C931.33,-94.21 858.67,-94.21 858.67,-94.21 854.83,-94.21 851,-90.38 851,-86.55 851,-86.55 851,-78.88 851,-78.88 851,-75.05 854.83,-71.21 858.67,-71.21 858.67,-71.21 931.33,-71.21 931.33,-71.21 935.17,-71.21 939,-75.05 939,-78.88 939,-78.88 939,-86.55 939,-86.55 939,-90.38 935.17,-94.21 931.33,-94.21"/>
<text text-anchor="middle" x="895" y="-79.01" font-family="Arial" font-size="14.00" fill="#cfffac">scenarios.js</text>
</g>
<!-- core.js&#45;&gt;scenarios.js -->
<g id="edge15" class="edge">
<title>core.js&#45;&gt;scenarios.js</title>
<path fill="none" stroke="#757575" d="M723.67,-365.11C735.94,-337.49 767.59,-265.6 792,-204.71 808.96,-162.42 796.05,-141.2 828,-108.71 831.94,-104.71 836.57,-101.3 841.52,-98.41"/>
<polygon fill="#757575" stroke="#757575" points="843.37,-101.4 850.7,-93.75 840.2,-95.16 843.37,-101.4"/>
</g>
<!-- components/selection.js -->
<g id="node6" class="node">
<title>components/selection.js</title>
<path fill="none" stroke="#c6c5fe" d="M599.33,-644.21C599.33,-644.21 453.67,-644.21 453.67,-644.21 449.83,-644.21 446,-640.38 446,-636.55 446,-636.55 446,-628.88 446,-628.88 446,-625.05 449.83,-621.21 453.67,-621.21 453.67,-621.21 599.33,-621.21 599.33,-621.21 603.17,-621.21 607,-625.05 607,-628.88 607,-628.88 607,-636.55 607,-636.55 607,-640.38 603.17,-644.21 599.33,-644.21"/>
<text text-anchor="middle" x="526.5" y="-629.01" font-family="Arial" font-size="14.00" fill="#c6c5fe">components/selection.js</text>
</g>
<!-- components/selection.js&#45;&gt;helpers.js -->
<g id="edge5" class="edge">
<title>components/selection.js&#45;&gt;helpers.js</title>
<path fill="none" stroke="#757575" d="M607.2,-638.53C695.89,-642.52 842.47,-641.64 962,-604.71 1010.57,-589.71 1059.98,-555.95 1087.79,-534.88"/>
<polygon fill="#757575" stroke="#757575" points="1090.25,-537.4 1096.03,-528.52 1085.97,-531.86 1090.25,-537.4"/>
</g>
<!-- components/selection.js&#45;&gt;core.js -->
<g id="edge4" class="edge">
<title>components/selection.js&#45;&gt;core.js</title>
<path fill="none" stroke="#757575" d="M547.31,-621.08C564.62,-610.19 589.62,-592.66 607,-572.71 655.69,-516.85 692.46,-435.85 708.15,-397.87"/>
<polygon fill="#757575" stroke="#757575" points="711.5,-398.94 712.01,-388.35 705.01,-396.3 711.5,-398.94"/>
</g>
<!-- components/selection.js&#45;&gt;particle.js -->
<g id="edge6" class="edge">
<title>components/selection.js&#45;&gt;particle.js</title>
<path fill="none" stroke="#757575" d="M543.37,-644.33C592.65,-679.22 748.52,-780.71 894,-780.71 894,-780.71 894,-780.71 1112.5,-780.71 1322.79,-780.71 1390.66,-435.57 1404.91,-344.52"/>
<polygon fill="#757575" stroke="#757575" points="1408.39,-344.9 1406.42,-334.49 1401.47,-343.86 1408.39,-344.9"/>
</g>
<!-- components/selection.js&#45;&gt;physics.js -->
<g id="edge7" class="edge">
<title>components/selection.js&#45;&gt;physics.js</title>
<path fill="none" stroke="#757575" d="M582.77,-644.27C601.77,-647.71 623.23,-651.01 643,-652.71 784.53,-664.88 823.8,-665.59 962,-632.71 1083.05,-603.91 1135.06,-622.71 1225,-536.71 1269.37,-494.29 1287.64,-420.6 1294.24,-384.26"/>
<polygon fill="#757575" stroke="#757575" points="1297.72,-384.69 1295.93,-374.25 1290.81,-383.53 1297.72,-384.69"/>
</g>
<!-- physics.js&#45;&gt;particle.js -->
<g id="edge50" class="edge">
<title>physics.js&#45;&gt;particle.js</title>
<path fill="none" stroke="#757575" d="M1330.88,-351.14C1342.24,-346.96 1355.24,-342.16 1367.28,-337.72"/>
<polygon fill="#757575" stroke="#757575" points="1368.52,-341 1376.69,-334.26 1366.09,-334.43 1368.52,-341"/>
</g>
<!-- gpu/field.js&#45;&gt;helpers.js -->
<g id="edge16" class="edge">
<title>gpu/field.js&#45;&gt;helpers.js</title>
<path fill="none" stroke="#757575" d="M910.82,-254.24C924.83,-265.53 946.04,-283.62 962,-301.71 1019.82,-367.26 1074.73,-455.93 1098.35,-495.78"/>
<polygon fill="#757575" stroke="#757575" points="1095.58,-497.98 1103.66,-504.82 1101.61,-494.43 1095.58,-497.98"/>
</g>
<!-- gpu/field.js&#45;&gt;particle.js -->
<g id="edge17" class="edge">
<title>gpu/field.js&#45;&gt;particle.js</title>
<path fill="none" stroke="#757575" d="M935.75,-248.92C1029.13,-263.51 1262.09,-299.91 1361.67,-315.47"/>
<polygon fill="#757575" stroke="#757575" points="1361.31,-318.96 1371.73,-317.05 1362.39,-312.04 1361.31,-318.96"/>
</g>
<!-- gpu/graphics.js&#45;&gt;helpers.js -->
<g id="edge20" class="edge">
<title>gpu/graphics.js&#45;&gt;helpers.js</title>
<path fill="none" stroke="#757575" d="M912.23,-174.4C926.64,-185.39 947.6,-202.93 962,-221.71 1032.65,-313.92 1084.48,-444.93 1103.03,-495.59"/>
<polygon fill="#757575" stroke="#757575" points="1099.79,-496.92 1106.48,-505.14 1106.37,-494.54 1099.79,-496.92"/>
</g>
<!-- gpu/graphics.js&#45;&gt;particle.js -->
<g id="edge21" class="edge">
<title>gpu/graphics.js&#45;&gt;particle.js</title>
<path fill="none" stroke="#757575" d="M931.72,-151.16C993.94,-133.08 1125.1,-104.14 1225,-144.71 1304.83,-177.14 1368.95,-262.97 1395.18,-302.39"/>
<polygon fill="#757575" stroke="#757575" points="1392.36,-304.46 1400.75,-310.93 1398.22,-300.64 1392.36,-304.46"/>
</g>
<!-- gpu/graphics.js&#45;&gt;gpu/shaders/computeShader.glsl.js -->
<g id="edge18" class="edge">
<title>gpu/graphics.js&#45;&gt;gpu/shaders/computeShader.glsl.js</title>
<path fill="none" stroke="#757575" d="M945.47,-174.26C962.13,-178.04 980.84,-182.18 998,-185.71 1010.36,-188.26 1023.51,-190.83 1036.3,-193.27"/>
<polygon fill="#757575" stroke="#757575" points="1035.99,-196.77 1046.46,-195.19 1037.29,-189.89 1035.99,-196.77"/>
</g>
<!-- gpu/shaders/particleShader.glsl.js -->
<g id="node14" class="node">
<title>gpu/shaders/particleShader.glsl.js</title>
<path fill="none" stroke="#cfffac" d="M1212.83,-177.21C1212.83,-177.21 1010.17,-177.21 1010.17,-177.21 1006.33,-177.21 1002.5,-173.38 1002.5,-169.55 1002.5,-169.55 1002.5,-161.88 1002.5,-161.88 1002.5,-158.05 1006.33,-154.21 1010.17,-154.21 1010.17,-154.21 1212.83,-154.21 1212.83,-154.21 1216.67,-154.21 1220.5,-158.05 1220.5,-161.88 1220.5,-161.88 1220.5,-169.55 1220.5,-169.55 1220.5,-173.38 1216.67,-177.21 1212.83,-177.21"/>
<text text-anchor="middle" x="1111.5" y="-162.01" font-family="Arial" font-size="14.00" fill="#cfffac">gpu/shaders/particleShader.glsl.js</text>
</g>
<!-- gpu/graphics.js&#45;&gt;gpu/shaders/particleShader.glsl.js -->
<g id="edge19" class="edge">
<title>gpu/graphics.js&#45;&gt;gpu/shaders/particleShader.glsl.js</title>
<path fill="none" stroke="#757575" d="M948.75,-163.45C961.95,-163.64 976.65,-163.84 991.66,-164.05"/>
<polygon fill="#757575" stroke="#757575" points="992.04,-167.56 1002.09,-164.2 992.14,-160.56 992.04,-167.56"/>
</g>
<!-- gpu/shaders/computeShader.glsl.js&#45;&gt;physics.js -->
<g id="edge22" class="edge">
<title>gpu/shaders/computeShader.glsl.js&#45;&gt;physics.js</title>
<path fill="none" stroke="#757575" d="M1139.35,-218.35C1163.38,-229.57 1198.76,-248.15 1225,-270.71 1249.62,-291.89 1271.74,-322.45 1284.9,-342.44"/>
<polygon fill="#757575" stroke="#757575" points="1282.09,-344.55 1290.45,-351.07 1287.98,-340.77 1282.09,-344.55"/>
</g>
<!-- gpu/simulation.js&#45;&gt;helpers.js -->
<g id="edge23" class="edge">
<title>gpu/simulation.js&#45;&gt;helpers.js</title>
<path fill="none" stroke="#757575" d="M934.22,-334.25C943.75,-338.05 953.63,-342.85 962,-348.71 1022,-390.74 1074.03,-461.76 1097.39,-496.44"/>
<polygon fill="#757575" stroke="#757575" points="1094.5,-498.42 1102.95,-504.82 1100.34,-494.55 1094.5,-498.42"/>
</g>
<!-- gpu/simulation.js&#45;&gt;particle.js -->
<g id="edge24" class="edge">
<title>gpu/simulation.js&#45;&gt;particle.js</title>
<path fill="none" stroke="#757575" d="M954.23,-322.71C1056.93,-322.71 1268.18,-322.71 1361.7,-322.71"/>
<polygon fill="#757575" stroke="#757575" points="1361.71,-326.21 1371.71,-322.71 1361.71,-319.21 1361.71,-326.21"/>
</g>
<!-- gpu/simulation.js&#45;&gt;physics.js -->
<g id="edge25" class="edge">
<title>gpu/simulation.js&#45;&gt;physics.js</title>
<path fill="none" stroke="#757575" d="M954.19,-331.21C968.5,-333.16 983.79,-335.12 998,-336.71 1087.05,-346.68 1191.37,-354.97 1250.42,-359.35"/>
<polygon fill="#757575" stroke="#757575" points="1250.32,-362.86 1260.56,-360.1 1250.84,-355.88 1250.32,-362.86"/>
</g>
<!-- gui/advanced.js -->
<g id="node15" class="node">
<title>gui/advanced.js</title>
<path fill="none" stroke="#c6c5fe" d="M573.83,-564.21C573.83,-564.21 479.17,-564.21 479.17,-564.21 475.33,-564.21 471.5,-560.38 471.5,-556.55 471.5,-556.55 471.5,-548.88 471.5,-548.88 471.5,-545.05 475.33,-541.21 479.17,-541.21 479.17,-541.21 573.83,-541.21 573.83,-541.21 577.67,-541.21 581.5,-545.05 581.5,-548.88 581.5,-548.88 581.5,-556.55 581.5,-556.55 581.5,-560.38 577.67,-564.21 573.83,-564.21"/>
<text text-anchor="middle" x="526.5" y="-549.01" font-family="Arial" font-size="14.00" fill="#c6c5fe">gui/advanced.js</text>
</g>
<!-- gui/advanced.js&#45;&gt;helpers.js -->
<g id="edge27" class="edge">
<title>gui/advanced.js&#45;&gt;helpers.js</title>
<path fill="none" stroke="#757575" d="M581.73,-550.44C663.99,-546.86 825.23,-539.32 962,-529.71 996.14,-527.32 1034.64,-523.93 1063.89,-521.21"/>
<polygon fill="#757575" stroke="#757575" points="1064.59,-524.66 1074.22,-520.24 1063.93,-517.69 1064.59,-524.66"/>
</g>
<!-- gui/advanced.js&#45;&gt;core.js -->
<g id="edge26" class="edge">
<title>gui/advanced.js&#45;&gt;core.js</title>
<path fill="none" stroke="#757575" d="M581.91,-543.79C590.77,-540.84 599.5,-536.92 607,-531.71 657.03,-496.97 691.91,-431.57 707.43,-397.91"/>
<polygon fill="#757575" stroke="#757575" points="710.72,-399.11 711.61,-388.55 704.33,-396.25 710.72,-399.11"/>
</g>
<!-- gui/controls.js -->
<g id="node16" class="node">
<title>gui/controls.js</title>
<path fill="none" stroke="#c6c5fe" d="M568.33,-329.21C568.33,-329.21 484.67,-329.21 484.67,-329.21 480.83,-329.21 477,-325.38 477,-321.55 477,-321.55 477,-313.88 477,-313.88 477,-310.05 480.83,-306.21 484.67,-306.21 484.67,-306.21 568.33,-306.21 568.33,-306.21 572.17,-306.21 576,-310.05 576,-313.88 576,-313.88 576,-321.55 576,-321.55 576,-325.38 572.17,-329.21 568.33,-329.21"/>
<text text-anchor="middle" x="526.5" y="-314.01" font-family="Arial" font-size="14.00" fill="#c6c5fe">gui/controls.js</text>
</g>
<!-- gui/controls.js&#45;&gt;helpers.js -->
<g id="edge29" class="edge">
<title>gui/controls.js&#45;&gt;helpers.js</title>
<path fill="none" stroke="#757575" d="M541.12,-329.41C561.8,-346.58 602.95,-378.56 643,-396.71 789.31,-463.03 978.66,-497.32 1064.54,-510.36"/>
<polygon fill="#757575" stroke="#757575" points="1064.08,-513.83 1074.49,-511.84 1065.11,-506.9 1064.08,-513.83"/>
</g>
<!-- gui/controls.js&#45;&gt;core.js -->
<g id="edge28" class="edge">
<title>gui/controls.js&#45;&gt;core.js</title>
<path fill="none" stroke="#757575" d="M564.39,-329.23C597.69,-339.62 646.41,-354.83 679.68,-365.22"/>
<polygon fill="#757575" stroke="#757575" points="678.89,-368.64 689.48,-368.28 680.98,-361.96 678.89,-368.64"/>
</g>
<!-- gui/controls.js&#45;&gt;scenarios.js -->
<g id="edge30" class="edge">
<title>gui/controls.js&#45;&gt;scenarios.js</title>
<path fill="none" stroke="#757575" d="M576.3,-308.5C586.76,-305.53 597.51,-301.67 607,-296.71 721.29,-236.98 717.4,-175.02 828,-108.71 834.46,-104.84 841.61,-101.33 848.74,-98.24"/>
<polygon fill="#757575" stroke="#757575" points="850.46,-101.31 858.39,-94.27 847.81,-94.83 850.46,-101.31"/>
</g>
<!-- gui/dat.gui.js -->
<g id="node17" class="node">
<title>gui/dat.gui.js</title>
<path fill="none" stroke="#cfffac" d="M366.33,-215.21C366.33,-215.21 289.67,-215.21 289.67,-215.21 285.83,-215.21 282,-211.38 282,-207.55 282,-207.55 282,-199.88 282,-199.88 282,-196.05 285.83,-192.21 289.67,-192.21 289.67,-192.21 366.33,-192.21 366.33,-192.21 370.17,-192.21 374,-196.05 374,-199.88 374,-199.88 374,-207.55 374,-207.55 374,-211.38 370.17,-215.21 366.33,-215.21"/>
<text text-anchor="middle" x="328" y="-200.01" font-family="Arial" font-size="14.00" fill="#cfffac">gui/dat.gui.js</text>
</g>
<!-- gui/field.js -->
<g id="node18" class="node">
<title>gui/field.js</title>
<path fill="none" stroke="#c6c5fe" d="M358.83,-446.21C358.83,-446.21 297.17,-446.21 297.17,-446.21 293.33,-446.21 289.5,-442.38 289.5,-438.55 289.5,-438.55 289.5,-430.88 289.5,-430.88 289.5,-427.05 293.33,-423.21 297.17,-423.21 297.17,-423.21 358.83,-423.21 358.83,-423.21 362.67,-423.21 366.5,-427.05 366.5,-430.88 366.5,-430.88 366.5,-438.55 366.5,-438.55 366.5,-442.38 362.67,-446.21 358.83,-446.21"/>
<text text-anchor="middle" x="328" y="-431.01" font-family="Arial" font-size="14.00" fill="#c6c5fe">gui/field.js</text>
</g>
<!-- gui/field.js&#45;&gt;core.js -->
<g id="edge31" class="edge">
<title>gui/field.js&#45;&gt;core.js</title>
<path fill="none" stroke="#757575" d="M366.51,-429.1C440.55,-418.02 604.74,-393.44 678.87,-382.34"/>
<polygon fill="#757575" stroke="#757575" points="679.77,-385.75 689.14,-380.81 678.73,-378.83 679.77,-385.75"/>
</g>
<!-- gui/generator.js -->
<g id="node19" class="node">
<title>gui/generator.js</title>
<path fill="none" stroke="#c6c5fe" d="M374.83,-699.21C374.83,-699.21 281.17,-699.21 281.17,-699.21 277.33,-699.21 273.5,-695.38 273.5,-691.55 273.5,-691.55 273.5,-683.88 273.5,-683.88 273.5,-680.05 277.33,-676.21 281.17,-676.21 281.17,-676.21 374.83,-676.21 374.83,-676.21 378.67,-676.21 382.5,-680.05 382.5,-683.88 382.5,-683.88 382.5,-691.55 382.5,-691.55 382.5,-695.38 378.67,-699.21 374.83,-699.21"/>
<text text-anchor="middle" x="328" y="-684.01" font-family="Arial" font-size="14.00" fill="#c6c5fe">gui/generator.js</text>
</g>
<!-- gui/generator.js&#45;&gt;helpers.js -->
<g id="edge34" class="edge">
<title>gui/generator.js&#45;&gt;helpers.js</title>
<path fill="none" stroke="#757575" d="M382.77,-693.5C495.19,-703.41 761.27,-715.25 962,-632.71 1016.02,-610.5 1066.92,-562.85 1092.77,-536.05"/>
<polygon fill="#757575" stroke="#757575" points="1095.63,-538.12 1099.97,-528.45 1090.55,-533.3 1095.63,-538.12"/>
</g>
<!-- gui/generator.js&#45;&gt;core.js -->
<g id="edge33" class="edge">
<title>gui/generator.js&#45;&gt;core.js</title>
<path fill="none" stroke="#757575" d="M346.09,-675.99C364.47,-662.53 393.28,-638.78 410,-611.71 439.48,-563.97 405.2,-529.23 446,-490.71 499.46,-440.24 539.85,-482.64 607,-452.71 640.44,-437.81 674.37,-412.3 695.41,-394.99"/>
<polygon fill="#757575" stroke="#757575" points="697.92,-397.45 703.34,-388.35 693.42,-392.08 697.92,-397.45"/>
</g>
<!-- gui/generator.js&#45;&gt;components/selection.js -->
<g id="edge32" class="edge">
<title>gui/generator.js&#45;&gt;components/selection.js</title>
<path fill="none" stroke="#757575" d="M370.19,-676.18C400.59,-667.68 442.13,-656.05 474.6,-646.96"/>
<polygon fill="#757575" stroke="#757575" points="475.67,-650.29 484.36,-644.23 473.79,-643.55 475.67,-650.29"/>
</g>
<!-- gui/generator.js&#45;&gt;physics.js -->
<g id="edge35" class="edge">
<title>gui/generator.js&#45;&gt;physics.js</title>
<path fill="none" stroke="#757575" d="M346.78,-699.54C378.84,-720.85 443.3,-763.6 446,-764.71 559.41,-811.27 593.91,-818.71 716.5,-818.71 716.5,-818.71 716.5,-818.71 896,-818.71 1072.9,-818.71 1119.65,-736.82 1225,-594.71 1274.01,-528.6 1290.42,-428.58 1295.46,-384.68"/>
<polygon fill="#757575" stroke="#757575" points="1298.96,-384.86 1296.53,-374.55 1292,-384.12 1298.96,-384.86"/>
</g>
<!-- scenariosHelpers.js -->
<g id="node20" class="node">
<title>scenariosHelpers.js</title>
<path fill="none" stroke="#c6c5fe" d="M954.33,-908.21C954.33,-908.21 835.67,-908.21 835.67,-908.21 831.83,-908.21 828,-904.38 828,-900.55 828,-900.55 828,-892.88 828,-892.88 828,-889.05 831.83,-885.21 835.67,-885.21 835.67,-885.21 954.33,-885.21 954.33,-885.21 958.17,-885.21 962,-889.05 962,-892.88 962,-892.88 962,-900.55 962,-900.55 962,-904.38 958.17,-908.21 954.33,-908.21"/>
<text text-anchor="middle" x="895" y="-893.01" font-family="Arial" font-size="14.00" fill="#c6c5fe">scenariosHelpers.js</text>
</g>
<!-- gui/generator.js&#45;&gt;scenariosHelpers.js -->
<g id="edge36" class="edge">
<title>gui/generator.js&#45;&gt;scenariosHelpers.js</title>
<path fill="none" stroke="#757575" d="M334.83,-699.28C349.44,-727.02 390.47,-797.66 446,-832.71 560.27,-904.83 723.2,-908.94 817.83,-903.86"/>
<polygon fill="#757575" stroke="#757575" points="818.12,-907.35 827.9,-903.27 817.71,-900.36 818.12,-907.35"/>
</g>
<!-- scenariosHelpers.js&#45;&gt;helpers.js -->
<g id="edge51" class="edge">
<title>scenariosHelpers.js&#45;&gt;helpers.js</title>
<path fill="none" stroke="#757575" d="M939.79,-885.18C947.89,-881.55 955.75,-876.83 962,-870.71 1061.56,-773.31 1097.54,-599.01 1107.39,-538.28"/>
<polygon fill="#757575" stroke="#757575" points="1110.86,-538.73 1108.93,-528.31 1103.94,-537.66 1110.86,-538.73"/>
</g>
<!-- scenariosHelpers.js&#45;&gt;particle.js -->
<g id="edge52" class="edge">
<title>scenariosHelpers.js&#45;&gt;particle.js</title>
<path fill="none" stroke="#757575" d="M962.1,-903.52C1060.7,-909.57 1244.48,-904.22 1336,-794.71 1394.32,-724.93 1405.56,-428.04 1407.58,-344.6"/>
<polygon fill="#757575" stroke="#757575" points="1411.08,-344.57 1407.81,-334.49 1404.09,-344.41 1411.08,-344.57"/>
</g>
<!-- gui/info.js -->
<g id="node21" class="node">
<title>gui/info.js</title>
<path fill="none" stroke="#c6c5fe" d="M555.83,-523.21C555.83,-523.21 497.17,-523.21 497.17,-523.21 493.33,-523.21 489.5,-519.38 489.5,-515.55 489.5,-515.55 489.5,-507.88 489.5,-507.88 489.5,-504.05 493.33,-500.21 497.17,-500.21 497.17,-500.21 555.83,-500.21 555.83,-500.21 559.67,-500.21 563.5,-504.05 563.5,-507.88 563.5,-507.88 563.5,-515.55 563.5,-515.55 563.5,-519.38 559.67,-523.21 555.83,-523.21"/>
<text text-anchor="middle" x="526.5" y="-508.01" font-family="Arial" font-size="14.00" fill="#c6c5fe">gui/info.js</text>
</g>
<!-- gui/info.js&#45;&gt;helpers.js -->
<g id="edge38" class="edge">
<title>gui/info.js&#45;&gt;helpers.js</title>
<path fill="none" stroke="#757575" d="M563.53,-512.02C664.76,-512.89 951.69,-515.35 1064.31,-516.32"/>
<polygon fill="#757575" stroke="#757575" points="1064.31,-519.82 1074.34,-516.4 1064.37,-512.82 1064.31,-519.82"/>
</g>
<!-- gui/info.js&#45;&gt;core.js -->
<g id="edge37" class="edge">
<title>gui/info.js&#45;&gt;core.js</title>
<path fill="none" stroke="#757575" d="M563.88,-503.68C577.99,-499.59 593.87,-493.75 607,-485.71 646.32,-461.63 682.2,-420.75 701.54,-396.48"/>
<polygon fill="#757575" stroke="#757575" points="704.49,-398.39 707.89,-388.35 698.97,-394.08 704.49,-398.39"/>
</g>
<!-- gui/info.js&#45;&gt;physics.js -->
<g id="edge39" class="edge">
<title>gui/info.js&#45;&gt;physics.js</title>
<path fill="none" stroke="#757575" d="M563.61,-504.73C689.5,-480.37 1109.06,-399.18 1250.49,-371.81"/>
<polygon fill="#757575" stroke="#757575" points="1251.42,-375.19 1260.58,-369.86 1250.09,-368.32 1251.42,-375.19"/>
</g>
<!-- gui/parameters.js -->
<g id="node22" class="node">
<title>gui/parameters.js</title>
<path fill="none" stroke="#c6c5fe" d="M579.33,-288.21C579.33,-288.21 473.67,-288.21 473.67,-288.21 469.83,-288.21 466,-284.38 466,-280.55 466,-280.55 466,-272.88 466,-272.88 466,-269.05 469.83,-265.21 473.67,-265.21 473.67,-265.21 579.33,-265.21 579.33,-265.21 583.17,-265.21 587,-269.05 587,-272.88 587,-272.88 587,-280.55 587,-280.55 587,-284.38 583.17,-288.21 579.33,-288.21"/>
<text text-anchor="middle" x="526.5" y="-273.01" font-family="Arial" font-size="14.00" fill="#c6c5fe">gui/parameters.js</text>
</g>
<!-- gui/parameters.js&#45;&gt;core.js -->
<g id="edge40" class="edge">
<title>gui/parameters.js&#45;&gt;core.js</title>
<path fill="none" stroke="#757575" d="M587.38,-286.6C594.35,-289.22 601.07,-292.53 607,-296.71 630.57,-313.35 620.24,-333 643,-350.71 653.62,-358.98 667.08,-364.75 679.56,-368.71"/>
<polygon fill="#757575" stroke="#757575" points="678.72,-372.11 689.3,-371.51 680.66,-365.38 678.72,-372.11"/>
</g>
<!-- gui/parameters.js&#45;&gt;physics.js -->
<g id="edge41" class="edge">
<title>gui/parameters.js&#45;&gt;physics.js</title>
<path fill="none" stroke="#757575" d="M587.17,-268.33C594.5,-265.28 601.38,-261.19 607,-255.71 647.81,-215.97 604.4,-174.6 643,-132.71 741.42,-25.9 818.45,-39.6 962,-61.71 1083.14,-80.37 1137.67,-58.71 1225,-144.71 1280.42,-199.29 1293.48,-297.23 1296.55,-340.79"/>
<polygon fill="#757575" stroke="#757575" points="1293.06,-341.09 1297.15,-350.86 1300.05,-340.67 1293.06,-341.09"/>
</g>
<!-- gui/particle.js -->
<g id="node23" class="node">
<title>gui/particle.js</title>
<path fill="none" stroke="#c6c5fe" d="M566.33,-247.21C566.33,-247.21 486.67,-247.21 486.67,-247.21 482.83,-247.21 479,-243.38 479,-239.55 479,-239.55 479,-231.88 479,-231.88 479,-228.05 482.83,-224.21 486.67,-224.21 486.67,-224.21 566.33,-224.21 566.33,-224.21 570.17,-224.21 574,-228.05 574,-231.88 574,-231.88 574,-239.55 574,-239.55 574,-243.38 570.17,-247.21 566.33,-247.21"/>
<text text-anchor="middle" x="526.5" y="-232.01" font-family="Arial" font-size="14.00" fill="#c6c5fe">gui/particle.js</text>
</g>
<!-- gui/particle.js&#45;&gt;helpers.js -->
<g id="edge43" class="edge">
<title>gui/particle.js&#45;&gt;helpers.js</title>
<path fill="none" stroke="#757575" d="M574.03,-246.35C584.92,-249.14 596.43,-252.32 607,-255.71 707.5,-287.99 728.7,-306.9 828,-342.71 886.97,-363.98 907.54,-355.67 962,-386.71 1015.64,-417.3 1067.35,-469.24 1093.26,-497.32"/>
<polygon fill="#757575" stroke="#757575" points="1090.84,-499.86 1100.16,-504.89 1096.02,-495.14 1090.84,-499.86"/>
</g>
<!-- gui/particle.js&#45;&gt;core.js -->
<g id="edge42" class="edge">
<title>gui/particle.js&#45;&gt;core.js</title>
<path fill="none" stroke="#757575" d="M574.02,-239.69C585.89,-242.65 597.86,-247.57 607,-255.71 640.72,-285.74 610.72,-319.14 643,-350.71 652.85,-360.35 666.49,-366.43 679.34,-370.26"/>
<polygon fill="#757575" stroke="#757575" points="678.84,-373.75 689.4,-372.88 680.6,-366.97 678.84,-373.75"/>
</g>
<!-- gui/particle.js&#45;&gt;particle.js -->
<g id="edge44" class="edge">
<title>gui/particle.js&#45;&gt;particle.js</title>
<path fill="none" stroke="#757575" d="M530.81,-223.83C541.02,-189.57 575.49,-90.16 643,-44.71 736.71,18.37 781.04,-4.71 894,-4.71 894,-4.71 894,-4.71 1112.5,-4.71 1222.06,-4.71 1262.94,-27.06 1336,-108.71 1386.64,-165.31 1401.87,-258.81 1406.28,-300.94"/>
<polygon fill="#757575" stroke="#757575" points="1402.82,-301.53 1407.24,-311.16 1409.79,-300.88 1402.82,-301.53"/>
</g>
<!-- gui/selection.js -->
<g id="node24" class="node">
<title>gui/selection.js</title>
<path fill="none" stroke="#c6c5fe" d="M372.83,-603.21C372.83,-603.21 283.17,-603.21 283.17,-603.21 279.33,-603.21 275.5,-599.38 275.5,-595.55 275.5,-595.55 275.5,-587.88 275.5,-587.88 275.5,-584.05 279.33,-580.21 283.17,-580.21 283.17,-580.21 372.83,-580.21 372.83,-580.21 376.67,-580.21 380.5,-584.05 380.5,-587.88 380.5,-587.88 380.5,-595.55 380.5,-595.55 380.5,-599.38 376.67,-603.21 372.83,-603.21"/>
<text text-anchor="middle" x="328" y="-588.01" font-family="Arial" font-size="14.00" fill="#c6c5fe">gui/selection.js</text>
</g>
<!-- gui/selection.js&#45;&gt;helpers.js -->
<g id="edge47" class="edge">
<title>gui/selection.js&#45;&gt;helpers.js</title>
<path fill="none" stroke="#757575" d="M380.54,-590.73C488.77,-588.11 747.4,-578.96 962,-548.71 996.69,-543.82 1035.36,-535.39 1064.55,-528.41"/>
<polygon fill="#757575" stroke="#757575" points="1065.56,-531.77 1074.45,-526.01 1063.91,-524.96 1065.56,-531.77"/>
</g>
<!-- gui/selection.js&#45;&gt;core.js -->
<g id="edge46" class="edge">
<title>gui/selection.js&#45;&gt;core.js</title>
<path fill="none" stroke="#757575" d="M335.75,-579.86C351.44,-553.45 393.1,-489.6 446,-457.71 508.97,-419.76 536.83,-441.65 607,-419.71 632.02,-411.89 659.47,-401.1 680.63,-392.29"/>
<polygon fill="#757575" stroke="#757575" points="682.02,-395.5 689.88,-388.4 679.31,-389.05 682.02,-395.5"/>
</g>
<!-- gui/selection.js&#45;&gt;components/selection.js -->
<g id="edge45" class="edge">
<title>gui/selection.js&#45;&gt;components/selection.js</title>
<path fill="none" stroke="#757575" d="M380.63,-602.48C404.92,-607.55 434.16,-613.66 460,-619.05"/>
<polygon fill="#757575" stroke="#757575" points="459.58,-622.53 470.09,-621.15 461.01,-615.68 459.58,-622.53"/>
</g>
<!-- gui/stats.js -->
<g id="node25" class="node">
<title>gui/stats.js</title>
<path fill="none" stroke="#cfffac" d="M360.33,-174.21C360.33,-174.21 295.67,-174.21 295.67,-174.21 291.83,-174.21 288,-170.38 288,-166.55 288,-166.55 288,-158.88 288,-158.88 288,-155.05 291.83,-151.21 295.67,-151.21 295.67,-151.21 360.33,-151.21 360.33,-151.21 364.17,-151.21 368,-155.05 368,-158.88 368,-158.88 368,-166.55 368,-166.55 368,-170.38 364.17,-174.21 360.33,-174.21"/>
<text text-anchor="middle" x="328" y="-159.01" font-family="Arial" font-size="14.00" fill="#cfffac">gui/stats.js</text>
</g>
<!-- main.js -->
<g id="node26" class="node">
<title>main.js</title>
<path fill="none" stroke="#c6c5fe" d="M81.33,-523.21C81.33,-523.21 36.67,-523.21 36.67,-523.21 32.83,-523.21 29,-519.38 29,-515.55 29,-515.55 29,-507.88 29,-507.88 29,-504.05 32.83,-500.21 36.67,-500.21 36.67,-500.21 81.33,-500.21 81.33,-500.21 85.17,-500.21 89,-504.05 89,-507.88 89,-507.88 89,-515.55 89,-515.55 89,-519.38 85.17,-523.21 81.33,-523.21"/>
<text text-anchor="middle" x="59" y="-508.01" font-family="Arial" font-size="14.00" fill="#c6c5fe">main.js</text>
</g>
<!-- view.js -->
<g id="node27" class="node">
<title>view.js</title>
<path fill="none" stroke="#c6c5fe" d="M202.33,-523.21C202.33,-523.21 161.67,-523.21 161.67,-523.21 157.83,-523.21 154,-519.38 154,-515.55 154,-515.55 154,-507.88 154,-507.88 154,-504.05 157.83,-500.21 161.67,-500.21 161.67,-500.21 202.33,-500.21 202.33,-500.21 206.17,-500.21 210,-504.05 210,-507.88 210,-507.88 210,-515.55 210,-515.55 210,-519.38 206.17,-523.21 202.33,-523.21"/>
<text text-anchor="middle" x="182" y="-508.01" font-family="Arial" font-size="14.00" fill="#c6c5fe">view.js</text>
</g>
<!-- main.js&#45;&gt;view.js -->
<g id="edge49" class="edge">
<title>main.js&#45;&gt;view.js</title>
<path fill="none" stroke="#757575" d="M89.29,-511.71C105.51,-511.71 125.85,-511.71 143.25,-511.71"/>
<polygon fill="#757575" stroke="#757575" points="143.64,-515.21 153.64,-511.71 143.64,-508.21 143.64,-515.21"/>
</g>
<!-- view.js&#45;&gt;components/keyboard.js -->
<g id="edge53" class="edge">
<title>view.js&#45;&gt;components/keyboard.js</title>
<path fill="none" stroke="#757575" d="M183.15,-523.33C184.17,-584.21 191.79,-865.99 246,-929.71 248.99,-933.22 252.45,-936.27 256.23,-938.9"/>
<polygon fill="#757575" stroke="#757575" points="254.55,-941.98 264.94,-944.04 258.11,-935.95 254.55,-941.98"/>
</g>
<!-- view.js&#45;&gt;components/mouse.js -->
<g id="edge54" class="edge">
<title>view.js&#45;&gt;components/mouse.js</title>
<path fill="none" stroke="#757575" d="M182.78,-523.3C182.7,-560.38 187.33,-677.7 246,-745.71 341.68,-856.64 525.31,-868.88 632.69,-865.41"/>
<polygon fill="#757575" stroke="#757575" points="632.97,-868.9 642.83,-865.02 632.71,-861.9 632.97,-868.9"/>
</g>
<!-- view.js&#45;&gt;components/ruler.js -->
<g id="edge55" class="edge">
<title>view.js&#45;&gt;components/ruler.js</title>
<path fill="none" stroke="#757575" d="M182.75,-523.35C182.71,-557.87 187.71,-660.31 246,-708.71 302.05,-755.25 387.5,-759.48 449.16,-754.88"/>
<polygon fill="#757575" stroke="#757575" points="449.56,-758.36 459.23,-754.04 448.97,-751.38 449.56,-758.36"/>
</g>
<!-- view.js&#45;&gt;core.js -->
<g id="edge57" class="edge">
<title>view.js&#45;&gt;core.js</title>
<path fill="none" stroke="#757575" d="M186.78,-499.92C194.28,-478.64 213.21,-434.13 246,-413.71 385.54,-326.81 595.35,-353.4 679.58,-368.96"/>
<polygon fill="#757575" stroke="#757575" points="678.97,-372.41 689.45,-370.84 680.28,-365.53 678.97,-372.41"/>
</g>
<!-- view.js&#45;&gt;components/selection.js -->
<g id="edge56" class="edge">
<title>view.js&#45;&gt;components/selection.js</title>
<path fill="none" stroke="#757575" d="M186.51,-523.53C193.69,-545.3 212.25,-591.4 246,-611.71 305.22,-647.35 384.76,-649.91 443.85,-645.12"/>
<polygon fill="#757575" stroke="#757575" points="444.24,-648.6 453.89,-644.22 443.62,-641.63 444.24,-648.6"/>
</g>
<!-- view.js&#45;&gt;gui/advanced.js -->
<g id="edge58" class="edge">
<title>view.js&#45;&gt;gui/advanced.js</title>
<path fill="none" stroke="#757575" d="M210.15,-518.51C221.21,-521.08 234.16,-523.83 246,-525.71 319.31,-537.36 404.3,-544.7 461.13,-548.74"/>
<polygon fill="#757575" stroke="#757575" points="461.19,-552.25 471.41,-549.46 461.68,-545.27 461.19,-552.25"/>
</g>
<!-- view.js&#45;&gt;gui/controls.js -->
<g id="edge59" class="edge">
<title>view.js&#45;&gt;gui/controls.js</title>
<path fill="none" stroke="#757575" d="M183.41,-499.91C185.19,-468.54 194.76,-382.86 246,-343.71 309.19,-295.44 405.37,-298.14 466.82,-306.45"/>
<polygon fill="#757575" stroke="#757575" points="466.35,-309.91 476.75,-307.88 467.35,-302.99 466.35,-309.91"/>
</g>
<!-- view.js&#45;&gt;gui/dat.gui.js -->
<g id="edge60" class="edge">
<title>view.js&#45;&gt;gui/dat.gui.js</title>
<path fill="none" stroke="#757575" d="M184.08,-499.96C188.74,-451.88 208.54,-270.74 246,-229.71 253.09,-221.94 262.51,-216.48 272.41,-212.65"/>
<polygon fill="#757575" stroke="#757575" points="273.61,-215.94 281.99,-209.45 271.4,-209.3 273.61,-215.94"/>
</g>
<!-- view.js&#45;&gt;gui/field.js -->
<g id="edge61" class="edge">
<title>view.js&#45;&gt;gui/field.js</title>
<path fill="none" stroke="#757575" d="M204.56,-500.19C228.95,-487.14 268.86,-465.8 296.45,-451.05"/>
<polygon fill="#757575" stroke="#757575" points="298.13,-454.12 305.29,-446.32 294.83,-447.95 298.13,-454.12"/>
</g>
<!-- view.js&#45;&gt;gui/generator.js -->
<g id="edge62" class="edge">
<title>view.js&#45;&gt;gui/generator.js</title>
<path fill="none" stroke="#757575" d="M185.8,-523.58C192.32,-548.93 210.71,-609.03 246,-645.71 256.62,-656.75 270.77,-665.44 284.27,-671.99"/>
<polygon fill="#757575" stroke="#757575" points="282.91,-675.21 293.46,-676.17 285.81,-668.84 282.91,-675.21"/>
</g>
<!-- view.js&#45;&gt;gui/info.js -->
<g id="edge63" class="edge">
<title>view.js&#45;&gt;gui/info.js</title>
<path fill="none" stroke="#757575" d="M210.16,-511.71C268.52,-511.71 406.46,-511.71 479.02,-511.71"/>
<polygon fill="#757575" stroke="#757575" points="479.24,-515.21 489.24,-511.71 479.24,-508.21 479.24,-515.21"/>
</g>
<!-- view.js&#45;&gt;gui/parameters.js -->
<g id="edge64" class="edge">
<title>view.js&#45;&gt;gui/parameters.js</title>
<path fill="none" stroke="#757575" d="M184.67,-500.17C190.78,-459.52 213.32,-324.13 246,-297.71 277.07,-272.6 383.24,-271.06 455.41,-273.19"/>
<polygon fill="#757575" stroke="#757575" points="455.69,-276.7 465.8,-273.53 455.92,-269.7 455.69,-276.7"/>
</g>
<!-- view.js&#45;&gt;gui/particle.js -->
<g id="edge65" class="edge">
<title>view.js&#45;&gt;gui/particle.js</title>
<path fill="none" stroke="#757575" d="M184.31,-499.92C189.5,-455.61 210.04,-300.08 246,-268.71 278.16,-240.66 396.54,-235.53 468.52,-235.09"/>
<polygon fill="#757575" stroke="#757575" points="468.8,-238.59 478.79,-235.06 468.78,-231.59 468.8,-238.59"/>
</g>
<!-- view.js&#45;&gt;gui/selection.js -->
<g id="edge66" class="edge">
<title>view.js&#45;&gt;gui/selection.js</title>
<path fill="none" stroke="#757575" d="M194.07,-523.33C205.94,-535.18 225.8,-553.4 246,-564.71 254.35,-569.39 263.64,-573.43 272.87,-576.85"/>
<polygon fill="#757575" stroke="#757575" points="271.82,-580.19 282.42,-580.19 274.13,-573.58 271.82,-580.19"/>
</g>
<!-- view.js&#45;&gt;gui/stats.js -->
<g id="edge67" class="edge">
<title>view.js&#45;&gt;gui/stats.js</title>
<path fill="none" stroke="#757575" d="M183.59,-500.15C186.49,-447.39 201.08,-230.08 246,-182.71 254.41,-173.85 266.08,-168.65 277.94,-165.67"/>
<polygon fill="#757575" stroke="#757575" points="278.77,-169.07 287.88,-163.66 277.38,-162.21 278.77,-169.07"/>
</g>
<!-- mock/graphics.js -->
<g id="node28" class="node">
<title>mock/graphics.js</title>
<path fill="none" stroke="#cfffac" d="M110.33,-564.21C110.33,-564.21 7.67,-564.21 7.67,-564.21 3.83,-564.21 0,-560.38 0,-556.55 0,-556.55 0,-548.88 0,-548.88 0,-545.05 3.83,-541.21 7.67,-541.21 7.67,-541.21 110.33,-541.21 110.33,-541.21 114.17,-541.21 118,-545.05 118,-548.88 118,-548.88 118,-556.55 118,-556.55 118,-560.38 114.17,-564.21 110.33,-564.21"/>
<text text-anchor="middle" x="59" y="-549.01" font-family="Arial" font-size="14.00" fill="#cfffac">mock/graphics.js</text>
</g>
</g>
</svg>
