<?xml version="1.0" encoding="UTF-8" standalone="no"?>
<!DOCTYPE svg PUBLIC "-//W3C//DTD SVG 1.1//EN"
 "http://www.w3.org/Graphics/SVG/1.1/DTD/svg11.dtd">
<!-- Generated by graphviz version 2.40.1 (20161225.0304)
 -->
<!-- Title: G Pages: 1 -->
<svg width="1481pt" height="1044pt"
 viewBox="0.00 0.00 1481.20 1044.47" xmlns="http://www.w3.org/2000/svg" xmlns:xlink="http://www.w3.org/1999/xlink">
<g id="graph0" class="graph" transform="scale(1 1) rotate(0) translate(21.6 1022.8677)">
<title>G</title>
<polygon fill="#111111" stroke="transparent" points="-21.6,21.6 -21.6,-1022.8677 1459.6,-1022.8677 1459.6,21.6 -21.6,21.6"/>
<!-- components/csv.js -->
<g id="node1" class="node">
<title>components/csv.js</title>
<path fill="none" stroke="#c6c5fe" d="M1147.8333,-218.2677C1147.8333,-218.2677 1026.1667,-218.2677 1026.1667,-218.2677 1022.3333,-218.2677 1018.5,-214.4344 1018.5,-210.6011 1018.5,-210.6011 1018.5,-202.9344 1018.5,-202.9344 1018.5,-199.1011 1022.3333,-195.2677 1026.1667,-195.2677 1026.1667,-195.2677 1147.8333,-195.2677 1147.8333,-195.2677 1151.6667,-195.2677 1155.5,-199.1011 1155.5,-202.9344 1155.5,-202.9344 1155.5,-210.6011 1155.5,-210.6011 1155.5,-214.4344 1151.6667,-218.2677 1147.8333,-218.2677"/>
<text text-anchor="middle" x="1087" y="-203.0677" font-family="Arial" font-size="14.00" fill="#c6c5fe">components/csv.js</text>
</g>
<!-- particle.js -->
<g id="node2" class="node">
<title>particle.js</title>
<path fill="none" stroke="#cfffac" d="M1430.3333,-416.2677C1430.3333,-416.2677 1368.6667,-416.2677 1368.6667,-416.2677 1364.8333,-416.2677 1361,-412.4344 1361,-408.6011 1361,-408.6011 1361,-400.9344 1361,-400.9344 1361,-397.1011 1364.8333,-393.2677 1368.6667,-393.2677 1368.6667,-393.2677 1430.3333,-393.2677 1430.3333,-393.2677 1434.1667,-393.2677 1438,-397.1011 1438,-400.9344 1438,-400.9344 1438,-408.6011 1438,-408.6011 1438,-412.4344 1434.1667,-416.2677 1430.3333,-416.2677"/>
<text text-anchor="middle" x="1399.5" y="-401.0677" font-family="Arial" font-size="14.00" fill="#cfffac">particle.js</text>
</g>
<!-- components/csv.js&#45;&gt;particle.js -->
<g id="edge1" class="edge">
<title>components/csv.js&#45;&gt;particle.js</title>
<path fill="none" stroke="#757575" d="M1155.5562,-208.3004C1207.1531,-212.7701 1276.9574,-226.2764 1325,-264.7677 1363.6337,-295.7207 1384.749,-352.255 1393.8963,-383.1678"/>
<polygon fill="#757575" stroke="#757575" points="1390.5697,-384.2675 1396.6418,-392.9496 1397.3092,-382.3758 1390.5697,-384.2675"/>
</g>
<!-- physics.js -->
<g id="node3" class="node">
<title>physics.js</title>
<path fill="none" stroke="#c6c5fe" d="M1317.3333,-296.2677C1317.3333,-296.2677 1252.6667,-296.2677 1252.6667,-296.2677 1248.8333,-296.2677 1245,-292.4344 1245,-288.6011 1245,-288.6011 1245,-280.9344 1245,-280.9344 1245,-277.1011 1248.8333,-273.2677 1252.6667,-273.2677 1252.6667,-273.2677 1317.3333,-273.2677 1317.3333,-273.2677 1321.1667,-273.2677 1325,-277.1011 1325,-280.9344 1325,-280.9344 1325,-288.6011 1325,-288.6011 1325,-292.4344 1321.1667,-296.2677 1317.3333,-296.2677"/>
<text text-anchor="middle" x="1285" y="-281.0677" font-family="Arial" font-size="14.00" fill="#c6c5fe">physics.js</text>
</g>
<!-- components/csv.js&#45;&gt;physics.js -->
<g id="edge2" class="edge">
<title>components/csv.js&#45;&gt;physics.js</title>
<path fill="none" stroke="#757575" d="M1155.5719,-216.4997C1173.3979,-220.3366 1192.2805,-225.5998 1209,-232.7677 1229.0216,-241.3512 1249.2605,-255.529 1263.8134,-266.9141"/>
<polygon fill="#757575" stroke="#757575" points="1261.6915,-269.699 1271.6802,-273.2314 1266.0745,-264.241 1261.6915,-269.699"/>
</g>
<!-- physics.js&#45;&gt;particle.js -->
<g id="edge52" class="edge">
<title>physics.js&#45;&gt;particle.js</title>
<path fill="none" stroke="#757575" d="M1295.9787,-296.2738C1315.6766,-316.9179 1357.2026,-360.4386 1381.2446,-385.6354"/>
<polygon fill="#757575" stroke="#757575" points="1378.9507,-388.3014 1388.3863,-393.1201 1384.0151,-383.469 1378.9507,-388.3014"/>
</g>
<!-- components/keyboard.js -->
<g id="node4" class="node">
<title>components/keyboard.js</title>
<path fill="none" stroke="#cfffac" d="M533.3333,-965.2677C533.3333,-965.2677 372.6667,-965.2677 372.6667,-965.2677 368.8333,-965.2677 365,-961.4344 365,-957.6011 365,-957.6011 365,-949.9344 365,-949.9344 365,-946.1011 368.8333,-942.2677 372.6667,-942.2677 372.6667,-942.2677 533.3333,-942.2677 533.3333,-942.2677 537.1667,-942.2677 541,-946.1011 541,-949.9344 541,-949.9344 541,-957.6011 541,-957.6011 541,-961.4344 537.1667,-965.2677 533.3333,-965.2677"/>
<text text-anchor="middle" x="453" y="-950.0677" font-family="Arial" font-size="14.00" fill="#cfffac">components/keyboard.js</text>
</g>
<!-- components/mouse.js -->
<g id="node5" class="node">
<title>components/mouse.js</title>
<path fill="none" stroke="#c6c5fe" d="M914.3333,-1001.2677C914.3333,-1001.2677 770.6667,-1001.2677 770.6667,-1001.2677 766.8333,-1001.2677 763,-997.4344 763,-993.6011 763,-993.6011 763,-985.9344 763,-985.9344 763,-982.1011 766.8333,-978.2677 770.6667,-978.2677 770.6667,-978.2677 914.3333,-978.2677 914.3333,-978.2677 918.1667,-978.2677 922,-982.1011 922,-985.9344 922,-985.9344 922,-993.6011 922,-993.6011 922,-997.4344 918.1667,-1001.2677 914.3333,-1001.2677"/>
<text text-anchor="middle" x="842.5" y="-986.0677" font-family="Arial" font-size="14.00" fill="#c6c5fe">components/mouse.js</text>
</g>
<!-- helpers.js -->
<g id="node6" class="node">
<title>helpers.js</title>
<path fill="none" stroke="#c6c5fe" d="M1316.8333,-551.2677C1316.8333,-551.2677 1253.1667,-551.2677 1253.1667,-551.2677 1249.3333,-551.2677 1245.5,-547.4344 1245.5,-543.6011 1245.5,-543.6011 1245.5,-535.9344 1245.5,-535.9344 1245.5,-532.1011 1249.3333,-528.2677 1253.1667,-528.2677 1253.1667,-528.2677 1316.8333,-528.2677 1316.8333,-528.2677 1320.6667,-528.2677 1324.5,-532.1011 1324.5,-535.9344 1324.5,-535.9344 1324.5,-543.6011 1324.5,-543.6011 1324.5,-547.4344 1320.6667,-551.2677 1316.8333,-551.2677"/>
<text text-anchor="middle" x="1285" y="-536.0677" font-family="Arial" font-size="14.00" fill="#c6c5fe">helpers.js</text>
</g>
<!-- components/mouse.js&#45;&gt;helpers.js -->
<g id="edge3" class="edge">
<title>components/mouse.js&#45;&gt;helpers.js</title>
<path fill="none" stroke="#757575" d="M922.0353,-990.1983C1005.5076,-986.1493 1134.713,-966.3692 1209,-887.7677 1254.2667,-839.872 1276.8387,-630.5112 1283.1286,-561.7423"/>
<polygon fill="#757575" stroke="#757575" points="1286.6294,-561.8871 1284.0288,-551.6165 1279.6569,-561.2672 1286.6294,-561.8871"/>
</g>
<!-- helpers.js&#45;&gt;particle.js -->
<g id="edge50" class="edge">
<title>helpers.js&#45;&gt;particle.js</title>
<path fill="none" stroke="#757575" d="M1294.7622,-528.2577C1314.3525,-505.16 1358.6502,-452.9313 1382.8879,-424.3541"/>
<polygon fill="#757575" stroke="#757575" points="1385.637,-426.5237 1389.4361,-416.6334 1380.2986,-421.9959 1385.637,-426.5237"/>
</g>
<!-- components/ruler.js -->
<g id="node7" class="node">
<title>components/ruler.js</title>
<path fill="none" stroke="#c6c5fe" d="M712.3333,-844.2677C712.3333,-844.2677 584.6667,-844.2677 584.6667,-844.2677 580.8333,-844.2677 577,-840.4344 577,-836.6011 577,-836.6011 577,-828.9344 577,-828.9344 577,-825.1011 580.8333,-821.2677 584.6667,-821.2677 584.6667,-821.2677 712.3333,-821.2677 712.3333,-821.2677 716.1667,-821.2677 720,-825.1011 720,-828.9344 720,-828.9344 720,-836.6011 720,-836.6011 720,-840.4344 716.1667,-844.2677 712.3333,-844.2677"/>
<text text-anchor="middle" x="648.5" y="-829.0677" font-family="Arial" font-size="14.00" fill="#c6c5fe">components/ruler.js</text>
</g>
<!-- components/ruler.js&#45;&gt;helpers.js -->
<g id="edge5" class="edge">
<title>components/ruler.js&#45;&gt;helpers.js</title>
<path fill="none" stroke="#757575" d="M720.2591,-839.4479C854.2099,-850.3395 1135.4181,-865.2698 1209,-806.7677 1248.1622,-775.6314 1273.7907,-619.3821 1282.0789,-561.4358"/>
<polygon fill="#757575" stroke="#757575" points="1285.5472,-561.9049 1283.4643,-551.5168 1278.6145,-560.9365 1285.5472,-561.9049"/>
</g>
<!-- core.js -->
<g id="node8" class="node">
<title>core.js</title>
<path fill="none" stroke="#c6c5fe" d="M864.3333,-610.2677C864.3333,-610.2677 820.6667,-610.2677 820.6667,-610.2677 816.8333,-610.2677 813,-606.4344 813,-602.6011 813,-602.6011 813,-594.9344 813,-594.9344 813,-591.1011 816.8333,-587.2677 820.6667,-587.2677 820.6667,-587.2677 864.3333,-587.2677 864.3333,-587.2677 868.1667,-587.2677 872,-591.1011 872,-594.9344 872,-594.9344 872,-602.6011 872,-602.6011 872,-606.4344 868.1667,-610.2677 864.3333,-610.2677"/>
<text text-anchor="middle" x="842.5" y="-595.0677" font-family="Arial" font-size="14.00" fill="#c6c5fe">core.js</text>
</g>
<!-- components/ruler.js&#45;&gt;core.js -->
<g id="edge4" class="edge">
<title>components/ruler.js&#45;&gt;core.js</title>
<path fill="none" stroke="#757575" d="M705.9049,-821.1807C710.9354,-818.8684 715.7293,-816.0947 720,-812.7677 786.0013,-761.3508 822.6238,-663.7162 836.2577,-620.3985"/>
<polygon fill="#757575" stroke="#757575" points="839.6714,-621.2028 839.2326,-610.617 832.9742,-619.166 839.6714,-621.2028"/>
</g>
<!-- core.js&#45;&gt;components/csv.js -->
<g id="edge10" class="edge">
<title>core.js&#45;&gt;components/csv.js</title>
<path fill="none" stroke="#757575" d="M845.1441,-587.0556C855.0184,-545.2403 892.917,-400.6935 965,-304.7677 990.8072,-270.4243 1031.2793,-241.1178 1058.4539,-223.7287"/>
<polygon fill="#757575" stroke="#757575" points="1060.5044,-226.5742 1067.1195,-218.2983 1056.7873,-220.6426 1060.5044,-226.5742"/>
</g>
<!-- core.js&#45;&gt;particle.js -->
<g id="edge16" class="edge">
<title>core.js&#45;&gt;particle.js</title>
<path fill="none" stroke="#757575" d="M858.9571,-610.2946C881.596,-625.3766 924.1943,-651.0295 965,-660.7677 1070.4823,-685.9409 1103.8052,-687.1164 1209,-660.7677 1265.7058,-646.5643 1286.3092,-642.589 1325,-598.7677 1370.4234,-547.3211 1389.4764,-465.216 1396.2687,-426.4199"/>
<polygon fill="#757575" stroke="#757575" points="1399.769,-426.703 1397.9352,-416.2681 1392.8614,-425.569 1399.769,-426.703"/>
</g>
<!-- core.js&#45;&gt;physics.js -->
<g id="edge17" class="edge">
<title>core.js&#45;&gt;physics.js</title>
<path fill="none" stroke="#757575" d="M872.284,-597.4228C891.1949,-594.9507 914.7146,-588.6024 929,-572.7677 985.9864,-509.6007 903.9274,-443.9933 965,-384.7677 1043.8381,-308.3138 1108.6085,-390.2894 1209,-345.7677 1231.4453,-335.8137 1252.8664,-317.5419 1267.2113,-303.5818"/>
<polygon fill="#757575" stroke="#757575" points="1269.8372,-305.9052 1274.4143,-296.3501 1264.8775,-300.9653 1269.8372,-305.9052"/>
</g>
<!-- core.js&#45;&gt;helpers.js -->
<g id="edge15" class="edge">
<title>core.js&#45;&gt;helpers.js</title>
<path fill="none" stroke="#757575" d="M872.1528,-593.5807C896.9301,-589.3297 933.2132,-583.2977 965,-578.7677 1060.3915,-565.1735 1172.2086,-552.2249 1235.214,-545.2021"/>
<polygon fill="#757575" stroke="#757575" points="1235.7189,-548.6676 1245.2715,-544.0852 1234.9462,-541.7104 1235.7189,-548.6676"/>
</g>
<!-- gpu/field.js -->
<g id="node10" class="node">
<title>gpu/field.js</title>
<path fill="none" stroke="#c6c5fe" d="M1122.3333,-651.2677C1122.3333,-651.2677 1051.6667,-651.2677 1051.6667,-651.2677 1047.8333,-651.2677 1044,-647.4344 1044,-643.6011 1044,-643.6011 1044,-635.9344 1044,-635.9344 1044,-632.1011 1047.8333,-628.2677 1051.6667,-628.2677 1051.6667,-628.2677 1122.3333,-628.2677 1122.3333,-628.2677 1126.1667,-628.2677 1130,-632.1011 1130,-635.9344 1130,-635.9344 1130,-643.6011 1130,-643.6011 1130,-647.4344 1126.1667,-651.2677 1122.3333,-651.2677"/>
<text text-anchor="middle" x="1087" y="-636.0677" font-family="Arial" font-size="14.00" fill="#c6c5fe">gpu/field.js</text>
</g>
<!-- core.js&#45;&gt;gpu/field.js -->
<g id="edge11" class="edge">
<title>core.js&#45;&gt;gpu/field.js</title>
<path fill="none" stroke="#757575" d="M872.1941,-603.9204C896.996,-608.2093 933.292,-614.451 965,-619.7677 987.5681,-623.5519 1012.4986,-627.653 1033.9096,-631.1507"/>
<polygon fill="#757575" stroke="#757575" points="1033.3609,-634.6074 1043.794,-632.7634 1034.4881,-627.6987 1033.3609,-634.6074"/>
</g>
<!-- gpu/graphics.js -->
<g id="node11" class="node">
<title>gpu/graphics.js</title>
<path fill="none" stroke="#cfffac" d="M1136.8333,-610.2677C1136.8333,-610.2677 1037.1667,-610.2677 1037.1667,-610.2677 1033.3333,-610.2677 1029.5,-606.4344 1029.5,-602.6011 1029.5,-602.6011 1029.5,-594.9344 1029.5,-594.9344 1029.5,-591.1011 1033.3333,-587.2677 1037.1667,-587.2677 1037.1667,-587.2677 1136.8333,-587.2677 1136.8333,-587.2677 1140.6667,-587.2677 1144.5,-591.1011 1144.5,-594.9344 1144.5,-594.9344 1144.5,-602.6011 1144.5,-602.6011 1144.5,-606.4344 1140.6667,-610.2677 1136.8333,-610.2677"/>
<text text-anchor="middle" x="1087" y="-595.0677" font-family="Arial" font-size="14.00" fill="#cfffac">gpu/graphics.js</text>
</g>
<!-- core.js&#45;&gt;gpu/graphics.js -->
<g id="edge12" class="edge">
<title>core.js&#45;&gt;gpu/graphics.js</title>
<path fill="none" stroke="#757575" d="M872.4805,-598.7677C908.7904,-598.7677 971.0634,-598.7677 1019.1905,-598.7677"/>
<polygon fill="#757575" stroke="#757575" points="1019.2312,-602.2678 1029.2311,-598.7677 1019.2311,-595.2678 1019.2312,-602.2678"/>
</g>
<!-- gpu/shaders/computeShader.glsl.js -->
<g id="node12" class="node">
<title>gpu/shaders/computeShader.glsl.js</title>
<path fill="none" stroke="#c6c5fe" d="M1201.3333,-336.2677C1201.3333,-336.2677 972.6667,-336.2677 972.6667,-336.2677 968.8333,-336.2677 965,-332.4344 965,-328.6011 965,-328.6011 965,-320.9344 965,-320.9344 965,-317.1011 968.8333,-313.2677 972.6667,-313.2677 972.6667,-313.2677 1201.3333,-313.2677 1201.3333,-313.2677 1205.1667,-313.2677 1209,-317.1011 1209,-320.9344 1209,-320.9344 1209,-328.6011 1209,-328.6011 1209,-332.4344 1205.1667,-336.2677 1201.3333,-336.2677"/>
<text text-anchor="middle" x="1087" y="-321.0677" font-family="Arial" font-size="14.00" fill="#c6c5fe">gpu/shaders/computeShader.glsl.js</text>
</g>
<!-- core.js&#45;&gt;gpu/shaders/computeShader.glsl.js -->
<g id="edge13" class="edge">
<title>core.js&#45;&gt;gpu/shaders/computeShader.glsl.js</title>
<path fill="none" stroke="#757575" d="M872.0155,-597.6083C891.0607,-595.2322 914.8378,-588.9219 929,-572.7677 994.8931,-497.6065 896.0811,-423.1645 965,-350.7677 968.2372,-347.3672 971.801,-344.3561 975.613,-341.693"/>
<polygon fill="#757575" stroke="#757575" points="977.5937,-344.5851 984.324,-336.4025 973.9599,-338.602 977.5937,-344.5851"/>
</g>
<!-- gpu/simulation.js -->
<g id="node13" class="node">
<title>gpu/simulation.js</title>
<path fill="none" stroke="#c6c5fe" d="M1141.8333,-416.2677C1141.8333,-416.2677 1032.1667,-416.2677 1032.1667,-416.2677 1028.3333,-416.2677 1024.5,-412.4344 1024.5,-408.6011 1024.5,-408.6011 1024.5,-400.9344 1024.5,-400.9344 1024.5,-397.1011 1028.3333,-393.2677 1032.1667,-393.2677 1032.1667,-393.2677 1141.8333,-393.2677 1141.8333,-393.2677 1145.6667,-393.2677 1149.5,-397.1011 1149.5,-400.9344 1149.5,-400.9344 1149.5,-408.6011 1149.5,-408.6011 1149.5,-412.4344 1145.6667,-416.2677 1141.8333,-416.2677"/>
<text text-anchor="middle" x="1087" y="-401.0677" font-family="Arial" font-size="14.00" fill="#c6c5fe">gpu/simulation.js</text>
</g>
<!-- core.js&#45;&gt;gpu/simulation.js -->
<g id="edge14" class="edge">
<title>core.js&#45;&gt;gpu/simulation.js</title>
<path fill="none" stroke="#757575" d="M872.1375,-593.8668C889.6288,-590.0299 911.664,-583.4928 929,-572.7677 962.3967,-552.1066 1037.3837,-464.4658 1070.6132,-424.6253"/>
<polygon fill="#757575" stroke="#757575" points="1073.7022,-426.3843 1077.4001,-416.4558 1068.3178,-421.9112 1073.7022,-426.3843"/>
</g>
<!-- scenarios.js -->
<g id="node14" class="node">
<title>scenarios.js</title>
<path fill="none" stroke="#cfffac" d="M1126.3333,-731.2677C1126.3333,-731.2677 1047.6667,-731.2677 1047.6667,-731.2677 1043.8333,-731.2677 1040,-727.4344 1040,-723.6011 1040,-723.6011 1040,-715.9344 1040,-715.9344 1040,-712.1011 1043.8333,-708.2677 1047.6667,-708.2677 1047.6667,-708.2677 1126.3333,-708.2677 1126.3333,-708.2677 1130.1667,-708.2677 1134,-712.1011 1134,-715.9344 1134,-715.9344 1134,-723.6011 1134,-723.6011 1134,-727.4344 1130.1667,-731.2677 1126.3333,-731.2677"/>
<text text-anchor="middle" x="1087" y="-716.0677" font-family="Arial" font-size="14.00" fill="#cfffac">scenarios.js</text>
</g>
<!-- core.js&#45;&gt;scenarios.js -->
<g id="edge18" class="edge">
<title>core.js&#45;&gt;scenarios.js</title>
<path fill="none" stroke="#757575" d="M853.8006,-610.4803C874.0825,-630.7718 918.8669,-672.3414 965,-693.7677 985.1706,-703.1358 1008.7909,-709.1719 1029.8473,-713.0416"/>
<polygon fill="#757575" stroke="#757575" points="1029.5044,-716.5338 1039.9517,-714.7724 1030.6862,-709.6343 1029.5044,-716.5338"/>
</g>
<!-- components/selection.js -->
<g id="node9" class="node">
<title>components/selection.js</title>
<path fill="none" stroke="#c6c5fe" d="M921.3333,-198.2677C921.3333,-198.2677 763.6667,-198.2677 763.6667,-198.2677 759.8333,-198.2677 756,-194.4344 756,-190.6011 756,-190.6011 756,-182.9344 756,-182.9344 756,-179.1011 759.8333,-175.2677 763.6667,-175.2677 763.6667,-175.2677 921.3333,-175.2677 921.3333,-175.2677 925.1667,-175.2677 929,-179.1011 929,-182.9344 929,-182.9344 929,-190.6011 929,-190.6011 929,-194.4344 925.1667,-198.2677 921.3333,-198.2677"/>
<text text-anchor="middle" x="842.5" y="-183.0677" font-family="Arial" font-size="14.00" fill="#c6c5fe">components/selection.js</text>
</g>
<!-- components/selection.js&#45;&gt;components/csv.js -->
<g id="edge6" class="edge">
<title>components/selection.js&#45;&gt;components/csv.js</title>
<path fill="none" stroke="#757575" d="M929.0456,-193.8471C954.7628,-195.9508 982.7908,-198.2435 1008.0016,-200.3057"/>
<polygon fill="#757575" stroke="#757575" points="1007.9961,-203.8168 1018.2482,-201.1438 1008.5669,-196.8401 1007.9961,-203.8168"/>
</g>
<!-- components/selection.js&#45;&gt;particle.js -->
<g id="edge8" class="edge">
<title>components/selection.js&#45;&gt;particle.js</title>
<path fill="none" stroke="#757575" d="M847.1774,-175.1642C860.2872,-144.4355 900.6882,-61.1602 965,-29.7677 1062.454,17.8024 1104.8972,.61 1209,-29.7677 1267.7044,-46.898 1289.3293,-54.0962 1325,-103.7677 1357.8873,-149.5633 1386.8327,-321.9296 1396.2697,-383.0836"/>
<polygon fill="#757575" stroke="#757575" points="1392.8372,-383.7927 1397.8013,-393.1526 1399.7576,-382.74 1392.8372,-383.7927"/>
</g>
<!-- components/selection.js&#45;&gt;physics.js -->
<g id="edge9" class="edge">
<title>components/selection.js&#45;&gt;physics.js</title>
<path fill="none" stroke="#757575" d="M867.2938,-175.2523C929.6086,-148.1479 1095.8678,-87.3606 1209,-152.7677 1250.3665,-176.6837 1271.2007,-232.6018 1279.8785,-263.4301"/>
<polygon fill="#757575" stroke="#757575" points="1276.5193,-264.4182 1282.4546,-273.1944 1283.2877,-262.6324 1276.5193,-264.4182"/>
</g>
<!-- components/selection.js&#45;&gt;helpers.js -->
<g id="edge7" class="edge">
<title>components/selection.js&#45;&gt;helpers.js</title>
<path fill="none" stroke="#757575" d="M924.5483,-175.263C1019.1115,-163.9366 1166.9241,-152.7865 1209,-186.7677 1222.1918,-197.4216 1267.3839,-442.2822 1281.0524,-517.7969"/>
<polygon fill="#757575" stroke="#757575" points="1277.6793,-518.8137 1282.8996,-528.0331 1284.568,-517.5705 1277.6793,-518.8137"/>
</g>
<!-- gpu/field.js&#45;&gt;particle.js -->
<g id="edge20" class="edge">
<title>gpu/field.js&#45;&gt;particle.js</title>
<path fill="none" stroke="#757575" d="M1130.1697,-637.1477C1183.2514,-631.6092 1272.7157,-614.3748 1325,-560.7677 1363.2199,-521.5809 1384.7948,-459.0506 1394.0427,-426.3278"/>
<polygon fill="#757575" stroke="#757575" points="1397.482,-427.0169 1396.7126,-416.45 1390.7245,-425.1903 1397.482,-427.0169"/>
</g>
<!-- gpu/field.js&#45;&gt;helpers.js -->
<g id="edge19" class="edge">
<title>gpu/field.js&#45;&gt;helpers.js</title>
<path fill="none" stroke="#757575" d="M1130.075,-639.3848C1154.4561,-637.5795 1184.8128,-632.5684 1209,-619.7677 1235.7738,-605.5981 1258.4683,-578.4111 1271.9081,-559.6937"/>
<polygon fill="#757575" stroke="#757575" points="1274.9198,-561.4925 1277.7397,-551.2798 1269.1666,-557.505 1274.9198,-561.4925"/>
</g>
<!-- gpu/shaders/computeShader.glsl.js&#45;&gt;physics.js -->
<g id="edge21" class="edge">
<title>gpu/shaders/computeShader.glsl.js&#45;&gt;physics.js</title>
<path fill="none" stroke="#757575" d="M1144.0042,-313.2517C1172.6974,-307.4551 1207.168,-300.4914 1234.8434,-294.9004"/>
<polygon fill="#757575" stroke="#757575" points="1235.6001,-298.3183 1244.709,-292.9073 1234.2139,-291.4569 1235.6001,-298.3183"/>
</g>
<!-- gpu/simulation.js&#45;&gt;particle.js -->
<g id="edge23" class="edge">
<title>gpu/simulation.js&#45;&gt;particle.js</title>
<path fill="none" stroke="#757575" d="M1149.8631,-404.7677C1209.1373,-404.7677 1296.7327,-404.7677 1350.8494,-404.7677"/>
<polygon fill="#757575" stroke="#757575" points="1350.879,-408.2678 1360.879,-404.7677 1350.8789,-401.2678 1350.879,-408.2678"/>
</g>
<!-- gpu/simulation.js&#45;&gt;physics.js -->
<g id="edge24" class="edge">
<title>gpu/simulation.js&#45;&gt;physics.js</title>
<path fill="none" stroke="#757575" d="M1149.6337,-399.7376C1169.6947,-396.0168 1191.2807,-389.642 1209,-378.7677 1238.4477,-360.6957 1261.4521,-326.9906 1274.1214,-305.2345"/>
<polygon fill="#757575" stroke="#757575" points="1277.2096,-306.8834 1279.0543,-296.4504 1271.1061,-303.4558 1277.2096,-306.8834"/>
</g>
<!-- gpu/simulation.js&#45;&gt;helpers.js -->
<g id="edge22" class="edge">
<title>gpu/simulation.js&#45;&gt;helpers.js</title>
<path fill="none" stroke="#757575" d="M1149.7854,-409.0114C1169.9674,-412.6728 1191.5878,-419.2112 1209,-430.7677 1241.7736,-452.5196 1264.6046,-493.6503 1276.1986,-518.6959"/>
<polygon fill="#757575" stroke="#757575" points="1273.0903,-520.3202 1280.3475,-528.0393 1279.4879,-517.4794 1273.0903,-520.3202"/>
</g>
<!-- gpu/shaders/particleShader.glsl.js -->
<g id="node15" class="node">
<title>gpu/shaders/particleShader.glsl.js</title>
<path fill="none" stroke="#cfffac" d="M226.3333,-650.2677C226.3333,-650.2677 7.6667,-650.2677 7.6667,-650.2677 3.8333,-650.2677 0,-646.4344 0,-642.6011 0,-642.6011 0,-634.9344 0,-634.9344 0,-631.1011 3.8333,-627.2677 7.6667,-627.2677 7.6667,-627.2677 226.3333,-627.2677 226.3333,-627.2677 230.1667,-627.2677 234,-631.1011 234,-634.9344 234,-634.9344 234,-642.6011 234,-642.6011 234,-646.4344 230.1667,-650.2677 226.3333,-650.2677"/>
<text text-anchor="middle" x="117" y="-635.0677" font-family="Arial" font-size="14.00" fill="#cfffac">gpu/shaders/particleShader.glsl.js</text>
</g>
<!-- gui/advanced.js -->
<g id="node16" class="node">
<title>gui/advanced.js</title>
<path fill="none" stroke="#c6c5fe" d="M700.3333,-803.2677C700.3333,-803.2677 596.6667,-803.2677 596.6667,-803.2677 592.8333,-803.2677 589,-799.4344 589,-795.6011 589,-795.6011 589,-787.9344 589,-787.9344 589,-784.1011 592.8333,-780.2677 596.6667,-780.2677 596.6667,-780.2677 700.3333,-780.2677 700.3333,-780.2677 704.1667,-780.2677 708,-784.1011 708,-787.9344 708,-787.9344 708,-795.6011 708,-795.6011 708,-799.4344 704.1667,-803.2677 700.3333,-803.2677"/>
<text text-anchor="middle" x="648.5" y="-788.0677" font-family="Arial" font-size="14.00" fill="#c6c5fe">gui/advanced.js</text>
</g>
<!-- gui/advanced.js&#45;&gt;helpers.js -->
<g id="edge26" class="edge">
<title>gui/advanced.js&#45;&gt;helpers.js</title>
<path fill="none" stroke="#757575" d="M708.4523,-798.1901C836.5664,-810.6133 1131.6534,-831.89 1209,-773.7677 1243.8286,-747.5956 1271.4079,-614.5553 1281.1765,-561.5777"/>
<polygon fill="#757575" stroke="#757575" points="1284.6535,-562.0183 1282.9869,-551.5554 1277.765,-560.7739 1284.6535,-562.0183"/>
</g>
<!-- gui/advanced.js&#45;&gt;core.js -->
<g id="edge25" class="edge">
<title>gui/advanced.js&#45;&gt;core.js</title>
<path fill="none" stroke="#757575" d="M660.3435,-779.9852C692.8901,-747.6065 783.8996,-657.0661 823.5901,-617.5801"/>
<polygon fill="#757575" stroke="#757575" points="826.1906,-619.9301 830.8115,-610.396 821.2536,-614.9675 826.1906,-619.9301"/>
</g>
<!-- gui/controls.js -->
<g id="node17" class="node">
<title>gui/controls.js</title>
<path fill="none" stroke="#c6c5fe" d="M497.8333,-689.2677C497.8333,-689.2677 408.1667,-689.2677 408.1667,-689.2677 404.3333,-689.2677 400.5,-685.4344 400.5,-681.6011 400.5,-681.6011 400.5,-673.9344 400.5,-673.9344 400.5,-670.1011 404.3333,-666.2677 408.1667,-666.2677 408.1667,-666.2677 497.8333,-666.2677 497.8333,-666.2677 501.6667,-666.2677 505.5,-670.1011 505.5,-673.9344 505.5,-673.9344 505.5,-681.6011 505.5,-681.6011 505.5,-685.4344 501.6667,-689.2677 497.8333,-689.2677"/>
<text text-anchor="middle" x="453" y="-674.0677" font-family="Arial" font-size="14.00" fill="#c6c5fe">gui/controls.js</text>
</g>
<!-- gui/controls.js&#45;&gt;components/csv.js -->
<g id="edge27" class="edge">
<title>gui/controls.js&#45;&gt;components/csv.js</title>
<path fill="none" stroke="#757575" d="M480.0062,-666.1846C499.7669,-656.3529 525.6979,-640.3874 541,-618.7677 578.1165,-566.3275 543.4378,-533.5508 577,-478.7677 632.4339,-388.2839 665.2239,-375.7218 756,-320.7677 766.6356,-314.3291 953.1933,-244.663 965,-240.7677 986.7211,-233.6014 1010.9341,-226.645 1032.0273,-220.9113"/>
<polygon fill="#757575" stroke="#757575" points="1033.0452,-224.262 1041.7919,-218.2832 1031.2258,-217.5025 1033.0452,-224.262"/>
</g>
<!-- gui/controls.js&#45;&gt;helpers.js -->
<g id="edge30" class="edge">
<title>gui/controls.js&#45;&gt;helpers.js</title>
<path fill="none" stroke="#757575" d="M505.6787,-687.4617C517.3348,-689.741 529.6058,-692.2448 541,-694.7677 557.1024,-698.3331 560.7454,-700.9771 577,-703.7677 715.6563,-727.5727 1093.2585,-820.7436 1209,-740.7677 1239.7524,-719.5182 1268.9284,-608.3755 1280.1528,-561.0925"/>
<polygon fill="#757575" stroke="#757575" points="1283.5789,-561.8119 1282.4413,-551.2783 1276.7618,-560.2222 1283.5789,-561.8119"/>
</g>
<!-- gui/controls.js&#45;&gt;core.js -->
<g id="edge28" class="edge">
<title>gui/controls.js&#45;&gt;core.js</title>
<path fill="none" stroke="#757575" d="M505.5161,-677.4424C559.9714,-675.9992 647.1728,-670.5734 720,-651.7677 752.682,-643.3284 787.8326,-627.3337 812.0614,-615.114"/>
<polygon fill="#757575" stroke="#757575" points="813.8032,-618.1541 821.1014,-610.4737 810.6066,-611.9266 813.8032,-618.1541"/>
</g>
<!-- gui/controls.js&#45;&gt;scenarios.js -->
<g id="edge31" class="edge">
<title>gui/controls.js&#45;&gt;scenarios.js</title>
<path fill="none" stroke="#757575" d="M505.6928,-681.2584C623.4939,-689.0623 907.3902,-707.8693 1029.5365,-715.961"/>
<polygon fill="#757575" stroke="#757575" points="1029.5868,-719.4719 1039.7963,-716.6407 1030.0495,-712.4872 1029.5868,-719.4719"/>
</g>
<!-- gui/parameters.js -->
<g id="node18" class="node">
<title>gui/parameters.js</title>
<path fill="none" stroke="#c6c5fe" d="M704.8333,-570.2677C704.8333,-570.2677 592.1667,-570.2677 592.1667,-570.2677 588.3333,-570.2677 584.5,-566.4344 584.5,-562.6011 584.5,-562.6011 584.5,-554.9344 584.5,-554.9344 584.5,-551.1011 588.3333,-547.2677 592.1667,-547.2677 592.1667,-547.2677 704.8333,-547.2677 704.8333,-547.2677 708.6667,-547.2677 712.5,-551.1011 712.5,-554.9344 712.5,-554.9344 712.5,-562.6011 712.5,-562.6011 712.5,-566.4344 708.6667,-570.2677 704.8333,-570.2677"/>
<text text-anchor="middle" x="648.5" y="-555.0677" font-family="Arial" font-size="14.00" fill="#c6c5fe">gui/parameters.js</text>
</g>
<!-- gui/controls.js&#45;&gt;gui/parameters.js -->
<g id="edge29" class="edge">
<title>gui/controls.js&#45;&gt;gui/parameters.js</title>
<path fill="none" stroke="#757575" d="M472.1013,-666.1408C506.7754,-645.0348 580.2086,-600.3364 620.5343,-575.7903"/>
<polygon fill="#757575" stroke="#757575" points="622.599,-578.631 629.3211,-570.4418 618.9593,-572.6516 622.599,-578.631"/>
</g>
<!-- gui/parameters.js&#45;&gt;physics.js -->
<g id="edge42" class="edge">
<title>gui/parameters.js&#45;&gt;physics.js</title>
<path fill="none" stroke="#757575" d="M683.2597,-547.1113C741.7978,-525.8119 860.3653,-475.2447 929,-394.7677 956.9557,-361.9885 930.0968,-330.0218 965,-304.7677 1006.7568,-274.5548 1155.5511,-277.5872 1234.6746,-281.5766"/>
<polygon fill="#757575" stroke="#757575" points="1234.7239,-285.084 1244.8947,-282.1169 1235.0934,-278.0938 1234.7239,-285.084"/>
</g>
<!-- gui/parameters.js&#45;&gt;core.js -->
<g id="edge41" class="edge">
<title>gui/parameters.js&#45;&gt;core.js</title>
<path fill="none" stroke="#757575" d="M704.3526,-570.2837C735.8557,-576.7792 774.4667,-584.7402 802.8528,-590.593"/>
<polygon fill="#757575" stroke="#757575" points="802.3153,-594.0558 812.8161,-592.6473 803.729,-587.2 802.3153,-594.0558"/>
</g>
<!-- gui/dat.gui.js -->
<g id="node19" class="node">
<title>gui/dat.gui.js</title>
<path fill="none" stroke="#cfffac" d="M494.3333,-568.2677C494.3333,-568.2677 411.6667,-568.2677 411.6667,-568.2677 407.8333,-568.2677 404,-564.4344 404,-560.6011 404,-560.6011 404,-552.9344 404,-552.9344 404,-549.1011 407.8333,-545.2677 411.6667,-545.2677 411.6667,-545.2677 494.3333,-545.2677 494.3333,-545.2677 498.1667,-545.2677 502,-549.1011 502,-552.9344 502,-552.9344 502,-560.6011 502,-560.6011 502,-564.4344 498.1667,-568.2677 494.3333,-568.2677"/>
<text text-anchor="middle" x="453" y="-553.0677" font-family="Arial" font-size="14.00" fill="#cfffac">gui/dat.gui.js</text>
</g>
<!-- gui/field.js -->
<g id="node20" class="node">
<title>gui/field.js</title>
<path fill="none" stroke="#c6c5fe" d="M485.3333,-609.2677C485.3333,-609.2677 420.6667,-609.2677 420.6667,-609.2677 416.8333,-609.2677 413,-605.4344 413,-601.6011 413,-601.6011 413,-593.9344 413,-593.9344 413,-590.1011 416.8333,-586.2677 420.6667,-586.2677 420.6667,-586.2677 485.3333,-586.2677 485.3333,-586.2677 489.1667,-586.2677 493,-590.1011 493,-593.9344 493,-593.9344 493,-601.6011 493,-601.6011 493,-605.4344 489.1667,-609.2677 485.3333,-609.2677"/>
<text text-anchor="middle" x="453" y="-594.0677" font-family="Arial" font-size="14.00" fill="#c6c5fe">gui/field.js</text>
</g>
<!-- gui/field.js&#45;&gt;core.js -->
<g id="edge32" class="edge">
<title>gui/field.js&#45;&gt;core.js</title>
<path fill="none" stroke="#757575" d="M493.2163,-597.871C568.0603,-598.0631 727.8885,-598.4735 802.5388,-598.6651"/>
<polygon fill="#757575" stroke="#757575" points="802.9055,-602.166 812.9145,-598.6918 802.9236,-595.166 802.9055,-602.166"/>
</g>
<!-- gui/generator.js -->
<g id="node21" class="node">
<title>gui/generator.js</title>
<path fill="none" stroke="#c6c5fe" d="M698.8333,-238.2677C698.8333,-238.2677 598.1667,-238.2677 598.1667,-238.2677 594.3333,-238.2677 590.5,-234.4344 590.5,-230.6011 590.5,-230.6011 590.5,-222.9344 590.5,-222.9344 590.5,-219.1011 594.3333,-215.2677 598.1667,-215.2677 598.1667,-215.2677 698.8333,-215.2677 698.8333,-215.2677 702.6667,-215.2677 706.5,-219.1011 706.5,-222.9344 706.5,-222.9344 706.5,-230.6011 706.5,-230.6011 706.5,-234.4344 702.6667,-238.2677 698.8333,-238.2677"/>
<text text-anchor="middle" x="648.5" y="-223.0677" font-family="Arial" font-size="14.00" fill="#c6c5fe">gui/generator.js</text>
</g>
<!-- gui/generator.js&#45;&gt;physics.js -->
<g id="edge36" class="edge">
<title>gui/generator.js&#45;&gt;physics.js</title>
<path fill="none" stroke="#757575" d="M665.9794,-215.1729C738.9434,-168.3526 1024.0017,-1.2995 1209,-119.7677 1234.7764,-136.2743 1265.1565,-222.607 1278.3404,-263.3897"/>
<polygon fill="#757575" stroke="#757575" points="1275.0085,-264.4619 1281.378,-272.9284 1281.6785,-262.3378 1275.0085,-264.4619"/>
</g>
<!-- gui/generator.js&#45;&gt;helpers.js -->
<g id="edge35" class="edge">
<title>gui/generator.js&#45;&gt;helpers.js</title>
<path fill="none" stroke="#757575" d="M696.2894,-238.3211C704.3857,-240.9749 712.5696,-244.1142 720,-247.7677 840.7819,-307.1571 843.9203,-366.9879 965,-425.7677 1066.382,-474.985 1105.4239,-450.3533 1209,-494.7677 1226.8561,-502.4246 1245.654,-513.5253 1260.0873,-522.7854"/>
<polygon fill="#757575" stroke="#757575" points="1258.1785,-525.7191 1268.4627,-528.2659 1262.0114,-519.8617 1258.1785,-525.7191"/>
</g>
<!-- gui/generator.js&#45;&gt;core.js -->
<g id="edge34" class="edge">
<title>gui/generator.js&#45;&gt;core.js</title>
<path fill="none" stroke="#757575" d="M706.6051,-237.3697C711.6211,-240.1032 716.2163,-243.5146 720,-247.7677 783.2323,-318.8448 722.3787,-369.774 756,-458.7677 773.5227,-505.1493 807.038,-552.9823 826.8113,-578.9851"/>
<polygon fill="#757575" stroke="#757575" points="824.3004,-581.4599 833.1835,-587.234 829.84,-577.1806 824.3004,-581.4599"/>
</g>
<!-- gui/generator.js&#45;&gt;components/selection.js -->
<g id="edge33" class="edge">
<title>gui/generator.js&#45;&gt;components/selection.js</title>
<path fill="none" stroke="#757575" d="M704.3526,-215.2517C726.9777,-210.5867 753.2691,-205.1658 776.806,-200.3129"/>
<polygon fill="#757575" stroke="#757575" points="777.6187,-203.719 786.7059,-198.2717 776.2051,-196.8632 777.6187,-203.719"/>
</g>
<!-- scenariosHelpers.js -->
<g id="node22" class="node">
<title>scenariosHelpers.js</title>
<path fill="none" stroke="#c6c5fe" d="M1151.3333,-62.2677C1151.3333,-62.2677 1022.6667,-62.2677 1022.6667,-62.2677 1018.8333,-62.2677 1015,-58.4344 1015,-54.6011 1015,-54.6011 1015,-46.9344 1015,-46.9344 1015,-43.1011 1018.8333,-39.2677 1022.6667,-39.2677 1022.6667,-39.2677 1151.3333,-39.2677 1151.3333,-39.2677 1155.1667,-39.2677 1159,-43.1011 1159,-46.9344 1159,-46.9344 1159,-54.6011 1159,-54.6011 1159,-58.4344 1155.1667,-62.2677 1151.3333,-62.2677"/>
<text text-anchor="middle" x="1087" y="-47.0677" font-family="Arial" font-size="14.00" fill="#c6c5fe">scenariosHelpers.js</text>
</g>
<!-- gui/generator.js&#45;&gt;scenariosHelpers.js -->
<g id="edge37" class="edge">
<title>gui/generator.js&#45;&gt;scenariosHelpers.js</title>
<path fill="none" stroke="#757575" d="M652.7887,-215.1227C664.2737,-185.8145 698.797,-109.0417 756,-76.7677 832.0812,-33.8426 934.081,-32.6277 1004.651,-38.7824"/>
<polygon fill="#757575" stroke="#757575" points="1004.5442,-42.2877 1014.8281,-39.7399 1005.1999,-35.3185 1004.5442,-42.2877"/>
</g>
<!-- scenariosHelpers.js&#45;&gt;particle.js -->
<g id="edge54" class="edge">
<title>scenariosHelpers.js&#45;&gt;particle.js</title>
<path fill="none" stroke="#757575" d="M1159.1617,-57.6893C1176.3784,-61.5678 1194.0731,-67.5539 1209,-76.7677 1326.1118,-149.0562 1378.9715,-321.9175 1394.4354,-382.9631"/>
<polygon fill="#757575" stroke="#757575" points="1391.1176,-384.1299 1396.8948,-393.011 1397.9169,-382.4656 1391.1176,-384.1299"/>
</g>
<!-- scenariosHelpers.js&#45;&gt;helpers.js -->
<g id="edge53" class="edge">
<title>scenariosHelpers.js&#45;&gt;helpers.js</title>
<path fill="none" stroke="#757575" d="M1108.5244,-62.4513C1136.4232,-78.7887 1184.4016,-111.1846 1209,-152.7677 1218.5099,-168.844 1267.0369,-438.7535 1281.1472,-518.0367"/>
<polygon fill="#757575" stroke="#757575" points="1277.7064,-518.6792 1282.9021,-527.9126 1284.5984,-517.4544 1277.7064,-518.6792"/>
</g>
<!-- gui/info.js -->
<g id="node23" class="node">
<title>gui/info.js</title>
<path fill="none" stroke="#c6c5fe" d="M679.3333,-510.2677C679.3333,-510.2677 617.6667,-510.2677 617.6667,-510.2677 613.8333,-510.2677 610,-506.4344 610,-502.6011 610,-502.6011 610,-494.9344 610,-494.9344 610,-491.1011 613.8333,-487.2677 617.6667,-487.2677 617.6667,-487.2677 679.3333,-487.2677 679.3333,-487.2677 683.1667,-487.2677 687,-491.1011 687,-494.9344 687,-494.9344 687,-502.6011 687,-502.6011 687,-506.4344 683.1667,-510.2677 679.3333,-510.2677"/>
<text text-anchor="middle" x="648.5" y="-495.0677" font-family="Arial" font-size="14.00" fill="#c6c5fe">gui/info.js</text>
</g>
<!-- gui/info.js&#45;&gt;physics.js -->
<g id="edge40" class="edge">
<title>gui/info.js&#45;&gt;physics.js</title>
<path fill="none" stroke="#757575" d="M673.1578,-487.1838C724.793,-462.108 846.3402,-398.7231 929,-320.7677 948.9213,-301.9802 940.6283,-283.2517 965,-270.7677 1054.7319,-224.804 1177.8643,-250.9657 1242.0828,-270.1468"/>
<polygon fill="#757575" stroke="#757575" points="1241.2826,-273.5623 1251.8695,-273.1532 1243.3382,-266.8709 1241.2826,-273.5623"/>
</g>
<!-- gui/info.js&#45;&gt;helpers.js -->
<g id="edge39" class="edge">
<title>gui/info.js&#45;&gt;helpers.js</title>
<path fill="none" stroke="#757575" d="M687.3578,-501.2707C797.6404,-508.3746 1112.5148,-528.6571 1235.2066,-536.5603"/>
<polygon fill="#757575" stroke="#757575" points="1235.2305,-540.069 1245.4349,-537.2191 1235.6806,-533.0835 1235.2305,-540.069"/>
</g>
<!-- gui/info.js&#45;&gt;core.js -->
<g id="edge38" class="edge">
<title>gui/info.js&#45;&gt;core.js</title>
<path fill="none" stroke="#757575" d="M671.1339,-510.4347C705.5953,-528.1983 771.3532,-562.0941 810.6302,-582.34"/>
<polygon fill="#757575" stroke="#757575" points="809.518,-585.7043 820.0102,-587.175 812.7252,-579.4822 809.518,-585.7043"/>
</g>
<!-- gui/particle.js -->
<g id="node24" class="node">
<title>gui/particle.js</title>
<path fill="none" stroke="#c6c5fe" d="M691.3333,-885.2677C691.3333,-885.2677 605.6667,-885.2677 605.6667,-885.2677 601.8333,-885.2677 598,-881.4344 598,-877.6011 598,-877.6011 598,-869.9344 598,-869.9344 598,-866.1011 601.8333,-862.2677 605.6667,-862.2677 605.6667,-862.2677 691.3333,-862.2677 691.3333,-862.2677 695.1667,-862.2677 699,-866.1011 699,-869.9344 699,-869.9344 699,-877.6011 699,-877.6011 699,-881.4344 695.1667,-885.2677 691.3333,-885.2677"/>
<text text-anchor="middle" x="648.5" y="-870.0677" font-family="Arial" font-size="14.00" fill="#c6c5fe">gui/particle.js</text>
</g>
<!-- gui/particle.js&#45;&gt;particle.js -->
<g id="edge45" class="edge">
<title>gui/particle.js&#45;&gt;particle.js</title>
<path fill="none" stroke="#757575" d="M680.2427,-885.346C771.7317,-916.5363 1040.1831,-992.494 1209,-877.7677 1368.1163,-769.6339 1394.3651,-504.2446 1398.6647,-426.5013"/>
<polygon fill="#757575" stroke="#757575" points="1402.1644,-426.5915 1399.153,-416.4336 1395.1726,-426.2523 1402.1644,-426.5915"/>
</g>
<!-- gui/particle.js&#45;&gt;helpers.js -->
<g id="edge44" class="edge">
<title>gui/particle.js&#45;&gt;helpers.js</title>
<path fill="none" stroke="#757575" d="M699.0258,-878.2163C822.0369,-887.928 1132.5934,-905.3739 1209,-841.7677 1252.706,-805.3838 1275.9021,-624.8625 1282.7827,-561.6642"/>
<polygon fill="#757575" stroke="#757575" points="1286.2752,-561.9188 1283.8465,-551.6061 1279.3141,-561.1825 1286.2752,-561.9188"/>
</g>
<!-- gui/particle.js&#45;&gt;core.js -->
<g id="edge43" class="edge">
<title>gui/particle.js&#45;&gt;core.js</title>
<path fill="none" stroke="#757575" d="M699.2691,-865.4276C706.7623,-862.6002 713.9754,-858.8201 720,-853.7677 795.5707,-790.3922 827.9593,-669.5364 838.4117,-620.3744"/>
<polygon fill="#757575" stroke="#757575" points="841.8555,-621.0028 840.416,-610.5062 834.9955,-619.6094 841.8555,-621.0028"/>
</g>
<!-- gui/selection.js -->
<g id="node25" class="node">
<title>gui/selection.js</title>
<path fill="none" stroke="#c6c5fe" d="M696.8333,-279.2677C696.8333,-279.2677 600.1667,-279.2677 600.1667,-279.2677 596.3333,-279.2677 592.5,-275.4344 592.5,-271.6011 592.5,-271.6011 592.5,-263.9344 592.5,-263.9344 592.5,-260.1011 596.3333,-256.2677 600.1667,-256.2677 600.1667,-256.2677 696.8333,-256.2677 696.8333,-256.2677 700.6667,-256.2677 704.5,-260.1011 704.5,-263.9344 704.5,-263.9344 704.5,-271.6011 704.5,-271.6011 704.5,-275.4344 700.6667,-279.2677 696.8333,-279.2677"/>
<text text-anchor="middle" x="648.5" y="-264.0677" font-family="Arial" font-size="14.00" fill="#c6c5fe">gui/selection.js</text>
</g>
<!-- gui/selection.js&#45;&gt;components/csv.js -->
<g id="edge46" class="edge">
<title>gui/selection.js&#45;&gt;components/csv.js</title>
<path fill="none" stroke="#757575" d="M704.9285,-259.9179C782.0256,-249.1929 920.6587,-229.9076 1008.0379,-217.7522"/>
<polygon fill="#757575" stroke="#757575" points="1008.7465,-221.1874 1018.1689,-216.3429 1007.782,-214.2542 1008.7465,-221.1874"/>
</g>
<!-- gui/selection.js&#45;&gt;helpers.js -->
<g id="edge49" class="edge">
<title>gui/selection.js&#45;&gt;helpers.js</title>
<path fill="none" stroke="#757575" d="M651.2364,-279.7423C659.8093,-314.2508 689.6275,-414.2721 756,-458.7677 840.2522,-515.2497 1110.0206,-492.5927 1209,-514.7677 1220.7411,-517.3982 1233.2384,-521.1109 1244.6357,-524.8724"/>
<polygon fill="#757575" stroke="#757575" points="1243.7273,-528.2602 1254.3217,-528.1644 1245.9799,-521.6326 1243.7273,-528.2602"/>
</g>
<!-- gui/selection.js&#45;&gt;core.js -->
<g id="edge48" class="edge">
<title>gui/selection.js&#45;&gt;core.js</title>
<path fill="none" stroke="#757575" d="M652.6535,-279.2808C665.3596,-313.7908 705.9044,-418.8048 756,-496.7677 776.0775,-528.014 804.8368,-560.0363 823.5894,-579.6652"/>
<polygon fill="#757575" stroke="#757575" points="821.2533,-582.2842 830.7217,-587.0382 826.2845,-577.4173 821.2533,-582.2842"/>
</g>
<!-- gui/selection.js&#45;&gt;components/selection.js -->
<g id="edge47" class="edge">
<title>gui/selection.js&#45;&gt;components/selection.js</title>
<path fill="none" stroke="#757575" d="M694.6918,-256.2325C703.2017,-253.7177 711.9402,-250.8696 720,-247.7677 752.8852,-235.1117 788.7827,-216.646 813.1645,-203.3501"/>
<polygon fill="#757575" stroke="#757575" points="815.162,-206.2457 822.2313,-198.3542 811.7838,-200.1148 815.162,-206.2457"/>
</g>
<!-- gui/stats.js -->
<g id="node26" class="node">
<title>gui/stats.js</title>
<path fill="none" stroke="#cfffac" d="M487.8333,-158.2677C487.8333,-158.2677 418.1667,-158.2677 418.1667,-158.2677 414.3333,-158.2677 410.5,-154.4344 410.5,-150.6011 410.5,-150.6011 410.5,-142.9344 410.5,-142.9344 410.5,-139.1011 414.3333,-135.2677 418.1667,-135.2677 418.1667,-135.2677 487.8333,-135.2677 487.8333,-135.2677 491.6667,-135.2677 495.5,-139.1011 495.5,-142.9344 495.5,-142.9344 495.5,-150.6011 495.5,-150.6011 495.5,-154.4344 491.6667,-158.2677 487.8333,-158.2677"/>
<text text-anchor="middle" x="453" y="-143.0677" font-family="Arial" font-size="14.00" fill="#cfffac">gui/stats.js</text>
</g>
<!-- main.js -->
<g id="node27" class="node">
<title>main.js</title>
<path fill="none" stroke="#c6c5fe" d="M140.3333,-609.2677C140.3333,-609.2677 93.6667,-609.2677 93.6667,-609.2677 89.8333,-609.2677 86,-605.4344 86,-601.6011 86,-601.6011 86,-593.9344 86,-593.9344 86,-590.1011 89.8333,-586.2677 93.6667,-586.2677 93.6667,-586.2677 140.3333,-586.2677 140.3333,-586.2677 144.1667,-586.2677 148,-590.1011 148,-593.9344 148,-593.9344 148,-601.6011 148,-601.6011 148,-605.4344 144.1667,-609.2677 140.3333,-609.2677"/>
<text text-anchor="middle" x="117" y="-594.0677" font-family="Arial" font-size="14.00" fill="#c6c5fe">main.js</text>
</g>
<!-- view.js -->
<g id="node28" class="node">
<title>view.js</title>
<path fill="none" stroke="#c6c5fe" d="M321.3333,-609.2677C321.3333,-609.2677 277.6667,-609.2677 277.6667,-609.2677 273.8333,-609.2677 270,-605.4344 270,-601.6011 270,-601.6011 270,-593.9344 270,-593.9344 270,-590.1011 273.8333,-586.2677 277.6667,-586.2677 277.6667,-586.2677 321.3333,-586.2677 321.3333,-586.2677 325.1667,-586.2677 329,-590.1011 329,-593.9344 329,-593.9344 329,-601.6011 329,-601.6011 329,-605.4344 325.1667,-609.2677 321.3333,-609.2677"/>
<text text-anchor="middle" x="299.5" y="-594.0677" font-family="Arial" font-size="14.00" fill="#c6c5fe">view.js</text>
</g>
<!-- main.js&#45;&gt;view.js -->
<g id="edge51" class="edge">
<title>main.js&#45;&gt;view.js</title>
<path fill="none" stroke="#757575" d="M148.3729,-597.7677C179.0877,-597.7677 226.0075,-597.7677 259.412,-597.7677"/>
<polygon fill="#757575" stroke="#757575" points="259.745,-601.2678 269.745,-597.7677 259.745,-594.2678 259.745,-601.2678"/>
</g>
<!-- view.js&#45;&gt;components/keyboard.js -->
<g id="edge55" class="edge">
<title>view.js&#45;&gt;components/keyboard.js</title>
<path fill="none" stroke="#757575" d="M300.2236,-609.3275C303.7511,-662.0641 320.8039,-879.3384 365,-927.7677 368.3156,-931.4008 372.1114,-934.5358 376.2234,-937.2399"/>
<polygon fill="#757575" stroke="#757575" points="374.6235,-940.3557 385.0554,-942.207 378.0549,-934.2544 374.6235,-940.3557"/>
</g>
<!-- view.js&#45;&gt;components/mouse.js -->
<g id="edge56" class="edge">
<title>view.js&#45;&gt;components/mouse.js</title>
<path fill="none" stroke="#757575" d="M301.0265,-609.4069C307.0814,-653.8841 330.7563,-812.3816 365,-847.7677 420.7209,-905.3477 645.932,-953.9661 766.0907,-976.4309"/>
<polygon fill="#757575" stroke="#757575" points="765.4988,-979.8807 775.9694,-978.2631 766.7754,-972.9981 765.4988,-979.8807"/>
</g>
<!-- view.js&#45;&gt;components/ruler.js -->
<g id="edge57" class="edge">
<title>view.js&#45;&gt;components/ruler.js</title>
<path fill="none" stroke="#757575" d="M301.1526,-609.6334C305.7575,-638.1485 321.3927,-711.0254 365,-749.7677 420.7474,-799.2957 504.6274,-819.3378 566.6972,-827.4109"/>
<polygon fill="#757575" stroke="#757575" points="566.5016,-830.913 576.8521,-828.651 567.3501,-823.9646 566.5016,-830.913"/>
</g>
<!-- view.js&#45;&gt;core.js -->
<g id="edge59" class="edge">
<title>view.js&#45;&gt;core.js</title>
<path fill="none" stroke="#757575" d="M328.7006,-609.2683C339.8711,-613.0966 352.8478,-616.8673 365,-618.7677 520.9134,-643.1502 562.605,-623.1841 720,-611.7677 747.6858,-609.7596 778.787,-606.446 802.7236,-603.6669"/>
<polygon fill="#757575" stroke="#757575" points="803.3235,-607.1206 812.8452,-602.4743 802.5043,-600.1687 803.3235,-607.1206"/>
</g>
<!-- view.js&#45;&gt;components/selection.js -->
<g id="edge58" class="edge">
<title>view.js&#45;&gt;components/selection.js</title>
<path fill="none" stroke="#757575" d="M299.7694,-586.2325C301.3487,-529.4039 311.2954,-279.9353 365,-229.7677 418.2824,-179.9945 622.2801,-178.2085 745.7462,-182.0394"/>
<polygon fill="#757575" stroke="#757575" points="745.8534,-185.5447 755.9629,-182.3749 746.0832,-178.5485 745.8534,-185.5447"/>
</g>
<!-- view.js&#45;&gt;gui/advanced.js -->
<g id="edge60" class="edge">
<title>view.js&#45;&gt;gui/advanced.js</title>
<path fill="none" stroke="#757575" d="M303.9069,-609.2848C312.4786,-630.1778 333.3732,-674.4129 365,-698.7677 427.9799,-747.2667 517.3244,-771.0388 578.7948,-782.3015"/>
<polygon fill="#757575" stroke="#757575" points="578.3359,-785.7746 588.7925,-784.0683 579.5541,-778.8814 578.3359,-785.7746"/>
</g>
<!-- view.js&#45;&gt;gui/controls.js -->
<g id="edge61" class="edge">
<title>view.js&#45;&gt;gui/controls.js</title>
<path fill="none" stroke="#757575" d="M310.528,-609.2836C322.7774,-621.4553 343.6555,-640.4275 365,-651.7677 373.1618,-656.1041 382.1439,-659.8103 391.1552,-662.9493"/>
<polygon fill="#757575" stroke="#757575" points="390.3149,-666.3568 400.9074,-666.1358 392.489,-659.703 390.3149,-666.3568"/>
</g>
<!-- view.js&#45;&gt;gui/parameters.js -->
<g id="edge66" class="edge">
<title>view.js&#45;&gt;gui/parameters.js</title>
<path fill="none" stroke="#757575" d="M307.6115,-586.0489C318.6225,-571.2912 339.84,-546.669 365,-536.7677 445.6043,-505.0472 548.8991,-527.1451 605.913,-544.1879"/>
<polygon fill="#757575" stroke="#757575" points="605.08,-547.5935 615.6671,-547.1903 607.1394,-540.9033 605.08,-547.5935"/>
</g>
<!-- view.js&#45;&gt;gui/dat.gui.js -->
<g id="edge62" class="edge">
<title>view.js&#45;&gt;gui/dat.gui.js</title>
<path fill="none" stroke="#757575" d="M329.0587,-588.3162C340.2706,-584.8436 353.1819,-580.9788 365,-577.7677 374.3371,-575.2308 384.2761,-572.6988 393.9867,-570.3162"/>
<polygon fill="#757575" stroke="#757575" points="395.0936,-573.6494 403.9886,-567.8936 393.4457,-566.8461 395.0936,-573.6494"/>
</g>
<!-- view.js&#45;&gt;gui/field.js -->
<g id="edge63" class="edge">
<title>view.js&#45;&gt;gui/field.js</title>
<path fill="none" stroke="#757575" d="M329.0963,-597.7677C349.9071,-597.7677 378.2695,-597.7677 402.6072,-597.7677"/>
<polygon fill="#757575" stroke="#757575" points="402.7575,-601.2678 412.7574,-597.7677 402.7574,-594.2678 402.7575,-601.2678"/>
</g>
<!-- view.js&#45;&gt;gui/generator.js -->
<g id="edge64" class="edge">
<title>view.js&#45;&gt;gui/generator.js</title>
<path fill="none" stroke="#757575" d="M300.638,-586.2489C305.5974,-538.2779 326.8045,-354.9467 365,-313.7677 420.4173,-254.0217 515.6838,-234.8978 580.3377,-229.0034"/>
<polygon fill="#757575" stroke="#757575" points="580.7636,-232.4802 590.4406,-228.1668 580.1858,-225.5041 580.7636,-232.4802"/>
</g>
<!-- view.js&#45;&gt;gui/info.js -->
<g id="edge65" class="edge">
<title>view.js&#45;&gt;gui/info.js</title>
<path fill="none" stroke="#757575" d="M304.7653,-586.2268C313.9698,-567.5861 334.9142,-531.3675 365,-515.7677 439.5347,-477.1207 540.3414,-482.3641 599.4957,-490.2093"/>
<polygon fill="#757575" stroke="#757575" points="599.2958,-493.7155 609.6857,-491.6416 600.2702,-486.7836 599.2958,-493.7155"/>
</g>
<!-- view.js&#45;&gt;gui/particle.js -->
<g id="edge67" class="edge">
<title>view.js&#45;&gt;gui/particle.js</title>
<path fill="none" stroke="#757575" d="M301.7298,-609.2884C309.4427,-648.001 336.1049,-772.5081 365,-799.7677 425.3731,-856.7236 523.9552,-871.1373 587.5138,-874.1013"/>
<polygon fill="#757575" stroke="#757575" points="587.6638,-877.6095 597.7905,-874.4953 587.932,-870.6147 587.6638,-877.6095"/>
</g>
<!-- view.js&#45;&gt;gui/selection.js -->
<g id="edge68" class="edge">
<title>view.js&#45;&gt;gui/selection.js</title>
<path fill="none" stroke="#757575" d="M304.2903,-586.2414C313.799,-564.1609 336.6116,-514.9677 365,-479.7677 443.6885,-382.1986 469.1348,-357.6168 577,-293.7677 583.9495,-289.6541 591.6578,-286.0223 599.3662,-282.8769"/>
<polygon fill="#757575" stroke="#757575" points="600.6396,-286.1372 608.7176,-279.2817 598.1277,-279.6034 600.6396,-286.1372"/>
</g>
<!-- view.js&#45;&gt;gui/stats.js -->
<g id="edge69" class="edge">
<title>view.js&#45;&gt;gui/stats.js</title>
<path fill="none" stroke="#757575" d="M299.6694,-585.9271C300.7936,-523.9017 308.9956,-236.8522 365,-172.7677 374.022,-162.4441 386.9235,-156.1232 400.0764,-152.2806"/>
<polygon fill="#757575" stroke="#757575" points="401.2541,-155.595 410.1235,-149.7999 399.576,-148.7991 401.2541,-155.595"/>
</g>
<!-- mock/graphics.js -->
<g id="node29" class="node">
<title>mock/graphics.js</title>
<path fill="none" stroke="#cfffac" d="M171.8333,-691.2677C171.8333,-691.2677 62.1667,-691.2677 62.1667,-691.2677 58.3333,-691.2677 54.5,-687.4344 54.5,-683.6011 54.5,-683.6011 54.5,-675.9344 54.5,-675.9344 54.5,-672.1011 58.3333,-668.2677 62.1667,-668.2677 62.1667,-668.2677 171.8333,-668.2677 171.8333,-668.2677 175.6667,-668.2677 179.5,-672.1011 179.5,-675.9344 179.5,-675.9344 179.5,-683.6011 179.5,-683.6011 179.5,-687.4344 175.6667,-691.2677 171.8333,-691.2677"/>
<text text-anchor="middle" x="117" y="-676.0677" font-family="Arial" font-size="14.00" fill="#cfffac">mock/graphics.js</text>
</g>
</g>
</svg>
