<?xml version="1.0" encoding="UTF-8" standalone="no"?>
<!DOCTYPE svg PUBLIC "-//W3C//DTD SVG 1.1//EN"
 "http://www.w3.org/Graphics/SVG/1.1/DTD/svg11.dtd">
<!-- Generated by graphviz version 2.40.1 (20161225.0304)
 -->
<!-- Title: G Pages: 1 -->
<svg width="1003pt" height="613pt"
 viewBox="0.00 0.00 1003.20 613.50" xmlns="http://www.w3.org/2000/svg" xmlns:xlink="http://www.w3.org/1999/xlink">
<g id="graph0" class="graph" transform="scale(1 1) rotate(0) translate(21.6 591.8999)">
<title>G</title>
<polygon fill="#111111" stroke="transparent" points="-21.6,21.6 -21.6,-591.8999 981.6,-591.8999 981.6,21.6 -21.6,21.6"/>
<!-- core.js -->
<g id="node1" class="node">
<title>core.js</title>
<path fill="none" stroke="#c6c5fe" d="M273.3333,-348.6758C273.3333,-348.6758 229.6667,-348.6758 229.6667,-348.6758 225.8333,-348.6758 222,-344.8424 222,-341.0091 222,-341.0091 222,-333.3424 222,-333.3424 222,-329.5091 225.8333,-325.6758 229.6667,-325.6758 229.6667,-325.6758 273.3333,-325.6758 273.3333,-325.6758 277.1667,-325.6758 281,-329.5091 281,-333.3424 281,-333.3424 281,-341.0091 281,-341.0091 281,-344.8424 277.1667,-348.6758 273.3333,-348.6758"/>
<text text-anchor="middle" x="251.5" y="-333.4758" font-family="Arial" font-size="14.00" fill="#c6c5fe">core.js</text>
</g>
<!-- csv.js -->
<g id="node2" class="node">
<title>csv.js</title>
<path fill="none" stroke="#c6c5fe" d="M641.3333,-152.6758C641.3333,-152.6758 602.6667,-152.6758 602.6667,-152.6758 598.8333,-152.6758 595,-148.8424 595,-145.0091 595,-145.0091 595,-137.3424 595,-137.3424 595,-133.5091 598.8333,-129.6758 602.6667,-129.6758 602.6667,-129.6758 641.3333,-129.6758 641.3333,-129.6758 645.1667,-129.6758 649,-133.5091 649,-137.3424 649,-137.3424 649,-145.0091 649,-145.0091 649,-148.8424 645.1667,-152.6758 641.3333,-152.6758"/>
<text text-anchor="middle" x="622" y="-137.4758" font-family="Arial" font-size="14.00" fill="#c6c5fe">csv.js</text>
</g>
<!-- core.js&#45;&gt;csv.js -->
<g id="edge1" class="edge">
<title>core.js&#45;&gt;csv.js</title>
<path fill="none" stroke="#757575" d="M264.0529,-325.6339C281.3558,-310.2419 314.0349,-282.9879 346,-266.1758 400.3586,-237.5857 420.8379,-247.0368 477,-222.1758 519.8262,-203.2181 566.6776,-175.7104 595.2074,-158.1333"/>
<polygon fill="#757575" stroke="#757575" points="597.1491,-161.0475 603.7981,-152.7988 593.4564,-155.1007 597.1491,-161.0475"/>
</g>
<!-- gpu/field.js -->
<g id="node3" class="node">
<title>gpu/field.js</title>
<path fill="none" stroke="#c6c5fe" d="M446.8333,-528.6758C446.8333,-528.6758 376.1667,-528.6758 376.1667,-528.6758 372.3333,-528.6758 368.5,-524.8424 368.5,-521.0091 368.5,-521.0091 368.5,-513.3424 368.5,-513.3424 368.5,-509.5091 372.3333,-505.6758 376.1667,-505.6758 376.1667,-505.6758 446.8333,-505.6758 446.8333,-505.6758 450.6667,-505.6758 454.5,-509.5091 454.5,-513.3424 454.5,-513.3424 454.5,-521.0091 454.5,-521.0091 454.5,-524.8424 450.6667,-528.6758 446.8333,-528.6758"/>
<text text-anchor="middle" x="411.5" y="-513.4758" font-family="Arial" font-size="14.00" fill="#c6c5fe">gpu/field.js</text>
</g>
<!-- core.js&#45;&gt;gpu/field.js -->
<g id="edge2" class="edge">
<title>core.js&#45;&gt;gpu/field.js</title>
<path fill="none" stroke="#757575" d="M258.3514,-348.7858C279.0056,-383.725 339.6375,-485.8261 346,-491.1758 350.5593,-495.0093 355.7535,-498.3251 361.1762,-501.1814"/>
<polygon fill="#757575" stroke="#757575" points="359.9099,-504.4541 370.4463,-505.5649 362.9023,-498.126 359.9099,-504.4541"/>
</g>
<!-- gpu/graphics.js -->
<g id="node4" class="node">
<title>gpu/graphics.js</title>
<path fill="none" stroke="#c6c5fe" d="M461.3333,-407.6758C461.3333,-407.6758 361.6667,-407.6758 361.6667,-407.6758 357.8333,-407.6758 354,-403.8424 354,-400.0091 354,-400.0091 354,-392.3424 354,-392.3424 354,-388.5091 357.8333,-384.6758 361.6667,-384.6758 361.6667,-384.6758 461.3333,-384.6758 461.3333,-384.6758 465.1667,-384.6758 469,-388.5091 469,-392.3424 469,-392.3424 469,-400.0091 469,-400.0091 469,-403.8424 465.1667,-407.6758 461.3333,-407.6758"/>
<text text-anchor="middle" x="411.5" y="-392.4758" font-family="Arial" font-size="14.00" fill="#c6c5fe">gpu/graphics.js</text>
</g>
<!-- core.js&#45;&gt;gpu/graphics.js -->
<g id="edge3" class="edge">
<title>core.js&#45;&gt;gpu/graphics.js</title>
<path fill="none" stroke="#757575" d="M281.2198,-348.1349C306.4422,-357.4357 342.8783,-370.8715 370.8082,-381.1707"/>
<polygon fill="#757575" stroke="#757575" points="369.7069,-384.4949 380.3003,-384.6709 372.1288,-377.9272 369.7069,-384.4949"/>
</g>
<!-- gpu/shaders/computeShader.js -->
<g id="node5" class="node">
<title>gpu/shaders/computeShader.js</title>
<path fill="none" stroke="#c6c5fe" d="M723.3333,-327.6758C723.3333,-327.6758 520.6667,-327.6758 520.6667,-327.6758 516.8333,-327.6758 513,-323.8424 513,-320.0091 513,-320.0091 513,-312.3424 513,-312.3424 513,-308.5091 516.8333,-304.6758 520.6667,-304.6758 520.6667,-304.6758 723.3333,-304.6758 723.3333,-304.6758 727.1667,-304.6758 731,-308.5091 731,-312.3424 731,-312.3424 731,-320.0091 731,-320.0091 731,-323.8424 727.1667,-327.6758 723.3333,-327.6758"/>
<text text-anchor="middle" x="622" y="-312.4758" font-family="Arial" font-size="14.00" fill="#c6c5fe">gpu/shaders/computeShader.js</text>
</g>
<!-- core.js&#45;&gt;gpu/shaders/computeShader.js -->
<g id="edge4" class="edge">
<title>core.js&#45;&gt;gpu/shaders/computeShader.js</title>
<path fill="none" stroke="#757575" d="M281.1933,-335.4927C328.6867,-332.8008 424.3209,-327.3802 502.2253,-322.9646"/>
<polygon fill="#757575" stroke="#757575" points="502.8195,-326.4366 512.6054,-322.3763 502.4233,-319.4479 502.8195,-326.4366"/>
</g>
<!-- gpu/simulation.js -->
<g id="node6" class="node">
<title>gpu/simulation.js</title>
<path fill="none" stroke="#c6c5fe" d="M466.3333,-448.6758C466.3333,-448.6758 356.6667,-448.6758 356.6667,-448.6758 352.8333,-448.6758 349,-444.8424 349,-441.0091 349,-441.0091 349,-433.3424 349,-433.3424 349,-429.5091 352.8333,-425.6758 356.6667,-425.6758 356.6667,-425.6758 466.3333,-425.6758 466.3333,-425.6758 470.1667,-425.6758 474,-429.5091 474,-433.3424 474,-433.3424 474,-441.0091 474,-441.0091 474,-444.8424 470.1667,-448.6758 466.3333,-448.6758"/>
<text text-anchor="middle" x="411.5" y="-433.4758" font-family="Arial" font-size="14.00" fill="#c6c5fe">gpu/simulation.js</text>
</g>
<!-- core.js&#45;&gt;gpu/simulation.js -->
<g id="edge5" class="edge">
<title>core.js&#45;&gt;gpu/simulation.js</title>
<path fill="none" stroke="#757575" d="M262.35,-348.7379C278.8934,-365.7463 312.0942,-397.5084 346,-416.1758 349.7071,-418.2168 353.643,-420.0951 357.6733,-421.8167"/>
<polygon fill="#757575" stroke="#757575" points="356.5982,-425.1547 367.1855,-425.5522 359.1569,-418.639 356.5982,-425.1547"/>
</g>
<!-- helpers.js -->
<g id="node7" class="node">
<title>helpers.js</title>
<path fill="none" stroke="#c6c5fe" d="M653.8333,-525.6758C653.8333,-525.6758 590.1667,-525.6758 590.1667,-525.6758 586.3333,-525.6758 582.5,-521.8424 582.5,-518.0091 582.5,-518.0091 582.5,-510.3424 582.5,-510.3424 582.5,-506.5091 586.3333,-502.6758 590.1667,-502.6758 590.1667,-502.6758 653.8333,-502.6758 653.8333,-502.6758 657.6667,-502.6758 661.5,-506.5091 661.5,-510.3424 661.5,-510.3424 661.5,-518.0091 661.5,-518.0091 661.5,-521.8424 657.6667,-525.6758 653.8333,-525.6758"/>
<text text-anchor="middle" x="622" y="-510.4758" font-family="Arial" font-size="14.00" fill="#c6c5fe">helpers.js</text>
</g>
<!-- core.js&#45;&gt;helpers.js -->
<g id="edge6" class="edge">
<title>core.js&#45;&gt;helpers.js</title>
<path fill="none" stroke="#757575" d="M257.1641,-348.9823C269.5575,-373.4527 301.5652,-429.7063 346,-457.1758 383.2598,-480.2096 503.4231,-498.9074 572.2885,-508.0661"/>
<polygon fill="#757575" stroke="#757575" points="572.1003,-511.5712 582.4703,-509.4004 573.0099,-504.6306 572.1003,-511.5712"/>
</g>
<!-- particle.js -->
<g id="node8" class="node">
<title>particle.js</title>
<path fill="none" stroke="#cfffac" d="M952.3333,-367.6758C952.3333,-367.6758 890.6667,-367.6758 890.6667,-367.6758 886.8333,-367.6758 883,-363.8424 883,-360.0091 883,-360.0091 883,-352.3424 883,-352.3424 883,-348.5091 886.8333,-344.6758 890.6667,-344.6758 890.6667,-344.6758 952.3333,-344.6758 952.3333,-344.6758 956.1667,-344.6758 960,-348.5091 960,-352.3424 960,-352.3424 960,-360.0091 960,-360.0091 960,-363.8424 956.1667,-367.6758 952.3333,-367.6758"/>
<text text-anchor="middle" x="921.5" y="-352.4758" font-family="Arial" font-size="14.00" fill="#cfffac">particle.js</text>
</g>
<!-- core.js&#45;&gt;particle.js -->
<g id="edge7" class="edge">
<title>core.js&#45;&gt;particle.js</title>
<path fill="none" stroke="#757575" d="M281.283,-338.9697C299.8822,-340.0359 324.3296,-341.339 346,-342.1758 541.08,-349.7079 773.5236,-353.8966 872.7312,-355.4588"/>
<polygon fill="#757575" stroke="#757575" points="872.7024,-358.9586 882.7556,-355.6148 872.8114,-351.9595 872.7024,-358.9586"/>
</g>
<!-- physics.js -->
<g id="node9" class="node">
<title>physics.js</title>
<path fill="none" stroke="#c6c5fe" d="M839.3333,-258.6758C839.3333,-258.6758 774.6667,-258.6758 774.6667,-258.6758 770.8333,-258.6758 767,-254.8424 767,-251.0091 767,-251.0091 767,-243.3424 767,-243.3424 767,-239.5091 770.8333,-235.6758 774.6667,-235.6758 774.6667,-235.6758 839.3333,-235.6758 839.3333,-235.6758 843.1667,-235.6758 847,-239.5091 847,-243.3424 847,-243.3424 847,-251.0091 847,-251.0091 847,-254.8424 843.1667,-258.6758 839.3333,-258.6758"/>
<text text-anchor="middle" x="807" y="-243.4758" font-family="Arial" font-size="14.00" fill="#c6c5fe">physics.js</text>
</g>
<!-- core.js&#45;&gt;physics.js -->
<g id="edge8" class="edge">
<title>core.js&#45;&gt;physics.js</title>
<path fill="none" stroke="#757575" d="M281.2821,-332.0662C299.8809,-328.8919 324.3283,-324.7497 346,-321.1758 495.3307,-296.5491 672.0606,-268.4812 756.787,-255.0918"/>
<polygon fill="#757575" stroke="#757575" points="757.5684,-258.5119 766.8998,-253.4944 756.4761,-251.5976 757.5684,-258.5119"/>
</g>
<!-- scenarios.js -->
<g id="node10" class="node">
<title>scenarios.js</title>
<path fill="none" stroke="#cfffac" d="M450.8333,-213.6758C450.8333,-213.6758 372.1667,-213.6758 372.1667,-213.6758 368.3333,-213.6758 364.5,-209.8424 364.5,-206.0091 364.5,-206.0091 364.5,-198.3424 364.5,-198.3424 364.5,-194.5091 368.3333,-190.6758 372.1667,-190.6758 372.1667,-190.6758 450.8333,-190.6758 450.8333,-190.6758 454.6667,-190.6758 458.5,-194.5091 458.5,-198.3424 458.5,-198.3424 458.5,-206.0091 458.5,-206.0091 458.5,-209.8424 454.6667,-213.6758 450.8333,-213.6758"/>
<text text-anchor="middle" x="411.5" y="-198.4758" font-family="Arial" font-size="14.00" fill="#cfffac">scenarios.js</text>
</g>
<!-- core.js&#45;&gt;scenarios.js -->
<g id="edge9" class="edge">
<title>core.js&#45;&gt;scenarios.js</title>
<path fill="none" stroke="#757575" d="M258.9128,-325.3627C273.2362,-303.4036 306.785,-256.0064 346,-228.1758 351.5639,-224.2271 357.812,-220.7649 364.182,-217.7648"/>
<polygon fill="#757575" stroke="#757575" points="365.7619,-220.8944 373.5366,-213.6969 362.9704,-214.4751 365.7619,-220.8944"/>
</g>
<!-- csv.js&#45;&gt;particle.js -->
<g id="edge10" class="edge">
<title>csv.js&#45;&gt;particle.js</title>
<path fill="none" stroke="#757575" d="M649.1333,-142.2272C671.6254,-143.7845 704.1443,-147.6403 731,-157.1758 787.5293,-177.2472 804.9283,-183.4161 847,-226.1758 878.8694,-258.5663 901.9343,-307.2826 913.3715,-334.9631"/>
<polygon fill="#757575" stroke="#757575" points="910.2104,-336.4842 917.1797,-344.4641 916.7079,-333.8798 910.2104,-336.4842"/>
</g>
<!-- csv.js&#45;&gt;physics.js -->
<g id="edge11" class="edge">
<title>csv.js&#45;&gt;physics.js</title>
<path fill="none" stroke="#757575" d="M649.1217,-143.3096C672.1958,-146.102 705.5446,-152.5131 731,-167.1758 757.1063,-182.2133 779.8189,-208.9662 793.4552,-227.3655"/>
<polygon fill="#757575" stroke="#757575" points="790.72,-229.5571 799.3954,-235.6389 796.4062,-225.4745 790.72,-229.5571"/>
</g>
<!-- gpu/field.js&#45;&gt;helpers.js -->
<g id="edge12" class="edge">
<title>gpu/field.js&#45;&gt;helpers.js</title>
<path fill="none" stroke="#757575" d="M454.6058,-516.5614C488.6527,-516.0762 536.2167,-515.3983 571.9458,-514.8891"/>
<polygon fill="#757575" stroke="#757575" points="572.2071,-518.3858 582.1562,-514.7436 572.1073,-511.3866 572.2071,-518.3858"/>
</g>
<!-- gpu/field.js&#45;&gt;particle.js -->
<g id="edge13" class="edge">
<title>gpu/field.js&#45;&gt;particle.js</title>
<path fill="none" stroke="#757575" d="M443.0947,-528.6955C520.7466,-554.8033 723.5712,-609.3544 847,-517.1758 892.8698,-482.9194 911.4056,-413.5267 918.1182,-378.0839"/>
<polygon fill="#757575" stroke="#757575" points="921.6315,-378.3097 919.9018,-367.8571 914.7356,-377.107 921.6315,-378.3097"/>
</g>
<!-- gpu/graphics.js&#45;&gt;gpu/shaders/computeShader.js -->
<g id="edge14" class="edge">
<title>gpu/graphics.js&#45;&gt;gpu/shaders/computeShader.js</title>
<path fill="none" stroke="#757575" d="M442.1085,-384.5431C479.0832,-370.4909 541.3789,-346.8156 582.0919,-331.3427"/>
<polygon fill="#757575" stroke="#757575" points="583.5918,-334.517 591.6961,-327.6927 581.1049,-327.9736 583.5918,-334.517"/>
</g>
<!-- gpu/graphics.js&#45;&gt;helpers.js -->
<g id="edge16" class="edge">
<title>gpu/graphics.js&#45;&gt;helpers.js</title>
<path fill="none" stroke="#757575" d="M458.7735,-407.7246C465.0989,-410.0915 471.3465,-412.8891 477,-416.1758 496.0263,-427.2367 495.3987,-436.9644 513,-450.1758 537.4173,-468.5031 567.4877,-485.8123 589.8553,-497.7971"/>
<polygon fill="#757575" stroke="#757575" points="588.4544,-501.0155 598.9309,-502.5949 591.726,-494.827 588.4544,-501.0155"/>
</g>
<!-- gpu/graphics.js&#45;&gt;particle.js -->
<g id="edge17" class="edge">
<title>gpu/graphics.js&#45;&gt;particle.js</title>
<path fill="none" stroke="#757575" d="M460.0029,-407.7265C476.6956,-411.1687 495.5714,-414.475 513,-416.1758 609.4308,-425.5859 635.2365,-430.9001 731,-416.1758 785.8985,-407.7347 846.681,-386.3653 884.4896,-371.5517"/>
<polygon fill="#757575" stroke="#757575" points="886.0535,-374.6965 894.0545,-367.7513 883.4688,-368.1912 886.0535,-374.6965"/>
</g>
<!-- gpu/shaders/particleShader.js -->
<g id="node11" class="node">
<title>gpu/shaders/particleShader.js</title>
<path fill="none" stroke="#cfffac" d="M718.8333,-407.6758C718.8333,-407.6758 525.1667,-407.6758 525.1667,-407.6758 521.3333,-407.6758 517.5,-403.8424 517.5,-400.0091 517.5,-400.0091 517.5,-392.3424 517.5,-392.3424 517.5,-388.5091 521.3333,-384.6758 525.1667,-384.6758 525.1667,-384.6758 718.8333,-384.6758 718.8333,-384.6758 722.6667,-384.6758 726.5,-388.5091 726.5,-392.3424 726.5,-392.3424 726.5,-400.0091 726.5,-400.0091 726.5,-403.8424 722.6667,-407.6758 718.8333,-407.6758"/>
<text text-anchor="middle" x="622" y="-392.4758" font-family="Arial" font-size="14.00" fill="#cfffac">gpu/shaders/particleShader.js</text>
</g>
<!-- gpu/graphics.js&#45;&gt;gpu/shaders/particleShader.js -->
<g id="edge15" class="edge">
<title>gpu/graphics.js&#45;&gt;gpu/shaders/particleShader.js</title>
<path fill="none" stroke="#757575" d="M469.0201,-396.1758C480.9514,-396.1758 493.9209,-396.1758 507.0939,-396.1758"/>
<polygon fill="#757575" stroke="#757575" points="507.1933,-399.6759 517.1933,-396.1758 507.1932,-392.6759 507.1933,-399.6759"/>
</g>
<!-- gpu/shaders/computeShader.js&#45;&gt;physics.js -->
<g id="edge18" class="edge">
<title>gpu/shaders/computeShader.js&#45;&gt;physics.js</title>
<path fill="none" stroke="#757575" d="M683.7522,-304.6268C699.4326,-300.8346 716.0626,-296.0473 731,-290.1758 748.4765,-283.3062 766.8337,-273.0174 781.1277,-264.2264"/>
<polygon fill="#757575" stroke="#757575" points="783.2842,-267.0048 789.8841,-258.7168 779.5562,-261.0801 783.2842,-267.0048"/>
</g>
<!-- gpu/simulation.js&#45;&gt;helpers.js -->
<g id="edge19" class="edge">
<title>gpu/simulation.js&#45;&gt;helpers.js</title>
<path fill="none" stroke="#757575" d="M444.8172,-448.7017C455.3428,-452.7889 466.8658,-457.7386 477,-463.1758 494.1652,-472.3851 495.2179,-480.2225 513,-488.1758 531.5913,-496.4909 553.2048,-502.3532 572.2599,-506.3783"/>
<polygon fill="#757575" stroke="#757575" points="571.7617,-509.8478 582.2535,-508.374 573.1326,-502.9834 571.7617,-509.8478"/>
</g>
<!-- gpu/simulation.js&#45;&gt;particle.js -->
<g id="edge20" class="edge">
<title>gpu/simulation.js&#45;&gt;particle.js</title>
<path fill="none" stroke="#757575" d="M474.2359,-446.7598C561.8926,-457.2693 724.068,-466.0708 847,-411.1758 867.3704,-402.0794 887.5468,-386.6842 901.7543,-374.4916"/>
<polygon fill="#757575" stroke="#757575" points="904.2054,-376.9965 909.3861,-367.7546 899.5729,-371.7487 904.2054,-376.9965"/>
</g>
<!-- helpers.js&#45;&gt;particle.js -->
<g id="edge21" class="edge">
<title>helpers.js&#45;&gt;particle.js</title>
<path fill="none" stroke="#757575" d="M661.8364,-519.8202C709.8833,-524.4759 791.1413,-525.2541 847,-488.1758 886.2478,-462.1235 907.0351,-407.9599 915.9882,-377.7397"/>
<polygon fill="#757575" stroke="#757575" points="919.4492,-378.3583 918.7635,-367.7857 912.7063,-376.4782 919.4492,-378.3583"/>
</g>
<!-- physics.js&#45;&gt;particle.js -->
<g id="edge24" class="edge">
<title>physics.js&#45;&gt;particle.js</title>
<path fill="none" stroke="#757575" d="M819.2535,-258.8407C839.0533,-277.6894 878.2509,-315.0041 901.9442,-337.5594"/>
<polygon fill="#757575" stroke="#757575" points="899.6784,-340.2347 909.3346,-344.5947 904.5049,-335.1647 899.6784,-340.2347"/>
</g>
<!-- keyboard.js -->
<g id="node12" class="node">
<title>keyboard.js</title>
<path fill="none" stroke="#cfffac" d="M289.8333,-97.6758C289.8333,-97.6758 213.1667,-97.6758 213.1667,-97.6758 209.3333,-97.6758 205.5,-93.8424 205.5,-90.0091 205.5,-90.0091 205.5,-82.3424 205.5,-82.3424 205.5,-78.5091 209.3333,-74.6758 213.1667,-74.6758 213.1667,-74.6758 289.8333,-74.6758 289.8333,-74.6758 293.6667,-74.6758 297.5,-78.5091 297.5,-82.3424 297.5,-82.3424 297.5,-90.0091 297.5,-90.0091 297.5,-93.8424 293.6667,-97.6758 289.8333,-97.6758"/>
<text text-anchor="middle" x="251.5" y="-82.4758" font-family="Arial" font-size="14.00" fill="#cfffac">keyboard.js</text>
</g>
<!-- main.js -->
<g id="node13" class="node">
<title>main.js</title>
<path fill="none" stroke="#c6c5fe" d="M54.3333,-175.6758C54.3333,-175.6758 7.6667,-175.6758 7.6667,-175.6758 3.8333,-175.6758 0,-171.8424 0,-168.0091 0,-168.0091 0,-160.3424 0,-160.3424 0,-156.5091 3.8333,-152.6758 7.6667,-152.6758 7.6667,-152.6758 54.3333,-152.6758 54.3333,-152.6758 58.1667,-152.6758 62,-156.5091 62,-160.3424 62,-160.3424 62,-168.0091 62,-168.0091 62,-171.8424 58.1667,-175.6758 54.3333,-175.6758"/>
<text text-anchor="middle" x="31" y="-160.4758" font-family="Arial" font-size="14.00" fill="#c6c5fe">main.js</text>
</g>
<!-- view.js -->
<g id="node14" class="node">
<title>view.js</title>
<path fill="none" stroke="#c6c5fe" d="M149.3333,-175.6758C149.3333,-175.6758 105.6667,-175.6758 105.6667,-175.6758 101.8333,-175.6758 98,-171.8424 98,-168.0091 98,-168.0091 98,-160.3424 98,-160.3424 98,-156.5091 101.8333,-152.6758 105.6667,-152.6758 105.6667,-152.6758 149.3333,-152.6758 149.3333,-152.6758 153.1667,-152.6758 157,-156.5091 157,-160.3424 157,-160.3424 157,-168.0091 157,-168.0091 157,-171.8424 153.1667,-175.6758 149.3333,-175.6758"/>
<text text-anchor="middle" x="127.5" y="-160.4758" font-family="Arial" font-size="14.00" fill="#c6c5fe">view.js</text>
</g>
<!-- main.js&#45;&gt;view.js -->
<g id="edge22" class="edge">
<title>main.js&#45;&gt;view.js</title>
<path fill="none" stroke="#757575" d="M62.0644,-164.1758C70.212,-164.1758 79.1116,-164.1758 87.6492,-164.1758"/>
<polygon fill="#757575" stroke="#757575" points="87.8088,-167.6759 97.8088,-164.1758 87.8087,-160.6759 87.8088,-167.6759"/>
</g>
<!-- view.js&#45;&gt;core.js -->
<g id="edge29" class="edge">
<title>view.js&#45;&gt;core.js</title>
<path fill="none" stroke="#757575" d="M135.8285,-175.7954C156.6531,-204.8491 211.1774,-280.9192 237.2343,-317.2728"/>
<polygon fill="#757575" stroke="#757575" points="234.5372,-319.5179 243.2077,-325.6067 240.2267,-315.4399 234.5372,-319.5179"/>
</g>
<!-- view.js&#45;&gt;csv.js -->
<g id="edge30" class="edge">
<title>view.js&#45;&gt;csv.js</title>
<path fill="none" stroke="#757575" d="M131.0825,-152.5609C138.5274,-130.7125 157.9644,-84.0053 193,-65.1758 329.4536,8.1599 522.149,-84.4864 593.763,-124.4744"/>
<polygon fill="#757575" stroke="#757575" points="592.2358,-127.632 602.6607,-129.5223 595.69,-121.5436 592.2358,-127.632"/>
</g>
<!-- view.js&#45;&gt;helpers.js -->
<g id="edge31" class="edge">
<title>view.js&#45;&gt;helpers.js</title>
<path fill="none" stroke="#757575" d="M128.6355,-175.9676C133.7351,-226.8936 155.9061,-427.6189 193,-477.1758 271.7266,-582.3535 347.106,-578.8684 477,-559.1758 514.2987,-553.521 555.2144,-540.1235 584.0441,-529.4083"/>
<polygon fill="#757575" stroke="#757575" points="585.5994,-532.5619 593.7118,-525.7472 583.1203,-526.0156 585.5994,-532.5619"/>
</g>
<!-- view.js&#45;&gt;particle.js -->
<g id="edge34" class="edge">
<title>view.js&#45;&gt;particle.js</title>
<path fill="none" stroke="#757575" d="M129.5895,-152.3994C134.9128,-126.2122 151.6076,-63.1832 193,-34.1758 273.088,21.9492 313.7038,-8.1758 411.5,-8.1758 411.5,-8.1758 411.5,-8.1758 622,-8.1758 732.5417,-8.1758 774.5616,-30.6764 847,-114.1758 903.9512,-179.823 917.3708,-288.4027 920.5294,-334.4532"/>
<polygon fill="#757575" stroke="#757575" points="917.0397,-334.7322 921.1201,-344.5098 924.0276,-334.3217 917.0397,-334.7322"/>
</g>
<!-- view.js&#45;&gt;physics.js -->
<g id="edge35" class="edge">
<title>view.js&#45;&gt;physics.js</title>
<path fill="none" stroke="#757575" d="M157.0068,-162.001C217.83,-158.3011 361.1611,-153.6354 477,-181.1758 494.0343,-185.2256 496.2388,-192.113 513,-197.1758 596.4588,-222.3848 697.3271,-236.0635 756.5923,-242.4734"/>
<polygon fill="#757575" stroke="#757575" points="756.4928,-245.9822 766.8047,-243.5503 757.2269,-239.0208 756.4928,-245.9822"/>
</g>
<!-- view.js&#45;&gt;scenarios.js -->
<g id="edge36" class="edge">
<title>view.js&#45;&gt;scenarios.js</title>
<path fill="none" stroke="#757575" d="M157.0521,-171.1559C168.2631,-173.6287 181.1757,-176.2677 193,-178.1758 247.5255,-186.9743 310.2345,-193.4951 354.4473,-197.5015"/>
<polygon fill="#757575" stroke="#757575" points="354.1585,-200.9895 364.4299,-198.3918 354.7804,-194.0172 354.1585,-200.9895"/>
</g>
<!-- view.js&#45;&gt;keyboard.js -->
<g id="edge32" class="edge">
<title>view.js&#45;&gt;keyboard.js</title>
<path fill="none" stroke="#757575" d="M140.3207,-152.3742C153.0268,-141.0833 173.3783,-124.061 193,-112.1758 199.0038,-108.5391 205.6057,-105.1144 212.1453,-102.0184"/>
<polygon fill="#757575" stroke="#757575" points="213.9415,-105.0471 221.6049,-97.7311 211.0519,-98.6713 213.9415,-105.0471"/>
</g>
<!-- mouseHelper.js -->
<g id="node15" class="node">
<title>mouseHelper.js</title>
<path fill="none" stroke="#c6c5fe" d="M302.3333,-468.6758C302.3333,-468.6758 200.6667,-468.6758 200.6667,-468.6758 196.8333,-468.6758 193,-464.8424 193,-461.0091 193,-461.0091 193,-453.3424 193,-453.3424 193,-449.5091 196.8333,-445.6758 200.6667,-445.6758 200.6667,-445.6758 302.3333,-445.6758 302.3333,-445.6758 306.1667,-445.6758 310,-449.5091 310,-453.3424 310,-453.3424 310,-461.0091 310,-461.0091 310,-464.8424 306.1667,-468.6758 302.3333,-468.6758"/>
<text text-anchor="middle" x="251.5" y="-453.4758" font-family="Arial" font-size="14.00" fill="#c6c5fe">mouseHelper.js</text>
</g>
<!-- view.js&#45;&gt;mouseHelper.js -->
<g id="edge33" class="edge">
<title>view.js&#45;&gt;mouseHelper.js</title>
<path fill="none" stroke="#757575" d="M130.5557,-175.7985C138.7631,-206.3022 162.7299,-290.8672 193,-357.1758 206.1957,-386.0818 225.3833,-417.394 238.1422,-437.1344"/>
<polygon fill="#757575" stroke="#757575" points="235.268,-439.1343 243.6711,-445.5871 241.1262,-435.3025 235.268,-439.1343"/>
</g>
<!-- selectionHelper.js -->
<g id="node16" class="node">
<title>selectionHelper.js</title>
<path fill="none" stroke="#c6c5fe" d="M469.3333,-133.6758C469.3333,-133.6758 353.6667,-133.6758 353.6667,-133.6758 349.8333,-133.6758 346,-129.8424 346,-126.0091 346,-126.0091 346,-118.3424 346,-118.3424 346,-114.5091 349.8333,-110.6758 353.6667,-110.6758 353.6667,-110.6758 469.3333,-110.6758 469.3333,-110.6758 473.1667,-110.6758 477,-114.5091 477,-118.3424 477,-118.3424 477,-126.0091 477,-126.0091 477,-129.8424 473.1667,-133.6758 469.3333,-133.6758"/>
<text text-anchor="middle" x="411.5" y="-118.4758" font-family="Arial" font-size="14.00" fill="#c6c5fe">selectionHelper.js</text>
</g>
<!-- view.js&#45;&gt;selectionHelper.js -->
<g id="edge37" class="edge">
<title>view.js&#45;&gt;selectionHelper.js</title>
<path fill="none" stroke="#757575" d="M157.071,-157.3099C168.2843,-154.8502 181.1934,-152.1904 193,-150.1758 240.1915,-142.123 293.4752,-135.2507 335.6096,-130.3298"/>
<polygon fill="#757575" stroke="#757575" points="336.2627,-133.7777 345.7948,-129.1528 335.4591,-126.824 336.2627,-133.7777"/>
</g>
<!-- mouseHelper.js&#45;&gt;helpers.js -->
<g id="edge23" class="edge">
<title>mouseHelper.js&#45;&gt;helpers.js</title>
<path fill="none" stroke="#757575" d="M260.4122,-468.7633C275.5839,-487.4212 308.4591,-523.4192 346,-537.1758 424.4156,-565.9106 523.4757,-545.0662 579.0698,-528.6916"/>
<polygon fill="#757575" stroke="#757575" points="580.3774,-531.9525 588.9299,-525.6991 578.3444,-525.2542 580.3774,-531.9525"/>
</g>
<!-- selectionHelper.js&#45;&gt;csv.js -->
<g id="edge25" class="edge">
<title>selectionHelper.js&#45;&gt;csv.js</title>
<path fill="none" stroke="#757575" d="M477.2376,-128.1093C512.5844,-131.2998 554.8865,-135.118 584.6061,-137.8005"/>
<polygon fill="#757575" stroke="#757575" points="584.6757,-141.321 594.9499,-138.7342 585.3051,-134.3493 584.6757,-141.321"/>
</g>
<!-- selectionHelper.js&#45;&gt;helpers.js -->
<g id="edge26" class="edge">
<title>selectionHelper.js&#45;&gt;helpers.js</title>
<path fill="none" stroke="#757575" d="M430.283,-133.7535C445.485,-144.1885 466.0991,-160.972 477,-181.1758 527.1732,-274.1666 462.7836,-323.2082 513,-416.1758 531.824,-451.0254 568.0516,-479.7251 593.5613,-496.8704"/>
<polygon fill="#757575" stroke="#757575" points="591.8055,-499.904 602.0913,-502.4442 595.6346,-494.0441 591.8055,-499.904"/>
</g>
<!-- selectionHelper.js&#45;&gt;particle.js -->
<g id="edge27" class="edge">
<title>selectionHelper.js&#45;&gt;particle.js</title>
<path fill="none" stroke="#757575" d="M456.4699,-110.6103C545.114,-90.8085 742.8243,-62.0079 847,-167.1758 893.9892,-214.6124 912.2225,-295.2472 918.5333,-334.0386"/>
<polygon fill="#757575" stroke="#757575" points="915.1182,-334.8643 920.0699,-344.2308 922.0399,-333.8208 915.1182,-334.8643"/>
</g>
<!-- selectionHelper.js&#45;&gt;physics.js -->
<g id="edge28" class="edge">
<title>selectionHelper.js&#45;&gt;physics.js</title>
<path fill="none" stroke="#757575" d="M440.8131,-133.7268C468.1497,-144.4518 505.772,-159.0738 513,-161.1758 607.9109,-188.7765 638.2182,-171.0962 731,-205.1758 748.4121,-211.5714 766.6439,-221.522 780.8847,-230.1326"/>
<polygon fill="#757575" stroke="#757575" points="779.2745,-233.2523 789.618,-235.5466 782.9629,-227.3028 779.2745,-233.2523"/>
</g>
</g>
</svg>
