<?xml version="1.0" encoding="UTF-8" standalone="no"?>
<!DOCTYPE svg PUBLIC "-//W3C//DTD SVG 1.1//EN"
 "http://www.w3.org/Graphics/SVG/1.1/DTD/svg11.dtd">
<!-- Generated by graphviz version 2.40.1 (20161225.0304)
 -->
<!-- Title: G Pages: 1 -->
<svg width="1666pt" height="987pt"
 viewBox="0.00 0.00 1666.20 986.55" xmlns="http://www.w3.org/2000/svg" xmlns:xlink="http://www.w3.org/1999/xlink">
<g id="graph0" class="graph" transform="scale(1 1) rotate(0) translate(21.6 964.9455)">
<title>G</title>
<polygon fill="#111111" stroke="transparent" points="-21.6,21.6 -21.6,-964.9455 1644.6,-964.9455 1644.6,21.6 -21.6,21.6"/>
<!-- components/csv.js -->
<g id="node1" class="node">
<title>components/csv.js</title>
<path fill="none" stroke="#c6c5fe" d="M1102.8333,-84.3455C1102.8333,-84.3455 981.1667,-84.3455 981.1667,-84.3455 977.3333,-84.3455 973.5,-80.5122 973.5,-76.6789 973.5,-76.6789 973.5,-69.0122 973.5,-69.0122 973.5,-65.1789 977.3333,-61.3455 981.1667,-61.3455 981.1667,-61.3455 1102.8333,-61.3455 1102.8333,-61.3455 1106.6667,-61.3455 1110.5,-65.1789 1110.5,-69.0122 1110.5,-69.0122 1110.5,-76.6789 1110.5,-76.6789 1110.5,-80.5122 1106.6667,-84.3455 1102.8333,-84.3455"/>
<text text-anchor="middle" x="1042" y="-69.1455" font-family="Arial" font-size="14.00" fill="#c6c5fe">components/csv.js</text>
</g>
<!-- particle.js -->
<g id="node2" class="node">
<title>particle.js</title>
<path fill="none" stroke="#cfffac" d="M1615.3333,-456.3455C1615.3333,-456.3455 1553.6667,-456.3455 1553.6667,-456.3455 1549.8333,-456.3455 1546,-452.5122 1546,-448.6789 1546,-448.6789 1546,-441.0122 1546,-441.0122 1546,-437.1789 1549.8333,-433.3455 1553.6667,-433.3455 1553.6667,-433.3455 1615.3333,-433.3455 1615.3333,-433.3455 1619.1667,-433.3455 1623,-437.1789 1623,-441.0122 1623,-441.0122 1623,-448.6789 1623,-448.6789 1623,-452.5122 1619.1667,-456.3455 1615.3333,-456.3455"/>
<text text-anchor="middle" x="1584.5" y="-441.1455" font-family="Arial" font-size="14.00" fill="#cfffac">particle.js</text>
</g>
<!-- components/csv.js&#45;&gt;particle.js -->
<g id="edge1" class="edge">
<title>components/csv.js&#45;&gt;particle.js</title>
<path fill="none" stroke="#757575" d="M1074.4518,-61.3357C1138.8276,-40.5202 1285.8087,-3.1644 1394,-52.8455 1541.8391,-120.7328 1575.7213,-351.079 1582.7823,-423.1238"/>
<polygon fill="#757575" stroke="#757575" points="1579.314,-423.6333 1583.6986,-433.2782 1586.2856,-423.0041 1579.314,-423.6333"/>
</g>
<!-- physics.js -->
<g id="node3" class="node">
<title>physics.js</title>
<path fill="none" stroke="#c6c5fe" d="M1502.3333,-219.3455C1502.3333,-219.3455 1437.6667,-219.3455 1437.6667,-219.3455 1433.8333,-219.3455 1430,-215.5122 1430,-211.6789 1430,-211.6789 1430,-204.0122 1430,-204.0122 1430,-200.1789 1433.8333,-196.3455 1437.6667,-196.3455 1437.6667,-196.3455 1502.3333,-196.3455 1502.3333,-196.3455 1506.1667,-196.3455 1510,-200.1789 1510,-204.0122 1510,-204.0122 1510,-211.6789 1510,-211.6789 1510,-215.5122 1506.1667,-219.3455 1502.3333,-219.3455"/>
<text text-anchor="middle" x="1470" y="-204.1455" font-family="Arial" font-size="14.00" fill="#c6c5fe">physics.js</text>
</g>
<!-- components/csv.js&#45;&gt;physics.js -->
<g id="edge2" class="edge">
<title>components/csv.js&#45;&gt;physics.js</title>
<path fill="none" stroke="#757575" d="M1110.5104,-61.3941C1185.3143,-52.4639 1306.1474,-48.7979 1394,-98.8455 1428.507,-118.5034 1450.9721,-161.0125 1461.9866,-186.7508"/>
<polygon fill="#757575" stroke="#757575" points="1458.7506,-188.0846 1465.769,-196.0214 1465.2319,-185.4401 1458.7506,-188.0846"/>
</g>
<!-- physics.js&#45;&gt;particle.js -->
<g id="edge55" class="edge">
<title>physics.js&#45;&gt;particle.js</title>
<path fill="none" stroke="#757575" d="M1482.4966,-219.4985C1491.1235,-228.07 1502.3712,-240.3575 1510,-252.8455 1544.9475,-310.0528 1568.6661,-386.4521 1578.8579,-423.2455"/>
<polygon fill="#757575" stroke="#757575" points="1575.4873,-424.1888 1581.4785,-432.927 1582.2441,-422.3599 1575.4873,-424.1888"/>
</g>
<!-- components/keyboardHelper.js -->
<g id="node4" class="node">
<title>components/keyboardHelper.js</title>
<path fill="none" stroke="#cfffac" d="M466.3333,-280.3455C466.3333,-280.3455 263.6667,-280.3455 263.6667,-280.3455 259.8333,-280.3455 256,-276.5122 256,-272.6789 256,-272.6789 256,-265.0122 256,-265.0122 256,-261.1789 259.8333,-257.3455 263.6667,-257.3455 263.6667,-257.3455 466.3333,-257.3455 466.3333,-257.3455 470.1667,-257.3455 474,-261.1789 474,-265.0122 474,-265.0122 474,-272.6789 474,-272.6789 474,-276.5122 470.1667,-280.3455 466.3333,-280.3455"/>
<text text-anchor="middle" x="365" y="-265.1455" font-family="Arial" font-size="14.00" fill="#cfffac">components/keyboardHelper.js</text>
</g>
<!-- components/mouseHelper.js -->
<g id="node5" class="node">
<title>components/mouseHelper.js</title>
<path fill="none" stroke="#c6c5fe" d="M919.3333,-943.3455C919.3333,-943.3455 733.6667,-943.3455 733.6667,-943.3455 729.8333,-943.3455 726,-939.5122 726,-935.6789 726,-935.6789 726,-928.0122 726,-928.0122 726,-924.1789 729.8333,-920.3455 733.6667,-920.3455 733.6667,-920.3455 919.3333,-920.3455 919.3333,-920.3455 923.1667,-920.3455 927,-924.1789 927,-928.0122 927,-928.0122 927,-935.6789 927,-935.6789 927,-939.5122 923.1667,-943.3455 919.3333,-943.3455"/>
<text text-anchor="middle" x="826.5" y="-928.1455" font-family="Arial" font-size="14.00" fill="#c6c5fe">components/mouseHelper.js</text>
</g>
<!-- helpers.js -->
<g id="node6" class="node">
<title>helpers.js</title>
<path fill="none" stroke="#c6c5fe" d="M1303.8333,-595.3455C1303.8333,-595.3455 1240.1667,-595.3455 1240.1667,-595.3455 1236.3333,-595.3455 1232.5,-591.5122 1232.5,-587.6789 1232.5,-587.6789 1232.5,-580.0122 1232.5,-580.0122 1232.5,-576.1789 1236.3333,-572.3455 1240.1667,-572.3455 1240.1667,-572.3455 1303.8333,-572.3455 1303.8333,-572.3455 1307.6667,-572.3455 1311.5,-576.1789 1311.5,-580.0122 1311.5,-580.0122 1311.5,-587.6789 1311.5,-587.6789 1311.5,-591.5122 1307.6667,-595.3455 1303.8333,-595.3455"/>
<text text-anchor="middle" x="1272" y="-580.1455" font-family="Arial" font-size="14.00" fill="#c6c5fe">helpers.js</text>
</g>
<!-- components/mouseHelper.js&#45;&gt;helpers.js -->
<g id="edge3" class="edge">
<title>components/mouseHelper.js&#45;&gt;helpers.js</title>
<path fill="none" stroke="#757575" d="M927.138,-929.5907C986.5701,-923.6665 1060.4154,-907.8307 1114,-867.8455 1206.4374,-798.8681 1251.9937,-658.9674 1266.5995,-605.389"/>
<polygon fill="#757575" stroke="#757575" points="1270.0163,-606.1579 1269.1827,-595.5959 1263.2478,-604.3725 1270.0163,-606.1579"/>
</g>
<!-- helpers.js&#45;&gt;particle.js -->
<g id="edge53" class="edge">
<title>helpers.js&#45;&gt;particle.js</title>
<path fill="none" stroke="#757575" d="M1298.1061,-572.2335C1354.0572,-547.3465 1485.5846,-488.8431 1549.0345,-460.6206"/>
<polygon fill="#757575" stroke="#757575" points="1550.534,-463.7843 1558.2485,-456.5222 1547.6891,-457.3884 1550.534,-463.7843"/>
</g>
<!-- components/ruler.js -->
<g id="node7" class="node">
<title>components/ruler.js</title>
<path fill="none" stroke="#c6c5fe" d="M660.3333,-825.3455C660.3333,-825.3455 532.6667,-825.3455 532.6667,-825.3455 528.8333,-825.3455 525,-821.5122 525,-817.6789 525,-817.6789 525,-810.0122 525,-810.0122 525,-806.1789 528.8333,-802.3455 532.6667,-802.3455 532.6667,-802.3455 660.3333,-802.3455 660.3333,-802.3455 664.1667,-802.3455 668,-806.1789 668,-810.0122 668,-810.0122 668,-817.6789 668,-817.6789 668,-821.5122 664.1667,-825.3455 660.3333,-825.3455"/>
<text text-anchor="middle" x="596.5" y="-810.1455" font-family="Arial" font-size="14.00" fill="#c6c5fe">components/ruler.js</text>
</g>
<!-- components/ruler.js&#45;&gt;helpers.js -->
<g id="edge5" class="edge">
<title>components/ruler.js&#45;&gt;helpers.js</title>
<path fill="none" stroke="#757575" d="M668.3223,-818.1808C791.8633,-824.4314 1038.5963,-831.2769 1114,-791.8455 1193.4277,-750.3099 1244.3919,-648.9199 1263.4969,-604.8612"/>
<polygon fill="#757575" stroke="#757575" points="1266.8132,-606.0047 1267.4757,-595.4306 1260.3637,-603.2836 1266.8132,-606.0047"/>
</g>
<!-- core.js -->
<g id="node8" class="node">
<title>core.js</title>
<path fill="none" stroke="#c6c5fe" d="M848.3333,-555.3455C848.3333,-555.3455 804.6667,-555.3455 804.6667,-555.3455 800.8333,-555.3455 797,-551.5122 797,-547.6789 797,-547.6789 797,-540.0122 797,-540.0122 797,-536.1789 800.8333,-532.3455 804.6667,-532.3455 804.6667,-532.3455 848.3333,-532.3455 848.3333,-532.3455 852.1667,-532.3455 856,-536.1789 856,-540.0122 856,-540.0122 856,-547.6789 856,-547.6789 856,-551.5122 852.1667,-555.3455 848.3333,-555.3455"/>
<text text-anchor="middle" x="826.5" y="-540.1455" font-family="Arial" font-size="14.00" fill="#c6c5fe">core.js</text>
</g>
<!-- components/ruler.js&#45;&gt;core.js -->
<g id="edge4" class="edge">
<title>components/ruler.js&#45;&gt;core.js</title>
<path fill="none" stroke="#757575" d="M606.3828,-802.244C642.1389,-760.2694 765.0191,-616.0188 809.9103,-563.3204"/>
<polygon fill="#757575" stroke="#757575" points="812.8337,-565.286 816.654,-555.4039 807.5049,-560.7467 812.8337,-565.286"/>
</g>
<!-- core.js&#45;&gt;components/csv.js -->
<g id="edge10" class="edge">
<title>core.js&#45;&gt;components/csv.js</title>
<path fill="none" stroke="#757575" d="M831.1858,-532.2892C848.5991,-489.5122 911.5896,-336.2616 970,-212.8455 990.3059,-169.941 1016.1974,-120.817 1030.7504,-93.6583"/>
<polygon fill="#757575" stroke="#757575" points="1033.9148,-95.1637 1035.5677,-84.6985 1027.7495,-91.8488 1033.9148,-95.1637"/>
</g>
<!-- core.js&#45;&gt;particle.js -->
<g id="edge16" class="edge">
<title>core.js&#45;&gt;particle.js</title>
<path fill="none" stroke="#757575" d="M831.4708,-555.4743C846.4867,-588.8948 895.0076,-685.1024 970,-720.8455 1027.7734,-748.3817 1050.4035,-728.0212 1114,-720.8455 1301.6496,-699.6729 1384.1269,-707.617 1510,-566.8455 1538.3312,-535.161 1562.0988,-491.2673 1574.7288,-465.6815"/>
<polygon fill="#757575" stroke="#757575" points="1577.9509,-467.0579 1579.1543,-456.5316 1571.6493,-464.01 1577.9509,-467.0579"/>
</g>
<!-- core.js&#45;&gt;physics.js -->
<g id="edge17" class="edge">
<title>core.js&#45;&gt;physics.js</title>
<path fill="none" stroke="#757575" d="M844.2633,-532.1036C868.6932,-514.9355 912.1171,-480.5597 934,-439.8455 975.3099,-362.9865 905.1013,-305.1721 970,-246.8455 1002.9569,-217.2261 1299.6584,-210.0521 1419.8148,-208.3559"/>
<polygon fill="#757575" stroke="#757575" points="1419.908,-211.8551 1429.8601,-208.2211 1419.814,-204.8557 1419.908,-211.8551"/>
</g>
<!-- core.js&#45;&gt;helpers.js -->
<g id="edge15" class="edge">
<title>core.js&#45;&gt;helpers.js</title>
<path fill="none" stroke="#757575" d="M856.0922,-548.9048C885.0445,-553.6821 930.4331,-560.7129 970,-564.8455 1058.4765,-574.0867 1162.0389,-579.4156 1222.0191,-581.9645"/>
<polygon fill="#757575" stroke="#757575" points="1222.2021,-585.4751 1232.3389,-582.3939 1222.4931,-578.4811 1222.2021,-585.4751"/>
</g>
<!-- gpu/field.js -->
<g id="node10" class="node">
<title>gpu/field.js</title>
<path fill="none" stroke="#c6c5fe" d="M1077.3333,-711.3455C1077.3333,-711.3455 1006.6667,-711.3455 1006.6667,-711.3455 1002.8333,-711.3455 999,-707.5122 999,-703.6789 999,-703.6789 999,-696.0122 999,-696.0122 999,-692.1789 1002.8333,-688.3455 1006.6667,-688.3455 1006.6667,-688.3455 1077.3333,-688.3455 1077.3333,-688.3455 1081.1667,-688.3455 1085,-692.1789 1085,-696.0122 1085,-696.0122 1085,-703.6789 1085,-703.6789 1085,-707.5122 1081.1667,-711.3455 1077.3333,-711.3455"/>
<text text-anchor="middle" x="1042" y="-696.1455" font-family="Arial" font-size="14.00" fill="#c6c5fe">gpu/field.js</text>
</g>
<!-- core.js&#45;&gt;gpu/field.js -->
<g id="edge11" class="edge">
<title>core.js&#45;&gt;gpu/field.js</title>
<path fill="none" stroke="#757575" d="M842.6975,-555.5709C880.2302,-582.7407 973.3258,-650.1324 1017.7117,-682.2633"/>
<polygon fill="#757575" stroke="#757575" points="1015.7558,-685.1682 1025.9085,-688.1969 1019.8605,-679.4979 1015.7558,-685.1682"/>
</g>
<!-- gpu/graphics.js -->
<g id="node11" class="node">
<title>gpu/graphics.js</title>
<path fill="none" stroke="#c6c5fe" d="M1091.8333,-358.3455C1091.8333,-358.3455 992.1667,-358.3455 992.1667,-358.3455 988.3333,-358.3455 984.5,-354.5122 984.5,-350.6789 984.5,-350.6789 984.5,-343.0122 984.5,-343.0122 984.5,-339.1789 988.3333,-335.3455 992.1667,-335.3455 992.1667,-335.3455 1091.8333,-335.3455 1091.8333,-335.3455 1095.6667,-335.3455 1099.5,-339.1789 1099.5,-343.0122 1099.5,-343.0122 1099.5,-350.6789 1099.5,-350.6789 1099.5,-354.5122 1095.6667,-358.3455 1091.8333,-358.3455"/>
<text text-anchor="middle" x="1042" y="-343.1455" font-family="Arial" font-size="14.00" fill="#c6c5fe">gpu/graphics.js</text>
</g>
<!-- core.js&#45;&gt;gpu/graphics.js -->
<g id="edge12" class="edge">
<title>core.js&#45;&gt;gpu/graphics.js</title>
<path fill="none" stroke="#757575" d="M841.6166,-532.0558C863.9743,-514.042 906.2033,-477.7464 934,-439.8455 955.1586,-410.9957 942.5321,-390.7696 970,-367.8455 971.9681,-366.203 974.0593,-364.6889 976.2431,-363.2932"/>
<polygon fill="#757575" stroke="#757575" points="977.9629,-366.3419 985.0601,-358.4755 974.6064,-360.1991 977.9629,-366.3419"/>
</g>
<!-- gpu/shaders/computeShader.glsl.js -->
<g id="node12" class="node">
<title>gpu/shaders/computeShader.glsl.js</title>
<path fill="none" stroke="#c6c5fe" d="M1386.3333,-318.3455C1386.3333,-318.3455 1157.6667,-318.3455 1157.6667,-318.3455 1153.8333,-318.3455 1150,-314.5122 1150,-310.6789 1150,-310.6789 1150,-303.0122 1150,-303.0122 1150,-299.1789 1153.8333,-295.3455 1157.6667,-295.3455 1157.6667,-295.3455 1386.3333,-295.3455 1386.3333,-295.3455 1390.1667,-295.3455 1394,-299.1789 1394,-303.0122 1394,-303.0122 1394,-310.6789 1394,-310.6789 1394,-314.5122 1390.1667,-318.3455 1386.3333,-318.3455"/>
<text text-anchor="middle" x="1272" y="-303.1455" font-family="Arial" font-size="14.00" fill="#c6c5fe">gpu/shaders/computeShader.glsl.js</text>
</g>
<!-- core.js&#45;&gt;gpu/shaders/computeShader.glsl.js -->
<g id="edge13" class="edge">
<title>core.js&#45;&gt;gpu/shaders/computeShader.glsl.js</title>
<path fill="none" stroke="#757575" d="M842.7837,-532.2923C866.2251,-514.8461 909.3625,-479.5669 934,-439.8455 961.783,-395.0529 928.4979,-359.3393 970,-326.8455 996.322,-306.2369 1071.0865,-301.1739 1139.635,-301.2943"/>
<polygon fill="#757575" stroke="#757575" points="1139.6784,-304.7945 1149.6971,-301.3485 1139.7161,-297.7946 1139.6784,-304.7945"/>
</g>
<!-- gpu/simulation.js -->
<g id="node13" class="node">
<title>gpu/simulation.js</title>
<path fill="none" stroke="#c6c5fe" d="M1096.8333,-399.3455C1096.8333,-399.3455 987.1667,-399.3455 987.1667,-399.3455 983.3333,-399.3455 979.5,-395.5122 979.5,-391.6789 979.5,-391.6789 979.5,-384.0122 979.5,-384.0122 979.5,-380.1789 983.3333,-376.3455 987.1667,-376.3455 987.1667,-376.3455 1096.8333,-376.3455 1096.8333,-376.3455 1100.6667,-376.3455 1104.5,-380.1789 1104.5,-384.0122 1104.5,-384.0122 1104.5,-391.6789 1104.5,-391.6789 1104.5,-395.5122 1100.6667,-399.3455 1096.8333,-399.3455"/>
<text text-anchor="middle" x="1042" y="-384.1455" font-family="Arial" font-size="14.00" fill="#c6c5fe">gpu/simulation.js</text>
</g>
<!-- core.js&#45;&gt;gpu/simulation.js -->
<g id="edge14" class="edge">
<title>core.js&#45;&gt;gpu/simulation.js</title>
<path fill="none" stroke="#757575" d="M842.6975,-532.1202C880.2302,-504.9503 973.3258,-437.5587 1017.7117,-405.4278"/>
<polygon fill="#757575" stroke="#757575" points="1019.8605,-408.1931 1025.9085,-399.4941 1015.7558,-402.5229 1019.8605,-408.1931"/>
</g>
<!-- scenarios.js -->
<g id="node14" class="node">
<title>scenarios.js</title>
<path fill="none" stroke="#cfffac" d="M1081.3333,-555.3455C1081.3333,-555.3455 1002.6667,-555.3455 1002.6667,-555.3455 998.8333,-555.3455 995,-551.5122 995,-547.6789 995,-547.6789 995,-540.0122 995,-540.0122 995,-536.1789 998.8333,-532.3455 1002.6667,-532.3455 1002.6667,-532.3455 1081.3333,-532.3455 1081.3333,-532.3455 1085.1667,-532.3455 1089,-536.1789 1089,-540.0122 1089,-540.0122 1089,-547.6789 1089,-547.6789 1089,-551.5122 1085.1667,-555.3455 1081.3333,-555.3455"/>
<text text-anchor="middle" x="1042" y="-540.1455" font-family="Arial" font-size="14.00" fill="#cfffac">scenarios.js</text>
</g>
<!-- core.js&#45;&gt;scenarios.js -->
<g id="edge18" class="edge">
<title>core.js&#45;&gt;scenarios.js</title>
<path fill="none" stroke="#757575" d="M856.0125,-543.8455C888.9555,-543.8455 943.0675,-543.8455 984.4535,-543.8455"/>
<polygon fill="#757575" stroke="#757575" points="984.6806,-547.3456 994.6805,-543.8455 984.6805,-540.3456 984.6806,-547.3456"/>
</g>
<!-- components/selectionHelper.js -->
<g id="node9" class="node">
<title>components/selectionHelper.js</title>
<path fill="none" stroke="#c6c5fe" d="M926.3333,-143.3455C926.3333,-143.3455 726.6667,-143.3455 726.6667,-143.3455 722.8333,-143.3455 719,-139.5122 719,-135.6789 719,-135.6789 719,-128.0122 719,-128.0122 719,-124.1789 722.8333,-120.3455 726.6667,-120.3455 726.6667,-120.3455 926.3333,-120.3455 926.3333,-120.3455 930.1667,-120.3455 934,-124.1789 934,-128.0122 934,-128.0122 934,-135.6789 934,-135.6789 934,-139.5122 930.1667,-143.3455 926.3333,-143.3455"/>
<text text-anchor="middle" x="826.5" y="-128.1455" font-family="Arial" font-size="14.00" fill="#c6c5fe">components/selectionHelper.js</text>
</g>
<!-- components/selectionHelper.js&#45;&gt;components/csv.js -->
<g id="edge6" class="edge">
<title>components/selectionHelper.js&#45;&gt;components/csv.js</title>
<path fill="none" stroke="#757575" d="M876.9724,-120.29C895.0239,-115.9854 915.4787,-110.9102 934,-105.8455 954.6135,-100.2088 977.2526,-93.3895 996.4553,-87.4166"/>
<polygon fill="#757575" stroke="#757575" points="997.6568,-90.7081 1006.155,-84.381 995.5661,-84.0276 997.6568,-90.7081"/>
</g>
<!-- components/selectionHelper.js&#45;&gt;particle.js -->
<g id="edge8" class="edge">
<title>components/selectionHelper.js&#45;&gt;particle.js</title>
<path fill="none" stroke="#757575" d="M842.7997,-120.1509C868.4965,-102.3363 920.5977,-68.6971 970,-51.8455 1148.7149,9.1159 1209.0697,13.3132 1394,-24.8455 1448.9826,-36.1907 1474.644,-31.2364 1510,-74.8455 1554.2627,-129.4404 1576.6576,-352.3554 1582.7525,-423.1548"/>
<polygon fill="#757575" stroke="#757575" points="1579.2682,-423.4899 1583.5916,-433.1625 1586.2438,-422.905 1579.2682,-423.4899"/>
</g>
<!-- components/selectionHelper.js&#45;&gt;physics.js -->
<g id="edge9" class="edge">
<title>components/selectionHelper.js&#45;&gt;physics.js</title>
<path fill="none" stroke="#757575" d="M877.8125,-120.3412C980.3057,-99.8854 1215.812,-65.6535 1394,-136.8455 1419.8444,-147.1712 1442.1181,-170.8007 1455.7521,-187.971"/>
<polygon fill="#757575" stroke="#757575" points="1453.2218,-190.4251 1462.0675,-196.2565 1458.789,-186.1817 1453.2218,-190.4251"/>
</g>
<!-- components/selectionHelper.js&#45;&gt;helpers.js -->
<g id="edge7" class="edge">
<title>components/selectionHelper.js&#45;&gt;helpers.js</title>
<path fill="none" stroke="#757575" d="M832.9131,-143.7439C849.757,-175.0528 896.536,-262.378 934,-335.8455 950.4338,-368.0724 942.3647,-385.5018 970,-408.8455 1021.0249,-451.9465 1055.164,-420.2298 1114,-451.8455 1129.2119,-460.0197 1211.4966,-531.0755 1250.919,-565.4163"/>
<polygon fill="#757575" stroke="#757575" points="1248.8042,-568.216 1258.6411,-572.1511 1253.4052,-562.9405 1248.8042,-568.216"/>
</g>
<!-- gpu/field.js&#45;&gt;particle.js -->
<g id="edge20" class="edge">
<title>gpu/field.js&#45;&gt;particle.js</title>
<path fill="none" stroke="#757575" d="M1085.0747,-694.333C1153.6757,-684.2457 1290.5545,-658.7029 1394,-604.8455 1466.3988,-567.1522 1535.7217,-497.9158 1567.055,-464.2494"/>
<polygon fill="#757575" stroke="#757575" points="1569.9902,-466.2281 1574.1813,-456.4974 1564.8369,-461.4907 1569.9902,-466.2281"/>
</g>
<!-- gpu/field.js&#45;&gt;helpers.js -->
<g id="edge19" class="edge">
<title>gpu/field.js&#45;&gt;helpers.js</title>
<path fill="none" stroke="#757575" d="M1080.2196,-688.2741C1091.3853,-684.3047 1103.424,-679.4326 1114,-673.8455 1131.4511,-664.6265 1133.2187,-658.2339 1150,-647.8455 1179.033,-629.8728 1213.6253,-612.0423 1238.5475,-599.7847"/>
<polygon fill="#757575" stroke="#757575" points="1240.1413,-602.9015 1247.594,-595.371 1237.0719,-596.6103 1240.1413,-602.9015"/>
</g>
<!-- gpu/graphics.js&#45;&gt;particle.js -->
<g id="edge24" class="edge">
<title>gpu/graphics.js&#45;&gt;particle.js</title>
<path fill="none" stroke="#757575" d="M1097.1617,-358.3897C1114.0942,-361.8505 1132.7968,-365.5895 1150,-368.8455 1289.5199,-395.2526 1454.88,-423.2777 1535.4506,-436.7228"/>
<polygon fill="#757575" stroke="#757575" points="1535.3409,-440.2527 1545.7802,-438.4442 1536.4916,-433.348 1535.3409,-440.2527"/>
</g>
<!-- gpu/graphics.js&#45;&gt;helpers.js -->
<g id="edge23" class="edge">
<title>gpu/graphics.js&#45;&gt;helpers.js</title>
<path fill="none" stroke="#757575" d="M1098.9399,-358.4755C1104.3597,-361.0078 1109.5015,-364.0911 1114,-367.8455 1141.4679,-390.7696 1130.2957,-409.9835 1150,-439.8455 1181.8906,-488.1761 1227.8885,-538.4003 1253.3204,-564.873"/>
<polygon fill="#757575" stroke="#757575" points="1251.0421,-567.5515 1260.5144,-572.2978 1256.0694,-562.6805 1251.0421,-567.5515"/>
</g>
<!-- gpu/graphics.js&#45;&gt;gpu/shaders/computeShader.glsl.js -->
<g id="edge21" class="edge">
<title>gpu/graphics.js&#45;&gt;gpu/shaders/computeShader.glsl.js</title>
<path fill="none" stroke="#757575" d="M1099.7238,-336.6499C1115.9821,-333.7893 1133.6822,-330.6853 1150,-327.8455 1164.4511,-325.3306 1179.8682,-322.6641 1194.709,-320.1055"/>
<polygon fill="#757575" stroke="#757575" points="1195.6118,-323.5016 1204.8724,-318.3546 1194.4233,-316.6032 1195.6118,-323.5016"/>
</g>
<!-- gpu/shaders/particleShader.glsl.js -->
<g id="node15" class="node">
<title>gpu/shaders/particleShader.glsl.js</title>
<path fill="none" stroke="#cfffac" d="M1381.3333,-359.3455C1381.3333,-359.3455 1162.6667,-359.3455 1162.6667,-359.3455 1158.8333,-359.3455 1155,-355.5122 1155,-351.6789 1155,-351.6789 1155,-344.0122 1155,-344.0122 1155,-340.1789 1158.8333,-336.3455 1162.6667,-336.3455 1162.6667,-336.3455 1381.3333,-336.3455 1381.3333,-336.3455 1385.1667,-336.3455 1389,-340.1789 1389,-344.0122 1389,-344.0122 1389,-351.6789 1389,-351.6789 1389,-355.5122 1385.1667,-359.3455 1381.3333,-359.3455"/>
<text text-anchor="middle" x="1272" y="-344.1455" font-family="Arial" font-size="14.00" fill="#cfffac">gpu/shaders/particleShader.glsl.js</text>
</g>
<!-- gpu/graphics.js&#45;&gt;gpu/shaders/particleShader.glsl.js -->
<g id="edge22" class="edge">
<title>gpu/graphics.js&#45;&gt;gpu/shaders/particleShader.glsl.js</title>
<path fill="none" stroke="#757575" d="M1099.7418,-347.0966C1113.6047,-347.1569 1128.958,-347.2236 1144.6212,-347.2917"/>
<polygon fill="#757575" stroke="#757575" points="1144.9312,-350.793 1154.9464,-347.3366 1144.9617,-343.7931 1144.9312,-350.793"/>
</g>
<!-- gpu/shaders/computeShader.glsl.js&#45;&gt;physics.js -->
<g id="edge25" class="edge">
<title>gpu/shaders/computeShader.glsl.js&#45;&gt;physics.js</title>
<path fill="none" stroke="#757575" d="M1295.1006,-295.2952C1330.3271,-277.682 1397.5947,-244.0482 1437.6596,-224.0157"/>
<polygon fill="#757575" stroke="#757575" points="1439.3614,-227.078 1446.7404,-219.4753 1436.2309,-220.817 1439.3614,-227.078"/>
</g>
<!-- gpu/simulation.js&#45;&gt;particle.js -->
<g id="edge27" class="edge">
<title>gpu/simulation.js&#45;&gt;particle.js</title>
<path fill="none" stroke="#757575" d="M1102.2593,-399.4318C1106.329,-401.0126 1110.2837,-402.8076 1114,-404.8455 1133.5665,-415.5752 1129.3723,-431.3324 1150,-439.8455 1280.7035,-493.7875 1452.9317,-471.4217 1535.8151,-455.5709"/>
<polygon fill="#757575" stroke="#757575" points="1536.5723,-458.9891 1545.7103,-453.6275 1535.2232,-452.1204 1536.5723,-458.9891"/>
</g>
<!-- gpu/simulation.js&#45;&gt;physics.js -->
<g id="edge28" class="edge">
<title>gpu/simulation.js&#45;&gt;physics.js</title>
<path fill="none" stroke="#757575" d="M1089.1666,-399.3945C1161.5007,-414.2352 1301.1797,-431.2417 1394,-368.8455 1442.1214,-336.4971 1460.5276,-265.1042 1466.9283,-229.2599"/>
<polygon fill="#757575" stroke="#757575" points="1470.3874,-229.7938 1468.5489,-219.3597 1463.4794,-228.6629 1470.3874,-229.7938"/>
</g>
<!-- gpu/simulation.js&#45;&gt;helpers.js -->
<g id="edge26" class="edge">
<title>gpu/simulation.js&#45;&gt;helpers.js</title>
<path fill="none" stroke="#757575" d="M1089.1741,-399.4036C1098.0527,-403.0341 1106.7981,-407.7489 1114,-413.8455 1138.9091,-434.9317 1129.3795,-452.5496 1150,-477.8455 1178.9888,-513.4071 1220.7189,-546.7858 1247.0869,-566.2618"/>
<polygon fill="#757575" stroke="#757575" points="1245.2559,-569.2581 1255.3996,-572.3168 1249.3773,-563.6 1245.2559,-569.2581"/>
</g>
<!-- gui/advancedControls.js -->
<g id="node16" class="node">
<title>gui/advancedControls.js</title>
<path fill="none" stroke="#c6c5fe" d="M675.3333,-676.3455C675.3333,-676.3455 517.6667,-676.3455 517.6667,-676.3455 513.8333,-676.3455 510,-672.5122 510,-668.6789 510,-668.6789 510,-661.0122 510,-661.0122 510,-657.1789 513.8333,-653.3455 517.6667,-653.3455 517.6667,-653.3455 675.3333,-653.3455 675.3333,-653.3455 679.1667,-653.3455 683,-657.1789 683,-661.0122 683,-661.0122 683,-668.6789 683,-668.6789 683,-672.5122 679.1667,-676.3455 675.3333,-676.3455"/>
<text text-anchor="middle" x="596.5" y="-661.1455" font-family="Arial" font-size="14.00" fill="#c6c5fe">gui/advancedControls.js</text>
</g>
<!-- gui/advancedControls.js&#45;&gt;helpers.js -->
<g id="edge30" class="edge">
<title>gui/advancedControls.js&#45;&gt;helpers.js</title>
<path fill="none" stroke="#757575" d="M683.2365,-657.5377C786.1995,-648.4601 962.9857,-631.6051 1114,-610.8455 1150.2865,-605.8573 1191.0265,-598.8611 1222.0483,-593.2403"/>
<polygon fill="#757575" stroke="#757575" points="1222.9668,-596.6306 1232.1757,-591.3918 1221.7098,-589.7444 1222.9668,-596.6306"/>
</g>
<!-- gui/advancedControls.js&#45;&gt;core.js -->
<g id="edge29" class="edge">
<title>gui/advancedControls.js&#45;&gt;core.js</title>
<path fill="none" stroke="#757575" d="M659.8027,-653.2155C667.7686,-650.8824 675.6824,-648.1156 683,-644.8455 730.9373,-623.4232 779.369,-585.0678 805.9022,-562.2887"/>
<polygon fill="#757575" stroke="#757575" points="808.4763,-564.6881 813.719,-555.4813 803.8791,-559.4093 808.4763,-564.6881"/>
</g>
<!-- gui/controls.js -->
<g id="node17" class="node">
<title>gui/controls.js</title>
<path fill="none" stroke="#c6c5fe" d="M409.8333,-481.3455C409.8333,-481.3455 320.1667,-481.3455 320.1667,-481.3455 316.3333,-481.3455 312.5,-477.5122 312.5,-473.6789 312.5,-473.6789 312.5,-466.0122 312.5,-466.0122 312.5,-462.1789 316.3333,-458.3455 320.1667,-458.3455 320.1667,-458.3455 409.8333,-458.3455 409.8333,-458.3455 413.6667,-458.3455 417.5,-462.1789 417.5,-466.0122 417.5,-466.0122 417.5,-473.6789 417.5,-473.6789 417.5,-477.5122 413.6667,-481.3455 409.8333,-481.3455"/>
<text text-anchor="middle" x="365" y="-466.1455" font-family="Arial" font-size="14.00" fill="#c6c5fe">gui/controls.js</text>
</g>
<!-- gui/controls.js&#45;&gt;components/csv.js -->
<g id="edge31" class="edge">
<title>gui/controls.js&#45;&gt;components/csv.js</title>
<path fill="none" stroke="#757575" d="M373.3266,-458.1527C417.1641,-396.988 622.824,-115.0169 719,-71.8455 805.7382,-32.9106 919.2617,-45.9868 986.0453,-59.2591"/>
<polygon fill="#757575" stroke="#757575" points="985.4506,-62.71 995.9508,-61.2976 986.8616,-55.8537 985.4506,-62.71"/>
</g>
<!-- gui/controls.js&#45;&gt;helpers.js -->
<g id="edge34" class="edge">
<title>gui/controls.js&#45;&gt;helpers.js</title>
<path fill="none" stroke="#757575" d="M417.62,-476.8367C437.9464,-482.1398 459.704,-491.4617 474,-507.8455 527.066,-568.6614 449.5111,-632.4071 510,-685.8455 711.5187,-863.8754 862.0748,-814.8566 1114,-720.8455 1177.1166,-697.2923 1231.7447,-635.9074 1257.0301,-603.9075"/>
<polygon fill="#757575" stroke="#757575" points="1260.0158,-605.7681 1263.3665,-595.717 1254.4792,-601.4848 1260.0158,-605.7681"/>
</g>
<!-- gui/controls.js&#45;&gt;core.js -->
<g id="edge32" class="edge">
<title>gui/controls.js&#45;&gt;core.js</title>
<path fill="none" stroke="#757575" d="M417.9399,-478.3343C511.4842,-493.3338 703.9506,-524.1951 786.9611,-537.5056"/>
<polygon fill="#757575" stroke="#757575" points="786.5671,-540.9871 796.9952,-539.1145 787.6755,-534.0753 786.5671,-540.9871"/>
</g>
<!-- gui/controls.js&#45;&gt;scenarios.js -->
<g id="edge35" class="edge">
<title>gui/controls.js&#45;&gt;scenarios.js</title>
<path fill="none" stroke="#757575" d="M417.7118,-471.7214C480.8741,-474.2632 589.8527,-479.583 683,-488.8455 795.0821,-499.9909 822.8187,-505.8085 934,-523.8455 950.5228,-526.526 968.4128,-529.7198 984.7896,-532.7597"/>
<polygon fill="#757575" stroke="#757575" points="984.292,-536.2273 994.7652,-534.6266 985.5797,-529.3467 984.292,-536.2273"/>
</g>
<!-- gui/parameters.js -->
<g id="node18" class="node">
<title>gui/parameters.js</title>
<path fill="none" stroke="#c6c5fe" d="M652.8333,-441.3455C652.8333,-441.3455 540.1667,-441.3455 540.1667,-441.3455 536.3333,-441.3455 532.5,-437.5122 532.5,-433.6789 532.5,-433.6789 532.5,-426.0122 532.5,-426.0122 532.5,-422.1789 536.3333,-418.3455 540.1667,-418.3455 540.1667,-418.3455 652.8333,-418.3455 652.8333,-418.3455 656.6667,-418.3455 660.5,-422.1789 660.5,-426.0122 660.5,-426.0122 660.5,-433.6789 660.5,-433.6789 660.5,-437.5122 656.6667,-441.3455 652.8333,-441.3455"/>
<text text-anchor="middle" x="596.5" y="-426.1455" font-family="Arial" font-size="14.00" fill="#c6c5fe">gui/parameters.js</text>
</g>
<!-- gui/controls.js&#45;&gt;gui/parameters.js -->
<g id="edge33" class="edge">
<title>gui/controls.js&#45;&gt;gui/parameters.js</title>
<path fill="none" stroke="#757575" d="M417.5309,-460.7689C448.4924,-455.4192 488.1589,-448.5654 522.2765,-442.6703"/>
<polygon fill="#757575" stroke="#757575" points="522.9461,-446.1066 532.2041,-440.955 521.7542,-439.2088 522.9461,-446.1066"/>
</g>
<!-- gui/parameters.js&#45;&gt;physics.js -->
<g id="edge45" class="edge">
<title>gui/parameters.js&#45;&gt;physics.js</title>
<path fill="none" stroke="#757575" d="M658.2551,-418.2238C666.7104,-415.8679 675.1691,-413.0928 683,-409.8455 804.5454,-359.4442 831.0421,-334.7799 934,-252.8455 951.7052,-238.7556 949.4207,-226.2525 970,-216.8455 1121.2651,-147.7013 1326.1299,-177.0006 1419.6708,-196.129"/>
<polygon fill="#757575" stroke="#757575" points="1419.2075,-199.6078 1429.7126,-198.2316 1420.6422,-192.7564 1419.2075,-199.6078"/>
</g>
<!-- gui/parameters.js&#45;&gt;core.js -->
<g id="edge44" class="edge">
<title>gui/parameters.js&#45;&gt;core.js</title>
<path fill="none" stroke="#757575" d="M619.8194,-441.4038C661.061,-461.8453 746.9431,-504.413 793.9781,-527.726"/>
<polygon fill="#757575" stroke="#757575" points="792.6048,-530.9516 803.1189,-532.2566 795.7135,-524.6797 792.6048,-530.9516"/>
</g>
<!-- gui/dat.gui.js -->
<g id="node19" class="node">
<title>gui/dat.gui.js</title>
<path fill="none" stroke="#cfffac" d="M406.3333,-239.3455C406.3333,-239.3455 323.6667,-239.3455 323.6667,-239.3455 319.8333,-239.3455 316,-235.5122 316,-231.6789 316,-231.6789 316,-224.0122 316,-224.0122 316,-220.1789 319.8333,-216.3455 323.6667,-216.3455 323.6667,-216.3455 406.3333,-216.3455 406.3333,-216.3455 410.1667,-216.3455 414,-220.1789 414,-224.0122 414,-224.0122 414,-231.6789 414,-231.6789 414,-235.5122 410.1667,-239.3455 406.3333,-239.3455"/>
<text text-anchor="middle" x="365" y="-224.1455" font-family="Arial" font-size="14.00" fill="#cfffac">gui/dat.gui.js</text>
</g>
<!-- gui/field.js -->
<g id="node20" class="node">
<title>gui/field.js</title>
<path fill="none" stroke="#c6c5fe" d="M397.3333,-539.3455C397.3333,-539.3455 332.6667,-539.3455 332.6667,-539.3455 328.8333,-539.3455 325,-535.5122 325,-531.6789 325,-531.6789 325,-524.0122 325,-524.0122 325,-520.1789 328.8333,-516.3455 332.6667,-516.3455 332.6667,-516.3455 397.3333,-516.3455 397.3333,-516.3455 401.1667,-516.3455 405,-520.1789 405,-524.0122 405,-524.0122 405,-531.6789 405,-531.6789 405,-535.5122 401.1667,-539.3455 397.3333,-539.3455"/>
<text text-anchor="middle" x="365" y="-524.1455" font-family="Arial" font-size="14.00" fill="#c6c5fe">gui/field.js</text>
</g>
<!-- gui/field.js&#45;&gt;core.js -->
<g id="edge36" class="edge">
<title>gui/field.js&#45;&gt;core.js</title>
<path fill="none" stroke="#757575" d="M405.1478,-529.2374C492.7064,-532.2731 699.9391,-539.4577 786.95,-542.4743"/>
<polygon fill="#757575" stroke="#757575" points="786.8337,-545.9723 796.949,-542.821 787.0763,-538.9765 786.8337,-545.9723"/>
</g>
<!-- gui/generator.js -->
<g id="node21" class="node">
<title>gui/generator.js</title>
<path fill="none" stroke="#c6c5fe" d="M646.8333,-400.3455C646.8333,-400.3455 546.1667,-400.3455 546.1667,-400.3455 542.3333,-400.3455 538.5,-396.5122 538.5,-392.6789 538.5,-392.6789 538.5,-385.0122 538.5,-385.0122 538.5,-381.1789 542.3333,-377.3455 546.1667,-377.3455 546.1667,-377.3455 646.8333,-377.3455 646.8333,-377.3455 650.6667,-377.3455 654.5,-381.1789 654.5,-385.0122 654.5,-385.0122 654.5,-392.6789 654.5,-392.6789 654.5,-396.5122 650.6667,-400.3455 646.8333,-400.3455"/>
<text text-anchor="middle" x="596.5" y="-385.1455" font-family="Arial" font-size="14.00" fill="#c6c5fe">gui/generator.js</text>
</g>
<!-- gui/generator.js&#45;&gt;physics.js -->
<g id="edge40" class="edge">
<title>gui/generator.js&#45;&gt;physics.js</title>
<path fill="none" stroke="#757575" d="M654.6403,-382.8589C664.8298,-379.8155 674.7842,-375.3537 683,-368.8455 711.3564,-346.3832 693.3061,-321.3105 719,-295.8455 806.9601,-208.6692 849.2691,-202.4272 970,-174.8455 1153.7113,-132.8756 1209.4946,-136.5171 1394,-174.8455 1410.0205,-178.1736 1426.809,-185.0594 1440.5201,-191.6843"/>
<polygon fill="#757575" stroke="#757575" points="1438.9664,-194.8205 1449.4734,-196.1821 1442.1088,-188.5655 1438.9664,-194.8205"/>
</g>
<!-- gui/generator.js&#45;&gt;helpers.js -->
<g id="edge39" class="edge">
<title>gui/generator.js&#45;&gt;helpers.js</title>
<path fill="none" stroke="#757575" d="M648.4618,-400.3816C742.3315,-421.6671 946.0337,-469.9019 1114,-523.8455 1156.0269,-537.3428 1203.2218,-555.6965 1234.9976,-568.538"/>
<polygon fill="#757575" stroke="#757575" points="1233.7593,-571.8126 1244.3413,-572.3348 1236.3946,-565.3276 1233.7593,-571.8126"/>
</g>
<!-- gui/generator.js&#45;&gt;core.js -->
<g id="edge38" class="edge">
<title>gui/generator.js&#45;&gt;core.js</title>
<path fill="none" stroke="#757575" d="M654.5438,-395.7094C664.7422,-398.8517 674.7245,-403.3692 683,-409.8455 710.2397,-431.1632 695.3232,-453.6294 719,-478.8455 738.8553,-499.9917 767.0953,-516.71 789.6486,-527.8937"/>
<polygon fill="#757575" stroke="#757575" points="788.3951,-531.1742 798.9251,-532.3446 791.4233,-524.8631 788.3951,-531.1742"/>
</g>
<!-- gui/generator.js&#45;&gt;components/selectionHelper.js -->
<g id="edge37" class="edge">
<title>gui/generator.js&#45;&gt;components/selectionHelper.js</title>
<path fill="none" stroke="#757575" d="M654.5194,-385.2124C665.2104,-382.0317 675.3845,-376.9179 683,-368.8455 748.2823,-299.6466 654.0674,-227.3727 719,-157.8455 722.3461,-154.2627 726.094,-151.1359 730.1302,-148.4098"/>
<polygon fill="#757575" stroke="#757575" points="731.9115,-151.4228 738.7839,-143.3592 728.383,-145.3771 731.9115,-151.4228"/>
</g>
<!-- scenariosHelpers.js -->
<g id="node22" class="node">
<title>scenariosHelpers.js</title>
<path fill="none" stroke="#c6c5fe" d="M1106.3333,-278.3455C1106.3333,-278.3455 977.6667,-278.3455 977.6667,-278.3455 973.8333,-278.3455 970,-274.5122 970,-270.6789 970,-270.6789 970,-263.0122 970,-263.0122 970,-259.1789 973.8333,-255.3455 977.6667,-255.3455 977.6667,-255.3455 1106.3333,-255.3455 1106.3333,-255.3455 1110.1667,-255.3455 1114,-259.1789 1114,-263.0122 1114,-263.0122 1114,-270.6789 1114,-270.6789 1114,-274.5122 1110.1667,-278.3455 1106.3333,-278.3455"/>
<text text-anchor="middle" x="1042" y="-263.1455" font-family="Arial" font-size="14.00" fill="#c6c5fe">scenariosHelpers.js</text>
</g>
<!-- gui/generator.js&#45;&gt;scenariosHelpers.js -->
<g id="edge41" class="edge">
<title>gui/generator.js&#45;&gt;scenariosHelpers.js</title>
<path fill="none" stroke="#757575" d="M648.2883,-377.3127C659.7453,-374.6385 671.805,-371.7282 683,-368.8455 794.9852,-340.0094 925.3124,-301.8049 993.9788,-281.3097"/>
<polygon fill="#757575" stroke="#757575" points="995.0745,-284.6353 1003.6529,-278.4176 993.0694,-277.9286 995.0745,-284.6353"/>
</g>
<!-- scenariosHelpers.js&#45;&gt;particle.js -->
<g id="edge57" class="edge">
<title>scenariosHelpers.js&#45;&gt;particle.js</title>
<path fill="none" stroke="#757575" d="M1114.2382,-258.112C1187.4243,-252.1657 1302.5705,-250.9004 1394,-286.8455 1470.3096,-316.8463 1538.7056,-389.914 1568.5842,-425.1725"/>
<polygon fill="#757575" stroke="#757575" points="1566.2422,-427.8295 1575.3319,-433.2726 1571.6206,-423.3491 1566.2422,-427.8295"/>
</g>
<!-- scenariosHelpers.js&#45;&gt;helpers.js -->
<g id="edge56" class="edge">
<title>scenariosHelpers.js&#45;&gt;helpers.js</title>
<path fill="none" stroke="#757575" d="M1058.7699,-278.3746C1074.2827,-289.5735 1097.3844,-307.6561 1114,-326.8455 1182.2101,-405.6213 1239.8284,-517.1768 1262.1205,-562.9828"/>
<polygon fill="#757575" stroke="#757575" points="1259.0693,-564.7137 1266.5615,-572.2049 1265.3762,-561.6766 1259.0693,-564.7137"/>
</g>
<!-- gui/info.js -->
<g id="node23" class="node">
<title>gui/info.js</title>
<path fill="none" stroke="#c6c5fe" d="M627.3333,-635.3455C627.3333,-635.3455 565.6667,-635.3455 565.6667,-635.3455 561.8333,-635.3455 558,-631.5122 558,-627.6789 558,-627.6789 558,-620.0122 558,-620.0122 558,-616.1789 561.8333,-612.3455 565.6667,-612.3455 565.6667,-612.3455 627.3333,-612.3455 627.3333,-612.3455 631.1667,-612.3455 635,-616.1789 635,-620.0122 635,-620.0122 635,-627.6789 635,-627.6789 635,-631.5122 631.1667,-635.3455 627.3333,-635.3455"/>
<text text-anchor="middle" x="596.5" y="-620.1455" font-family="Arial" font-size="14.00" fill="#c6c5fe">gui/info.js</text>
</g>
<!-- gui/info.js&#45;&gt;helpers.js -->
<g id="edge43" class="edge">
<title>gui/info.js&#45;&gt;helpers.js</title>
<path fill="none" stroke="#757575" d="M635.244,-621.5513C750.8383,-614.7063 1093.2287,-594.4315 1222.1487,-586.7975"/>
<polygon fill="#757575" stroke="#757575" points="1222.3686,-590.2907 1232.1442,-586.2056 1221.9548,-583.3029 1222.3686,-590.2907"/>
</g>
<!-- gui/info.js&#45;&gt;core.js -->
<g id="edge42" class="edge">
<title>gui/info.js&#45;&gt;core.js</title>
<path fill="none" stroke="#757575" d="M635.0012,-612.8823C650.0473,-608.4391 667.4018,-603.1178 683,-597.8455 718.8665,-585.7224 759.1743,-570.4016 787.9171,-559.1784"/>
<polygon fill="#757575" stroke="#757575" points="789.543,-562.3004 797.5753,-555.3915 786.9877,-555.7835 789.543,-562.3004"/>
</g>
<!-- gui/particle.js -->
<g id="node24" class="node">
<title>gui/particle.js</title>
<path fill="none" stroke="#c6c5fe" d="M639.3333,-866.3455C639.3333,-866.3455 553.6667,-866.3455 553.6667,-866.3455 549.8333,-866.3455 546,-862.5122 546,-858.6789 546,-858.6789 546,-851.0122 546,-851.0122 546,-847.1789 549.8333,-843.3455 553.6667,-843.3455 553.6667,-843.3455 639.3333,-843.3455 639.3333,-843.3455 643.1667,-843.3455 647,-847.1789 647,-851.0122 647,-851.0122 647,-858.6789 647,-858.6789 647,-862.5122 643.1667,-866.3455 639.3333,-866.3455"/>
<text text-anchor="middle" x="596.5" y="-851.1455" font-family="Arial" font-size="14.00" fill="#c6c5fe">gui/particle.js</text>
</g>
<!-- gui/particle.js&#45;&gt;particle.js -->
<g id="edge48" class="edge">
<title>gui/particle.js&#45;&gt;particle.js</title>
<path fill="none" stroke="#757575" d="M647.0757,-862.2017C669.1282,-865.2148 695.3056,-868.5303 719,-870.8455 862.1768,-884.8353 898.1414,-891.8455 1042,-891.8455 1042,-891.8455 1042,-891.8455 1272,-891.8455 1481.9719,-891.8455 1562.6598,-556.4489 1580.4913,-466.7067"/>
<polygon fill="#757575" stroke="#757575" points="1583.9445,-467.2832 1582.3993,-456.8017 1577.0709,-465.9591 1583.9445,-467.2832"/>
</g>
<!-- gui/particle.js&#45;&gt;helpers.js -->
<g id="edge47" class="edge">
<title>gui/particle.js&#45;&gt;helpers.js</title>
<path fill="none" stroke="#757575" d="M647.1063,-856.9512C761.495,-860.8257 1036.0792,-864.8957 1114,-818.8455 1198.795,-768.7328 1247.6386,-653.1256 1264.8677,-605.2298"/>
<polygon fill="#757575" stroke="#757575" points="1268.2441,-606.177 1268.2362,-595.5822 1261.6353,-603.8695 1268.2441,-606.177"/>
</g>
<!-- gui/particle.js&#45;&gt;core.js -->
<g id="edge46" class="edge">
<title>gui/particle.js&#45;&gt;core.js</title>
<path fill="none" stroke="#757575" d="M647.4283,-850.7799C660.0493,-847.802 672.8511,-842.8851 683,-834.8455 773.4656,-763.1824 811.0424,-619.8335 822.4415,-565.446"/>
<polygon fill="#757575" stroke="#757575" points="825.8965,-566.0177 824.4335,-555.5243 819.0335,-564.6397 825.8965,-566.0177"/>
</g>
<!-- gui/selection.js -->
<g id="node25" class="node">
<title>gui/selection.js</title>
<path fill="none" stroke="#c6c5fe" d="M644.8333,-359.3455C644.8333,-359.3455 548.1667,-359.3455 548.1667,-359.3455 544.3333,-359.3455 540.5,-355.5122 540.5,-351.6789 540.5,-351.6789 540.5,-344.0122 540.5,-344.0122 540.5,-340.1789 544.3333,-336.3455 548.1667,-336.3455 548.1667,-336.3455 644.8333,-336.3455 644.8333,-336.3455 648.6667,-336.3455 652.5,-340.1789 652.5,-344.0122 652.5,-344.0122 652.5,-351.6789 652.5,-351.6789 652.5,-355.5122 648.6667,-359.3455 644.8333,-359.3455"/>
<text text-anchor="middle" x="596.5" y="-344.1455" font-family="Arial" font-size="14.00" fill="#c6c5fe">gui/selection.js</text>
</g>
<!-- gui/selection.js&#45;&gt;components/csv.js -->
<g id="edge49" class="edge">
<title>gui/selection.js&#45;&gt;components/csv.js</title>
<path fill="none" stroke="#757575" d="M598.5654,-336.1925C606.2255,-296.7624 636.9272,-167.6504 719,-110.8455 757.3289,-84.317 880.5807,-76.2012 963.2648,-73.7823"/>
<polygon fill="#757575" stroke="#757575" points="963.4883,-77.2777 973.39,-73.5085 963.299,-70.2802 963.4883,-77.2777"/>
</g>
<!-- gui/selection.js&#45;&gt;helpers.js -->
<g id="edge52" class="edge">
<title>gui/selection.js&#45;&gt;helpers.js</title>
<path fill="none" stroke="#757575" d="M652.7319,-349.8686C722.0675,-354.2941 842.0132,-368.3443 934,-412.8455 953.0072,-422.0408 951.2514,-434.1338 970,-443.8455 1028.5773,-474.1886 1053.5918,-453.3343 1114,-479.8455 1166.2756,-502.7876 1220.4122,-542.5285 1249.7768,-565.6742"/>
<polygon fill="#757575" stroke="#757575" points="1247.7224,-568.5126 1257.7229,-572.0112 1252.087,-563.0398 1247.7224,-568.5126"/>
</g>
<!-- gui/selection.js&#45;&gt;core.js -->
<g id="edge51" class="edge">
<title>gui/selection.js&#45;&gt;core.js</title>
<path fill="none" stroke="#757575" d="M652.6296,-355.8782C663.2234,-358.9113 673.841,-363.0896 683,-368.8455 746.5183,-408.7633 795.1142,-486.4868 815.7128,-523.4153"/>
<polygon fill="#757575" stroke="#757575" points="812.6901,-525.1829 820.5549,-532.2819 818.8337,-521.8278 812.6901,-525.1829"/>
</g>
<!-- gui/selection.js&#45;&gt;components/selectionHelper.js -->
<g id="edge50" class="edge">
<title>gui/selection.js&#45;&gt;components/selectionHelper.js</title>
<path fill="none" stroke="#757575" d="M652.6402,-340.3233C663.984,-336.4286 674.8988,-330.5862 683,-321.8455 733.7273,-267.1141 666.7954,-211.1697 719,-157.8455 722.5093,-154.261 726.4218,-151.1373 730.6188,-148.4177"/>
<polygon fill="#757575" stroke="#757575" points="732.5843,-151.3284 739.5951,-143.3848 729.1609,-145.2226 732.5843,-151.3284"/>
</g>
<!-- gui/stats.js -->
<g id="node26" class="node">
<title>gui/stats.js</title>
<path fill="none" stroke="#cfffac" d="M399.8333,-198.3455C399.8333,-198.3455 330.1667,-198.3455 330.1667,-198.3455 326.3333,-198.3455 322.5,-194.5122 322.5,-190.6789 322.5,-190.6789 322.5,-183.0122 322.5,-183.0122 322.5,-179.1789 326.3333,-175.3455 330.1667,-175.3455 330.1667,-175.3455 399.8333,-175.3455 399.8333,-175.3455 403.6667,-175.3455 407.5,-179.1789 407.5,-183.0122 407.5,-183.0122 407.5,-190.6789 407.5,-190.6789 407.5,-194.5122 403.6667,-198.3455 399.8333,-198.3455"/>
<text text-anchor="middle" x="365" y="-183.1455" font-family="Arial" font-size="14.00" fill="#cfffac">gui/stats.js</text>
</g>
<!-- main.js -->
<g id="node27" class="node">
<title>main.js</title>
<path fill="none" stroke="#c6c5fe" d="M85.8333,-481.3455C85.8333,-481.3455 39.1667,-481.3455 39.1667,-481.3455 35.3333,-481.3455 31.5,-477.5122 31.5,-473.6789 31.5,-473.6789 31.5,-466.0122 31.5,-466.0122 31.5,-462.1789 35.3333,-458.3455 39.1667,-458.3455 39.1667,-458.3455 85.8333,-458.3455 85.8333,-458.3455 89.6667,-458.3455 93.5,-462.1789 93.5,-466.0122 93.5,-466.0122 93.5,-473.6789 93.5,-473.6789 93.5,-477.5122 89.6667,-481.3455 85.8333,-481.3455"/>
<text text-anchor="middle" x="62.5" y="-466.1455" font-family="Arial" font-size="14.00" fill="#c6c5fe">main.js</text>
</g>
<!-- view.js -->
<g id="node28" class="node">
<title>view.js</title>
<path fill="none" stroke="#c6c5fe" d="M212.3333,-481.3455C212.3333,-481.3455 168.6667,-481.3455 168.6667,-481.3455 164.8333,-481.3455 161,-477.5122 161,-473.6789 161,-473.6789 161,-466.0122 161,-466.0122 161,-462.1789 164.8333,-458.3455 168.6667,-458.3455 168.6667,-458.3455 212.3333,-458.3455 212.3333,-458.3455 216.1667,-458.3455 220,-462.1789 220,-466.0122 220,-466.0122 220,-473.6789 220,-473.6789 220,-477.5122 216.1667,-481.3455 212.3333,-481.3455"/>
<text text-anchor="middle" x="190.5" y="-466.1455" font-family="Arial" font-size="14.00" fill="#c6c5fe">view.js</text>
</g>
<!-- main.js&#45;&gt;view.js -->
<g id="edge54" class="edge">
<title>main.js&#45;&gt;view.js</title>
<path fill="none" stroke="#757575" d="M93.8123,-469.8455C110.9681,-469.8455 132.4075,-469.8455 150.7355,-469.8455"/>
<polygon fill="#757575" stroke="#757575" points="150.8302,-473.3456 160.8301,-469.8455 150.8301,-466.3456 150.8302,-473.3456"/>
</g>
<!-- view.js&#45;&gt;components/keyboardHelper.js -->
<g id="edge58" class="edge">
<title>view.js&#45;&gt;components/keyboardHelper.js</title>
<path fill="none" stroke="#757575" d="M191.2483,-457.9513C193.9061,-426.2808 205.6662,-339.2958 256,-294.8455 260.2835,-291.0627 265.0192,-287.8057 270.0468,-285.0036"/>
<polygon fill="#757575" stroke="#757575" points="271.9347,-287.9763 279.3773,-280.4358 268.8569,-281.6892 271.9347,-287.9763"/>
</g>
<!-- view.js&#45;&gt;components/mouseHelper.js -->
<g id="edge59" class="edge">
<title>view.js&#45;&gt;components/mouseHelper.js</title>
<path fill="none" stroke="#757575" d="M191.1317,-481.3504C194.2982,-534.8361 210.1486,-758.6584 256,-807.8455 373.2534,-933.6291 585.6552,-947.1549 715.5955,-941.9698"/>
<polygon fill="#757575" stroke="#757575" points="716.1325,-945.4495 725.9674,-941.5093 715.8219,-938.4564 716.1325,-945.4495"/>
</g>
<!-- view.js&#45;&gt;components/ruler.js -->
<g id="edge60" class="edge">
<title>view.js&#45;&gt;components/ruler.js</title>
<path fill="none" stroke="#757575" d="M191.0674,-481.5343C193.31,-515.3975 204.2039,-614.8372 256,-672.8455 323.293,-748.2093 437.1244,-784.2476 514.4768,-800.8001"/>
<polygon fill="#757575" stroke="#757575" points="514.1652,-804.3099 524.6676,-802.9136 515.5868,-797.4558 514.1652,-804.3099"/>
</g>
<!-- view.js&#45;&gt;core.js -->
<g id="edge62" class="edge">
<title>view.js&#45;&gt;core.js</title>
<path fill="none" stroke="#757575" d="M195.9427,-481.4566C205.2623,-499.7813 226.1968,-534.7694 256,-548.8455 437.9003,-634.7575 690.2587,-581.2045 786.7872,-555.4034"/>
<polygon fill="#757575" stroke="#757575" points="787.9785,-558.7065 796.7073,-552.7016 786.139,-551.9525 787.9785,-558.7065"/>
</g>
<!-- view.js&#45;&gt;components/selectionHelper.js -->
<g id="edge61" class="edge">
<title>view.js&#45;&gt;components/selectionHelper.js</title>
<path fill="none" stroke="#757575" d="M192.5111,-458.1859C197.7482,-431.5729 214.4048,-366.1652 256,-333.8455 334.051,-273.1996 381.0376,-323.4293 474,-289.8455 590.3291,-247.8203 603.4936,-202.0816 719,-157.8455 731.0742,-153.2214 744.234,-149.231 757.0731,-145.861"/>
<polygon fill="#757575" stroke="#757575" points="757.9659,-149.2454 766.8053,-143.4045 756.2528,-142.4583 757.9659,-149.2454"/>
</g>
<!-- view.js&#45;&gt;gui/advancedControls.js -->
<g id="edge63" class="edge">
<title>view.js&#45;&gt;gui/advancedControls.js</title>
<path fill="none" stroke="#757575" d="M191.1889,-481.4004C193.6994,-512.0939 205.126,-595.904 256,-633.8455 335.0754,-692.8195 454.9738,-688.2905 529.3718,-677.8532"/>
<polygon fill="#757575" stroke="#757575" points="530.1781,-681.2722 539.5587,-676.3473 529.1543,-674.3474 530.1781,-681.2722"/>
</g>
<!-- view.js&#45;&gt;gui/controls.js -->
<g id="edge64" class="edge">
<title>view.js&#45;&gt;gui/controls.js</title>
<path fill="none" stroke="#757575" d="M220.1015,-469.8455C242.5315,-469.8455 274.1619,-469.8455 302.1498,-469.8455"/>
<polygon fill="#757575" stroke="#757575" points="302.2726,-473.3456 312.2725,-469.8455 302.2725,-466.3456 302.2726,-473.3456"/>
</g>
<!-- view.js&#45;&gt;gui/parameters.js -->
<g id="edge69" class="edge">
<title>view.js&#45;&gt;gui/parameters.js</title>
<path fill="none" stroke="#757575" d="M220.132,-459.1654C231.2399,-455.5971 244.0629,-451.987 256,-449.8455 346.5057,-433.6089 452.4917,-429.7109 521.8804,-429.1571"/>
<polygon fill="#757575" stroke="#757575" points="522.2907,-432.6548 532.2702,-429.097 522.2501,-425.6549 522.2907,-432.6548"/>
</g>
<!-- view.js&#45;&gt;gui/dat.gui.js -->
<g id="edge65" class="edge">
<title>view.js&#45;&gt;gui/dat.gui.js</title>
<path fill="none" stroke="#757575" d="M192.3112,-458.3371C199.0225,-417.1637 223.7598,-278.0773 256,-248.8455 269.4264,-236.672 287.6979,-230.6085 305.4427,-227.8088"/>
<polygon fill="#757575" stroke="#757575" points="306.3003,-231.229 315.7892,-226.516 305.4324,-224.283 306.3003,-231.229"/>
</g>
<!-- view.js&#45;&gt;gui/field.js -->
<g id="edge66" class="edge">
<title>view.js&#45;&gt;gui/field.js</title>
<path fill="none" stroke="#757575" d="M220.1015,-479.6844C247.5647,-488.8126 288.8206,-502.5252 320.2955,-512.9867"/>
<polygon fill="#757575" stroke="#757575" points="319.5475,-516.4263 330.141,-516.2592 321.7555,-509.7836 319.5475,-516.4263"/>
</g>
<!-- view.js&#45;&gt;gui/generator.js -->
<g id="edge67" class="edge">
<title>view.js&#45;&gt;gui/generator.js</title>
<path fill="none" stroke="#757575" d="M203.4853,-458.3025C215.9932,-447.9074 235.9242,-433.171 256,-425.8455 346.1113,-392.9648 457.8622,-386.8312 528.1993,-386.792"/>
<polygon fill="#757575" stroke="#757575" points="528.2565,-390.2921 538.2689,-386.828 528.2816,-383.2922 528.2565,-390.2921"/>
</g>
<!-- view.js&#45;&gt;gui/info.js -->
<g id="edge68" class="edge">
<title>view.js&#45;&gt;gui/info.js</title>
<path fill="none" stroke="#757575" d="M192.5643,-481.5712C197.836,-507.6225 214.4321,-570.1929 256,-597.8455 344.921,-656.9993 477.3003,-645.7772 547.947,-633.9322"/>
<polygon fill="#757575" stroke="#757575" points="548.6631,-637.3601 557.9098,-632.1883 547.4561,-630.4649 548.6631,-637.3601"/>
</g>
<!-- view.js&#45;&gt;gui/particle.js -->
<g id="edge70" class="edge">
<title>view.js&#45;&gt;gui/particle.js</title>
<path fill="none" stroke="#757575" d="M191.8055,-481.5989C197.2742,-528.8706 219.7518,-704.5074 256,-744.8455 328.125,-825.1083 459.1361,-847.0941 535.9169,-852.935"/>
<polygon fill="#757575" stroke="#757575" points="535.7027,-856.4285 545.9207,-853.6279 536.1864,-849.4452 535.7027,-856.4285"/>
</g>
<!-- view.js&#45;&gt;gui/selection.js -->
<g id="edge71" class="edge">
<title>view.js&#45;&gt;gui/selection.js</title>
<path fill="none" stroke="#757575" d="M195.5444,-458.2219C204.5631,-439.0127 225.4151,-401.0586 256,-383.8455 341.2955,-335.8414 457.7267,-334.6951 529.9579,-339.9891"/>
<polygon fill="#757575" stroke="#757575" points="530.0389,-343.5065 540.2853,-340.8121 530.595,-336.5287 530.0389,-343.5065"/>
</g>
<!-- view.js&#45;&gt;gui/stats.js -->
<g id="edge72" class="edge">
<title>view.js&#45;&gt;gui/stats.js</title>
<path fill="none" stroke="#757575" d="M191.7639,-458.1784C196.9959,-412.0763 218.4634,-243.3849 256,-207.8455 270.8963,-193.7419 292.2499,-187.7361 312.1155,-185.5325"/>
<polygon fill="#757575" stroke="#757575" points="312.6421,-189.0014 322.3262,-184.7039 312.0759,-182.0243 312.6421,-189.0014"/>
</g>
<!-- mock/graphics.js -->
<g id="node29" class="node">
<title>mock/graphics.js</title>
<path fill="none" stroke="#cfffac" d="M117.3333,-522.3455C117.3333,-522.3455 7.6667,-522.3455 7.6667,-522.3455 3.8333,-522.3455 0,-518.5122 0,-514.6789 0,-514.6789 0,-507.0122 0,-507.0122 0,-503.1789 3.8333,-499.3455 7.6667,-499.3455 7.6667,-499.3455 117.3333,-499.3455 117.3333,-499.3455 121.1667,-499.3455 125,-503.1789 125,-507.0122 125,-507.0122 125,-514.6789 125,-514.6789 125,-518.5122 121.1667,-522.3455 117.3333,-522.3455"/>
<text text-anchor="middle" x="62.5" y="-507.1455" font-family="Arial" font-size="14.00" fill="#cfffac">mock/graphics.js</text>
</g>
</g>
</svg>
