<?xml version="1.0" encoding="UTF-8" standalone="no"?>
<!DOCTYPE svg PUBLIC "-//W3C//DTD SVG 1.1//EN"
 "http://www.w3.org/Graphics/SVG/1.1/DTD/svg11.dtd">
<!-- Generated by graphviz version 2.43.0 (0)
 -->
<!-- Title: G Pages: 1 -->
<svg width="1489pt" height="985pt"
 viewBox="0.00 0.00 1489.20 984.70" xmlns="http://www.w3.org/2000/svg" xmlns:xlink="http://www.w3.org/1999/xlink">
<g id="graph0" class="graph" transform="scale(1 1) rotate(0) translate(21.6 963.1)">
<title>G</title>
<polygon fill="#111111" stroke="transparent" points="-21.6,21.6 -21.6,-963.1 1467.6,-963.1 1467.6,21.6 -21.6,21.6"/>
<!-- components/keyboard.js -->
<g id="node1" class="node">
<title>components/keyboard.js</title>
<path fill="none" stroke="#cfffac" d="M402.33,-941.5C402.33,-941.5 253.67,-941.5 253.67,-941.5 249.83,-941.5 246,-937.67 246,-933.83 246,-933.83 246,-926.17 246,-926.17 246,-922.33 249.83,-918.5 253.67,-918.5 253.67,-918.5 402.33,-918.5 402.33,-918.5 406.17,-918.5 410,-922.33 410,-926.17 410,-926.17 410,-933.83 410,-933.83 410,-937.67 406.17,-941.5 402.33,-941.5"/>
<text text-anchor="middle" x="328" y="-926.3" font-family="Arial" font-size="14.00" fill="#cfffac">components/keyboard.js</text>
</g>
<!-- components/mouse.js -->
<g id="node2" class="node">
<title>components/mouse.js</title>
<path fill="none" stroke="#c6c5fe" d="M784.33,-903.5C784.33,-903.5 650.67,-903.5 650.67,-903.5 646.83,-903.5 643,-899.67 643,-895.83 643,-895.83 643,-888.17 643,-888.17 643,-884.33 646.83,-880.5 650.67,-880.5 650.67,-880.5 784.33,-880.5 784.33,-880.5 788.17,-880.5 792,-884.33 792,-888.17 792,-888.17 792,-895.83 792,-895.83 792,-899.67 788.17,-903.5 784.33,-903.5"/>
<text text-anchor="middle" x="717.5" y="-888.3" font-family="Arial" font-size="14.00" fill="#c6c5fe">components/mouse.js</text>
</g>
<!-- helpers.js -->
<g id="node3" class="node">
<title>helpers.js</title>
<path fill="none" stroke="#c6c5fe" d="M1140.83,-521.5C1140.83,-521.5 1082.17,-521.5 1082.17,-521.5 1078.33,-521.5 1074.5,-517.67 1074.5,-513.83 1074.5,-513.83 1074.5,-506.17 1074.5,-506.17 1074.5,-502.33 1078.33,-498.5 1082.17,-498.5 1082.17,-498.5 1140.83,-498.5 1140.83,-498.5 1144.67,-498.5 1148.5,-502.33 1148.5,-506.17 1148.5,-506.17 1148.5,-513.83 1148.5,-513.83 1148.5,-517.67 1144.67,-521.5 1140.83,-521.5"/>
<text text-anchor="middle" x="1111.5" y="-506.3" font-family="Arial" font-size="14.00" fill="#c6c5fe">helpers.js</text>
</g>
<!-- components/mouse.js&#45;&gt;helpers.js -->
<g id="edge1" class="edge">
<title>components/mouse.js&#45;&gt;helpers.js</title>
<path fill="none" stroke="#757575" d="M738.39,-880.43C782.08,-854.4 888.39,-787.76 962,-714 1021.62,-654.26 1075.61,-568.89 1098.68,-530.31"/>
<polygon fill="#757575" stroke="#757575" points="1101.78,-531.94 1103.86,-521.55 1095.76,-528.37 1101.78,-531.94"/>
</g>
<!-- particle.js -->
<g id="node7" class="node">
<title>particle.js</title>
<path fill="none" stroke="#cfffac" d="M1438.33,-422.5C1438.33,-422.5 1379.67,-422.5 1379.67,-422.5 1375.83,-422.5 1372,-418.67 1372,-414.83 1372,-414.83 1372,-407.17 1372,-407.17 1372,-403.33 1375.83,-399.5 1379.67,-399.5 1379.67,-399.5 1438.33,-399.5 1438.33,-399.5 1442.17,-399.5 1446,-403.33 1446,-407.17 1446,-407.17 1446,-414.83 1446,-414.83 1446,-418.67 1442.17,-422.5 1438.33,-422.5"/>
<text text-anchor="middle" x="1409" y="-407.3" font-family="Arial" font-size="14.00" fill="#cfffac">particle.js</text>
</g>
<!-- helpers.js&#45;&gt;particle.js -->
<g id="edge47" class="edge">
<title>helpers.js&#45;&gt;particle.js</title>
<path fill="none" stroke="#757575" d="M1148.68,-501.36C1193.37,-490.26 1271.38,-469.48 1336,-445 1349.6,-439.85 1364.18,-433.19 1376.64,-427.13"/>
<polygon fill="#757575" stroke="#757575" points="1378.28,-430.22 1385.7,-422.65 1375.18,-423.95 1378.28,-430.22"/>
</g>
<!-- components/ruler.js -->
<g id="node4" class="node">
<title>components/ruler.js</title>
<path fill="none" stroke="#c6c5fe" d="M585.83,-713.5C585.83,-713.5 467.17,-713.5 467.17,-713.5 463.33,-713.5 459.5,-709.67 459.5,-705.83 459.5,-705.83 459.5,-698.17 459.5,-698.17 459.5,-694.33 463.33,-690.5 467.17,-690.5 467.17,-690.5 585.83,-690.5 585.83,-690.5 589.67,-690.5 593.5,-694.33 593.5,-698.17 593.5,-698.17 593.5,-705.83 593.5,-705.83 593.5,-709.67 589.67,-713.5 585.83,-713.5"/>
<text text-anchor="middle" x="526.5" y="-698.3" font-family="Arial" font-size="14.00" fill="#c6c5fe">components/ruler.js</text>
</g>
<!-- components/ruler.js&#45;&gt;helpers.js -->
<g id="edge3" class="edge">
<title>components/ruler.js&#45;&gt;helpers.js</title>
<path fill="none" stroke="#757575" d="M593.57,-712.98C682.25,-724.5 842.43,-733.81 962,-676 1028.47,-643.86 1078.4,-567.32 1099.48,-530.49"/>
<polygon fill="#757575" stroke="#757575" points="1102.61,-532.06 1104.43,-521.63 1096.5,-528.65 1102.61,-532.06"/>
</g>
<!-- core.js -->
<g id="node5" class="node">
<title>core.js</title>
<path fill="none" stroke="#c6c5fe" d="M737.83,-363.5C737.83,-363.5 697.17,-363.5 697.17,-363.5 693.33,-363.5 689.5,-359.67 689.5,-355.83 689.5,-355.83 689.5,-348.17 689.5,-348.17 689.5,-344.33 693.33,-340.5 697.17,-340.5 697.17,-340.5 737.83,-340.5 737.83,-340.5 741.67,-340.5 745.5,-344.33 745.5,-348.17 745.5,-348.17 745.5,-355.83 745.5,-355.83 745.5,-359.67 741.67,-363.5 737.83,-363.5"/>
<text text-anchor="middle" x="717.5" y="-348.3" font-family="Arial" font-size="14.00" fill="#c6c5fe">core.js</text>
</g>
<!-- components/ruler.js&#45;&gt;core.js -->
<g id="edge2" class="edge">
<title>components/ruler.js&#45;&gt;core.js</title>
<path fill="none" stroke="#757575" d="M549.11,-690.34C566.83,-679.79 591.45,-662.76 607,-642 672.21,-554.91 702.71,-424.51 712.66,-373.52"/>
<polygon fill="#757575" stroke="#757575" points="716.11,-374.11 714.52,-363.63 709.23,-372.81 716.11,-374.11"/>
</g>
<!-- core.js&#45;&gt;helpers.js -->
<g id="edge12" class="edge">
<title>core.js&#45;&gt;helpers.js</title>
<path fill="none" stroke="#757575" d="M727.62,-363.75C744.8,-385 784.19,-429.67 828,-452 904.8,-491.14 1006.07,-503.87 1064.16,-508.01"/>
<polygon fill="#757575" stroke="#757575" points="1063.94,-511.5 1074.14,-508.66 1064.4,-504.51 1063.94,-511.5"/>
</g>
<!-- core.js&#45;&gt;particle.js -->
<g id="edge13" class="edge">
<title>core.js&#45;&gt;particle.js</title>
<path fill="none" stroke="#757575" d="M724.44,-340.28C738.34,-314.31 775.83,-252.4 828,-229 852.49,-218.01 1103.2,-210 1225,-230 1276.31,-238.43 1296.71,-232.93 1336,-267 1374.15,-300.09 1394.32,-358.21 1402.88,-389.54"/>
<polygon fill="#757575" stroke="#757575" points="1399.54,-390.61 1405.43,-399.42 1406.32,-388.86 1399.54,-390.61"/>
</g>
<!-- physics.js -->
<g id="node8" class="node">
<title>physics.js</title>
<path fill="none" stroke="#c6c5fe" d="M1328.33,-383.5C1328.33,-383.5 1268.67,-383.5 1268.67,-383.5 1264.83,-383.5 1261,-379.67 1261,-375.83 1261,-375.83 1261,-368.17 1261,-368.17 1261,-364.33 1264.83,-360.5 1268.67,-360.5 1268.67,-360.5 1328.33,-360.5 1328.33,-360.5 1332.17,-360.5 1336,-364.33 1336,-368.17 1336,-368.17 1336,-375.83 1336,-375.83 1336,-379.67 1332.17,-383.5 1328.33,-383.5"/>
<text text-anchor="middle" x="1298.5" y="-368.3" font-family="Arial" font-size="14.00" fill="#c6c5fe">physics.js</text>
</g>
<!-- core.js&#45;&gt;physics.js -->
<g id="edge14" class="edge">
<title>core.js&#45;&gt;physics.js</title>
<path fill="none" stroke="#757575" d="M726.43,-340.31C742.48,-317.85 781.27,-269.26 828,-251 880.05,-230.66 1157.3,-213.64 1225,-252 1262.37,-273.18 1282.67,-322.17 1291.67,-350.58"/>
<polygon fill="#757575" stroke="#757575" points="1288.38,-351.77 1294.59,-360.35 1295.09,-349.77 1288.38,-351.77"/>
</g>
<!-- gpu/field.js -->
<g id="node9" class="node">
<title>gpu/field.js</title>
<path fill="none" stroke="#c6c5fe" d="M927.83,-443.5C927.83,-443.5 862.17,-443.5 862.17,-443.5 858.33,-443.5 854.5,-439.67 854.5,-435.83 854.5,-435.83 854.5,-428.17 854.5,-428.17 854.5,-424.33 858.33,-420.5 862.17,-420.5 862.17,-420.5 927.83,-420.5 927.83,-420.5 931.67,-420.5 935.5,-424.33 935.5,-428.17 935.5,-428.17 935.5,-435.83 935.5,-435.83 935.5,-439.67 931.67,-443.5 927.83,-443.5"/>
<text text-anchor="middle" x="895" y="-428.3" font-family="Arial" font-size="14.00" fill="#c6c5fe">gpu/field.js</text>
</g>
<!-- core.js&#45;&gt;gpu/field.js -->
<g id="edge8" class="edge">
<title>core.js&#45;&gt;gpu/field.js</title>
<path fill="none" stroke="#757575" d="M744.02,-363.63C774.39,-377.48 825.25,-400.66 859.21,-416.14"/>
<polygon fill="#757575" stroke="#757575" points="858.18,-419.52 868.73,-420.48 861.09,-413.15 858.18,-419.52"/>
</g>
<!-- gpu/graphics.js -->
<g id="node10" class="node">
<title>gpu/graphics.js</title>
<path fill="none" stroke="#c6c5fe" d="M940.83,-283.5C940.83,-283.5 849.17,-283.5 849.17,-283.5 845.33,-283.5 841.5,-279.67 841.5,-275.83 841.5,-275.83 841.5,-268.17 841.5,-268.17 841.5,-264.33 845.33,-260.5 849.17,-260.5 849.17,-260.5 940.83,-260.5 940.83,-260.5 944.67,-260.5 948.5,-264.33 948.5,-268.17 948.5,-268.17 948.5,-275.83 948.5,-275.83 948.5,-279.67 944.67,-283.5 940.83,-283.5"/>
<text text-anchor="middle" x="895" y="-268.3" font-family="Arial" font-size="14.00" fill="#c6c5fe">gpu/graphics.js</text>
</g>
<!-- core.js&#45;&gt;gpu/graphics.js -->
<g id="edge9" class="edge">
<title>core.js&#45;&gt;gpu/graphics.js</title>
<path fill="none" stroke="#757575" d="M740.48,-340.49C762.41,-329.17 797.18,-311.64 828,-298 836.26,-294.34 845.21,-290.64 853.78,-287.23"/>
<polygon fill="#757575" stroke="#757575" points="855.2,-290.43 863.22,-283.52 852.64,-283.92 855.2,-290.43"/>
</g>
<!-- gpu/shaders/computeShader.glsl.js -->
<g id="node11" class="node">
<title>gpu/shaders/computeShader.glsl.js</title>
<path fill="none" stroke="#c6c5fe" d="M1217.33,-325.5C1217.33,-325.5 1005.67,-325.5 1005.67,-325.5 1001.83,-325.5 998,-321.67 998,-317.83 998,-317.83 998,-310.17 998,-310.17 998,-306.33 1001.83,-302.5 1005.67,-302.5 1005.67,-302.5 1217.33,-302.5 1217.33,-302.5 1221.17,-302.5 1225,-306.33 1225,-310.17 1225,-310.17 1225,-317.83 1225,-317.83 1225,-321.67 1221.17,-325.5 1217.33,-325.5"/>
<text text-anchor="middle" x="1111.5" y="-310.3" font-family="Arial" font-size="14.00" fill="#c6c5fe">gpu/shaders/computeShader.glsl.js</text>
</g>
<!-- core.js&#45;&gt;gpu/shaders/computeShader.glsl.js -->
<g id="edge10" class="edge">
<title>core.js&#45;&gt;gpu/shaders/computeShader.glsl.js</title>
<path fill="none" stroke="#757575" d="M745.79,-345.75C767.85,-340.94 799.77,-334.54 828,-331 880.11,-324.46 937.95,-320.42 987.66,-317.93"/>
<polygon fill="#757575" stroke="#757575" points="987.99,-321.42 997.81,-317.44 987.65,-314.43 987.99,-321.42"/>
</g>
<!-- gpu/simulation.js -->
<g id="node12" class="node">
<title>gpu/simulation.js</title>
<path fill="none" stroke="#c6c5fe" d="M946.33,-363.5C946.33,-363.5 843.67,-363.5 843.67,-363.5 839.83,-363.5 836,-359.67 836,-355.83 836,-355.83 836,-348.17 836,-348.17 836,-344.33 839.83,-340.5 843.67,-340.5 843.67,-340.5 946.33,-340.5 946.33,-340.5 950.17,-340.5 954,-344.33 954,-348.17 954,-348.17 954,-355.83 954,-355.83 954,-359.67 950.17,-363.5 946.33,-363.5"/>
<text text-anchor="middle" x="895" y="-348.3" font-family="Arial" font-size="14.00" fill="#c6c5fe">gpu/simulation.js</text>
</g>
<!-- core.js&#45;&gt;gpu/simulation.js -->
<g id="edge11" class="edge">
<title>core.js&#45;&gt;gpu/simulation.js</title>
<path fill="none" stroke="#757575" d="M745.54,-352C766.86,-352 797.56,-352 825.52,-352"/>
<polygon fill="#757575" stroke="#757575" points="825.68,-355.5 835.68,-352 825.68,-348.5 825.68,-355.5"/>
</g>
<!-- scenarios.js -->
<g id="node13" class="node">
<title>scenarios.js</title>
<path fill="none" stroke="#cfffac" d="M931.33,-165.5C931.33,-165.5 858.67,-165.5 858.67,-165.5 854.83,-165.5 851,-161.67 851,-157.83 851,-157.83 851,-150.17 851,-150.17 851,-146.33 854.83,-142.5 858.67,-142.5 858.67,-142.5 931.33,-142.5 931.33,-142.5 935.17,-142.5 939,-146.33 939,-150.17 939,-150.17 939,-157.83 939,-157.83 939,-161.67 935.17,-165.5 931.33,-165.5"/>
<text text-anchor="middle" x="895" y="-150.3" font-family="Arial" font-size="14.00" fill="#cfffac">scenarios.js</text>
</g>
<!-- core.js&#45;&gt;scenarios.js -->
<g id="edge15" class="edge">
<title>core.js&#45;&gt;scenarios.js</title>
<path fill="none" stroke="#757575" d="M727.04,-340.37C741.14,-320.98 769.95,-280.65 792,-245 809.37,-216.91 803.18,-201.78 828,-180 832.39,-176.15 837.42,-172.83 842.69,-169.99"/>
<polygon fill="#757575" stroke="#757575" points="844.25,-173.12 851.74,-165.63 841.22,-166.81 844.25,-173.12"/>
</g>
<!-- components/selection.js -->
<g id="node6" class="node">
<title>components/selection.js</title>
<path fill="none" stroke="#c6c5fe" d="M599.33,-633.5C599.33,-633.5 453.67,-633.5 453.67,-633.5 449.83,-633.5 446,-629.67 446,-625.83 446,-625.83 446,-618.17 446,-618.17 446,-614.33 449.83,-610.5 453.67,-610.5 453.67,-610.5 599.33,-610.5 599.33,-610.5 603.17,-610.5 607,-614.33 607,-618.17 607,-618.17 607,-625.83 607,-625.83 607,-629.67 603.17,-633.5 599.33,-633.5"/>
<text text-anchor="middle" x="526.5" y="-618.3" font-family="Arial" font-size="14.00" fill="#c6c5fe">components/selection.js</text>
</g>
<!-- components/selection.js&#45;&gt;helpers.js -->
<g id="edge5" class="edge">
<title>components/selection.js&#45;&gt;helpers.js</title>
<path fill="none" stroke="#757575" d="M607.21,-629.44C695.91,-635.12 842.5,-636.67 962,-600 1011.41,-584.84 1061.24,-549.62 1088.77,-528.01"/>
<polygon fill="#757575" stroke="#757575" points="1091.27,-530.49 1096.9,-521.51 1086.9,-525.02 1091.27,-530.49"/>
</g>
<!-- components/selection.js&#45;&gt;core.js -->
<g id="edge4" class="edge">
<title>components/selection.js&#45;&gt;core.js</title>
<path fill="none" stroke="#757575" d="M547.45,-610.48C564.85,-599.68 589.91,-582.19 607,-562 658.21,-501.5 694.39,-413.04 709.13,-373.03"/>
<polygon fill="#757575" stroke="#757575" points="712.46,-374.12 712.57,-363.52 705.88,-371.74 712.46,-374.12"/>
</g>
<!-- components/selection.js&#45;&gt;particle.js -->
<g id="edge6" class="edge">
<title>components/selection.js&#45;&gt;particle.js</title>
<path fill="none" stroke="#757575" d="M542.6,-633.58C590.9,-669.39 746.99,-776 894,-776 894,-776 894,-776 1112.5,-776 1290.43,-776 1379.74,-510.75 1402.22,-432.49"/>
<polygon fill="#757575" stroke="#757575" points="1405.63,-433.3 1404.95,-422.73 1398.89,-431.42 1405.63,-433.3"/>
</g>
<!-- components/selection.js&#45;&gt;physics.js -->
<g id="edge7" class="edge">
<title>components/selection.js&#45;&gt;physics.js</title>
<path fill="none" stroke="#757575" d="M572.14,-633.5C593.44,-638.42 619.37,-643.57 643,-646 784.26,-660.52 823.77,-660.52 962,-628 1083.42,-599.43 1133.61,-614.9 1225,-530 1265.52,-492.35 1285.18,-427.62 1293.08,-393.89"/>
<polygon fill="#757575" stroke="#757575" points="1296.59,-394.24 1295.32,-383.72 1289.75,-392.73 1296.59,-394.24"/>
</g>
<!-- physics.js&#45;&gt;particle.js -->
<g id="edge49" class="edge">
<title>physics.js&#45;&gt;particle.js</title>
<path fill="none" stroke="#757575" d="M1331.76,-383.6C1342.49,-387.45 1354.59,-391.8 1365.95,-395.88"/>
<polygon fill="#757575" stroke="#757575" points="1365.08,-399.29 1375.68,-399.38 1367.45,-392.71 1365.08,-399.29"/>
</g>
<!-- gpu/field.js&#45;&gt;helpers.js -->
<g id="edge16" class="edge">
<title>gpu/field.js&#45;&gt;helpers.js</title>
<path fill="none" stroke="#757575" d="M927.65,-443.51C965.2,-457.16 1027.89,-479.96 1069.22,-494.99"/>
<polygon fill="#757575" stroke="#757575" points="1068.13,-498.32 1078.72,-498.44 1070.52,-491.74 1068.13,-498.32"/>
</g>
<!-- gpu/field.js&#45;&gt;particle.js -->
<g id="edge17" class="edge">
<title>gpu/field.js&#45;&gt;particle.js</title>
<path fill="none" stroke="#757575" d="M935.75,-430.37C1029.13,-426.54 1262.09,-416.98 1361.67,-412.9"/>
<polygon fill="#757575" stroke="#757575" points="1361.88,-416.39 1371.73,-412.49 1361.6,-409.4 1361.88,-416.39"/>
</g>
<!-- gpu/graphics.js&#45;&gt;helpers.js -->
<g id="edge20" class="edge">
<title>gpu/graphics.js&#45;&gt;helpers.js</title>
<path fill="none" stroke="#757575" d="M910.2,-283.63C923.96,-295.14 945.15,-313.52 962,-331 1014.47,-385.45 1069.64,-456.02 1095.48,-489.99"/>
<polygon fill="#757575" stroke="#757575" points="1092.86,-492.32 1101.68,-498.19 1098.44,-488.1 1092.86,-492.32"/>
</g>
<!-- gpu/graphics.js&#45;&gt;particle.js -->
<g id="edge21" class="edge">
<title>gpu/graphics.js&#45;&gt;particle.js</title>
<path fill="none" stroke="#757575" d="M932.47,-260.4C994.73,-242.63 1124.5,-214.44 1225,-252 1300.23,-280.12 1364.99,-354.67 1393.09,-390.8"/>
<polygon fill="#757575" stroke="#757575" points="1390.57,-393.28 1399.42,-399.11 1396.14,-389.03 1390.57,-393.28"/>
</g>
<!-- gpu/graphics.js&#45;&gt;gpu/shaders/computeShader.glsl.js -->
<g id="edge18" class="edge">
<title>gpu/graphics.js&#45;&gt;gpu/shaders/computeShader.glsl.js</title>
<path fill="none" stroke="#757575" d="M948.64,-283.03C964.49,-286.3 981.94,-289.85 998,-293 1010.82,-295.52 1024.47,-298.12 1037.69,-300.61"/>
<polygon fill="#757575" stroke="#757575" points="1037.21,-304.08 1047.68,-302.49 1038.5,-297.2 1037.21,-304.08"/>
</g>
<!-- gpu/shaders/particleShader.glsl.js -->
<g id="node14" class="node">
<title>gpu/shaders/particleShader.glsl.js</title>
<path fill="none" stroke="#cfffac" d="M1212.83,-284.5C1212.83,-284.5 1010.17,-284.5 1010.17,-284.5 1006.33,-284.5 1002.5,-280.67 1002.5,-276.83 1002.5,-276.83 1002.5,-269.17 1002.5,-269.17 1002.5,-265.33 1006.33,-261.5 1010.17,-261.5 1010.17,-261.5 1212.83,-261.5 1212.83,-261.5 1216.67,-261.5 1220.5,-265.33 1220.5,-269.17 1220.5,-269.17 1220.5,-276.83 1220.5,-276.83 1220.5,-280.67 1216.67,-284.5 1212.83,-284.5"/>
<text text-anchor="middle" x="1111.5" y="-269.3" font-family="Arial" font-size="14.00" fill="#cfffac">gpu/shaders/particleShader.glsl.js</text>
</g>
<!-- gpu/graphics.js&#45;&gt;gpu/shaders/particleShader.glsl.js -->
<g id="edge19" class="edge">
<title>gpu/graphics.js&#45;&gt;gpu/shaders/particleShader.glsl.js</title>
<path fill="none" stroke="#757575" d="M948.75,-272.25C961.95,-272.31 976.65,-272.38 991.66,-272.45"/>
<polygon fill="#757575" stroke="#757575" points="992.07,-275.95 1002.09,-272.49 992.11,-268.95 992.07,-275.95"/>
</g>
<!-- gpu/shaders/computeShader.glsl.js&#45;&gt;physics.js -->
<g id="edge22" class="edge">
<title>gpu/shaders/computeShader.glsl.js&#45;&gt;physics.js</title>
<path fill="none" stroke="#757575" d="M1172.05,-325.56C1189.32,-329.5 1208.07,-334.36 1225,-340 1238.39,-344.46 1252.69,-350.48 1265.02,-356.1"/>
<polygon fill="#757575" stroke="#757575" points="1263.89,-359.43 1274.43,-360.48 1266.84,-353.09 1263.89,-359.43"/>
</g>
<!-- gpu/simulation.js&#45;&gt;helpers.js -->
<g id="edge23" class="edge">
<title>gpu/simulation.js&#45;&gt;helpers.js</title>
<path fill="none" stroke="#757575" d="M911.77,-363.62C948.96,-391.01 1042.31,-459.78 1086.54,-492.35"/>
<polygon fill="#757575" stroke="#757575" points="1084.58,-495.25 1094.7,-498.36 1088.73,-489.62 1084.58,-495.25"/>
</g>
<!-- gpu/simulation.js&#45;&gt;physics.js -->
<g id="edge24" class="edge">
<title>gpu/simulation.js&#45;&gt;physics.js</title>
<path fill="none" stroke="#757575" d="M954.38,-354.91C1034.5,-358.9 1176.95,-366 1250.57,-369.66"/>
<polygon fill="#757575" stroke="#757575" points="1250.75,-373.18 1260.91,-370.18 1251.1,-366.18 1250.75,-373.18"/>
</g>
<!-- gui/advanced.js -->
<g id="node15" class="node">
<title>gui/advanced.js</title>
<path fill="none" stroke="#c6c5fe" d="M573.83,-553.5C573.83,-553.5 479.17,-553.5 479.17,-553.5 475.33,-553.5 471.5,-549.67 471.5,-545.83 471.5,-545.83 471.5,-538.17 471.5,-538.17 471.5,-534.33 475.33,-530.5 479.17,-530.5 479.17,-530.5 573.83,-530.5 573.83,-530.5 577.67,-530.5 581.5,-534.33 581.5,-538.17 581.5,-538.17 581.5,-545.83 581.5,-545.83 581.5,-549.67 577.67,-553.5 573.83,-553.5"/>
<text text-anchor="middle" x="526.5" y="-538.3" font-family="Arial" font-size="14.00" fill="#c6c5fe">gui/advanced.js</text>
</g>
<!-- gui/advanced.js&#45;&gt;helpers.js -->
<g id="edge26" class="edge">
<title>gui/advanced.js&#45;&gt;helpers.js</title>
<path fill="none" stroke="#757575" d="M581.71,-539.83C663.96,-536.43 825.18,-529.37 962,-521 996.13,-518.91 1034.63,-516.05 1063.87,-513.76"/>
<polygon fill="#757575" stroke="#757575" points="1064.51,-517.22 1074.21,-512.95 1063.96,-510.24 1064.51,-517.22"/>
</g>
<!-- gui/advanced.js&#45;&gt;core.js -->
<g id="edge25" class="edge">
<title>gui/advanced.js&#45;&gt;core.js</title>
<path fill="none" stroke="#757575" d="M581.68,-533.47C590.66,-530.48 599.49,-526.44 607,-521 660.34,-482.35 694.47,-409.06 708.78,-373.04"/>
<polygon fill="#757575" stroke="#757575" points="712.12,-374.13 712.44,-363.54 705.58,-371.61 712.12,-374.13"/>
</g>
<!-- gui/controls.js -->
<g id="node16" class="node">
<title>gui/controls.js</title>
<path fill="none" stroke="#c6c5fe" d="M568.33,-318.5C568.33,-318.5 484.67,-318.5 484.67,-318.5 480.83,-318.5 477,-314.67 477,-310.83 477,-310.83 477,-303.17 477,-303.17 477,-299.33 480.83,-295.5 484.67,-295.5 484.67,-295.5 568.33,-295.5 568.33,-295.5 572.17,-295.5 576,-299.33 576,-303.17 576,-303.17 576,-310.83 576,-310.83 576,-314.67 572.17,-318.5 568.33,-318.5"/>
<text text-anchor="middle" x="526.5" y="-303.3" font-family="Arial" font-size="14.00" fill="#c6c5fe">gui/controls.js</text>
</g>
<!-- gui/controls.js&#45;&gt;helpers.js -->
<g id="edge28" class="edge">
<title>gui/controls.js&#45;&gt;helpers.js</title>
<path fill="none" stroke="#757575" d="M576.06,-301.76C587.24,-298.62 598.37,-293.69 607,-286 639.78,-256.78 611.12,-224.19 643,-194 695.41,-144.37 906.65,-86.68 962,-133 1031.6,-191.24 964.93,-249.49 998,-334 1022.16,-395.74 1069.18,-459.05 1094.1,-490.21"/>
<polygon fill="#757575" stroke="#757575" points="1091.49,-492.55 1100.5,-498.11 1096.93,-488.14 1091.49,-492.55"/>
</g>
<!-- gui/controls.js&#45;&gt;core.js -->
<g id="edge27" class="edge">
<title>gui/controls.js&#45;&gt;core.js</title>
<path fill="none" stroke="#757575" d="M576.17,-318.59C608.36,-326.25 649.91,-336.15 679.42,-343.17"/>
<polygon fill="#757575" stroke="#757575" points="678.79,-346.62 689.33,-345.53 680.41,-339.81 678.79,-346.62"/>
</g>
<!-- gui/controls.js&#45;&gt;scenarios.js -->
<g id="edge29" class="edge">
<title>gui/controls.js&#45;&gt;scenarios.js</title>
<path fill="none" stroke="#757575" d="M576.3,-295.67C586.55,-292.85 597.22,-289.6 607,-286 709.23,-248.37 728.15,-223.55 828,-180 836.28,-176.39 845.24,-172.71 853.81,-169.3"/>
<polygon fill="#757575" stroke="#757575" points="855.23,-172.5 863.25,-165.58 852.67,-165.99 855.23,-172.5"/>
</g>
<!-- gui/dat.gui.js -->
<g id="node17" class="node">
<title>gui/dat.gui.js</title>
<path fill="none" stroke="#cfffac" d="M366.33,-204.5C366.33,-204.5 289.67,-204.5 289.67,-204.5 285.83,-204.5 282,-200.67 282,-196.83 282,-196.83 282,-189.17 282,-189.17 282,-185.33 285.83,-181.5 289.67,-181.5 289.67,-181.5 366.33,-181.5 366.33,-181.5 370.17,-181.5 374,-185.33 374,-189.17 374,-189.17 374,-196.83 374,-196.83 374,-200.67 370.17,-204.5 366.33,-204.5"/>
<text text-anchor="middle" x="328" y="-189.3" font-family="Arial" font-size="14.00" fill="#cfffac">gui/dat.gui.js</text>
</g>
<!-- gui/field.js -->
<g id="node18" class="node">
<title>gui/field.js</title>
<path fill="none" stroke="#c6c5fe" d="M358.83,-435.5C358.83,-435.5 297.17,-435.5 297.17,-435.5 293.33,-435.5 289.5,-431.67 289.5,-427.83 289.5,-427.83 289.5,-420.17 289.5,-420.17 289.5,-416.33 293.33,-412.5 297.17,-412.5 297.17,-412.5 358.83,-412.5 358.83,-412.5 362.67,-412.5 366.5,-416.33 366.5,-420.17 366.5,-420.17 366.5,-427.83 366.5,-427.83 366.5,-431.67 362.67,-435.5 358.83,-435.5"/>
<text text-anchor="middle" x="328" y="-420.3" font-family="Arial" font-size="14.00" fill="#c6c5fe">gui/field.js</text>
</g>
<!-- gui/field.js&#45;&gt;core.js -->
<g id="edge30" class="edge">
<title>gui/field.js&#45;&gt;core.js</title>
<path fill="none" stroke="#757575" d="M366.51,-417.03C440.55,-403.27 604.74,-372.77 678.87,-358.99"/>
<polygon fill="#757575" stroke="#757575" points="679.95,-362.35 689.14,-357.08 678.67,-355.47 679.95,-362.35"/>
</g>
<!-- gui/generator.js -->
<g id="node19" class="node">
<title>gui/generator.js</title>
<path fill="none" stroke="#c6c5fe" d="M374.83,-672.5C374.83,-672.5 281.17,-672.5 281.17,-672.5 277.33,-672.5 273.5,-668.67 273.5,-664.83 273.5,-664.83 273.5,-657.17 273.5,-657.17 273.5,-653.33 277.33,-649.5 281.17,-649.5 281.17,-649.5 374.83,-649.5 374.83,-649.5 378.67,-649.5 382.5,-653.33 382.5,-657.17 382.5,-657.17 382.5,-664.83 382.5,-664.83 382.5,-668.67 378.67,-672.5 374.83,-672.5"/>
<text text-anchor="middle" x="328" y="-657.3" font-family="Arial" font-size="14.00" fill="#c6c5fe">gui/generator.js</text>
</g>
<!-- gui/generator.js&#45;&gt;helpers.js -->
<g id="edge33" class="edge">
<title>gui/generator.js&#45;&gt;helpers.js</title>
<path fill="none" stroke="#757575" d="M382.9,-662.71C516.17,-666.21 857.86,-670.62 962,-628 1016.92,-605.52 1068.11,-556.22 1093.6,-528.99"/>
<polygon fill="#757575" stroke="#757575" points="1096.19,-531.35 1100.38,-521.62 1091.03,-526.61 1096.19,-531.35"/>
</g>
<!-- gui/generator.js&#45;&gt;core.js -->
<g id="edge32" class="edge">
<title>gui/generator.js&#45;&gt;core.js</title>
<path fill="none" stroke="#757575" d="M352.15,-649.3C370.39,-638.95 395.14,-622.21 410,-601 442.2,-555.05 405.66,-518.99 446,-480 499.17,-428.61 547.81,-482.33 607,-438 631.89,-419.36 618.92,-397.68 643,-378 653.5,-369.42 667.05,-363.57 679.64,-359.63"/>
<polygon fill="#757575" stroke="#757575" points="680.78,-362.95 689.46,-356.87 678.88,-356.21 680.78,-362.95"/>
</g>
<!-- gui/generator.js&#45;&gt;components/selection.js -->
<g id="edge31" class="edge">
<title>gui/generator.js&#45;&gt;components/selection.js</title>
<path fill="none" stroke="#757575" d="M382.69,-650.34C405.77,-645.76 432.99,-640.36 457.46,-635.5"/>
<polygon fill="#757575" stroke="#757575" points="458.26,-638.91 467.39,-633.53 456.9,-632.05 458.26,-638.91"/>
</g>
<!-- gui/generator.js&#45;&gt;physics.js -->
<g id="edge34" class="edge">
<title>gui/generator.js&#45;&gt;physics.js</title>
<path fill="none" stroke="#757575" d="M348.39,-672.54C371.22,-685.81 410.52,-707.75 446,-723 562.54,-773.08 589.66,-814 716.5,-814 716.5,-814 716.5,-814 896,-814 1073.15,-814 1118.26,-730.38 1225,-589 1271.26,-527.73 1288.99,-435.28 1294.91,-393.66"/>
<polygon fill="#757575" stroke="#757575" points="1298.4,-393.93 1296.25,-383.56 1291.46,-393.01 1298.4,-393.93"/>
</g>
<!-- scenariosHelpers.js -->
<g id="node20" class="node">
<title>scenariosHelpers.js</title>
<path fill="none" stroke="#c6c5fe" d="M954.33,-903.5C954.33,-903.5 835.67,-903.5 835.67,-903.5 831.83,-903.5 828,-899.67 828,-895.83 828,-895.83 828,-888.17 828,-888.17 828,-884.33 831.83,-880.5 835.67,-880.5 835.67,-880.5 954.33,-880.5 954.33,-880.5 958.17,-880.5 962,-884.33 962,-888.17 962,-888.17 962,-895.83 962,-895.83 962,-899.67 958.17,-903.5 954.33,-903.5"/>
<text text-anchor="middle" x="895" y="-888.3" font-family="Arial" font-size="14.00" fill="#c6c5fe">scenariosHelpers.js</text>
</g>
<!-- gui/generator.js&#45;&gt;scenariosHelpers.js -->
<g id="edge35" class="edge">
<title>gui/generator.js&#45;&gt;scenariosHelpers.js</title>
<path fill="none" stroke="#757575" d="M333.32,-672.85C345.49,-704.31 383.26,-790.13 446,-828 578.71,-908.11 638.97,-847.29 792,-872 803.9,-873.92 816.53,-876.2 828.71,-878.52"/>
<polygon fill="#757575" stroke="#757575" points="828.32,-882.01 838.8,-880.47 829.65,-875.14 828.32,-882.01"/>
</g>
<!-- scenariosHelpers.js&#45;&gt;helpers.js -->
<g id="edge50" class="edge">
<title>scenariosHelpers.js&#45;&gt;helpers.js</title>
<path fill="none" stroke="#757575" d="M939.8,-880.48C947.9,-876.85 955.76,-872.12 962,-866 1061.94,-768.03 1097.68,-592.76 1107.43,-531.69"/>
<polygon fill="#757575" stroke="#757575" points="1110.91,-532.08 1108.96,-521.66 1103.99,-531.02 1110.91,-532.08"/>
</g>
<!-- scenariosHelpers.js&#45;&gt;particle.js -->
<g id="edge51" class="edge">
<title>scenariosHelpers.js&#45;&gt;particle.js</title>
<path fill="none" stroke="#757575" d="M962.01,-898.41C1060.06,-903.87 1242.63,-897.68 1336,-790 1383.17,-735.6 1401.89,-505.26 1406.68,-432.87"/>
<polygon fill="#757575" stroke="#757575" points="1410.19,-432.86 1407.33,-422.66 1403.2,-432.41 1410.19,-432.86"/>
</g>
<!-- gui/info.js -->
<g id="node21" class="node">
<title>gui/info.js</title>
<path fill="none" stroke="#c6c5fe" d="M555.83,-512.5C555.83,-512.5 497.17,-512.5 497.17,-512.5 493.33,-512.5 489.5,-508.67 489.5,-504.83 489.5,-504.83 489.5,-497.17 489.5,-497.17 489.5,-493.33 493.33,-489.5 497.17,-489.5 497.17,-489.5 555.83,-489.5 555.83,-489.5 559.67,-489.5 563.5,-493.33 563.5,-497.17 563.5,-497.17 563.5,-504.83 563.5,-504.83 563.5,-508.67 559.67,-512.5 555.83,-512.5"/>
<text text-anchor="middle" x="526.5" y="-497.3" font-family="Arial" font-size="14.00" fill="#c6c5fe">gui/info.js</text>
</g>
<!-- gui/info.js&#45;&gt;helpers.js -->
<g id="edge37" class="edge">
<title>gui/info.js&#45;&gt;helpers.js</title>
<path fill="none" stroke="#757575" d="M563.53,-501.56C664.76,-503.12 951.69,-507.55 1064.31,-509.29"/>
<polygon fill="#757575" stroke="#757575" points="1064.29,-512.79 1074.34,-509.44 1064.39,-505.79 1064.29,-512.79"/>
</g>
<!-- gui/info.js&#45;&gt;core.js -->
<g id="edge36" class="edge">
<title>gui/info.js&#45;&gt;core.js</title>
<path fill="none" stroke="#757575" d="M563.54,-496.28C578.59,-492.66 595.28,-486.27 607,-475 640.15,-443.13 610.24,-410.27 643,-378 652.82,-368.33 666.45,-362.24 679.31,-358.41"/>
<polygon fill="#757575" stroke="#757575" points="680.57,-361.7 689.37,-355.8 678.81,-354.93 680.57,-361.7"/>
</g>
<!-- gui/info.js&#45;&gt;physics.js -->
<g id="edge38" class="edge">
<title>gui/info.js&#45;&gt;physics.js</title>
<path fill="none" stroke="#757575" d="M562.71,-489.45C630.29,-467.44 776.09,-420.82 828,-411 868.78,-403.29 1139.98,-383.29 1250.63,-375.34"/>
<polygon fill="#757575" stroke="#757575" points="1251.1,-378.81 1260.82,-374.6 1250.6,-371.83 1251.1,-378.81"/>
</g>
<!-- gui/parameters.js -->
<g id="node22" class="node">
<title>gui/parameters.js</title>
<path fill="none" stroke="#c6c5fe" d="M579.33,-277.5C579.33,-277.5 473.67,-277.5 473.67,-277.5 469.83,-277.5 466,-273.67 466,-269.83 466,-269.83 466,-262.17 466,-262.17 466,-258.33 469.83,-254.5 473.67,-254.5 473.67,-254.5 579.33,-254.5 579.33,-254.5 583.17,-254.5 587,-258.33 587,-262.17 587,-262.17 587,-269.83 587,-269.83 587,-273.67 583.17,-277.5 579.33,-277.5"/>
<text text-anchor="middle" x="526.5" y="-262.3" font-family="Arial" font-size="14.00" fill="#c6c5fe">gui/parameters.js</text>
</g>
<!-- gui/parameters.js&#45;&gt;core.js -->
<g id="edge39" class="edge">
<title>gui/parameters.js&#45;&gt;core.js</title>
<path fill="none" stroke="#757575" d="M582.51,-277.57C590.85,-279.97 599.25,-282.77 607,-286 638.16,-298.97 670.93,-319.82 692.41,-334.61"/>
<polygon fill="#757575" stroke="#757575" points="690.41,-337.48 700.61,-340.34 694.42,-331.74 690.41,-337.48"/>
</g>
<!-- gui/parameters.js&#45;&gt;physics.js -->
<g id="edge40" class="edge">
<title>gui/parameters.js&#45;&gt;physics.js</title>
<path fill="none" stroke="#757575" d="M533.03,-254.37C546.97,-226.56 586.48,-156.37 643,-127 768.95,-61.56 823.02,-83.18 962,-112 1086.74,-137.87 1132.61,-138.28 1225,-226 1261.9,-261.04 1282.73,-318.88 1291.86,-350.21"/>
<polygon fill="#757575" stroke="#757575" points="1288.56,-351.4 1294.61,-360.1 1295.31,-349.53 1288.56,-351.4"/>
</g>
<!-- gui/particle.js -->
<g id="node23" class="node">
<title>gui/particle.js</title>
<path fill="none" stroke="#c6c5fe" d="M566.33,-143.5C566.33,-143.5 486.67,-143.5 486.67,-143.5 482.83,-143.5 479,-139.67 479,-135.83 479,-135.83 479,-128.17 479,-128.17 479,-124.33 482.83,-120.5 486.67,-120.5 486.67,-120.5 566.33,-120.5 566.33,-120.5 570.17,-120.5 574,-124.33 574,-128.17 574,-128.17 574,-135.83 574,-135.83 574,-139.67 570.17,-143.5 566.33,-143.5"/>
<text text-anchor="middle" x="526.5" y="-128.3" font-family="Arial" font-size="14.00" fill="#c6c5fe">gui/particle.js</text>
</g>
<!-- gui/particle.js&#45;&gt;helpers.js -->
<g id="edge42" class="edge">
<title>gui/particle.js&#45;&gt;helpers.js</title>
<path fill="none" stroke="#757575" d="M552.59,-120.45C625.7,-88.72 841.08,-9.11 962,-112 1038.13,-176.78 962.34,-240.62 998,-334 1021.65,-395.93 1068.89,-459.16 1093.97,-490.26"/>
<polygon fill="#757575" stroke="#757575" points="1091.38,-492.62 1100.42,-498.15 1096.8,-488.19 1091.38,-492.62"/>
</g>
<!-- gui/particle.js&#45;&gt;core.js -->
<g id="edge41" class="edge">
<title>gui/particle.js&#45;&gt;core.js</title>
<path fill="none" stroke="#757575" d="M537.4,-143.52C568.01,-179.15 661.4,-287.87 699.77,-332.53"/>
<polygon fill="#757575" stroke="#757575" points="697.3,-335.03 706.47,-340.33 702.61,-330.46 697.3,-335.03"/>
</g>
<!-- gui/particle.js&#45;&gt;particle.js -->
<g id="edge43" class="edge">
<title>gui/particle.js&#45;&gt;particle.js</title>
<path fill="none" stroke="#757575" d="M541.9,-120.43C562.9,-104.13 603.71,-74.54 643,-58 748.53,-13.58 779.5,0 894,0 894,0 894,0 1112.5,0 1306.14,0 1385.36,-304.48 1403.67,-389.3"/>
<polygon fill="#757575" stroke="#757575" points="1400.25,-390.07 1405.73,-399.14 1407.11,-388.64 1400.25,-390.07"/>
</g>
<!-- gui/selection.js -->
<g id="node24" class="node">
<title>gui/selection.js</title>
<path fill="none" stroke="#c6c5fe" d="M372.83,-592.5C372.83,-592.5 283.17,-592.5 283.17,-592.5 279.33,-592.5 275.5,-588.67 275.5,-584.83 275.5,-584.83 275.5,-577.17 275.5,-577.17 275.5,-573.33 279.33,-569.5 283.17,-569.5 283.17,-569.5 372.83,-569.5 372.83,-569.5 376.67,-569.5 380.5,-573.33 380.5,-577.17 380.5,-577.17 380.5,-584.83 380.5,-584.83 380.5,-588.67 376.67,-592.5 372.83,-592.5"/>
<text text-anchor="middle" x="328" y="-577.3" font-family="Arial" font-size="14.00" fill="#c6c5fe">gui/selection.js</text>
</g>
<!-- gui/selection.js&#45;&gt;helpers.js -->
<g id="edge46" class="edge">
<title>gui/selection.js&#45;&gt;helpers.js</title>
<path fill="none" stroke="#757575" d="M380.91,-579.78C489.29,-576.74 747.39,-566.96 962,-539 996.6,-534.49 1035.28,-526.85 1064.48,-520.55"/>
<polygon fill="#757575" stroke="#757575" points="1065.38,-523.94 1074.4,-518.38 1063.88,-517.1 1065.38,-523.94"/>
</g>
<!-- gui/selection.js&#45;&gt;core.js -->
<g id="edge45" class="edge">
<title>gui/selection.js&#45;&gt;core.js</title>
<path fill="none" stroke="#757575" d="M335.86,-569.32C351.77,-543.27 393.85,-480.11 446,-447 508.83,-407.11 539.15,-431.58 607,-401 624.31,-393.2 625.94,-386.33 643,-378 654.59,-372.34 667.74,-367.29 679.68,-363.18"/>
<polygon fill="#757575" stroke="#757575" points="680.98,-366.44 689.36,-359.96 678.77,-359.79 680.98,-366.44"/>
</g>
<!-- gui/selection.js&#45;&gt;components/selection.js -->
<g id="edge44" class="edge">
<title>gui/selection.js&#45;&gt;components/selection.js</title>
<path fill="none" stroke="#757575" d="M380.63,-591.77C404.92,-596.84 434.16,-602.94 460,-608.33"/>
<polygon fill="#757575" stroke="#757575" points="459.58,-611.82 470.09,-610.44 461.01,-604.97 459.58,-611.82"/>
</g>
<!-- gui/stats.js -->
<g id="node25" class="node">
<title>gui/stats.js</title>
<path fill="none" stroke="#cfffac" d="M360.33,-163.5C360.33,-163.5 295.67,-163.5 295.67,-163.5 291.83,-163.5 288,-159.67 288,-155.83 288,-155.83 288,-148.17 288,-148.17 288,-144.33 291.83,-140.5 295.67,-140.5 295.67,-140.5 360.33,-140.5 360.33,-140.5 364.17,-140.5 368,-144.33 368,-148.17 368,-148.17 368,-155.83 368,-155.83 368,-159.67 364.17,-163.5 360.33,-163.5"/>
<text text-anchor="middle" x="328" y="-148.3" font-family="Arial" font-size="14.00" fill="#cfffac">gui/stats.js</text>
</g>
<!-- main.js -->
<g id="node26" class="node">
<title>main.js</title>
<path fill="none" stroke="#c6c5fe" d="M81.33,-512.5C81.33,-512.5 36.67,-512.5 36.67,-512.5 32.83,-512.5 29,-508.67 29,-504.83 29,-504.83 29,-497.17 29,-497.17 29,-493.33 32.83,-489.5 36.67,-489.5 36.67,-489.5 81.33,-489.5 81.33,-489.5 85.17,-489.5 89,-493.33 89,-497.17 89,-497.17 89,-504.83 89,-504.83 89,-508.67 85.17,-512.5 81.33,-512.5"/>
<text text-anchor="middle" x="59" y="-497.3" font-family="Arial" font-size="14.00" fill="#c6c5fe">main.js</text>
</g>
<!-- view.js -->
<g id="node27" class="node">
<title>view.js</title>
<path fill="none" stroke="#c6c5fe" d="M202.33,-512.5C202.33,-512.5 161.67,-512.5 161.67,-512.5 157.83,-512.5 154,-508.67 154,-504.83 154,-504.83 154,-497.17 154,-497.17 154,-493.33 157.83,-489.5 161.67,-489.5 161.67,-489.5 202.33,-489.5 202.33,-489.5 206.17,-489.5 210,-493.33 210,-497.17 210,-497.17 210,-504.83 210,-504.83 210,-508.67 206.17,-512.5 202.33,-512.5"/>
<text text-anchor="middle" x="182" y="-497.3" font-family="Arial" font-size="14.00" fill="#c6c5fe">view.js</text>
</g>
<!-- main.js&#45;&gt;view.js -->
<g id="edge48" class="edge">
<title>main.js&#45;&gt;view.js</title>
<path fill="none" stroke="#757575" d="M89.29,-501C105.51,-501 125.85,-501 143.25,-501"/>
<polygon fill="#757575" stroke="#757575" points="143.64,-504.5 153.64,-501 143.64,-497.5 143.64,-504.5"/>
</g>
<!-- view.js&#45;&gt;components/keyboard.js -->
<g id="edge52" class="edge">
<title>view.js&#45;&gt;components/keyboard.js</title>
<path fill="none" stroke="#757575" d="M183.22,-512.6C184.59,-572.11 193.64,-842.79 246,-904 249,-907.5 252.47,-910.54 256.25,-913.17"/>
<polygon fill="#757575" stroke="#757575" points="254.58,-916.25 264.98,-918.3 258.13,-910.21 254.58,-916.25"/>
</g>
<!-- view.js&#45;&gt;components/mouse.js -->
<g id="edge53" class="edge">
<title>view.js&#45;&gt;components/mouse.js</title>
<path fill="none" stroke="#757575" d="M183.86,-512.79C186.86,-547.04 199.41,-648.34 246,-715 309.35,-805.64 342.98,-822.81 446,-863 505.65,-886.27 577.98,-893.03 632.83,-894.23"/>
<polygon fill="#757575" stroke="#757575" points="632.81,-897.73 642.86,-894.4 632.92,-890.73 632.81,-897.73"/>
</g>
<!-- view.js&#45;&gt;components/ruler.js -->
<g id="edge54" class="edge">
<title>view.js&#45;&gt;components/ruler.js</title>
<path fill="none" stroke="#757575" d="M183.04,-512.71C183.85,-545.56 191.1,-638.87 246,-681 308.17,-728.71 402.72,-724.7 464.31,-715.17"/>
<polygon fill="#757575" stroke="#757575" points="464.98,-718.61 474.28,-713.53 463.85,-711.7 464.98,-718.61"/>
</g>
<!-- view.js&#45;&gt;core.js -->
<g id="edge56" class="edge">
<title>view.js&#45;&gt;core.js</title>
<path fill="none" stroke="#757575" d="M186.88,-489.36C194.54,-468.33 213.72,-424.22 246,-403 383.75,-312.46 594.57,-332.51 679.32,-345.42"/>
<polygon fill="#757575" stroke="#757575" points="678.83,-348.88 689.26,-346.99 679.93,-341.97 678.83,-348.88"/>
</g>
<!-- view.js&#45;&gt;components/selection.js -->
<g id="edge55" class="edge">
<title>view.js&#45;&gt;components/selection.js</title>
<path fill="none" stroke="#757575" d="M186.51,-512.82C193.69,-534.59 212.25,-580.68 246,-601 305.22,-636.64 384.76,-639.2 443.85,-634.41"/>
<polygon fill="#757575" stroke="#757575" points="444.24,-637.89 453.89,-633.51 443.62,-630.92 444.24,-637.89"/>
</g>
<!-- view.js&#45;&gt;gui/advanced.js -->
<g id="edge57" class="edge">
<title>view.js&#45;&gt;gui/advanced.js</title>
<path fill="none" stroke="#757575" d="M210.15,-507.8C221.21,-510.37 234.16,-513.12 246,-515 319.31,-526.64 404.3,-533.99 461.13,-538.03"/>
<polygon fill="#757575" stroke="#757575" points="461.19,-541.54 471.41,-538.74 461.68,-534.56 461.19,-541.54"/>
</g>
<!-- view.js&#45;&gt;gui/controls.js -->
<g id="edge58" class="edge">
<title>view.js&#45;&gt;gui/controls.js</title>
<path fill="none" stroke="#757575" d="M183.41,-489.19C185.19,-457.83 194.76,-372.15 246,-333 309.19,-284.73 405.37,-287.43 466.82,-295.73"/>
<polygon fill="#757575" stroke="#757575" points="466.35,-299.2 476.75,-297.16 467.35,-292.27 466.35,-299.2"/>
</g>
<!-- view.js&#45;&gt;gui/dat.gui.js -->
<g id="edge59" class="edge">
<title>view.js&#45;&gt;gui/dat.gui.js</title>
<path fill="none" stroke="#757575" d="M184.08,-489.25C188.74,-441.17 208.54,-260.03 246,-219 253.09,-211.23 262.51,-205.77 272.41,-201.94"/>
<polygon fill="#757575" stroke="#757575" points="273.61,-205.23 281.99,-198.74 271.4,-198.59 273.61,-205.23"/>
</g>
<!-- view.js&#45;&gt;gui/field.js -->
<g id="edge60" class="edge">
<title>view.js&#45;&gt;gui/field.js</title>
<path fill="none" stroke="#757575" d="M204.56,-489.47C228.95,-476.43 268.86,-455.09 296.45,-440.34"/>
<polygon fill="#757575" stroke="#757575" points="298.13,-443.41 305.29,-435.61 294.83,-437.24 298.13,-443.41"/>
</g>
<!-- view.js&#45;&gt;gui/generator.js -->
<g id="edge61" class="edge">
<title>view.js&#45;&gt;gui/generator.js</title>
<path fill="none" stroke="#757575" d="M185.18,-512.56C190.65,-538.36 207.38,-601.06 246,-635 251.22,-639.59 257.25,-643.36 263.63,-646.48"/>
<polygon fill="#757575" stroke="#757575" points="262.59,-649.84 273.16,-650.58 265.35,-643.41 262.59,-649.84"/>
</g>
<!-- view.js&#45;&gt;gui/info.js -->
<g id="edge62" class="edge">
<title>view.js&#45;&gt;gui/info.js</title>
<path fill="none" stroke="#757575" d="M210.16,-501C268.52,-501 406.46,-501 479.02,-501"/>
<polygon fill="#757575" stroke="#757575" points="479.24,-504.5 489.24,-501 479.24,-497.5 479.24,-504.5"/>
</g>
<!-- view.js&#45;&gt;gui/parameters.js -->
<g id="edge63" class="edge">
<title>view.js&#45;&gt;gui/parameters.js</title>
<path fill="none" stroke="#757575" d="M184.67,-489.45C190.78,-448.81 213.32,-313.41 246,-287 277.07,-261.89 383.24,-260.35 455.41,-262.48"/>
<polygon fill="#757575" stroke="#757575" points="455.69,-265.99 465.8,-262.81 455.92,-258.99 455.69,-265.99"/>
</g>
<!-- view.js&#45;&gt;gui/particle.js -->
<g id="edge64" class="edge">
<title>view.js&#45;&gt;gui/particle.js</title>
<path fill="none" stroke="#757575" d="M184.47,-489.37C190.21,-445.66 212.49,-291.98 246,-258 299.07,-204.18 341.61,-245.17 410,-213 445.77,-196.18 482.34,-168.37 504.49,-150.12"/>
<polygon fill="#757575" stroke="#757575" points="506.81,-152.74 512.24,-143.64 502.32,-147.37 506.81,-152.74"/>
</g>
<!-- view.js&#45;&gt;gui/selection.js -->
<g id="edge65" class="edge">
<title>view.js&#45;&gt;gui/selection.js</title>
<path fill="none" stroke="#757575" d="M194.07,-512.61C205.94,-524.47 225.8,-542.68 246,-554 254.35,-558.68 263.64,-562.71 272.87,-566.13"/>
<polygon fill="#757575" stroke="#757575" points="271.82,-569.47 282.42,-569.48 274.13,-562.87 271.82,-569.47"/>
</g>
<!-- view.js&#45;&gt;gui/stats.js -->
<g id="edge66" class="edge">
<title>view.js&#45;&gt;gui/stats.js</title>
<path fill="none" stroke="#757575" d="M183.59,-489.43C186.49,-436.67 201.08,-219.36 246,-172 254.41,-163.13 266.08,-157.94 277.94,-154.96"/>
<polygon fill="#757575" stroke="#757575" points="278.77,-158.36 287.88,-152.94 277.38,-151.5 278.77,-158.36"/>
</g>
<!-- mock/graphics.js -->
<g id="node28" class="node">
<title>mock/graphics.js</title>
<path fill="none" stroke="#cfffac" d="M110.33,-553.5C110.33,-553.5 7.67,-553.5 7.67,-553.5 3.83,-553.5 0,-549.67 0,-545.83 0,-545.83 0,-538.17 0,-538.17 0,-534.33 3.83,-530.5 7.67,-530.5 7.67,-530.5 110.33,-530.5 110.33,-530.5 114.17,-530.5 118,-534.33 118,-538.17 118,-538.17 118,-545.83 118,-545.83 118,-549.67 114.17,-553.5 110.33,-553.5"/>
<text text-anchor="middle" x="59" y="-538.3" font-family="Arial" font-size="14.00" fill="#cfffac">mock/graphics.js</text>
</g>
</g>
</svg>
