<?xml version="1.0" encoding="UTF-8" standalone="no"?>
<!DOCTYPE svg PUBLIC "-//W3C//DTD SVG 1.1//EN"
 "http://www.w3.org/Graphics/SVG/1.1/DTD/svg11.dtd">
<!-- Generated by graphviz version 2.40.1 (20161225.0304)
 -->
<!-- Title: G Pages: 1 -->
<svg width="1131pt" height="725pt"
 viewBox="0.00 0.00 1131.20 724.86" xmlns="http://www.w3.org/2000/svg" xmlns:xlink="http://www.w3.org/1999/xlink">
<g id="graph0" class="graph" transform="scale(1 1) rotate(0) translate(21.6 703.2572)">
<title>G</title>
<polygon fill="#111111" stroke="transparent" points="-21.6,21.6 -21.6,-703.2572 1109.6,-703.2572 1109.6,21.6 -21.6,21.6"/>
<!-- core.js -->
<g id="node1" class="node">
<title>core.js</title>
<path fill="none" stroke="#c6c5fe" d="M401.3333,-342C401.3333,-342 357.6667,-342 357.6667,-342 353.8333,-342 350,-338.1667 350,-334.3333 350,-334.3333 350,-326.6667 350,-326.6667 350,-322.8333 353.8333,-319 357.6667,-319 357.6667,-319 401.3333,-319 401.3333,-319 405.1667,-319 409,-322.8333 409,-326.6667 409,-326.6667 409,-334.3333 409,-334.3333 409,-338.1667 405.1667,-342 401.3333,-342"/>
<text text-anchor="middle" x="379.5" y="-326.8" font-family="Arial" font-size="14.00" fill="#c6c5fe">core.js</text>
</g>
<!-- csv.js -->
<g id="node2" class="node">
<title>csv.js</title>
<path fill="none" stroke="#c6c5fe" d="M769.3333,-657C769.3333,-657 730.6667,-657 730.6667,-657 726.8333,-657 723,-653.1667 723,-649.3333 723,-649.3333 723,-641.6667 723,-641.6667 723,-637.8333 726.8333,-634 730.6667,-634 730.6667,-634 769.3333,-634 769.3333,-634 773.1667,-634 777,-637.8333 777,-641.6667 777,-641.6667 777,-649.3333 777,-649.3333 777,-653.1667 773.1667,-657 769.3333,-657"/>
<text text-anchor="middle" x="750" y="-641.8" font-family="Arial" font-size="14.00" fill="#c6c5fe">csv.js</text>
</g>
<!-- core.js&#45;&gt;csv.js -->
<g id="edge1" class="edge">
<title>core.js&#45;&gt;csv.js</title>
<path fill="none" stroke="#757575" d="M379.9057,-342.0373C382.0066,-382.9992 394.9249,-522.6098 474,-590.5 509.4519,-620.9374 645.9966,-636.5948 712.7835,-642.5669"/>
<polygon fill="#757575" stroke="#757575" points="712.6121,-646.0651 722.8773,-643.4431 713.2175,-639.0913 712.6121,-646.0651"/>
</g>
<!-- gpu/field.js -->
<g id="node3" class="node">
<title>gpu/field.js</title>
<path fill="none" stroke="#c6c5fe" d="M574.8333,-342C574.8333,-342 504.1667,-342 504.1667,-342 500.3333,-342 496.5,-338.1667 496.5,-334.3333 496.5,-334.3333 496.5,-326.6667 496.5,-326.6667 496.5,-322.8333 500.3333,-319 504.1667,-319 504.1667,-319 574.8333,-319 574.8333,-319 578.6667,-319 582.5,-322.8333 582.5,-326.6667 582.5,-326.6667 582.5,-334.3333 582.5,-334.3333 582.5,-338.1667 578.6667,-342 574.8333,-342"/>
<text text-anchor="middle" x="539.5" y="-326.8" font-family="Arial" font-size="14.00" fill="#c6c5fe">gpu/field.js</text>
</g>
<!-- core.js&#45;&gt;gpu/field.js -->
<g id="edge2" class="edge">
<title>core.js&#45;&gt;gpu/field.js</title>
<path fill="none" stroke="#757575" d="M409.2198,-330.5C430.7451,-330.5 460.4375,-330.5 486.04,-330.5"/>
<polygon fill="#757575" stroke="#757575" points="486.3574,-334.0001 496.3573,-330.5 486.3573,-327.0001 486.3574,-334.0001"/>
</g>
<!-- gpu/graphics.js -->
<g id="node4" class="node">
<title>gpu/graphics.js</title>
<path fill="none" stroke="#c6c5fe" d="M589.3333,-383C589.3333,-383 489.6667,-383 489.6667,-383 485.8333,-383 482,-379.1667 482,-375.3333 482,-375.3333 482,-367.6667 482,-367.6667 482,-363.8333 485.8333,-360 489.6667,-360 489.6667,-360 589.3333,-360 589.3333,-360 593.1667,-360 597,-363.8333 597,-367.6667 597,-367.6667 597,-375.3333 597,-375.3333 597,-379.1667 593.1667,-383 589.3333,-383"/>
<text text-anchor="middle" x="539.5" y="-367.8" font-family="Arial" font-size="14.00" fill="#c6c5fe">gpu/graphics.js</text>
</g>
<!-- core.js&#45;&gt;gpu/graphics.js -->
<g id="edge3" class="edge">
<title>core.js&#45;&gt;gpu/graphics.js</title>
<path fill="none" stroke="#757575" d="M409.2198,-338.1157C430.3621,-343.5334 459.3834,-350.9701 484.6694,-357.4497"/>
<polygon fill="#757575" stroke="#757575" points="483.9586,-360.8805 494.5144,-359.9725 485.6963,-354.0996 483.9586,-360.8805"/>
</g>
<!-- gpu/shaders/computeShader.js -->
<g id="node5" class="node">
<title>gpu/shaders/computeShader.js</title>
<path fill="none" stroke="#c6c5fe" d="M851.3333,-463C851.3333,-463 648.6667,-463 648.6667,-463 644.8333,-463 641,-459.1667 641,-455.3333 641,-455.3333 641,-447.6667 641,-447.6667 641,-443.8333 644.8333,-440 648.6667,-440 648.6667,-440 851.3333,-440 851.3333,-440 855.1667,-440 859,-443.8333 859,-447.6667 859,-447.6667 859,-455.3333 859,-455.3333 859,-459.1667 855.1667,-463 851.3333,-463"/>
<text text-anchor="middle" x="750" y="-447.8" font-family="Arial" font-size="14.00" fill="#c6c5fe">gpu/shaders/computeShader.js</text>
</g>
<!-- core.js&#45;&gt;gpu/shaders/computeShader.js -->
<g id="edge4" class="edge">
<title>core.js&#45;&gt;gpu/shaders/computeShader.js</title>
<path fill="none" stroke="#757575" d="M386.9116,-342.0954C400.9909,-362.9869 433.8177,-406.5348 474,-425.5 522.1504,-448.226 580.2274,-456.1657 630.6595,-457.8547"/>
<polygon fill="#757575" stroke="#757575" points="630.8822,-461.3614 640.9682,-458.1175 631.0607,-454.3637 630.8822,-461.3614"/>
</g>
<!-- gpu/simulation.js -->
<g id="node6" class="node">
<title>gpu/simulation.js</title>
<path fill="none" stroke="#c6c5fe" d="M594.3333,-301C594.3333,-301 484.6667,-301 484.6667,-301 480.8333,-301 477,-297.1667 477,-293.3333 477,-293.3333 477,-285.6667 477,-285.6667 477,-281.8333 480.8333,-278 484.6667,-278 484.6667,-278 594.3333,-278 594.3333,-278 598.1667,-278 602,-281.8333 602,-285.6667 602,-285.6667 602,-293.3333 602,-293.3333 602,-297.1667 598.1667,-301 594.3333,-301"/>
<text text-anchor="middle" x="539.5" y="-285.8" font-family="Arial" font-size="14.00" fill="#c6c5fe">gpu/simulation.js</text>
</g>
<!-- core.js&#45;&gt;gpu/simulation.js -->
<g id="edge5" class="edge">
<title>core.js&#45;&gt;gpu/simulation.js</title>
<path fill="none" stroke="#757575" d="M409.2198,-322.8843C430.3621,-317.4666 459.3834,-310.0299 484.6694,-303.5503"/>
<polygon fill="#757575" stroke="#757575" points="485.6963,-306.9004 494.5144,-301.0275 483.9586,-300.1195 485.6963,-306.9004"/>
</g>
<!-- helpers.js -->
<g id="node7" class="node">
<title>helpers.js</title>
<path fill="none" stroke="#c6c5fe" d="M781.8333,-227C781.8333,-227 718.1667,-227 718.1667,-227 714.3333,-227 710.5,-223.1667 710.5,-219.3333 710.5,-219.3333 710.5,-211.6667 710.5,-211.6667 710.5,-207.8333 714.3333,-204 718.1667,-204 718.1667,-204 781.8333,-204 781.8333,-204 785.6667,-204 789.5,-207.8333 789.5,-211.6667 789.5,-211.6667 789.5,-219.3333 789.5,-219.3333 789.5,-223.1667 785.6667,-227 781.8333,-227"/>
<text text-anchor="middle" x="750" y="-211.8" font-family="Arial" font-size="14.00" fill="#c6c5fe">helpers.js</text>
</g>
<!-- core.js&#45;&gt;helpers.js -->
<g id="edge6" class="edge">
<title>core.js&#45;&gt;helpers.js</title>
<path fill="none" stroke="#757575" d="M393.2439,-318.9506C410.8156,-304.8095 442.7228,-281.1808 474,-268.5 549.3449,-237.9528 643.5377,-224.7174 700.1216,-219.1993"/>
<polygon fill="#757575" stroke="#757575" points="700.6045,-222.6695 710.2364,-218.2563 699.9546,-215.6998 700.6045,-222.6695"/>
</g>
<!-- particle.js -->
<g id="node8" class="node">
<title>particle.js</title>
<path fill="none" stroke="#cfffac" d="M1080.3333,-343C1080.3333,-343 1018.6667,-343 1018.6667,-343 1014.8333,-343 1011,-339.1667 1011,-335.3333 1011,-335.3333 1011,-327.6667 1011,-327.6667 1011,-323.8333 1014.8333,-320 1018.6667,-320 1018.6667,-320 1080.3333,-320 1080.3333,-320 1084.1667,-320 1088,-323.8333 1088,-327.6667 1088,-327.6667 1088,-335.3333 1088,-335.3333 1088,-339.1667 1084.1667,-343 1080.3333,-343"/>
<text text-anchor="middle" x="1049.5" y="-327.8" font-family="Arial" font-size="14.00" fill="#cfffac">particle.js</text>
</g>
<!-- core.js&#45;&gt;particle.js -->
<g id="edge7" class="edge">
<title>core.js&#45;&gt;particle.js</title>
<path fill="none" stroke="#757575" d="M392.0135,-342.2409C409.0195,-357.307 441.0983,-382.6702 474,-392.5 637.9505,-441.4821 689.9388,-418.9071 859,-392.5 914.2763,-383.8659 975.4248,-361.9409 1013.1634,-346.8726"/>
<polygon fill="#757575" stroke="#757575" points="1014.7434,-350.009 1022.6988,-343.0117 1012.1162,-343.5206 1014.7434,-350.009"/>
</g>
<!-- physics.js -->
<g id="node9" class="node">
<title>physics.js</title>
<path fill="none" stroke="#c6c5fe" d="M967.3333,-522C967.3333,-522 902.6667,-522 902.6667,-522 898.8333,-522 895,-518.1667 895,-514.3333 895,-514.3333 895,-506.6667 895,-506.6667 895,-502.8333 898.8333,-499 902.6667,-499 902.6667,-499 967.3333,-499 967.3333,-499 971.1667,-499 975,-502.8333 975,-506.6667 975,-506.6667 975,-514.3333 975,-514.3333 975,-518.1667 971.1667,-522 967.3333,-522"/>
<text text-anchor="middle" x="935" y="-506.8" font-family="Arial" font-size="14.00" fill="#c6c5fe">physics.js</text>
</g>
<!-- core.js&#45;&gt;physics.js -->
<g id="edge8" class="edge">
<title>core.js&#45;&gt;physics.js</title>
<path fill="none" stroke="#757575" d="M384.5174,-342.2226C396.0846,-367.6483 427.2632,-427.7254 474,-454.5 543.071,-494.0695 779.8783,-505.9141 884.5546,-509.2619"/>
<polygon fill="#757575" stroke="#757575" points="884.7572,-512.7697 894.8597,-509.5775 884.9716,-505.7729 884.7572,-512.7697"/>
</g>
<!-- scenarios.js -->
<g id="node10" class="node">
<title>scenarios.js</title>
<path fill="none" stroke="#cfffac" d="M578.8333,-221C578.8333,-221 500.1667,-221 500.1667,-221 496.3333,-221 492.5,-217.1667 492.5,-213.3333 492.5,-213.3333 492.5,-205.6667 492.5,-205.6667 492.5,-201.8333 496.3333,-198 500.1667,-198 500.1667,-198 578.8333,-198 578.8333,-198 582.6667,-198 586.5,-201.8333 586.5,-205.6667 586.5,-205.6667 586.5,-213.3333 586.5,-213.3333 586.5,-217.1667 582.6667,-221 578.8333,-221"/>
<text text-anchor="middle" x="539.5" y="-205.8" font-family="Arial" font-size="14.00" fill="#cfffac">scenarios.js</text>
</g>
<!-- core.js&#45;&gt;scenarios.js -->
<g id="edge9" class="edge">
<title>core.js&#45;&gt;scenarios.js</title>
<path fill="none" stroke="#757575" d="M388.4796,-318.7351C403.9988,-299.0999 437.6823,-259.4478 474,-235.5 480.039,-231.5179 486.7824,-227.9883 493.5826,-224.9146"/>
<polygon fill="#757575" stroke="#757575" points="494.9816,-228.1232 502.8301,-221.0061 492.2564,-221.6754 494.9816,-228.1232"/>
</g>
<!-- csv.js&#45;&gt;particle.js -->
<g id="edge10" class="edge">
<title>csv.js&#45;&gt;particle.js</title>
<path fill="none" stroke="#757575" d="M777.0191,-651.1819C823.5292,-659.2635 919.0963,-668.172 975,-619.5 1015.7945,-583.9827 1039.7076,-413.7782 1047.0536,-353.0704"/>
<polygon fill="#757575" stroke="#757575" points="1050.538,-353.4074 1048.2328,-343.0664 1043.5861,-352.5879 1050.538,-353.4074"/>
</g>
<!-- csv.js&#45;&gt;physics.js -->
<g id="edge11" class="edge">
<title>csv.js&#45;&gt;physics.js</title>
<path fill="none" stroke="#757575" d="M773.0446,-633.8865C795.7623,-622.0037 831.0377,-602.3696 859,-581.5 880.3179,-565.5894 902.2688,-544.4782 917.0643,-529.421"/>
<polygon fill="#757575" stroke="#757575" points="919.6583,-531.7737 924.108,-522.1585 914.6334,-526.9002 919.6583,-531.7737"/>
</g>
<!-- gpu/field.js&#45;&gt;helpers.js -->
<g id="edge12" class="edge">
<title>gpu/field.js&#45;&gt;helpers.js</title>
<path fill="none" stroke="#757575" d="M582.7696,-319.2405C590.3935,-316.5303 598.0928,-313.2959 605,-309.5 623.2527,-299.4692 623.9628,-291.4796 641,-279.5 666.2886,-261.7186 696.7526,-244.1265 719.038,-231.9"/>
<polygon fill="#757575" stroke="#757575" points="720.9336,-234.8534 728.0492,-227.0037 717.5915,-228.7027 720.9336,-234.8534"/>
</g>
<!-- gpu/field.js&#45;&gt;particle.js -->
<g id="edge13" class="edge">
<title>gpu/field.js&#45;&gt;particle.js</title>
<path fill="none" stroke="#757575" d="M582.8485,-323.7135C600.7955,-321.2258 621.8522,-318.7212 641,-317.5 789.1434,-308.0516 827.1953,-303.7328 975,-317.5 983.3823,-318.2808 992.2272,-319.5455 1000.7801,-321.0035"/>
<polygon fill="#757575" stroke="#757575" points="1000.1779,-324.4513 1010.6412,-322.7866 1001.4235,-317.563 1000.1779,-324.4513"/>
</g>
<!-- gpu/graphics.js&#45;&gt;gpu/shaders/computeShader.js -->
<g id="edge14" class="edge">
<title>gpu/graphics.js&#45;&gt;gpu/shaders/computeShader.js</title>
<path fill="none" stroke="#757575" d="M570.1085,-383.1327C607.0832,-397.1848 669.3789,-420.8601 710.0919,-436.333"/>
<polygon fill="#757575" stroke="#757575" points="709.1049,-439.7021 719.6961,-439.9831 711.5918,-433.1587 709.1049,-439.7021"/>
</g>
<!-- gpu/graphics.js&#45;&gt;helpers.js -->
<g id="edge16" class="edge">
<title>gpu/graphics.js&#45;&gt;helpers.js</title>
<path fill="none" stroke="#757575" d="M586.7735,-359.9512C593.0989,-357.5842 599.3465,-354.7866 605,-351.5 624.0263,-340.4391 624.9653,-332.5743 641,-317.5 672.1124,-288.2511 708.3282,-254.3997 730.1902,-233.9864"/>
<polygon fill="#757575" stroke="#757575" points="732.6377,-236.4896 737.5591,-227.1071 727.8609,-231.3728 732.6377,-236.4896"/>
</g>
<!-- gpu/graphics.js&#45;&gt;particle.js -->
<g id="edge17" class="edge">
<title>gpu/graphics.js&#45;&gt;particle.js</title>
<path fill="none" stroke="#757575" d="M590.3821,-359.9676C606.4917,-356.7225 624.4205,-353.5284 641,-351.5 770.0737,-335.709 923.53,-332.2757 1000.4284,-331.6006"/>
<polygon fill="#757575" stroke="#757575" points="1000.7872,-335.0981 1010.7605,-331.5227 1000.7343,-328.0983 1000.7872,-335.0981"/>
</g>
<!-- gpu/shaders/particleShader.js -->
<g id="node11" class="node">
<title>gpu/shaders/particleShader.js</title>
<path fill="none" stroke="#cfffac" d="M846.8333,-383C846.8333,-383 653.1667,-383 653.1667,-383 649.3333,-383 645.5,-379.1667 645.5,-375.3333 645.5,-375.3333 645.5,-367.6667 645.5,-367.6667 645.5,-363.8333 649.3333,-360 653.1667,-360 653.1667,-360 846.8333,-360 846.8333,-360 850.6667,-360 854.5,-363.8333 854.5,-367.6667 854.5,-367.6667 854.5,-375.3333 854.5,-375.3333 854.5,-379.1667 850.6667,-383 846.8333,-383"/>
<text text-anchor="middle" x="750" y="-367.8" font-family="Arial" font-size="14.00" fill="#cfffac">gpu/shaders/particleShader.js</text>
</g>
<!-- gpu/graphics.js&#45;&gt;gpu/shaders/particleShader.js -->
<g id="edge15" class="edge">
<title>gpu/graphics.js&#45;&gt;gpu/shaders/particleShader.js</title>
<path fill="none" stroke="#757575" d="M597.0201,-371.5C608.9514,-371.5 621.9209,-371.5 635.0939,-371.5"/>
<polygon fill="#757575" stroke="#757575" points="635.1933,-375.0001 645.1933,-371.5 635.1932,-368.0001 635.1933,-375.0001"/>
</g>
<!-- gpu/shaders/computeShader.js&#45;&gt;physics.js -->
<g id="edge18" class="edge">
<title>gpu/shaders/computeShader.js&#45;&gt;physics.js</title>
<path fill="none" stroke="#757575" d="M806.8236,-463.0655C823.7827,-467.0487 842.298,-471.9299 859,-477.5 873.3845,-482.2973 888.8091,-488.7391 901.9782,-494.6578"/>
<polygon fill="#757575" stroke="#757575" points="900.5722,-497.8635 911.1216,-498.8441 903.4862,-491.4988 900.5722,-497.8635"/>
</g>
<!-- gpu/simulation.js&#45;&gt;helpers.js -->
<g id="edge19" class="edge">
<title>gpu/simulation.js&#45;&gt;helpers.js</title>
<path fill="none" stroke="#757575" d="M571.9618,-277.8766C582.6546,-273.7163 594.4924,-268.7481 605,-263.5 621.7752,-255.1216 623.6666,-248.6524 641,-241.5 659.8263,-233.7316 681.4826,-227.9688 700.5062,-223.8705"/>
<polygon fill="#757575" stroke="#757575" points="701.3864,-227.2628 710.4763,-221.82 699.9762,-220.4063 701.3864,-227.2628"/>
</g>
<!-- gpu/simulation.js&#45;&gt;particle.js -->
<g id="edge20" class="edge">
<title>gpu/simulation.js&#45;&gt;particle.js</title>
<path fill="none" stroke="#757575" d="M602.0946,-286.8245C687.2117,-284.3783 843.8855,-284.1178 975,-307.5 986.6918,-309.585 999.0837,-313.0437 1010.3349,-316.6951"/>
<polygon fill="#757575" stroke="#757575" points="1009.2883,-320.0358 1019.8825,-319.9238 1011.5307,-313.4047 1009.2883,-320.0358"/>
</g>
<!-- helpers.js&#45;&gt;particle.js -->
<g id="edge21" class="edge">
<title>helpers.js&#45;&gt;particle.js</title>
<path fill="none" stroke="#757575" d="M789.6404,-211.5108C836.7742,-208.6186 916.4184,-209.7097 975,-241.5 1004.2196,-257.3565 1026.5617,-289.7997 1038.8558,-311.0917"/>
<polygon fill="#757575" stroke="#757575" points="1035.8781,-312.9392 1043.786,-319.9901 1042.0011,-309.5467 1035.8781,-312.9392"/>
</g>
<!-- physics.js&#45;&gt;particle.js -->
<g id="edge24" class="edge">
<title>physics.js&#45;&gt;particle.js</title>
<path fill="none" stroke="#757575" d="M942.5127,-498.7553C961.6844,-468.7838 1012.6002,-389.1862 1036.6176,-351.6393"/>
<polygon fill="#757575" stroke="#757575" points="1039.6684,-353.3652 1042.1085,-343.0552 1033.7715,-349.5932 1039.6684,-353.3652"/>
</g>
<!-- keyboard.js -->
<g id="node12" class="node">
<title>keyboard.js</title>
<path fill="none" stroke="#cfffac" d="M277.3333,-23C277.3333,-23 200.6667,-23 200.6667,-23 196.8333,-23 193,-19.1667 193,-15.3333 193,-15.3333 193,-7.6667 193,-7.6667 193,-3.8333 196.8333,0 200.6667,0 200.6667,0 277.3333,0 277.3333,0 281.1667,0 285,-3.8333 285,-7.6667 285,-7.6667 285,-15.3333 285,-15.3333 285,-19.1667 281.1667,-23 277.3333,-23"/>
<text text-anchor="middle" x="239" y="-7.8" font-family="Arial" font-size="14.00" fill="#cfffac">keyboard.js</text>
</g>
<!-- main.js -->
<g id="node13" class="node">
<title>main.js</title>
<path fill="none" stroke="#c6c5fe" d="M54.3333,-203C54.3333,-203 7.6667,-203 7.6667,-203 3.8333,-203 0,-199.1667 0,-195.3333 0,-195.3333 0,-187.6667 0,-187.6667 0,-183.8333 3.8333,-180 7.6667,-180 7.6667,-180 54.3333,-180 54.3333,-180 58.1667,-180 62,-183.8333 62,-187.6667 62,-187.6667 62,-195.3333 62,-195.3333 62,-199.1667 58.1667,-203 54.3333,-203"/>
<text text-anchor="middle" x="31" y="-187.8" font-family="Arial" font-size="14.00" fill="#c6c5fe">main.js</text>
</g>
<!-- view.js -->
<g id="node14" class="node">
<title>view.js</title>
<path fill="none" stroke="#c6c5fe" d="M149.3333,-203C149.3333,-203 105.6667,-203 105.6667,-203 101.8333,-203 98,-199.1667 98,-195.3333 98,-195.3333 98,-187.6667 98,-187.6667 98,-183.8333 101.8333,-180 105.6667,-180 105.6667,-180 149.3333,-180 149.3333,-180 153.1667,-180 157,-183.8333 157,-187.6667 157,-187.6667 157,-195.3333 157,-195.3333 157,-199.1667 153.1667,-203 149.3333,-203"/>
<text text-anchor="middle" x="127.5" y="-187.8" font-family="Arial" font-size="14.00" fill="#c6c5fe">view.js</text>
</g>
<!-- main.js&#45;&gt;view.js -->
<g id="edge22" class="edge">
<title>main.js&#45;&gt;view.js</title>
<path fill="none" stroke="#757575" d="M62.0644,-191.5C70.212,-191.5 79.1116,-191.5 87.6492,-191.5"/>
<polygon fill="#757575" stroke="#757575" points="87.8088,-195.0001 97.8088,-191.5 87.8087,-188.0001 87.8088,-195.0001"/>
</g>
<!-- view.js&#45;&gt;core.js -->
<g id="edge31" class="edge">
<title>view.js&#45;&gt;core.js</title>
<path fill="none" stroke="#757575" d="M148.5519,-203.112C193.2077,-227.7435 297.5632,-285.3047 349.3075,-313.8462"/>
<polygon fill="#757575" stroke="#757575" points="347.884,-317.0581 358.3308,-318.8233 351.2649,-310.9287 347.884,-317.0581"/>
</g>
<!-- view.js&#45;&gt;csv.js -->
<g id="edge32" class="edge">
<title>view.js&#45;&gt;csv.js</title>
<path fill="none" stroke="#757575" d="M127.7926,-203.1033C129.5023,-261.4415 140.0478,-522.1271 193,-578.5 331.4693,-725.9144 611.7786,-678.2642 712.719,-655.0075"/>
<polygon fill="#757575" stroke="#757575" points="713.8193,-658.3441 722.7474,-652.6398 712.2108,-651.5314 713.8193,-658.3441"/>
</g>
<!-- view.js&#45;&gt;helpers.js -->
<g id="edge33" class="edge">
<title>view.js&#45;&gt;helpers.js</title>
<path fill="none" stroke="#757575" d="M140.9515,-179.876C153.4731,-169.8811 173.1425,-156.2024 193,-150.5 264.7163,-129.9054 397.256,-137.7236 605,-174.5 639.7952,-180.6597 678.2398,-191.7336 706.7958,-200.821"/>
<polygon fill="#757575" stroke="#757575" points="705.8701,-204.2 716.4618,-203.9412 708.0205,-197.5384 705.8701,-204.2"/>
</g>
<!-- view.js&#45;&gt;particle.js -->
<g id="edge36" class="edge">
<title>view.js&#45;&gt;particle.js</title>
<path fill="none" stroke="#757575" d="M131.4385,-179.7146C139.3671,-157.9264 159.4218,-111.4777 193,-88.5 262.739,-40.7772 294.9956,-51.5 379.5,-51.5 379.5,-51.5 379.5,-51.5 750,-51.5 901.6856,-51.5 1008.3695,-245.5186 1039.8658,-310.5458"/>
<polygon fill="#757575" stroke="#757575" points="1036.8204,-312.2922 1044.2706,-319.8252 1043.1442,-309.2904 1036.8204,-312.2922"/>
</g>
<!-- view.js&#45;&gt;physics.js -->
<g id="edge37" class="edge">
<title>view.js&#45;&gt;physics.js</title>
<path fill="none" stroke="#757575" d="M129.983,-203.1347C143.4098,-262.5687 212.982,-529.5 379.5,-529.5 379.5,-529.5 379.5,-529.5 539.5,-529.5 663.7508,-529.5 809.7061,-520.0284 884.7773,-514.46"/>
<polygon fill="#757575" stroke="#757575" points="885.1799,-517.9398 894.8901,-513.7016 884.6564,-510.9594 885.1799,-517.9398"/>
</g>
<!-- view.js&#45;&gt;scenarios.js -->
<g id="edge39" class="edge">
<title>view.js&#45;&gt;scenarios.js</title>
<path fill="none" stroke="#757575" d="M157.13,-192.7945C225.105,-195.7643 393.2329,-203.1097 482.1874,-206.9961"/>
<polygon fill="#757575" stroke="#757575" points="482.2269,-210.501 492.3701,-207.4409 482.5325,-203.5077 482.2269,-210.501"/>
</g>
<!-- view.js&#45;&gt;keyboard.js -->
<g id="edge34" class="edge">
<title>view.js&#45;&gt;keyboard.js</title>
<path fill="none" stroke="#757575" d="M129.7938,-179.6759C135.721,-151.846 153.8951,-81.263 193,-37.5 195.8881,-34.2679 199.2771,-31.3431 202.8838,-28.7224"/>
<polygon fill="#757575" stroke="#757575" points="205.0327,-31.5022 211.561,-23.1576 201.2538,-25.6098 205.0327,-31.5022"/>
</g>
<!-- mouseHelper.js -->
<g id="node15" class="node">
<title>mouseHelper.js</title>
<path fill="none" stroke="#c6c5fe" d="M430.3333,-103C430.3333,-103 328.6667,-103 328.6667,-103 324.8333,-103 321,-99.1667 321,-95.3333 321,-95.3333 321,-87.6667 321,-87.6667 321,-83.8333 324.8333,-80 328.6667,-80 328.6667,-80 430.3333,-80 430.3333,-80 434.1667,-80 438,-83.8333 438,-87.6667 438,-87.6667 438,-95.3333 438,-95.3333 438,-99.1667 434.1667,-103 430.3333,-103"/>
<text text-anchor="middle" x="379.5" y="-87.8" font-family="Arial" font-size="14.00" fill="#c6c5fe">mouseHelper.js</text>
</g>
<!-- view.js&#45;&gt;mouseHelper.js -->
<g id="edge35" class="edge">
<title>view.js&#45;&gt;mouseHelper.js</title>
<path fill="none" stroke="#757575" d="M134.0253,-179.9472C144.2227,-163.0938 165.6348,-132.1802 193,-117.5 228.812,-98.2884 273.821,-91.604 310.6504,-89.8107"/>
<polygon fill="#757575" stroke="#757575" points="310.9456,-93.3022 320.8068,-89.4283 310.6821,-86.3072 310.9456,-93.3022"/>
</g>
<!-- ruler.js -->
<g id="node16" class="node">
<title>ruler.js</title>
<path fill="none" stroke="#c6c5fe" d="M260.8333,-183C260.8333,-183 217.1667,-183 217.1667,-183 213.3333,-183 209.5,-179.1667 209.5,-175.3333 209.5,-175.3333 209.5,-167.6667 209.5,-167.6667 209.5,-163.8333 213.3333,-160 217.1667,-160 217.1667,-160 260.8333,-160 260.8333,-160 264.6667,-160 268.5,-163.8333 268.5,-167.6667 268.5,-167.6667 268.5,-175.3333 268.5,-175.3333 268.5,-179.1667 264.6667,-183 260.8333,-183"/>
<text text-anchor="middle" x="239" y="-167.8" font-family="Arial" font-size="14.00" fill="#c6c5fe">ruler.js</text>
</g>
<!-- view.js&#45;&gt;ruler.js -->
<g id="edge38" class="edge">
<title>view.js&#45;&gt;ruler.js</title>
<path fill="none" stroke="#757575" d="M157.0872,-186.1929C169.9401,-183.8874 185.1923,-181.1516 199.0309,-178.6694"/>
<polygon fill="#757575" stroke="#757575" points="200.0496,-182.0426 209.2745,-176.8319 198.8136,-175.1525 200.0496,-182.0426"/>
</g>
<!-- selectionHelper.js -->
<g id="node17" class="node">
<title>selectionHelper.js</title>
<path fill="none" stroke="#c6c5fe" d="M597.3333,-581C597.3333,-581 481.6667,-581 481.6667,-581 477.8333,-581 474,-577.1667 474,-573.3333 474,-573.3333 474,-565.6667 474,-565.6667 474,-561.8333 477.8333,-558 481.6667,-558 481.6667,-558 597.3333,-558 597.3333,-558 601.1667,-558 605,-561.8333 605,-565.6667 605,-565.6667 605,-573.3333 605,-573.3333 605,-577.1667 601.1667,-581 597.3333,-581"/>
<text text-anchor="middle" x="539.5" y="-565.8" font-family="Arial" font-size="14.00" fill="#c6c5fe">selectionHelper.js</text>
</g>
<!-- view.js&#45;&gt;selectionHelper.js -->
<g id="edge40" class="edge">
<title>view.js&#45;&gt;selectionHelper.js</title>
<path fill="none" stroke="#757575" d="M127.8454,-203.3066C129.7428,-259.2311 140.8142,-496.7173 193,-543.5 273.5458,-615.7064 411.2593,-599.515 486.5354,-583.3358"/>
<polygon fill="#757575" stroke="#757575" points="487.732,-586.655 496.7303,-581.0621 486.2082,-579.8228 487.732,-586.655"/>
</g>
<!-- mouseHelper.js&#45;&gt;helpers.js -->
<g id="edge23" class="edge">
<title>mouseHelper.js&#45;&gt;helpers.js</title>
<path fill="none" stroke="#757575" d="M438.2592,-90.6996C484.8343,-91.8381 550.8575,-97.4558 605,-117.5 654.3658,-135.7758 703.3244,-174.1992 729.8173,-197.1297"/>
<polygon fill="#757575" stroke="#757575" points="727.7837,-200.0025 737.6016,-203.9851 732.4101,-194.7493 727.7837,-200.0025"/>
</g>
<!-- ruler.js&#45;&gt;core.js -->
<g id="edge25" class="edge">
<title>ruler.js&#45;&gt;core.js</title>
<path fill="none" stroke="#757575" d="M249.3313,-183.1916C273.2841,-210.2984 332.81,-277.6622 362.3338,-311.0735"/>
<polygon fill="#757575" stroke="#757575" points="359.9091,-313.6152 369.1536,-318.7912 365.1546,-308.98 359.9091,-313.6152"/>
</g>
<!-- ruler.js&#45;&gt;helpers.js -->
<g id="edge26" class="edge">
<title>ruler.js&#45;&gt;helpers.js</title>
<path fill="none" stroke="#757575" d="M268.5247,-171.4963C330.8849,-171.7904 480.5194,-174.0889 605,-188.5 636.9426,-192.198 672.4382,-198.7649 700.3147,-204.4963"/>
<polygon fill="#757575" stroke="#757575" points="699.7154,-207.9466 710.2196,-206.5632 701.1454,-201.0942 699.7154,-207.9466"/>
</g>
<!-- selectionHelper.js&#45;&gt;csv.js -->
<g id="edge27" class="edge">
<title>selectionHelper.js&#45;&gt;csv.js</title>
<path fill="none" stroke="#757575" d="M572.4203,-581.0115C583.0325,-585.1305 594.7063,-590.1025 605,-595.5 622.0304,-604.4299 623.3724,-611.8159 641,-619.5 663.8356,-629.4544 691.0972,-635.9555 712.6441,-639.9675"/>
<polygon fill="#757575" stroke="#757575" points="712.2627,-643.4541 722.7181,-641.7412 713.4766,-636.5601 712.2627,-643.4541"/>
</g>
<!-- selectionHelper.js&#45;&gt;helpers.js -->
<g id="edge28" class="edge">
<title>selectionHelper.js&#45;&gt;helpers.js</title>
<path fill="none" stroke="#757575" d="M543.853,-557.6495C556.4469,-524.0191 594.9706,-425.6255 641,-351.5 668.7989,-306.7327 709.2191,-259.9356 732.2236,-234.5879"/>
<polygon fill="#757575" stroke="#757575" points="734.8702,-236.8803 739.0425,-227.1416 729.7077,-232.1528 734.8702,-236.8803"/>
</g>
<!-- selectionHelper.js&#45;&gt;particle.js -->
<g id="edge29" class="edge">
<title>selectionHelper.js&#45;&gt;particle.js</title>
<path fill="none" stroke="#757575" d="M581.7131,-581.0404C668.4238,-601.9177 867.4584,-634.8229 975,-531.5 1026.398,-482.1183 1042.6181,-394.0232 1047.5061,-353.2771"/>
<polygon fill="#757575" stroke="#757575" points="1050.9862,-353.6488 1048.5832,-343.3301 1044.0269,-352.8952 1050.9862,-353.6488"/>
</g>
<!-- selectionHelper.js&#45;&gt;physics.js -->
<g id="edge30" class="edge">
<title>selectionHelper.js&#45;&gt;physics.js</title>
<path fill="none" stroke="#757575" d="M605.0725,-570.3929C670.3812,-569.8372 773.0297,-565.0331 859,-543.5 874.3827,-539.6471 890.6106,-532.9929 904.1032,-526.6645"/>
<polygon fill="#757575" stroke="#757575" points="905.923,-529.6719 913.3932,-522.1588 902.8682,-523.3736 905.923,-529.6719"/>
</g>
</g>
</svg>
