<?xml version="1.0" encoding="UTF-8" standalone="no"?>
<!DOCTYPE svg PUBLIC "-//W3C//DTD SVG 1.1//EN"
 "http://www.w3.org/Graphics/SVG/1.1/DTD/svg11.dtd">
<!-- Generated by graphviz version 2.40.1 (20161225.0304)
 -->
<!-- Title: G Pages: 1 -->
<svg width="1552pt" height="988pt"
 viewBox="0.00 0.00 1552.20 987.67" xmlns="http://www.w3.org/2000/svg" xmlns:xlink="http://www.w3.org/1999/xlink">
<g id="graph0" class="graph" transform="scale(1 1) rotate(0) translate(21.6 966.0721)">
<title>G</title>
<polygon fill="#111111" stroke="transparent" points="-21.6,21.6 -21.6,-966.0721 1530.6,-966.0721 1530.6,21.6 -21.6,21.6"/>
<!-- components/csv.js -->
<g id="node1" class="node">
<title>components/csv.js</title>
<path fill="none" stroke="#c6c5fe" d="M988.8333,-160.4721C988.8333,-160.4721 867.1667,-160.4721 867.1667,-160.4721 863.3333,-160.4721 859.5,-156.6388 859.5,-152.8055 859.5,-152.8055 859.5,-145.1388 859.5,-145.1388 859.5,-141.3055 863.3333,-137.4721 867.1667,-137.4721 867.1667,-137.4721 988.8333,-137.4721 988.8333,-137.4721 992.6667,-137.4721 996.5,-141.3055 996.5,-145.1388 996.5,-145.1388 996.5,-152.8055 996.5,-152.8055 996.5,-156.6388 992.6667,-160.4721 988.8333,-160.4721"/>
<text text-anchor="middle" x="928" y="-145.2721" font-family="Arial" font-size="14.00" fill="#c6c5fe">components/csv.js</text>
</g>
<!-- particle.js -->
<g id="node2" class="node">
<title>particle.js</title>
<path fill="none" stroke="#cfffac" d="M1501.3333,-434.4721C1501.3333,-434.4721 1439.6667,-434.4721 1439.6667,-434.4721 1435.8333,-434.4721 1432,-430.6388 1432,-426.8055 1432,-426.8055 1432,-419.1388 1432,-419.1388 1432,-415.3055 1435.8333,-411.4721 1439.6667,-411.4721 1439.6667,-411.4721 1501.3333,-411.4721 1501.3333,-411.4721 1505.1667,-411.4721 1509,-415.3055 1509,-419.1388 1509,-419.1388 1509,-426.8055 1509,-426.8055 1509,-430.6388 1505.1667,-434.4721 1501.3333,-434.4721"/>
<text text-anchor="middle" x="1470.5" y="-419.2721" font-family="Arial" font-size="14.00" fill="#cfffac">particle.js</text>
</g>
<!-- components/csv.js&#45;&gt;particle.js -->
<g id="edge1" class="edge">
<title>components/csv.js&#45;&gt;particle.js</title>
<path fill="none" stroke="#757575" d="M982.5443,-137.4651C1052.7537,-124.8564 1177.8632,-109.8914 1280,-137.9721 1337.8406,-153.8744 1358.1335,-160.4474 1396,-206.9721 1444.3975,-266.4358 1462.1816,-359.2342 1467.9908,-401.1365"/>
<polygon fill="#757575" stroke="#757575" points="1464.5527,-401.8422 1469.301,-411.3135 1471.4954,-400.9484 1464.5527,-401.8422"/>
</g>
<!-- physics.js -->
<g id="node3" class="node">
<title>physics.js</title>
<path fill="none" stroke="#c6c5fe" d="M1388.3333,-238.4721C1388.3333,-238.4721 1323.6667,-238.4721 1323.6667,-238.4721 1319.8333,-238.4721 1316,-234.6388 1316,-230.8055 1316,-230.8055 1316,-223.1388 1316,-223.1388 1316,-219.3055 1319.8333,-215.4721 1323.6667,-215.4721 1323.6667,-215.4721 1388.3333,-215.4721 1388.3333,-215.4721 1392.1667,-215.4721 1396,-219.3055 1396,-223.1388 1396,-223.1388 1396,-230.8055 1396,-230.8055 1396,-234.6388 1392.1667,-238.4721 1388.3333,-238.4721"/>
<text text-anchor="middle" x="1356" y="-223.2721" font-family="Arial" font-size="14.00" fill="#c6c5fe">physics.js</text>
</g>
<!-- components/csv.js&#45;&gt;physics.js -->
<g id="edge2" class="edge">
<title>components/csv.js&#45;&gt;physics.js</title>
<path fill="none" stroke="#757575" d="M996.6231,-143.6862C1069.1626,-140.4476 1185.8768,-142.0063 1280,-174.9721 1300.9378,-182.3054 1321.5073,-196.9674 1335.9557,-208.8583"/>
<polygon fill="#757575" stroke="#757575" points="1333.8291,-211.6444 1343.7119,-215.4629 1338.3674,-206.3148 1333.8291,-211.6444"/>
</g>
<!-- physics.js&#45;&gt;particle.js -->
<g id="edge56" class="edge">
<title>physics.js&#45;&gt;particle.js</title>
<path fill="none" stroke="#757575" d="M1362.8196,-238.6459C1381.6731,-270.919 1434.6795,-361.655 1458.5655,-402.5428"/>
<polygon fill="#757575" stroke="#757575" points="1455.6498,-404.4905 1463.7161,-411.3596 1461.694,-400.9595 1455.6498,-404.4905"/>
</g>
<!-- components/keyboard.js -->
<g id="node4" class="node">
<title>components/keyboard.js</title>
<path fill="none" stroke="#cfffac" d="M424.3333,-944.4721C424.3333,-944.4721 263.6667,-944.4721 263.6667,-944.4721 259.8333,-944.4721 256,-940.6388 256,-936.8055 256,-936.8055 256,-929.1388 256,-929.1388 256,-925.3055 259.8333,-921.4721 263.6667,-921.4721 263.6667,-921.4721 424.3333,-921.4721 424.3333,-921.4721 428.1667,-921.4721 432,-925.3055 432,-929.1388 432,-929.1388 432,-936.8055 432,-936.8055 432,-940.6388 428.1667,-944.4721 424.3333,-944.4721"/>
<text text-anchor="middle" x="344" y="-929.2721" font-family="Arial" font-size="14.00" fill="#cfffac">components/keyboard.js</text>
</g>
<!-- components/mouse.js -->
<g id="node5" class="node">
<title>components/mouse.js</title>
<path fill="none" stroke="#c6c5fe" d="M805.3333,-939.4721C805.3333,-939.4721 661.6667,-939.4721 661.6667,-939.4721 657.8333,-939.4721 654,-935.6388 654,-931.8055 654,-931.8055 654,-924.1388 654,-924.1388 654,-920.3055 657.8333,-916.4721 661.6667,-916.4721 661.6667,-916.4721 805.3333,-916.4721 805.3333,-916.4721 809.1667,-916.4721 813,-920.3055 813,-924.1388 813,-924.1388 813,-931.8055 813,-931.8055 813,-935.6388 809.1667,-939.4721 805.3333,-939.4721"/>
<text text-anchor="middle" x="733.5" y="-924.2721" font-family="Arial" font-size="14.00" fill="#c6c5fe">components/mouse.js</text>
</g>
<!-- helpers.js -->
<g id="node6" class="node">
<title>helpers.js</title>
<path fill="none" stroke="#c6c5fe" d="M1189.8333,-549.4721C1189.8333,-549.4721 1126.1667,-549.4721 1126.1667,-549.4721 1122.3333,-549.4721 1118.5,-545.6388 1118.5,-541.8055 1118.5,-541.8055 1118.5,-534.1388 1118.5,-534.1388 1118.5,-530.3055 1122.3333,-526.4721 1126.1667,-526.4721 1126.1667,-526.4721 1189.8333,-526.4721 1189.8333,-526.4721 1193.6667,-526.4721 1197.5,-530.3055 1197.5,-534.1388 1197.5,-534.1388 1197.5,-541.8055 1197.5,-541.8055 1197.5,-545.6388 1193.6667,-549.4721 1189.8333,-549.4721"/>
<text text-anchor="middle" x="1158" y="-534.2721" font-family="Arial" font-size="14.00" fill="#c6c5fe">helpers.js</text>
</g>
<!-- components/mouse.js&#45;&gt;helpers.js -->
<g id="edge3" class="edge">
<title>components/mouse.js&#45;&gt;helpers.js</title>
<path fill="none" stroke="#757575" d="M813.0529,-926.4537C870.5832,-921.4955 947.1737,-906.4806 1000,-863.9721 1101.7333,-782.109 1142.3758,-618.6064 1154.1041,-559.7302"/>
<polygon fill="#757575" stroke="#757575" points="1157.5815,-560.1794 1156.02,-549.7003 1150.7058,-558.866 1157.5815,-560.1794"/>
</g>
<!-- helpers.js&#45;&gt;particle.js -->
<g id="edge54" class="edge">
<title>helpers.js&#45;&gt;particle.js</title>
<path fill="none" stroke="#757575" d="M1197.8816,-532.4495C1246.4569,-524.6804 1330.1709,-507.8868 1396,-476.9721 1415.8228,-467.663 1435.7799,-452.838 1450.0426,-441.0746"/>
<polygon fill="#757575" stroke="#757575" points="1452.3622,-443.6967 1457.7382,-434.5671 1447.8423,-438.3516 1452.3622,-443.6967"/>
</g>
<!-- components/ruler.js -->
<g id="node7" class="node">
<title>components/ruler.js</title>
<path fill="none" stroke="#c6c5fe" d="M603.3333,-823.4721C603.3333,-823.4721 475.6667,-823.4721 475.6667,-823.4721 471.8333,-823.4721 468,-819.6388 468,-815.8055 468,-815.8055 468,-808.1388 468,-808.1388 468,-804.3055 471.8333,-800.4721 475.6667,-800.4721 475.6667,-800.4721 603.3333,-800.4721 603.3333,-800.4721 607.1667,-800.4721 611,-804.3055 611,-808.1388 611,-808.1388 611,-815.8055 611,-815.8055 611,-819.6388 607.1667,-823.4721 603.3333,-823.4721"/>
<text text-anchor="middle" x="539.5" y="-808.2721" font-family="Arial" font-size="14.00" fill="#c6c5fe">components/ruler.js</text>
</g>
<!-- components/ruler.js&#45;&gt;helpers.js -->
<g id="edge5" class="edge">
<title>components/ruler.js&#45;&gt;helpers.js</title>
<path fill="none" stroke="#757575" d="M611.3695,-816.091C724.0638,-821.2576 936.0932,-825.384 1000,-787.9721 1089.5797,-735.531 1136.2109,-610.0057 1151.8616,-559.5315"/>
<polygon fill="#757575" stroke="#757575" points="1155.2924,-560.2755 1154.8111,-549.6916 1148.5872,-558.2656 1155.2924,-560.2755"/>
</g>
<!-- core.js -->
<g id="node8" class="node">
<title>core.js</title>
<path fill="none" stroke="#c6c5fe" d="M755.3333,-589.4721C755.3333,-589.4721 711.6667,-589.4721 711.6667,-589.4721 707.8333,-589.4721 704,-585.6388 704,-581.8055 704,-581.8055 704,-574.1388 704,-574.1388 704,-570.3055 707.8333,-566.4721 711.6667,-566.4721 711.6667,-566.4721 755.3333,-566.4721 755.3333,-566.4721 759.1667,-566.4721 763,-570.3055 763,-574.1388 763,-574.1388 763,-581.8055 763,-581.8055 763,-585.6388 759.1667,-589.4721 755.3333,-589.4721"/>
<text text-anchor="middle" x="733.5" y="-574.2721" font-family="Arial" font-size="14.00" fill="#c6c5fe">core.js</text>
</g>
<!-- components/ruler.js&#45;&gt;core.js -->
<g id="edge4" class="edge">
<title>components/ruler.js&#45;&gt;core.js</title>
<path fill="none" stroke="#757575" d="M555.9081,-800.4393C571.1398,-789.2885 593.9638,-771.4136 611,-752.9721 657.9253,-702.1761 701.4837,-632.5316 721.6835,-598.447"/>
<polygon fill="#757575" stroke="#757575" points="724.7025,-600.2177 726.7448,-589.8216 718.6651,-596.675 724.7025,-600.2177"/>
</g>
<!-- core.js&#45;&gt;components/csv.js -->
<g id="edge10" class="edge">
<title>core.js&#45;&gt;components/csv.js</title>
<path fill="none" stroke="#757575" d="M738.4668,-566.3713C752.1734,-534.1933 791.4052,-440.9787 820,-361.9721 837.6503,-313.2049 832.7832,-297.3484 856,-250.9721 871.3834,-220.2433 895.3269,-188.4553 911.3281,-168.7053"/>
<polygon fill="#757575" stroke="#757575" points="914.2057,-170.7166 917.8566,-160.7706 908.8002,-166.269 914.2057,-170.7166"/>
</g>
<!-- core.js&#45;&gt;particle.js -->
<g id="edge16" class="edge">
<title>core.js&#45;&gt;particle.js</title>
<path fill="none" stroke="#757575" d="M751.2256,-589.6904C774.2401,-604.1349 816.1865,-627.884 856,-636.9721 1040.2744,-679.0361 1100.0381,-661.766 1280,-603.9721 1336.0618,-585.9682 1353.0769,-580.2793 1396,-539.9721 1425.9314,-511.865 1449.0409,-469.2959 1461.1378,-443.9984"/>
<polygon fill="#757575" stroke="#757575" points="1464.4609,-445.1524 1465.4998,-434.6086 1458.1125,-442.2032 1464.4609,-445.1524"/>
</g>
<!-- core.js&#45;&gt;physics.js -->
<g id="edge17" class="edge">
<title>core.js&#45;&gt;physics.js</title>
<path fill="none" stroke="#757575" d="M758.2393,-566.4666C778.2752,-555.7899 805.4764,-537.936 820,-513.9721 873.3995,-425.8631 781.2604,-355.8856 856,-284.9721 924.7188,-219.7713 1186.2358,-254.4521 1280,-240.9721 1288.3995,-239.7646 1297.2879,-238.2991 1305.9107,-236.7769"/>
<polygon fill="#757575" stroke="#757575" points="1306.6488,-240.2003 1315.866,-234.9759 1305.4026,-233.3121 1306.6488,-240.2003"/>
</g>
<!-- core.js&#45;&gt;helpers.js -->
<g id="edge15" class="edge">
<title>core.js&#45;&gt;helpers.js</title>
<path fill="none" stroke="#757575" d="M763.013,-575.1912C834.8147,-568.4254 1019.2421,-551.0471 1108.3456,-542.651"/>
<polygon fill="#757575" stroke="#757575" points="1108.8408,-546.1199 1118.4683,-541.6972 1108.184,-539.1508 1108.8408,-546.1199"/>
</g>
<!-- gpu/field.js -->
<g id="node10" class="node">
<title>gpu/field.js</title>
<path fill="none" stroke="#c6c5fe" d="M963.3333,-627.4721C963.3333,-627.4721 892.6667,-627.4721 892.6667,-627.4721 888.8333,-627.4721 885,-623.6388 885,-619.8055 885,-619.8055 885,-612.1388 885,-612.1388 885,-608.3055 888.8333,-604.4721 892.6667,-604.4721 892.6667,-604.4721 963.3333,-604.4721 963.3333,-604.4721 967.1667,-604.4721 971,-608.3055 971,-612.1388 971,-612.1388 971,-619.8055 971,-619.8055 971,-623.6388 967.1667,-627.4721 963.3333,-627.4721"/>
<text text-anchor="middle" x="928" y="-612.2721" font-family="Arial" font-size="14.00" fill="#c6c5fe">gpu/field.js</text>
</g>
<!-- core.js&#45;&gt;gpu/field.js -->
<g id="edge11" class="edge">
<title>core.js&#45;&gt;gpu/field.js</title>
<path fill="none" stroke="#757575" d="M763.0404,-583.7435C792.6676,-589.5319 838.9392,-598.5721 874.945,-605.6066"/>
<polygon fill="#757575" stroke="#757575" points="874.3203,-609.0507 884.8058,-607.5332 875.6625,-602.1806 874.3203,-609.0507"/>
</g>
<!-- gpu/graphics.js -->
<g id="node11" class="node">
<title>gpu/graphics.js</title>
<path fill="none" stroke="#c6c5fe" d="M977.8333,-395.4721C977.8333,-395.4721 878.1667,-395.4721 878.1667,-395.4721 874.3333,-395.4721 870.5,-391.6388 870.5,-387.8055 870.5,-387.8055 870.5,-380.1388 870.5,-380.1388 870.5,-376.3055 874.3333,-372.4721 878.1667,-372.4721 878.1667,-372.4721 977.8333,-372.4721 977.8333,-372.4721 981.6667,-372.4721 985.5,-376.3055 985.5,-380.1388 985.5,-380.1388 985.5,-387.8055 985.5,-387.8055 985.5,-391.6388 981.6667,-395.4721 977.8333,-395.4721"/>
<text text-anchor="middle" x="928" y="-380.2721" font-family="Arial" font-size="14.00" fill="#c6c5fe">gpu/graphics.js</text>
</g>
<!-- core.js&#45;&gt;gpu/graphics.js -->
<g id="edge12" class="edge">
<title>core.js&#45;&gt;gpu/graphics.js</title>
<path fill="none" stroke="#757575" d="M751.7057,-566.3843C769.9203,-554.3716 798.2792,-534.5048 820,-513.9721 857.5482,-478.478 894.5414,-430.3035 913.9768,-403.6879"/>
<polygon fill="#757575" stroke="#757575" points="916.8468,-405.6919 919.8703,-395.5376 911.1744,-401.5902 916.8468,-405.6919"/>
</g>
<!-- gpu/shaders/computeShader.glsl.js -->
<g id="node12" class="node">
<title>gpu/shaders/computeShader.glsl.js</title>
<path fill="none" stroke="#c6c5fe" d="M1272.3333,-354.4721C1272.3333,-354.4721 1043.6667,-354.4721 1043.6667,-354.4721 1039.8333,-354.4721 1036,-350.6388 1036,-346.8055 1036,-346.8055 1036,-339.1388 1036,-339.1388 1036,-335.3055 1039.8333,-331.4721 1043.6667,-331.4721 1043.6667,-331.4721 1272.3333,-331.4721 1272.3333,-331.4721 1276.1667,-331.4721 1280,-335.3055 1280,-339.1388 1280,-339.1388 1280,-346.8055 1280,-346.8055 1280,-350.6388 1276.1667,-354.4721 1272.3333,-354.4721"/>
<text text-anchor="middle" x="1158" y="-339.2721" font-family="Arial" font-size="14.00" fill="#c6c5fe">gpu/shaders/computeShader.glsl.js</text>
</g>
<!-- core.js&#45;&gt;gpu/shaders/computeShader.glsl.js -->
<g id="edge13" class="edge">
<title>core.js&#45;&gt;gpu/shaders/computeShader.glsl.js</title>
<path fill="none" stroke="#757575" d="M758.053,-566.3517C777.9753,-555.605 805.1143,-537.7127 820,-513.9721 865.8893,-440.7854 789.5009,-378.1083 856,-322.9721 933.2087,-258.9564 1063.1719,-301.5196 1124.2999,-327.3186"/>
<polygon fill="#757575" stroke="#757575" points="1123.2804,-330.691 1133.848,-331.4502 1126.0603,-324.2666 1123.2804,-330.691"/>
</g>
<!-- gpu/simulation.js -->
<g id="node13" class="node">
<title>gpu/simulation.js</title>
<path fill="none" stroke="#c6c5fe" d="M982.8333,-354.4721C982.8333,-354.4721 873.1667,-354.4721 873.1667,-354.4721 869.3333,-354.4721 865.5,-350.6388 865.5,-346.8055 865.5,-346.8055 865.5,-339.1388 865.5,-339.1388 865.5,-335.3055 869.3333,-331.4721 873.1667,-331.4721 873.1667,-331.4721 982.8333,-331.4721 982.8333,-331.4721 986.6667,-331.4721 990.5,-335.3055 990.5,-339.1388 990.5,-339.1388 990.5,-346.8055 990.5,-346.8055 990.5,-350.6388 986.6667,-354.4721 982.8333,-354.4721"/>
<text text-anchor="middle" x="928" y="-339.2721" font-family="Arial" font-size="14.00" fill="#c6c5fe">gpu/simulation.js</text>
</g>
<!-- core.js&#45;&gt;gpu/simulation.js -->
<g id="edge14" class="edge">
<title>core.js&#45;&gt;gpu/simulation.js</title>
<path fill="none" stroke="#757575" d="M757.3609,-566.3758C777.134,-555.5347 804.4311,-537.4948 820,-513.9721 857.84,-456.8006 808.7044,-413.6066 856,-363.9721 857.2351,-362.676 858.5452,-361.4585 859.9187,-360.315"/>
<polygon fill="#757575" stroke="#757575" points="862.102,-363.0627 868.3977,-354.5412 858.1621,-357.2767 862.102,-363.0627"/>
</g>
<!-- scenarios.js -->
<g id="node14" class="node">
<title>scenarios.js</title>
<path fill="none" stroke="#cfffac" d="M967.3333,-707.4721C967.3333,-707.4721 888.6667,-707.4721 888.6667,-707.4721 884.8333,-707.4721 881,-703.6388 881,-699.8055 881,-699.8055 881,-692.1388 881,-692.1388 881,-688.3055 884.8333,-684.4721 888.6667,-684.4721 888.6667,-684.4721 967.3333,-684.4721 967.3333,-684.4721 971.1667,-684.4721 975,-688.3055 975,-692.1388 975,-692.1388 975,-699.8055 975,-699.8055 975,-703.6388 971.1667,-707.4721 967.3333,-707.4721"/>
<text text-anchor="middle" x="928" y="-692.2721" font-family="Arial" font-size="14.00" fill="#cfffac">scenarios.js</text>
</g>
<!-- core.js&#45;&gt;scenarios.js -->
<g id="edge18" class="edge">
<title>core.js&#45;&gt;scenarios.js</title>
<path fill="none" stroke="#757575" d="M746.2056,-589.5718C767.5306,-608.5461 812.4753,-646.4569 856,-669.9721 863.4796,-674.0132 871.7169,-677.6581 879.8661,-680.8526"/>
<polygon fill="#757575" stroke="#757575" points="878.7489,-684.1714 889.3415,-684.3924 881.1987,-677.6141 878.7489,-684.1714"/>
</g>
<!-- components/selection.js -->
<g id="node9" class="node">
<title>components/selection.js</title>
<path fill="none" stroke="#c6c5fe" d="M812.3333,-241.4721C812.3333,-241.4721 654.6667,-241.4721 654.6667,-241.4721 650.8333,-241.4721 647,-237.6388 647,-233.8055 647,-233.8055 647,-226.1388 647,-226.1388 647,-222.3055 650.8333,-218.4721 654.6667,-218.4721 654.6667,-218.4721 812.3333,-218.4721 812.3333,-218.4721 816.1667,-218.4721 820,-222.3055 820,-226.1388 820,-226.1388 820,-233.8055 820,-233.8055 820,-237.6388 816.1667,-241.4721 812.3333,-241.4721"/>
<text text-anchor="middle" x="733.5" y="-226.2721" font-family="Arial" font-size="14.00" fill="#c6c5fe">components/selection.js</text>
</g>
<!-- components/selection.js&#45;&gt;components/csv.js -->
<g id="edge6" class="edge">
<title>components/selection.js&#45;&gt;components/csv.js</title>
<path fill="none" stroke="#757575" d="M757.6714,-218.469C782.2135,-206.944 821.4201,-188.9554 856,-174.9721 865.2358,-171.2374 875.2362,-167.4606 884.7615,-163.9866"/>
<polygon fill="#757575" stroke="#757575" points="886.2427,-167.1732 894.464,-160.4903 883.8696,-160.5877 886.2427,-167.1732"/>
</g>
<!-- components/selection.js&#45;&gt;particle.js -->
<g id="edge8" class="edge">
<title>components/selection.js&#45;&gt;particle.js</title>
<path fill="none" stroke="#757575" d="M737.1054,-218.0955C748.195,-183.9494 785.3964,-85.5574 856,-47.9721 1022.343,40.5791 1094.391,-15.405 1280,-47.9721 1334.0058,-57.4481 1359.7731,-48.8135 1396,-89.9721 1437.5332,-137.1594 1461.4036,-334.9591 1468.353,-401.2287"/>
<polygon fill="#757575" stroke="#757575" points="1464.8893,-401.7632 1469.3893,-411.3548 1471.8529,-401.0504 1464.8893,-401.7632"/>
</g>
<!-- components/selection.js&#45;&gt;physics.js -->
<g id="edge9" class="edge">
<title>components/selection.js&#45;&gt;physics.js</title>
<path fill="none" stroke="#757575" d="M754.6775,-218.4587C773.0115,-207.9425 799.6999,-191.2806 820,-172.9721 838.7632,-156.0499 833.167,-139.7922 856,-128.9721 909.7598,-103.4965 1206.1358,-102.4666 1280,-137.9721 1310.0141,-152.3995 1332.7483,-184.8337 1345.2216,-206.3041"/>
<polygon fill="#757575" stroke="#757575" points="1342.3013,-208.2543 1350.2198,-215.2932 1348.4191,-204.8525 1342.3013,-208.2543"/>
</g>
<!-- components/selection.js&#45;&gt;helpers.js -->
<g id="edge7" class="edge">
<title>components/selection.js&#45;&gt;helpers.js</title>
<path fill="none" stroke="#757575" d="M740.2873,-241.6653C761.0329,-277.0508 824.1231,-381.9673 856,-404.9721 910.1613,-444.0591 940.8839,-416.8831 1000,-447.9721 1018.1843,-457.5353 1018.7124,-465.8698 1036,-476.9721 1063.441,-494.5952 1096.6649,-510.9108 1121.5081,-522.2255"/>
<polygon fill="#757575" stroke="#757575" points="1120.3694,-525.551 1130.9253,-526.4584 1123.2393,-519.1663 1120.3694,-525.551"/>
</g>
<!-- gpu/field.js&#45;&gt;particle.js -->
<g id="edge20" class="edge">
<title>gpu/field.js&#45;&gt;particle.js</title>
<path fill="none" stroke="#757575" d="M971.0128,-616.5296C1059.3576,-615.549 1264.0173,-602.112 1396,-504.9721 1420.0955,-487.2377 1442.4141,-460.7813 1456.2194,-442.7492"/>
<polygon fill="#757575" stroke="#757575" points="1459.0923,-444.7518 1462.2832,-434.6489 1453.4885,-440.5569 1459.0923,-444.7518"/>
</g>
<!-- gpu/field.js&#45;&gt;helpers.js -->
<g id="edge19" class="edge">
<title>gpu/field.js&#45;&gt;helpers.js</title>
<path fill="none" stroke="#757575" d="M961.9373,-604.463C1002.365,-590.7527 1069.9871,-567.82 1114.2928,-552.7946"/>
<polygon fill="#757575" stroke="#757575" points="1115.5773,-556.0548 1123.9235,-549.5285 1113.3291,-549.4257 1115.5773,-556.0548"/>
</g>
<!-- gpu/graphics.js&#45;&gt;particle.js -->
<g id="edge24" class="edge">
<title>gpu/graphics.js&#45;&gt;particle.js</title>
<path fill="none" stroke="#757575" d="M985.5681,-393.9527C990.6256,-395.8916 995.5185,-398.2071 1000,-400.9721 1021.212,-414.0598 1013.4165,-433.426 1036,-443.9721 1167.5719,-505.4141 1346.6122,-462.7139 1427.5934,-437.649"/>
<polygon fill="#757575" stroke="#757575" points="1428.9539,-440.8898 1437.4346,-434.5392 1426.8447,-434.2151 1428.9539,-440.8898"/>
</g>
<!-- gpu/graphics.js&#45;&gt;helpers.js -->
<g id="edge23" class="edge">
<title>gpu/graphics.js&#45;&gt;helpers.js</title>
<path fill="none" stroke="#757575" d="M975.6417,-395.576C984.3837,-399.1944 992.9579,-403.893 1000,-409.9721 1025.5885,-432.0617 1011.7481,-453.423 1036,-476.9721 1057.2974,-497.6523 1086.9913,-512.7062 1111.7515,-522.6852"/>
<polygon fill="#757575" stroke="#757575" points="1110.7307,-526.0431 1121.3198,-526.3921 1113.2595,-519.5158 1110.7307,-526.0431"/>
</g>
<!-- gpu/graphics.js&#45;&gt;gpu/shaders/computeShader.glsl.js -->
<g id="edge21" class="edge">
<title>gpu/graphics.js&#45;&gt;gpu/shaders/computeShader.glsl.js</title>
<path fill="none" stroke="#757575" d="M985.7418,-373.679C1015.2797,-368.4136 1051.5837,-361.942 1083.2349,-356.2998"/>
<polygon fill="#757575" stroke="#757575" points="1084.1027,-359.7004 1093.3333,-354.4997 1082.8742,-352.809 1084.1027,-359.7004"/>
</g>
<!-- gpu/shaders/particleShader.glsl.js -->
<g id="node15" class="node">
<title>gpu/shaders/particleShader.glsl.js</title>
<path fill="none" stroke="#cfffac" d="M1267.3333,-434.4721C1267.3333,-434.4721 1048.6667,-434.4721 1048.6667,-434.4721 1044.8333,-434.4721 1041,-430.6388 1041,-426.8055 1041,-426.8055 1041,-419.1388 1041,-419.1388 1041,-415.3055 1044.8333,-411.4721 1048.6667,-411.4721 1048.6667,-411.4721 1267.3333,-411.4721 1267.3333,-411.4721 1271.1667,-411.4721 1275,-415.3055 1275,-419.1388 1275,-419.1388 1275,-426.8055 1275,-426.8055 1275,-430.6388 1271.1667,-434.4721 1267.3333,-434.4721"/>
<text text-anchor="middle" x="1158" y="-419.2721" font-family="Arial" font-size="14.00" fill="#cfffac">gpu/shaders/particleShader.glsl.js</text>
</g>
<!-- gpu/graphics.js&#45;&gt;gpu/shaders/particleShader.glsl.js -->
<g id="edge22" class="edge">
<title>gpu/graphics.js&#45;&gt;gpu/shaders/particleShader.glsl.js</title>
<path fill="none" stroke="#757575" d="M985.7418,-393.7632C1014.3191,-398.6089 1049.2296,-404.5285 1080.1326,-409.7685"/>
<polygon fill="#757575" stroke="#757575" points="1079.5677,-413.2226 1090.0121,-411.4438 1080.738,-406.3212 1079.5677,-413.2226"/>
</g>
<!-- gpu/shaders/computeShader.glsl.js&#45;&gt;physics.js -->
<g id="edge25" class="edge">
<title>gpu/shaders/computeShader.glsl.js&#45;&gt;physics.js</title>
<path fill="none" stroke="#757575" d="M1246.6294,-331.3776C1258.3239,-327.7846 1269.7824,-323.0935 1280,-316.9721 1308.4491,-299.9284 1331.3518,-268.3638 1344.3194,-247.514"/>
<polygon fill="#757575" stroke="#757575" points="1347.4169,-249.1542 1349.5625,-238.7789 1341.4151,-245.5516 1347.4169,-249.1542"/>
</g>
<!-- gpu/simulation.js&#45;&gt;particle.js -->
<g id="edge27" class="edge">
<title>gpu/simulation.js&#45;&gt;particle.js</title>
<path fill="none" stroke="#757575" d="M983.9446,-354.4807C1000.6543,-357.7476 1019.0382,-361.1738 1036,-363.9721 1175.2744,-386.9494 1340.7446,-407.5944 1421.3947,-417.2312"/>
<polygon fill="#757575" stroke="#757575" points="1421.3911,-420.7554 1431.7347,-418.4618 1422.2185,-413.8044 1421.3911,-420.7554"/>
</g>
<!-- gpu/simulation.js&#45;&gt;physics.js -->
<g id="edge28" class="edge">
<title>gpu/simulation.js&#45;&gt;physics.js</title>
<path fill="none" stroke="#757575" d="M989.9566,-331.447C1005.0213,-328.659 1021.0873,-325.6975 1036,-322.9721 1144.3982,-303.1618 1178.0488,-320.788 1280,-278.9721 1300.1546,-270.7056 1320.3849,-256.5075 1334.9007,-245.0339"/>
<polygon fill="#757575" stroke="#757575" points="1337.1913,-247.6824 1342.7432,-238.6587 1332.7758,-242.2506 1337.1913,-247.6824"/>
</g>
<!-- gpu/simulation.js&#45;&gt;helpers.js -->
<g id="edge26" class="edge">
<title>gpu/simulation.js&#45;&gt;helpers.js</title>
<path fill="none" stroke="#757575" d="M985.4567,-354.5888C990.7134,-357.1245 995.6772,-360.2123 1000,-363.9721 1029.4187,-389.56 1011.8313,-413.3769 1036,-443.9721 1061.9105,-476.7724 1101.6701,-504.566 1128.7027,-521.2364"/>
<polygon fill="#757575" stroke="#757575" points="1126.9744,-524.2813 1137.344,-526.4546 1130.593,-518.2891 1126.9744,-524.2813"/>
</g>
<!-- gui/advanced.js -->
<g id="node16" class="node">
<title>gui/advanced.js</title>
<path fill="none" stroke="#c6c5fe" d="M591.3333,-743.4721C591.3333,-743.4721 487.6667,-743.4721 487.6667,-743.4721 483.8333,-743.4721 480,-739.6388 480,-735.8055 480,-735.8055 480,-728.1388 480,-728.1388 480,-724.3055 483.8333,-720.4721 487.6667,-720.4721 487.6667,-720.4721 591.3333,-720.4721 591.3333,-720.4721 595.1667,-720.4721 599,-724.3055 599,-728.1388 599,-728.1388 599,-735.8055 599,-735.8055 599,-739.6388 595.1667,-743.4721 591.3333,-743.4721"/>
<text text-anchor="middle" x="539.5" y="-728.2721" font-family="Arial" font-size="14.00" fill="#c6c5fe">gui/advanced.js</text>
</g>
<!-- gui/advanced.js&#45;&gt;helpers.js -->
<g id="edge30" class="edge">
<title>gui/advanced.js&#45;&gt;helpers.js</title>
<path fill="none" stroke="#757575" d="M599.2715,-735.8094C707.3992,-741.8081 930.7076,-749.6019 1000,-716.9721 1072.5997,-682.785 1125.7525,-597.9382 1147.3528,-558.6029"/>
<polygon fill="#757575" stroke="#757575" points="1150.5168,-560.1086 1152.1572,-549.6415 1144.3475,-556.801 1150.5168,-560.1086"/>
</g>
<!-- gui/advanced.js&#45;&gt;core.js -->
<g id="edge29" class="edge">
<title>gui/advanced.js&#45;&gt;core.js</title>
<path fill="none" stroke="#757575" d="M554.0815,-720.3971C587.6466,-693.7527 670.5729,-627.9246 710.8378,-595.9617"/>
<polygon fill="#757575" stroke="#757575" points="713.0931,-598.6402 718.7493,-589.6815 708.7409,-593.1576 713.0931,-598.6402"/>
</g>
<!-- gui/controls.js -->
<g id="node17" class="node">
<title>gui/controls.js</title>
<path fill="none" stroke="#c6c5fe" d="M388.8333,-668.4721C388.8333,-668.4721 299.1667,-668.4721 299.1667,-668.4721 295.3333,-668.4721 291.5,-664.6388 291.5,-660.8055 291.5,-660.8055 291.5,-653.1388 291.5,-653.1388 291.5,-649.3055 295.3333,-645.4721 299.1667,-645.4721 299.1667,-645.4721 388.8333,-645.4721 388.8333,-645.4721 392.6667,-645.4721 396.5,-649.3055 396.5,-653.1388 396.5,-653.1388 396.5,-660.8055 396.5,-660.8055 396.5,-664.6388 392.6667,-668.4721 388.8333,-668.4721"/>
<text text-anchor="middle" x="344" y="-653.2721" font-family="Arial" font-size="14.00" fill="#c6c5fe">gui/controls.js</text>
</g>
<!-- gui/controls.js&#45;&gt;components/csv.js -->
<g id="edge31" class="edge">
<title>gui/controls.js&#45;&gt;components/csv.js</title>
<path fill="none" stroke="#757575" d="M372.2944,-645.29C392.1757,-635.5831 417.6858,-619.8196 432,-597.9721 481.0179,-523.1574 412.1377,-469.8249 468,-399.9721 574.102,-267.2973 697.3153,-368.4826 820,-250.9721 846.9916,-225.1189 828.3359,-200.1045 856,-174.9721 860.1807,-171.1741 864.9576,-167.9206 870.0176,-165.1354"/>
<polygon fill="#757575" stroke="#757575" points="871.8877,-168.1187 879.3638,-160.6114 868.8379,-161.818 871.8877,-168.1187"/>
</g>
<!-- gui/controls.js&#45;&gt;helpers.js -->
<g id="edge34" class="edge">
<title>gui/controls.js&#45;&gt;helpers.js</title>
<path fill="none" stroke="#757575" d="M364.9293,-668.5148C383.4275,-679.1735 410.7004,-696.029 432,-713.9721 450.0408,-729.17 446.3913,-743.5112 468,-752.9721 576.3201,-800.3981 895.4675,-797.248 1000,-741.9721 1078.0903,-700.6787 1129.624,-601.961 1149.1799,-558.785"/>
<polygon fill="#757575" stroke="#757575" points="1152.4287,-560.0919 1153.2638,-549.53 1146.0245,-557.2659 1152.4287,-560.0919"/>
</g>
<!-- gui/controls.js&#45;&gt;core.js -->
<g id="edge32" class="edge">
<title>gui/controls.js&#45;&gt;core.js</title>
<path fill="none" stroke="#757575" d="M396.7459,-656.2857C451.1994,-654.5028 538.2289,-648.6397 611,-629.9721 643.4014,-621.6604 678.3349,-606.118 702.5729,-594.182"/>
<polygon fill="#757575" stroke="#757575" points="704.2561,-597.2535 711.6289,-589.6447 701.1205,-590.995 704.2561,-597.2535"/>
</g>
<!-- gui/controls.js&#45;&gt;scenarios.js -->
<g id="edge35" class="edge">
<title>gui/controls.js&#45;&gt;scenarios.js</title>
<path fill="none" stroke="#757575" d="M396.5978,-660.4847C506.0313,-667.7927 757.441,-684.5821 870.7628,-692.1498"/>
<polygon fill="#757575" stroke="#757575" points="870.7527,-695.6568 880.9637,-692.831 871.2192,-688.6724 870.7527,-695.6568"/>
</g>
<!-- gui/parameters.js -->
<g id="node18" class="node">
<title>gui/parameters.js</title>
<path fill="none" stroke="#c6c5fe" d="M595.8333,-490.4721C595.8333,-490.4721 483.1667,-490.4721 483.1667,-490.4721 479.3333,-490.4721 475.5,-486.6388 475.5,-482.8055 475.5,-482.8055 475.5,-475.1388 475.5,-475.1388 475.5,-471.3055 479.3333,-467.4721 483.1667,-467.4721 483.1667,-467.4721 595.8333,-467.4721 595.8333,-467.4721 599.6667,-467.4721 603.5,-471.3055 603.5,-475.1388 603.5,-475.1388 603.5,-482.8055 603.5,-482.8055 603.5,-486.6388 599.6667,-490.4721 595.8333,-490.4721"/>
<text text-anchor="middle" x="539.5" y="-475.2721" font-family="Arial" font-size="14.00" fill="#c6c5fe">gui/parameters.js</text>
</g>
<!-- gui/controls.js&#45;&gt;gui/parameters.js -->
<g id="edge33" class="edge">
<title>gui/controls.js&#45;&gt;gui/parameters.js</title>
<path fill="none" stroke="#757575" d="M369.0023,-645.4059C388.4652,-635.2969 414.9504,-618.9581 432,-597.9721 458.9054,-564.855 438.0237,-539.3376 468,-508.9721 473.5857,-503.314 480.3998,-498.6698 487.5782,-494.8729"/>
<polygon fill="#757575" stroke="#757575" points="489.2618,-497.9482 496.8007,-490.504 486.265,-491.6222 489.2618,-497.9482"/>
</g>
<!-- gui/parameters.js&#45;&gt;physics.js -->
<g id="edge46" class="edge">
<title>gui/parameters.js&#45;&gt;physics.js</title>
<path fill="none" stroke="#757575" d="M603.7159,-473.752C667.9759,-465.0032 764.9701,-441.5953 820,-378.9721 869.8326,-322.2635 797.2333,-260.3603 856,-212.9721 929.3464,-153.8272 1186.1684,-204.4019 1280,-212.9721 1288.4507,-213.744 1297.3649,-214.9891 1305.9977,-216.4264"/>
<polygon fill="#757575" stroke="#757575" points="1305.5017,-219.8929 1315.958,-218.1852 1306.719,-212.9995 1305.5017,-219.8929"/>
</g>
<!-- gui/parameters.js&#45;&gt;core.js -->
<g id="edge45" class="edge">
<title>gui/parameters.js&#45;&gt;core.js</title>
<path fill="none" stroke="#757575" d="M569.0637,-490.4792C582.0794,-495.7741 597.4577,-502.3448 611,-508.9721 644.2437,-525.2412 681.0823,-546.4445 705.5948,-561.0294"/>
<polygon fill="#757575" stroke="#757575" points="703.9746,-564.1387 714.3527,-566.2711 707.5695,-558.1323 703.9746,-564.1387"/>
</g>
<!-- gui/dat.gui.js -->
<g id="node19" class="node">
<title>gui/dat.gui.js</title>
<path fill="none" stroke="#cfffac" d="M385.3333,-547.4721C385.3333,-547.4721 302.6667,-547.4721 302.6667,-547.4721 298.8333,-547.4721 295,-543.6388 295,-539.8055 295,-539.8055 295,-532.1388 295,-532.1388 295,-528.3055 298.8333,-524.4721 302.6667,-524.4721 302.6667,-524.4721 385.3333,-524.4721 385.3333,-524.4721 389.1667,-524.4721 393,-528.3055 393,-532.1388 393,-532.1388 393,-539.8055 393,-539.8055 393,-543.6388 389.1667,-547.4721 385.3333,-547.4721"/>
<text text-anchor="middle" x="344" y="-532.2721" font-family="Arial" font-size="14.00" fill="#cfffac">gui/dat.gui.js</text>
</g>
<!-- gui/field.js -->
<g id="node20" class="node">
<title>gui/field.js</title>
<path fill="none" stroke="#c6c5fe" d="M376.3333,-588.4721C376.3333,-588.4721 311.6667,-588.4721 311.6667,-588.4721 307.8333,-588.4721 304,-584.6388 304,-580.8055 304,-580.8055 304,-573.1388 304,-573.1388 304,-569.3055 307.8333,-565.4721 311.6667,-565.4721 311.6667,-565.4721 376.3333,-565.4721 376.3333,-565.4721 380.1667,-565.4721 384,-569.3055 384,-573.1388 384,-573.1388 384,-580.8055 384,-580.8055 384,-584.6388 380.1667,-588.4721 376.3333,-588.4721"/>
<text text-anchor="middle" x="344" y="-573.2721" font-family="Arial" font-size="14.00" fill="#c6c5fe">gui/field.js</text>
</g>
<!-- gui/field.js&#45;&gt;core.js -->
<g id="edge36" class="edge">
<title>gui/field.js&#45;&gt;core.js</title>
<path fill="none" stroke="#757575" d="M384.2163,-577.0754C459.0603,-577.2676 618.8885,-577.6779 693.5388,-577.8696"/>
<polygon fill="#757575" stroke="#757575" points="693.9055,-581.3704 703.9145,-577.8962 693.9236,-574.3704 693.9055,-581.3704"/>
</g>
<!-- gui/generator.js -->
<g id="node21" class="node">
<title>gui/generator.js</title>
<path fill="none" stroke="#c6c5fe" d="M589.8333,-281.4721C589.8333,-281.4721 489.1667,-281.4721 489.1667,-281.4721 485.3333,-281.4721 481.5,-277.6388 481.5,-273.8055 481.5,-273.8055 481.5,-266.1388 481.5,-266.1388 481.5,-262.3055 485.3333,-258.4721 489.1667,-258.4721 489.1667,-258.4721 589.8333,-258.4721 589.8333,-258.4721 593.6667,-258.4721 597.5,-262.3055 597.5,-266.1388 597.5,-266.1388 597.5,-273.8055 597.5,-273.8055 597.5,-277.6388 593.6667,-281.4721 589.8333,-281.4721"/>
<text text-anchor="middle" x="539.5" y="-266.2721" font-family="Arial" font-size="14.00" fill="#c6c5fe">gui/generator.js</text>
</g>
<!-- gui/generator.js&#45;&gt;physics.js -->
<g id="edge40" class="edge">
<title>gui/generator.js&#45;&gt;physics.js</title>
<path fill="none" stroke="#757575" d="M544.0495,-258.3765C556.1466,-229.0651 591.9878,-151.4655 647,-110.9721 725.1328,-53.4603 760.0204,-62.1235 856,-47.9721 1044.1651,-20.2288 1123.7895,2.5363 1280,-105.9721 1315.7706,-130.8194 1338.2234,-178.4976 1348.8009,-206.0039"/>
<polygon fill="#757575" stroke="#757575" points="1345.5438,-207.288 1352.2764,-215.4686 1352.1148,-204.875 1345.5438,-207.288"/>
</g>
<!-- gui/generator.js&#45;&gt;helpers.js -->
<g id="edge39" class="edge">
<title>gui/generator.js&#45;&gt;helpers.js</title>
<path fill="none" stroke="#757575" d="M557.3069,-281.5464C604.3055,-311.6407 736.3102,-393.2451 856,-439.9721 917.5543,-464.003 937.0703,-456.8158 1000,-476.9721 1042.3801,-490.5465 1089.8724,-509.3905 1121.6204,-522.5292"/>
<polygon fill="#757575" stroke="#757575" points="1120.3675,-525.7988 1130.9447,-526.4114 1123.0582,-519.3365 1120.3675,-525.7988"/>
</g>
<!-- gui/generator.js&#45;&gt;core.js -->
<g id="edge38" class="edge">
<title>gui/generator.js&#45;&gt;core.js</title>
<path fill="none" stroke="#757575" d="M546.8681,-281.67C576.0377,-327.9804 683.6428,-498.8174 720.7903,-557.7939"/>
<polygon fill="#757575" stroke="#757575" points="717.8334,-559.6666 726.1245,-566.2626 723.7564,-555.9358 717.8334,-559.6666"/>
</g>
<!-- gui/generator.js&#45;&gt;components/selection.js -->
<g id="edge37" class="edge">
<title>gui/generator.js&#45;&gt;components/selection.js</title>
<path fill="none" stroke="#757575" d="M595.3526,-258.4562C617.9777,-253.7912 644.2691,-248.3703 667.806,-243.5173"/>
<polygon fill="#757575" stroke="#757575" points="668.6187,-246.9234 677.7059,-241.4761 667.2051,-240.0677 668.6187,-246.9234"/>
</g>
<!-- scenariosHelpers.js -->
<g id="node22" class="node">
<title>scenariosHelpers.js</title>
<path fill="none" stroke="#c6c5fe" d="M992.3333,-80.4721C992.3333,-80.4721 863.6667,-80.4721 863.6667,-80.4721 859.8333,-80.4721 856,-76.6388 856,-72.8055 856,-72.8055 856,-65.1388 856,-65.1388 856,-61.3055 859.8333,-57.4721 863.6667,-57.4721 863.6667,-57.4721 992.3333,-57.4721 992.3333,-57.4721 996.1667,-57.4721 1000,-61.3055 1000,-65.1388 1000,-65.1388 1000,-72.8055 1000,-72.8055 1000,-76.6388 996.1667,-80.4721 992.3333,-80.4721"/>
<text text-anchor="middle" x="928" y="-65.2721" font-family="Arial" font-size="14.00" fill="#c6c5fe">scenariosHelpers.js</text>
</g>
<!-- gui/generator.js&#45;&gt;scenariosHelpers.js -->
<g id="edge41" class="edge">
<title>gui/generator.js&#45;&gt;scenariosHelpers.js</title>
<path fill="none" stroke="#757575" d="M557.8651,-258.437C605.6709,-228.7187 738.4377,-148.1481 856,-94.9721 864.5368,-91.1108 873.8322,-87.4043 882.8209,-84.0603"/>
<polygon fill="#757575" stroke="#757575" points="884.1969,-87.2844 892.4038,-80.5838 881.8096,-80.704 884.1969,-87.2844"/>
</g>
<!-- scenariosHelpers.js&#45;&gt;particle.js -->
<g id="edge58" class="edge">
<title>scenariosHelpers.js&#45;&gt;particle.js</title>
<path fill="none" stroke="#757575" d="M1000.2863,-57.6044C1102.7625,-45.9412 1289.6149,-41.8049 1396,-143.9721 1433.6226,-180.1031 1459.306,-341.8372 1467.6017,-401.1096"/>
<polygon fill="#757575" stroke="#757575" points="1464.1634,-401.7992 1468.9875,-411.232 1471.0987,-400.8496 1464.1634,-401.7992"/>
</g>
<!-- scenariosHelpers.js&#45;&gt;helpers.js -->
<g id="edge57" class="edge">
<title>scenariosHelpers.js&#45;&gt;helpers.js</title>
<path fill="none" stroke="#757575" d="M949.1851,-80.474C965.9833,-90.8117 988.4848,-107.637 1000,-128.9721 1066.928,-252.9747 966.7127,-321.2722 1036,-443.9721 1056.0494,-479.4774 1095.5034,-506.0379 1124.1294,-521.7114"/>
<polygon fill="#757575" stroke="#757575" points="1122.53,-524.8248 1133.0048,-526.4151 1125.808,-518.6397 1122.53,-524.8248"/>
</g>
<!-- gui/info.js -->
<g id="node23" class="node">
<title>gui/info.js</title>
<path fill="none" stroke="#c6c5fe" d="M570.3333,-540.4721C570.3333,-540.4721 508.6667,-540.4721 508.6667,-540.4721 504.8333,-540.4721 501,-536.6388 501,-532.8055 501,-532.8055 501,-525.1388 501,-525.1388 501,-521.3055 504.8333,-517.4721 508.6667,-517.4721 508.6667,-517.4721 570.3333,-517.4721 570.3333,-517.4721 574.1667,-517.4721 578,-521.3055 578,-525.1388 578,-525.1388 578,-532.8055 578,-532.8055 578,-536.6388 574.1667,-540.4721 570.3333,-540.4721"/>
<text text-anchor="middle" x="539.5" y="-525.2721" font-family="Arial" font-size="14.00" fill="#c6c5fe">gui/info.js</text>
</g>
<!-- gui/info.js&#45;&gt;physics.js -->
<g id="edge44" class="edge">
<title>gui/info.js&#45;&gt;physics.js</title>
<path fill="none" stroke="#757575" d="M578.3626,-527.9572C639.5565,-524.1314 757.7936,-507.3188 820,-435.9721 877.6305,-369.8737 789.4192,-299.0446 856,-241.9721 889.5559,-213.2084 1185.9038,-220.7048 1305.8902,-224.9822"/>
<polygon fill="#757575" stroke="#757575" points="1305.8005,-228.4812 1315.9211,-225.347 1306.055,-221.4858 1305.8005,-228.4812"/>
</g>
<!-- gui/info.js&#45;&gt;helpers.js -->
<g id="edge43" class="edge">
<title>gui/info.js&#45;&gt;helpers.js</title>
<path fill="none" stroke="#757575" d="M578.1899,-529.5351C685.733,-531.1 988.1962,-535.5013 1108.116,-537.2463"/>
<polygon fill="#757575" stroke="#757575" points="1108.077,-540.746 1118.1269,-537.3919 1108.1789,-533.7467 1108.077,-540.746"/>
</g>
<!-- gui/info.js&#45;&gt;core.js -->
<g id="edge42" class="edge">
<title>gui/info.js&#45;&gt;core.js</title>
<path fill="none" stroke="#757575" d="M578.2925,-538.7703C611.8623,-547.2492 660.1918,-559.4561 693.9742,-567.9888"/>
<polygon fill="#757575" stroke="#757575" points="693.4063,-571.4552 703.9589,-570.5107 695.1205,-564.6684 693.4063,-571.4552"/>
</g>
<!-- gui/particle.js -->
<g id="node24" class="node">
<title>gui/particle.js</title>
<path fill="none" stroke="#c6c5fe" d="M582.3333,-864.4721C582.3333,-864.4721 496.6667,-864.4721 496.6667,-864.4721 492.8333,-864.4721 489,-860.6388 489,-856.8055 489,-856.8055 489,-849.1388 489,-849.1388 489,-845.3055 492.8333,-841.4721 496.6667,-841.4721 496.6667,-841.4721 582.3333,-841.4721 582.3333,-841.4721 586.1667,-841.4721 590,-845.3055 590,-849.1388 590,-849.1388 590,-856.8055 590,-856.8055 590,-860.6388 586.1667,-864.4721 582.3333,-864.4721"/>
<text text-anchor="middle" x="539.5" y="-849.2721" font-family="Arial" font-size="14.00" fill="#c6c5fe">gui/particle.js</text>
</g>
<!-- gui/particle.js&#45;&gt;particle.js -->
<g id="edge49" class="edge">
<title>gui/particle.js&#45;&gt;particle.js</title>
<path fill="none" stroke="#757575" d="M590.2779,-860.4805C664.3464,-870.7647 806.4407,-887.9721 928,-887.9721 928,-887.9721 928,-887.9721 1158,-887.9721 1374.3746,-887.9721 1450.675,-536.8443 1466.9551,-444.8297"/>
<polygon fill="#757575" stroke="#757575" points="1470.4115,-445.381 1468.6483,-434.9339 1463.5118,-444.2003 1470.4115,-445.381"/>
</g>
<!-- gui/particle.js&#45;&gt;helpers.js -->
<g id="edge48" class="edge">
<title>gui/particle.js&#45;&gt;helpers.js</title>
<path fill="none" stroke="#757575" d="M590.2135,-854.7682C695.4663,-857.568 933.3753,-858.8004 1000,-815.9721 1095.6772,-754.4682 1139.4112,-613.344 1153.0615,-559.4398"/>
<polygon fill="#757575" stroke="#757575" points="1156.4933,-560.1398 1155.4615,-549.5953 1149.6924,-558.4817 1156.4933,-560.1398"/>
</g>
<!-- gui/particle.js&#45;&gt;core.js -->
<g id="edge47" class="edge">
<title>gui/particle.js&#45;&gt;core.js</title>
<path fill="none" stroke="#757575" d="M590.2691,-844.6321C597.7623,-841.8047 604.9754,-838.0245 611,-832.9721 686.5707,-769.5966 718.9593,-648.7409 729.4117,-599.5789"/>
<polygon fill="#757575" stroke="#757575" points="732.8555,-600.2072 731.416,-589.7106 725.9955,-598.8138 732.8555,-600.2072"/>
</g>
<!-- gui/selection.js -->
<g id="node25" class="node">
<title>gui/selection.js</title>
<path fill="none" stroke="#c6c5fe" d="M587.8333,-431.4721C587.8333,-431.4721 491.1667,-431.4721 491.1667,-431.4721 487.3333,-431.4721 483.5,-427.6388 483.5,-423.8055 483.5,-423.8055 483.5,-416.1388 483.5,-416.1388 483.5,-412.3055 487.3333,-408.4721 491.1667,-408.4721 491.1667,-408.4721 587.8333,-408.4721 587.8333,-408.4721 591.6667,-408.4721 595.5,-412.3055 595.5,-416.1388 595.5,-416.1388 595.5,-423.8055 595.5,-423.8055 595.5,-427.6388 591.6667,-431.4721 587.8333,-431.4721"/>
<text text-anchor="middle" x="539.5" y="-416.2721" font-family="Arial" font-size="14.00" fill="#c6c5fe">gui/selection.js</text>
</g>
<!-- gui/selection.js&#45;&gt;components/csv.js -->
<g id="edge50" class="edge">
<title>gui/selection.js&#45;&gt;components/csv.js</title>
<path fill="none" stroke="#757575" d="M595.5,-416.3958C659.1544,-409.2549 761.7537,-387.8835 820,-323.9721 865.8902,-273.6187 810.5341,-225.7091 856,-174.9721 859.265,-171.3286 863.0798,-168.1953 867.2188,-165.5009"/>
<polygon fill="#757575" stroke="#757575" points="869.059,-168.4824 876.0977,-160.5636 865.657,-162.3647 869.059,-168.4824"/>
</g>
<!-- gui/selection.js&#45;&gt;helpers.js -->
<g id="edge53" class="edge">
<title>gui/selection.js&#45;&gt;helpers.js</title>
<path fill="none" stroke="#757575" d="M595.7527,-430.7043C715.7139,-453.591 994.966,-506.8678 1108.5861,-528.5448"/>
<polygon fill="#757575" stroke="#757575" points="1107.9333,-531.9833 1118.4121,-530.4194 1109.2452,-525.1073 1107.9333,-531.9833"/>
</g>
<!-- gui/selection.js&#45;&gt;core.js -->
<g id="edge52" class="edge">
<title>gui/selection.js&#45;&gt;core.js</title>
<path fill="none" stroke="#757575" d="M564.6571,-431.585C578.8346,-438.6369 596.5443,-448.3184 611,-458.9721 652.6015,-489.6323 694.3397,-533.7055 716.744,-558.7147"/>
<polygon fill="#757575" stroke="#757575" points="714.3201,-561.2567 723.5726,-566.4183 719.5584,-556.6133 714.3201,-561.2567"/>
</g>
<!-- gui/selection.js&#45;&gt;components/selection.js -->
<g id="edge51" class="edge">
<title>gui/selection.js&#45;&gt;components/selection.js</title>
<path fill="none" stroke="#757575" d="M551.3435,-408.3728C583.7358,-376.6484 674.0383,-288.2079 714.0224,-249.0482"/>
<polygon fill="#757575" stroke="#757575" points="716.6208,-251.4023 721.3162,-241.9047 711.7229,-246.4012 716.6208,-251.4023"/>
</g>
<!-- gui/stats.js -->
<g id="node26" class="node">
<title>gui/stats.js</title>
<path fill="none" stroke="#cfffac" d="M378.8333,-201.4721C378.8333,-201.4721 309.1667,-201.4721 309.1667,-201.4721 305.3333,-201.4721 301.5,-197.6388 301.5,-193.8055 301.5,-193.8055 301.5,-186.1388 301.5,-186.1388 301.5,-182.3055 305.3333,-178.4721 309.1667,-178.4721 309.1667,-178.4721 378.8333,-178.4721 378.8333,-178.4721 382.6667,-178.4721 386.5,-182.3055 386.5,-186.1388 386.5,-186.1388 386.5,-193.8055 386.5,-193.8055 386.5,-197.6388 382.6667,-201.4721 378.8333,-201.4721"/>
<text text-anchor="middle" x="344" y="-186.2721" font-family="Arial" font-size="14.00" fill="#cfffac">gui/stats.js</text>
</g>
<!-- main.js -->
<g id="node27" class="node">
<title>main.js</title>
<path fill="none" stroke="#c6c5fe" d="M85.8333,-588.4721C85.8333,-588.4721 39.1667,-588.4721 39.1667,-588.4721 35.3333,-588.4721 31.5,-584.6388 31.5,-580.8055 31.5,-580.8055 31.5,-573.1388 31.5,-573.1388 31.5,-569.3055 35.3333,-565.4721 39.1667,-565.4721 39.1667,-565.4721 85.8333,-565.4721 85.8333,-565.4721 89.6667,-565.4721 93.5,-569.3055 93.5,-573.1388 93.5,-573.1388 93.5,-580.8055 93.5,-580.8055 93.5,-584.6388 89.6667,-588.4721 85.8333,-588.4721"/>
<text text-anchor="middle" x="62.5" y="-573.2721" font-family="Arial" font-size="14.00" fill="#c6c5fe">main.js</text>
</g>
<!-- view.js -->
<g id="node28" class="node">
<title>view.js</title>
<path fill="none" stroke="#c6c5fe" d="M212.3333,-588.4721C212.3333,-588.4721 168.6667,-588.4721 168.6667,-588.4721 164.8333,-588.4721 161,-584.6388 161,-580.8055 161,-580.8055 161,-573.1388 161,-573.1388 161,-569.3055 164.8333,-565.4721 168.6667,-565.4721 168.6667,-565.4721 212.3333,-565.4721 212.3333,-565.4721 216.1667,-565.4721 220,-569.3055 220,-573.1388 220,-573.1388 220,-580.8055 220,-580.8055 220,-584.6388 216.1667,-588.4721 212.3333,-588.4721"/>
<text text-anchor="middle" x="190.5" y="-573.2721" font-family="Arial" font-size="14.00" fill="#c6c5fe">view.js</text>
</g>
<!-- main.js&#45;&gt;view.js -->
<g id="edge55" class="edge">
<title>main.js&#45;&gt;view.js</title>
<path fill="none" stroke="#757575" d="M93.8123,-576.9721C110.9681,-576.9721 132.4075,-576.9721 150.7355,-576.9721"/>
<polygon fill="#757575" stroke="#757575" points="150.8302,-580.4722 160.8301,-576.9721 150.8301,-573.4722 150.8302,-580.4722"/>
</g>
<!-- view.js&#45;&gt;components/keyboard.js -->
<g id="edge59" class="edge">
<title>view.js&#45;&gt;components/keyboard.js</title>
<path fill="none" stroke="#757575" d="M191.2236,-588.532C194.7511,-641.2685 211.8039,-858.5428 256,-906.9721 259.3156,-910.6053 263.1114,-913.7402 267.2234,-916.4444"/>
<polygon fill="#757575" stroke="#757575" points="265.6235,-919.5601 276.0554,-921.4114 269.0549,-913.4588 265.6235,-919.5601"/>
</g>
<!-- view.js&#45;&gt;components/mouse.js -->
<g id="edge60" class="edge">
<title>view.js&#45;&gt;components/mouse.js</title>
<path fill="none" stroke="#757575" d="M192.0627,-588.68C198.1641,-632.6748 221.7472,-787.3062 256,-820.9721 359.3045,-922.5067 536.8121,-936.2568 643.8585,-934.1157"/>
<polygon fill="#757575" stroke="#757575" points="644.084,-937.6112 653.993,-933.8613 643.9083,-930.6134 644.084,-937.6112"/>
</g>
<!-- view.js&#45;&gt;components/ruler.js -->
<g id="edge61" class="edge">
<title>view.js&#45;&gt;components/ruler.js</title>
<path fill="none" stroke="#757575" d="M192.6629,-588.7015C198.2194,-615.538 215.5013,-681.8718 256,-717.9721 312.1915,-768.0609 395.8174,-791.5694 457.6945,-802.5364"/>
<polygon fill="#757575" stroke="#757575" points="457.3734,-806.0319 467.818,-804.2538 458.5443,-799.1305 457.3734,-806.0319"/>
</g>
<!-- view.js&#45;&gt;core.js -->
<g id="edge63" class="edge">
<title>view.js&#45;&gt;core.js</title>
<path fill="none" stroke="#757575" d="M219.7006,-588.4728C230.8711,-592.3011 243.8478,-596.0717 256,-597.9721 411.9134,-622.3547 453.605,-602.3885 611,-590.9721 638.6858,-588.964 669.787,-585.6504 693.7236,-582.8714"/>
<polygon fill="#757575" stroke="#757575" points="694.3235,-586.325 703.8452,-581.6787 693.5043,-579.3731 694.3235,-586.325"/>
</g>
<!-- view.js&#45;&gt;components/selection.js -->
<g id="edge62" class="edge">
<title>view.js&#45;&gt;components/selection.js</title>
<path fill="none" stroke="#757575" d="M191.6168,-565.251C196.4212,-517.3003 216.8821,-336.7811 256,-297.9721 364.2978,-190.5298 560.2849,-201.5723 664.3049,-216.8735"/>
<polygon fill="#757575" stroke="#757575" points="663.9702,-220.3629 674.3839,-218.4121 665.0265,-213.4431 663.9702,-220.3629"/>
</g>
<!-- view.js&#45;&gt;gui/advanced.js -->
<g id="edge64" class="edge">
<title>view.js&#45;&gt;gui/advanced.js</title>
<path fill="none" stroke="#757575" d="M194.4903,-588.556C202.5055,-609.9665 222.6984,-655.5859 256,-677.9721 319.5802,-720.7126 408.3473,-731.6611 469.5319,-733.5477"/>
<polygon fill="#757575" stroke="#757575" points="469.7847,-737.0545 479.8636,-733.7886 469.9479,-730.0564 469.7847,-737.0545"/>
</g>
<!-- view.js&#45;&gt;gui/controls.js -->
<g id="edge65" class="edge">
<title>view.js&#45;&gt;gui/controls.js</title>
<path fill="none" stroke="#757575" d="M201.528,-588.4881C213.7774,-600.6597 234.6555,-619.6319 256,-630.9721 264.1618,-635.3085 273.1439,-639.0147 282.1552,-642.1537"/>
<polygon fill="#757575" stroke="#757575" points="281.3149,-645.5612 291.9074,-645.3402 283.489,-638.9074 281.3149,-645.5612"/>
</g>
<!-- view.js&#45;&gt;gui/parameters.js -->
<g id="edge70" class="edge">
<title>view.js&#45;&gt;gui/parameters.js</title>
<path fill="none" stroke="#757575" d="M195.713,-565.27C204.8422,-546.3727 225.6808,-509.6713 256,-493.9721 320.7513,-460.4443 405.3424,-460.6582 465.2179,-466.8125"/>
<polygon fill="#757575" stroke="#757575" points="465.0282,-470.3128 475.3527,-467.9349 465.7988,-463.3554 465.0282,-470.3128"/>
</g>
<!-- view.js&#45;&gt;gui/dat.gui.js -->
<g id="edge66" class="edge">
<title>view.js&#45;&gt;gui/dat.gui.js</title>
<path fill="none" stroke="#757575" d="M220.0587,-567.5206C231.2706,-564.048 244.1819,-560.1832 256,-556.9721 265.3371,-554.4352 275.2761,-551.9032 284.9867,-549.5207"/>
<polygon fill="#757575" stroke="#757575" points="286.0936,-552.8538 294.9886,-547.098 284.4457,-546.0506 286.0936,-552.8538"/>
</g>
<!-- view.js&#45;&gt;gui/field.js -->
<g id="edge67" class="edge">
<title>view.js&#45;&gt;gui/field.js</title>
<path fill="none" stroke="#757575" d="M220.0963,-576.9721C240.9071,-576.9721 269.2695,-576.9721 293.6072,-576.9721"/>
<polygon fill="#757575" stroke="#757575" points="293.7575,-580.4722 303.7574,-576.9721 293.7574,-573.4722 293.7575,-580.4722"/>
</g>
<!-- view.js&#45;&gt;gui/generator.js -->
<g id="edge68" class="edge">
<title>view.js&#45;&gt;gui/generator.js</title>
<path fill="none" stroke="#757575" d="M192.1568,-565.26C196.9108,-535.543 213.1142,-456.159 256,-407.9721 316.1074,-340.435 416.6616,-302.6019 480.4528,-284.2566"/>
<polygon fill="#757575" stroke="#757575" points="481.6795,-287.5477 490.3634,-281.478 479.7898,-280.8076 481.6795,-287.5477"/>
</g>
<!-- view.js&#45;&gt;gui/info.js -->
<g id="edge69" class="edge">
<title>view.js&#45;&gt;gui/info.js</title>
<path fill="none" stroke="#757575" d="M198.6115,-565.2534C209.6225,-550.4957 230.84,-525.8735 256,-515.9721 333.6358,-485.4198 432.6046,-500.9734 490.717,-515.0062"/>
<polygon fill="#757575" stroke="#757575" points="490.179,-518.4793 500.7291,-517.5071 491.8754,-511.6879 490.179,-518.4793"/>
</g>
<!-- view.js&#45;&gt;gui/particle.js -->
<g id="edge71" class="edge">
<title>view.js&#45;&gt;gui/particle.js</title>
<path fill="none" stroke="#757575" d="M192.9372,-588.5326C201.0967,-626.2132 228.4929,-744.5728 256,-770.9721 316.3164,-828.8596 414.9141,-846.2673 478.4915,-851.2802"/>
<polygon fill="#757575" stroke="#757575" points="478.5494,-854.793 488.7713,-852.007 479.0431,-847.8104 478.5494,-854.793"/>
</g>
<!-- view.js&#45;&gt;gui/selection.js -->
<g id="edge72" class="edge">
<title>view.js&#45;&gt;gui/selection.js</title>
<path fill="none" stroke="#757575" d="M193.2647,-565.2135C199.657,-540.8693 217.9139,-485.0496 256,-458.9721 320.1699,-415.0351 411.8627,-410.2484 473.427,-413.1614"/>
<polygon fill="#757575" stroke="#757575" points="473.2408,-416.6564 483.4188,-413.7141 473.6274,-409.6671 473.2408,-416.6564"/>
</g>
<!-- view.js&#45;&gt;gui/stats.js -->
<g id="edge73" class="edge">
<title>view.js&#45;&gt;gui/stats.js</title>
<path fill="none" stroke="#757575" d="M191.0069,-565.4681C193.6833,-509.8743 207.9199,-269.5358 256,-215.9721 265.1583,-205.7693 278.1045,-199.488 291.2567,-195.6447"/>
<polygon fill="#757575" stroke="#757575" points="292.431,-198.9596 301.2951,-193.1563 290.7467,-192.1652 292.431,-198.9596"/>
</g>
<!-- mock/graphics.js -->
<g id="node29" class="node">
<title>mock/graphics.js</title>
<path fill="none" stroke="#cfffac" d="M117.3333,-629.4721C117.3333,-629.4721 7.6667,-629.4721 7.6667,-629.4721 3.8333,-629.4721 0,-625.6388 0,-621.8055 0,-621.8055 0,-614.1388 0,-614.1388 0,-610.3055 3.8333,-606.4721 7.6667,-606.4721 7.6667,-606.4721 117.3333,-606.4721 117.3333,-606.4721 121.1667,-606.4721 125,-610.3055 125,-614.1388 125,-614.1388 125,-621.8055 125,-621.8055 125,-625.6388 121.1667,-629.4721 117.3333,-629.4721"/>
<text text-anchor="middle" x="62.5" y="-614.2721" font-family="Arial" font-size="14.00" fill="#cfffac">mock/graphics.js</text>
</g>
</g>
</svg>
