<?xml version="1.0" encoding="UTF-8" standalone="no"?>
<!DOCTYPE svg PUBLIC "-//W3C//DTD SVG 1.1//EN"
 "http://www.w3.org/Graphics/SVG/1.1/DTD/svg11.dtd">
<!-- Generated by graphviz version 2.40.1 (20161225.0304)
 -->
<!-- Title: G Pages: 1 -->
<svg width="1582pt" height="988pt"
 viewBox="0.00 0.00 1582.20 988.48" xmlns="http://www.w3.org/2000/svg" xmlns:xlink="http://www.w3.org/1999/xlink">
<g id="graph0" class="graph" transform="scale(1 1) rotate(0) translate(21.6 966.8803)">
<title>G</title>
<polygon fill="#111111" stroke="transparent" points="-21.6,21.6 -21.6,-966.8803 1560.6,-966.8803 1560.6,21.6 -21.6,21.6"/>
<!-- components/csv.js -->
<g id="node1" class="node">
<title>components/csv.js</title>
<path fill="none" stroke="#c6c5fe" d="M1018.8333,-86.2803C1018.8333,-86.2803 897.1667,-86.2803 897.1667,-86.2803 893.3333,-86.2803 889.5,-82.447 889.5,-78.6136 889.5,-78.6136 889.5,-70.947 889.5,-70.947 889.5,-67.1136 893.3333,-63.2803 897.1667,-63.2803 897.1667,-63.2803 1018.8333,-63.2803 1018.8333,-63.2803 1022.6667,-63.2803 1026.5,-67.1136 1026.5,-70.947 1026.5,-70.947 1026.5,-78.6136 1026.5,-78.6136 1026.5,-82.447 1022.6667,-86.2803 1018.8333,-86.2803"/>
<text text-anchor="middle" x="958" y="-71.0803" font-family="Arial" font-size="14.00" fill="#c6c5fe">components/csv.js</text>
</g>
<!-- particle.js -->
<g id="node2" class="node">
<title>particle.js</title>
<path fill="none" stroke="#cfffac" d="M1531.3333,-458.2803C1531.3333,-458.2803 1469.6667,-458.2803 1469.6667,-458.2803 1465.8333,-458.2803 1462,-454.447 1462,-450.6136 1462,-450.6136 1462,-442.947 1462,-442.947 1462,-439.1136 1465.8333,-435.2803 1469.6667,-435.2803 1469.6667,-435.2803 1531.3333,-435.2803 1531.3333,-435.2803 1535.1667,-435.2803 1539,-439.1136 1539,-442.947 1539,-442.947 1539,-450.6136 1539,-450.6136 1539,-454.447 1535.1667,-458.2803 1531.3333,-458.2803"/>
<text text-anchor="middle" x="1500.5" y="-443.0803" font-family="Arial" font-size="14.00" fill="#cfffac">particle.js</text>
</g>
<!-- components/csv.js&#45;&gt;particle.js -->
<g id="edge1" class="edge">
<title>components/csv.js&#45;&gt;particle.js</title>
<path fill="none" stroke="#757575" d="M990.4518,-63.2705C1054.8276,-42.4549 1201.8087,-5.0992 1310,-54.7803 1457.8391,-122.6675 1491.7213,-353.0137 1498.7823,-425.0586"/>
<polygon fill="#757575" stroke="#757575" points="1495.314,-425.568 1499.6986,-435.213 1502.2856,-424.9389 1495.314,-425.568"/>
</g>
<!-- physics.js -->
<g id="node3" class="node">
<title>physics.js</title>
<path fill="none" stroke="#c6c5fe" d="M1418.3333,-221.2803C1418.3333,-221.2803 1353.6667,-221.2803 1353.6667,-221.2803 1349.8333,-221.2803 1346,-217.447 1346,-213.6136 1346,-213.6136 1346,-205.947 1346,-205.947 1346,-202.1136 1349.8333,-198.2803 1353.6667,-198.2803 1353.6667,-198.2803 1418.3333,-198.2803 1418.3333,-198.2803 1422.1667,-198.2803 1426,-202.1136 1426,-205.947 1426,-205.947 1426,-213.6136 1426,-213.6136 1426,-217.447 1422.1667,-221.2803 1418.3333,-221.2803"/>
<text text-anchor="middle" x="1386" y="-206.0803" font-family="Arial" font-size="14.00" fill="#c6c5fe">physics.js</text>
</g>
<!-- components/csv.js&#45;&gt;physics.js -->
<g id="edge2" class="edge">
<title>components/csv.js&#45;&gt;physics.js</title>
<path fill="none" stroke="#757575" d="M1026.5104,-63.3288C1101.3143,-54.3986 1222.1474,-50.7327 1310,-100.7803 1344.507,-120.4382 1366.9721,-162.9473 1377.9866,-188.6856"/>
<polygon fill="#757575" stroke="#757575" points="1374.7506,-190.0193 1381.769,-197.9561 1381.2319,-187.3749 1374.7506,-190.0193"/>
</g>
<!-- physics.js&#45;&gt;particle.js -->
<g id="edge55" class="edge">
<title>physics.js&#45;&gt;particle.js</title>
<path fill="none" stroke="#757575" d="M1398.4966,-221.4333C1407.1235,-230.0048 1418.3712,-242.2922 1426,-254.7803 1460.9475,-311.9876 1484.6661,-388.3869 1494.8579,-425.1802"/>
<polygon fill="#757575" stroke="#757575" points="1491.4873,-426.1236 1497.4785,-434.8618 1498.2441,-424.2946 1491.4873,-426.1236"/>
</g>
<!-- components/keyboard.js -->
<g id="node4" class="node">
<title>components/keyboard.js</title>
<path fill="none" stroke="#cfffac" d="M424.3333,-282.2803C424.3333,-282.2803 263.6667,-282.2803 263.6667,-282.2803 259.8333,-282.2803 256,-278.447 256,-274.6136 256,-274.6136 256,-266.947 256,-266.947 256,-263.1136 259.8333,-259.2803 263.6667,-259.2803 263.6667,-259.2803 424.3333,-259.2803 424.3333,-259.2803 428.1667,-259.2803 432,-263.1136 432,-266.947 432,-266.947 432,-274.6136 432,-274.6136 432,-278.447 428.1667,-282.2803 424.3333,-282.2803"/>
<text text-anchor="middle" x="344" y="-267.0803" font-family="Arial" font-size="14.00" fill="#cfffac">components/keyboard.js</text>
</g>
<!-- components/mouse.js -->
<g id="node5" class="node">
<title>components/mouse.js</title>
<path fill="none" stroke="#c6c5fe" d="M835.3333,-945.2803C835.3333,-945.2803 691.6667,-945.2803 691.6667,-945.2803 687.8333,-945.2803 684,-941.447 684,-937.6136 684,-937.6136 684,-929.947 684,-929.947 684,-926.1136 687.8333,-922.2803 691.6667,-922.2803 691.6667,-922.2803 835.3333,-922.2803 835.3333,-922.2803 839.1667,-922.2803 843,-926.1136 843,-929.947 843,-929.947 843,-937.6136 843,-937.6136 843,-941.447 839.1667,-945.2803 835.3333,-945.2803"/>
<text text-anchor="middle" x="763.5" y="-930.0803" font-family="Arial" font-size="14.00" fill="#c6c5fe">components/mouse.js</text>
</g>
<!-- helpers.js -->
<g id="node6" class="node">
<title>helpers.js</title>
<path fill="none" stroke="#c6c5fe" d="M1219.8333,-597.2803C1219.8333,-597.2803 1156.1667,-597.2803 1156.1667,-597.2803 1152.3333,-597.2803 1148.5,-593.447 1148.5,-589.6136 1148.5,-589.6136 1148.5,-581.947 1148.5,-581.947 1148.5,-578.1136 1152.3333,-574.2803 1156.1667,-574.2803 1156.1667,-574.2803 1219.8333,-574.2803 1219.8333,-574.2803 1223.6667,-574.2803 1227.5,-578.1136 1227.5,-581.947 1227.5,-581.947 1227.5,-589.6136 1227.5,-589.6136 1227.5,-593.447 1223.6667,-597.2803 1219.8333,-597.2803"/>
<text text-anchor="middle" x="1188" y="-582.0803" font-family="Arial" font-size="14.00" fill="#c6c5fe">helpers.js</text>
</g>
<!-- components/mouse.js&#45;&gt;helpers.js -->
<g id="edge3" class="edge">
<title>components/mouse.js&#45;&gt;helpers.js</title>
<path fill="none" stroke="#757575" d="M843.2631,-931.2875C900.3433,-925.8075 976.2805,-910.5667 1030,-869.7803 1121.86,-800.0358 1167.761,-660.593 1182.5292,-607.2303"/>
<polygon fill="#757575" stroke="#757575" points="1185.9348,-608.0431 1185.143,-597.4779 1179.1734,-606.2309 1185.9348,-608.0431"/>
</g>
<!-- helpers.js&#45;&gt;particle.js -->
<g id="edge53" class="edge">
<title>helpers.js&#45;&gt;particle.js</title>
<path fill="none" stroke="#757575" d="M1214.1061,-574.1683C1270.0572,-549.2812 1401.5846,-490.7779 1465.0345,-462.5553"/>
<polygon fill="#757575" stroke="#757575" points="1466.534,-465.7191 1474.2485,-458.457 1463.6891,-459.3232 1466.534,-465.7191"/>
</g>
<!-- components/ruler.js -->
<g id="node7" class="node">
<title>components/ruler.js</title>
<path fill="none" stroke="#c6c5fe" d="M618.3333,-827.2803C618.3333,-827.2803 490.6667,-827.2803 490.6667,-827.2803 486.8333,-827.2803 483,-823.447 483,-819.6136 483,-819.6136 483,-811.947 483,-811.947 483,-808.1136 486.8333,-804.2803 490.6667,-804.2803 490.6667,-804.2803 618.3333,-804.2803 618.3333,-804.2803 622.1667,-804.2803 626,-808.1136 626,-811.947 626,-811.947 626,-819.6136 626,-819.6136 626,-823.447 622.1667,-827.2803 618.3333,-827.2803"/>
<text text-anchor="middle" x="554.5" y="-812.0803" font-family="Arial" font-size="14.00" fill="#c6c5fe">components/ruler.js</text>
</g>
<!-- components/ruler.js&#45;&gt;helpers.js -->
<g id="edge5" class="edge">
<title>components/ruler.js&#45;&gt;helpers.js</title>
<path fill="none" stroke="#757575" d="M626.4527,-819.7623C741.7782,-824.9406 961.9614,-829.5227 1030,-793.7803 1109.3497,-752.0959 1160.3564,-650.7868 1179.4848,-606.7728"/>
<polygon fill="#757575" stroke="#757575" points="1182.7973,-607.9256 1183.4688,-597.3521 1176.3501,-605.1991 1182.7973,-607.9256"/>
</g>
<!-- core.js -->
<g id="node8" class="node">
<title>core.js</title>
<path fill="none" stroke="#c6c5fe" d="M785.3333,-557.2803C785.3333,-557.2803 741.6667,-557.2803 741.6667,-557.2803 737.8333,-557.2803 734,-553.447 734,-549.6136 734,-549.6136 734,-541.947 734,-541.947 734,-538.1136 737.8333,-534.2803 741.6667,-534.2803 741.6667,-534.2803 785.3333,-534.2803 785.3333,-534.2803 789.1667,-534.2803 793,-538.1136 793,-541.947 793,-541.947 793,-549.6136 793,-549.6136 793,-553.447 789.1667,-557.2803 785.3333,-557.2803"/>
<text text-anchor="middle" x="763.5" y="-542.0803" font-family="Arial" font-size="14.00" fill="#c6c5fe">core.js</text>
</g>
<!-- components/ruler.js&#45;&gt;core.js -->
<g id="edge4" class="edge">
<title>components/ruler.js&#45;&gt;core.js</title>
<path fill="none" stroke="#757575" d="M563.4805,-804.1787C595.9719,-762.2042 707.6325,-617.9536 748.425,-565.2552"/>
<polygon fill="#757575" stroke="#757575" points="751.1995,-567.3888 754.553,-557.3386 745.6641,-563.1039 751.1995,-567.3888"/>
</g>
<!-- core.js&#45;&gt;components/csv.js -->
<g id="edge10" class="edge">
<title>core.js&#45;&gt;components/csv.js</title>
<path fill="none" stroke="#757575" d="M767.2382,-534.1471C781.1887,-491.102 832.1749,-337.0342 886,-214.7803 905.1268,-171.3373 931.439,-122.4055 946.3846,-95.426"/>
<polygon fill="#757575" stroke="#757575" points="949.5313,-96.9693 951.3422,-86.5303 943.4168,-93.5616 949.5313,-96.9693"/>
</g>
<!-- core.js&#45;&gt;particle.js -->
<g id="edge16" class="edge">
<title>core.js&#45;&gt;particle.js</title>
<path fill="none" stroke="#757575" d="M767.2111,-557.3427C778.5872,-590.5836 816.4877,-686.3526 886,-722.7803 942.6877,-752.4873 966.4035,-729.9559 1030,-722.7803 1217.6496,-701.6076 1300.1269,-709.5517 1426,-568.7803 1454.3312,-537.0958 1478.0988,-493.2021 1490.7288,-467.6162"/>
<polygon fill="#757575" stroke="#757575" points="1493.9509,-468.9927 1495.1543,-458.4664 1487.6493,-465.9447 1493.9509,-468.9927"/>
</g>
<!-- core.js&#45;&gt;physics.js -->
<g id="edge17" class="edge">
<title>core.js&#45;&gt;physics.js</title>
<path fill="none" stroke="#757575" d="M776.7698,-534.1383C796.1709,-516.3129 831.9292,-480.2549 850,-441.7803 887.0953,-362.8008 821.1013,-307.1069 886,-248.7803 918.9569,-219.1609 1215.6584,-211.9868 1335.8148,-210.2907"/>
<polygon fill="#757575" stroke="#757575" points="1335.908,-213.7898 1345.8601,-210.1559 1335.814,-206.7904 1335.908,-213.7898"/>
</g>
<!-- core.js&#45;&gt;helpers.js -->
<g id="edge15" class="edge">
<title>core.js&#45;&gt;helpers.js</title>
<path fill="none" stroke="#757575" d="M793.0759,-551.7642C817.8075,-556.5476 854.0666,-563.0495 886,-566.7803 974.3568,-577.1032 1077.9578,-582.0828 1137.9779,-584.2712"/>
<polygon fill="#757575" stroke="#757575" points="1138.1877,-587.7807 1148.3049,-584.6358 1138.4347,-580.7851 1138.1877,-587.7807"/>
</g>
<!-- gpu/field.js -->
<g id="node10" class="node">
<title>gpu/field.js</title>
<path fill="none" stroke="#c6c5fe" d="M993.3333,-713.2803C993.3333,-713.2803 922.6667,-713.2803 922.6667,-713.2803 918.8333,-713.2803 915,-709.447 915,-705.6136 915,-705.6136 915,-697.947 915,-697.947 915,-694.1136 918.8333,-690.2803 922.6667,-690.2803 922.6667,-690.2803 993.3333,-690.2803 993.3333,-690.2803 997.1667,-690.2803 1001,-694.1136 1001,-697.947 1001,-697.947 1001,-705.6136 1001,-705.6136 1001,-709.447 997.1667,-713.2803 993.3333,-713.2803"/>
<text text-anchor="middle" x="958" y="-698.0803" font-family="Arial" font-size="14.00" fill="#c6c5fe">gpu/field.js</text>
</g>
<!-- core.js&#45;&gt;gpu/field.js -->
<g id="edge11" class="edge">
<title>core.js&#45;&gt;gpu/field.js</title>
<path fill="none" stroke="#757575" d="M778.1191,-557.5056C811.8532,-584.5623 895.3186,-651.5063 935.5755,-683.7946"/>
<polygon fill="#757575" stroke="#757575" points="933.4858,-686.6052 943.4766,-690.1317 937.8656,-681.1446 933.4858,-686.6052"/>
</g>
<!-- gpu/graphics.js -->
<g id="node11" class="node">
<title>gpu/graphics.js</title>
<path fill="none" stroke="#c6c5fe" d="M1007.8333,-360.2803C1007.8333,-360.2803 908.1667,-360.2803 908.1667,-360.2803 904.3333,-360.2803 900.5,-356.447 900.5,-352.6136 900.5,-352.6136 900.5,-344.947 900.5,-344.947 900.5,-341.1136 904.3333,-337.2803 908.1667,-337.2803 908.1667,-337.2803 1007.8333,-337.2803 1007.8333,-337.2803 1011.6667,-337.2803 1015.5,-341.1136 1015.5,-344.947 1015.5,-344.947 1015.5,-352.6136 1015.5,-352.6136 1015.5,-356.447 1011.6667,-360.2803 1007.8333,-360.2803"/>
<text text-anchor="middle" x="958" y="-345.0803" font-family="Arial" font-size="14.00" fill="#c6c5fe">gpu/graphics.js</text>
</g>
<!-- core.js&#45;&gt;gpu/graphics.js -->
<g id="edge12" class="edge">
<title>core.js&#45;&gt;gpu/graphics.js</title>
<path fill="none" stroke="#757575" d="M774.8555,-534.0099C792.3925,-515.4435 826.4938,-477.7588 850,-441.7803 869.5684,-411.829 858.5321,-392.7044 886,-369.7803 887.9681,-368.1378 890.0593,-366.6236 892.2431,-365.2279"/>
<polygon fill="#757575" stroke="#757575" points="893.9629,-368.2767 901.0601,-360.4103 890.6064,-362.1339 893.9629,-368.2767"/>
</g>
<!-- gpu/shaders/computeShader.glsl.js -->
<g id="node12" class="node">
<title>gpu/shaders/computeShader.glsl.js</title>
<path fill="none" stroke="#c6c5fe" d="M1302.3333,-320.2803C1302.3333,-320.2803 1073.6667,-320.2803 1073.6667,-320.2803 1069.8333,-320.2803 1066,-316.447 1066,-312.6136 1066,-312.6136 1066,-304.947 1066,-304.947 1066,-301.1136 1069.8333,-297.2803 1073.6667,-297.2803 1073.6667,-297.2803 1302.3333,-297.2803 1302.3333,-297.2803 1306.1667,-297.2803 1310,-301.1136 1310,-304.947 1310,-304.947 1310,-312.6136 1310,-312.6136 1310,-316.447 1306.1667,-320.2803 1302.3333,-320.2803"/>
<text text-anchor="middle" x="1188" y="-305.0803" font-family="Arial" font-size="14.00" fill="#c6c5fe">gpu/shaders/computeShader.glsl.js</text>
</g>
<!-- core.js&#45;&gt;gpu/shaders/computeShader.glsl.js -->
<g id="edge13" class="edge">
<title>core.js&#45;&gt;gpu/shaders/computeShader.glsl.js</title>
<path fill="none" stroke="#757575" d="M775.8575,-534.1312C794.4095,-516.0173 829.467,-479.2672 850,-441.7803 875.3213,-395.5515 844.4979,-361.2741 886,-328.7803 912.322,-308.1717 987.0865,-303.1087 1055.635,-303.2291"/>
<polygon fill="#757575" stroke="#757575" points="1055.6784,-306.7293 1065.6971,-303.2832 1055.7161,-299.7294 1055.6784,-306.7293"/>
</g>
<!-- gpu/simulation.js -->
<g id="node13" class="node">
<title>gpu/simulation.js</title>
<path fill="none" stroke="#c6c5fe" d="M1012.8333,-401.2803C1012.8333,-401.2803 903.1667,-401.2803 903.1667,-401.2803 899.3333,-401.2803 895.5,-397.447 895.5,-393.6136 895.5,-393.6136 895.5,-385.947 895.5,-385.947 895.5,-382.1136 899.3333,-378.2803 903.1667,-378.2803 903.1667,-378.2803 1012.8333,-378.2803 1012.8333,-378.2803 1016.6667,-378.2803 1020.5,-382.1136 1020.5,-385.947 1020.5,-385.947 1020.5,-393.6136 1020.5,-393.6136 1020.5,-397.447 1016.6667,-401.2803 1012.8333,-401.2803"/>
<text text-anchor="middle" x="958" y="-386.0803" font-family="Arial" font-size="14.00" fill="#c6c5fe">gpu/simulation.js</text>
</g>
<!-- core.js&#45;&gt;gpu/simulation.js -->
<g id="edge14" class="edge">
<title>core.js&#45;&gt;gpu/simulation.js</title>
<path fill="none" stroke="#757575" d="M778.1191,-534.0549C811.8532,-506.9983 895.3186,-440.0543 935.5755,-407.766"/>
<polygon fill="#757575" stroke="#757575" points="937.8656,-410.416 943.4766,-401.4289 933.4858,-404.9554 937.8656,-410.416"/>
</g>
<!-- scenarios.js -->
<g id="node14" class="node">
<title>scenarios.js</title>
<path fill="none" stroke="#cfffac" d="M997.3333,-557.2803C997.3333,-557.2803 918.6667,-557.2803 918.6667,-557.2803 914.8333,-557.2803 911,-553.447 911,-549.6136 911,-549.6136 911,-541.947 911,-541.947 911,-538.1136 914.8333,-534.2803 918.6667,-534.2803 918.6667,-534.2803 997.3333,-534.2803 997.3333,-534.2803 1001.1667,-534.2803 1005,-538.1136 1005,-541.947 1005,-541.947 1005,-549.6136 1005,-549.6136 1005,-553.447 1001.1667,-557.2803 997.3333,-557.2803"/>
<text text-anchor="middle" x="958" y="-542.0803" font-family="Arial" font-size="14.00" fill="#cfffac">scenarios.js</text>
</g>
<!-- core.js&#45;&gt;scenarios.js -->
<g id="edge18" class="edge">
<title>core.js&#45;&gt;scenarios.js</title>
<path fill="none" stroke="#757575" d="M793.0404,-545.7803C821.477,-545.7803 865.2472,-545.7803 900.5563,-545.7803"/>
<polygon fill="#757575" stroke="#757575" points="900.7425,-549.2804 910.7424,-545.7803 900.7424,-542.2804 900.7425,-549.2804"/>
</g>
<!-- components/selection.js -->
<g id="node9" class="node">
<title>components/selection.js</title>
<path fill="none" stroke="#c6c5fe" d="M842.3333,-145.2803C842.3333,-145.2803 684.6667,-145.2803 684.6667,-145.2803 680.8333,-145.2803 677,-141.447 677,-137.6136 677,-137.6136 677,-129.947 677,-129.947 677,-126.1136 680.8333,-122.2803 684.6667,-122.2803 684.6667,-122.2803 842.3333,-122.2803 842.3333,-122.2803 846.1667,-122.2803 850,-126.1136 850,-129.947 850,-129.947 850,-137.6136 850,-137.6136 850,-141.447 846.1667,-145.2803 842.3333,-145.2803"/>
<text text-anchor="middle" x="763.5" y="-130.0803" font-family="Arial" font-size="14.00" fill="#c6c5fe">components/selection.js</text>
</g>
<!-- components/selection.js&#45;&gt;components/csv.js -->
<g id="edge6" class="edge">
<title>components/selection.js&#45;&gt;components/csv.js</title>
<path fill="none" stroke="#757575" d="M802.265,-122.1695C817.1904,-117.6882 834.3927,-112.5103 850,-107.7803 869.7217,-101.8033 891.4551,-95.1714 910.2236,-89.4298"/>
<polygon fill="#757575" stroke="#757575" points="911.489,-92.7029 920.0268,-86.4294 909.4403,-86.0094 911.489,-92.7029"/>
</g>
<!-- components/selection.js&#45;&gt;particle.js -->
<g id="edge8" class="edge">
<title>components/selection.js&#45;&gt;particle.js</title>
<path fill="none" stroke="#757575" d="M777.1045,-122.0087C798.6264,-104.0912 842.5572,-70.3164 886,-53.7803 1062.474,13.393 1125.0697,11.3785 1310,-26.7803 1364.9826,-38.1255 1390.644,-33.1712 1426,-76.7803 1470.2627,-131.3752 1492.6576,-354.2902 1498.7525,-425.0895"/>
<polygon fill="#757575" stroke="#757575" points="1495.2682,-425.4247 1499.5916,-435.0972 1502.2438,-424.8397 1495.2682,-425.4247"/>
</g>
<!-- components/selection.js&#45;&gt;physics.js -->
<g id="edge9" class="edge">
<title>components/selection.js&#45;&gt;physics.js</title>
<path fill="none" stroke="#757575" d="M815.2191,-122.2669C915.1099,-102.5664 1139.7383,-70.7217 1310,-138.7803 1335.8427,-149.1104 1358.1167,-172.739 1371.7513,-189.9079"/>
<polygon fill="#757575" stroke="#757575" points="1369.2209,-192.3618 1378.067,-198.1926 1374.7878,-188.118 1369.2209,-192.3618"/>
</g>
<!-- components/selection.js&#45;&gt;helpers.js -->
<g id="edge7" class="edge">
<title>components/selection.js&#45;&gt;helpers.js</title>
<path fill="none" stroke="#757575" d="M768.3888,-145.5705C789.8306,-197.182 874.978,-401.0683 886,-410.7803 936.1136,-454.9376 971.164,-422.1645 1030,-453.7803 1045.2119,-461.9545 1127.4966,-533.0103 1166.919,-567.3511"/>
<polygon fill="#757575" stroke="#757575" points="1164.8042,-570.1508 1174.6411,-574.0859 1169.4052,-564.8753 1164.8042,-570.1508"/>
</g>
<!-- gpu/field.js&#45;&gt;particle.js -->
<g id="edge20" class="edge">
<title>gpu/field.js&#45;&gt;particle.js</title>
<path fill="none" stroke="#757575" d="M1001.0747,-696.2677C1069.6757,-686.1805 1206.5545,-660.6376 1310,-606.7803 1382.3988,-569.087 1451.7217,-499.8505 1483.055,-466.1842"/>
<polygon fill="#757575" stroke="#757575" points="1485.9902,-468.1629 1490.1813,-458.4322 1480.8369,-463.4254 1485.9902,-468.1629"/>
</g>
<!-- gpu/field.js&#45;&gt;helpers.js -->
<g id="edge19" class="edge">
<title>gpu/field.js&#45;&gt;helpers.js</title>
<path fill="none" stroke="#757575" d="M996.2196,-690.2089C1007.3853,-686.2395 1019.424,-681.3673 1030,-675.7803 1047.4511,-666.5613 1049.2187,-660.1687 1066,-649.7803 1095.033,-631.8076 1129.6253,-613.977 1154.5475,-601.7194"/>
<polygon fill="#757575" stroke="#757575" points="1156.1413,-604.8363 1163.594,-597.3058 1153.0719,-598.5451 1156.1413,-604.8363"/>
</g>
<!-- gpu/graphics.js&#45;&gt;particle.js -->
<g id="edge24" class="edge">
<title>gpu/graphics.js&#45;&gt;particle.js</title>
<path fill="none" stroke="#757575" d="M1013.1617,-360.3245C1030.0942,-363.7852 1048.7968,-367.5242 1066,-370.7803 1205.5199,-397.1873 1370.88,-425.2124 1451.4506,-438.6576"/>
<polygon fill="#757575" stroke="#757575" points="1451.3409,-442.1875 1461.7802,-440.379 1452.4916,-435.2827 1451.3409,-442.1875"/>
</g>
<!-- gpu/graphics.js&#45;&gt;helpers.js -->
<g id="edge23" class="edge">
<title>gpu/graphics.js&#45;&gt;helpers.js</title>
<path fill="none" stroke="#757575" d="M1014.9399,-360.4103C1020.3597,-362.9426 1025.5015,-366.0259 1030,-369.7803 1057.4679,-392.7044 1046.2957,-411.9182 1066,-441.7803 1097.8906,-490.1108 1143.8885,-540.335 1169.3204,-566.8078"/>
<polygon fill="#757575" stroke="#757575" points="1167.0421,-569.4862 1176.5144,-574.2326 1172.0694,-564.6152 1167.0421,-569.4862"/>
</g>
<!-- gpu/graphics.js&#45;&gt;gpu/shaders/computeShader.glsl.js -->
<g id="edge21" class="edge">
<title>gpu/graphics.js&#45;&gt;gpu/shaders/computeShader.glsl.js</title>
<path fill="none" stroke="#757575" d="M1015.7238,-338.5847C1031.9821,-335.724 1049.6822,-332.62 1066,-329.7803 1080.4511,-327.2654 1095.8682,-324.5988 1110.709,-322.0403"/>
<polygon fill="#757575" stroke="#757575" points="1111.6118,-325.4364 1120.8724,-320.2894 1110.4233,-318.538 1111.6118,-325.4364"/>
</g>
<!-- gpu/shaders/particleShader.glsl.js -->
<g id="node15" class="node">
<title>gpu/shaders/particleShader.glsl.js</title>
<path fill="none" stroke="#cfffac" d="M1297.3333,-361.2803C1297.3333,-361.2803 1078.6667,-361.2803 1078.6667,-361.2803 1074.8333,-361.2803 1071,-357.447 1071,-353.6136 1071,-353.6136 1071,-345.947 1071,-345.947 1071,-342.1136 1074.8333,-338.2803 1078.6667,-338.2803 1078.6667,-338.2803 1297.3333,-338.2803 1297.3333,-338.2803 1301.1667,-338.2803 1305,-342.1136 1305,-345.947 1305,-345.947 1305,-353.6136 1305,-353.6136 1305,-357.447 1301.1667,-361.2803 1297.3333,-361.2803"/>
<text text-anchor="middle" x="1188" y="-346.0803" font-family="Arial" font-size="14.00" fill="#cfffac">gpu/shaders/particleShader.glsl.js</text>
</g>
<!-- gpu/graphics.js&#45;&gt;gpu/shaders/particleShader.glsl.js -->
<g id="edge22" class="edge">
<title>gpu/graphics.js&#45;&gt;gpu/shaders/particleShader.glsl.js</title>
<path fill="none" stroke="#757575" d="M1015.7418,-349.0313C1029.6047,-349.0916 1044.958,-349.1584 1060.6212,-349.2265"/>
<polygon fill="#757575" stroke="#757575" points="1060.9312,-352.7278 1070.9464,-349.2714 1060.9617,-345.7278 1060.9312,-352.7278"/>
</g>
<!-- gpu/shaders/computeShader.glsl.js&#45;&gt;physics.js -->
<g id="edge25" class="edge">
<title>gpu/shaders/computeShader.glsl.js&#45;&gt;physics.js</title>
<path fill="none" stroke="#757575" d="M1211.1006,-297.23C1246.3271,-279.6167 1313.5947,-245.983 1353.6596,-225.9505"/>
<polygon fill="#757575" stroke="#757575" points="1355.3614,-229.0128 1362.7404,-221.4101 1352.2309,-222.7518 1355.3614,-229.0128"/>
</g>
<!-- gpu/simulation.js&#45;&gt;particle.js -->
<g id="edge27" class="edge">
<title>gpu/simulation.js&#45;&gt;particle.js</title>
<path fill="none" stroke="#757575" d="M1018.2593,-401.3665C1022.329,-402.9474 1026.2837,-404.7424 1030,-406.7803 1049.5665,-417.51 1045.3723,-433.2671 1066,-441.7803 1196.7035,-495.7223 1368.9317,-473.3565 1451.8151,-457.5057"/>
<polygon fill="#757575" stroke="#757575" points="1452.5723,-460.9239 1461.7103,-455.5623 1451.2232,-454.0551 1452.5723,-460.9239"/>
</g>
<!-- gpu/simulation.js&#45;&gt;physics.js -->
<g id="edge28" class="edge">
<title>gpu/simulation.js&#45;&gt;physics.js</title>
<path fill="none" stroke="#757575" d="M1005.1666,-401.3293C1077.5007,-416.17 1217.1797,-433.1765 1310,-370.7803 1358.1214,-338.4318 1376.5276,-267.039 1382.9283,-231.1947"/>
<polygon fill="#757575" stroke="#757575" points="1386.3874,-231.7286 1384.5489,-221.2945 1379.4794,-230.5977 1386.3874,-231.7286"/>
</g>
<!-- gpu/simulation.js&#45;&gt;helpers.js -->
<g id="edge26" class="edge">
<title>gpu/simulation.js&#45;&gt;helpers.js</title>
<path fill="none" stroke="#757575" d="M1005.1741,-401.3383C1014.0527,-404.9689 1022.7981,-409.6837 1030,-415.7803 1054.9091,-436.8664 1045.3795,-454.4844 1066,-479.7803 1094.9888,-515.3418 1136.7189,-548.7206 1163.0869,-568.1966"/>
<polygon fill="#757575" stroke="#757575" points="1161.2559,-571.1929 1171.3996,-574.2516 1165.3773,-565.5348 1161.2559,-571.1929"/>
</g>
<!-- gui/advancedControls.js -->
<g id="node16" class="node">
<title>gui/advancedControls.js</title>
<path fill="none" stroke="#c6c5fe" d="M633.3333,-678.2803C633.3333,-678.2803 475.6667,-678.2803 475.6667,-678.2803 471.8333,-678.2803 468,-674.447 468,-670.6136 468,-670.6136 468,-662.947 468,-662.947 468,-659.1136 471.8333,-655.2803 475.6667,-655.2803 475.6667,-655.2803 633.3333,-655.2803 633.3333,-655.2803 637.1667,-655.2803 641,-659.1136 641,-662.947 641,-662.947 641,-670.6136 641,-670.6136 641,-674.447 637.1667,-678.2803 633.3333,-678.2803"/>
<text text-anchor="middle" x="554.5" y="-663.0803" font-family="Arial" font-size="14.00" fill="#c6c5fe">gui/advancedControls.js</text>
</g>
<!-- gui/advancedControls.js&#45;&gt;helpers.js -->
<g id="edge30" class="edge">
<title>gui/advancedControls.js&#45;&gt;helpers.js</title>
<path fill="none" stroke="#757575" d="M641.0464,-658.8231C736.5074,-649.6532 894.5539,-633.3097 1030,-613.7803 1066.2916,-608.5476 1107.0315,-601.2939 1138.0519,-595.4807"/>
<polygon fill="#757575" stroke="#757575" points="1139.0014,-598.8634 1148.1789,-593.5695 1137.7032,-591.9848 1139.0014,-598.8634"/>
</g>
<!-- gui/advancedControls.js&#45;&gt;core.js -->
<g id="edge29" class="edge">
<title>gui/advancedControls.js&#45;&gt;core.js</title>
<path fill="none" stroke="#757575" d="M619.4209,-655.253C626.8777,-652.9174 634.2269,-650.1222 641,-646.7803 683.2333,-625.9421 723.6582,-587.9307 745.8767,-564.9509"/>
<polygon fill="#757575" stroke="#757575" points="748.6017,-567.164 752.9494,-557.5023 743.5256,-562.3439 748.6017,-567.164"/>
</g>
<!-- gui/controls.js -->
<g id="node17" class="node">
<title>gui/controls.js</title>
<path fill="none" stroke="#c6c5fe" d="M388.8333,-483.2803C388.8333,-483.2803 299.1667,-483.2803 299.1667,-483.2803 295.3333,-483.2803 291.5,-479.447 291.5,-475.6136 291.5,-475.6136 291.5,-467.947 291.5,-467.947 291.5,-464.1136 295.3333,-460.2803 299.1667,-460.2803 299.1667,-460.2803 388.8333,-460.2803 388.8333,-460.2803 392.6667,-460.2803 396.5,-464.1136 396.5,-467.947 396.5,-467.947 396.5,-475.6136 396.5,-475.6136 396.5,-479.447 392.6667,-483.2803 388.8333,-483.2803"/>
<text text-anchor="middle" x="344" y="-468.0803" font-family="Arial" font-size="14.00" fill="#c6c5fe">gui/controls.js</text>
</g>
<!-- gui/controls.js&#45;&gt;components/csv.js -->
<g id="edge31" class="edge">
<title>gui/controls.js&#45;&gt;components/csv.js</title>
<path fill="none" stroke="#757575" d="M349.241,-459.9118C374.9025,-403.4947 493.5259,-161.6148 677,-75.7803 748.2211,-42.461 841.1464,-50.7005 900.2152,-61.3759"/>
<polygon fill="#757575" stroke="#757575" points="899.6403,-64.8291 910.1161,-63.2455 900.9392,-57.9507 899.6403,-64.8291"/>
</g>
<!-- gui/controls.js&#45;&gt;helpers.js -->
<g id="edge34" class="edge">
<title>gui/controls.js&#45;&gt;helpers.js</title>
<path fill="none" stroke="#757575" d="M392.8234,-483.3949C407.3568,-489.1022 422.0425,-497.501 432,-509.7803 482.837,-572.4713 407.7145,-634.1125 468,-687.7803 654.9237,-854.1847 795.532,-810.2769 1030,-722.7803 1093.1166,-699.227 1147.7447,-637.8422 1173.0301,-605.8423"/>
<polygon fill="#757575" stroke="#757575" points="1176.0158,-607.7029 1179.3665,-597.6518 1170.4792,-603.4196 1176.0158,-607.7029"/>
</g>
<!-- gui/controls.js&#45;&gt;core.js -->
<g id="edge32" class="edge">
<title>gui/controls.js&#45;&gt;core.js</title>
<path fill="none" stroke="#757575" d="M396.7052,-481.0775C481.8246,-496.0926 647.6808,-525.3497 723.7013,-538.7598"/>
<polygon fill="#757575" stroke="#757575" points="723.3582,-542.2532 733.8142,-540.5437 724.5743,-535.3597 723.3582,-542.2532"/>
</g>
<!-- gui/controls.js&#45;&gt;scenarios.js -->
<g id="edge35" class="edge">
<title>gui/controls.js&#45;&gt;scenarios.js</title>
<path fill="none" stroke="#757575" d="M396.7215,-473.5279C456.2116,-475.8771 555.7969,-480.9467 641,-490.7803 734.5613,-501.5785 757.2482,-509.4271 850,-525.7803 866.5623,-528.7004 884.5312,-531.9823 900.9717,-535.0301"/>
<polygon fill="#757575" stroke="#757575" points="900.5131,-538.5047 910.9845,-536.8921 901.7931,-531.6227 900.5131,-538.5047"/>
</g>
<!-- gui/parameters.js -->
<g id="node18" class="node">
<title>gui/parameters.js</title>
<path fill="none" stroke="#c6c5fe" d="M610.8333,-443.2803C610.8333,-443.2803 498.1667,-443.2803 498.1667,-443.2803 494.3333,-443.2803 490.5,-439.447 490.5,-435.6136 490.5,-435.6136 490.5,-427.947 490.5,-427.947 490.5,-424.1136 494.3333,-420.2803 498.1667,-420.2803 498.1667,-420.2803 610.8333,-420.2803 610.8333,-420.2803 614.6667,-420.2803 618.5,-424.1136 618.5,-427.947 618.5,-427.947 618.5,-435.6136 618.5,-435.6136 618.5,-439.447 614.6667,-443.2803 610.8333,-443.2803"/>
<text text-anchor="middle" x="554.5" y="-428.0803" font-family="Arial" font-size="14.00" fill="#c6c5fe">gui/parameters.js</text>
</g>
<!-- gui/controls.js&#45;&gt;gui/parameters.js -->
<g id="edge33" class="edge">
<title>gui/controls.js&#45;&gt;gui/parameters.js</title>
<path fill="none" stroke="#757575" d="M396.575,-461.7898C422.9364,-456.7805 455.2377,-450.6425 483.7436,-445.2257"/>
<polygon fill="#757575" stroke="#757575" points="484.4814,-448.6482 493.6522,-443.3428 483.1746,-441.7713 484.4814,-448.6482"/>
</g>
<!-- gui/parameters.js&#45;&gt;physics.js -->
<g id="edge45" class="edge">
<title>gui/parameters.js&#45;&gt;physics.js</title>
<path fill="none" stroke="#757575" d="M617.8613,-420.2798C625.8176,-417.9256 633.7132,-415.1184 641,-411.7803 745.6597,-363.8356 764.5974,-335.9732 850,-258.7803 867.7436,-242.7424 864.5162,-229.292 886,-218.7803 963.909,-180.6606 1224.7841,-196.5623 1335.5609,-205.3804"/>
<polygon fill="#757575" stroke="#757575" points="1335.5516,-208.891 1345.8015,-206.2096 1336.1166,-201.9139 1335.5516,-208.891"/>
</g>
<!-- gui/parameters.js&#45;&gt;core.js -->
<g id="edge44" class="edge">
<title>gui/parameters.js&#45;&gt;core.js</title>
<path fill="none" stroke="#757575" d="M575.6902,-443.3386C613.0098,-463.6947 690.556,-505.9927 733.4103,-529.3677"/>
<polygon fill="#757575" stroke="#757575" points="731.7988,-532.4755 742.2537,-534.1914 735.1508,-526.3302 731.7988,-532.4755"/>
</g>
<!-- gui/dat.gui.js -->
<g id="node19" class="node">
<title>gui/dat.gui.js</title>
<path fill="none" stroke="#cfffac" d="M385.3333,-241.2803C385.3333,-241.2803 302.6667,-241.2803 302.6667,-241.2803 298.8333,-241.2803 295,-237.447 295,-233.6136 295,-233.6136 295,-225.947 295,-225.947 295,-222.1136 298.8333,-218.2803 302.6667,-218.2803 302.6667,-218.2803 385.3333,-218.2803 385.3333,-218.2803 389.1667,-218.2803 393,-222.1136 393,-225.947 393,-225.947 393,-233.6136 393,-233.6136 393,-237.447 389.1667,-241.2803 385.3333,-241.2803"/>
<text text-anchor="middle" x="344" y="-226.0803" font-family="Arial" font-size="14.00" fill="#cfffac">gui/dat.gui.js</text>
</g>
<!-- gui/field.js -->
<g id="node20" class="node">
<title>gui/field.js</title>
<path fill="none" stroke="#c6c5fe" d="M376.3333,-541.2803C376.3333,-541.2803 311.6667,-541.2803 311.6667,-541.2803 307.8333,-541.2803 304,-537.447 304,-533.6136 304,-533.6136 304,-525.947 304,-525.947 304,-522.1136 307.8333,-518.2803 311.6667,-518.2803 311.6667,-518.2803 376.3333,-518.2803 376.3333,-518.2803 380.1667,-518.2803 384,-522.1136 384,-525.947 384,-525.947 384,-533.6136 384,-533.6136 384,-537.447 380.1667,-541.2803 376.3333,-541.2803"/>
<text text-anchor="middle" x="344" y="-526.0803" font-family="Arial" font-size="14.00" fill="#c6c5fe">gui/field.js</text>
</g>
<!-- gui/field.js&#45;&gt;core.js -->
<g id="edge36" class="edge">
<title>gui/field.js&#45;&gt;core.js</title>
<path fill="none" stroke="#757575" d="M384.2234,-531.3144C464.4944,-534.376 643.7046,-541.2112 723.6596,-544.2608"/>
<polygon fill="#757575" stroke="#757575" points="723.6847,-547.7642 733.8109,-544.6479 723.9516,-540.7693 723.6847,-547.7642"/>
</g>
<!-- gui/generator.js -->
<g id="node21" class="node">
<title>gui/generator.js</title>
<path fill="none" stroke="#c6c5fe" d="M604.8333,-402.2803C604.8333,-402.2803 504.1667,-402.2803 504.1667,-402.2803 500.3333,-402.2803 496.5,-398.447 496.5,-394.6136 496.5,-394.6136 496.5,-386.947 496.5,-386.947 496.5,-383.1136 500.3333,-379.2803 504.1667,-379.2803 504.1667,-379.2803 604.8333,-379.2803 604.8333,-379.2803 608.6667,-379.2803 612.5,-383.1136 612.5,-386.947 612.5,-386.947 612.5,-394.6136 612.5,-394.6136 612.5,-398.447 608.6667,-402.2803 604.8333,-402.2803"/>
<text text-anchor="middle" x="554.5" y="-387.0803" font-family="Arial" font-size="14.00" fill="#c6c5fe">gui/generator.js</text>
</g>
<!-- gui/generator.js&#45;&gt;physics.js -->
<g id="edge40" class="edge">
<title>gui/generator.js&#45;&gt;physics.js</title>
<path fill="none" stroke="#757575" d="M612.9403,-384.4671C622.9874,-381.4458 632.8137,-377.0757 641,-370.7803 668.1076,-349.9342 653.5014,-327.6238 677,-302.7803 751.5327,-223.9817 781.5026,-205.843 886,-176.7803 1067.5536,-126.2867 1125.4946,-138.4518 1310,-176.7803 1326.0205,-180.1083 1342.809,-186.9942 1356.5201,-193.619"/>
<polygon fill="#757575" stroke="#757575" points="1354.9664,-196.7553 1365.4734,-198.1168 1358.1088,-190.5002 1354.9664,-196.7553"/>
</g>
<!-- gui/generator.js&#45;&gt;helpers.js -->
<g id="edge39" class="edge">
<title>gui/generator.js&#45;&gt;helpers.js</title>
<path fill="none" stroke="#757575" d="M604.0041,-402.3756C616.1322,-405.3328 629.0578,-408.5827 641,-411.7803 684.5074,-423.4298 987.3034,-511.4412 1030,-525.7803 1071.5923,-539.7485 1118.5025,-557.8697 1150.3276,-570.5266"/>
<polygon fill="#757575" stroke="#757575" points="1149.1125,-573.8101 1159.6975,-574.2685 1151.7087,-567.3093 1149.1125,-573.8101"/>
</g>
<!-- gui/generator.js&#45;&gt;core.js -->
<g id="edge38" class="edge">
<title>gui/generator.js&#45;&gt;core.js</title>
<path fill="none" stroke="#757575" d="M612.5438,-397.6441C622.7422,-400.7864 632.7245,-405.3039 641,-411.7803 668.2397,-433.098 654.6209,-454.4057 677,-480.7803 693.3978,-500.1056 716.5381,-517.1156 734.759,-528.8828"/>
<polygon fill="#757575" stroke="#757575" points="732.9287,-531.8663 743.2575,-534.2254 736.6543,-525.94 732.9287,-531.8663"/>
</g>
<!-- gui/generator.js&#45;&gt;components/selection.js -->
<g id="edge37" class="edge">
<title>gui/generator.js&#45;&gt;components/selection.js</title>
<path fill="none" stroke="#757575" d="M612.5194,-387.1472C623.2104,-383.9664 633.3845,-378.8527 641,-370.7803 706.2823,-301.5813 613.9924,-231.0566 677,-159.7803 680.1222,-156.2483 683.704,-153.1874 687.5943,-150.5355"/>
<polygon fill="#757575" stroke="#757575" points="689.6406,-153.3953 696.5453,-145.3594 686.1364,-147.3355 689.6406,-153.3953"/>
</g>
<!-- scenariosHelpers.js -->
<g id="node22" class="node">
<title>scenariosHelpers.js</title>
<path fill="none" stroke="#c6c5fe" d="M1022.3333,-280.2803C1022.3333,-280.2803 893.6667,-280.2803 893.6667,-280.2803 889.8333,-280.2803 886,-276.447 886,-272.6136 886,-272.6136 886,-264.947 886,-264.947 886,-261.1136 889.8333,-257.2803 893.6667,-257.2803 893.6667,-257.2803 1022.3333,-257.2803 1022.3333,-257.2803 1026.1667,-257.2803 1030,-261.1136 1030,-264.947 1030,-264.947 1030,-272.6136 1030,-272.6136 1030,-276.447 1026.1667,-280.2803 1022.3333,-280.2803"/>
<text text-anchor="middle" x="958" y="-265.0803" font-family="Arial" font-size="14.00" fill="#c6c5fe">scenariosHelpers.js</text>
</g>
<!-- gui/generator.js&#45;&gt;scenariosHelpers.js -->
<g id="edge41" class="edge">
<title>gui/generator.js&#45;&gt;scenariosHelpers.js</title>
<path fill="none" stroke="#757575" d="M607.7423,-379.2119C618.7795,-376.6062 630.3021,-373.7325 641,-370.7803 740.2479,-343.3914 854.8173,-304.7481 915.3627,-283.7628"/>
<polygon fill="#757575" stroke="#757575" points="916.6634,-287.0162 924.9601,-280.4272 914.3653,-280.4041 916.6634,-287.0162"/>
</g>
<!-- scenariosHelpers.js&#45;&gt;particle.js -->
<g id="edge57" class="edge">
<title>scenariosHelpers.js&#45;&gt;particle.js</title>
<path fill="none" stroke="#757575" d="M1030.2382,-260.0467C1103.4243,-254.1005 1218.5705,-252.8352 1310,-288.7803 1386.3096,-318.7811 1454.7056,-391.8488 1484.5842,-427.1072"/>
<polygon fill="#757575" stroke="#757575" points="1482.2422,-429.7642 1491.3319,-435.2074 1487.6206,-425.2838 1482.2422,-429.7642"/>
</g>
<!-- scenariosHelpers.js&#45;&gt;helpers.js -->
<g id="edge56" class="edge">
<title>scenariosHelpers.js&#45;&gt;helpers.js</title>
<path fill="none" stroke="#757575" d="M974.7699,-280.3093C990.2827,-291.5083 1013.3844,-309.5909 1030,-328.7803 1098.2101,-407.5561 1155.8284,-519.1115 1178.1205,-564.9176"/>
<polygon fill="#757575" stroke="#757575" points="1175.0693,-566.6485 1182.5615,-574.1397 1181.3762,-563.6114 1175.0693,-566.6485"/>
</g>
<!-- gui/info.js -->
<g id="node23" class="node">
<title>gui/info.js</title>
<path fill="none" stroke="#c6c5fe" d="M585.3333,-637.2803C585.3333,-637.2803 523.6667,-637.2803 523.6667,-637.2803 519.8333,-637.2803 516,-633.447 516,-629.6136 516,-629.6136 516,-621.947 516,-621.947 516,-618.1136 519.8333,-614.2803 523.6667,-614.2803 523.6667,-614.2803 585.3333,-614.2803 585.3333,-614.2803 589.1667,-614.2803 593,-618.1136 593,-621.947 593,-621.947 593,-629.6136 593,-629.6136 593,-633.447 589.1667,-637.2803 585.3333,-637.2803"/>
<text text-anchor="middle" x="554.5" y="-622.0803" font-family="Arial" font-size="14.00" fill="#c6c5fe">gui/info.js</text>
</g>
<!-- gui/info.js&#45;&gt;helpers.js -->
<g id="edge43" class="edge">
<title>gui/info.js&#45;&gt;helpers.js</title>
<path fill="none" stroke="#757575" d="M593.1746,-623.3383C702.8069,-616.416 1015.5828,-596.6669 1138.0049,-588.937"/>
<polygon fill="#757575" stroke="#757575" points="1138.4548,-592.4157 1148.2143,-588.2924 1138.0136,-585.4296 1138.4548,-592.4157"/>
</g>
<!-- gui/info.js&#45;&gt;core.js -->
<g id="edge42" class="edge">
<title>gui/info.js&#45;&gt;core.js</title>
<path fill="none" stroke="#757575" d="M593.1595,-615.2648C608.2262,-610.88 625.5535,-605.4816 641,-599.7803 671.7984,-588.4126 705.9038,-573.1497 730.2907,-561.7508"/>
<polygon fill="#757575" stroke="#757575" points="731.9021,-564.8607 739.4581,-557.4339 728.9198,-558.5278 731.9021,-564.8607"/>
</g>
<!-- gui/particle.js -->
<g id="node24" class="node">
<title>gui/particle.js</title>
<path fill="none" stroke="#c6c5fe" d="M597.3333,-868.2803C597.3333,-868.2803 511.6667,-868.2803 511.6667,-868.2803 507.8333,-868.2803 504,-864.447 504,-860.6136 504,-860.6136 504,-852.947 504,-852.947 504,-849.1136 507.8333,-845.2803 511.6667,-845.2803 511.6667,-845.2803 597.3333,-845.2803 597.3333,-845.2803 601.1667,-845.2803 605,-849.1136 605,-852.947 605,-852.947 605,-860.6136 605,-860.6136 605,-864.447 601.1667,-868.2803 597.3333,-868.2803"/>
<text text-anchor="middle" x="554.5" y="-853.0803" font-family="Arial" font-size="14.00" fill="#c6c5fe">gui/particle.js</text>
</g>
<!-- gui/particle.js&#45;&gt;particle.js -->
<g id="edge48" class="edge">
<title>gui/particle.js&#45;&gt;particle.js</title>
<path fill="none" stroke="#757575" d="M605.2209,-867.9032C627.1844,-872.3037 653.2543,-876.9727 677,-879.7803 801.1788,-894.4625 832.9562,-893.7803 958,-893.7803 958,-893.7803 958,-893.7803 1188,-893.7803 1397.9719,-893.7803 1478.6598,-558.3837 1496.4913,-468.6414"/>
<polygon fill="#757575" stroke="#757575" points="1499.9445,-469.218 1498.3993,-458.7365 1493.0709,-467.8939 1499.9445,-469.218"/>
</g>
<!-- gui/particle.js&#45;&gt;helpers.js -->
<g id="edge47" class="edge">
<title>gui/particle.js&#45;&gt;helpers.js</title>
<path fill="none" stroke="#757575" d="M605.2709,-866.488C697.1645,-881.2673 894.1254,-899.8994 1030,-819.7803 1114.596,-769.8978 1163.5521,-654.773 1180.8395,-607.0759"/>
<polygon fill="#757575" stroke="#757575" points="1184.2024,-608.0632 1184.2201,-597.4684 1177.5992,-605.7397 1184.2024,-608.0632"/>
</g>
<!-- gui/particle.js&#45;&gt;core.js -->
<g id="edge46" class="edge">
<title>gui/particle.js&#45;&gt;core.js</title>
<path fill="none" stroke="#757575" d="M605.3087,-853.2256C618.0745,-850.2579 630.9776,-845.2184 641,-836.7803 726.7333,-764.5995 753.6607,-622.0978 761.0283,-567.6414"/>
<polygon fill="#757575" stroke="#757575" points="764.5393,-567.7736 762.3178,-557.4143 757.5943,-566.8979 764.5393,-567.7736"/>
</g>
<!-- gui/selection.js -->
<g id="node25" class="node">
<title>gui/selection.js</title>
<path fill="none" stroke="#c6c5fe" d="M602.8333,-361.2803C602.8333,-361.2803 506.1667,-361.2803 506.1667,-361.2803 502.3333,-361.2803 498.5,-357.447 498.5,-353.6136 498.5,-353.6136 498.5,-345.947 498.5,-345.947 498.5,-342.1136 502.3333,-338.2803 506.1667,-338.2803 506.1667,-338.2803 602.8333,-338.2803 602.8333,-338.2803 606.6667,-338.2803 610.5,-342.1136 610.5,-345.947 610.5,-345.947 610.5,-353.6136 610.5,-353.6136 610.5,-357.447 606.6667,-361.2803 602.8333,-361.2803"/>
<text text-anchor="middle" x="554.5" y="-346.0803" font-family="Arial" font-size="14.00" fill="#c6c5fe">gui/selection.js</text>
</g>
<!-- gui/selection.js&#45;&gt;components/csv.js -->
<g id="edge49" class="edge">
<title>gui/selection.js&#45;&gt;components/csv.js</title>
<path fill="none" stroke="#757575" d="M556.6025,-338.1804C564.382,-298.9212 595.4219,-170.2933 677,-112.7803 708.6379,-90.4754 807.4502,-81.2344 878.9642,-77.4241"/>
<polygon fill="#757575" stroke="#757575" points="879.4959,-80.9018 889.3061,-76.9004 879.1418,-73.9107 879.4959,-80.9018"/>
</g>
<!-- gui/selection.js&#45;&gt;helpers.js -->
<g id="edge52" class="edge">
<title>gui/selection.js&#45;&gt;helpers.js</title>
<path fill="none" stroke="#757575" d="M610.5098,-355.3515C671.7711,-363.0802 771.6656,-380.5557 850,-417.7803 868.3078,-426.4802 867.7748,-436.9087 886,-445.7803 945.3156,-474.6536 969.5918,-455.2691 1030,-481.7803 1082.2756,-504.7224 1136.4122,-544.4633 1165.7768,-567.6089"/>
<polygon fill="#757575" stroke="#757575" points="1163.7224,-570.4473 1173.7229,-573.946 1168.087,-564.9746 1163.7224,-570.4473"/>
</g>
<!-- gui/selection.js&#45;&gt;core.js -->
<g id="edge51" class="edge">
<title>gui/selection.js&#45;&gt;core.js</title>
<path fill="none" stroke="#757575" d="M610.5341,-357.1367C621.2504,-360.2224 631.9389,-364.593 641,-370.7803 699.2291,-410.5417 738.5345,-487.7677 754.9073,-524.8791"/>
<polygon fill="#757575" stroke="#757575" points="751.7547,-526.4081 758.9138,-534.2182 758.1877,-523.6483 751.7547,-526.4081"/>
</g>
<!-- gui/selection.js&#45;&gt;components/selection.js -->
<g id="edge50" class="edge">
<title>gui/selection.js&#45;&gt;components/selection.js</title>
<path fill="none" stroke="#757575" d="M610.6402,-342.258C621.984,-338.3634 632.8988,-332.521 641,-323.7803 691.7273,-269.0488 626.2727,-214.5118 677,-159.7803 680.3544,-156.1611 684.1912,-153.0388 688.3411,-150.3459"/>
<polygon fill="#757575" stroke="#757575" points="690.2026,-153.3157 697.2448,-145.4 686.8034,-147.1964 690.2026,-153.3157"/>
</g>
<!-- gui/stats.js -->
<g id="node26" class="node">
<title>gui/stats.js</title>
<path fill="none" stroke="#cfffac" d="M378.8333,-200.2803C378.8333,-200.2803 309.1667,-200.2803 309.1667,-200.2803 305.3333,-200.2803 301.5,-196.447 301.5,-192.6136 301.5,-192.6136 301.5,-184.947 301.5,-184.947 301.5,-181.1136 305.3333,-177.2803 309.1667,-177.2803 309.1667,-177.2803 378.8333,-177.2803 378.8333,-177.2803 382.6667,-177.2803 386.5,-181.1136 386.5,-184.947 386.5,-184.947 386.5,-192.6136 386.5,-192.6136 386.5,-196.447 382.6667,-200.2803 378.8333,-200.2803"/>
<text text-anchor="middle" x="344" y="-185.0803" font-family="Arial" font-size="14.00" fill="#cfffac">gui/stats.js</text>
</g>
<!-- main.js -->
<g id="node27" class="node">
<title>main.js</title>
<path fill="none" stroke="#c6c5fe" d="M85.8333,-483.2803C85.8333,-483.2803 39.1667,-483.2803 39.1667,-483.2803 35.3333,-483.2803 31.5,-479.447 31.5,-475.6136 31.5,-475.6136 31.5,-467.947 31.5,-467.947 31.5,-464.1136 35.3333,-460.2803 39.1667,-460.2803 39.1667,-460.2803 85.8333,-460.2803 85.8333,-460.2803 89.6667,-460.2803 93.5,-464.1136 93.5,-467.947 93.5,-467.947 93.5,-475.6136 93.5,-475.6136 93.5,-479.447 89.6667,-483.2803 85.8333,-483.2803"/>
<text text-anchor="middle" x="62.5" y="-468.0803" font-family="Arial" font-size="14.00" fill="#c6c5fe">main.js</text>
</g>
<!-- view.js -->
<g id="node28" class="node">
<title>view.js</title>
<path fill="none" stroke="#c6c5fe" d="M212.3333,-483.2803C212.3333,-483.2803 168.6667,-483.2803 168.6667,-483.2803 164.8333,-483.2803 161,-479.447 161,-475.6136 161,-475.6136 161,-467.947 161,-467.947 161,-464.1136 164.8333,-460.2803 168.6667,-460.2803 168.6667,-460.2803 212.3333,-460.2803 212.3333,-460.2803 216.1667,-460.2803 220,-464.1136 220,-467.947 220,-467.947 220,-475.6136 220,-475.6136 220,-479.447 216.1667,-483.2803 212.3333,-483.2803"/>
<text text-anchor="middle" x="190.5" y="-468.0803" font-family="Arial" font-size="14.00" fill="#c6c5fe">view.js</text>
</g>
<!-- main.js&#45;&gt;view.js -->
<g id="edge54" class="edge">
<title>main.js&#45;&gt;view.js</title>
<path fill="none" stroke="#757575" d="M93.8123,-471.7803C110.9681,-471.7803 132.4075,-471.7803 150.7355,-471.7803"/>
<polygon fill="#757575" stroke="#757575" points="150.8302,-475.2804 160.8301,-471.7803 150.8301,-468.2804 150.8302,-475.2804"/>
</g>
<!-- view.js&#45;&gt;components/keyboard.js -->
<g id="edge58" class="edge">
<title>view.js&#45;&gt;components/keyboard.js</title>
<path fill="none" stroke="#757575" d="M191.38,-460.0312C194.3649,-428.7213 206.8645,-342.5517 256,-296.7803 260.0798,-292.9798 264.689,-289.7325 269.6064,-286.9582"/>
<polygon fill="#757575" stroke="#757575" points="271.3188,-290.0164 278.7431,-282.4579 268.2258,-283.7368 271.3188,-290.0164"/>
</g>
<!-- view.js&#45;&gt;components/mouse.js -->
<g id="edge59" class="edge">
<title>view.js&#45;&gt;components/mouse.js</title>
<path fill="none" stroke="#757575" d="M191.287,-483.2839C195.0947,-535.7719 213.2004,-752.1125 256,-801.7803 359.6944,-922.1147 557.7954,-939.735 673.4411,-938.7553"/>
<polygon fill="#757575" stroke="#757575" points="673.7297,-942.2519 683.6818,-938.6181 673.6358,-935.2525 673.7297,-942.2519"/>
</g>
<!-- view.js&#45;&gt;components/ruler.js -->
<g id="edge60" class="edge">
<title>view.js&#45;&gt;components/ruler.js</title>
<path fill="none" stroke="#757575" d="M191.4278,-483.5051C194.6049,-516.5913 207.6919,-612.0865 256,-670.7803 316.371,-744.1304 422.8102,-783.1464 490.9262,-801.6271"/>
<polygon fill="#757575" stroke="#757575" points="490.1256,-805.0356 500.688,-804.2064 491.9139,-798.2679 490.1256,-805.0356"/>
</g>
<!-- view.js&#45;&gt;core.js -->
<g id="edge62" class="edge">
<title>view.js&#45;&gt;core.js</title>
<path fill="none" stroke="#757575" d="M195.944,-483.3887C205.2654,-501.7097 226.2022,-536.6925 256,-550.7803 415.1865,-626.0404 635.0967,-580.7553 723.9248,-557.2633"/>
<polygon fill="#757575" stroke="#757575" points="725.1056,-560.5699 733.8476,-554.5842 723.281,-553.8119 725.1056,-560.5699"/>
</g>
<!-- view.js&#45;&gt;components/selection.js -->
<g id="edge61" class="edge">
<title>view.js&#45;&gt;components/selection.js</title>
<path fill="none" stroke="#757575" d="M193.0289,-460.0794C199.1544,-434.5977 217.2265,-373.81 256,-341.7803 318.6932,-289.9912 356.65,-322.3569 432,-291.7803 546.6104,-245.272 562.7461,-207.1576 677,-159.7803 687.2029,-155.5495 698.3398,-151.6785 709.1243,-148.2896"/>
<polygon fill="#757575" stroke="#757575" points="710.3449,-151.5767 718.8924,-145.3165 708.3065,-144.8801 710.3449,-151.5767"/>
</g>
<!-- view.js&#45;&gt;gui/advancedControls.js -->
<g id="edge63" class="edge">
<title>view.js&#45;&gt;gui/advancedControls.js</title>
<path fill="none" stroke="#757575" d="M191.3192,-483.587C194.129,-514.1404 206.1867,-596.0425 256,-633.7803 316.8496,-679.8791 405.7388,-684.0411 470.6886,-679.1574"/>
<polygon fill="#757575" stroke="#757575" points="471.2268,-682.6247 480.8992,-678.301 470.6416,-675.6492 471.2268,-682.6247"/>
</g>
<!-- view.js&#45;&gt;gui/controls.js -->
<g id="edge64" class="edge">
<title>view.js&#45;&gt;gui/controls.js</title>
<path fill="none" stroke="#757575" d="M220.0963,-471.7803C237.4658,-471.7803 260.096,-471.7803 281.256,-471.7803"/>
<polygon fill="#757575" stroke="#757575" points="281.4961,-475.2804 291.4961,-471.7803 281.496,-468.2804 281.4961,-475.2804"/>
</g>
<!-- view.js&#45;&gt;gui/parameters.js -->
<g id="edge69" class="edge">
<title>view.js&#45;&gt;gui/parameters.js</title>
<path fill="none" stroke="#757575" d="M220.1417,-461.1535C231.2507,-457.5909 244.0719,-453.9709 256,-451.7803 331.4548,-437.923 419.2088,-433.3983 479.9507,-432.05"/>
<polygon fill="#757575" stroke="#757575" points="480.2852,-435.5441 490.2139,-431.8467 480.1465,-428.5455 480.2852,-435.5441"/>
</g>
<!-- view.js&#45;&gt;gui/dat.gui.js -->
<g id="edge65" class="edge">
<title>view.js&#45;&gt;gui/dat.gui.js</title>
<path fill="none" stroke="#757575" d="M192.4029,-460.0351C199.3338,-418.6726 224.4821,-280.6442 256,-250.7803 264.0309,-243.1708 274.3046,-238.1589 284.9788,-234.8913"/>
<polygon fill="#757575" stroke="#757575" points="286.0276,-238.2356 294.8415,-232.3564 284.285,-231.456 286.0276,-238.2356"/>
</g>
<!-- view.js&#45;&gt;gui/field.js -->
<g id="edge66" class="edge">
<title>view.js&#45;&gt;gui/field.js</title>
<path fill="none" stroke="#757575" d="M220.0963,-482.9633C243.8896,-491.9536 277.5541,-504.6737 303.789,-514.5865"/>
<polygon fill="#757575" stroke="#757575" points="302.8522,-517.9741 313.4439,-518.2347 305.3265,-511.4259 302.8522,-517.9741"/>
</g>
<!-- view.js&#45;&gt;gui/generator.js -->
<g id="edge67" class="edge">
<title>view.js&#45;&gt;gui/generator.js</title>
<path fill="none" stroke="#757575" d="M204.5973,-460.1038C217.2374,-450.3083 236.7123,-436.8219 256,-429.7803 331.6868,-402.1483 424.4694,-393.6533 486.3081,-391.2672"/>
<polygon fill="#757575" stroke="#757575" points="486.4656,-394.7639 496.3398,-390.9232 486.2257,-387.768 486.4656,-394.7639"/>
</g>
<!-- view.js&#45;&gt;gui/info.js -->
<g id="edge68" class="edge">
<title>view.js&#45;&gt;gui/info.js</title>
<path fill="none" stroke="#757575" d="M192.5856,-483.4742C197.9008,-509.4604 214.5803,-571.9063 256,-599.7803 331.2207,-650.4012 442.3843,-644.1443 505.6788,-634.9943"/>
<polygon fill="#757575" stroke="#757575" points="506.4339,-638.4196 515.7902,-633.4486 505.3761,-631.5 506.4339,-638.4196"/>
</g>
<!-- view.js&#45;&gt;gui/particle.js -->
<g id="edge70" class="edge">
<title>view.js&#45;&gt;gui/particle.js</title>
<path fill="none" stroke="#757575" d="M191.9989,-483.4166C198.126,-529.4335 222.5382,-698.1692 256,-738.7803 315.4061,-810.8788 425.0159,-839.1518 493.601,-850.0795"/>
<polygon fill="#757575" stroke="#757575" points="493.4151,-853.5913 503.8267,-851.6289 494.4639,-846.6703 493.4151,-853.5913"/>
</g>
<!-- view.js&#45;&gt;gui/selection.js -->
<g id="edge71" class="edge">
<title>view.js&#45;&gt;gui/selection.js</title>
<path fill="none" stroke="#757575" d="M196.0507,-460.1878C205.5219,-441.8124 226.6647,-406.3826 256,-389.7803 327.769,-349.1628 424.407,-343.4108 488.0294,-344.9807"/>
<polygon fill="#757575" stroke="#757575" points="488.2325,-348.4888 498.338,-345.3062 488.4535,-341.4923 488.2325,-348.4888"/>
</g>
<!-- view.js&#45;&gt;gui/stats.js -->
<g id="edge72" class="edge">
<title>view.js&#45;&gt;gui/stats.js</title>
<path fill="none" stroke="#757575" d="M191.8094,-460.1602C197.2149,-414.2373 219.2529,-246.1354 256,-209.7803 265.5205,-200.3613 278.4614,-194.887 291.4879,-191.7746"/>
<polygon fill="#757575" stroke="#757575" points="292.2713,-195.1877 301.4109,-189.8287 290.9242,-188.3186 292.2713,-195.1877"/>
</g>
<!-- mock/graphics.js -->
<g id="node29" class="node">
<title>mock/graphics.js</title>
<path fill="none" stroke="#cfffac" d="M117.3333,-524.2803C117.3333,-524.2803 7.6667,-524.2803 7.6667,-524.2803 3.8333,-524.2803 0,-520.447 0,-516.6136 0,-516.6136 0,-508.947 0,-508.947 0,-505.1136 3.8333,-501.2803 7.6667,-501.2803 7.6667,-501.2803 117.3333,-501.2803 117.3333,-501.2803 121.1667,-501.2803 125,-505.1136 125,-508.947 125,-508.947 125,-516.6136 125,-516.6136 125,-520.447 121.1667,-524.2803 117.3333,-524.2803"/>
<text text-anchor="middle" x="62.5" y="-509.0803" font-family="Arial" font-size="14.00" fill="#cfffac">mock/graphics.js</text>
</g>
</g>
</svg>
