<?xml version="1.0" encoding="UTF-8" standalone="no"?>
<!DOCTYPE svg PUBLIC "-//W3C//DTD SVG 1.1//EN"
 "http://www.w3.org/Graphics/SVG/1.1/DTD/svg11.dtd">
<!-- Generated by graphviz version 2.43.0 (0)
 -->
<!-- Title: G Pages: 1 -->
<svg width="2085pt" height="1399pt"
 viewBox="0.00 0.00 2085.20 1398.70" xmlns="http://www.w3.org/2000/svg" xmlns:xlink="http://www.w3.org/1999/xlink">
<g id="graph0" class="graph" transform="scale(1 1) rotate(0) translate(21.6 1377.1)">
<title>G</title>
<polygon fill="#111111" stroke="transparent" points="-21.6,21.6 -21.6,-1377.1 2063.6,-1377.1 2063.6,21.6 -21.6,21.6"/>
<!-- main.js -->
<g id="node1" class="node">
<title>main.js</title>
<path fill="none" stroke="#c6c5fe" d="M52.33,-779C52.33,-779 7.67,-779 7.67,-779 3.83,-779 0,-775.17 0,-771.33 0,-771.33 0,-763.67 0,-763.67 0,-759.83 3.83,-756 7.67,-756 7.67,-756 52.33,-756 52.33,-756 56.17,-756 60,-759.83 60,-763.67 60,-763.67 60,-771.33 60,-771.33 60,-775.17 56.17,-779 52.33,-779"/>
<text text-anchor="middle" x="30" y="-763.8" font-family="Arial" font-size="14.00" fill="#c6c5fe">main.js</text>
</g>
<!-- simulation/view.js -->
<g id="node2" class="node">
<title>simulation/view.js</title>
<path fill="none" stroke="#c6c5fe" d="M210.33,-600C210.33,-600 103.67,-600 103.67,-600 99.83,-600 96,-596.17 96,-592.33 96,-592.33 96,-584.67 96,-584.67 96,-580.83 99.83,-577 103.67,-577 103.67,-577 210.33,-577 210.33,-577 214.17,-577 218,-580.83 218,-584.67 218,-584.67 218,-592.33 218,-592.33 218,-596.17 214.17,-600 210.33,-600"/>
<text text-anchor="middle" x="157" y="-584.8" font-family="Arial" font-size="14.00" fill="#c6c5fe">simulation/view.js</text>
</g>
<!-- main.js&#45;&gt;simulation/view.js -->
<g id="edge1" class="edge">
<title>main.js&#45;&gt;simulation/view.js</title>
<path fill="none" stroke="#757575" d="M39.2,-755.76C60.13,-725.78 115.72,-646.19 141.94,-608.64"/>
<polygon fill="#757575" stroke="#757575" points="145.07,-610.26 147.93,-600.06 139.34,-606.25 145.07,-610.26"/>
</g>
<!-- ui/App.jsx -->
<g id="node3" class="node">
<title>ui/App.jsx</title>
<path fill="none" stroke="#c6c5fe" d="M919.33,-958C919.33,-958 859.67,-958 859.67,-958 855.83,-958 852,-954.17 852,-950.33 852,-950.33 852,-942.67 852,-942.67 852,-938.83 855.83,-935 859.67,-935 859.67,-935 919.33,-935 919.33,-935 923.17,-935 927,-938.83 927,-942.67 927,-942.67 927,-950.33 927,-950.33 927,-954.17 923.17,-958 919.33,-958"/>
<text text-anchor="middle" x="889.5" y="-942.8" font-family="Arial" font-size="14.00" fill="#c6c5fe">ui/App.jsx</text>
</g>
<!-- main.js&#45;&gt;ui/App.jsx -->
<g id="edge2" class="edge">
<title>main.js&#45;&gt;ui/App.jsx</title>
<path fill="none" stroke="#757575" d="M40.06,-779.05C67.65,-813.17 154.84,-913.32 254,-948.5 462.44,-1022.44 734.2,-979.17 841.76,-957.06"/>
<polygon fill="#757575" stroke="#757575" points="842.57,-960.47 851.64,-954.99 841.14,-953.62 842.57,-960.47"/>
</g>
<!-- simulation/view.js&#45;&gt;ui/App.jsx -->
<g id="edge76" class="edge">
<title>simulation/view.js&#45;&gt;ui/App.jsx</title>
<path fill="none" stroke="#757575" d="M159.47,-600.02C164.77,-636.83 186.35,-752.64 254,-812.5 342.25,-890.58 710.42,-930.57 841.73,-942.55"/>
<polygon fill="#757575" stroke="#757575" points="841.59,-946.05 851.86,-943.46 842.22,-939.08 841.59,-946.05"/>
</g>
<!-- simulation/components/keyboard.js -->
<g id="node4" class="node">
<title>simulation/components/keyboard.js</title>
<path fill="none" stroke="#cfffac" d="M475.33,-23C475.33,-23 261.67,-23 261.67,-23 257.83,-23 254,-19.17 254,-15.33 254,-15.33 254,-7.67 254,-7.67 254,-3.83 257.83,0 261.67,0 261.67,0 475.33,0 475.33,0 479.17,0 483,-3.83 483,-7.67 483,-7.67 483,-15.33 483,-15.33 483,-19.17 479.17,-23 475.33,-23"/>
<text text-anchor="middle" x="368.5" y="-7.8" font-family="Arial" font-size="14.00" fill="#cfffac">simulation/components/keyboard.js</text>
</g>
<!-- simulation/view.js&#45;&gt;simulation/components/keyboard.js -->
<g id="edge61" class="edge">
<title>simulation/view.js&#45;&gt;simulation/components/keyboard.js</title>
<path fill="none" stroke="#757575" d="M158.34,-576.57C160.69,-503.69 176.65,-119.04 254,-37.5 257.26,-34.07 260.87,-31.04 264.74,-28.38"/>
<polygon fill="#757575" stroke="#757575" points="266.79,-31.24 273.6,-23.13 263.22,-25.22 266.79,-31.24"/>
</g>
<!-- simulation/components/mouse.js -->
<g id="node5" class="node">
<title>simulation/components/mouse.js</title>
<path fill="none" stroke="#c6c5fe" d="M989.33,-179C989.33,-179 789.67,-179 789.67,-179 785.83,-179 782,-175.17 782,-171.33 782,-171.33 782,-163.67 782,-163.67 782,-159.83 785.83,-156 789.67,-156 789.67,-156 989.33,-156 989.33,-156 993.17,-156 997,-159.83 997,-163.67 997,-163.67 997,-171.33 997,-171.33 997,-175.17 993.17,-179 989.33,-179"/>
<text text-anchor="middle" x="889.5" y="-163.8" font-family="Arial" font-size="14.00" fill="#c6c5fe">simulation/components/mouse.js</text>
</g>
<!-- simulation/view.js&#45;&gt;simulation/components/mouse.js -->
<g id="edge62" class="edge">
<title>simulation/view.js&#45;&gt;simulation/components/mouse.js</title>
<path fill="none" stroke="#757575" d="M157.46,-576.88C155.99,-529.86 157.21,-352.1 254,-267.5 408.77,-132.23 669.6,-139.91 803.53,-154.82"/>
<polygon fill="#757575" stroke="#757575" points="803.4,-158.32 813.74,-155.99 804.2,-151.37 803.4,-158.32"/>
</g>
<!-- simulation/components/ruler.js -->
<g id="node7" class="node">
<title>simulation/components/ruler.js</title>
<path fill="none" stroke="#c6c5fe" d="M724.83,-290C724.83,-290 540.17,-290 540.17,-290 536.33,-290 532.5,-286.17 532.5,-282.33 532.5,-282.33 532.5,-274.67 532.5,-274.67 532.5,-270.83 536.33,-267 540.17,-267 540.17,-267 724.83,-267 724.83,-267 728.67,-267 732.5,-270.83 732.5,-274.67 732.5,-274.67 732.5,-282.33 732.5,-282.33 732.5,-286.17 728.67,-290 724.83,-290"/>
<text text-anchor="middle" x="632.5" y="-274.8" font-family="Arial" font-size="14.00" fill="#c6c5fe">simulation/components/ruler.js</text>
</g>
<!-- simulation/view.js&#45;&gt;simulation/components/ruler.js -->
<g id="edge63" class="edge">
<title>simulation/view.js&#45;&gt;simulation/components/ruler.js</title>
<path fill="none" stroke="#757575" d="M158.7,-576.99C161.76,-537.4 177.52,-405.85 254,-343.5 328.72,-282.59 439.85,-269.82 522.21,-270.2"/>
<polygon fill="#757575" stroke="#757575" points="522.32,-273.7 532.36,-270.31 522.4,-266.7 522.32,-273.7"/>
</g>
<!-- simulation/core.js -->
<g id="node8" class="node">
<title>simulation/core.js</title>
<path fill="none" stroke="#c6c5fe" d="M942.83,-622C942.83,-622 836.17,-622 836.17,-622 832.33,-622 828.5,-618.17 828.5,-614.33 828.5,-614.33 828.5,-606.67 828.5,-606.67 828.5,-602.83 832.33,-599 836.17,-599 836.17,-599 942.83,-599 942.83,-599 946.67,-599 950.5,-602.83 950.5,-606.67 950.5,-606.67 950.5,-614.33 950.5,-614.33 950.5,-618.17 946.67,-622 942.83,-622"/>
<text text-anchor="middle" x="889.5" y="-606.8" font-family="Arial" font-size="14.00" fill="#c6c5fe">simulation/core.js</text>
</g>
<!-- simulation/view.js&#45;&gt;simulation/core.js -->
<g id="edge65" class="edge">
<title>simulation/view.js&#45;&gt;simulation/core.js</title>
<path fill="none" stroke="#757575" d="M218.06,-579.5C324.88,-565.03 554.68,-540.89 746,-568.5 781.62,-573.64 820.75,-585.66 848.98,-595.52"/>
<polygon fill="#757575" stroke="#757575" points="847.89,-598.85 858.49,-598.91 850.24,-592.26 847.89,-598.85"/>
</g>
<!-- simulation/components/selection.js -->
<g id="node9" class="node">
<title>simulation/components/selection.js</title>
<path fill="none" stroke="#c6c5fe" d="M738.33,-680C738.33,-680 526.67,-680 526.67,-680 522.83,-680 519,-676.17 519,-672.33 519,-672.33 519,-664.67 519,-664.67 519,-660.83 522.83,-657 526.67,-657 526.67,-657 738.33,-657 738.33,-657 742.17,-657 746,-660.83 746,-664.67 746,-664.67 746,-672.33 746,-672.33 746,-676.17 742.17,-680 738.33,-680"/>
<text text-anchor="middle" x="632.5" y="-664.8" font-family="Arial" font-size="14.00" fill="#c6c5fe">simulation/components/selection.js</text>
</g>
<!-- simulation/view.js&#45;&gt;simulation/components/selection.js -->
<g id="edge64" class="edge">
<title>simulation/view.js&#45;&gt;simulation/components/selection.js</title>
<path fill="none" stroke="#757575" d="M171.16,-600.06C188.68,-614.64 221.26,-639.08 254,-649.5 336.28,-675.69 433.72,-679.98 508.99,-677.96"/>
<polygon fill="#757575" stroke="#757575" points="509.1,-681.46 518.99,-677.65 508.89,-674.46 509.1,-681.46"/>
</g>
<!-- simulation/particle.js -->
<g id="node10" class="node">
<title>simulation/particle.js</title>
<path fill="none" stroke="#cfffac" d="M1996.33,-644C1996.33,-644 1872.67,-644 1872.67,-644 1868.83,-644 1865,-640.17 1865,-636.33 1865,-636.33 1865,-628.67 1865,-628.67 1865,-624.83 1868.83,-621 1872.67,-621 1872.67,-621 1996.33,-621 1996.33,-621 2000.17,-621 2004,-624.83 2004,-628.67 2004,-628.67 2004,-636.33 2004,-636.33 2004,-640.17 2000.17,-644 1996.33,-644"/>
<text text-anchor="middle" x="1934.5" y="-628.8" font-family="Arial" font-size="14.00" fill="#cfffac">simulation/particle.js</text>
</g>
<!-- simulation/view.js&#45;&gt;simulation/particle.js -->
<g id="edge75" class="edge">
<title>simulation/view.js&#45;&gt;simulation/particle.js</title>
<path fill="none" stroke="#757575" d="M159.03,-577C164.79,-515.47 194.76,-225.69 254,-162.5 373.6,-34.91 456.62,-51.5 631.5,-51.5 631.5,-51.5 631.5,-51.5 1403,-51.5 1584.04,-51.5 1663.44,-47.04 1791,-175.5 1916.62,-302.01 1931.77,-537.41 1933.38,-610.36"/>
<polygon fill="#757575" stroke="#757575" points="1929.89,-610.69 1933.54,-620.63 1936.89,-610.58 1929.89,-610.69"/>
</g>
<!-- simulation/gui/advanced.js -->
<g id="node18" class="node">
<title>simulation/gui/advanced.js</title>
<path fill="none" stroke="#c6c5fe" d="M712.83,-520C712.83,-520 552.17,-520 552.17,-520 548.33,-520 544.5,-516.17 544.5,-512.33 544.5,-512.33 544.5,-504.67 544.5,-504.67 544.5,-500.83 548.33,-497 552.17,-497 552.17,-497 712.83,-497 712.83,-497 716.67,-497 720.5,-500.83 720.5,-504.67 720.5,-504.67 720.5,-512.33 720.5,-512.33 720.5,-516.17 716.67,-520 712.83,-520"/>
<text text-anchor="middle" x="632.5" y="-504.8" font-family="Arial" font-size="14.00" fill="#c6c5fe">simulation/gui/advanced.js</text>
</g>
<!-- simulation/view.js&#45;&gt;simulation/gui/advanced.js -->
<g id="edge66" class="edge">
<title>simulation/view.js&#45;&gt;simulation/gui/advanced.js</title>
<path fill="none" stroke="#757575" d="M173.65,-576.78C191.87,-563.84 223.4,-543.65 254,-534.5 346.31,-506.9 456.75,-502.39 534.26,-503.57"/>
<polygon fill="#757575" stroke="#757575" points="534.43,-507.07 544.49,-503.76 534.56,-500.08 534.43,-507.07"/>
</g>
<!-- simulation/gui/controls.js -->
<g id="node19" class="node">
<title>simulation/gui/controls.js</title>
<path fill="none" stroke="#c6c5fe" d="M706.83,-762C706.83,-762 558.17,-762 558.17,-762 554.33,-762 550.5,-758.17 550.5,-754.33 550.5,-754.33 550.5,-746.67 550.5,-746.67 550.5,-742.83 554.33,-739 558.17,-739 558.17,-739 706.83,-739 706.83,-739 710.67,-739 714.5,-742.83 714.5,-746.67 714.5,-746.67 714.5,-754.33 714.5,-754.33 714.5,-758.17 710.67,-762 706.83,-762"/>
<text text-anchor="middle" x="632.5" y="-746.8" font-family="Arial" font-size="14.00" fill="#c6c5fe">simulation/gui/controls.js</text>
</g>
<!-- simulation/view.js&#45;&gt;simulation/gui/controls.js -->
<g id="edge67" class="edge">
<title>simulation/view.js&#45;&gt;simulation/gui/controls.js</title>
<path fill="none" stroke="#757575" d="M163.14,-600.2C174.99,-625.55 206.84,-685.4 254,-711.5 342.17,-760.3 459.75,-764.71 540.11,-760.35"/>
<polygon fill="#757575" stroke="#757575" points="540.44,-763.84 550.21,-759.75 540.02,-756.85 540.44,-763.84"/>
</g>
<!-- simulation/gui/field.js -->
<g id="node20" class="node">
<title>simulation/gui/field.js</title>
<path fill="none" stroke="#c6c5fe" d="M695.83,-721C695.83,-721 569.17,-721 569.17,-721 565.33,-721 561.5,-717.17 561.5,-713.33 561.5,-713.33 561.5,-705.67 561.5,-705.67 561.5,-701.83 565.33,-698 569.17,-698 569.17,-698 695.83,-698 695.83,-698 699.67,-698 703.5,-701.83 703.5,-705.67 703.5,-705.67 703.5,-713.33 703.5,-713.33 703.5,-717.17 699.67,-721 695.83,-721"/>
<text text-anchor="middle" x="632.5" y="-705.8" font-family="Arial" font-size="14.00" fill="#c6c5fe">simulation/gui/field.js</text>
</g>
<!-- simulation/view.js&#45;&gt;simulation/gui/field.js -->
<g id="edge68" class="edge">
<title>simulation/view.js&#45;&gt;simulation/gui/field.js</title>
<path fill="none" stroke="#757575" d="M166.21,-600.03C181.11,-619.9 214.71,-660.14 254,-677.5 349.58,-719.73 471.91,-721.87 550.98,-717.42"/>
<polygon fill="#757575" stroke="#757575" points="551.6,-720.88 561.36,-716.78 551.17,-713.9 551.6,-720.88"/>
</g>
<!-- simulation/gui/generator.js -->
<g id="node21" class="node">
<title>simulation/gui/generator.js</title>
<path fill="none" stroke="#c6c5fe" d="M447.83,-480C447.83,-480 289.17,-480 289.17,-480 285.33,-480 281.5,-476.17 281.5,-472.33 281.5,-472.33 281.5,-464.67 281.5,-464.67 281.5,-460.83 285.33,-457 289.17,-457 289.17,-457 447.83,-457 447.83,-457 451.67,-457 455.5,-460.83 455.5,-464.67 455.5,-464.67 455.5,-472.33 455.5,-472.33 455.5,-476.17 451.67,-480 447.83,-480"/>
<text text-anchor="middle" x="368.5" y="-464.8" font-family="Arial" font-size="14.00" fill="#c6c5fe">simulation/gui/generator.js</text>
</g>
<!-- simulation/view.js&#45;&gt;simulation/gui/generator.js -->
<g id="edge69" class="edge">
<title>simulation/view.js&#45;&gt;simulation/gui/generator.js</title>
<path fill="none" stroke="#757575" d="M166.63,-576.74C181.9,-556.8 215.75,-516.47 254,-495.5 263.31,-490.39 273.58,-486.25 284.01,-482.88"/>
<polygon fill="#757575" stroke="#757575" points="285.03,-486.22 293.61,-480 283.03,-479.52 285.03,-486.22"/>
</g>
<!-- simulation/gui/info.js -->
<g id="node23" class="node">
<title>simulation/gui/info.js</title>
<path fill="none" stroke="#c6c5fe" d="M694.33,-331C694.33,-331 570.67,-331 570.67,-331 566.83,-331 563,-327.17 563,-323.33 563,-323.33 563,-315.67 563,-315.67 563,-311.83 566.83,-308 570.67,-308 570.67,-308 694.33,-308 694.33,-308 698.17,-308 702,-311.83 702,-315.67 702,-315.67 702,-323.33 702,-323.33 702,-327.17 698.17,-331 694.33,-331"/>
<text text-anchor="middle" x="632.5" y="-315.8" font-family="Arial" font-size="14.00" fill="#c6c5fe">simulation/gui/info.js</text>
</g>
<!-- simulation/view.js&#45;&gt;simulation/gui/info.js -->
<g id="edge70" class="edge">
<title>simulation/view.js&#45;&gt;simulation/gui/info.js</title>
<path fill="none" stroke="#757575" d="M162.96,-576.99C174.87,-550.62 207.58,-485.3 254,-448.5 342.32,-378.5 470.87,-345.37 552.83,-330.52"/>
<polygon fill="#757575" stroke="#757575" points="553.6,-333.94 562.84,-328.76 552.38,-327.04 553.6,-333.94"/>
</g>
<!-- simulation/gui/parameters.js -->
<g id="node24" class="node">
<title>simulation/gui/parameters.js</title>
<path fill="none" stroke="#c6c5fe" d="M717.83,-600C717.83,-600 547.17,-600 547.17,-600 543.33,-600 539.5,-596.17 539.5,-592.33 539.5,-592.33 539.5,-584.67 539.5,-584.67 539.5,-580.83 543.33,-577 547.17,-577 547.17,-577 717.83,-577 717.83,-577 721.67,-577 725.5,-580.83 725.5,-584.67 725.5,-584.67 725.5,-592.33 725.5,-592.33 725.5,-596.17 721.67,-600 717.83,-600"/>
<text text-anchor="middle" x="632.5" y="-584.8" font-family="Arial" font-size="14.00" fill="#c6c5fe">simulation/gui/parameters.js</text>
</g>
<!-- simulation/view.js&#45;&gt;simulation/gui/parameters.js -->
<g id="edge71" class="edge">
<title>simulation/view.js&#45;&gt;simulation/gui/parameters.js</title>
<path fill="none" stroke="#757575" d="M218.45,-588.5C296.75,-588.5 434.4,-588.5 529.13,-588.5"/>
<polygon fill="#757575" stroke="#757575" points="529.31,-592 539.31,-588.5 529.31,-585 529.31,-592"/>
</g>
<!-- simulation/gui/particle.js -->
<g id="node25" class="node">
<title>simulation/gui/particle.js</title>
<path fill="none" stroke="#c6c5fe" d="M705.33,-880C705.33,-880 559.67,-880 559.67,-880 555.83,-880 552,-876.17 552,-872.33 552,-872.33 552,-864.67 552,-864.67 552,-860.83 555.83,-857 559.67,-857 559.67,-857 705.33,-857 705.33,-857 709.17,-857 713,-860.83 713,-864.67 713,-864.67 713,-872.33 713,-872.33 713,-876.17 709.17,-880 705.33,-880"/>
<text text-anchor="middle" x="632.5" y="-864.8" font-family="Arial" font-size="14.00" fill="#c6c5fe">simulation/gui/particle.js</text>
</g>
<!-- simulation/view.js&#45;&gt;simulation/gui/particle.js -->
<g id="edge72" class="edge">
<title>simulation/view.js&#45;&gt;simulation/gui/particle.js</title>
<path fill="none" stroke="#757575" d="M161.73,-600.18C171.76,-629.72 202.1,-708.1 254,-750.5 336.95,-818.27 458.98,-847.26 541.66,-859.57"/>
<polygon fill="#757575" stroke="#757575" points="541.4,-863.07 551.79,-861.03 542.39,-856.14 541.4,-863.07"/>
</g>
<!-- simulation/gui/selection.js -->
<g id="node26" class="node">
<title>simulation/gui/selection.js</title>
<path fill="none" stroke="#c6c5fe" d="M445.83,-640C445.83,-640 291.17,-640 291.17,-640 287.33,-640 283.5,-636.17 283.5,-632.33 283.5,-632.33 283.5,-624.67 283.5,-624.67 283.5,-620.83 287.33,-617 291.17,-617 291.17,-617 445.83,-617 445.83,-617 449.67,-617 453.5,-620.83 453.5,-624.67 453.5,-624.67 453.5,-632.33 453.5,-632.33 453.5,-636.17 449.67,-640 445.83,-640"/>
<text text-anchor="middle" x="368.5" y="-624.8" font-family="Arial" font-size="14.00" fill="#c6c5fe">simulation/gui/selection.js</text>
</g>
<!-- simulation/view.js&#45;&gt;simulation/gui/selection.js -->
<g id="edge73" class="edge">
<title>simulation/view.js&#45;&gt;simulation/gui/selection.js</title>
<path fill="none" stroke="#757575" d="M218.03,-599.96C242.69,-604.67 271.42,-610.16 297.06,-615.05"/>
<polygon fill="#757575" stroke="#757575" points="296.61,-618.53 307.09,-616.97 297.93,-611.65 296.61,-618.53"/>
</g>
<!-- simulation/gui/stats.js -->
<g id="node27" class="node">
<title>simulation/gui/stats.js</title>
<path fill="none" stroke="#cfffac" d="M433.83,-939C433.83,-939 303.17,-939 303.17,-939 299.33,-939 295.5,-935.17 295.5,-931.33 295.5,-931.33 295.5,-923.67 295.5,-923.67 295.5,-919.83 299.33,-916 303.17,-916 303.17,-916 433.83,-916 433.83,-916 437.67,-916 441.5,-919.83 441.5,-923.67 441.5,-923.67 441.5,-931.33 441.5,-931.33 441.5,-935.17 437.67,-939 433.83,-939"/>
<text text-anchor="middle" x="368.5" y="-923.8" font-family="Arial" font-size="14.00" fill="#cfffac">simulation/gui/stats.js</text>
</g>
<!-- simulation/view.js&#45;&gt;simulation/gui/stats.js -->
<g id="edge74" class="edge">
<title>simulation/view.js&#45;&gt;simulation/gui/stats.js</title>
<path fill="none" stroke="#757575" d="M157.73,-600.28C157.35,-646.39 162.44,-816.34 254,-901.5 262.9,-909.78 273.89,-915.61 285.49,-919.67"/>
<polygon fill="#757575" stroke="#757575" points="284.76,-923.11 295.35,-922.69 286.81,-916.42 284.76,-923.11"/>
</g>
<!-- ui/views/About.jsx -->
<g id="node28" class="node">
<title>ui/views/About.jsx</title>
<path fill="none" stroke="#c6c5fe" d="M1187.33,-1204C1187.33,-1204 1078.67,-1204 1078.67,-1204 1074.83,-1204 1071,-1200.17 1071,-1196.33 1071,-1196.33 1071,-1188.67 1071,-1188.67 1071,-1184.83 1074.83,-1181 1078.67,-1181 1078.67,-1181 1187.33,-1181 1187.33,-1181 1191.17,-1181 1195,-1184.83 1195,-1188.67 1195,-1188.67 1195,-1196.33 1195,-1196.33 1195,-1200.17 1191.17,-1204 1187.33,-1204"/>
<text text-anchor="middle" x="1133" y="-1188.8" font-family="Arial" font-size="14.00" fill="#c6c5fe">ui/views/About.jsx</text>
</g>
<!-- ui/App.jsx&#45;&gt;ui/views/About.jsx -->
<g id="edge77" class="edge">
<title>ui/App.jsx&#45;&gt;ui/views/About.jsx</title>
<path fill="none" stroke="#757575" d="M894.15,-958.2C906.61,-996.08 951.29,-1116.14 1033,-1172.5 1041.34,-1178.25 1050.95,-1182.42 1060.84,-1185.44"/>
<polygon fill="#757575" stroke="#757575" points="1060.22,-1188.9 1070.78,-1188.08 1062.02,-1182.13 1060.22,-1188.9"/>
</g>
<!-- ui/views/Advanced.jsx -->
<g id="node29" class="node">
<title>ui/views/Advanced.jsx</title>
<path fill="none" stroke="#c6c5fe" d="M1199.83,-1163C1199.83,-1163 1066.17,-1163 1066.17,-1163 1062.33,-1163 1058.5,-1159.17 1058.5,-1155.33 1058.5,-1155.33 1058.5,-1147.67 1058.5,-1147.67 1058.5,-1143.83 1062.33,-1140 1066.17,-1140 1066.17,-1140 1199.83,-1140 1199.83,-1140 1203.67,-1140 1207.5,-1143.83 1207.5,-1147.67 1207.5,-1147.67 1207.5,-1155.33 1207.5,-1155.33 1207.5,-1159.17 1203.67,-1163 1199.83,-1163"/>
<text text-anchor="middle" x="1133" y="-1147.8" font-family="Arial" font-size="14.00" fill="#c6c5fe">ui/views/Advanced.jsx</text>
</g>
<!-- ui/App.jsx&#45;&gt;ui/views/Advanced.jsx -->
<g id="edge78" class="edge">
<title>ui/App.jsx&#45;&gt;ui/views/Advanced.jsx</title>
<path fill="none" stroke="#757575" d="M895.87,-958.39C911.61,-991.75 961.07,-1086.71 1033,-1131.5 1037.96,-1134.59 1043.3,-1137.21 1048.85,-1139.44"/>
<polygon fill="#757575" stroke="#757575" points="1047.75,-1142.76 1058.34,-1142.82 1050.1,-1136.17 1047.75,-1142.76"/>
</g>
<!-- ui/views/Controls.jsx -->
<g id="node30" class="node">
<title>ui/views/Controls.jsx</title>
<path fill="none" stroke="#c6c5fe" d="M1194.83,-1081C1194.83,-1081 1071.17,-1081 1071.17,-1081 1067.33,-1081 1063.5,-1077.17 1063.5,-1073.33 1063.5,-1073.33 1063.5,-1065.67 1063.5,-1065.67 1063.5,-1061.83 1067.33,-1058 1071.17,-1058 1071.17,-1058 1194.83,-1058 1194.83,-1058 1198.67,-1058 1202.5,-1061.83 1202.5,-1065.67 1202.5,-1065.67 1202.5,-1073.33 1202.5,-1073.33 1202.5,-1077.17 1198.67,-1081 1194.83,-1081"/>
<text text-anchor="middle" x="1133" y="-1065.8" font-family="Arial" font-size="14.00" fill="#c6c5fe">ui/views/Controls.jsx</text>
</g>
<!-- ui/App.jsx&#45;&gt;ui/views/Controls.jsx -->
<g id="edge79" class="edge">
<title>ui/App.jsx&#45;&gt;ui/views/Controls.jsx</title>
<path fill="none" stroke="#757575" d="M902.7,-958.19C926,-979.81 979.31,-1026 1033,-1049.5 1039.57,-1052.38 1046.57,-1054.84 1053.69,-1056.96"/>
<polygon fill="#757575" stroke="#757575" points="1052.88,-1060.37 1063.45,-1059.63 1054.73,-1053.62 1052.88,-1060.37"/>
</g>
<!-- ui/views/Field.jsx -->
<g id="node31" class="node">
<title>ui/views/Field.jsx</title>
<path fill="none" stroke="#c6c5fe" d="M1184.33,-1286C1184.33,-1286 1081.67,-1286 1081.67,-1286 1077.83,-1286 1074,-1282.17 1074,-1278.33 1074,-1278.33 1074,-1270.67 1074,-1270.67 1074,-1266.83 1077.83,-1263 1081.67,-1263 1081.67,-1263 1184.33,-1263 1184.33,-1263 1188.17,-1263 1192,-1266.83 1192,-1270.67 1192,-1270.67 1192,-1278.33 1192,-1278.33 1192,-1282.17 1188.17,-1286 1184.33,-1286"/>
<text text-anchor="middle" x="1133" y="-1270.8" font-family="Arial" font-size="14.00" fill="#c6c5fe">ui/views/Field.jsx</text>
</g>
<!-- ui/App.jsx&#45;&gt;ui/views/Field.jsx -->
<g id="edge80" class="edge">
<title>ui/App.jsx&#45;&gt;ui/views/Field.jsx</title>
<path fill="none" stroke="#757575" d="M892.13,-958.29C899.15,-1004.44 931.27,-1174.17 1033,-1254.5 1041.99,-1261.6 1052.85,-1266.38 1064.03,-1269.56"/>
<polygon fill="#757575" stroke="#757575" points="1063.35,-1273 1073.89,-1271.96 1065.01,-1266.2 1063.35,-1273"/>
</g>
<!-- ui/views/Generator.jsx -->
<g id="node32" class="node">
<title>ui/views/Generator.jsx</title>
<path fill="none" stroke="#c6c5fe" d="M1199.83,-1040C1199.83,-1040 1066.17,-1040 1066.17,-1040 1062.33,-1040 1058.5,-1036.17 1058.5,-1032.33 1058.5,-1032.33 1058.5,-1024.67 1058.5,-1024.67 1058.5,-1020.83 1062.33,-1017 1066.17,-1017 1066.17,-1017 1199.83,-1017 1199.83,-1017 1203.67,-1017 1207.5,-1020.83 1207.5,-1024.67 1207.5,-1024.67 1207.5,-1032.33 1207.5,-1032.33 1207.5,-1036.17 1203.67,-1040 1199.83,-1040"/>
<text text-anchor="middle" x="1133" y="-1024.8" font-family="Arial" font-size="14.00" fill="#c6c5fe">ui/views/Generator.jsx</text>
</g>
<!-- ui/App.jsx&#45;&gt;ui/views/Generator.jsx -->
<g id="edge81" class="edge">
<title>ui/App.jsx&#45;&gt;ui/views/Generator.jsx</title>
<path fill="none" stroke="#757575" d="M913.13,-958.13C940.77,-971.91 989.25,-994.73 1033,-1008.5 1040.09,-1010.73 1047.56,-1012.77 1055.07,-1014.63"/>
<polygon fill="#757575" stroke="#757575" points="1054.41,-1018.07 1064.94,-1016.95 1056.01,-1011.25 1054.41,-1018.07"/>
</g>
<!-- ui/views/Information.jsx -->
<g id="node33" class="node">
<title>ui/views/Information.jsx</title>
<path fill="none" stroke="#c6c5fe" d="M1203.83,-999C1203.83,-999 1062.17,-999 1062.17,-999 1058.33,-999 1054.5,-995.17 1054.5,-991.33 1054.5,-991.33 1054.5,-983.67 1054.5,-983.67 1054.5,-979.83 1058.33,-976 1062.17,-976 1062.17,-976 1203.83,-976 1203.83,-976 1207.67,-976 1211.5,-979.83 1211.5,-983.67 1211.5,-983.67 1211.5,-991.33 1211.5,-991.33 1211.5,-995.17 1207.67,-999 1203.83,-999"/>
<text text-anchor="middle" x="1133" y="-983.8" font-family="Arial" font-size="14.00" fill="#c6c5fe">ui/views/Information.jsx</text>
</g>
<!-- ui/App.jsx&#45;&gt;ui/views/Information.jsx -->
<g id="edge82" class="edge">
<title>ui/App.jsx&#45;&gt;ui/views/Information.jsx</title>
<path fill="none" stroke="#757575" d="M927.18,-952.73C960.65,-958.41 1011.23,-967 1053.75,-974.22"/>
<polygon fill="#757575" stroke="#757575" points="1053.36,-977.7 1063.81,-975.92 1054.54,-970.8 1053.36,-977.7"/>
</g>
<!-- ui/views/Menu.jsx -->
<g id="node34" class="node">
<title>ui/views/Menu.jsx</title>
<path fill="none" stroke="#c6c5fe" d="M1186.83,-1327C1186.83,-1327 1079.17,-1327 1079.17,-1327 1075.33,-1327 1071.5,-1323.17 1071.5,-1319.33 1071.5,-1319.33 1071.5,-1311.67 1071.5,-1311.67 1071.5,-1307.83 1075.33,-1304 1079.17,-1304 1079.17,-1304 1186.83,-1304 1186.83,-1304 1190.67,-1304 1194.5,-1307.83 1194.5,-1311.67 1194.5,-1311.67 1194.5,-1319.33 1194.5,-1319.33 1194.5,-1323.17 1190.67,-1327 1186.83,-1327"/>
<text text-anchor="middle" x="1133" y="-1311.8" font-family="Arial" font-size="14.00" fill="#c6c5fe">ui/views/Menu.jsx</text>
</g>
<!-- ui/App.jsx&#45;&gt;ui/views/Menu.jsx -->
<g id="edge83" class="edge">
<title>ui/App.jsx&#45;&gt;ui/views/Menu.jsx</title>
<path fill="none" stroke="#757575" d="M891.42,-958.1C895.99,-1007.57 920.81,-1202.67 1033,-1295.5 1041.19,-1302.28 1051.05,-1306.97 1061.34,-1310.18"/>
<polygon fill="#757575" stroke="#757575" points="1060.72,-1313.63 1071.29,-1312.82 1062.52,-1306.87 1060.72,-1313.63"/>
</g>
<!-- ui/views/Parameters.jsx -->
<g id="node35" class="node">
<title>ui/views/Parameters.jsx</title>
<path fill="none" stroke="#c6c5fe" d="M1204.83,-958C1204.83,-958 1061.17,-958 1061.17,-958 1057.33,-958 1053.5,-954.17 1053.5,-950.33 1053.5,-950.33 1053.5,-942.67 1053.5,-942.67 1053.5,-938.83 1057.33,-935 1061.17,-935 1061.17,-935 1204.83,-935 1204.83,-935 1208.67,-935 1212.5,-938.83 1212.5,-942.67 1212.5,-942.67 1212.5,-950.33 1212.5,-950.33 1212.5,-954.17 1208.67,-958 1204.83,-958"/>
<text text-anchor="middle" x="1133" y="-942.8" font-family="Arial" font-size="14.00" fill="#c6c5fe">ui/views/Parameters.jsx</text>
</g>
<!-- ui/App.jsx&#45;&gt;ui/views/Parameters.jsx -->
<g id="edge84" class="edge">
<title>ui/App.jsx&#45;&gt;ui/views/Parameters.jsx</title>
<path fill="none" stroke="#757575" d="M927.18,-946.5C957.95,-946.5 1003.19,-946.5 1043.33,-946.5"/>
<polygon fill="#757575" stroke="#757575" points="1043.42,-950 1053.42,-946.5 1043.42,-943 1043.42,-950"/>
</g>
<!-- ui/views/Particle.jsx -->
<g id="node36" class="node">
<title>ui/views/Particle.jsx</title>
<path fill="none" stroke="#c6c5fe" d="M1192.33,-1245C1192.33,-1245 1073.67,-1245 1073.67,-1245 1069.83,-1245 1066,-1241.17 1066,-1237.33 1066,-1237.33 1066,-1229.67 1066,-1229.67 1066,-1225.83 1069.83,-1222 1073.67,-1222 1073.67,-1222 1192.33,-1222 1192.33,-1222 1196.17,-1222 1200,-1225.83 1200,-1229.67 1200,-1229.67 1200,-1237.33 1200,-1237.33 1200,-1241.17 1196.17,-1245 1192.33,-1245"/>
<text text-anchor="middle" x="1133" y="-1229.8" font-family="Arial" font-size="14.00" fill="#c6c5fe">ui/views/Particle.jsx</text>
</g>
<!-- ui/App.jsx&#45;&gt;ui/views/Particle.jsx -->
<g id="edge85" class="edge">
<title>ui/App.jsx&#45;&gt;ui/views/Particle.jsx</title>
<path fill="none" stroke="#757575" d="M892.98,-958.17C902.57,-1000.24 941.33,-1145.26 1033,-1213.5 1040,-1218.71 1048.02,-1222.65 1056.4,-1225.62"/>
<polygon fill="#757575" stroke="#757575" points="1055.39,-1228.97 1065.98,-1228.57 1057.45,-1222.28 1055.39,-1228.97"/>
</g>
<!-- ui/views/Selection.jsx -->
<g id="node37" class="node">
<title>ui/views/Selection.jsx</title>
<path fill="none" stroke="#c6c5fe" d="M1197.33,-1122C1197.33,-1122 1068.67,-1122 1068.67,-1122 1064.83,-1122 1061,-1118.17 1061,-1114.33 1061,-1114.33 1061,-1106.67 1061,-1106.67 1061,-1102.83 1064.83,-1099 1068.67,-1099 1068.67,-1099 1197.33,-1099 1197.33,-1099 1201.17,-1099 1205,-1102.83 1205,-1106.67 1205,-1106.67 1205,-1114.33 1205,-1114.33 1205,-1118.17 1201.17,-1122 1197.33,-1122"/>
<text text-anchor="middle" x="1133" y="-1106.8" font-family="Arial" font-size="14.00" fill="#c6c5fe">ui/views/Selection.jsx</text>
</g>
<!-- ui/App.jsx&#45;&gt;ui/views/Selection.jsx -->
<g id="edge86" class="edge">
<title>ui/App.jsx&#45;&gt;ui/views/Selection.jsx</title>
<path fill="none" stroke="#757575" d="M898.22,-958.1C917.38,-985.91 970.17,-1056.58 1033,-1090.5 1038.67,-1093.56 1044.75,-1096.16 1051.01,-1098.35"/>
<polygon fill="#757575" stroke="#757575" points="1050.37,-1101.82 1060.96,-1101.49 1052.48,-1095.15 1050.37,-1101.82"/>
</g>
<!-- simulation/helpers.js -->
<g id="node6" class="node">
<title>simulation/helpers.js</title>
<path fill="none" stroke="#c6c5fe" d="M1464.33,-485C1464.33,-485 1339.67,-485 1339.67,-485 1335.83,-485 1332,-481.17 1332,-477.33 1332,-477.33 1332,-469.67 1332,-469.67 1332,-465.83 1335.83,-462 1339.67,-462 1339.67,-462 1464.33,-462 1464.33,-462 1468.17,-462 1472,-465.83 1472,-469.67 1472,-469.67 1472,-477.33 1472,-477.33 1472,-481.17 1468.17,-485 1464.33,-485"/>
<text text-anchor="middle" x="1402" y="-469.8" font-family="Arial" font-size="14.00" fill="#c6c5fe">simulation/helpers.js</text>
</g>
<!-- simulation/components/mouse.js&#45;&gt;simulation/helpers.js -->
<g id="edge3" class="edge">
<title>simulation/components/mouse.js&#45;&gt;simulation/helpers.js</title>
<path fill="none" stroke="#757575" d="M997.05,-166.85C1068.87,-171.09 1162.92,-186.15 1233,-231.5 1319.21,-287.29 1373.53,-404.41 1392.95,-452.36"/>
<polygon fill="#757575" stroke="#757575" points="1389.73,-453.73 1396.66,-461.74 1396.24,-451.16 1389.73,-453.73"/>
</g>
<!-- simulation/helpers.js&#45;&gt;simulation/particle.js -->
<g id="edge54" class="edge">
<title>simulation/helpers.js&#45;&gt;simulation/particle.js</title>
<path fill="none" stroke="#757575" d="M1472.22,-468.74C1552.24,-465.88 1686.34,-469.34 1791,-513.5 1844.29,-535.98 1892.88,-585.41 1917.19,-612.97"/>
<polygon fill="#757575" stroke="#757575" points="1914.74,-615.49 1923.93,-620.76 1920.03,-610.91 1914.74,-615.49"/>
</g>
<!-- simulation/components/ruler.js&#45;&gt;simulation/helpers.js -->
<g id="edge5" class="edge">
<title>simulation/components/ruler.js&#45;&gt;simulation/helpers.js</title>
<path fill="none" stroke="#757575" d="M691.61,-266.93C802.5,-247.73 1049.57,-218.94 1233,-300.5 1306.71,-333.27 1364.63,-414.71 1388.78,-452.99"/>
<polygon fill="#757575" stroke="#757575" points="1385.94,-455.07 1394.18,-461.74 1391.9,-451.39 1385.94,-455.07"/>
</g>
<!-- simulation/components/ruler.js&#45;&gt;simulation/core.js -->
<g id="edge4" class="edge">
<title>simulation/components/ruler.js&#45;&gt;simulation/core.js</title>
<path fill="none" stroke="#757575" d="M732.35,-290C737.17,-292.41 741.77,-295.22 746,-298.5 843.31,-373.89 876.38,-530.97 885.51,-588.65"/>
<polygon fill="#757575" stroke="#757575" points="882.09,-589.43 887.03,-598.8 889.01,-588.4 882.09,-589.43"/>
</g>
<!-- simulation/core.js&#45;&gt;simulation/helpers.js -->
<g id="edge13" class="edge">
<title>simulation/core.js&#45;&gt;simulation/helpers.js</title>
<path fill="none" stroke="#757575" d="M906.71,-599C932.26,-581.47 984.05,-548.34 1033,-531.5 1084.95,-513.63 1230.01,-493.94 1321.72,-482.71"/>
<polygon fill="#757575" stroke="#757575" points="1322.3,-486.16 1331.8,-481.48 1321.45,-479.22 1322.3,-486.16"/>
</g>
<!-- simulation/core.js&#45;&gt;simulation/particle.js -->
<g id="edge14" class="edge">
<title>simulation/core.js&#45;&gt;simulation/particle.js</title>
<path fill="none" stroke="#757575" d="M905.22,-622.2C929.95,-641.09 982.12,-677.78 1033,-693.5 1354.88,-792.95 1462.98,-765.33 1791,-688.5 1829.89,-679.39 1872.23,-661.68 1900.56,-648.6"/>
<polygon fill="#757575" stroke="#757575" points="1902.4,-651.6 1909.97,-644.19 1899.43,-645.27 1902.4,-651.6"/>
</g>
<!-- simulation/physics.js -->
<g id="node11" class="node">
<title>simulation/physics.js</title>
<path fill="none" stroke="#c6c5fe" d="M1743.33,-545C1743.33,-545 1618.67,-545 1618.67,-545 1614.83,-545 1611,-541.17 1611,-537.33 1611,-537.33 1611,-529.67 1611,-529.67 1611,-525.83 1614.83,-522 1618.67,-522 1618.67,-522 1743.33,-522 1743.33,-522 1747.17,-522 1751,-525.83 1751,-529.67 1751,-529.67 1751,-537.33 1751,-537.33 1751,-541.17 1747.17,-545 1743.33,-545"/>
<text text-anchor="middle" x="1681" y="-529.8" font-family="Arial" font-size="14.00" fill="#c6c5fe">simulation/physics.js</text>
</g>
<!-- simulation/core.js&#45;&gt;simulation/physics.js -->
<g id="edge15" class="edge">
<title>simulation/core.js&#45;&gt;simulation/physics.js</title>
<path fill="none" stroke="#757575" d="M950.82,-612.05C976.19,-612.63 1006.03,-613.22 1033,-613.5 1121.88,-614.44 1152.02,-650.16 1233,-613.5 1255.09,-603.5 1247.41,-583.53 1269,-572.5 1297.74,-557.81 1489.51,-544.49 1600.67,-537.88"/>
<polygon fill="#757575" stroke="#757575" points="1601.06,-541.36 1610.83,-537.28 1600.64,-534.37 1601.06,-541.36"/>
</g>
<!-- simulation/field.js -->
<g id="node12" class="node">
<title>simulation/field.js</title>
<path fill="none" stroke="#c6c5fe" d="M1185.33,-604C1185.33,-604 1080.67,-604 1080.67,-604 1076.83,-604 1073,-600.17 1073,-596.33 1073,-596.33 1073,-588.67 1073,-588.67 1073,-584.83 1076.83,-581 1080.67,-581 1080.67,-581 1185.33,-581 1185.33,-581 1189.17,-581 1193,-584.83 1193,-588.67 1193,-588.67 1193,-596.33 1193,-596.33 1193,-600.17 1189.17,-604 1185.33,-604"/>
<text text-anchor="middle" x="1133" y="-588.8" font-family="Arial" font-size="14.00" fill="#c6c5fe">simulation/field.js</text>
</g>
<!-- simulation/core.js&#45;&gt;simulation/field.js -->
<g id="edge11" class="edge">
<title>simulation/core.js&#45;&gt;simulation/field.js</title>
<path fill="none" stroke="#757575" d="M950.51,-606.03C984.45,-603.5 1027.06,-600.32 1062.46,-597.68"/>
<polygon fill="#757575" stroke="#757575" points="1063.01,-601.15 1072.72,-596.92 1062.49,-594.17 1063.01,-601.15"/>
</g>
<!-- simulation/graphics.js -->
<g id="node13" class="node">
<title>simulation/graphics.js</title>
<path fill="none" stroke="#c6c5fe" d="M1198.33,-684C1198.33,-684 1067.67,-684 1067.67,-684 1063.83,-684 1060,-680.17 1060,-676.33 1060,-676.33 1060,-668.67 1060,-668.67 1060,-664.83 1063.83,-661 1067.67,-661 1067.67,-661 1198.33,-661 1198.33,-661 1202.17,-661 1206,-664.83 1206,-668.67 1206,-668.67 1206,-676.33 1206,-676.33 1206,-680.17 1202.17,-684 1198.33,-684"/>
<text text-anchor="middle" x="1133" y="-668.8" font-family="Arial" font-size="14.00" fill="#c6c5fe">simulation/graphics.js</text>
</g>
<!-- simulation/core.js&#45;&gt;simulation/graphics.js -->
<g id="edge12" class="edge">
<title>simulation/core.js&#45;&gt;simulation/graphics.js</title>
<path fill="none" stroke="#757575" d="M935.36,-622.02C975.47,-632.32 1034.38,-647.44 1077.26,-658.45"/>
<polygon fill="#757575" stroke="#757575" points="1076.42,-661.84 1086.97,-660.94 1078.16,-655.06 1076.42,-661.84"/>
</g>
<!-- simulation/scenarios.js -->
<g id="node14" class="node">
<title>simulation/scenarios.js</title>
<path fill="none" stroke="#cfffac" d="M1201.83,-802C1201.83,-802 1064.17,-802 1064.17,-802 1060.33,-802 1056.5,-798.17 1056.5,-794.33 1056.5,-794.33 1056.5,-786.67 1056.5,-786.67 1056.5,-782.83 1060.33,-779 1064.17,-779 1064.17,-779 1201.83,-779 1201.83,-779 1205.67,-779 1209.5,-782.83 1209.5,-786.67 1209.5,-786.67 1209.5,-794.33 1209.5,-794.33 1209.5,-798.17 1205.67,-802 1201.83,-802"/>
<text text-anchor="middle" x="1133" y="-786.8" font-family="Arial" font-size="14.00" fill="#cfffac">simulation/scenarios.js</text>
</g>
<!-- simulation/core.js&#45;&gt;simulation/scenarios.js -->
<g id="edge16" class="edge">
<title>simulation/core.js&#45;&gt;simulation/scenarios.js</title>
<path fill="none" stroke="#757575" d="M903.86,-622.21C928.65,-643.74 983.72,-690.67 1033,-726.5 1056.26,-743.41 1083.8,-761.03 1103.92,-773.49"/>
<polygon fill="#757575" stroke="#757575" points="1102.26,-776.58 1112.61,-778.84 1105.92,-770.61 1102.26,-776.58"/>
</g>
<!-- simulation/simulation.js -->
<g id="node15" class="node">
<title>simulation/simulation.js</title>
<path fill="none" stroke="#c6c5fe" d="M1203.83,-563C1203.83,-563 1062.17,-563 1062.17,-563 1058.33,-563 1054.5,-559.17 1054.5,-555.33 1054.5,-555.33 1054.5,-547.67 1054.5,-547.67 1054.5,-543.83 1058.33,-540 1062.17,-540 1062.17,-540 1203.83,-540 1203.83,-540 1207.67,-540 1211.5,-543.83 1211.5,-547.67 1211.5,-547.67 1211.5,-555.33 1211.5,-555.33 1211.5,-559.17 1207.67,-563 1203.83,-563"/>
<text text-anchor="middle" x="1133" y="-547.8" font-family="Arial" font-size="14.00" fill="#c6c5fe">simulation/simulation.js</text>
</g>
<!-- simulation/core.js&#45;&gt;simulation/simulation.js -->
<g id="edge17" class="edge">
<title>simulation/core.js&#45;&gt;simulation/simulation.js</title>
<path fill="none" stroke="#757575" d="M931.51,-598.96C959.91,-591.12 998.64,-580.72 1033,-572.5 1043.4,-570.01 1054.45,-567.52 1065.26,-565.17"/>
<polygon fill="#757575" stroke="#757575" points="1066.05,-568.58 1075.08,-563.05 1064.57,-561.73 1066.05,-568.58"/>
</g>
<!-- simulation/components/selection.js&#45;&gt;ui/App.jsx -->
<g id="edge10" class="edge">
<title>simulation/components/selection.js&#45;&gt;ui/App.jsx</title>
<path fill="none" stroke="#757575" d="M730.75,-680.12C736.17,-682.73 741.31,-685.83 746,-689.5 776.39,-713.28 764.07,-734.34 782,-768.5 812.77,-827.12 854.27,-893.35 875.22,-926.02"/>
<polygon fill="#757575" stroke="#757575" points="872.44,-928.17 880.8,-934.68 878.33,-924.38 872.44,-928.17"/>
</g>
<!-- simulation/components/selection.js&#45;&gt;simulation/helpers.js -->
<g id="edge7" class="edge">
<title>simulation/components/selection.js&#45;&gt;simulation/helpers.js</title>
<path fill="none" stroke="#757575" d="M655.5,-656.99C678.18,-645.11 714.58,-626.03 746,-609.5 762.01,-601.08 765.57,-598.08 782,-590.5 891.03,-540.18 915.62,-515.84 1033,-490.5 1130.77,-469.39 1246.43,-467.73 1321.62,-469.63"/>
<polygon fill="#757575" stroke="#757575" points="1321.87,-473.14 1331.96,-469.92 1322.06,-466.14 1321.87,-473.14"/>
</g>
<!-- simulation/components/selection.js&#45;&gt;simulation/core.js -->
<g id="edge6" class="edge">
<title>simulation/components/selection.js&#45;&gt;simulation/core.js</title>
<path fill="none" stroke="#757575" d="M684.18,-656.97C725.55,-647.56 784.12,-634.24 827.95,-624.27"/>
<polygon fill="#757575" stroke="#757575" points="828.94,-627.64 837.91,-622.01 827.38,-620.81 828.94,-627.64"/>
</g>
<!-- simulation/components/selection.js&#45;&gt;simulation/particle.js -->
<g id="edge8" class="edge">
<title>simulation/components/selection.js&#45;&gt;simulation/particle.js</title>
<path fill="none" stroke="#757575" d="M715.66,-680.02C726.05,-682.58 736.39,-685.7 746,-689.5 763.66,-696.48 765.09,-703.87 782,-712.5 888.8,-767.03 915.19,-789.11 1033,-811.5 1366.09,-874.81 1474.35,-846.7 1791,-725.5 1838.05,-707.49 1885.66,-672.2 1912.19,-650.65"/>
<polygon fill="#757575" stroke="#757575" points="1914.56,-653.24 1920.04,-644.17 1910.1,-647.84 1914.56,-653.24"/>
</g>
<!-- simulation/components/selection.js&#45;&gt;simulation/physics.js -->
<g id="edge9" class="edge">
<title>simulation/components/selection.js&#45;&gt;simulation/physics.js</title>
<path fill="none" stroke="#757575" d="M718.34,-680.02C913.9,-705.1 1390.61,-757.51 1535,-693.5 1600.12,-664.63 1648.46,-590.47 1669.05,-554.15"/>
<polygon fill="#757575" stroke="#757575" points="1672.12,-555.83 1673.89,-545.39 1665.99,-552.44 1672.12,-555.83"/>
</g>
<!-- simulation/physics.js&#45;&gt;simulation/particle.js -->
<g id="edge55" class="edge">
<title>simulation/physics.js&#45;&gt;simulation/particle.js</title>
<path fill="none" stroke="#757575" d="M1711.34,-545.05C1756.65,-562.89 1843.7,-597.15 1894.34,-617.08"/>
<polygon fill="#757575" stroke="#757575" points="1893.37,-620.46 1903.96,-620.87 1895.93,-613.95 1893.37,-620.46"/>
</g>
<!-- simulation/field.js&#45;&gt;simulation/helpers.js -->
<g id="edge18" class="edge">
<title>simulation/field.js&#45;&gt;simulation/helpers.js</title>
<path fill="none" stroke="#757575" d="M1193.16,-586.12C1206.74,-583.16 1220.78,-578.83 1233,-572.5 1252.54,-562.37 1250.93,-551.06 1269,-538.5 1298.15,-518.25 1334.54,-500.83 1361.72,-489.14"/>
<polygon fill="#757575" stroke="#757575" points="1363.44,-492.21 1371.29,-485.1 1360.72,-485.77 1363.44,-492.21"/>
</g>
<!-- simulation/field.js&#45;&gt;simulation/particle.js -->
<g id="edge19" class="edge">
<title>simulation/field.js&#45;&gt;simulation/particle.js</title>
<path fill="none" stroke="#757575" d="M1193.28,-603.37C1216.77,-607.25 1244.08,-611.21 1269,-613.5 1480,-632.85 1730.11,-634.22 1854.73,-633.44"/>
<polygon fill="#757575" stroke="#757575" points="1854.96,-636.94 1864.93,-633.37 1854.91,-629.94 1854.96,-636.94"/>
</g>
<!-- simulation/graphics.js&#45;&gt;simulation/helpers.js -->
<g id="edge20" class="edge">
<title>simulation/graphics.js&#45;&gt;simulation/helpers.js</title>
<path fill="none" stroke="#757575" d="M1158.16,-660.83C1179.1,-650.1 1209.62,-632.95 1233,-613.5 1251.64,-597.99 1251.21,-588.97 1269,-572.5 1303.14,-540.89 1347.1,-509.54 1374.67,-490.84"/>
<polygon fill="#757575" stroke="#757575" points="1376.67,-493.72 1383.01,-485.23 1372.76,-487.91 1376.67,-493.72"/>
</g>
<!-- simulation/graphics.js&#45;&gt;simulation/particle.js -->
<g id="edge21" class="edge">
<title>simulation/graphics.js&#45;&gt;simulation/particle.js</title>
<path fill="none" stroke="#757575" d="M1194.92,-684.02C1218.03,-687.85 1244.64,-691.62 1269,-693.5 1386.87,-702.61 1417.12,-702.47 1535,-693.5 1652.22,-684.58 1787.16,-661.11 1866.11,-646.02"/>
<polygon fill="#757575" stroke="#757575" points="1867.24,-649.36 1876.4,-644.04 1865.92,-642.49 1867.24,-649.36"/>
</g>
<!-- simulation/shaders/computeShader.glsl.js -->
<g id="node16" class="node">
<title>simulation/shaders/computeShader.glsl.js</title>
<path fill="none" stroke="#c6c5fe" d="M1527.33,-604C1527.33,-604 1276.67,-604 1276.67,-604 1272.83,-604 1269,-600.17 1269,-596.33 1269,-596.33 1269,-588.67 1269,-588.67 1269,-584.83 1272.83,-581 1276.67,-581 1276.67,-581 1527.33,-581 1527.33,-581 1531.17,-581 1535,-584.83 1535,-588.67 1535,-588.67 1535,-596.33 1535,-596.33 1535,-600.17 1531.17,-604 1527.33,-604"/>
<text text-anchor="middle" x="1402" y="-588.8" font-family="Arial" font-size="14.00" fill="#c6c5fe">simulation/shaders/computeShader.glsl.js</text>
</g>
<!-- simulation/graphics.js&#45;&gt;simulation/shaders/computeShader.glsl.js -->
<g id="edge22" class="edge">
<title>simulation/graphics.js&#45;&gt;simulation/shaders/computeShader.glsl.js</title>
<path fill="none" stroke="#757575" d="M1179.98,-660.98C1196.73,-656.64 1215.77,-651.53 1233,-646.5 1275.56,-634.08 1323.69,-618.45 1357.49,-607.2"/>
<polygon fill="#757575" stroke="#757575" points="1358.68,-610.49 1367.06,-604.01 1356.47,-603.85 1358.68,-610.49"/>
</g>
<!-- simulation/shaders/particleShader.glsl.js -->
<g id="node17" class="node">
<title>simulation/shaders/particleShader.glsl.js</title>
<path fill="none" stroke="#cfffac" d="M1522.83,-684C1522.83,-684 1281.17,-684 1281.17,-684 1277.33,-684 1273.5,-680.17 1273.5,-676.33 1273.5,-676.33 1273.5,-668.67 1273.5,-668.67 1273.5,-664.83 1277.33,-661 1281.17,-661 1281.17,-661 1522.83,-661 1522.83,-661 1526.67,-661 1530.5,-664.83 1530.5,-668.67 1530.5,-668.67 1530.5,-676.33 1530.5,-676.33 1530.5,-680.17 1526.67,-684 1522.83,-684"/>
<text text-anchor="middle" x="1402" y="-668.8" font-family="Arial" font-size="14.00" fill="#cfffac">simulation/shaders/particleShader.glsl.js</text>
</g>
<!-- simulation/graphics.js&#45;&gt;simulation/shaders/particleShader.glsl.js -->
<g id="edge23" class="edge">
<title>simulation/graphics.js&#45;&gt;simulation/shaders/particleShader.glsl.js</title>
<path fill="none" stroke="#757575" d="M1206.25,-672.5C1224.02,-672.5 1243.64,-672.5 1263.38,-672.5"/>
<polygon fill="#757575" stroke="#757575" points="1263.39,-676 1273.39,-672.5 1263.39,-669 1263.39,-676"/>
</g>
<!-- simulation/simulation.js&#45;&gt;simulation/helpers.js -->
<g id="edge59" class="edge">
<title>simulation/simulation.js&#45;&gt;simulation/helpers.js</title>
<path fill="none" stroke="#757575" d="M1191.73,-539.97C1205.58,-536.22 1220.09,-531.45 1233,-525.5 1250.69,-517.35 1251.09,-508.16 1269,-500.5 1285.6,-493.39 1304.2,-488.12 1322.07,-484.22"/>
<polygon fill="#757575" stroke="#757575" points="1322.82,-487.64 1331.91,-482.19 1321.41,-480.78 1322.82,-487.64"/>
</g>
<!-- simulation/simulation.js&#45;&gt;simulation/physics.js -->
<g id="edge60" class="edge">
<title>simulation/simulation.js&#45;&gt;simulation/physics.js</title>
<path fill="none" stroke="#757575" d="M1211.73,-542.89C1230.46,-541.13 1250.43,-539.51 1269,-538.5 1384.26,-532.26 1517.95,-531.91 1600.77,-532.5"/>
<polygon fill="#757575" stroke="#757575" points="1600.83,-536 1610.86,-532.58 1600.88,-529 1600.83,-536"/>
</g>
<!-- simulation/shaders/computeShader.glsl.js&#45;&gt;simulation/physics.js -->
<g id="edge58" class="edge">
<title>simulation/shaders/computeShader.glsl.js&#45;&gt;simulation/physics.js</title>
<path fill="none" stroke="#757575" d="M1463.53,-580.96C1486.01,-576.58 1511.69,-571.45 1535,-566.5 1563.44,-560.46 1594.92,-553.35 1621.26,-547.28"/>
<polygon fill="#757575" stroke="#757575" points="1622.13,-550.67 1631.08,-545.01 1620.55,-543.85 1622.13,-550.67"/>
</g>
<!-- simulation/gui/advanced.js&#45;&gt;ui/App.jsx -->
<g id="edge26" class="edge">
<title>simulation/gui/advanced.js&#45;&gt;ui/App.jsx</title>
<path fill="none" stroke="#757575" d="M669.53,-520.05C694.05,-529.57 725.62,-545.3 746,-568.5 771.09,-597.07 855.91,-848.43 881.28,-924.67"/>
<polygon fill="#757575" stroke="#757575" points="878.1,-926.21 884.57,-934.6 884.74,-924.01 878.1,-926.21"/>
</g>
<!-- simulation/gui/advanced.js&#45;&gt;simulation/helpers.js -->
<g id="edge25" class="edge">
<title>simulation/gui/advanced.js&#45;&gt;simulation/helpers.js</title>
<path fill="none" stroke="#757575" d="M659.95,-496.91C689.16,-484.8 737.91,-466.59 782,-459.5 973.81,-428.67 1203.31,-448.35 1321.68,-462.59"/>
<polygon fill="#757575" stroke="#757575" points="1321.39,-466.08 1331.74,-463.82 1322.24,-459.13 1321.39,-466.08"/>
</g>
<!-- simulation/gui/advanced.js&#45;&gt;simulation/core.js -->
<g id="edge24" class="edge">
<title>simulation/gui/advanced.js&#45;&gt;simulation/core.js</title>
<path fill="none" stroke="#757575" d="M696.55,-520.01C712.91,-523.82 730.33,-528.63 746,-534.5 788.22,-550.32 833.63,-576.26 861.56,-593.36"/>
<polygon fill="#757575" stroke="#757575" points="859.99,-596.5 870.33,-598.79 863.68,-590.55 859.99,-596.5"/>
</g>
<!-- simulation/gui/controls.js&#45;&gt;ui/App.jsx -->
<g id="edge30" class="edge">
<title>simulation/gui/controls.js&#45;&gt;ui/App.jsx</title>
<path fill="none" stroke="#757575" d="M714.75,-760.38C725.97,-764.2 736.78,-769.41 746,-776.5 773.11,-797.34 761.39,-817.21 782,-844.5 806.88,-877.43 842.65,-909.33 865.74,-928.45"/>
<polygon fill="#757575" stroke="#757575" points="863.67,-931.27 873.63,-934.89 868.09,-925.85 863.67,-931.27"/>
</g>
<!-- simulation/gui/controls.js&#45;&gt;simulation/helpers.js -->
<g id="edge28" class="edge">
<title>simulation/gui/controls.js&#45;&gt;simulation/helpers.js</title>
<path fill="none" stroke="#757575" d="M714.64,-759.86C725.29,-761.93 735.98,-764.45 746,-767.5 762.93,-772.65 764.97,-779.71 782,-784.5 878.65,-811.68 1156.9,-876.99 1233,-811.5 1314.42,-741.43 1213.92,-664.72 1269,-572.5 1291.76,-534.39 1335.34,-506.14 1366.19,-489.78"/>
<polygon fill="#757575" stroke="#757575" points="1368.02,-492.77 1375.31,-485.09 1364.82,-486.55 1368.02,-492.77"/>
</g>
<!-- simulation/gui/controls.js&#45;&gt;simulation/core.js -->
<g id="edge27" class="edge">
<title>simulation/gui/controls.js&#45;&gt;simulation/core.js</title>
<path fill="none" stroke="#757575" d="M714.68,-741.35C725.49,-738.62 736.21,-735.08 746,-730.5 798.56,-705.89 847.45,-656.82 871.99,-629.68"/>
<polygon fill="#757575" stroke="#757575" points="874.78,-631.81 878.8,-622.01 869.54,-627.16 874.78,-631.81"/>
</g>
<!-- simulation/gui/controls.js&#45;&gt;simulation/scenarios.js -->
<g id="edge29" class="edge">
<title>simulation/gui/controls.js&#45;&gt;simulation/scenarios.js</title>
<path fill="none" stroke="#757575" d="M714.7,-757.02C805.78,-764.32 952.89,-776.13 1045.92,-783.59"/>
<polygon fill="#757575" stroke="#757575" points="1045.9,-787.1 1056.15,-784.41 1046.46,-780.12 1045.9,-787.1"/>
</g>
<!-- simulation/gui/field.js&#45;&gt;ui/App.jsx -->
<g id="edge32" class="edge">
<title>simulation/gui/field.js&#45;&gt;ui/App.jsx</title>
<path fill="none" stroke="#757575" d="M703.78,-713.72C718.59,-716.97 733.5,-722.2 746,-730.5 783.99,-755.72 851.34,-876.78 877.6,-925.81"/>
<polygon fill="#757575" stroke="#757575" points="874.63,-927.68 882.41,-934.87 880.81,-924.39 874.63,-927.68"/>
</g>
<!-- simulation/gui/field.js&#45;&gt;simulation/core.js -->
<g id="edge31" class="edge">
<title>simulation/gui/field.js&#45;&gt;simulation/core.js</title>
<path fill="none" stroke="#757575" d="M703.75,-700.7C717.96,-697.9 732.63,-694.24 746,-689.5 789.59,-674.03 835.63,-646.09 863.21,-627.92"/>
<polygon fill="#757575" stroke="#757575" points="865.45,-630.63 871.82,-622.17 861.57,-624.81 865.45,-630.63"/>
</g>
<!-- simulation/gui/generator.js&#45;&gt;ui/App.jsx -->
<g id="edge38" class="edge">
<title>simulation/gui/generator.js&#45;&gt;ui/App.jsx</title>
<path fill="none" stroke="#757575" d="M382.34,-480.23C406.11,-502.69 456.91,-554.39 483,-608.5 515.22,-675.33 464.66,-720.99 519,-771.5 593.67,-840.91 656.1,-756.41 746,-804.5 767.09,-815.78 765.35,-827.33 782,-844.5 811.08,-874.49 846.35,-907.68 868.11,-927.82"/>
<polygon fill="#757575" stroke="#757575" points="866.02,-930.65 875.75,-934.86 870.77,-925.51 866.02,-930.65"/>
</g>
<!-- simulation/gui/generator.js&#45;&gt;simulation/helpers.js -->
<g id="edge35" class="edge">
<title>simulation/gui/generator.js&#45;&gt;simulation/helpers.js</title>
<path fill="none" stroke="#757575" d="M395.98,-456.99C419.5,-446.35 454.47,-429.51 483,-411.5 500.14,-400.68 499.83,-390.08 519,-383.5 669.08,-332.01 1079.11,-344.88 1233,-383.5 1288.5,-397.43 1345.68,-433.61 1376.94,-455.62"/>
<polygon fill="#757575" stroke="#757575" points="1375.25,-458.71 1385.42,-461.69 1379.33,-453.02 1375.25,-458.71"/>
</g>
<!-- simulation/gui/generator.js&#45;&gt;simulation/core.js -->
<g id="edge34" class="edge">
<title>simulation/gui/generator.js&#45;&gt;simulation/core.js</title>
<path fill="none" stroke="#757575" d="M455.84,-457.72C534.41,-451.43 652.1,-450.94 746,-488.5 800.53,-510.32 848.95,-561.94 872.81,-590.55"/>
<polygon fill="#757575" stroke="#757575" points="870.37,-593.09 879.4,-598.63 875.79,-588.67 870.37,-593.09"/>
</g>
<!-- simulation/gui/generator.js&#45;&gt;simulation/components/selection.js -->
<g id="edge33" class="edge">
<title>simulation/gui/generator.js&#45;&gt;simulation/components/selection.js</title>
<path fill="none" stroke="#757575" d="M379.84,-480.23C402.92,-505.94 461.2,-568.27 519,-609.5 542.88,-626.53 572.31,-641.79 595.08,-652.52"/>
<polygon fill="#757575" stroke="#757575" points="593.85,-655.81 604.4,-656.84 596.79,-649.46 593.85,-655.81"/>
</g>
<!-- simulation/gui/generator.js&#45;&gt;simulation/physics.js -->
<g id="edge36" class="edge">
<title>simulation/gui/generator.js&#45;&gt;simulation/physics.js</title>
<path fill="none" stroke="#757575" d="M371.02,-456.8C377.84,-409.46 410.23,-230.98 519,-152.5 647.92,-59.49 1079.58,-66.85 1233,-108.5 1383.14,-149.26 1425.05,-175.43 1535,-285.5 1604.98,-355.55 1653.63,-466.11 1671.94,-512.21"/>
<polygon fill="#757575" stroke="#757575" points="1668.77,-513.72 1675.66,-521.76 1675.29,-511.17 1668.77,-513.72"/>
</g>
<!-- simulation/scenariosHelpers.js -->
<g id="node22" class="node">
<title>simulation/scenariosHelpers.js</title>
<path fill="none" stroke="#c6c5fe" d="M1225.33,-141C1225.33,-141 1040.67,-141 1040.67,-141 1036.83,-141 1033,-137.17 1033,-133.33 1033,-133.33 1033,-125.67 1033,-125.67 1033,-121.83 1036.83,-118 1040.67,-118 1040.67,-118 1225.33,-118 1225.33,-118 1229.17,-118 1233,-121.83 1233,-125.67 1233,-125.67 1233,-133.33 1233,-133.33 1233,-137.17 1229.17,-141 1225.33,-141"/>
<text text-anchor="middle" x="1133" y="-125.8" font-family="Arial" font-size="14.00" fill="#c6c5fe">simulation/scenariosHelpers.js</text>
</g>
<!-- simulation/gui/generator.js&#45;&gt;simulation/scenariosHelpers.js -->
<g id="edge37" class="edge">
<title>simulation/gui/generator.js&#45;&gt;simulation/scenariosHelpers.js</title>
<path fill="none" stroke="#757575" d="M374.77,-456.98C391.22,-422.2 444.98,-316.97 519,-257.5 664.17,-140.86 889.5,-123 1022.74,-123.96"/>
<polygon fill="#757575" stroke="#757575" points="1022.93,-127.46 1032.96,-124.07 1023,-120.46 1022.93,-127.46"/>
</g>
<!-- simulation/scenariosHelpers.js&#45;&gt;simulation/helpers.js -->
<g id="edge56" class="edge">
<title>simulation/scenariosHelpers.js&#45;&gt;simulation/helpers.js</title>
<path fill="none" stroke="#757575" d="M1158.19,-141.09C1179.71,-152.29 1211.09,-170.84 1233,-193.5 1312.66,-275.87 1371.26,-402.72 1392.39,-452.46"/>
<polygon fill="#757575" stroke="#757575" points="1389.24,-453.99 1396.33,-461.86 1395.7,-451.28 1389.24,-453.99"/>
</g>
<!-- simulation/scenariosHelpers.js&#45;&gt;simulation/particle.js -->
<g id="edge57" class="edge">
<title>simulation/scenariosHelpers.js&#45;&gt;simulation/particle.js</title>
<path fill="none" stroke="#757575" d="M1205.04,-117.97C1288.79,-107.89 1429.87,-102.13 1535,-155.5 1744.95,-262.09 1886.51,-533.52 1923.73,-611.35"/>
<polygon fill="#757575" stroke="#757575" points="1920.68,-613.08 1928.11,-620.63 1927.01,-610.09 1920.68,-613.08"/>
</g>
<!-- simulation/gui/info.js&#45;&gt;ui/App.jsx -->
<g id="edge42" class="edge">
<title>simulation/gui/info.js&#45;&gt;ui/App.jsx</title>
<path fill="none" stroke="#757575" d="M643.52,-331.37C665.37,-357.82 717.59,-424.37 746,-488.5 772.54,-548.42 763.49,-568.63 782,-631.5 814.95,-743.43 862.26,-874.98 880.71,-925.39"/>
<polygon fill="#757575" stroke="#757575" points="877.46,-926.7 884.2,-934.88 884.04,-924.29 877.46,-926.7"/>
</g>
<!-- simulation/gui/info.js&#45;&gt;simulation/helpers.js -->
<g id="edge40" class="edge">
<title>simulation/gui/info.js&#45;&gt;simulation/helpers.js</title>
<path fill="none" stroke="#757575" d="M702.13,-309.53C816.25,-295.76 1050.55,-279.48 1233,-345.5 1296.35,-368.42 1355.3,-424.37 1383.54,-454.14"/>
<polygon fill="#757575" stroke="#757575" points="1381.29,-456.86 1390.67,-461.79 1386.41,-452.08 1381.29,-456.86"/>
</g>
<!-- simulation/gui/info.js&#45;&gt;simulation/core.js -->
<g id="edge39" class="edge">
<title>simulation/gui/info.js&#45;&gt;simulation/core.js</title>
<path fill="none" stroke="#757575" d="M643.81,-331.27C682.99,-375.97 822.81,-535.53 871.57,-591.18"/>
<polygon fill="#757575" stroke="#757575" points="869.12,-593.69 878.34,-598.9 874.38,-589.08 869.12,-593.69"/>
</g>
<!-- simulation/gui/info.js&#45;&gt;simulation/physics.js -->
<g id="edge41" class="edge">
<title>simulation/gui/info.js&#45;&gt;simulation/physics.js</title>
<path fill="none" stroke="#757575" d="M693.31,-307.95C726.73,-301.71 764.99,-294.98 782,-293.5 1118.22,-264.29 1235.27,-236.38 1535,-391.5 1592.82,-421.42 1642.71,-482.12 1666,-513.58"/>
<polygon fill="#757575" stroke="#757575" points="1663.39,-515.95 1672.1,-521.99 1669.05,-511.84 1663.39,-515.95"/>
</g>
<!-- simulation/gui/parameters.js&#45;&gt;ui/App.jsx -->
<g id="edge45" class="edge">
<title>simulation/gui/parameters.js&#45;&gt;ui/App.jsx</title>
<path fill="none" stroke="#757575" d="M667.63,-600.09C692.03,-609.81 724.27,-625.79 746,-648.5 826.87,-733 869.33,-872 883.25,-925.03"/>
<polygon fill="#757575" stroke="#757575" points="879.86,-925.9 885.73,-934.72 886.64,-924.17 879.86,-925.9"/>
</g>
<!-- simulation/gui/parameters.js&#45;&gt;simulation/core.js -->
<g id="edge43" class="edge">
<title>simulation/gui/parameters.js&#45;&gt;simulation/core.js</title>
<path fill="none" stroke="#757575" d="M725.56,-596.44C756.05,-599.07 789.49,-601.96 818.09,-604.43"/>
<polygon fill="#757575" stroke="#757575" points="818.13,-607.94 828.39,-605.31 818.73,-600.97 818.13,-607.94"/>
</g>
<!-- simulation/gui/parameters.js&#45;&gt;simulation/physics.js -->
<g id="edge44" class="edge">
<title>simulation/gui/parameters.js&#45;&gt;simulation/physics.js</title>
<path fill="none" stroke="#757575" d="M660.68,-576.94C684.29,-566.28 718.86,-549.17 746,-529.5 764.07,-516.4 761.84,-504.07 782,-494.5 1084.78,-350.78 1210.43,-369.9 1535,-453.5 1581.73,-465.54 1629.51,-496.18 1656.88,-515.85"/>
<polygon fill="#757575" stroke="#757575" points="1654.89,-518.73 1665.02,-521.82 1659.02,-513.08 1654.89,-518.73"/>
</g>
<!-- simulation/gui/particle.js&#45;&gt;ui/App.jsx -->
<g id="edge49" class="edge">
<title>simulation/gui/particle.js&#45;&gt;ui/App.jsx</title>
<path fill="none" stroke="#757575" d="M689.65,-880.05C707.76,-884.16 727.84,-889.11 746,-894.5 782.02,-905.19 822.15,-920.12 850.63,-931.24"/>
<polygon fill="#757575" stroke="#757575" points="849.6,-934.59 860.19,-935 852.16,-928.08 849.6,-934.59"/>
</g>
<!-- simulation/gui/particle.js&#45;&gt;simulation/helpers.js -->
<g id="edge47" class="edge">
<title>simulation/gui/particle.js&#45;&gt;simulation/helpers.js</title>
<path fill="none" stroke="#757575" d="M713.07,-876.63C858.54,-889.61 1159.25,-907.18 1233,-839.5 1321.22,-758.53 1208.4,-675.77 1269,-572.5 1291.47,-534.21 1335.1,-506 1366.05,-489.7"/>
<polygon fill="#757575" stroke="#757575" points="1367.89,-492.69 1375.21,-485.02 1364.71,-486.45 1367.89,-492.69"/>
</g>
<!-- simulation/gui/particle.js&#45;&gt;simulation/core.js -->
<g id="edge46" class="edge">
<title>simulation/gui/particle.js&#45;&gt;simulation/core.js</title>
<path fill="none" stroke="#757575" d="M648.26,-856.85C670.3,-839.2 712.78,-804.29 746,-771.5 794.81,-723.32 846.96,-661.37 872.51,-630.23"/>
<polygon fill="#757575" stroke="#757575" points="875.37,-632.26 878.99,-622.3 869.95,-627.83 875.37,-632.26"/>
</g>
<!-- simulation/gui/particle.js&#45;&gt;simulation/particle.js -->
<g id="edge48" class="edge">
<title>simulation/gui/particle.js&#45;&gt;simulation/particle.js</title>
<path fill="none" stroke="#757575" d="M638.22,-880.06C669.18,-953.81 850.7,-1355.5 1132,-1355.5 1132,-1355.5 1132,-1355.5 1403,-1355.5 1593.66,-1355.5 1679.75,-1327.34 1791,-1172.5 1829.49,-1118.92 1810.43,-1092.36 1827,-1028.5 1864.2,-885.13 1911.28,-713.24 1927.61,-653.88"/>
<polygon fill="#757575" stroke="#757575" points="1931.01,-654.71 1930.29,-644.14 1924.26,-652.85 1931.01,-654.71"/>
</g>
<!-- simulation/gui/selection.js&#45;&gt;ui/App.jsx -->
<g id="edge53" class="edge">
<title>simulation/gui/selection.js&#45;&gt;ui/App.jsx</title>
<path fill="none" stroke="#757575" d="M382.33,-640.12C404.37,-660.45 450.21,-704.31 483,-746.5 501.62,-770.45 494.02,-787.28 519,-804.5 603.62,-862.81 651.22,-808.77 746,-848.5 793.47,-868.4 841.27,-905.6 867.67,-928"/>
<polygon fill="#757575" stroke="#757575" points="865.6,-930.84 875.46,-934.72 870.17,-925.54 865.6,-930.84"/>
</g>
<!-- simulation/gui/selection.js&#45;&gt;simulation/helpers.js -->
<g id="edge52" class="edge">
<title>simulation/gui/selection.js&#45;&gt;simulation/helpers.js</title>
<path fill="none" stroke="#757575" d="M378.1,-616.78C398.9,-589.4 454.97,-521.05 519,-488.5 802.65,-344.33 1206.83,-424.29 1349.07,-459.54"/>
<polygon fill="#757575" stroke="#757575" points="1348.3,-462.96 1358.85,-462 1350.01,-456.17 1348.3,-462.96"/>
</g>
<!-- simulation/gui/selection.js&#45;&gt;simulation/core.js -->
<g id="edge51" class="edge">
<title>simulation/gui/selection.js&#45;&gt;simulation/core.js</title>
<path fill="none" stroke="#757575" d="M453.75,-625.58C555.12,-622.06 723.47,-616.22 818.18,-612.94"/>
<polygon fill="#757575" stroke="#757575" points="818.37,-616.43 828.24,-612.59 818.12,-609.44 818.37,-616.43"/>
</g>
<!-- simulation/gui/selection.js&#45;&gt;simulation/components/selection.js -->
<g id="edge50" class="edge">
<title>simulation/gui/selection.js&#45;&gt;simulation/components/selection.js</title>
<path fill="none" stroke="#757575" d="M444.93,-640.02C476.58,-644.85 513.53,-650.49 546.17,-655.47"/>
<polygon fill="#757575" stroke="#757575" points="545.74,-658.95 556.15,-657 546.79,-652.03 545.74,-658.95"/>
</g>
<!-- ui/components/CustomDialog.jsx -->
<g id="node45" class="node">
<title>ui/components/CustomDialog.jsx</title>
<path fill="none" stroke="#c6c5fe" d="M1501.83,-1163C1501.83,-1163 1302.17,-1163 1302.17,-1163 1298.33,-1163 1294.5,-1159.17 1294.5,-1155.33 1294.5,-1155.33 1294.5,-1147.67 1294.5,-1147.67 1294.5,-1143.83 1298.33,-1140 1302.17,-1140 1302.17,-1140 1501.83,-1140 1501.83,-1140 1505.67,-1140 1509.5,-1143.83 1509.5,-1147.67 1509.5,-1147.67 1509.5,-1155.33 1509.5,-1155.33 1509.5,-1159.17 1505.67,-1163 1501.83,-1163"/>
<text text-anchor="middle" x="1402" y="-1147.8" font-family="Arial" font-size="14.00" fill="#c6c5fe">ui/components/CustomDialog.jsx</text>
</g>
<!-- ui/views/About.jsx&#45;&gt;ui/components/CustomDialog.jsx -->
<g id="edge93" class="edge">
<title>ui/views/About.jsx&#45;&gt;ui/components/CustomDialog.jsx</title>
<path fill="none" stroke="#757575" d="M1195.26,-1183.09C1230.87,-1177.62 1276.3,-1170.65 1315.41,-1164.64"/>
<polygon fill="#757575" stroke="#757575" points="1316.38,-1168.04 1325.73,-1163.06 1315.32,-1161.12 1316.38,-1168.04"/>
</g>
<!-- ui/components/GridList.jsx -->
<g id="node47" class="node">
<title>ui/components/GridList.jsx</title>
<path fill="none" stroke="#c6c5fe" d="M1482.33,-1122C1482.33,-1122 1321.67,-1122 1321.67,-1122 1317.83,-1122 1314,-1118.17 1314,-1114.33 1314,-1114.33 1314,-1106.67 1314,-1106.67 1314,-1102.83 1317.83,-1099 1321.67,-1099 1321.67,-1099 1482.33,-1099 1482.33,-1099 1486.17,-1099 1490,-1102.83 1490,-1106.67 1490,-1106.67 1490,-1114.33 1490,-1114.33 1490,-1118.17 1486.17,-1122 1482.33,-1122"/>
<text text-anchor="middle" x="1402" y="-1106.8" font-family="Arial" font-size="14.00" fill="#c6c5fe">ui/components/GridList.jsx</text>
</g>
<!-- ui/views/About.jsx&#45;&gt;ui/components/GridList.jsx -->
<g id="edge94" class="edge">
<title>ui/views/About.jsx&#45;&gt;ui/components/GridList.jsx</title>
<path fill="none" stroke="#757575" d="M1195.16,-1186.59C1208.23,-1183.59 1221.54,-1179.13 1233,-1172.5 1253.99,-1160.35 1247.77,-1143.21 1269,-1131.5 1279.74,-1125.58 1291.68,-1121.2 1303.85,-1117.99"/>
<polygon fill="#757575" stroke="#757575" points="1304.74,-1121.38 1313.65,-1115.66 1303.11,-1114.57 1304.74,-1121.38"/>
</g>
<!-- ui/views/Advanced.jsx&#45;&gt;ui/components/CustomDialog.jsx -->
<g id="edge95" class="edge">
<title>ui/views/Advanced.jsx&#45;&gt;ui/components/CustomDialog.jsx</title>
<path fill="none" stroke="#757575" d="M1207.67,-1151.5C1231.31,-1151.5 1258.11,-1151.5 1284.06,-1151.5"/>
<polygon fill="#757575" stroke="#757575" points="1284.34,-1155 1294.34,-1151.5 1284.34,-1148 1284.34,-1155"/>
</g>
<!-- ui/views/Advanced.jsx&#45;&gt;ui/components/GridList.jsx -->
<g id="edge96" class="edge">
<title>ui/views/Advanced.jsx&#45;&gt;ui/components/GridList.jsx</title>
<path fill="none" stroke="#757575" d="M1207.67,-1140.19C1241.1,-1135.05 1280.85,-1128.95 1315.59,-1123.62"/>
<polygon fill="#757575" stroke="#757575" points="1316.36,-1127.04 1325.72,-1122.06 1315.3,-1120.12 1316.36,-1127.04"/>
</g>
<!-- ui/views/Controls.jsx&#45;&gt;ui/components/CustomDialog.jsx -->
<g id="edge97" class="edge">
<title>ui/views/Controls.jsx&#45;&gt;ui/components/CustomDialog.jsx</title>
<path fill="none" stroke="#757575" d="M1202.72,-1078.07C1213.29,-1081.06 1223.75,-1085.09 1233,-1090.5 1253.93,-1102.75 1247.72,-1119.87 1269,-1131.5 1273.96,-1134.21 1279.17,-1136.59 1284.54,-1138.67"/>
<polygon fill="#757575" stroke="#757575" points="1283.76,-1142.1 1294.35,-1142.1 1286.07,-1135.49 1283.76,-1142.1"/>
</g>
<!-- ui/components/CustomTabPanel.jsx -->
<g id="node46" class="node">
<title>ui/components/CustomTabPanel.jsx</title>
<path fill="none" stroke="#cfffac" d="M1510.83,-1040C1510.83,-1040 1293.17,-1040 1293.17,-1040 1289.33,-1040 1285.5,-1036.17 1285.5,-1032.33 1285.5,-1032.33 1285.5,-1024.67 1285.5,-1024.67 1285.5,-1020.83 1289.33,-1017 1293.17,-1017 1293.17,-1017 1510.83,-1017 1510.83,-1017 1514.67,-1017 1518.5,-1020.83 1518.5,-1024.67 1518.5,-1024.67 1518.5,-1032.33 1518.5,-1032.33 1518.5,-1036.17 1514.67,-1040 1510.83,-1040"/>
<text text-anchor="middle" x="1402" y="-1024.8" font-family="Arial" font-size="14.00" fill="#cfffac">ui/components/CustomTabPanel.jsx</text>
</g>
<!-- ui/views/Controls.jsx&#45;&gt;ui/components/CustomTabPanel.jsx -->
<g id="edge98" class="edge">
<title>ui/views/Controls.jsx&#45;&gt;ui/components/CustomTabPanel.jsx</title>
<path fill="none" stroke="#757575" d="M1202.76,-1058.94C1237.22,-1053.65 1279.28,-1047.19 1315.77,-1041.59"/>
<polygon fill="#757575" stroke="#757575" points="1316.55,-1045.01 1325.9,-1040.03 1315.49,-1038.09 1316.55,-1045.01"/>
</g>
<!-- ui/views/Controls.jsx&#45;&gt;ui/components/GridList.jsx -->
<g id="edge99" class="edge">
<title>ui/views/Controls.jsx&#45;&gt;ui/components/GridList.jsx</title>
<path fill="none" stroke="#757575" d="M1202.76,-1080.06C1237.22,-1085.35 1279.28,-1091.81 1315.77,-1097.41"/>
<polygon fill="#757575" stroke="#757575" points="1315.49,-1100.91 1325.9,-1098.97 1316.55,-1093.99 1315.49,-1100.91"/>
</g>
<!-- ui/views/Field.jsx&#45;&gt;ui/components/CustomDialog.jsx -->
<g id="edge100" class="edge">
<title>ui/views/Field.jsx&#45;&gt;ui/components/CustomDialog.jsx</title>
<path fill="none" stroke="#757575" d="M1192.05,-1266.31C1205.75,-1263.41 1220.11,-1259.57 1233,-1254.5 1288.88,-1232.53 1347.1,-1192.27 1378.19,-1169.13"/>
<polygon fill="#757575" stroke="#757575" points="1380.33,-1171.9 1386.21,-1163.09 1376.12,-1166.31 1380.33,-1171.9"/>
</g>
<!-- ui/views/Field.jsx&#45;&gt;ui/components/GridList.jsx -->
<g id="edge101" class="edge">
<title>ui/views/Field.jsx&#45;&gt;ui/components/GridList.jsx</title>
<path fill="none" stroke="#757575" d="M1192.04,-1273.3C1206.9,-1270.37 1221.83,-1264.76 1233,-1254.5 1274.96,-1215.98 1226.25,-1169.14 1269,-1131.5 1278.99,-1122.7 1291.14,-1116.79 1303.97,-1112.92"/>
<polygon fill="#757575" stroke="#757575" points="1305.09,-1116.24 1313.88,-1110.34 1303.33,-1109.47 1305.09,-1116.24"/>
</g>
<!-- ui/views/Generator.jsx&#45;&gt;ui/components/CustomDialog.jsx -->
<g id="edge102" class="edge">
<title>ui/views/Generator.jsx&#45;&gt;ui/components/CustomDialog.jsx</title>
<path fill="none" stroke="#757575" d="M1207.65,-1035.82C1216.82,-1039.03 1225.57,-1043.46 1233,-1049.5 1263.87,-1074.62 1237.4,-1107.29 1269,-1131.5 1273.89,-1135.25 1279.19,-1138.43 1284.76,-1141.13"/>
<polygon fill="#757575" stroke="#757575" points="1283.79,-1144.52 1294.36,-1145.23 1286.54,-1138.08 1283.79,-1144.52"/>
</g>
<!-- ui/views/Generator.jsx&#45;&gt;ui/components/CustomTabPanel.jsx -->
<g id="edge103" class="edge">
<title>ui/views/Generator.jsx&#45;&gt;ui/components/CustomTabPanel.jsx</title>
<path fill="none" stroke="#757575" d="M1207.67,-1028.5C1228.64,-1028.5 1252.1,-1028.5 1275.25,-1028.5"/>
<polygon fill="#757575" stroke="#757575" points="1275.5,-1032 1285.5,-1028.5 1275.5,-1025 1275.5,-1032"/>
</g>
<!-- ui/views/Generator.jsx&#45;&gt;ui/components/GridList.jsx -->
<g id="edge104" class="edge">
<title>ui/views/Generator.jsx&#45;&gt;ui/components/GridList.jsx</title>
<path fill="none" stroke="#757575" d="M1194.8,-1040C1207.5,-1042.79 1220.75,-1046 1233,-1049.5 1278.62,-1062.55 1329.68,-1081.77 1363.4,-1095.14"/>
<polygon fill="#757575" stroke="#757575" points="1362.28,-1098.46 1372.86,-1098.91 1364.87,-1091.96 1362.28,-1098.46"/>
</g>
<!-- ui/views/Information.jsx&#45;&gt;ui/components/CustomDialog.jsx -->
<g id="edge105" class="edge">
<title>ui/views/Information.jsx&#45;&gt;ui/components/CustomDialog.jsx</title>
<path fill="none" stroke="#757575" d="M1211.61,-995.21C1219.47,-998.44 1226.82,-1002.77 1233,-1008.5 1274.77,-1047.22 1226.11,-1094.02 1269,-1131.5 1273.87,-1135.75 1279.24,-1139.32 1284.95,-1142.29"/>
<polygon fill="#757575" stroke="#757575" points="1283.63,-1145.54 1294.18,-1146.5 1286.53,-1139.17 1283.63,-1145.54"/>
</g>
<!-- ui/views/Information.jsx&#45;&gt;ui/components/CustomTabPanel.jsx -->
<g id="edge106" class="edge">
<title>ui/views/Information.jsx&#45;&gt;ui/components/CustomTabPanel.jsx</title>
<path fill="none" stroke="#757575" d="M1209.08,-999.03C1242.36,-1004.14 1281.66,-1010.17 1316,-1015.45"/>
<polygon fill="#757575" stroke="#757575" points="1315.6,-1018.93 1326.02,-1016.99 1316.66,-1012.01 1315.6,-1018.93"/>
</g>
<!-- ui/views/Information.jsx&#45;&gt;ui/components/GridList.jsx -->
<g id="edge107" class="edge">
<title>ui/views/Information.jsx&#45;&gt;ui/components/GridList.jsx</title>
<path fill="none" stroke="#757575" d="M1211.51,-998.82C1219.03,-1001.41 1226.33,-1004.59 1233,-1008.5 1253.93,-1020.75 1249.57,-1034.99 1269,-1049.5 1295.57,-1069.35 1329.63,-1084.89 1356.5,-1095.32"/>
<polygon fill="#757575" stroke="#757575" points="1355.45,-1098.66 1366.04,-1098.92 1357.93,-1092.11 1355.45,-1098.66"/>
</g>
<!-- ui/components/ControlButton.jsx -->
<g id="node43" class="node">
<title>ui/components/ControlButton.jsx</title>
<path fill="none" stroke="#cfffac" d="M1500.33,-1327C1500.33,-1327 1303.67,-1327 1303.67,-1327 1299.83,-1327 1296,-1323.17 1296,-1319.33 1296,-1319.33 1296,-1311.67 1296,-1311.67 1296,-1307.83 1299.83,-1304 1303.67,-1304 1303.67,-1304 1500.33,-1304 1500.33,-1304 1504.17,-1304 1508,-1307.83 1508,-1311.67 1508,-1311.67 1508,-1319.33 1508,-1319.33 1508,-1323.17 1504.17,-1327 1500.33,-1327"/>
<text text-anchor="middle" x="1402" y="-1311.8" font-family="Arial" font-size="14.00" fill="#cfffac">ui/components/ControlButton.jsx</text>
</g>
<!-- ui/views/Menu.jsx&#45;&gt;ui/components/ControlButton.jsx -->
<g id="edge108" class="edge">
<title>ui/views/Menu.jsx&#45;&gt;ui/components/ControlButton.jsx</title>
<path fill="none" stroke="#757575" d="M1194.59,-1315.5C1221.59,-1315.5 1254.33,-1315.5 1285.71,-1315.5"/>
<polygon fill="#757575" stroke="#757575" points="1285.84,-1319 1295.84,-1315.5 1285.84,-1312 1285.84,-1319"/>
</g>
<!-- ui/views/Menu.jsx&#45;&gt;ui/components/CustomDialog.jsx -->
<g id="edge109" class="edge">
<title>ui/views/Menu.jsx&#45;&gt;ui/components/CustomDialog.jsx</title>
<path fill="none" stroke="#757575" d="M1194.5,-1308.35C1207.61,-1305.43 1221.1,-1301.31 1233,-1295.5 1297.33,-1264.11 1357.03,-1202.12 1384.75,-1170.71"/>
<polygon fill="#757575" stroke="#757575" points="1387.47,-1172.91 1391.39,-1163.06 1382.19,-1168.31 1387.47,-1172.91"/>
</g>
<!-- ui/views/Parameters.jsx&#45;&gt;ui/components/CustomDialog.jsx -->
<g id="edge110" class="edge">
<title>ui/views/Parameters.jsx&#45;&gt;ui/components/CustomDialog.jsx</title>
<path fill="none" stroke="#757575" d="M1212.98,-954.21C1220.39,-957.48 1227.26,-961.81 1233,-967.5 1285.95,-1020.08 1214.53,-1080.49 1269,-1131.5 1273.83,-1136.02 1279.22,-1139.79 1285,-1142.9"/>
<polygon fill="#757575" stroke="#757575" points="1283.81,-1146.21 1294.35,-1147.28 1286.78,-1139.87 1283.81,-1146.21"/>
</g>
<!-- ui/views/Parameters.jsx&#45;&gt;ui/components/CustomTabPanel.jsx -->
<g id="edge111" class="edge">
<title>ui/views/Parameters.jsx&#45;&gt;ui/components/CustomTabPanel.jsx</title>
<path fill="none" stroke="#757575" d="M1194.8,-958C1207.5,-960.79 1220.75,-964 1233,-967.5 1278.62,-980.55 1329.68,-999.77 1363.4,-1013.14"/>
<polygon fill="#757575" stroke="#757575" points="1362.28,-1016.46 1372.86,-1016.91 1364.87,-1009.96 1362.28,-1016.46"/>
</g>
<!-- ui/views/Parameters.jsx&#45;&gt;ui/components/GridList.jsx -->
<g id="edge112" class="edge">
<title>ui/views/Parameters.jsx&#45;&gt;ui/components/GridList.jsx</title>
<path fill="none" stroke="#757575" d="M1212.89,-955.81C1220.14,-958.8 1227,-962.62 1233,-967.5 1263.87,-992.62 1241.13,-1021.09 1269,-1049.5 1290.33,-1071.25 1320.89,-1086.05 1347.23,-1095.62"/>
<polygon fill="#757575" stroke="#757575" points="1346.12,-1098.94 1356.72,-1098.91 1348.42,-1092.32 1346.12,-1098.94"/>
</g>
<!-- ui/views/Particle.jsx&#45;&gt;ui/components/CustomDialog.jsx -->
<g id="edge113" class="edge">
<title>ui/views/Particle.jsx&#45;&gt;ui/components/CustomDialog.jsx</title>
<path fill="none" stroke="#757575" d="M1198.52,-1221.97C1210.07,-1219.47 1221.95,-1216.63 1233,-1213.5 1279.14,-1200.41 1330.68,-1180.58 1364.36,-1166.89"/>
<polygon fill="#757575" stroke="#757575" points="1365.86,-1170.06 1373.78,-1163.03 1363.2,-1163.58 1365.86,-1170.06"/>
</g>
<!-- ui/views/Particle.jsx&#45;&gt;ui/components/GridList.jsx -->
<g id="edge114" class="edge">
<title>ui/views/Particle.jsx&#45;&gt;ui/components/GridList.jsx</title>
<path fill="none" stroke="#757575" d="M1200.22,-1229.23C1212.04,-1226.04 1223.58,-1221.09 1233,-1213.5 1263.99,-1188.53 1237.49,-1155.82 1269,-1131.5 1279.32,-1123.53 1291.47,-1118.05 1304.14,-1114.35"/>
<polygon fill="#757575" stroke="#757575" points="1305.09,-1117.72 1313.92,-1111.85 1303.36,-1110.94 1305.09,-1117.72"/>
</g>
<!-- ui/views/Selection.jsx&#45;&gt;ui/components/CustomDialog.jsx -->
<g id="edge115" class="edge">
<title>ui/views/Selection.jsx&#45;&gt;ui/components/CustomDialog.jsx</title>
<path fill="none" stroke="#757575" d="M1205.11,-1121.61C1225.71,-1124.82 1248.25,-1128.31 1269,-1131.5 1283.75,-1133.77 1299.44,-1136.16 1314.65,-1138.47"/>
<polygon fill="#757575" stroke="#757575" points="1314.15,-1141.93 1324.56,-1139.97 1315.2,-1135.01 1314.15,-1141.93"/>
</g>
<!-- ui/views/Selection.jsx&#45;&gt;ui/components/CustomTabPanel.jsx -->
<g id="edge116" class="edge">
<title>ui/views/Selection.jsx&#45;&gt;ui/components/CustomTabPanel.jsx</title>
<path fill="none" stroke="#757575" d="M1198.52,-1098.97C1210.07,-1096.47 1221.95,-1093.63 1233,-1090.5 1279.14,-1077.41 1330.68,-1057.58 1364.36,-1043.89"/>
<polygon fill="#757575" stroke="#757575" points="1365.86,-1047.06 1373.78,-1040.03 1363.2,-1040.58 1365.86,-1047.06"/>
</g>
<!-- ui/views/Selection.jsx&#45;&gt;ui/components/GridList.jsx -->
<g id="edge117" class="edge">
<title>ui/views/Selection.jsx&#45;&gt;ui/components/GridList.jsx</title>
<path fill="none" stroke="#757575" d="M1205.2,-1110.5C1235.44,-1110.5 1271.18,-1110.5 1303.79,-1110.5"/>
<polygon fill="#757575" stroke="#757575" points="1303.8,-1114 1313.8,-1110.5 1303.8,-1107 1303.8,-1114"/>
</g>
<!-- ui/components/AutomaticInput.jsx -->
<g id="node38" class="node">
<title>ui/components/AutomaticInput.jsx</title>
<path fill="none" stroke="#c6c5fe" d="M1783.33,-1122C1783.33,-1122 1578.67,-1122 1578.67,-1122 1574.83,-1122 1571,-1118.17 1571,-1114.33 1571,-1114.33 1571,-1106.67 1571,-1106.67 1571,-1102.83 1574.83,-1099 1578.67,-1099 1578.67,-1099 1783.33,-1099 1783.33,-1099 1787.17,-1099 1791,-1102.83 1791,-1106.67 1791,-1106.67 1791,-1114.33 1791,-1114.33 1791,-1118.17 1787.17,-1122 1783.33,-1122"/>
<text text-anchor="middle" x="1681" y="-1106.8" font-family="Arial" font-size="14.00" fill="#c6c5fe">ui/components/AutomaticInput.jsx</text>
</g>
<!-- ui/components/BooleanInput.jsx -->
<g id="node39" class="node">
<title>ui/components/BooleanInput.jsx</title>
<path fill="none" stroke="#cfffac" d="M2031.33,-1142C2031.33,-1142 1837.67,-1142 1837.67,-1142 1833.83,-1142 1830,-1138.17 1830,-1134.33 1830,-1134.33 1830,-1126.67 1830,-1126.67 1830,-1122.83 1833.83,-1119 1837.67,-1119 1837.67,-1119 2031.33,-1119 2031.33,-1119 2035.17,-1119 2039,-1122.83 2039,-1126.67 2039,-1126.67 2039,-1134.33 2039,-1134.33 2039,-1138.17 2035.17,-1142 2031.33,-1142"/>
<text text-anchor="middle" x="1934.5" y="-1126.8" font-family="Arial" font-size="14.00" fill="#cfffac">ui/components/BooleanInput.jsx</text>
</g>
<!-- ui/components/AutomaticInput.jsx&#45;&gt;ui/components/BooleanInput.jsx -->
<g id="edge87" class="edge">
<title>ui/components/AutomaticInput.jsx&#45;&gt;ui/components/BooleanInput.jsx</title>
<path fill="none" stroke="#757575" d="M1791.21,-1119.19C1800.66,-1119.94 1810.23,-1120.7 1819.71,-1121.45"/>
<polygon fill="#757575" stroke="#757575" points="1819.7,-1124.96 1829.94,-1122.26 1820.25,-1117.98 1819.7,-1124.96"/>
</g>
<!-- ui/components/ButtonInput.jsx -->
<g id="node40" class="node">
<title>ui/components/ButtonInput.jsx</title>
<path fill="none" stroke="#cfffac" d="M2025.83,-1101C2025.83,-1101 1843.17,-1101 1843.17,-1101 1839.33,-1101 1835.5,-1097.17 1835.5,-1093.33 1835.5,-1093.33 1835.5,-1085.67 1835.5,-1085.67 1835.5,-1081.83 1839.33,-1078 1843.17,-1078 1843.17,-1078 2025.83,-1078 2025.83,-1078 2029.67,-1078 2033.5,-1081.83 2033.5,-1085.67 2033.5,-1085.67 2033.5,-1093.33 2033.5,-1093.33 2033.5,-1097.17 2029.67,-1101 2025.83,-1101"/>
<text text-anchor="middle" x="1934.5" y="-1085.8" font-family="Arial" font-size="14.00" fill="#cfffac">ui/components/ButtonInput.jsx</text>
</g>
<!-- ui/components/AutomaticInput.jsx&#45;&gt;ui/components/ButtonInput.jsx -->
<g id="edge88" class="edge">
<title>ui/components/AutomaticInput.jsx&#45;&gt;ui/components/ButtonInput.jsx</title>
<path fill="none" stroke="#757575" d="M1791.21,-1101.38C1802.48,-1100.44 1813.93,-1099.48 1825.18,-1098.54"/>
<polygon fill="#757575" stroke="#757575" points="1825.78,-1102.01 1835.46,-1097.69 1825.2,-1095.03 1825.78,-1102.01"/>
</g>
<!-- ui/components/SelectionInput.jsx -->
<g id="node41" class="node">
<title>ui/components/SelectionInput.jsx</title>
<path fill="none" stroke="#cfffac" d="M2034.33,-1060C2034.33,-1060 1834.67,-1060 1834.67,-1060 1830.83,-1060 1827,-1056.17 1827,-1052.33 1827,-1052.33 1827,-1044.67 1827,-1044.67 1827,-1040.83 1830.83,-1037 1834.67,-1037 1834.67,-1037 2034.33,-1037 2034.33,-1037 2038.17,-1037 2042,-1040.83 2042,-1044.67 2042,-1044.67 2042,-1052.33 2042,-1052.33 2042,-1056.17 2038.17,-1060 2034.33,-1060"/>
<text text-anchor="middle" x="1934.5" y="-1044.8" font-family="Arial" font-size="14.00" fill="#cfffac">ui/components/SelectionInput.jsx</text>
</g>
<!-- ui/components/AutomaticInput.jsx&#45;&gt;ui/components/SelectionInput.jsx -->
<g id="edge89" class="edge">
<title>ui/components/AutomaticInput.jsx&#45;&gt;ui/components/SelectionInput.jsx</title>
<path fill="none" stroke="#757575" d="M1719.64,-1098.95C1748.78,-1090.23 1790.24,-1078.31 1827,-1069.5 1837.84,-1066.9 1849.36,-1064.38 1860.67,-1062.05"/>
<polygon fill="#757575" stroke="#757575" points="1861.42,-1065.46 1870.53,-1060.04 1860.03,-1058.6 1861.42,-1065.46"/>
</g>
<!-- ui/components/TextInput.jsx -->
<g id="node42" class="node">
<title>ui/components/TextInput.jsx</title>
<path fill="none" stroke="#cfffac" d="M2018.83,-1183C2018.83,-1183 1850.17,-1183 1850.17,-1183 1846.33,-1183 1842.5,-1179.17 1842.5,-1175.33 1842.5,-1175.33 1842.5,-1167.67 1842.5,-1167.67 1842.5,-1163.83 1846.33,-1160 1850.17,-1160 1850.17,-1160 2018.83,-1160 2018.83,-1160 2022.67,-1160 2026.5,-1163.83 2026.5,-1167.67 2026.5,-1167.67 2026.5,-1175.33 2026.5,-1175.33 2026.5,-1179.17 2022.67,-1183 2018.83,-1183"/>
<text text-anchor="middle" x="1934.5" y="-1167.8" font-family="Arial" font-size="14.00" fill="#cfffac">ui/components/TextInput.jsx</text>
</g>
<!-- ui/components/AutomaticInput.jsx&#45;&gt;ui/components/TextInput.jsx -->
<g id="edge90" class="edge">
<title>ui/components/AutomaticInput.jsx&#45;&gt;ui/components/TextInput.jsx</title>
<path fill="none" stroke="#757575" d="M1758.48,-1122.04C1769.55,-1124.62 1780.68,-1127.75 1791,-1131.5 1808.2,-1137.75 1809.78,-1145.29 1827,-1151.5 1833.04,-1153.68 1839.36,-1155.63 1845.78,-1157.38"/>
<polygon fill="#757575" stroke="#757575" points="1845.37,-1160.89 1855.93,-1159.97 1847.1,-1154.11 1845.37,-1160.89"/>
</g>
<!-- ui/components/CustomDialog.css -->
<g id="node44" class="node">
<title>ui/components/CustomDialog.css</title>
<path fill="none" stroke="#cfffac" d="M1782.33,-1163C1782.33,-1163 1579.67,-1163 1579.67,-1163 1575.83,-1163 1572,-1159.17 1572,-1155.33 1572,-1155.33 1572,-1147.67 1572,-1147.67 1572,-1143.83 1575.83,-1140 1579.67,-1140 1579.67,-1140 1782.33,-1140 1782.33,-1140 1786.17,-1140 1790,-1143.83 1790,-1147.67 1790,-1147.67 1790,-1155.33 1790,-1155.33 1790,-1159.17 1786.17,-1163 1782.33,-1163"/>
<text text-anchor="middle" x="1681" y="-1147.8" font-family="Arial" font-size="14.00" fill="#cfffac">ui/components/CustomDialog.css</text>
</g>
<!-- ui/components/CustomDialog.jsx&#45;&gt;ui/components/CustomDialog.css -->
<g id="edge91" class="edge">
<title>ui/components/CustomDialog.jsx&#45;&gt;ui/components/CustomDialog.css</title>
<path fill="none" stroke="#757575" d="M1509.7,-1151.5C1526.77,-1151.5 1544.52,-1151.5 1561.84,-1151.5"/>
<polygon fill="#757575" stroke="#757575" points="1561.98,-1155 1571.98,-1151.5 1561.98,-1148 1561.98,-1155"/>
</g>
<!-- ui/components/GridList.jsx&#45;&gt;ui/components/AutomaticInput.jsx -->
<g id="edge92" class="edge">
<title>ui/components/GridList.jsx&#45;&gt;ui/components/AutomaticInput.jsx</title>
<path fill="none" stroke="#757575" d="M1490.26,-1110.5C1512.6,-1110.5 1537.02,-1110.5 1560.67,-1110.5"/>
<polygon fill="#757575" stroke="#757575" points="1560.75,-1114 1570.75,-1110.5 1560.75,-1107 1560.75,-1114"/>
</g>
</g>
</svg>
