<?xml version="1.0" encoding="UTF-8" standalone="no"?>
<!DOCTYPE svg PUBLIC "-//W3C//DTD SVG 1.1//EN"
 "http://www.w3.org/Graphics/SVG/1.1/DTD/svg11.dtd">
<!-- Generated by graphviz version 2.43.0 (0)
 -->
<!-- Title: G Pages: 1 -->
<svg width="1489pt" height="1026pt"
 viewBox="0.00 0.00 1489.20 1025.70" xmlns="http://www.w3.org/2000/svg" xmlns:xlink="http://www.w3.org/1999/xlink">
<g id="graph0" class="graph" transform="scale(1 1) rotate(0) translate(21.6 1004.1)">
<title>G</title>
<polygon fill="#111111" stroke="transparent" points="-21.6,21.6 -21.6,-1004.1 1467.6,-1004.1 1467.6,21.6 -21.6,21.6"/>
<!-- components/csv.js -->
<g id="node1" class="node">
<title>components/csv.js</title>
<path fill="none" stroke="#c6c5fe" d="M951.33,-522.5C951.33,-522.5 838.67,-522.5 838.67,-522.5 834.83,-522.5 831,-518.67 831,-514.83 831,-514.83 831,-507.17 831,-507.17 831,-503.33 834.83,-499.5 838.67,-499.5 838.67,-499.5 951.33,-499.5 951.33,-499.5 955.17,-499.5 959,-503.33 959,-507.17 959,-507.17 959,-514.83 959,-514.83 959,-518.67 955.17,-522.5 951.33,-522.5"/>
<text text-anchor="middle" x="895" y="-507.3" font-family="Arial" font-size="14.00" fill="#c6c5fe">components/csv.js</text>
</g>
<!-- particle.js -->
<g id="node2" class="node">
<title>particle.js</title>
<path fill="none" stroke="#cfffac" d="M1438.33,-480.5C1438.33,-480.5 1379.67,-480.5 1379.67,-480.5 1375.83,-480.5 1372,-476.67 1372,-472.83 1372,-472.83 1372,-465.17 1372,-465.17 1372,-461.33 1375.83,-457.5 1379.67,-457.5 1379.67,-457.5 1438.33,-457.5 1438.33,-457.5 1442.17,-457.5 1446,-461.33 1446,-465.17 1446,-465.17 1446,-472.83 1446,-472.83 1446,-476.67 1442.17,-480.5 1438.33,-480.5"/>
<text text-anchor="middle" x="1409" y="-465.3" font-family="Arial" font-size="14.00" fill="#cfffac">particle.js</text>
</g>
<!-- components/csv.js&#45;&gt;particle.js -->
<g id="edge1" class="edge">
<title>components/csv.js&#45;&gt;particle.js</title>
<path fill="none" stroke="#757575" d="M959.11,-507.25C1044.63,-501.95 1202.04,-491.39 1336,-478 1344.29,-477.17 1353.1,-476.17 1361.61,-475.14"/>
<polygon fill="#757575" stroke="#757575" points="1362.29,-478.58 1371.78,-473.88 1361.43,-471.64 1362.29,-478.58"/>
</g>
<!-- physics.js -->
<g id="node3" class="node">
<title>physics.js</title>
<path fill="none" stroke="#c6c5fe" d="M1328.33,-361.5C1328.33,-361.5 1268.67,-361.5 1268.67,-361.5 1264.83,-361.5 1261,-357.67 1261,-353.83 1261,-353.83 1261,-346.17 1261,-346.17 1261,-342.33 1264.83,-338.5 1268.67,-338.5 1268.67,-338.5 1328.33,-338.5 1328.33,-338.5 1332.17,-338.5 1336,-342.33 1336,-346.17 1336,-346.17 1336,-353.83 1336,-353.83 1336,-357.67 1332.17,-361.5 1328.33,-361.5"/>
<text text-anchor="middle" x="1298.5" y="-346.3" font-family="Arial" font-size="14.00" fill="#c6c5fe">physics.js</text>
</g>
<!-- components/csv.js&#45;&gt;physics.js -->
<g id="edge2" class="edge">
<title>components/csv.js&#45;&gt;physics.js</title>
<path fill="none" stroke="#757575" d="M959.04,-500.12C1027.6,-486.5 1138.89,-459.03 1225,-412 1245.66,-400.72 1265.72,-382.86 1279.48,-369.2"/>
<polygon fill="#757575" stroke="#757575" points="1282.31,-371.31 1286.82,-361.72 1277.32,-366.41 1282.31,-371.31"/>
</g>
<!-- physics.js&#45;&gt;particle.js -->
<g id="edge56" class="edge">
<title>physics.js&#45;&gt;particle.js</title>
<path fill="none" stroke="#757575" d="M1310.3,-361.85C1329.07,-382.43 1367.85,-424.97 1390.5,-449.81"/>
<polygon fill="#757575" stroke="#757575" points="1387.92,-452.17 1397.24,-457.2 1393.09,-447.45 1387.92,-452.17"/>
</g>
<!-- components/keyboard.js -->
<g id="node4" class="node">
<title>components/keyboard.js</title>
<path fill="none" stroke="#cfffac" d="M402.33,-180.5C402.33,-180.5 253.67,-180.5 253.67,-180.5 249.83,-180.5 246,-176.67 246,-172.83 246,-172.83 246,-165.17 246,-165.17 246,-161.33 249.83,-157.5 253.67,-157.5 253.67,-157.5 402.33,-157.5 402.33,-157.5 406.17,-157.5 410,-161.33 410,-165.17 410,-165.17 410,-172.83 410,-172.83 410,-176.67 406.17,-180.5 402.33,-180.5"/>
<text text-anchor="middle" x="328" y="-165.3" font-family="Arial" font-size="14.00" fill="#cfffac">components/keyboard.js</text>
</g>
<!-- components/mouse.js -->
<g id="node5" class="node">
<title>components/mouse.js</title>
<path fill="none" stroke="#c6c5fe" d="M784.33,-982.5C784.33,-982.5 650.67,-982.5 650.67,-982.5 646.83,-982.5 643,-978.67 643,-974.83 643,-974.83 643,-967.17 643,-967.17 643,-963.33 646.83,-959.5 650.67,-959.5 650.67,-959.5 784.33,-959.5 784.33,-959.5 788.17,-959.5 792,-963.33 792,-967.17 792,-967.17 792,-974.83 792,-974.83 792,-978.67 788.17,-982.5 784.33,-982.5"/>
<text text-anchor="middle" x="717.5" y="-967.3" font-family="Arial" font-size="14.00" fill="#c6c5fe">components/mouse.js</text>
</g>
<!-- helpers.js -->
<g id="node6" class="node">
<title>helpers.js</title>
<path fill="none" stroke="#c6c5fe" d="M1140.83,-636.5C1140.83,-636.5 1082.17,-636.5 1082.17,-636.5 1078.33,-636.5 1074.5,-632.67 1074.5,-628.83 1074.5,-628.83 1074.5,-621.17 1074.5,-621.17 1074.5,-617.33 1078.33,-613.5 1082.17,-613.5 1082.17,-613.5 1140.83,-613.5 1140.83,-613.5 1144.67,-613.5 1148.5,-617.33 1148.5,-621.17 1148.5,-621.17 1148.5,-628.83 1148.5,-628.83 1148.5,-632.67 1144.67,-636.5 1140.83,-636.5"/>
<text text-anchor="middle" x="1111.5" y="-621.3" font-family="Arial" font-size="14.00" fill="#c6c5fe">helpers.js</text>
</g>
<!-- components/mouse.js&#45;&gt;helpers.js -->
<g id="edge3" class="edge">
<title>components/mouse.js&#45;&gt;helpers.js</title>
<path fill="none" stroke="#757575" d="M739.79,-959.43C795.62,-929.01 943.26,-847.9 962,-831 1025.37,-773.83 1077.82,-685.32 1099.63,-645.56"/>
<polygon fill="#757575" stroke="#757575" points="1102.82,-647.02 1104.5,-636.56 1096.66,-643.69 1102.82,-647.02"/>
</g>
<!-- helpers.js&#45;&gt;particle.js -->
<g id="edge54" class="edge">
<title>helpers.js&#45;&gt;particle.js</title>
<path fill="none" stroke="#757575" d="M1148.82,-630.31C1196.1,-635.24 1279.37,-636.95 1336,-599 1374.18,-573.42 1394.08,-520.5 1402.66,-490.67"/>
<polygon fill="#757575" stroke="#757575" points="1406.1,-491.38 1405.32,-480.82 1399.34,-489.56 1406.1,-491.38"/>
</g>
<!-- components/ruler.js -->
<g id="node7" class="node">
<title>components/ruler.js</title>
<path fill="none" stroke="#c6c5fe" d="M585.83,-832.5C585.83,-832.5 467.17,-832.5 467.17,-832.5 463.33,-832.5 459.5,-828.67 459.5,-824.83 459.5,-824.83 459.5,-817.17 459.5,-817.17 459.5,-813.33 463.33,-809.5 467.17,-809.5 467.17,-809.5 585.83,-809.5 585.83,-809.5 589.67,-809.5 593.5,-813.33 593.5,-817.17 593.5,-817.17 593.5,-824.83 593.5,-824.83 593.5,-828.67 589.67,-832.5 585.83,-832.5"/>
<text text-anchor="middle" x="526.5" y="-817.3" font-family="Arial" font-size="14.00" fill="#c6c5fe">components/ruler.js</text>
</g>
<!-- components/ruler.js&#45;&gt;helpers.js -->
<g id="edge5" class="edge">
<title>components/ruler.js&#45;&gt;helpers.js</title>
<path fill="none" stroke="#757575" d="M593.72,-828.03C685.47,-834.17 852.31,-832 962,-752 988.05,-733 975.17,-711.78 998,-689 1018.97,-668.07 1048.18,-651.73 1071.58,-640.79"/>
<polygon fill="#757575" stroke="#757575" points="1073.21,-643.89 1080.88,-636.58 1070.33,-637.52 1073.21,-643.89"/>
</g>
<!-- core.js -->
<g id="node8" class="node">
<title>core.js</title>
<path fill="none" stroke="#c6c5fe" d="M737.83,-386.5C737.83,-386.5 697.17,-386.5 697.17,-386.5 693.33,-386.5 689.5,-382.67 689.5,-378.83 689.5,-378.83 689.5,-371.17 689.5,-371.17 689.5,-367.33 693.33,-363.5 697.17,-363.5 697.17,-363.5 737.83,-363.5 737.83,-363.5 741.67,-363.5 745.5,-367.33 745.5,-371.17 745.5,-371.17 745.5,-378.83 745.5,-378.83 745.5,-382.67 741.67,-386.5 737.83,-386.5"/>
<text text-anchor="middle" x="717.5" y="-371.3" font-family="Arial" font-size="14.00" fill="#c6c5fe">core.js</text>
</g>
<!-- components/ruler.js&#45;&gt;core.js -->
<g id="edge4" class="edge">
<title>components/ruler.js&#45;&gt;core.js</title>
<path fill="none" stroke="#757575" d="M593.55,-810.69C598.48,-808.1 603.07,-804.91 607,-801 665.95,-742.35 703.85,-475.17 713.85,-396.72"/>
<polygon fill="#757575" stroke="#757575" points="717.35,-396.92 715.12,-386.56 710.41,-396.05 717.35,-396.92"/>
</g>
<!-- core.js&#45;&gt;components/csv.js -->
<g id="edge11" class="edge">
<title>core.js&#45;&gt;components/csv.js</title>
<path fill="none" stroke="#757575" d="M742.06,-386.65C757.59,-395.17 777.63,-407.85 792,-423 813.93,-446.11 803.84,-464.23 828,-485 832.49,-488.86 837.62,-492.18 842.98,-495.04"/>
<polygon fill="#757575" stroke="#757575" points="841.65,-498.28 852.18,-499.42 844.66,-491.96 841.65,-498.28"/>
</g>
<!-- core.js&#45;&gt;particle.js -->
<g id="edge17" class="edge">
<title>core.js&#45;&gt;particle.js</title>
<path fill="none" stroke="#757575" d="M731.08,-363.34C758.59,-337.89 822.11,-279.45 828,-277 990.95,-209.18 1049.2,-251.29 1225,-267 1274.93,-271.46 1297.22,-255.24 1336,-287 1386.01,-327.95 1401.45,-408.53 1406.09,-447.24"/>
<polygon fill="#757575" stroke="#757575" points="1402.63,-447.82 1407.17,-457.4 1409.59,-447.08 1402.63,-447.82"/>
</g>
<!-- core.js&#45;&gt;physics.js -->
<g id="edge18" class="edge">
<title>core.js&#45;&gt;physics.js</title>
<path fill="none" stroke="#757575" d="M728.51,-363.3C746.21,-343.63 785.2,-304.66 828,-290 888.98,-269.11 1173.44,-289.87 1225,-306 1243.1,-311.66 1261.34,-322.76 1274.99,-332.4"/>
<polygon fill="#757575" stroke="#757575" points="1273.12,-335.36 1283.26,-338.44 1277.25,-329.71 1273.12,-335.36"/>
</g>
<!-- core.js&#45;&gt;helpers.js -->
<g id="edge16" class="edge">
<title>core.js&#45;&gt;helpers.js</title>
<path fill="none" stroke="#757575" d="M731.75,-386.54C751.48,-403.17 790.3,-433.88 828,-452 883.9,-478.87 907.83,-460.79 962,-491 969.36,-495.11 1051,-570.08 1090,-606.05"/>
<polygon fill="#757575" stroke="#757575" points="1087.91,-608.89 1097.63,-613.1 1092.65,-603.74 1087.91,-608.89"/>
</g>
<!-- gpu/field.js -->
<g id="node10" class="node">
<title>gpu/field.js</title>
<path fill="none" stroke="#c6c5fe" d="M927.83,-442.5C927.83,-442.5 862.17,-442.5 862.17,-442.5 858.33,-442.5 854.5,-438.67 854.5,-434.83 854.5,-434.83 854.5,-427.17 854.5,-427.17 854.5,-423.33 858.33,-419.5 862.17,-419.5 862.17,-419.5 927.83,-419.5 927.83,-419.5 931.67,-419.5 935.5,-423.33 935.5,-427.17 935.5,-427.17 935.5,-434.83 935.5,-434.83 935.5,-438.67 931.67,-442.5 927.83,-442.5"/>
<text text-anchor="middle" x="895" y="-427.3" font-family="Arial" font-size="14.00" fill="#c6c5fe">gpu/field.js</text>
</g>
<!-- core.js&#45;&gt;gpu/field.js -->
<g id="edge12" class="edge">
<title>core.js&#45;&gt;gpu/field.js</title>
<path fill="none" stroke="#757575" d="M745.89,-384.2C768.01,-391.59 799.95,-402.14 828,-411 833.63,-412.78 839.54,-414.61 845.42,-416.42"/>
<polygon fill="#757575" stroke="#757575" points="844.63,-419.84 855.22,-419.41 846.67,-413.14 844.63,-419.84"/>
</g>
<!-- gpu/graphics.js -->
<g id="node11" class="node">
<title>gpu/graphics.js</title>
<path fill="none" stroke="#c6c5fe" d="M940.83,-401.5C940.83,-401.5 849.17,-401.5 849.17,-401.5 845.33,-401.5 841.5,-397.67 841.5,-393.83 841.5,-393.83 841.5,-386.17 841.5,-386.17 841.5,-382.33 845.33,-378.5 849.17,-378.5 849.17,-378.5 940.83,-378.5 940.83,-378.5 944.67,-378.5 948.5,-382.33 948.5,-386.17 948.5,-386.17 948.5,-393.83 948.5,-393.83 948.5,-397.67 944.67,-401.5 940.83,-401.5"/>
<text text-anchor="middle" x="895" y="-386.3" font-family="Arial" font-size="14.00" fill="#c6c5fe">gpu/graphics.js</text>
</g>
<!-- core.js&#45;&gt;gpu/graphics.js -->
<g id="edge13" class="edge">
<title>core.js&#45;&gt;gpu/graphics.js</title>
<path fill="none" stroke="#757575" d="M745.54,-377.31C768.33,-379.26 801.84,-382.12 831.26,-384.64"/>
<polygon fill="#757575" stroke="#757575" points="831.21,-388.15 841.47,-385.51 831.81,-381.17 831.21,-388.15"/>
</g>
<!-- gpu/shaders/computeShader.glsl.js -->
<g id="node12" class="node">
<title>gpu/shaders/computeShader.glsl.js</title>
<path fill="none" stroke="#c6c5fe" d="M1217.33,-361.5C1217.33,-361.5 1005.67,-361.5 1005.67,-361.5 1001.83,-361.5 998,-357.67 998,-353.83 998,-353.83 998,-346.17 998,-346.17 998,-342.33 1001.83,-338.5 1005.67,-338.5 1005.67,-338.5 1217.33,-338.5 1217.33,-338.5 1221.17,-338.5 1225,-342.33 1225,-346.17 1225,-346.17 1225,-353.83 1225,-353.83 1225,-357.67 1221.17,-361.5 1217.33,-361.5"/>
<text text-anchor="middle" x="1111.5" y="-346.3" font-family="Arial" font-size="14.00" fill="#c6c5fe">gpu/shaders/computeShader.glsl.js</text>
</g>
<!-- core.js&#45;&gt;gpu/shaders/computeShader.glsl.js -->
<g id="edge14" class="edge">
<title>core.js&#45;&gt;gpu/shaders/computeShader.glsl.js</title>
<path fill="none" stroke="#757575" d="M745.75,-373.26C795.19,-370.11 902.44,-363.27 987.92,-357.82"/>
<polygon fill="#757575" stroke="#757575" points="988.21,-361.31 997.96,-357.18 987.76,-354.32 988.21,-361.31"/>
</g>
<!-- gpu/simulation.js -->
<g id="node13" class="node">
<title>gpu/simulation.js</title>
<path fill="none" stroke="#c6c5fe" d="M946.33,-321.5C946.33,-321.5 843.67,-321.5 843.67,-321.5 839.83,-321.5 836,-317.67 836,-313.83 836,-313.83 836,-306.17 836,-306.17 836,-302.33 839.83,-298.5 843.67,-298.5 843.67,-298.5 946.33,-298.5 946.33,-298.5 950.17,-298.5 954,-302.33 954,-306.17 954,-306.17 954,-313.83 954,-313.83 954,-317.67 950.17,-321.5 946.33,-321.5"/>
<text text-anchor="middle" x="895" y="-306.3" font-family="Arial" font-size="14.00" fill="#c6c5fe">gpu/simulation.js</text>
</g>
<!-- core.js&#45;&gt;gpu/simulation.js -->
<g id="edge15" class="edge">
<title>core.js&#45;&gt;gpu/simulation.js</title>
<path fill="none" stroke="#757575" d="M745.54,-364.99C774.33,-354.32 820.22,-337.32 853.37,-325.05"/>
<polygon fill="#757575" stroke="#757575" points="854.62,-328.32 862.78,-321.56 852.19,-321.75 854.62,-328.32"/>
</g>
<!-- scenarios.js -->
<g id="node14" class="node">
<title>scenarios.js</title>
<path fill="none" stroke="#cfffac" d="M931.33,-203.5C931.33,-203.5 858.67,-203.5 858.67,-203.5 854.83,-203.5 851,-199.67 851,-195.83 851,-195.83 851,-188.17 851,-188.17 851,-184.33 854.83,-180.5 858.67,-180.5 858.67,-180.5 931.33,-180.5 931.33,-180.5 935.17,-180.5 939,-184.33 939,-188.17 939,-188.17 939,-195.83 939,-195.83 939,-199.67 935.17,-203.5 931.33,-203.5"/>
<text text-anchor="middle" x="895" y="-188.3" font-family="Arial" font-size="14.00" fill="#cfffac">scenarios.js</text>
</g>
<!-- core.js&#45;&gt;scenarios.js -->
<g id="edge19" class="edge">
<title>core.js&#45;&gt;scenarios.js</title>
<path fill="none" stroke="#757575" d="M726.68,-363.36C740.27,-344 768.35,-303.97 792,-270 808.06,-246.93 805.97,-235.46 828,-218 832.94,-214.08 838.54,-210.69 844.35,-207.78"/>
<polygon fill="#757575" stroke="#757575" points="845.92,-210.91 853.57,-203.58 843.01,-204.54 845.92,-210.91"/>
</g>
<!-- components/selection.js -->
<g id="node9" class="node">
<title>components/selection.js</title>
<path fill="none" stroke="#c6c5fe" d="M599.33,-595.5C599.33,-595.5 453.67,-595.5 453.67,-595.5 449.83,-595.5 446,-591.67 446,-587.83 446,-587.83 446,-580.17 446,-580.17 446,-576.33 449.83,-572.5 453.67,-572.5 453.67,-572.5 599.33,-572.5 599.33,-572.5 603.17,-572.5 607,-576.33 607,-580.17 607,-580.17 607,-587.83 607,-587.83 607,-591.67 603.17,-595.5 599.33,-595.5"/>
<text text-anchor="middle" x="526.5" y="-580.3" font-family="Arial" font-size="14.00" fill="#c6c5fe">components/selection.js</text>
</g>
<!-- components/selection.js&#45;&gt;components/csv.js -->
<g id="edge6" class="edge">
<title>components/selection.js&#45;&gt;components/csv.js</title>
<path fill="none" stroke="#757575" d="M585.57,-572.43C650.98,-559.4 757.15,-538.26 826.28,-524.49"/>
<polygon fill="#757575" stroke="#757575" points="827.08,-527.9 836.2,-522.51 825.71,-521.03 827.08,-527.9"/>
</g>
<!-- components/selection.js&#45;&gt;particle.js -->
<g id="edge9" class="edge">
<title>components/selection.js&#45;&gt;particle.js</title>
<path fill="none" stroke="#757575" d="M555.92,-595.57C578.98,-604.41 612.54,-616.06 643,-622 897.1,-671.57 967.04,-667.92 1225,-646 1274.87,-641.76 1296.35,-657.54 1336,-627 1380.17,-592.97 1398.1,-525.62 1404.65,-490.88"/>
<polygon fill="#757575" stroke="#757575" points="1408.13,-491.27 1406.39,-480.82 1401.24,-490.08 1408.13,-491.27"/>
</g>
<!-- components/selection.js&#45;&gt;physics.js -->
<g id="edge10" class="edge">
<title>components/selection.js&#45;&gt;physics.js</title>
<path fill="none" stroke="#757575" d="M607.24,-591.88C746.54,-601.35 1037.24,-601.57 1225,-465 1257.88,-441.08 1279.34,-397.28 1289.86,-371.19"/>
<polygon fill="#757575" stroke="#757575" points="1293.26,-372.1 1293.58,-361.51 1286.72,-369.58 1293.26,-372.1"/>
</g>
<!-- components/selection.js&#45;&gt;helpers.js -->
<g id="edge8" class="edge">
<title>components/selection.js&#45;&gt;helpers.js</title>
<path fill="none" stroke="#757575" d="M589.36,-595.53C606.66,-598.39 625.52,-601.16 643,-603 796.63,-619.2 979.91,-623.47 1064.07,-624.6"/>
<polygon fill="#757575" stroke="#757575" points="1064.28,-628.1 1074.32,-624.72 1064.36,-621.1 1064.28,-628.1"/>
</g>
<!-- components/selection.js&#45;&gt;core.js -->
<g id="edge7" class="edge">
<title>components/selection.js&#45;&gt;core.js</title>
<path fill="none" stroke="#757575" d="M567.38,-572.38C580.97,-567.08 595.6,-559.76 607,-550 620.54,-538.41 679.17,-439.14 704.63,-395.47"/>
<polygon fill="#757575" stroke="#757575" points="707.8,-396.98 709.8,-386.58 701.75,-393.46 707.8,-396.98"/>
</g>
<!-- gpu/field.js&#45;&gt;particle.js -->
<g id="edge21" class="edge">
<title>gpu/field.js&#45;&gt;particle.js</title>
<path fill="none" stroke="#757575" d="M935.64,-437.17C954.49,-439.92 977.36,-442.98 998,-445 1129.49,-457.85 1285.42,-464.67 1361.53,-467.46"/>
<polygon fill="#757575" stroke="#757575" points="1361.61,-470.96 1371.73,-467.83 1361.86,-463.97 1361.61,-470.96"/>
</g>
<!-- gpu/field.js&#45;&gt;helpers.js -->
<g id="edge20" class="edge">
<title>gpu/field.js&#45;&gt;helpers.js</title>
<path fill="none" stroke="#757575" d="M935.82,-441.65C945.11,-445.44 954.48,-450.45 962,-457 986.6,-478.44 977.77,-495.39 998,-521 1024.84,-554.98 1063.04,-587.8 1087.3,-607.2"/>
<polygon fill="#757575" stroke="#757575" points="1085.24,-610.03 1095.26,-613.48 1089.57,-604.53 1085.24,-610.03"/>
</g>
<!-- gpu/graphics.js&#45;&gt;particle.js -->
<g id="edge25" class="edge">
<title>gpu/graphics.js&#45;&gt;particle.js</title>
<path fill="none" stroke="#757575" d="M945.92,-401.54C962.44,-405.16 980.96,-408.98 998,-412 999.12,-412.2 1254.41,-447.67 1361.54,-462.55"/>
<polygon fill="#757575" stroke="#757575" points="1361.35,-466.05 1371.73,-463.96 1362.31,-459.12 1361.35,-466.05"/>
</g>
<!-- gpu/graphics.js&#45;&gt;helpers.js -->
<g id="edge24" class="edge">
<title>gpu/graphics.js&#45;&gt;helpers.js</title>
<path fill="none" stroke="#757575" d="M945.01,-401.53C951.04,-404.1 956.87,-407.21 962,-411 998.84,-438.21 1070.34,-556.32 1098.6,-604.46"/>
<polygon fill="#757575" stroke="#757575" points="1095.73,-606.49 1103.8,-613.36 1101.78,-602.96 1095.73,-606.49"/>
</g>
<!-- gpu/graphics.js&#45;&gt;gpu/shaders/computeShader.glsl.js -->
<g id="edge22" class="edge">
<title>gpu/graphics.js&#45;&gt;gpu/shaders/computeShader.glsl.js</title>
<path fill="none" stroke="#757575" d="M948.75,-380.16C975.82,-375.11 1009.21,-368.89 1038.61,-363.41"/>
<polygon fill="#757575" stroke="#757575" points="1039.63,-366.78 1048.82,-361.5 1038.35,-359.89 1039.63,-366.78"/>
</g>
<!-- gpu/shaders/particleShader.glsl.js -->
<g id="node15" class="node">
<title>gpu/shaders/particleShader.glsl.js</title>
<path fill="none" stroke="#cfffac" d="M1212.83,-402.5C1212.83,-402.5 1010.17,-402.5 1010.17,-402.5 1006.33,-402.5 1002.5,-398.67 1002.5,-394.83 1002.5,-394.83 1002.5,-387.17 1002.5,-387.17 1002.5,-383.33 1006.33,-379.5 1010.17,-379.5 1010.17,-379.5 1212.83,-379.5 1212.83,-379.5 1216.67,-379.5 1220.5,-383.33 1220.5,-387.17 1220.5,-387.17 1220.5,-394.83 1220.5,-394.83 1220.5,-398.67 1216.67,-402.5 1212.83,-402.5"/>
<text text-anchor="middle" x="1111.5" y="-387.3" font-family="Arial" font-size="14.00" fill="#cfffac">gpu/shaders/particleShader.glsl.js</text>
</g>
<!-- gpu/graphics.js&#45;&gt;gpu/shaders/particleShader.glsl.js -->
<g id="edge23" class="edge">
<title>gpu/graphics.js&#45;&gt;gpu/shaders/particleShader.glsl.js</title>
<path fill="none" stroke="#757575" d="M948.75,-390.25C961.95,-390.31 976.65,-390.38 991.66,-390.45"/>
<polygon fill="#757575" stroke="#757575" points="992.07,-393.95 1002.09,-390.49 992.11,-386.95 992.07,-393.95"/>
</g>
<!-- gpu/shaders/computeShader.glsl.js&#45;&gt;physics.js -->
<g id="edge26" class="edge">
<title>gpu/shaders/computeShader.glsl.js&#45;&gt;physics.js</title>
<path fill="none" stroke="#757575" d="M1225.18,-350C1234.1,-350 1242.75,-350 1250.79,-350"/>
<polygon fill="#757575" stroke="#757575" points="1250.97,-353.5 1260.97,-350 1250.97,-346.5 1250.97,-353.5"/>
</g>
<!-- gpu/simulation.js&#45;&gt;particle.js -->
<g id="edge28" class="edge">
<title>gpu/simulation.js&#45;&gt;particle.js</title>
<path fill="none" stroke="#757575" d="M935,-298.45C1018.29,-276.36 1215.73,-238.02 1336,-330 1374.81,-359.69 1394.62,-416.24 1402.98,-447.28"/>
<polygon fill="#757575" stroke="#757575" points="1399.62,-448.27 1405.47,-457.1 1406.4,-446.55 1399.62,-448.27"/>
</g>
<!-- gpu/simulation.js&#45;&gt;physics.js -->
<g id="edge29" class="edge">
<title>gpu/simulation.js&#45;&gt;physics.js</title>
<path fill="none" stroke="#757575" d="M954.06,-309.89C1020.11,-310.6 1131.02,-314.36 1225,-330 1233.7,-331.45 1242.86,-333.53 1251.63,-335.8"/>
<polygon fill="#757575" stroke="#757575" points="1250.75,-339.19 1261.32,-338.43 1252.58,-332.43 1250.75,-339.19"/>
</g>
<!-- gpu/simulation.js&#45;&gt;helpers.js -->
<g id="edge27" class="edge">
<title>gpu/simulation.js&#45;&gt;helpers.js</title>
<path fill="none" stroke="#757575" d="M911.39,-321.72C925.62,-333.05 946.81,-351.22 962,-370 1025.95,-449.06 1080.01,-558.82 1101.07,-604.14"/>
<polygon fill="#757575" stroke="#757575" points="1097.91,-605.66 1105.27,-613.28 1104.27,-602.73 1097.91,-605.66"/>
</g>
<!-- gui/advanced.js -->
<g id="node16" class="node">
<title>gui/advanced.js</title>
<path fill="none" stroke="#c6c5fe" d="M573.83,-791.5C573.83,-791.5 479.17,-791.5 479.17,-791.5 475.33,-791.5 471.5,-787.67 471.5,-783.83 471.5,-783.83 471.5,-776.17 471.5,-776.17 471.5,-772.33 475.33,-768.5 479.17,-768.5 479.17,-768.5 573.83,-768.5 573.83,-768.5 577.67,-768.5 581.5,-772.33 581.5,-776.17 581.5,-776.17 581.5,-783.83 581.5,-783.83 581.5,-787.67 577.67,-791.5 573.83,-791.5"/>
<text text-anchor="middle" x="526.5" y="-776.3" font-family="Arial" font-size="14.00" fill="#c6c5fe">gui/advanced.js</text>
</g>
<!-- gui/advanced.js&#45;&gt;helpers.js -->
<g id="edge31" class="edge">
<title>gui/advanced.js&#45;&gt;helpers.js</title>
<path fill="none" stroke="#757575" d="M581.52,-782.05C666.64,-783.17 835.31,-776.72 962,-717 980.33,-708.36 981.15,-700.26 998,-689 1024.44,-671.33 1056.02,-653.64 1078.98,-641.35"/>
<polygon fill="#757575" stroke="#757575" points="1080.76,-644.37 1087.95,-636.59 1077.47,-638.19 1080.76,-644.37"/>
</g>
<!-- gui/advanced.js&#45;&gt;core.js -->
<g id="edge30" class="edge">
<title>gui/advanced.js&#45;&gt;core.js</title>
<path fill="none" stroke="#757575" d="M532.95,-768.32C559.2,-712.08 672.63,-469 706.75,-395.88"/>
<polygon fill="#757575" stroke="#757575" points="709.97,-397.27 711.03,-386.73 703.62,-394.31 709.97,-397.27"/>
</g>
<!-- gui/controls.js -->
<g id="node17" class="node">
<title>gui/controls.js</title>
<path fill="none" stroke="#c6c5fe" d="M568.33,-452.5C568.33,-452.5 484.67,-452.5 484.67,-452.5 480.83,-452.5 477,-448.67 477,-444.83 477,-444.83 477,-437.17 477,-437.17 477,-433.33 480.83,-429.5 484.67,-429.5 484.67,-429.5 568.33,-429.5 568.33,-429.5 572.17,-429.5 576,-433.33 576,-437.17 576,-437.17 576,-444.83 576,-444.83 576,-448.67 572.17,-452.5 568.33,-452.5"/>
<text text-anchor="middle" x="526.5" y="-437.3" font-family="Arial" font-size="14.00" fill="#c6c5fe">gui/controls.js</text>
</g>
<!-- gui/controls.js&#45;&gt;components/csv.js -->
<g id="edge32" class="edge">
<title>gui/controls.js&#45;&gt;components/csv.js</title>
<path fill="none" stroke="#757575" d="M576.28,-437.42C630.51,-435.09 719.94,-436.18 792,-461 810.18,-467.26 810.96,-476.09 828,-485 835.29,-488.81 843.28,-492.41 851.09,-495.64"/>
<polygon fill="#757575" stroke="#757575" points="849.9,-498.93 860.49,-499.38 852.5,-492.43 849.9,-498.93"/>
</g>
<!-- gui/controls.js&#45;&gt;helpers.js -->
<g id="edge34" class="edge">
<title>gui/controls.js&#45;&gt;helpers.js</title>
<path fill="none" stroke="#757575" d="M563.97,-452.51C665.72,-484.62 952.59,-575.16 1064.75,-610.56"/>
<polygon fill="#757575" stroke="#757575" points="1063.83,-613.94 1074.42,-613.61 1065.93,-607.26 1063.83,-613.94"/>
</g>
<!-- gui/controls.js&#45;&gt;core.js -->
<g id="edge33" class="edge">
<title>gui/controls.js&#45;&gt;core.js</title>
<path fill="none" stroke="#757575" d="M563.6,-429.48C577.24,-425.06 592.87,-419.89 607,-415 631.27,-406.6 658.39,-396.7 679.56,-388.85"/>
<polygon fill="#757575" stroke="#757575" points="680.99,-392.05 689.14,-385.29 678.55,-385.49 680.99,-392.05"/>
</g>
<!-- gui/controls.js&#45;&gt;scenarios.js -->
<g id="edge35" class="edge">
<title>gui/controls.js&#45;&gt;scenarios.js</title>
<path fill="none" stroke="#757575" d="M540.41,-429.42C580.52,-393.89 707.55,-284.8 828,-218 834.97,-214.14 842.63,-210.57 850.19,-207.39"/>
<polygon fill="#757575" stroke="#757575" points="851.68,-210.56 859.64,-203.57 849.06,-204.06 851.68,-210.56"/>
</g>
<!-- gui/dat.gui.js -->
<g id="node18" class="node">
<title>gui/dat.gui.js</title>
<path fill="none" stroke="#cfffac" d="M366.33,-139.5C366.33,-139.5 289.67,-139.5 289.67,-139.5 285.83,-139.5 282,-135.67 282,-131.83 282,-131.83 282,-124.17 282,-124.17 282,-120.33 285.83,-116.5 289.67,-116.5 289.67,-116.5 366.33,-116.5 366.33,-116.5 370.17,-116.5 374,-120.33 374,-124.17 374,-124.17 374,-131.83 374,-131.83 374,-135.67 370.17,-139.5 366.33,-139.5"/>
<text text-anchor="middle" x="328" y="-124.3" font-family="Arial" font-size="14.00" fill="#cfffac">gui/dat.gui.js</text>
</g>
<!-- gui/field.js -->
<g id="node19" class="node">
<title>gui/field.js</title>
<path fill="none" stroke="#c6c5fe" d="M358.83,-336.5C358.83,-336.5 297.17,-336.5 297.17,-336.5 293.33,-336.5 289.5,-332.67 289.5,-328.83 289.5,-328.83 289.5,-321.17 289.5,-321.17 289.5,-317.33 293.33,-313.5 297.17,-313.5 297.17,-313.5 358.83,-313.5 358.83,-313.5 362.67,-313.5 366.5,-317.33 366.5,-321.17 366.5,-321.17 366.5,-328.83 366.5,-328.83 366.5,-332.67 362.67,-336.5 358.83,-336.5"/>
<text text-anchor="middle" x="328" y="-321.3" font-family="Arial" font-size="14.00" fill="#c6c5fe">gui/field.js</text>
</g>
<!-- gui/field.js&#45;&gt;core.js -->
<g id="edge36" class="edge">
<title>gui/field.js&#45;&gt;core.js</title>
<path fill="none" stroke="#757575" d="M366.54,-326.49C420.15,-329.01 521.63,-335.26 607,-349 631.37,-352.92 658.35,-359.31 679.44,-364.77"/>
<polygon fill="#757575" stroke="#757575" points="678.71,-368.19 689.27,-367.36 680.49,-361.42 678.71,-368.19"/>
</g>
<!-- gui/generator.js -->
<g id="node20" class="node">
<title>gui/generator.js</title>
<path fill="none" stroke="#c6c5fe" d="M374.83,-675.5C374.83,-675.5 281.17,-675.5 281.17,-675.5 277.33,-675.5 273.5,-671.67 273.5,-667.83 273.5,-667.83 273.5,-660.17 273.5,-660.17 273.5,-656.33 277.33,-652.5 281.17,-652.5 281.17,-652.5 374.83,-652.5 374.83,-652.5 378.67,-652.5 382.5,-656.33 382.5,-660.17 382.5,-660.17 382.5,-667.83 382.5,-667.83 382.5,-671.67 378.67,-675.5 374.83,-675.5"/>
<text text-anchor="middle" x="328" y="-660.3" font-family="Arial" font-size="14.00" fill="#c6c5fe">gui/generator.js</text>
</g>
<!-- gui/generator.js&#45;&gt;physics.js -->
<g id="edge40" class="edge">
<title>gui/generator.js&#45;&gt;physics.js</title>
<path fill="none" stroke="#757575" d="M336.88,-675.74C351.42,-697.44 383.44,-745.35 410,-786 426.18,-810.77 420.03,-827.82 446,-842 648.12,-952.35 748.28,-880.76 962,-795 1086.68,-744.97 1143.93,-753.13 1225,-646 1289.84,-560.31 1297.43,-424.28 1297.8,-371.72"/>
<polygon fill="#757575" stroke="#757575" points="1301.3,-371.54 1297.78,-361.55 1294.3,-371.56 1301.3,-371.54"/>
</g>
<!-- gui/generator.js&#45;&gt;helpers.js -->
<g id="edge39" class="edge">
<title>gui/generator.js&#45;&gt;helpers.js</title>
<path fill="none" stroke="#757575" d="M382.79,-670.83C392.19,-673.26 401.63,-676.54 410,-681 429.7,-691.48 425.35,-707.55 446,-716 588.34,-774.21 639.15,-733.87 792,-717 868.95,-708.5 887.69,-700.72 962,-679 1000.21,-667.83 1042.81,-651.98 1072.55,-640.34"/>
<polygon fill="#757575" stroke="#757575" points="1074.1,-643.49 1082.12,-636.56 1071.53,-636.97 1074.1,-643.49"/>
</g>
<!-- gui/generator.js&#45;&gt;core.js -->
<g id="edge38" class="edge">
<title>gui/generator.js&#45;&gt;core.js</title>
<path fill="none" stroke="#757575" d="M341.49,-652.28C362.37,-632.93 406.02,-593.52 446,-564 514.15,-513.69 537.96,-511.08 607,-462 638.45,-439.64 673.04,-411.52 694.76,-393.4"/>
<polygon fill="#757575" stroke="#757575" points="697.28,-395.86 702.7,-386.75 692.78,-390.5 697.28,-395.86"/>
</g>
<!-- gui/generator.js&#45;&gt;components/selection.js -->
<g id="edge37" class="edge">
<title>gui/generator.js&#45;&gt;components/selection.js</title>
<path fill="none" stroke="#757575" d="M357.57,-652.37C391.87,-638.4 449.5,-614.94 487.52,-599.46"/>
<polygon fill="#757575" stroke="#757575" points="489.27,-602.53 497.21,-595.52 486.63,-596.05 489.27,-602.53"/>
</g>
<!-- scenariosHelpers.js -->
<g id="node21" class="node">
<title>scenariosHelpers.js</title>
<path fill="none" stroke="#c6c5fe" d="M954.33,-944.5C954.33,-944.5 835.67,-944.5 835.67,-944.5 831.83,-944.5 828,-940.67 828,-936.83 828,-936.83 828,-929.17 828,-929.17 828,-925.33 831.83,-921.5 835.67,-921.5 835.67,-921.5 954.33,-921.5 954.33,-921.5 958.17,-921.5 962,-925.33 962,-929.17 962,-929.17 962,-936.83 962,-936.83 962,-940.67 958.17,-944.5 954.33,-944.5"/>
<text text-anchor="middle" x="895" y="-929.3" font-family="Arial" font-size="14.00" fill="#c6c5fe">scenariosHelpers.js</text>
</g>
<!-- gui/generator.js&#45;&gt;scenariosHelpers.js -->
<g id="edge41" class="edge">
<title>gui/generator.js&#45;&gt;scenariosHelpers.js</title>
<path fill="none" stroke="#757575" d="M330.48,-675.54C336.33,-715.8 361.77,-850.6 446,-907 504.85,-946.41 706.1,-942.95 817.78,-937.64"/>
<polygon fill="#757575" stroke="#757575" points="818.16,-941.13 827.97,-937.14 817.81,-934.14 818.16,-941.13"/>
</g>
<!-- scenariosHelpers.js&#45;&gt;particle.js -->
<g id="edge58" class="edge">
<title>scenariosHelpers.js&#45;&gt;particle.js</title>
<path fill="none" stroke="#757575" d="M962.37,-925.04C1059.2,-909.81 1238.27,-867.4 1336,-755 1404.08,-676.71 1409.49,-543.17 1408.79,-490.9"/>
<polygon fill="#757575" stroke="#757575" points="1412.29,-490.68 1408.56,-480.76 1405.29,-490.83 1412.29,-490.68"/>
</g>
<!-- scenariosHelpers.js&#45;&gt;helpers.js -->
<g id="edge57" class="edge">
<title>scenariosHelpers.js&#45;&gt;helpers.js</title>
<path fill="none" stroke="#757575" d="M909.9,-921.4C924,-909.22 945.97,-889.08 962,-869 1023,-792.6 1078.11,-689.17 1100.23,-645.65"/>
<polygon fill="#757575" stroke="#757575" points="1103.41,-647.11 1104.79,-636.61 1097.16,-643.96 1103.41,-647.11"/>
</g>
<!-- gui/info.js -->
<g id="node22" class="node">
<title>gui/info.js</title>
<path fill="none" stroke="#c6c5fe" d="M555.83,-296.5C555.83,-296.5 497.17,-296.5 497.17,-296.5 493.33,-296.5 489.5,-292.67 489.5,-288.83 489.5,-288.83 489.5,-281.17 489.5,-281.17 489.5,-277.33 493.33,-273.5 497.17,-273.5 497.17,-273.5 555.83,-273.5 555.83,-273.5 559.67,-273.5 563.5,-277.33 563.5,-281.17 563.5,-281.17 563.5,-288.83 563.5,-288.83 563.5,-292.67 559.67,-296.5 555.83,-296.5"/>
<text text-anchor="middle" x="526.5" y="-281.3" font-family="Arial" font-size="14.00" fill="#c6c5fe">gui/info.js</text>
</g>
<!-- gui/info.js&#45;&gt;physics.js -->
<g id="edge44" class="edge">
<title>gui/info.js&#45;&gt;physics.js</title>
<path fill="none" stroke="#757575" d="M563.68,-283.03C578.58,-280.54 595.11,-275.4 607,-265 639.43,-236.65 609.17,-201.67 643,-175 754.74,-86.91 823.45,-115.63 962,-148 1088.97,-177.67 1118.92,-202.19 1225,-278 1246.31,-293.23 1267.16,-314.84 1280.99,-330.41"/>
<polygon fill="#757575" stroke="#757575" points="1278.7,-333.11 1287.9,-338.36 1283.98,-328.52 1278.7,-333.11"/>
</g>
<!-- gui/info.js&#45;&gt;helpers.js -->
<g id="edge43" class="edge">
<title>gui/info.js&#45;&gt;helpers.js</title>
<path fill="none" stroke="#757575" d="M563.71,-278.92C577.65,-275.81 593.45,-271.31 607,-265 624.89,-256.67 625.58,-248.27 643,-239 720.34,-197.86 741.75,-186.35 828,-171 886.63,-160.57 916.88,-132.12 962,-171 1003.02,-206.35 981.12,-360.55 998,-412 1022.76,-487.46 1072.7,-568.18 1096.83,-604.83"/>
<polygon fill="#757575" stroke="#757575" points="1093.92,-606.78 1102.38,-613.17 1099.75,-602.9 1093.92,-606.78"/>
</g>
<!-- gui/info.js&#45;&gt;core.js -->
<g id="edge42" class="edge">
<title>gui/info.js&#45;&gt;core.js</title>
<path fill="none" stroke="#757575" d="M563.73,-295.06C577.52,-299.36 593.23,-304.81 607,-311 636.87,-324.43 669,-343.86 690.68,-357.78"/>
<polygon fill="#757575" stroke="#757575" points="689,-360.87 699.29,-363.38 692.81,-355 689,-360.87"/>
</g>
<!-- gui/parameters.js -->
<g id="node23" class="node">
<title>gui/parameters.js</title>
<path fill="none" stroke="#c6c5fe" d="M579.33,-255.5C579.33,-255.5 473.67,-255.5 473.67,-255.5 469.83,-255.5 466,-251.67 466,-247.83 466,-247.83 466,-240.17 466,-240.17 466,-236.33 469.83,-232.5 473.67,-232.5 473.67,-232.5 579.33,-232.5 579.33,-232.5 583.17,-232.5 587,-236.33 587,-240.17 587,-240.17 587,-247.83 587,-247.83 587,-251.67 583.17,-255.5 579.33,-255.5"/>
<text text-anchor="middle" x="526.5" y="-240.3" font-family="Arial" font-size="14.00" fill="#c6c5fe">gui/parameters.js</text>
</g>
<!-- gui/parameters.js&#45;&gt;physics.js -->
<g id="edge46" class="edge">
<title>gui/parameters.js&#45;&gt;physics.js</title>
<path fill="none" stroke="#757575" d="M546.37,-232.34C563.75,-220.9 589.43,-202.12 607,-181 628.87,-154.71 613.7,-130.64 643,-113 649.48,-109.1 949.38,-113.99 962,-115 1079.79,-124.38 1133.25,-79.53 1225,-154 1279.44,-198.19 1293,-287.38 1296.38,-328.43"/>
<polygon fill="#757575" stroke="#757575" points="1292.89,-328.7 1297.08,-338.43 1299.87,-328.21 1292.89,-328.7"/>
</g>
<!-- gui/parameters.js&#45;&gt;core.js -->
<g id="edge45" class="edge">
<title>gui/parameters.js&#45;&gt;core.js</title>
<path fill="none" stroke="#757575" d="M585.82,-255.54C593.2,-258.11 600.45,-261.22 607,-265 647.34,-288.25 683.1,-330.23 702.1,-355.06"/>
<polygon fill="#757575" stroke="#757575" points="699.52,-357.45 708.31,-363.36 705.12,-353.26 699.52,-357.45"/>
</g>
<!-- gui/particle.js -->
<g id="node24" class="node">
<title>gui/particle.js</title>
<path fill="none" stroke="#c6c5fe" d="M566.33,-172.5C566.33,-172.5 486.67,-172.5 486.67,-172.5 482.83,-172.5 479,-168.67 479,-164.83 479,-164.83 479,-157.17 479,-157.17 479,-153.33 482.83,-149.5 486.67,-149.5 486.67,-149.5 566.33,-149.5 566.33,-149.5 570.17,-149.5 574,-153.33 574,-157.17 574,-157.17 574,-164.83 574,-164.83 574,-168.67 570.17,-172.5 566.33,-172.5"/>
<text text-anchor="middle" x="526.5" y="-157.3" font-family="Arial" font-size="14.00" fill="#c6c5fe">gui/particle.js</text>
</g>
<!-- gui/particle.js&#45;&gt;particle.js -->
<g id="edge49" class="edge">
<title>gui/particle.js&#45;&gt;particle.js</title>
<path fill="none" stroke="#757575" d="M541.85,-149.42C589.09,-112.51 745.28,0 894,0 894,0 894,0 1112.5,0 1326.83,0 1391.89,-354.96 1405.18,-447.27"/>
<polygon fill="#757575" stroke="#757575" points="1401.75,-447.98 1406.58,-457.41 1408.68,-447.02 1401.75,-447.98"/>
</g>
<!-- gui/particle.js&#45;&gt;helpers.js -->
<g id="edge48" class="edge">
<title>gui/particle.js&#45;&gt;helpers.js</title>
<path fill="none" stroke="#757575" d="M553.78,-149.47C628.25,-118.76 843.03,-44.15 962,-148 1006.61,-186.94 979.9,-355.63 998,-412 1022.28,-487.62 1072.45,-568.26 1096.73,-604.86"/>
<polygon fill="#757575" stroke="#757575" points="1093.84,-606.83 1102.32,-613.18 1099.65,-602.93 1093.84,-606.83"/>
</g>
<!-- gui/particle.js&#45;&gt;core.js -->
<g id="edge47" class="edge">
<title>gui/particle.js&#45;&gt;core.js</title>
<path fill="none" stroke="#757575" d="M544.75,-172.57C561.65,-184.38 587.63,-203.78 607,-224 647.43,-266.2 685.28,-323.94 704.09,-354.34"/>
<polygon fill="#757575" stroke="#757575" points="701.3,-356.49 709.51,-363.2 707.27,-352.84 701.3,-356.49"/>
</g>
<!-- gui/selection.js -->
<g id="node25" class="node">
<title>gui/selection.js</title>
<path fill="none" stroke="#c6c5fe" d="M372.83,-492.5C372.83,-492.5 283.17,-492.5 283.17,-492.5 279.33,-492.5 275.5,-488.67 275.5,-484.83 275.5,-484.83 275.5,-477.17 275.5,-477.17 275.5,-473.33 279.33,-469.5 283.17,-469.5 283.17,-469.5 372.83,-469.5 372.83,-469.5 376.67,-469.5 380.5,-473.33 380.5,-477.17 380.5,-477.17 380.5,-484.83 380.5,-484.83 380.5,-488.67 376.67,-492.5 372.83,-492.5"/>
<text text-anchor="middle" x="328" y="-477.3" font-family="Arial" font-size="14.00" fill="#c6c5fe">gui/selection.js</text>
</g>
<!-- gui/selection.js&#45;&gt;components/csv.js -->
<g id="edge50" class="edge">
<title>gui/selection.js&#45;&gt;components/csv.js</title>
<path fill="none" stroke="#757575" d="M380.64,-483.74C481.39,-489.09 704.45,-500.94 820.55,-507.1"/>
<polygon fill="#757575" stroke="#757575" points="820.59,-510.61 830.76,-507.64 820.96,-503.62 820.59,-510.61"/>
</g>
<!-- gui/selection.js&#45;&gt;helpers.js -->
<g id="edge53" class="edge">
<title>gui/selection.js&#45;&gt;helpers.js</title>
<path fill="none" stroke="#757575" d="M335.7,-492.51C351.27,-518.05 392.7,-579.24 446,-605 657.11,-707.04 951.64,-659.72 1064.24,-635.84"/>
<polygon fill="#757575" stroke="#757575" points="1065.21,-639.21 1074.24,-633.68 1063.73,-632.37 1065.21,-639.21"/>
</g>
<!-- gui/selection.js&#45;&gt;core.js -->
<g id="edge52" class="edge">
<title>gui/selection.js&#45;&gt;core.js</title>
<path fill="none" stroke="#757575" d="M347.27,-469.38C369.66,-455.69 409.18,-433.25 446,-421 526.56,-394.2 626.05,-382.42 679.07,-377.74"/>
<polygon fill="#757575" stroke="#757575" points="679.68,-381.2 689.35,-376.87 679.09,-374.22 679.68,-381.2"/>
</g>
<!-- gui/selection.js&#45;&gt;components/selection.js -->
<g id="edge51" class="edge">
<title>gui/selection.js&#45;&gt;components/selection.js</title>
<path fill="none" stroke="#757575" d="M351.16,-492.62C386.19,-510.98 454.48,-546.77 494.4,-567.7"/>
<polygon fill="#757575" stroke="#757575" points="492.94,-570.88 503.42,-572.43 496.19,-564.68 492.94,-570.88"/>
</g>
<!-- gui/stats.js -->
<g id="node26" class="node">
<title>gui/stats.js</title>
<path fill="none" stroke="#cfffac" d="M360.33,-98.5C360.33,-98.5 295.67,-98.5 295.67,-98.5 291.83,-98.5 288,-94.67 288,-90.83 288,-90.83 288,-83.17 288,-83.17 288,-79.33 291.83,-75.5 295.67,-75.5 295.67,-75.5 360.33,-75.5 360.33,-75.5 364.17,-75.5 368,-79.33 368,-83.17 368,-83.17 368,-90.83 368,-90.83 368,-94.67 364.17,-98.5 360.33,-98.5"/>
<text text-anchor="middle" x="328" y="-83.3" font-family="Arial" font-size="14.00" fill="#cfffac">gui/stats.js</text>
</g>
<!-- main.js -->
<g id="node27" class="node">
<title>main.js</title>
<path fill="none" stroke="#c6c5fe" d="M81.33,-376.5C81.33,-376.5 36.67,-376.5 36.67,-376.5 32.83,-376.5 29,-372.67 29,-368.83 29,-368.83 29,-361.17 29,-361.17 29,-357.33 32.83,-353.5 36.67,-353.5 36.67,-353.5 81.33,-353.5 81.33,-353.5 85.17,-353.5 89,-357.33 89,-361.17 89,-361.17 89,-368.83 89,-368.83 89,-372.67 85.17,-376.5 81.33,-376.5"/>
<text text-anchor="middle" x="59" y="-361.3" font-family="Arial" font-size="14.00" fill="#c6c5fe">main.js</text>
</g>
<!-- view.js -->
<g id="node28" class="node">
<title>view.js</title>
<path fill="none" stroke="#c6c5fe" d="M202.33,-376.5C202.33,-376.5 161.67,-376.5 161.67,-376.5 157.83,-376.5 154,-372.67 154,-368.83 154,-368.83 154,-361.17 154,-361.17 154,-357.33 157.83,-353.5 161.67,-353.5 161.67,-353.5 202.33,-353.5 202.33,-353.5 206.17,-353.5 210,-357.33 210,-361.17 210,-361.17 210,-368.83 210,-368.83 210,-372.67 206.17,-376.5 202.33,-376.5"/>
<text text-anchor="middle" x="182" y="-361.3" font-family="Arial" font-size="14.00" fill="#c6c5fe">view.js</text>
</g>
<!-- main.js&#45;&gt;view.js -->
<g id="edge55" class="edge">
<title>main.js&#45;&gt;view.js</title>
<path fill="none" stroke="#757575" d="M89.29,-365C105.51,-365 125.85,-365 143.25,-365"/>
<polygon fill="#757575" stroke="#757575" points="143.64,-368.5 153.64,-365 143.64,-361.5 143.64,-368.5"/>
</g>
<!-- view.js&#45;&gt;components/keyboard.js -->
<g id="edge59" class="edge">
<title>view.js&#45;&gt;components/keyboard.js</title>
<path fill="none" stroke="#757575" d="M183.91,-353.21C186.9,-322.59 199.15,-239.82 246,-195 250,-191.17 254.57,-187.91 259.45,-185.12"/>
<polygon fill="#757575" stroke="#757575" points="261.13,-188.2 268.52,-180.61 258.01,-181.93 261.13,-188.2"/>
</g>
<!-- view.js&#45;&gt;components/mouse.js -->
<g id="edge60" class="edge">
<title>view.js&#45;&gt;components/mouse.js</title>
<path fill="none" stroke="#757575" d="M183.52,-376.53C186.41,-436.97 202.01,-717.23 246,-790 302.93,-884.18 343.78,-895.22 446,-936 505.62,-959.79 577.95,-968.2 632.81,-970.84"/>
<polygon fill="#757575" stroke="#757575" points="632.7,-974.34 642.84,-971.27 633,-967.35 632.7,-974.34"/>
</g>
<!-- view.js&#45;&gt;components/ruler.js -->
<g id="edge61" class="edge">
<title>view.js&#45;&gt;components/ruler.js</title>
<path fill="none" stroke="#757575" d="M183.36,-376.52C185.37,-433.29 196.91,-682.87 246,-739 296.48,-796.72 385.22,-814.83 449.19,-820.01"/>
<polygon fill="#757575" stroke="#757575" points="449.01,-823.5 459.23,-820.73 449.51,-816.52 449.01,-823.5"/>
</g>
<!-- view.js&#45;&gt;core.js -->
<g id="edge63" class="edge">
<title>view.js&#45;&gt;core.js</title>
<path fill="none" stroke="#757575" d="M210.19,-365.51C298.58,-367.17 577.92,-372.4 679.29,-374.3"/>
<polygon fill="#757575" stroke="#757575" points="679.3,-377.8 689.36,-374.49 679.43,-370.8 679.3,-377.8"/>
</g>
<!-- view.js&#45;&gt;components/selection.js -->
<g id="edge62" class="edge">
<title>view.js&#45;&gt;components/selection.js</title>
<path fill="none" stroke="#757575" d="M185.04,-376.88C190.21,-403.41 206.38,-467.77 246,-502 298.81,-547.63 375.92,-567.89 435.77,-576.88"/>
<polygon fill="#757575" stroke="#757575" points="435.59,-580.39 445.98,-578.33 436.57,-573.46 435.59,-580.39"/>
</g>
<!-- view.js&#45;&gt;gui/advanced.js -->
<g id="edge64" class="edge">
<title>view.js&#45;&gt;gui/advanced.js</title>
<path fill="none" stroke="#757575" d="M183.75,-376.51C187.35,-428.04 204.35,-637.18 246,-685 300.31,-747.37 397.21,-768.86 461.42,-776.22"/>
<polygon fill="#757575" stroke="#757575" points="461.12,-779.71 471.44,-777.28 461.86,-772.75 461.12,-779.71"/>
</g>
<!-- view.js&#45;&gt;gui/controls.js -->
<g id="edge65" class="edge">
<title>view.js&#45;&gt;gui/controls.js</title>
<path fill="none" stroke="#757575" d="M210.29,-371.07C221.37,-373.53 234.3,-376.4 246,-379 322.33,-395.95 410.39,-415.48 466.94,-428.02"/>
<polygon fill="#757575" stroke="#757575" points="466.25,-431.45 476.77,-430.2 467.77,-424.62 466.25,-431.45"/>
</g>
<!-- view.js&#45;&gt;gui/dat.gui.js -->
<g id="edge66" class="edge">
<title>view.js&#45;&gt;gui/dat.gui.js</title>
<path fill="none" stroke="#757575" d="M182.63,-353.33C182.16,-317.14 185.87,-205.74 246,-148 253.21,-141.08 262.42,-136.43 272.02,-133.34"/>
<polygon fill="#757575" stroke="#757575" points="272.95,-136.72 281.7,-130.74 271.13,-129.96 272.95,-136.72"/>
</g>
<!-- view.js&#45;&gt;gui/field.js -->
<g id="edge67" class="edge">
<title>view.js&#45;&gt;gui/field.js</title>
<path fill="none" stroke="#757575" d="M210.09,-357.48C229.69,-352.03 256.69,-344.53 279.8,-338.11"/>
<polygon fill="#757575" stroke="#757575" points="280.74,-341.48 289.44,-335.43 278.87,-334.74 280.74,-341.48"/>
</g>
<!-- view.js&#45;&gt;gui/generator.js -->
<g id="edge68" class="edge">
<title>view.js&#45;&gt;gui/generator.js</title>
<path fill="none" stroke="#757575" d="M184.96,-376.57C190.7,-408.49 209.43,-499.91 246,-567 262.45,-597.17 289.09,-626.73 307.29,-645.14"/>
<polygon fill="#757575" stroke="#757575" points="304.96,-647.75 314.53,-652.31 309.89,-642.78 304.96,-647.75"/>
</g>
<!-- view.js&#45;&gt;gui/info.js -->
<g id="edge69" class="edge">
<title>view.js&#45;&gt;gui/info.js</title>
<path fill="none" stroke="#757575" d="M191.22,-353.25C201.97,-338.98 222.24,-315.5 246,-305 322.24,-271.3 421.62,-273.75 479.02,-279.06"/>
<polygon fill="#757575" stroke="#757575" points="478.94,-282.57 489.24,-280.07 479.63,-275.6 478.94,-282.57"/>
</g>
<!-- view.js&#45;&gt;gui/parameters.js -->
<g id="edge70" class="edge">
<title>view.js&#45;&gt;gui/parameters.js</title>
<path fill="none" stroke="#757575" d="M187.01,-353.29C194.77,-332.65 213.95,-290.14 246,-271 309.5,-233.08 395.91,-230.62 455.77,-234.91"/>
<polygon fill="#757575" stroke="#757575" points="455.63,-238.41 465.88,-235.72 456.19,-231.44 455.63,-238.41"/>
</g>
<!-- view.js&#45;&gt;gui/particle.js -->
<g id="edge71" class="edge">
<title>view.js&#45;&gt;gui/particle.js</title>
<path fill="none" stroke="#757575" d="M184.88,-353.46C189.8,-327.11 205.59,-262.2 246,-229 246.27,-228.77 387,-194.6 468.64,-174.79"/>
<polygon fill="#757575" stroke="#757575" points="469.88,-178.09 478.78,-172.33 468.23,-171.29 469.88,-178.09"/>
</g>
<!-- view.js&#45;&gt;gui/selection.js -->
<g id="edge72" class="edge">
<title>view.js&#45;&gt;gui/selection.js</title>
<path fill="none" stroke="#757575" d="M191.37,-376.66C202.57,-391.71 223.63,-418.06 246,-436 260.03,-447.25 277.25,-457.26 292.2,-464.96"/>
<polygon fill="#757575" stroke="#757575" points="290.66,-468.11 301.17,-469.45 293.8,-461.85 290.66,-468.11"/>
</g>
<!-- view.js&#45;&gt;gui/stats.js -->
<g id="edge73" class="edge">
<title>view.js&#45;&gt;gui/stats.js</title>
<path fill="none" stroke="#757575" d="M184.26,-353.26C189.4,-307.64 210.18,-142.91 246,-107 254.55,-98.43 266.15,-93.32 277.9,-90.33"/>
<polygon fill="#757575" stroke="#757575" points="278.67,-93.75 287.75,-88.29 277.24,-86.89 278.67,-93.75"/>
</g>
<!-- mock/graphics.js -->
<g id="node29" class="node">
<title>mock/graphics.js</title>
<path fill="none" stroke="#cfffac" d="M110.33,-417.5C110.33,-417.5 7.67,-417.5 7.67,-417.5 3.83,-417.5 0,-413.67 0,-409.83 0,-409.83 0,-402.17 0,-402.17 0,-398.33 3.83,-394.5 7.67,-394.5 7.67,-394.5 110.33,-394.5 110.33,-394.5 114.17,-394.5 118,-398.33 118,-402.17 118,-402.17 118,-409.83 118,-409.83 118,-413.67 114.17,-417.5 110.33,-417.5"/>
<text text-anchor="middle" x="59" y="-402.3" font-family="Arial" font-size="14.00" fill="#cfffac">mock/graphics.js</text>
</g>
</g>
</svg>
