<?xml version="1.0" encoding="UTF-8" standalone="no"?>
<!DOCTYPE svg PUBLIC "-//W3C//DTD SVG 1.1//EN"
 "http://www.w3.org/Graphics/SVG/1.1/DTD/svg11.dtd">
<!-- Generated by graphviz version 2.40.1 (20161225.0304)
 -->
<!-- Title: G Pages: 1 -->
<svg width="1603pt" height="990pt"
 viewBox="0.00 0.00 1603.20 989.55" xmlns="http://www.w3.org/2000/svg" xmlns:xlink="http://www.w3.org/1999/xlink">
<g id="graph0" class="graph" transform="scale(1 1) rotate(0) translate(21.6 967.9486)">
<title>G</title>
<polygon fill="#111111" stroke="transparent" points="-21.6,21.6 -21.6,-967.9486 1581.6,-967.9486 1581.6,21.6 -21.6,21.6"/>
<!-- components/csv.js -->
<g id="node1" class="node">
<title>components/csv.js</title>
<path fill="none" stroke="#c6c5fe" d="M1039.8333,-124.3486C1039.8333,-124.3486 918.1667,-124.3486 918.1667,-124.3486 914.3333,-124.3486 910.5,-120.5152 910.5,-116.6819 910.5,-116.6819 910.5,-109.0152 910.5,-109.0152 910.5,-105.1819 914.3333,-101.3486 918.1667,-101.3486 918.1667,-101.3486 1039.8333,-101.3486 1039.8333,-101.3486 1043.6667,-101.3486 1047.5,-105.1819 1047.5,-109.0152 1047.5,-109.0152 1047.5,-116.6819 1047.5,-116.6819 1047.5,-120.5152 1043.6667,-124.3486 1039.8333,-124.3486"/>
<text text-anchor="middle" x="979" y="-109.1486" font-family="Arial" font-size="14.00" fill="#c6c5fe">components/csv.js</text>
</g>
<!-- particle.js -->
<g id="node2" class="node">
<title>particle.js</title>
<path fill="none" stroke="#cfffac" d="M1552.3333,-418.3486C1552.3333,-418.3486 1490.6667,-418.3486 1490.6667,-418.3486 1486.8333,-418.3486 1483,-414.5152 1483,-410.6819 1483,-410.6819 1483,-403.0152 1483,-403.0152 1483,-399.1819 1486.8333,-395.3486 1490.6667,-395.3486 1490.6667,-395.3486 1552.3333,-395.3486 1552.3333,-395.3486 1556.1667,-395.3486 1560,-399.1819 1560,-403.0152 1560,-403.0152 1560,-410.6819 1560,-410.6819 1560,-414.5152 1556.1667,-418.3486 1552.3333,-418.3486"/>
<text text-anchor="middle" x="1521.5" y="-403.1486" font-family="Arial" font-size="14.00" fill="#cfffac">particle.js</text>
</g>
<!-- components/csv.js&#45;&gt;particle.js -->
<g id="edge1" class="edge">
<title>components/csv.js&#45;&gt;particle.js</title>
<path fill="none" stroke="#757575" d="M1036.252,-101.3215C1106.8884,-89.3366 1230.0224,-75.7821 1331,-102.8486 1388.5073,-118.263 1409.7584,-123.3969 1447,-169.8486 1499.9759,-235.9258 1515.5145,-340.0717 1519.8793,-385.0113"/>
<polygon fill="#757575" stroke="#757575" points="1516.4039,-385.4459 1520.7643,-395.1018 1523.3772,-384.8343 1516.4039,-385.4459"/>
</g>
<!-- physics.js -->
<g id="node3" class="node">
<title>physics.js</title>
<path fill="none" stroke="#c6c5fe" d="M1439.3333,-202.3486C1439.3333,-202.3486 1374.6667,-202.3486 1374.6667,-202.3486 1370.8333,-202.3486 1367,-198.5152 1367,-194.6819 1367,-194.6819 1367,-187.0152 1367,-187.0152 1367,-183.1819 1370.8333,-179.3486 1374.6667,-179.3486 1374.6667,-179.3486 1439.3333,-179.3486 1439.3333,-179.3486 1443.1667,-179.3486 1447,-183.1819 1447,-187.0152 1447,-187.0152 1447,-194.6819 1447,-194.6819 1447,-198.5152 1443.1667,-202.3486 1439.3333,-202.3486"/>
<text text-anchor="middle" x="1407" y="-187.1486" font-family="Arial" font-size="14.00" fill="#c6c5fe">physics.js</text>
</g>
<!-- components/csv.js&#45;&gt;physics.js -->
<g id="edge2" class="edge">
<title>components/csv.js&#45;&gt;physics.js</title>
<path fill="none" stroke="#757575" d="M1047.6231,-107.5626C1120.1626,-104.3241 1236.8768,-105.8827 1331,-138.8486 1351.9378,-146.1819 1372.5073,-160.8438 1386.9557,-172.7347"/>
<polygon fill="#757575" stroke="#757575" points="1384.8291,-175.5208 1394.7119,-179.3393 1389.3674,-170.1913 1384.8291,-175.5208"/>
</g>
<!-- physics.js&#45;&gt;particle.js -->
<g id="edge55" class="edge">
<title>physics.js&#45;&gt;particle.js</title>
<path fill="none" stroke="#757575" d="M1413.156,-202.4617C1431.6391,-237.3293 1486.831,-341.4468 1510.511,-386.1183"/>
<polygon fill="#757575" stroke="#757575" points="1507.5375,-387.9819 1515.3135,-395.1781 1513.7223,-384.7034 1507.5375,-387.9819"/>
</g>
<!-- components/keyboardHelper.js -->
<g id="node4" class="node">
<title>components/keyboardHelper.js</title>
<path fill="none" stroke="#cfffac" d="M403.3333,-916.3486C403.3333,-916.3486 200.6667,-916.3486 200.6667,-916.3486 196.8333,-916.3486 193,-912.5152 193,-908.6819 193,-908.6819 193,-901.0152 193,-901.0152 193,-897.1819 196.8333,-893.3486 200.6667,-893.3486 200.6667,-893.3486 403.3333,-893.3486 403.3333,-893.3486 407.1667,-893.3486 411,-897.1819 411,-901.0152 411,-901.0152 411,-908.6819 411,-908.6819 411,-912.5152 407.1667,-916.3486 403.3333,-916.3486"/>
<text text-anchor="middle" x="302" y="-901.1486" font-family="Arial" font-size="14.00" fill="#cfffac">components/keyboardHelper.js</text>
</g>
<!-- components/mouseHelper.js -->
<g id="node5" class="node">
<title>components/mouseHelper.js</title>
<path fill="none" stroke="#c6c5fe" d="M856.3333,-946.3486C856.3333,-946.3486 670.6667,-946.3486 670.6667,-946.3486 666.8333,-946.3486 663,-942.5152 663,-938.6819 663,-938.6819 663,-931.0152 663,-931.0152 663,-927.1819 666.8333,-923.3486 670.6667,-923.3486 670.6667,-923.3486 856.3333,-923.3486 856.3333,-923.3486 860.1667,-923.3486 864,-927.1819 864,-931.0152 864,-931.0152 864,-938.6819 864,-938.6819 864,-942.5152 860.1667,-946.3486 856.3333,-946.3486"/>
<text text-anchor="middle" x="763.5" y="-931.1486" font-family="Arial" font-size="14.00" fill="#c6c5fe">components/mouseHelper.js</text>
</g>
<!-- helpers.js -->
<g id="node6" class="node">
<title>helpers.js</title>
<path fill="none" stroke="#c6c5fe" d="M1240.8333,-594.3486C1240.8333,-594.3486 1177.1667,-594.3486 1177.1667,-594.3486 1173.3333,-594.3486 1169.5,-590.5152 1169.5,-586.6819 1169.5,-586.6819 1169.5,-579.0152 1169.5,-579.0152 1169.5,-575.1819 1173.3333,-571.3486 1177.1667,-571.3486 1177.1667,-571.3486 1240.8333,-571.3486 1240.8333,-571.3486 1244.6667,-571.3486 1248.5,-575.1819 1248.5,-579.0152 1248.5,-579.0152 1248.5,-586.6819 1248.5,-586.6819 1248.5,-590.5152 1244.6667,-594.3486 1240.8333,-594.3486"/>
<text text-anchor="middle" x="1209" y="-579.1486" font-family="Arial" font-size="14.00" fill="#c6c5fe">helpers.js</text>
</g>
<!-- components/mouseHelper.js&#45;&gt;helpers.js -->
<g id="edge3" class="edge">
<title>components/mouseHelper.js&#45;&gt;helpers.js</title>
<path fill="none" stroke="#757575" d="M864.2232,-932.7076C923.6861,-926.8246 997.534,-910.9922 1051,-870.8486 1144.4398,-800.6916 1189.5178,-658.3596 1203.7939,-604.3181"/>
<polygon fill="#757575" stroke="#757575" points="1207.2286,-605.0135 1206.3116,-594.4584 1200.4462,-603.2815 1207.2286,-605.0135"/>
</g>
<!-- helpers.js&#45;&gt;particle.js -->
<g id="edge53" class="edge">
<title>helpers.js&#45;&gt;particle.js</title>
<path fill="none" stroke="#757575" d="M1247.0229,-571.2296C1295.8966,-555.2469 1382.1711,-523.4274 1447,-479.8486 1469.5238,-464.7078 1491.2095,-442.2745 1505.3183,-426.277"/>
<polygon fill="#757575" stroke="#757575" points="1508.0854,-428.4278 1511.97,-418.5707 1502.7863,-423.8539 1508.0854,-428.4278"/>
</g>
<!-- components/ruler.js -->
<g id="node7" class="node">
<title>components/ruler.js</title>
<path fill="none" stroke="#c6c5fe" d="M597.3333,-795.3486C597.3333,-795.3486 469.6667,-795.3486 469.6667,-795.3486 465.8333,-795.3486 462,-791.5152 462,-787.6819 462,-787.6819 462,-780.0152 462,-780.0152 462,-776.1819 465.8333,-772.3486 469.6667,-772.3486 469.6667,-772.3486 597.3333,-772.3486 597.3333,-772.3486 601.1667,-772.3486 605,-776.1819 605,-780.0152 605,-780.0152 605,-787.6819 605,-787.6819 605,-791.5152 601.1667,-795.3486 597.3333,-795.3486"/>
<text text-anchor="middle" x="533.5" y="-780.1486" font-family="Arial" font-size="14.00" fill="#c6c5fe">components/ruler.js</text>
</g>
<!-- components/ruler.js&#45;&gt;helpers.js -->
<g id="edge5" class="edge">
<title>components/ruler.js&#45;&gt;helpers.js</title>
<path fill="none" stroke="#757575" d="M605.1057,-791.4266C728.3094,-803.2242 974.5342,-821.0033 1051,-783.8486 1129.7248,-745.5962 1180.9156,-647.0146 1200.2803,-603.7407"/>
<polygon fill="#757575" stroke="#757575" points="1203.5385,-605.0248 1204.3218,-594.459 1197.1205,-602.2302 1203.5385,-605.0248"/>
</g>
<!-- core.js -->
<g id="node8" class="node">
<title>core.js</title>
<path fill="none" stroke="#c6c5fe" d="M785.3333,-576.3486C785.3333,-576.3486 741.6667,-576.3486 741.6667,-576.3486 737.8333,-576.3486 734,-572.5152 734,-568.6819 734,-568.6819 734,-561.0152 734,-561.0152 734,-557.1819 737.8333,-553.3486 741.6667,-553.3486 741.6667,-553.3486 785.3333,-553.3486 785.3333,-553.3486 789.1667,-553.3486 793,-557.1819 793,-561.0152 793,-561.0152 793,-568.6819 793,-568.6819 793,-572.5152 789.1667,-576.3486 785.3333,-576.3486"/>
<text text-anchor="middle" x="763.5" y="-561.1486" font-family="Arial" font-size="14.00" fill="#c6c5fe">core.js</text>
</g>
<!-- components/ruler.js&#45;&gt;core.js -->
<g id="edge4" class="edge">
<title>components/ruler.js&#45;&gt;core.js</title>
<path fill="none" stroke="#757575" d="M603.7977,-772.2725C609.5053,-769.9541 614.9937,-767.1762 620,-763.8486 689.0004,-717.9847 735.9919,-626.928 754.584,-585.8348"/>
<polygon fill="#757575" stroke="#757575" points="757.8585,-587.0836 758.695,-576.5218 751.4547,-584.2567 757.8585,-587.0836"/>
</g>
<!-- core.js&#45;&gt;components/csv.js -->
<g id="edge10" class="edge">
<title>core.js&#45;&gt;components/csv.js</title>
<path fill="none" stroke="#757575" d="M767.8725,-553.1906C787.9144,-499.9192 871.5363,-279.4754 907,-214.8486 923.6227,-184.5565 947.4616,-152.4394 963.0843,-132.5159"/>
<polygon fill="#757575" stroke="#757575" points="965.9567,-134.5267 969.4302,-124.5174 960.4729,-130.176 965.9567,-134.5267"/>
</g>
<!-- core.js&#45;&gt;particle.js -->
<g id="edge16" class="edge">
<title>core.js&#45;&gt;particle.js</title>
<path fill="none" stroke="#757575" d="M772.767,-553.3007C793.6181,-528.3059 847.1093,-469.5398 907,-445.8486 1018.7949,-401.6255 1327.0765,-421.3412 1447,-412.8486 1455.2818,-412.2621 1464.0777,-411.5939 1472.6133,-410.9216"/>
<polygon fill="#757575" stroke="#757575" points="1473.1542,-414.3897 1482.8438,-410.1046 1472.5969,-407.4119 1473.1542,-414.3897"/>
</g>
<!-- core.js&#45;&gt;physics.js -->
<g id="edge17" class="edge">
<title>core.js&#45;&gt;physics.js</title>
<path fill="none" stroke="#757575" d="M777.2342,-553.1979C800.4984,-532.6442 847.4214,-487.4942 871,-438.8486 906.7744,-365.0414 846.9537,-313.7212 907,-257.8486 976.5161,-193.1643 1237.1575,-219.3447 1331,-204.8486 1339.3864,-203.5531 1348.2681,-202.0432 1356.8884,-200.5038"/>
<polygon fill="#757575" stroke="#757575" points="1357.6297,-203.9265 1366.8424,-198.6943 1356.3776,-197.0394 1357.6297,-203.9265"/>
</g>
<!-- core.js&#45;&gt;helpers.js -->
<g id="edge15" class="edge">
<title>core.js&#45;&gt;helpers.js</title>
<path fill="none" stroke="#757575" d="M793.0755,-566.0435C868.0952,-569.0746 1066.427,-577.088 1159.4799,-580.8478"/>
<polygon fill="#757575" stroke="#757575" points="1159.3557,-584.3455 1169.4889,-581.2522 1159.6384,-577.3512 1159.3557,-584.3455"/>
</g>
<!-- gpu/field.js -->
<g id="node10" class="node">
<title>gpu/field.js</title>
<path fill="none" stroke="#c6c5fe" d="M1014.3333,-478.3486C1014.3333,-478.3486 943.6667,-478.3486 943.6667,-478.3486 939.8333,-478.3486 936,-474.5152 936,-470.6819 936,-470.6819 936,-463.0152 936,-463.0152 936,-459.1819 939.8333,-455.3486 943.6667,-455.3486 943.6667,-455.3486 1014.3333,-455.3486 1014.3333,-455.3486 1018.1667,-455.3486 1022,-459.1819 1022,-463.0152 1022,-463.0152 1022,-470.6819 1022,-470.6819 1022,-474.5152 1018.1667,-478.3486 1014.3333,-478.3486"/>
<text text-anchor="middle" x="979" y="-463.1486" font-family="Arial" font-size="14.00" fill="#c6c5fe">gpu/field.js</text>
</g>
<!-- core.js&#45;&gt;gpu/field.js -->
<g id="edge11" class="edge">
<title>core.js&#45;&gt;gpu/field.js</title>
<path fill="none" stroke="#757575" d="M789.0669,-553.2218C827.6256,-535.687 900.7537,-502.4316 944.1565,-482.6939"/>
<polygon fill="#757575" stroke="#757575" points="945.8123,-485.7859 953.4663,-478.4602 942.9145,-479.4138 945.8123,-485.7859"/>
</g>
<!-- gpu/graphics.js -->
<g id="node11" class="node">
<title>gpu/graphics.js</title>
<path fill="none" stroke="#c6c5fe" d="M1028.8333,-318.3486C1028.8333,-318.3486 929.1667,-318.3486 929.1667,-318.3486 925.3333,-318.3486 921.5,-314.5152 921.5,-310.6819 921.5,-310.6819 921.5,-303.0152 921.5,-303.0152 921.5,-299.1819 925.3333,-295.3486 929.1667,-295.3486 929.1667,-295.3486 1028.8333,-295.3486 1028.8333,-295.3486 1032.6667,-295.3486 1036.5,-299.1819 1036.5,-303.0152 1036.5,-303.0152 1036.5,-310.6819 1036.5,-310.6819 1036.5,-314.5152 1032.6667,-318.3486 1028.8333,-318.3486"/>
<text text-anchor="middle" x="979" y="-303.1486" font-family="Arial" font-size="14.00" fill="#c6c5fe">gpu/graphics.js</text>
</g>
<!-- core.js&#45;&gt;gpu/graphics.js -->
<g id="edge12" class="edge">
<title>core.js&#45;&gt;gpu/graphics.js</title>
<path fill="none" stroke="#757575" d="M775.2608,-553.1413C796.2935,-531.7836 840.9569,-484.4805 871,-438.8486 890.8927,-408.634 884.5008,-394.1757 907,-365.8486 919.8553,-349.6633 937.837,-334.9239 952.614,-324.2255"/>
<polygon fill="#757575" stroke="#757575" points="954.7137,-327.0277 960.8811,-318.413 950.6876,-321.3014 954.7137,-327.0277"/>
</g>
<!-- gpu/shaders/computeShader.glsl.js -->
<g id="node12" class="node">
<title>gpu/shaders/computeShader.glsl.js</title>
<path fill="none" stroke="#c6c5fe" d="M1323.3333,-280.3486C1323.3333,-280.3486 1094.6667,-280.3486 1094.6667,-280.3486 1090.8333,-280.3486 1087,-276.5152 1087,-272.6819 1087,-272.6819 1087,-265.0152 1087,-265.0152 1087,-261.1819 1090.8333,-257.3486 1094.6667,-257.3486 1094.6667,-257.3486 1323.3333,-257.3486 1323.3333,-257.3486 1327.1667,-257.3486 1331,-261.1819 1331,-265.0152 1331,-265.0152 1331,-272.6819 1331,-272.6819 1331,-276.5152 1327.1667,-280.3486 1323.3333,-280.3486"/>
<text text-anchor="middle" x="1209" y="-265.1486" font-family="Arial" font-size="14.00" fill="#c6c5fe">gpu/shaders/computeShader.glsl.js</text>
</g>
<!-- core.js&#45;&gt;gpu/shaders/computeShader.glsl.js -->
<g id="edge13" class="edge">
<title>core.js&#45;&gt;gpu/shaders/computeShader.glsl.js</title>
<path fill="none" stroke="#757575" d="M777.056,-553.1096C800.0512,-532.4226 846.5796,-487.0771 871,-438.8486 902.5571,-376.5256 853.4791,-330.7431 907,-285.8486 932.6927,-264.297 1007.9177,-260.0183 1076.8566,-261.1418"/>
<polygon fill="#757575" stroke="#757575" points="1076.9073,-264.6434 1086.9757,-261.3453 1077.0481,-257.6448 1076.9073,-264.6434"/>
</g>
<!-- gpu/simulation.js -->
<g id="node13" class="node">
<title>gpu/simulation.js</title>
<path fill="none" stroke="#c6c5fe" d="M1033.8333,-752.3486C1033.8333,-752.3486 924.1667,-752.3486 924.1667,-752.3486 920.3333,-752.3486 916.5,-748.5152 916.5,-744.6819 916.5,-744.6819 916.5,-737.0152 916.5,-737.0152 916.5,-733.1819 920.3333,-729.3486 924.1667,-729.3486 924.1667,-729.3486 1033.8333,-729.3486 1033.8333,-729.3486 1037.6667,-729.3486 1041.5,-733.1819 1041.5,-737.0152 1041.5,-737.0152 1041.5,-744.6819 1041.5,-744.6819 1041.5,-748.5152 1037.6667,-752.3486 1033.8333,-752.3486"/>
<text text-anchor="middle" x="979" y="-737.1486" font-family="Arial" font-size="14.00" fill="#c6c5fe">gpu/simulation.js</text>
</g>
<!-- core.js&#45;&gt;gpu/simulation.js -->
<g id="edge14" class="edge">
<title>core.js&#45;&gt;gpu/simulation.js</title>
<path fill="none" stroke="#757575" d="M777.6396,-576.3964C814.3227,-606.3557 912.7548,-686.7457 956.9668,-722.8539"/>
<polygon fill="#757575" stroke="#757575" points="954.8492,-725.6435 964.8084,-729.2582 959.2771,-720.2218 954.8492,-725.6435"/>
</g>
<!-- scenarios.js -->
<g id="node14" class="node">
<title>scenarios.js</title>
<path fill="none" stroke="#cfffac" d="M1018.3333,-634.3486C1018.3333,-634.3486 939.6667,-634.3486 939.6667,-634.3486 935.8333,-634.3486 932,-630.5152 932,-626.6819 932,-626.6819 932,-619.0152 932,-619.0152 932,-615.1819 935.8333,-611.3486 939.6667,-611.3486 939.6667,-611.3486 1018.3333,-611.3486 1018.3333,-611.3486 1022.1667,-611.3486 1026,-615.1819 1026,-619.0152 1026,-619.0152 1026,-626.6819 1026,-626.6819 1026,-630.5152 1022.1667,-634.3486 1018.3333,-634.3486"/>
<text text-anchor="middle" x="979" y="-619.1486" font-family="Arial" font-size="14.00" fill="#cfffac">scenarios.js</text>
</g>
<!-- core.js&#45;&gt;scenarios.js -->
<g id="edge18" class="edge">
<title>core.js&#45;&gt;scenarios.js</title>
<path fill="none" stroke="#757575" d="M793.0125,-572.7916C827.269,-582.0115 884.4162,-597.3921 926.341,-608.6759"/>
<polygon fill="#757575" stroke="#757575" points="925.545,-612.0861 936.1111,-611.3054 927.3643,-605.3266 925.545,-612.0861"/>
</g>
<!-- components/selectionHelper.js -->
<g id="node9" class="node">
<title>components/selectionHelper.js</title>
<path fill="none" stroke="#c6c5fe" d="M863.3333,-204.3486C863.3333,-204.3486 663.6667,-204.3486 663.6667,-204.3486 659.8333,-204.3486 656,-200.5152 656,-196.6819 656,-196.6819 656,-189.0152 656,-189.0152 656,-185.1819 659.8333,-181.3486 663.6667,-181.3486 663.6667,-181.3486 863.3333,-181.3486 863.3333,-181.3486 867.1667,-181.3486 871,-185.1819 871,-189.0152 871,-189.0152 871,-196.6819 871,-196.6819 871,-200.5152 867.1667,-204.3486 863.3333,-204.3486"/>
<text text-anchor="middle" x="763.5" y="-189.1486" font-family="Arial" font-size="14.00" fill="#c6c5fe">components/selectionHelper.js</text>
</g>
<!-- components/selectionHelper.js&#45;&gt;components/csv.js -->
<g id="edge6" class="edge">
<title>components/selectionHelper.js&#45;&gt;components/csv.js</title>
<path fill="none" stroke="#757575" d="M793.9688,-181.2481C822.9873,-170.2317 867.9136,-153.2593 907,-138.8486 916.7262,-135.2626 927.2096,-131.4481 937.0859,-127.8773"/>
<polygon fill="#757575" stroke="#757575" points="938.4906,-131.0914 946.7092,-124.4052 936.1148,-124.5069 938.4906,-131.0914"/>
</g>
<!-- components/selectionHelper.js&#45;&gt;particle.js -->
<g id="edge8" class="edge">
<title>components/selectionHelper.js&#45;&gt;particle.js</title>
<path fill="none" stroke="#757575" d="M772.7355,-181.3182C793.5239,-156.4079 846.8978,-98.1028 907,-76.8486 1133.6905,3.3172 1274.8426,58.0113 1447,-109.8486 1486.8627,-148.7162 1511.3688,-322.8137 1518.9612,-384.8262"/>
<polygon fill="#757575" stroke="#757575" points="1515.5202,-385.5289 1520.1819,-395.043 1522.4708,-384.6984 1515.5202,-385.5289"/>
</g>
<!-- components/selectionHelper.js&#45;&gt;physics.js -->
<g id="edge9" class="edge">
<title>components/selectionHelper.js&#45;&gt;physics.js</title>
<path fill="none" stroke="#757575" d="M774.7591,-181.085C797.2985,-158.4925 850.6544,-109.6895 907,-91.8486 973.4617,-70.8045 1281.6446,-79.0771 1331,-102.8486 1360.8084,-117.2055 1383.6003,-149.2495 1396.1417,-170.4483"/>
<polygon fill="#757575" stroke="#757575" points="1393.1955,-172.3483 1401.1711,-179.3226 1399.2855,-168.8969 1393.1955,-172.3483"/>
</g>
<!-- components/selectionHelper.js&#45;&gt;helpers.js -->
<g id="edge7" class="edge">
<title>components/selectionHelper.js&#45;&gt;helpers.js</title>
<path fill="none" stroke="#757575" d="M775.5653,-204.7543C807.2758,-235.9524 891.5865,-318.2707 907,-326.8486 964.9379,-359.092 996.387,-328.2472 1051,-365.8486 1126.6897,-417.9614 1179.5211,-518.5439 1199.7998,-562.0057"/>
<polygon fill="#757575" stroke="#757575" points="1196.7073,-563.6595 1204.0443,-571.3028 1203.0751,-560.7524 1196.7073,-563.6595"/>
</g>
<!-- gpu/field.js&#45;&gt;particle.js -->
<g id="edge20" class="edge">
<title>gpu/field.js&#45;&gt;particle.js</title>
<path fill="none" stroke="#757575" d="M1022.0505,-469.7158C1105.4611,-474.1262 1294.3179,-478.5072 1447,-440.8486 1462.6617,-436.9856 1479.0749,-429.8682 1492.4969,-423.1398"/>
<polygon fill="#757575" stroke="#757575" points="1494.43,-426.0796 1501.6881,-418.3614 1491.2011,-419.8688 1494.43,-426.0796"/>
</g>
<!-- gpu/field.js&#45;&gt;helpers.js -->
<g id="edge19" class="edge">
<title>gpu/field.js&#45;&gt;helpers.js</title>
<path fill="none" stroke="#757575" d="M1014.642,-478.3599C1026.3932,-482.5127 1039.4145,-487.5049 1051,-492.8486 1098.801,-514.8962 1151.3661,-546.4068 1182.208,-565.6982"/>
<polygon fill="#757575" stroke="#757575" points="1180.726,-568.9011 1191.0529,-571.2689 1184.4565,-562.978 1180.726,-568.9011"/>
</g>
<!-- gpu/graphics.js&#45;&gt;particle.js -->
<g id="edge24" class="edge">
<title>gpu/graphics.js&#45;&gt;particle.js</title>
<path fill="none" stroke="#757575" d="M1031.3858,-318.384C1049.0281,-322.1677 1068.8426,-326.3073 1087,-329.8486 1226.4259,-357.0407 1391.8282,-385.2382 1472.4292,-398.7188"/>
<polygon fill="#757575" stroke="#757575" points="1472.3229,-402.2494 1482.7628,-400.4441 1473.4758,-395.345 1472.3229,-402.2494"/>
</g>
<!-- gpu/graphics.js&#45;&gt;helpers.js -->
<g id="edge23" class="edge">
<title>gpu/graphics.js&#45;&gt;helpers.js</title>
<path fill="none" stroke="#757575" d="M1025.1811,-318.3963C1034.3328,-322.0467 1043.4371,-326.7719 1051,-332.8486 1131.1894,-397.2791 1182.6362,-513.9808 1201.2147,-561.6758"/>
<polygon fill="#757575" stroke="#757575" points="1198.0349,-563.1607 1204.8642,-571.2608 1204.5767,-560.6699 1198.0349,-563.1607"/>
</g>
<!-- gpu/graphics.js&#45;&gt;gpu/shaders/computeShader.glsl.js -->
<g id="edge21" class="edge">
<title>gpu/graphics.js&#45;&gt;gpu/shaders/computeShader.glsl.js</title>
<path fill="none" stroke="#757575" d="M1036.726,-297.1984C1052.9843,-294.4884 1070.6839,-291.5456 1087,-288.8486 1100.3764,-286.6374 1114.5796,-284.2998 1128.3871,-282.0327"/>
<polygon fill="#757575" stroke="#757575" points="1129.0525,-285.4704 1138.3537,-280.3972 1127.9189,-278.5628 1129.0525,-285.4704"/>
</g>
<!-- gpu/shaders/particleShader.glsl.js -->
<g id="node15" class="node">
<title>gpu/shaders/particleShader.glsl.js</title>
<path fill="none" stroke="#cfffac" d="M1318.3333,-321.3486C1318.3333,-321.3486 1099.6667,-321.3486 1099.6667,-321.3486 1095.8333,-321.3486 1092,-317.5152 1092,-313.6819 1092,-313.6819 1092,-306.0152 1092,-306.0152 1092,-302.1819 1095.8333,-298.3486 1099.6667,-298.3486 1099.6667,-298.3486 1318.3333,-298.3486 1318.3333,-298.3486 1322.1667,-298.3486 1326,-302.1819 1326,-306.0152 1326,-306.0152 1326,-313.6819 1326,-313.6819 1326,-317.5152 1322.1667,-321.3486 1318.3333,-321.3486"/>
<text text-anchor="middle" x="1209" y="-306.1486" font-family="Arial" font-size="14.00" fill="#cfffac">gpu/shaders/particleShader.glsl.js</text>
</g>
<!-- gpu/graphics.js&#45;&gt;gpu/shaders/particleShader.glsl.js -->
<g id="edge22" class="edge">
<title>gpu/graphics.js&#45;&gt;gpu/shaders/particleShader.glsl.js</title>
<path fill="none" stroke="#757575" d="M1036.7418,-307.6017C1050.6047,-307.7825 1065.958,-307.9828 1081.6212,-308.1871"/>
<polygon fill="#757575" stroke="#757575" points="1081.9015,-311.691 1091.9464,-308.3218 1081.9929,-304.6916 1081.9015,-311.691"/>
</g>
<!-- gpu/shaders/computeShader.glsl.js&#45;&gt;physics.js -->
<g id="edge25" class="edge">
<title>gpu/shaders/computeShader.glsl.js&#45;&gt;physics.js</title>
<path fill="none" stroke="#757575" d="M1285.5895,-257.3073C1300.9698,-253.6711 1316.7685,-248.9498 1331,-242.8486 1351.0216,-234.265 1371.2605,-220.0873 1385.8134,-208.7022"/>
<polygon fill="#757575" stroke="#757575" points="1388.0745,-211.3753 1393.6802,-202.3849 1383.6915,-205.9173 1388.0745,-211.3753"/>
</g>
<!-- gpu/simulation.js&#45;&gt;particle.js -->
<g id="edge27" class="edge">
<title>gpu/simulation.js&#45;&gt;particle.js</title>
<path fill="none" stroke="#757575" d="M1028.5818,-729.3012C1122.3089,-705.0918 1326.8309,-640.5681 1447,-514.8486 1473.1663,-487.4737 1496.7666,-450.1063 1510.0983,-427.27"/>
<polygon fill="#757575" stroke="#757575" points="1513.2212,-428.86 1515.1608,-418.4442 1507.1492,-425.377 1513.2212,-428.86"/>
</g>
<!-- gpu/simulation.js&#45;&gt;helpers.js -->
<g id="edge26" class="edge">
<title>gpu/simulation.js&#45;&gt;helpers.js</title>
<path fill="none" stroke="#757575" d="M1023.6423,-729.2106C1033.1928,-725.5293 1042.8496,-720.8143 1051,-714.8486 1072.2325,-699.3074 1067.9794,-686.0299 1087,-667.8486 1115.7111,-640.4044 1153.9791,-615.2454 1179.9455,-599.538"/>
<polygon fill="#757575" stroke="#757575" points="1181.7852,-602.5161 1188.5813,-594.3881 1178.1999,-596.504 1181.7852,-602.5161"/>
</g>
<!-- gui/advancedControls.js -->
<g id="node16" class="node">
<title>gui/advancedControls.js</title>
<path fill="none" stroke="#c6c5fe" d="M612.3333,-754.3486C612.3333,-754.3486 454.6667,-754.3486 454.6667,-754.3486 450.8333,-754.3486 447,-750.5152 447,-746.6819 447,-746.6819 447,-739.0152 447,-739.0152 447,-735.1819 450.8333,-731.3486 454.6667,-731.3486 454.6667,-731.3486 612.3333,-731.3486 612.3333,-731.3486 616.1667,-731.3486 620,-735.1819 620,-739.0152 620,-739.0152 620,-746.6819 620,-746.6819 620,-750.5152 616.1667,-754.3486 612.3333,-754.3486"/>
<text text-anchor="middle" x="533.5" y="-739.1486" font-family="Arial" font-size="14.00" fill="#c6c5fe">gui/advancedControls.js</text>
</g>
<!-- gui/advancedControls.js&#45;&gt;helpers.js -->
<g id="edge29" class="edge">
<title>gui/advancedControls.js&#45;&gt;helpers.js</title>
<path fill="none" stroke="#757575" d="M613.8542,-754.3814C739.3364,-770.9641 975.2986,-796.0018 1051,-761.8486 1124.1467,-728.8479 1177.0192,-643.3931 1198.4503,-603.6908"/>
<polygon fill="#757575" stroke="#757575" points="1201.6524,-605.1216 1203.2146,-594.6426 1195.4586,-601.8602 1201.6524,-605.1216"/>
</g>
<!-- gui/advancedControls.js&#45;&gt;core.js -->
<g id="edge28" class="edge">
<title>gui/advancedControls.js&#45;&gt;core.js</title>
<path fill="none" stroke="#757575" d="M601.6244,-731.3144C608.0454,-728.9916 614.2826,-726.2011 620,-722.8486 679.8975,-687.7264 728.9926,-619.3687 751.0078,-585.2473"/>
<polygon fill="#757575" stroke="#757575" points="754.0978,-586.9095 756.4856,-576.5873 748.1819,-583.1675 754.0978,-586.9095"/>
</g>
<!-- gui/controls.js -->
<g id="node17" class="node">
<title>gui/controls.js</title>
<path fill="none" stroke="#c6c5fe" d="M346.8333,-619.3486C346.8333,-619.3486 257.1667,-619.3486 257.1667,-619.3486 253.3333,-619.3486 249.5,-615.5152 249.5,-611.6819 249.5,-611.6819 249.5,-604.0152 249.5,-604.0152 249.5,-600.1819 253.3333,-596.3486 257.1667,-596.3486 257.1667,-596.3486 346.8333,-596.3486 346.8333,-596.3486 350.6667,-596.3486 354.5,-600.1819 354.5,-604.0152 354.5,-604.0152 354.5,-611.6819 354.5,-611.6819 354.5,-615.5152 350.6667,-619.3486 346.8333,-619.3486"/>
<text text-anchor="middle" x="302" y="-604.1486" font-family="Arial" font-size="14.00" fill="#c6c5fe">gui/controls.js</text>
</g>
<!-- gui/controls.js&#45;&gt;components/csv.js -->
<g id="edge30" class="edge">
<title>gui/controls.js&#45;&gt;components/csv.js</title>
<path fill="none" stroke="#757575" d="M354.738,-605.5147C374.9586,-601.9263 396.6071,-594.3438 411,-578.8486 469.7895,-515.5562 390.0302,-452.7836 447,-387.8486 577.7867,-238.776 730.8073,-389.1119 871,-248.8486 907.3648,-212.4655 871.1804,-175.7685 907,-138.8486 910.6092,-135.1285 914.7897,-131.9385 919.2837,-129.2034"/>
<polygon fill="#757575" stroke="#757575" points="921.0274,-132.2409 928.2446,-124.4844 917.7656,-126.0472 921.0274,-132.2409"/>
</g>
<!-- gui/controls.js&#45;&gt;helpers.js -->
<g id="edge34" class="edge">
<title>gui/controls.js&#45;&gt;helpers.js</title>
<path fill="none" stroke="#757575" d="M354.6054,-612.9932C514.5029,-628.2584 987.7242,-670.5527 1051,-642.8486 1072.6087,-633.3876 1066.2751,-615.1147 1087,-603.8486 1108.9586,-591.9118 1136.1424,-586.4864 1159.273,-584.1199"/>
<polygon fill="#757575" stroke="#757575" points="1159.5835,-587.6062 1169.2454,-583.2591 1158.9814,-580.6322 1159.5835,-587.6062"/>
</g>
<!-- gui/controls.js&#45;&gt;core.js -->
<g id="edge31" class="edge">
<title>gui/controls.js&#45;&gt;core.js</title>
<path fill="none" stroke="#757575" d="M354.9399,-602.9159C448.4842,-594.2 640.9506,-576.267 723.9611,-568.5326"/>
<polygon fill="#757575" stroke="#757575" points="724.363,-572.0104 733.9952,-567.5977 723.7136,-565.0406 724.363,-572.0104"/>
</g>
<!-- gui/controls.js&#45;&gt;scenarios.js -->
<g id="edge35" class="edge">
<title>gui/controls.js&#45;&gt;scenarios.js</title>
<path fill="none" stroke="#757575" d="M354.5597,-609.0131C479.3329,-611.7777 792.585,-618.7183 921.8473,-621.5823"/>
<polygon fill="#757575" stroke="#757575" points="921.8618,-625.0833 931.9369,-621.8058 922.0169,-618.0851 921.8618,-625.0833"/>
</g>
<!-- gui/info.js -->
<g id="node18" class="node">
<title>gui/info.js</title>
<path fill="none" stroke="#c6c5fe" d="M564.3333,-713.3486C564.3333,-713.3486 502.6667,-713.3486 502.6667,-713.3486 498.8333,-713.3486 495,-709.5152 495,-705.6819 495,-705.6819 495,-698.0152 495,-698.0152 495,-694.1819 498.8333,-690.3486 502.6667,-690.3486 502.6667,-690.3486 564.3333,-690.3486 564.3333,-690.3486 568.1667,-690.3486 572,-694.1819 572,-698.0152 572,-698.0152 572,-705.6819 572,-705.6819 572,-709.5152 568.1667,-713.3486 564.3333,-713.3486"/>
<text text-anchor="middle" x="533.5" y="-698.1486" font-family="Arial" font-size="14.00" fill="#c6c5fe">gui/info.js</text>
</g>
<!-- gui/controls.js&#45;&gt;gui/info.js -->
<g id="edge32" class="edge">
<title>gui/controls.js&#45;&gt;gui/info.js</title>
<path fill="none" stroke="#757575" d="M325.7049,-619.4836C360.3972,-636.4222 423.432,-666.836 447,-675.8486 459.135,-680.4891 472.4755,-684.8492 484.9701,-688.6244"/>
<polygon fill="#757575" stroke="#757575" points="484.1881,-692.0428 494.77,-691.5207 486.1721,-685.3299 484.1881,-692.0428"/>
</g>
<!-- gui/parameters.js -->
<g id="node19" class="node">
<title>gui/parameters.js</title>
<path fill="none" stroke="#c6c5fe" d="M589.8333,-481.3486C589.8333,-481.3486 477.1667,-481.3486 477.1667,-481.3486 473.3333,-481.3486 469.5,-477.5152 469.5,-473.6819 469.5,-473.6819 469.5,-466.0152 469.5,-466.0152 469.5,-462.1819 473.3333,-458.3486 477.1667,-458.3486 477.1667,-458.3486 589.8333,-458.3486 589.8333,-458.3486 593.6667,-458.3486 597.5,-462.1819 597.5,-466.0152 597.5,-466.0152 597.5,-473.6819 597.5,-473.6819 597.5,-477.5152 593.6667,-481.3486 589.8333,-481.3486"/>
<text text-anchor="middle" x="533.5" y="-466.1486" font-family="Arial" font-size="14.00" fill="#c6c5fe">gui/parameters.js</text>
</g>
<!-- gui/controls.js&#45;&gt;gui/parameters.js -->
<g id="edge33" class="edge">
<title>gui/controls.js&#45;&gt;gui/parameters.js</title>
<path fill="none" stroke="#757575" d="M354.6101,-599.0683C373.147,-594.6453 393.6692,-588.1727 411,-578.8486 454.4703,-555.4612 495.2538,-513.7484 517.0466,-489.265"/>
<polygon fill="#757575" stroke="#757575" points="519.737,-491.5053 523.6857,-481.6738 514.4678,-486.8971 519.737,-491.5053"/>
</g>
<!-- gui/info.js&#45;&gt;helpers.js -->
<g id="edge43" class="edge">
<title>gui/info.js&#45;&gt;helpers.js</title>
<path fill="none" stroke="#757575" d="M572.2273,-706.2292C659.7806,-714.8002 878.7429,-728.7179 1051,-676.8486 1104.1298,-660.8504 1157.9605,-623.2339 1187.0407,-600.7367"/>
<polygon fill="#757575" stroke="#757575" points="1189.2081,-603.4849 1194.9045,-594.5517 1184.8806,-597.9828 1189.2081,-603.4849"/>
</g>
<!-- gui/info.js&#45;&gt;core.js -->
<g id="edge42" class="edge">
<title>gui/info.js&#45;&gt;core.js</title>
<path fill="none" stroke="#757575" d="M553.1097,-690.168C593.8473,-665.9026 687.7728,-609.9556 735.1209,-581.7526"/>
<polygon fill="#757575" stroke="#757575" points="737.1397,-584.624 743.94,-576.4995 733.5575,-578.6101 737.1397,-584.624"/>
</g>
<!-- gui/parameters.js&#45;&gt;physics.js -->
<g id="edge45" class="edge">
<title>gui/parameters.js&#45;&gt;physics.js</title>
<path fill="none" stroke="#757575" d="M597.6555,-465.3991C673.8099,-456.6172 799.4669,-430.5027 871,-352.8486 914.5286,-305.5953 857.1149,-253.3342 907,-212.8486 941.294,-185.0164 1236.5171,-187.517 1356.5587,-189.7244"/>
<polygon fill="#757575" stroke="#757575" points="1356.5326,-193.2245 1366.5976,-189.916 1356.6662,-186.2258 1356.5326,-193.2245"/>
</g>
<!-- gui/parameters.js&#45;&gt;core.js -->
<g id="edge44" class="edge">
<title>gui/parameters.js&#45;&gt;core.js</title>
<path fill="none" stroke="#757575" d="M589.1673,-481.357C599.912,-484.9914 610.7048,-489.7203 620,-495.8486 640.809,-509.5678 634.8237,-525.7033 656,-538.8486 676.3284,-551.4675 702.337,-557.962 723.6796,-561.3044"/>
<polygon fill="#757575" stroke="#757575" points="723.3495,-564.7921 733.7367,-562.705 724.3151,-557.859 723.3495,-564.7921"/>
</g>
<!-- gui/field.js -->
<g id="node20" class="node">
<title>gui/field.js</title>
<path fill="none" stroke="#c6c5fe" d="M334.3333,-570.3486C334.3333,-570.3486 269.6667,-570.3486 269.6667,-570.3486 265.8333,-570.3486 262,-566.5152 262,-562.6819 262,-562.6819 262,-555.0152 262,-555.0152 262,-551.1819 265.8333,-547.3486 269.6667,-547.3486 269.6667,-547.3486 334.3333,-547.3486 334.3333,-547.3486 338.1667,-547.3486 342,-551.1819 342,-555.0152 342,-555.0152 342,-562.6819 342,-562.6819 342,-566.5152 338.1667,-570.3486 334.3333,-570.3486"/>
<text text-anchor="middle" x="302" y="-555.1486" font-family="Arial" font-size="14.00" fill="#c6c5fe">gui/field.js</text>
</g>
<!-- gui/field.js&#45;&gt;core.js -->
<g id="edge36" class="edge">
<title>gui/field.js&#45;&gt;core.js</title>
<path fill="none" stroke="#757575" d="M342.1478,-559.3705C429.6174,-560.5077 636.518,-563.1977 723.6844,-564.3309"/>
<polygon fill="#757575" stroke="#757575" points="723.9043,-567.834 733.949,-564.4644 723.9954,-560.8346 723.9043,-567.834"/>
</g>
<!-- gui/generator.js -->
<g id="node21" class="node">
<title>gui/generator.js</title>
<path fill="none" stroke="#c6c5fe" d="M583.8333,-420.3486C583.8333,-420.3486 483.1667,-420.3486 483.1667,-420.3486 479.3333,-420.3486 475.5,-416.5152 475.5,-412.6819 475.5,-412.6819 475.5,-405.0152 475.5,-405.0152 475.5,-401.1819 479.3333,-397.3486 483.1667,-397.3486 483.1667,-397.3486 583.8333,-397.3486 583.8333,-397.3486 587.6667,-397.3486 591.5,-401.1819 591.5,-405.0152 591.5,-405.0152 591.5,-412.6819 591.5,-412.6819 591.5,-416.5152 587.6667,-420.3486 583.8333,-420.3486"/>
<text text-anchor="middle" x="533.5" y="-405.1486" font-family="Arial" font-size="14.00" fill="#c6c5fe">gui/generator.js</text>
</g>
<!-- gui/generator.js&#45;&gt;physics.js -->
<g id="edge40" class="edge">
<title>gui/generator.js&#45;&gt;physics.js</title>
<path fill="none" stroke="#757575" d="M587.4554,-397.3118C672.2465,-378.1675 831.1553,-337.8642 871,-296.8486 909.7986,-256.9097 862.327,-210.0866 907,-176.8486 982.5938,-120.6044 1237.1684,-168.2783 1331,-176.8486 1339.4507,-177.6204 1348.3649,-178.8655 1356.9977,-180.3028"/>
<polygon fill="#757575" stroke="#757575" points="1356.5017,-183.7693 1366.958,-182.0616 1357.719,-176.8759 1356.5017,-183.7693"/>
</g>
<!-- gui/generator.js&#45;&gt;helpers.js -->
<g id="edge39" class="edge">
<title>gui/generator.js&#45;&gt;helpers.js</title>
<path fill="none" stroke="#757575" d="M568.2278,-420.3922C633.8887,-441.9648 780.9649,-489.0811 907,-520.8486 995.0671,-543.0461 1099.0682,-563.0564 1159.189,-574.0268"/>
<polygon fill="#757575" stroke="#757575" points="1158.7067,-577.4963 1169.171,-575.8386 1159.9569,-570.6089 1158.7067,-577.4963"/>
</g>
<!-- gui/generator.js&#45;&gt;core.js -->
<g id="edge38" class="edge">
<title>gui/generator.js&#45;&gt;core.js</title>
<path fill="none" stroke="#757575" d="M574.4728,-420.4998C590.3849,-426.7406 607.7016,-435.8852 620,-448.8486 649.6509,-480.1027 623.4356,-510.6429 656,-538.8486 674.5438,-554.9103 701.3544,-561.4159 723.5612,-563.9033"/>
<polygon fill="#757575" stroke="#757575" points="723.444,-567.4066 733.7144,-564.8048 724.0631,-560.434 723.444,-567.4066"/>
</g>
<!-- gui/generator.js&#45;&gt;components/selectionHelper.js -->
<g id="edge37" class="edge">
<title>gui/generator.js&#45;&gt;components/selectionHelper.js</title>
<path fill="none" stroke="#757575" d="M545.8658,-397.2355C583.6174,-361.7818 697.6066,-254.7311 743.7701,-211.3775"/>
<polygon fill="#757575" stroke="#757575" points="746.1796,-213.9162 751.0731,-204.5191 741.3876,-208.8135 746.1796,-213.9162"/>
</g>
<!-- scenariosHelpers.js -->
<g id="node22" class="node">
<title>scenariosHelpers.js</title>
<path fill="none" stroke="#c6c5fe" d="M1043.3333,-398.3486C1043.3333,-398.3486 914.6667,-398.3486 914.6667,-398.3486 910.8333,-398.3486 907,-394.5152 907,-390.6819 907,-390.6819 907,-383.0152 907,-383.0152 907,-379.1819 910.8333,-375.3486 914.6667,-375.3486 914.6667,-375.3486 1043.3333,-375.3486 1043.3333,-375.3486 1047.1667,-375.3486 1051,-379.1819 1051,-383.0152 1051,-383.0152 1051,-390.6819 1051,-390.6819 1051,-394.5152 1047.1667,-398.3486 1043.3333,-398.3486"/>
<text text-anchor="middle" x="979" y="-383.1486" font-family="Arial" font-size="14.00" fill="#c6c5fe">scenariosHelpers.js</text>
</g>
<!-- gui/generator.js&#45;&gt;scenariosHelpers.js -->
<g id="edge41" class="edge">
<title>gui/generator.js&#45;&gt;scenariosHelpers.js</title>
<path fill="none" stroke="#757575" d="M591.7413,-405.9725C669.6377,-402.1257 808.1782,-395.2842 896.7114,-390.9122"/>
<polygon fill="#757575" stroke="#757575" points="896.9032,-394.4071 906.7183,-390.418 896.5578,-387.4156 896.9032,-394.4071"/>
</g>
<!-- scenariosHelpers.js&#45;&gt;particle.js -->
<g id="edge57" class="edge">
<title>scenariosHelpers.js&#45;&gt;particle.js</title>
<path fill="none" stroke="#757575" d="M1051.0398,-389.5044C1163.2495,-393.6412 1376.8247,-401.5149 1472.7357,-405.0508"/>
<polygon fill="#757575" stroke="#757575" points="1472.6185,-408.5488 1482.7407,-405.4197 1472.8764,-401.5535 1472.6185,-408.5488"/>
</g>
<!-- scenariosHelpers.js&#45;&gt;helpers.js -->
<g id="edge56" class="edge">
<title>scenariosHelpers.js&#45;&gt;helpers.js</title>
<path fill="none" stroke="#757575" d="M993.4408,-398.4857C1008.0476,-410.3024 1031.2301,-429.1828 1051,-445.8486 1100.4783,-487.5582 1157.6518,-537.6007 1187.819,-564.1527"/>
<polygon fill="#757575" stroke="#757575" points="1185.7655,-567.0081 1195.5826,-570.9923 1190.3928,-561.7556 1185.7655,-567.0081"/>
</g>
<!-- gui/particle.js -->
<g id="node23" class="node">
<title>gui/particle.js</title>
<path fill="none" stroke="#c6c5fe" d="M576.3333,-836.3486C576.3333,-836.3486 490.6667,-836.3486 490.6667,-836.3486 486.8333,-836.3486 483,-832.5152 483,-828.6819 483,-828.6819 483,-821.0152 483,-821.0152 483,-817.1819 486.8333,-813.3486 490.6667,-813.3486 490.6667,-813.3486 576.3333,-813.3486 576.3333,-813.3486 580.1667,-813.3486 584,-817.1819 584,-821.0152 584,-821.0152 584,-828.6819 584,-828.6819 584,-832.5152 580.1667,-836.3486 576.3333,-836.3486"/>
<text text-anchor="middle" x="533.5" y="-821.1486" font-family="Arial" font-size="14.00" fill="#c6c5fe">gui/particle.js</text>
</g>
<!-- gui/particle.js&#45;&gt;particle.js -->
<g id="edge48" class="edge">
<title>gui/particle.js&#45;&gt;particle.js</title>
<path fill="none" stroke="#757575" d="M558.6977,-836.4336C583.0452,-847.0633 621.2449,-862.2719 656,-869.8486 796.6808,-900.5174 835.0151,-894.8486 979,-894.8486 979,-894.8486 979,-894.8486 1209,-894.8486 1433.7688,-894.8486 1504.2303,-523.1627 1518.5252,-428.5511"/>
<polygon fill="#757575" stroke="#757575" points="1522.0214,-428.8298 1519.9966,-418.4302 1515.0942,-427.8226 1522.0214,-428.8298"/>
</g>
<!-- gui/particle.js&#45;&gt;helpers.js -->
<g id="edge47" class="edge">
<title>gui/particle.js&#45;&gt;helpers.js</title>
<path fill="none" stroke="#757575" d="M579.9578,-836.3724C675.1224,-857.3162 896.2723,-892.1207 1051,-807.8486 1134.7862,-762.2146 1184.0557,-650.6737 1201.6302,-603.9653"/>
<polygon fill="#757575" stroke="#757575" points="1204.9307,-605.1305 1205.075,-594.5366 1198.3558,-602.7282 1204.9307,-605.1305"/>
</g>
<!-- gui/particle.js&#45;&gt;core.js -->
<g id="edge46" class="edge">
<title>gui/particle.js&#45;&gt;core.js</title>
<path fill="none" stroke="#757575" d="M584.451,-820.1123C596.9314,-817.1317 609.6594,-812.3812 620,-804.8486 698.2682,-747.8342 741.6864,-633.9669 757.0466,-586.4529"/>
<polygon fill="#757575" stroke="#757575" points="760.4788,-587.2048 760.1285,-576.6157 753.7989,-585.112 760.4788,-587.2048"/>
</g>
<!-- gui/selection.js -->
<g id="node24" class="node">
<title>gui/selection.js</title>
<path fill="none" stroke="#c6c5fe" d="M581.8333,-244.3486C581.8333,-244.3486 485.1667,-244.3486 485.1667,-244.3486 481.3333,-244.3486 477.5,-240.5152 477.5,-236.6819 477.5,-236.6819 477.5,-229.0152 477.5,-229.0152 477.5,-225.1819 481.3333,-221.3486 485.1667,-221.3486 485.1667,-221.3486 581.8333,-221.3486 581.8333,-221.3486 585.6667,-221.3486 589.5,-225.1819 589.5,-229.0152 589.5,-229.0152 589.5,-236.6819 589.5,-236.6819 589.5,-240.5152 585.6667,-244.3486 581.8333,-244.3486"/>
<text text-anchor="middle" x="533.5" y="-229.1486" font-family="Arial" font-size="14.00" fill="#c6c5fe">gui/selection.js</text>
</g>
<!-- gui/selection.js&#45;&gt;components/csv.js -->
<g id="edge49" class="edge">
<title>gui/selection.js&#45;&gt;components/csv.js</title>
<path fill="none" stroke="#757575" d="M583.3106,-244.397C653.7895,-257.7552 783.7362,-271.1002 871,-212.8486 901.4194,-192.5425 879.8014,-163.3009 907,-138.8486 911.3687,-134.921 916.3753,-131.5746 921.6694,-128.7258"/>
<polygon fill="#757575" stroke="#757575" points="923.2625,-131.8438 930.7883,-124.3863 920.2546,-125.5229 923.2625,-131.8438"/>
</g>
<!-- gui/selection.js&#45;&gt;helpers.js -->
<g id="edge52" class="edge">
<title>gui/selection.js&#45;&gt;helpers.js</title>
<path fill="none" stroke="#757575" d="M556.7304,-244.4984C613.7487,-273.7059 763.761,-354.3035 871,-445.8486 889.4435,-461.593 886.2139,-474.359 907,-486.8486 963.3671,-520.7174 988.234,-501.2329 1051,-520.8486 1093.9483,-534.2708 1141.8773,-553.7405 1173.5637,-567.2674"/>
<polygon fill="#757575" stroke="#757575" points="1172.2831,-570.5265 1182.8524,-571.2613 1175.0482,-564.0958 1172.2831,-570.5265"/>
</g>
<!-- gui/selection.js&#45;&gt;core.js -->
<g id="edge51" class="edge">
<title>gui/selection.js&#45;&gt;core.js</title>
<path fill="none" stroke="#757575" d="M541.6858,-244.6646C575.7097,-293.7774 706.1871,-482.1187 749.462,-544.585"/>
<polygon fill="#757575" stroke="#757575" points="746.8405,-546.9471 755.4123,-553.1741 752.5946,-542.9608 746.8405,-546.9471"/>
</g>
<!-- gui/selection.js&#45;&gt;components/selectionHelper.js -->
<g id="edge50" class="edge">
<title>gui/selection.js&#45;&gt;components/selectionHelper.js</title>
<path fill="none" stroke="#757575" d="M589.7643,-223.0635C619.0451,-217.9712 655.2703,-211.6711 687.0527,-206.1438"/>
<polygon fill="#757575" stroke="#757575" points="687.9487,-209.5405 697.2011,-204.3788 686.7493,-202.6441 687.9487,-209.5405"/>
</g>
<!-- main.js -->
<g id="node25" class="node">
<title>main.js</title>
<path fill="none" stroke="#c6c5fe" d="M54.3333,-619.3486C54.3333,-619.3486 7.6667,-619.3486 7.6667,-619.3486 3.8333,-619.3486 0,-615.5152 0,-611.6819 0,-611.6819 0,-604.0152 0,-604.0152 0,-600.1819 3.8333,-596.3486 7.6667,-596.3486 7.6667,-596.3486 54.3333,-596.3486 54.3333,-596.3486 58.1667,-596.3486 62,-600.1819 62,-604.0152 62,-604.0152 62,-611.6819 62,-611.6819 62,-615.5152 58.1667,-619.3486 54.3333,-619.3486"/>
<text text-anchor="middle" x="31" y="-604.1486" font-family="Arial" font-size="14.00" fill="#c6c5fe">main.js</text>
</g>
<!-- view.js -->
<g id="node26" class="node">
<title>view.js</title>
<path fill="none" stroke="#c6c5fe" d="M149.3333,-619.3486C149.3333,-619.3486 105.6667,-619.3486 105.6667,-619.3486 101.8333,-619.3486 98,-615.5152 98,-611.6819 98,-611.6819 98,-604.0152 98,-604.0152 98,-600.1819 101.8333,-596.3486 105.6667,-596.3486 105.6667,-596.3486 149.3333,-596.3486 149.3333,-596.3486 153.1667,-596.3486 157,-600.1819 157,-604.0152 157,-604.0152 157,-611.6819 157,-611.6819 157,-615.5152 153.1667,-619.3486 149.3333,-619.3486"/>
<text text-anchor="middle" x="127.5" y="-604.1486" font-family="Arial" font-size="14.00" fill="#c6c5fe">view.js</text>
</g>
<!-- main.js&#45;&gt;view.js -->
<g id="edge54" class="edge">
<title>main.js&#45;&gt;view.js</title>
<path fill="none" stroke="#757575" d="M62.0644,-607.8486C70.212,-607.8486 79.1116,-607.8486 87.6492,-607.8486"/>
<polygon fill="#757575" stroke="#757575" points="87.8088,-611.3487 97.8088,-607.8486 87.8087,-604.3487 87.8088,-611.3487"/>
</g>
<!-- view.js&#45;&gt;components/keyboardHelper.js -->
<g id="edge58" class="edge">
<title>view.js&#45;&gt;components/keyboardHelper.js</title>
<path fill="none" stroke="#757575" d="M128.7142,-619.5424C133.8289,-666.5586 155.1234,-841.0851 193,-878.8486 196.694,-882.5315 200.8098,-885.7281 205.2187,-888.5"/>
<polygon fill="#757575" stroke="#757575" points="203.5726,-891.589 214.0246,-893.323 206.9352,-885.4495 203.5726,-891.589"/>
</g>
<!-- view.js&#45;&gt;components/mouseHelper.js -->
<g id="edge59" class="edge">
<title>view.js&#45;&gt;components/mouseHelper.js</title>
<path fill="none" stroke="#757575" d="M129.6997,-619.3542C137.3162,-658.0101 163.7051,-782.2832 193,-808.8486 229.2433,-841.7149 534.9171,-896.6119 683.3059,-921.6624"/>
<polygon fill="#757575" stroke="#757575" points="682.838,-925.1328 693.2802,-923.3412 683.9999,-918.2299 682.838,-925.1328"/>
</g>
<!-- view.js&#45;&gt;components/ruler.js -->
<g id="edge60" class="edge">
<title>view.js&#45;&gt;components/ruler.js</title>
<path fill="none" stroke="#757575" d="M131.2699,-619.4841C139.035,-641.4889 158.9958,-689.1172 193,-712.8486 269.6172,-766.3194 378.0002,-781.0913 451.7645,-784.4104"/>
<polygon fill="#757575" stroke="#757575" points="451.808,-787.9146 461.9364,-784.8056 452.0798,-780.9199 451.808,-787.9146"/>
</g>
<!-- view.js&#45;&gt;core.js -->
<g id="edge62" class="edge">
<title>view.js&#45;&gt;core.js</title>
<path fill="none" stroke="#757575" d="M134.1241,-596.1557C144.2994,-579.5344 165.5165,-549.7708 193,-537.8486 288.4894,-496.4256 611.0554,-541.1039 724.0238,-558.5197"/>
<polygon fill="#757575" stroke="#757575" points="723.5587,-561.9894 733.9778,-560.0676 724.6344,-555.0725 723.5587,-561.9894"/>
</g>
<!-- view.js&#45;&gt;components/selectionHelper.js -->
<g id="edge61" class="edge">
<title>view.js&#45;&gt;components/selectionHelper.js</title>
<path fill="none" stroke="#757575" d="M127.9813,-596.2945C130.5029,-541.5497 144.0042,-308.8802 193,-259.8486 330.8781,-121.8696 591.1065,-155.6234 706.2326,-179.2336"/>
<polygon fill="#757575" stroke="#757575" points="705.7466,-182.7078 716.2526,-181.3386 707.1858,-175.8574 705.7466,-182.7078"/>
</g>
<!-- view.js&#45;&gt;gui/advancedControls.js -->
<g id="edge63" class="edge">
<title>view.js&#45;&gt;gui/advancedControls.js</title>
<path fill="none" stroke="#757575" d="M137.2985,-619.7906C149.0831,-633.3328 170.1514,-655.0571 193,-666.8486 269.439,-706.2963 365.8567,-725.3656 436.5629,-734.5264"/>
<polygon fill="#757575" stroke="#757575" points="436.4458,-738.0389 446.803,-735.8073 437.3148,-731.093 436.4458,-738.0389"/>
</g>
<!-- view.js&#45;&gt;gui/controls.js -->
<g id="edge64" class="edge">
<title>view.js&#45;&gt;gui/controls.js</title>
<path fill="none" stroke="#757575" d="M157.1015,-607.8486C179.5315,-607.8486 211.1619,-607.8486 239.1498,-607.8486"/>
<polygon fill="#757575" stroke="#757575" points="239.2726,-611.3487 249.2725,-607.8486 239.2725,-604.3487 239.2726,-611.3487"/>
</g>
<!-- view.js&#45;&gt;gui/info.js -->
<g id="edge67" class="edge">
<title>view.js&#45;&gt;gui/info.js</title>
<path fill="none" stroke="#757575" d="M157.0245,-617.4285C168.2324,-620.916 181.15,-624.7574 193,-627.8486 296.0696,-654.7356 418.4399,-679.6445 484.7996,-692.5766"/>
<polygon fill="#757575" stroke="#757575" points="484.4738,-696.0786 494.9575,-694.5478 485.8074,-689.2068 484.4738,-696.0786"/>
</g>
<!-- view.js&#45;&gt;gui/parameters.js -->
<g id="edge68" class="edge">
<title>view.js&#45;&gt;gui/parameters.js</title>
<path fill="none" stroke="#757575" d="M130.4389,-596.1335C137.0589,-572.4749 155.5682,-519.2597 193,-495.8486 273.8921,-445.2559 387.6406,-447.9972 460.9689,-457.0105"/>
<polygon fill="#757575" stroke="#757575" points="460.6723,-460.5013 471.0399,-458.3191 461.5743,-453.5597 460.6723,-460.5013"/>
</g>
<!-- view.js&#45;&gt;gui/field.js -->
<g id="edge65" class="edge">
<title>view.js&#45;&gt;gui/field.js</title>
<path fill="none" stroke="#757575" d="M157.0588,-597.9647C168.2706,-594.3231 181.182,-590.2578 193,-586.8486 212.2543,-581.2942 233.5768,-575.696 252.2196,-570.9806"/>
<polygon fill="#757575" stroke="#757575" points="253.1373,-574.3589 261.9841,-568.5292 251.4328,-567.5696 253.1373,-574.3589"/>
</g>
<!-- view.js&#45;&gt;gui/generator.js -->
<g id="edge66" class="edge">
<title>view.js&#45;&gt;gui/generator.js</title>
<path fill="none" stroke="#757575" d="M128.3788,-596.194C131.3324,-566.0333 143.7074,-485.1764 193,-447.8486 271.3759,-388.4969 390.4232,-389.5129 464.9921,-397.6953"/>
<polygon fill="#757575" stroke="#757575" points="464.8708,-401.205 475.2101,-398.8919 465.6851,-394.2525 464.8708,-401.205"/>
</g>
<!-- view.js&#45;&gt;gui/particle.js -->
<g id="edge69" class="edge">
<title>view.js&#45;&gt;gui/particle.js</title>
<path fill="none" stroke="#757575" d="M128.8183,-619.657C132.7276,-648.7087 147.0203,-723.9664 193,-760.8486 273.326,-825.2814 398.494,-832.1582 472.6057,-829.6438"/>
<polygon fill="#757575" stroke="#757575" points="472.8652,-833.1362 482.7143,-829.2317 472.58,-826.142 472.8652,-833.1362"/>
</g>
<!-- view.js&#45;&gt;gui/selection.js -->
<g id="edge70" class="edge">
<title>view.js&#45;&gt;gui/selection.js</title>
<path fill="none" stroke="#757575" d="M127.9076,-596.2049C129.7231,-560.997 139.5875,-454.1374 193,-389.8486 263.4666,-305.033 389.7637,-263.7205 467.1523,-245.4753"/>
<polygon fill="#757575" stroke="#757575" points="468.3058,-248.8017 477.2708,-243.1554 466.7415,-241.9787 468.3058,-248.8017"/>
</g>
</g>
</svg>
