<?xml version="1.0" encoding="UTF-8" standalone="no"?>
<!DOCTYPE svg PUBLIC "-//W3C//DTD SVG 1.1//EN"
 "http://www.w3.org/Graphics/SVG/1.1/DTD/svg11.dtd">
<!-- Generated by graphviz version 2.40.1 (20161225.0304)
 -->
<!-- Title: G Pages: 1 -->
<svg width="1409pt" height="857pt"
 viewBox="0.00 0.00 1409.20 856.76" xmlns="http://www.w3.org/2000/svg" xmlns:xlink="http://www.w3.org/1999/xlink">
<g id="graph0" class="graph" transform="scale(1 1) rotate(0) translate(21.6 835.1644)">
<title>G</title>
<polygon fill="#111111" stroke="transparent" points="-21.6,21.6 -21.6,-835.1644 1387.6,-835.1644 1387.6,21.6 -21.6,21.6"/>
<!-- components/csv.js -->
<g id="node1" class="node">
<title>components/csv.js</title>
<path fill="none" stroke="#c6c5fe" d="M1075.8333,-746.2129C1075.8333,-746.2129 954.1667,-746.2129 954.1667,-746.2129 950.3333,-746.2129 946.5,-742.3795 946.5,-738.5462 946.5,-738.5462 946.5,-730.8795 946.5,-730.8795 946.5,-727.0462 950.3333,-723.2129 954.1667,-723.2129 954.1667,-723.2129 1075.8333,-723.2129 1075.8333,-723.2129 1079.6667,-723.2129 1083.5,-727.0462 1083.5,-730.8795 1083.5,-730.8795 1083.5,-738.5462 1083.5,-738.5462 1083.5,-742.3795 1079.6667,-746.2129 1075.8333,-746.2129"/>
<text text-anchor="middle" x="1015" y="-731.0129" font-family="Arial" font-size="14.00" fill="#c6c5fe">components/csv.js</text>
</g>
<!-- particle.js -->
<g id="node2" class="node">
<title>particle.js</title>
<path fill="none" stroke="#cfffac" d="M1358.3333,-413.2129C1358.3333,-413.2129 1296.6667,-413.2129 1296.6667,-413.2129 1292.8333,-413.2129 1289,-409.3795 1289,-405.5462 1289,-405.5462 1289,-397.8795 1289,-397.8795 1289,-394.0462 1292.8333,-390.2129 1296.6667,-390.2129 1296.6667,-390.2129 1358.3333,-390.2129 1358.3333,-390.2129 1362.1667,-390.2129 1366,-394.0462 1366,-397.8795 1366,-397.8795 1366,-405.5462 1366,-405.5462 1366,-409.3795 1362.1667,-413.2129 1358.3333,-413.2129"/>
<text text-anchor="middle" x="1327.5" y="-398.0129" font-family="Arial" font-size="14.00" fill="#cfffac">particle.js</text>
</g>
<!-- components/csv.js&#45;&gt;particle.js -->
<g id="edge1" class="edge">
<title>components/csv.js&#45;&gt;particle.js</title>
<path fill="none" stroke="#757575" d="M1079.7946,-746.2228C1132.7437,-751.7081 1206.2362,-749.7916 1253,-708.7129 1296.4388,-670.5549 1318.8597,-487.0087 1325.4182,-423.4399"/>
<polygon fill="#757575" stroke="#757575" points="1328.9152,-423.6436 1326.4291,-413.3446 1321.9501,-422.9461 1328.9152,-423.6436"/>
</g>
<!-- physics.js -->
<g id="node3" class="node">
<title>physics.js</title>
<path fill="none" stroke="#c6c5fe" d="M1245.3333,-611.2129C1245.3333,-611.2129 1180.6667,-611.2129 1180.6667,-611.2129 1176.8333,-611.2129 1173,-607.3795 1173,-603.5462 1173,-603.5462 1173,-595.8795 1173,-595.8795 1173,-592.0462 1176.8333,-588.2129 1180.6667,-588.2129 1180.6667,-588.2129 1245.3333,-588.2129 1245.3333,-588.2129 1249.1667,-588.2129 1253,-592.0462 1253,-595.8795 1253,-595.8795 1253,-603.5462 1253,-603.5462 1253,-607.3795 1249.1667,-611.2129 1245.3333,-611.2129"/>
<text text-anchor="middle" x="1213" y="-596.0129" font-family="Arial" font-size="14.00" fill="#c6c5fe">physics.js</text>
</g>
<!-- components/csv.js&#45;&gt;physics.js -->
<g id="edge2" class="edge">
<title>components/csv.js&#45;&gt;physics.js</title>
<path fill="none" stroke="#757575" d="M1041.8856,-723.1532C1067.43,-711.5947 1106.3782,-692.4477 1137,-670.7129 1158.8174,-655.2273 1180.8395,-633.8823 1195.5205,-618.6485"/>
<polygon fill="#757575" stroke="#757575" points="1198.1458,-620.9666 1202.4885,-611.3027 1193.0671,-616.1491 1198.1458,-620.9666"/>
</g>
<!-- physics.js&#45;&gt;particle.js -->
<g id="edge32" class="edge">
<title>physics.js&#45;&gt;particle.js</title>
<path fill="none" stroke="#757575" d="M1219.6509,-588.2117C1238.3859,-555.8141 1291.7847,-463.4738 1315.6845,-422.1449"/>
<polygon fill="#757575" stroke="#757575" points="1318.8545,-423.6547 1320.8307,-413.2458 1312.7948,-420.1504 1318.8545,-423.6547"/>
</g>
<!-- components/keyboard.js -->
<g id="node4" class="node">
<title>components/keyboard.js</title>
<path fill="none" stroke="#cfffac" d="M361.3333,-77.2129C361.3333,-77.2129 200.6667,-77.2129 200.6667,-77.2129 196.8333,-77.2129 193,-73.3795 193,-69.5462 193,-69.5462 193,-61.8795 193,-61.8795 193,-58.0462 196.8333,-54.2129 200.6667,-54.2129 200.6667,-54.2129 361.3333,-54.2129 361.3333,-54.2129 365.1667,-54.2129 369,-58.0462 369,-61.8795 369,-61.8795 369,-69.5462 369,-69.5462 369,-73.3795 365.1667,-77.2129 361.3333,-77.2129"/>
<text text-anchor="middle" x="281" y="-62.0129" font-family="Arial" font-size="14.00" fill="#cfffac">components/keyboard.js</text>
</g>
<!-- components/mouseHelper.js -->
<g id="node5" class="node">
<title>components/mouseHelper.js</title>
<path fill="none" stroke="#c6c5fe" d="M598.3333,-156.2129C598.3333,-156.2129 412.6667,-156.2129 412.6667,-156.2129 408.8333,-156.2129 405,-152.3795 405,-148.5462 405,-148.5462 405,-140.8795 405,-140.8795 405,-137.0462 408.8333,-133.2129 412.6667,-133.2129 412.6667,-133.2129 598.3333,-133.2129 598.3333,-133.2129 602.1667,-133.2129 606,-137.0462 606,-140.8795 606,-140.8795 606,-148.5462 606,-148.5462 606,-152.3795 602.1667,-156.2129 598.3333,-156.2129"/>
<text text-anchor="middle" x="505.5" y="-141.0129" font-family="Arial" font-size="14.00" fill="#c6c5fe">components/mouseHelper.js</text>
</g>
<!-- helpers.js -->
<g id="node6" class="node">
<title>helpers.js</title>
<path fill="none" stroke="#c6c5fe" d="M1046.8333,-316.2129C1046.8333,-316.2129 983.1667,-316.2129 983.1667,-316.2129 979.3333,-316.2129 975.5,-312.3795 975.5,-308.5462 975.5,-308.5462 975.5,-300.8795 975.5,-300.8795 975.5,-297.0462 979.3333,-293.2129 983.1667,-293.2129 983.1667,-293.2129 1046.8333,-293.2129 1046.8333,-293.2129 1050.6667,-293.2129 1054.5,-297.0462 1054.5,-300.8795 1054.5,-300.8795 1054.5,-308.5462 1054.5,-308.5462 1054.5,-312.3795 1050.6667,-316.2129 1046.8333,-316.2129"/>
<text text-anchor="middle" x="1015" y="-301.0129" font-family="Arial" font-size="14.00" fill="#c6c5fe">helpers.js</text>
</g>
<!-- components/mouseHelper.js&#45;&gt;helpers.js -->
<g id="edge3" class="edge">
<title>components/mouseHelper.js&#45;&gt;helpers.js</title>
<path fill="none" stroke="#757575" d="M606.2295,-135.9479C678.6323,-133.4541 777.154,-138.0212 857,-170.7129 861.0762,-172.3818 951.4703,-249.9943 993.6624,-286.3211"/>
<polygon fill="#757575" stroke="#757575" points="991.5571,-289.1271 1001.4182,-293.0013 996.1254,-283.8232 991.5571,-289.1271"/>
</g>
<!-- helpers.js&#45;&gt;particle.js -->
<g id="edge28" class="edge">
<title>helpers.js&#45;&gt;particle.js</title>
<path fill="none" stroke="#757575" d="M1054.5443,-301.5206C1103.512,-299.2097 1188.3567,-300.6677 1253,-330.7129 1277.6973,-342.1918 1299.3965,-365.1729 1312.9119,-381.8891"/>
<polygon fill="#757575" stroke="#757575" points="1310.2983,-384.2294 1319.2061,-389.9655 1315.8196,-379.9264 1310.2983,-384.2294"/>
</g>
<!-- components/ruler.js -->
<g id="node7" class="node">
<title>components/ruler.js</title>
<path fill="none" stroke="#c6c5fe" d="M344.8333,-351.2129C344.8333,-351.2129 217.1667,-351.2129 217.1667,-351.2129 213.3333,-351.2129 209.5,-347.3795 209.5,-343.5462 209.5,-343.5462 209.5,-335.8795 209.5,-335.8795 209.5,-332.0462 213.3333,-328.2129 217.1667,-328.2129 217.1667,-328.2129 344.8333,-328.2129 344.8333,-328.2129 348.6667,-328.2129 352.5,-332.0462 352.5,-335.8795 352.5,-335.8795 352.5,-343.5462 352.5,-343.5462 352.5,-347.3795 348.6667,-351.2129 344.8333,-351.2129"/>
<text text-anchor="middle" x="281" y="-336.0129" font-family="Arial" font-size="14.00" fill="#c6c5fe">components/ruler.js</text>
</g>
<!-- components/ruler.js&#45;&gt;helpers.js -->
<g id="edge5" class="edge">
<title>components/ruler.js&#45;&gt;helpers.js</title>
<path fill="none" stroke="#757575" d="M333.5724,-328.1774C403.5504,-313.4679 531.3517,-288.8454 642,-279.7129 737.2317,-271.8528 761.7384,-272.223 857,-279.7129 893.4411,-282.5781 934.1767,-289.1056 965.1578,-294.7722"/>
<polygon fill="#757575" stroke="#757575" points="964.7985,-298.2654 975.2702,-296.6544 966.0795,-291.3835 964.7985,-298.2654"/>
</g>
<!-- core.js -->
<g id="node8" class="node">
<title>core.js</title>
<path fill="none" stroke="#c6c5fe" d="M527.3333,-423.2129C527.3333,-423.2129 483.6667,-423.2129 483.6667,-423.2129 479.8333,-423.2129 476,-419.3795 476,-415.5462 476,-415.5462 476,-407.8795 476,-407.8795 476,-404.0462 479.8333,-400.2129 483.6667,-400.2129 483.6667,-400.2129 527.3333,-400.2129 527.3333,-400.2129 531.1667,-400.2129 535,-404.0462 535,-407.8795 535,-407.8795 535,-415.5462 535,-415.5462 535,-419.3795 531.1667,-423.2129 527.3333,-423.2129"/>
<text text-anchor="middle" x="505.5" y="-408.0129" font-family="Arial" font-size="14.00" fill="#c6c5fe">core.js</text>
</g>
<!-- components/ruler.js&#45;&gt;core.js -->
<g id="edge4" class="edge">
<title>components/ruler.js&#45;&gt;core.js</title>
<path fill="none" stroke="#757575" d="M317.0698,-351.2809C357.9201,-364.3821 424.2569,-385.6572 466.3418,-399.1543"/>
<polygon fill="#757575" stroke="#757575" points="465.3791,-402.5211 475.9702,-402.2423 467.5169,-395.8555 465.3791,-402.5211"/>
</g>
<!-- core.js&#45;&gt;components/csv.js -->
<g id="edge10" class="edge">
<title>core.js&#45;&gt;components/csv.js</title>
<path fill="none" stroke="#757575" d="M507.5195,-423.2844C515.5726,-465.6515 549.5595,-613.2914 642,-679.7129 665.4716,-696.578 834.0987,-716.3512 936.4188,-726.9923"/>
<polygon fill="#757575" stroke="#757575" points="936.1053,-730.4785 946.4121,-728.0245 936.8246,-723.5155 936.1053,-730.4785"/>
</g>
<!-- core.js&#45;&gt;particle.js -->
<g id="edge16" class="edge">
<title>core.js&#45;&gt;particle.js</title>
<path fill="none" stroke="#757575" d="M535.0164,-420.1412C562.4582,-427.5114 604.6114,-437.6527 642,-441.7129 736.9971,-452.029 761.5303,-445.7638 857,-441.7129 938.1651,-438.2689 1175.661,-416.1826 1278.7791,-406.3836"/>
<polygon fill="#757575" stroke="#757575" points="1279.2928,-409.8507 1288.9161,-405.4188 1278.6294,-402.8822 1279.2928,-409.8507"/>
</g>
<!-- core.js&#45;&gt;physics.js -->
<g id="edge17" class="edge">
<title>core.js&#45;&gt;physics.js</title>
<path fill="none" stroke="#757575" d="M512.5901,-423.538C530.2813,-451.8056 579.4792,-523.1363 642,-552.7129 733.5173,-596.0067 1040.5412,-600.1663 1162.4693,-600.0541"/>
<polygon fill="#757575" stroke="#757575" points="1162.6556,-603.5538 1172.6488,-600.0343 1162.6419,-596.5539 1162.6556,-603.5538"/>
</g>
<!-- core.js&#45;&gt;helpers.js -->
<g id="edge15" class="edge">
<title>core.js&#45;&gt;helpers.js</title>
<path fill="none" stroke="#757575" d="M531.1175,-400.0232C558.1458,-388.152 602.2484,-370.0831 642,-359.7129 702.1025,-344.0336 878.091,-321.3741 965.1096,-310.7012"/>
<polygon fill="#757575" stroke="#757575" points="965.765,-314.1472 975.2668,-309.4603 964.9161,-307.1989 965.765,-314.1472"/>
</g>
<!-- gpu/field.js -->
<g id="node10" class="node">
<title>gpu/field.js</title>
<path fill="none" stroke="#c6c5fe" d="M784.8333,-433.2129C784.8333,-433.2129 714.1667,-433.2129 714.1667,-433.2129 710.3333,-433.2129 706.5,-429.3795 706.5,-425.5462 706.5,-425.5462 706.5,-417.8795 706.5,-417.8795 706.5,-414.0462 710.3333,-410.2129 714.1667,-410.2129 714.1667,-410.2129 784.8333,-410.2129 784.8333,-410.2129 788.6667,-410.2129 792.5,-414.0462 792.5,-417.8795 792.5,-417.8795 792.5,-425.5462 792.5,-425.5462 792.5,-429.3795 788.6667,-433.2129 784.8333,-433.2129"/>
<text text-anchor="middle" x="749.5" y="-418.0129" font-family="Arial" font-size="14.00" fill="#c6c5fe">gpu/field.js</text>
</g>
<!-- core.js&#45;&gt;gpu/field.js -->
<g id="edge11" class="edge">
<title>core.js&#45;&gt;gpu/field.js</title>
<path fill="none" stroke="#757575" d="M535.4192,-412.9391C575.3378,-414.5751 646.701,-417.4998 695.9944,-419.52"/>
<polygon fill="#757575" stroke="#757575" points="696.0239,-423.0241 706.1589,-419.9366 696.3106,-416.03 696.0239,-423.0241"/>
</g>
<!-- gpu/graphics.js -->
<g id="node11" class="node">
<title>gpu/graphics.js</title>
<path fill="none" stroke="#c6c5fe" d="M799.3333,-513.2129C799.3333,-513.2129 699.6667,-513.2129 699.6667,-513.2129 695.8333,-513.2129 692,-509.3795 692,-505.5462 692,-505.5462 692,-497.8795 692,-497.8795 692,-494.0462 695.8333,-490.2129 699.6667,-490.2129 699.6667,-490.2129 799.3333,-490.2129 799.3333,-490.2129 803.1667,-490.2129 807,-494.0462 807,-497.8795 807,-497.8795 807,-505.5462 807,-505.5462 807,-509.3795 803.1667,-513.2129 799.3333,-513.2129"/>
<text text-anchor="middle" x="749.5" y="-498.0129" font-family="Arial" font-size="14.00" fill="#c6c5fe">gpu/graphics.js</text>
</g>
<!-- core.js&#45;&gt;gpu/graphics.js -->
<g id="edge12" class="edge">
<title>core.js&#45;&gt;gpu/graphics.js</title>
<path fill="none" stroke="#757575" d="M526.6865,-423.2878C553.0553,-437.3054 599.7738,-460.8772 642,-475.7129 654.974,-480.2711 669.1021,-484.3138 682.7233,-487.7727"/>
<polygon fill="#757575" stroke="#757575" points="681.9815,-491.1945 692.5283,-490.1871 683.6552,-484.3975 681.9815,-491.1945"/>
</g>
<!-- gpu/shaders/computeShader.glsl.js -->
<g id="node12" class="node">
<title>gpu/shaders/computeShader.glsl.js</title>
<path fill="none" stroke="#c6c5fe" d="M1129.3333,-552.2129C1129.3333,-552.2129 900.6667,-552.2129 900.6667,-552.2129 896.8333,-552.2129 893,-548.3795 893,-544.5462 893,-544.5462 893,-536.8795 893,-536.8795 893,-533.0462 896.8333,-529.2129 900.6667,-529.2129 900.6667,-529.2129 1129.3333,-529.2129 1129.3333,-529.2129 1133.1667,-529.2129 1137,-533.0462 1137,-536.8795 1137,-536.8795 1137,-544.5462 1137,-544.5462 1137,-548.3795 1133.1667,-552.2129 1129.3333,-552.2129"/>
<text text-anchor="middle" x="1015" y="-537.0129" font-family="Arial" font-size="14.00" fill="#c6c5fe">gpu/shaders/computeShader.glsl.js</text>
</g>
<!-- core.js&#45;&gt;gpu/shaders/computeShader.glsl.js -->
<g id="edge13" class="edge">
<title>core.js&#45;&gt;gpu/shaders/computeShader.glsl.js</title>
<path fill="none" stroke="#757575" d="M514.954,-423.256C535.2638,-447.0685 585.8018,-501.2077 642,-522.7129 727.1845,-555.3101 831.3895,-557.516 907.9841,-552.8891"/>
<polygon fill="#757575" stroke="#757575" points="908.379,-556.3709 918.1297,-552.2267 907.9229,-549.3857 908.379,-556.3709"/>
</g>
<!-- gpu/simulation.js -->
<g id="node13" class="node">
<title>gpu/simulation.js</title>
<path fill="none" stroke="#c6c5fe" d="M804.3333,-392.2129C804.3333,-392.2129 694.6667,-392.2129 694.6667,-392.2129 690.8333,-392.2129 687,-388.3795 687,-384.5462 687,-384.5462 687,-376.8795 687,-376.8795 687,-373.0462 690.8333,-369.2129 694.6667,-369.2129 694.6667,-369.2129 804.3333,-369.2129 804.3333,-369.2129 808.1667,-369.2129 812,-373.0462 812,-376.8795 812,-376.8795 812,-384.5462 812,-384.5462 812,-388.3795 808.1667,-392.2129 804.3333,-392.2129"/>
<text text-anchor="middle" x="749.5" y="-377.0129" font-family="Arial" font-size="14.00" fill="#c6c5fe">gpu/simulation.js</text>
</g>
<!-- core.js&#45;&gt;gpu/simulation.js -->
<g id="edge14" class="edge">
<title>core.js&#45;&gt;gpu/simulation.js</title>
<path fill="none" stroke="#757575" d="M535.4192,-407.9117C570.3934,-403.4682 629.5053,-395.9581 676.7638,-389.9539"/>
<polygon fill="#757575" stroke="#757575" points="677.4819,-393.3909 686.961,-388.6584 676.5996,-386.4468 677.4819,-393.3909"/>
</g>
<!-- scenarios.js -->
<g id="node14" class="node">
<title>scenarios.js</title>
<path fill="none" stroke="#cfffac" d="M788.8333,-312.2129C788.8333,-312.2129 710.1667,-312.2129 710.1667,-312.2129 706.3333,-312.2129 702.5,-308.3795 702.5,-304.5462 702.5,-304.5462 702.5,-296.8795 702.5,-296.8795 702.5,-293.0462 706.3333,-289.2129 710.1667,-289.2129 710.1667,-289.2129 788.8333,-289.2129 788.8333,-289.2129 792.6667,-289.2129 796.5,-293.0462 796.5,-296.8795 796.5,-296.8795 796.5,-304.5462 796.5,-304.5462 796.5,-308.3795 792.6667,-312.2129 788.8333,-312.2129"/>
<text text-anchor="middle" x="749.5" y="-297.0129" font-family="Arial" font-size="14.00" fill="#cfffac">scenarios.js</text>
</g>
<!-- core.js&#45;&gt;scenarios.js -->
<g id="edge18" class="edge">
<title>core.js&#45;&gt;scenarios.js</title>
<path fill="none" stroke="#757575" d="M520.5775,-400.0386C544.8385,-381.7994 594.6303,-346.5802 642,-326.7129 657.8367,-320.0708 675.7288,-314.8963 692.3072,-310.9746"/>
<polygon fill="#757575" stroke="#757575" points="693.4442,-314.3062 702.4298,-308.6928 691.9049,-307.4776 693.4442,-314.3062"/>
</g>
<!-- components/selectionHelper.js -->
<g id="node9" class="node">
<title>components/selectionHelper.js</title>
<path fill="none" stroke="#c6c5fe" d="M849.3333,-670.2129C849.3333,-670.2129 649.6667,-670.2129 649.6667,-670.2129 645.8333,-670.2129 642,-666.3795 642,-662.5462 642,-662.5462 642,-654.8795 642,-654.8795 642,-651.0462 645.8333,-647.2129 649.6667,-647.2129 649.6667,-647.2129 849.3333,-647.2129 849.3333,-647.2129 853.1667,-647.2129 857,-651.0462 857,-654.8795 857,-654.8795 857,-662.5462 857,-662.5462 857,-666.3795 853.1667,-670.2129 849.3333,-670.2129"/>
<text text-anchor="middle" x="749.5" y="-655.0129" font-family="Arial" font-size="14.00" fill="#c6c5fe">components/selectionHelper.js</text>
</g>
<!-- components/selectionHelper.js&#45;&gt;components/csv.js -->
<g id="edge6" class="edge">
<title>components/selectionHelper.js&#45;&gt;components/csv.js</title>
<path fill="none" stroke="#757575" d="M813.2433,-670.2311C827.9411,-673.9465 843.2802,-678.7065 857,-684.7129 874.6155,-692.4247 875.2808,-701.2424 893,-708.7129 906.6194,-714.4548 921.6483,-718.9832 936.367,-722.5368"/>
<polygon fill="#757575" stroke="#757575" points="935.9583,-726.0334 946.4862,-724.8443 937.5146,-719.2086 935.9583,-726.0334"/>
</g>
<!-- components/selectionHelper.js&#45;&gt;particle.js -->
<g id="edge8" class="edge">
<title>components/selectionHelper.js&#45;&gt;particle.js</title>
<path fill="none" stroke="#757575" d="M857.0219,-666.1981C988.2315,-672.7726 1199.2863,-674.2353 1253,-620.7129 1308.4811,-565.4293 1322.6665,-467.2792 1326.2764,-423.659"/>
<polygon fill="#757575" stroke="#757575" points="1329.7755,-423.7961 1326.999,-413.5716 1322.7934,-423.2959 1329.7755,-423.7961"/>
</g>
<!-- components/selectionHelper.js&#45;&gt;physics.js -->
<g id="edge9" class="edge">
<title>components/selectionHelper.js&#45;&gt;physics.js</title>
<path fill="none" stroke="#757575" d="M857.0725,-661.2788C935.6803,-660.8037 1044.2894,-655.2358 1137,-632.7129 1152.5222,-628.942 1168.8784,-622.2331 1182.4243,-615.8448"/>
<polygon fill="#757575" stroke="#757575" points="1184.289,-618.8293 1191.7391,-611.2963 1181.2174,-612.5392 1184.289,-618.8293"/>
</g>
<!-- components/selectionHelper.js&#45;&gt;helpers.js -->
<g id="edge7" class="edge">
<title>components/selectionHelper.js&#45;&gt;helpers.js</title>
<path fill="none" stroke="#757575" d="M760.4095,-647.1143C781.2238,-624.5469 827.1823,-572.5618 857,-522.7129 877.6408,-488.2057 871.2323,-473.5206 893,-439.7129 922.7567,-393.4973 968.4238,-347.7394 994.6263,-323.1674"/>
<polygon fill="#757575" stroke="#757575" points="997.1398,-325.61 1002.0941,-316.2448 992.3809,-320.4764 997.1398,-325.61"/>
</g>
<!-- gpu/field.js&#45;&gt;particle.js -->
<g id="edge20" class="edge">
<title>gpu/field.js&#45;&gt;particle.js</title>
<path fill="none" stroke="#757575" d="M792.7441,-416.1374C821.1806,-412.7318 859.2405,-408.6673 893,-406.7129 1032.6488,-398.6281 1197.9511,-399.632 1278.48,-400.8"/>
<polygon fill="#757575" stroke="#757575" points="1278.7519,-404.3045 1288.8041,-400.9575 1278.8587,-397.3053 1278.7519,-404.3045"/>
</g>
<!-- gpu/field.js&#45;&gt;helpers.js -->
<g id="edge19" class="edge">
<title>gpu/field.js&#45;&gt;helpers.js</title>
<path fill="none" stroke="#757575" d="M792.5275,-418.5947C812.8941,-415.8206 837.0619,-410.5858 857,-400.7129 876.1841,-391.2134 875.3911,-380.8865 893,-368.7129 920.5639,-349.6571 954.4977,-332.2903 979.5737,-320.4711"/>
<polygon fill="#757575" stroke="#757575" points="981.1254,-323.6096 988.7188,-316.221 978.1752,-317.2616 981.1254,-323.6096"/>
</g>
<!-- gpu/graphics.js&#45;&gt;particle.js -->
<g id="edge24" class="edge">
<title>gpu/graphics.js&#45;&gt;particle.js</title>
<path fill="none" stroke="#757575" d="M807.0936,-504.6507C883.4873,-507.2124 1022.0745,-507.2028 1137,-481.7129 1196.6329,-468.4866 1261.2205,-437.4598 1297.7869,-418.1651"/>
<polygon fill="#757575" stroke="#757575" points="1299.7271,-421.0967 1306.895,-413.2946 1296.4261,-414.9238 1299.7271,-421.0967"/>
</g>
<!-- gpu/graphics.js&#45;&gt;helpers.js -->
<g id="edge23" class="edge">
<title>gpu/graphics.js&#45;&gt;helpers.js</title>
<path fill="none" stroke="#757575" d="M773.3992,-490.1645C795.7557,-478.952 829.7034,-460.8602 857,-441.7129 910.7939,-403.9789 967.4959,-351.125 996.1076,-323.3895"/>
<polygon fill="#757575" stroke="#757575" points="998.6945,-325.7554 1003.4069,-316.2662 993.8055,-320.7456 998.6945,-325.7554"/>
</g>
<!-- gpu/graphics.js&#45;&gt;gpu/shaders/computeShader.glsl.js -->
<g id="edge21" class="edge">
<title>gpu/graphics.js&#45;&gt;gpu/shaders/computeShader.glsl.js</title>
<path fill="none" stroke="#757575" d="M807.1095,-510.1753C841.9737,-515.2966 887.148,-521.9324 926.4756,-527.7093"/>
<polygon fill="#757575" stroke="#757575" points="926.1998,-531.2063 936.6023,-529.1968 927.2172,-524.2806 926.1998,-531.2063"/>
</g>
<!-- gpu/shaders/particleShader.glsl.js -->
<g id="node15" class="node">
<title>gpu/shaders/particleShader.glsl.js</title>
<path fill="none" stroke="#cfffac" d="M1124.3333,-472.2129C1124.3333,-472.2129 905.6667,-472.2129 905.6667,-472.2129 901.8333,-472.2129 898,-468.3795 898,-464.5462 898,-464.5462 898,-456.8795 898,-456.8795 898,-453.0462 901.8333,-449.2129 905.6667,-449.2129 905.6667,-449.2129 1124.3333,-449.2129 1124.3333,-449.2129 1128.1667,-449.2129 1132,-453.0462 1132,-456.8795 1132,-456.8795 1132,-464.5462 1132,-464.5462 1132,-468.3795 1128.1667,-472.2129 1124.3333,-472.2129"/>
<text text-anchor="middle" x="1015" y="-457.0129" font-family="Arial" font-size="14.00" fill="#cfffac">gpu/shaders/particleShader.glsl.js</text>
</g>
<!-- gpu/graphics.js&#45;&gt;gpu/shaders/particleShader.glsl.js -->
<g id="edge22" class="edge">
<title>gpu/graphics.js&#45;&gt;gpu/shaders/particleShader.glsl.js</title>
<path fill="none" stroke="#757575" d="M807.1095,-492.8165C843.1022,-487.2583 890.0832,-480.0032 930.2756,-473.7965"/>
<polygon fill="#757575" stroke="#757575" points="930.9882,-477.228 940.3369,-472.2428 929.9199,-470.31 930.9882,-477.228"/>
</g>
<!-- gpu/shaders/computeShader.glsl.js&#45;&gt;physics.js -->
<g id="edge25" class="edge">
<title>gpu/shaders/computeShader.glsl.js&#45;&gt;physics.js</title>
<path fill="none" stroke="#757575" d="M1080.846,-552.2353C1099.2182,-556.1259 1119.0561,-560.9687 1137,-566.7129 1151.5517,-571.3711 1167.1118,-577.845 1180.3383,-583.8258"/>
<polygon fill="#757575" stroke="#757575" points="1178.9629,-587.0458 1189.509,-588.0606 1181.8976,-580.6906 1178.9629,-587.0458"/>
</g>
<!-- gpu/simulation.js&#45;&gt;particle.js -->
<g id="edge27" class="edge">
<title>gpu/simulation.js&#45;&gt;particle.js</title>
<path fill="none" stroke="#757575" d="M812.325,-381.9982C907.6352,-384.1091 1094.4585,-388.8761 1253,-396.7129 1261.2843,-397.1224 1270.0814,-397.6395 1278.6175,-398.1849"/>
<polygon fill="#757575" stroke="#757575" points="1278.6397,-401.6939 1288.8482,-398.8589 1279.0999,-394.709 1278.6397,-401.6939"/>
</g>
<!-- gpu/simulation.js&#45;&gt;helpers.js -->
<g id="edge26" class="edge">
<title>gpu/simulation.js&#45;&gt;helpers.js</title>
<path fill="none" stroke="#757575" d="M812.114,-369.4784C827.1535,-365.7225 842.9284,-360.8733 857,-354.7129 874.6155,-347.001 875.2808,-338.1833 893,-330.7129 915.8425,-321.0825 942.6496,-314.866 965.3087,-310.936"/>
<polygon fill="#757575" stroke="#757575" points="966.0941,-314.3542 975.3987,-309.2871 964.9651,-307.4458 966.0941,-314.3542"/>
</g>
<!-- main.js -->
<g id="node16" class="node">
<title>main.js</title>
<path fill="none" stroke="#c6c5fe" d="M54.3333,-291.2129C54.3333,-291.2129 7.6667,-291.2129 7.6667,-291.2129 3.8333,-291.2129 0,-287.3795 0,-283.5462 0,-283.5462 0,-275.8795 0,-275.8795 0,-272.0462 3.8333,-268.2129 7.6667,-268.2129 7.6667,-268.2129 54.3333,-268.2129 54.3333,-268.2129 58.1667,-268.2129 62,-272.0462 62,-275.8795 62,-275.8795 62,-283.5462 62,-283.5462 62,-287.3795 58.1667,-291.2129 54.3333,-291.2129"/>
<text text-anchor="middle" x="31" y="-276.0129" font-family="Arial" font-size="14.00" fill="#c6c5fe">main.js</text>
</g>
<!-- view.js -->
<g id="node17" class="node">
<title>view.js</title>
<path fill="none" stroke="#c6c5fe" d="M149.3333,-291.2129C149.3333,-291.2129 105.6667,-291.2129 105.6667,-291.2129 101.8333,-291.2129 98,-287.3795 98,-283.5462 98,-283.5462 98,-275.8795 98,-275.8795 98,-272.0462 101.8333,-268.2129 105.6667,-268.2129 105.6667,-268.2129 149.3333,-268.2129 149.3333,-268.2129 153.1667,-268.2129 157,-272.0462 157,-275.8795 157,-275.8795 157,-283.5462 157,-283.5462 157,-287.3795 153.1667,-291.2129 149.3333,-291.2129"/>
<text text-anchor="middle" x="127.5" y="-276.0129" font-family="Arial" font-size="14.00" fill="#c6c5fe">view.js</text>
</g>
<!-- main.js&#45;&gt;view.js -->
<g id="edge29" class="edge">
<title>main.js&#45;&gt;view.js</title>
<path fill="none" stroke="#757575" d="M62.0644,-279.7129C70.212,-279.7129 79.1116,-279.7129 87.6492,-279.7129"/>
<polygon fill="#757575" stroke="#757575" points="87.8088,-283.213 97.8088,-279.7129 87.8087,-276.213 87.8088,-283.213"/>
</g>
<!-- view.js&#45;&gt;components/csv.js -->
<g id="edge35" class="edge">
<title>view.js&#45;&gt;components/csv.js</title>
<path fill="none" stroke="#757575" d="M127.6423,-291.4577C128.6227,-351.7092 136.1884,-625.4974 193,-682.7129 407.2791,-898.5154 832.8541,-791.6419 970.7557,-749.2898"/>
<polygon fill="#757575" stroke="#757575" points="972.0527,-752.5518 980.5604,-746.2375 969.972,-745.8682 972.0527,-752.5518"/>
</g>
<!-- view.js&#45;&gt;particle.js -->
<g id="edge43" class="edge">
<title>view.js&#45;&gt;particle.js</title>
<path fill="none" stroke="#757575" d="M128.9883,-267.9351C134.7418,-224.4302 157.0162,-73.8026 193,-44.7129 301.2089,42.7644 366.3546,-25.7129 505.5,-25.7129 505.5,-25.7129 505.5,-25.7129 1015,-25.7129 1200.6437,-25.7129 1297.1757,-300.1587 1321.3576,-380.1063"/>
<polygon fill="#757575" stroke="#757575" points="1318.104,-381.4472 1324.2913,-390.0476 1324.8177,-379.4659 1318.104,-381.4472"/>
</g>
<!-- view.js&#45;&gt;physics.js -->
<g id="edge44" class="edge">
<title>view.js&#45;&gt;physics.js</title>
<path fill="none" stroke="#757575" d="M131.7945,-291.2743C140.6021,-313.8645 162.4812,-364.6296 193,-398.7129 306.3062,-525.2527 335.6453,-618.7129 505.5,-618.7129 505.5,-618.7129 505.5,-618.7129 749.5,-618.7129 899.8713,-618.7129 1077.4537,-608.6059 1162.5654,-603.1349"/>
<polygon fill="#757575" stroke="#757575" points="1162.9717,-606.616 1172.724,-602.4756 1162.5182,-599.6307 1162.9717,-606.616"/>
</g>
<!-- view.js&#45;&gt;components/keyboard.js -->
<g id="edge36" class="edge">
<title>view.js&#45;&gt;components/keyboard.js</title>
<path fill="none" stroke="#757575" d="M128.0252,-268.0689C130.1429,-235.3189 140.7104,-141.5523 193,-91.7129 197.0361,-87.8659 201.6134,-84.5849 206.5086,-81.7869"/>
<polygon fill="#757575" stroke="#757575" points="208.2221,-84.8437 215.6149,-77.2544 205.1029,-78.577 208.2221,-84.8437"/>
</g>
<!-- view.js&#45;&gt;components/mouseHelper.js -->
<g id="edge37" class="edge">
<title>view.js&#45;&gt;components/mouseHelper.js</title>
<path fill="none" stroke="#757575" d="M130.6574,-267.9684C137.5736,-244.791 156.4417,-193.4479 193,-170.7129 262.2576,-127.6427 357.4731,-126.0775 424.5484,-132.1899"/>
<polygon fill="#757575" stroke="#757575" points="424.3528,-135.6876 434.6484,-133.1874 425.0408,-128.7215 424.3528,-135.6876"/>
</g>
<!-- view.js&#45;&gt;helpers.js -->
<g id="edge41" class="edge">
<title>view.js&#45;&gt;helpers.js</title>
<path fill="none" stroke="#757575" d="M140.9515,-268.0889C153.4731,-258.094 173.1425,-244.4153 193,-238.7129 268.1836,-217.1226 290.7858,-237.5912 369,-238.7129 585.9558,-241.8243 643.2725,-215.2954 857,-252.7129 899.7363,-260.1948 946.7297,-276.8048 978.264,-289.2518"/>
<polygon fill="#757575" stroke="#757575" points="977.35,-292.6562 987.9342,-293.13 979.9556,-286.1592 977.35,-292.6562"/>
</g>
<!-- view.js&#45;&gt;components/ruler.js -->
<g id="edge38" class="edge">
<title>view.js&#45;&gt;components/ruler.js</title>
<path fill="none" stroke="#757575" d="M147.3859,-291.3067C160.1327,-298.4159 177.1945,-307.3442 193,-313.7129 203.5142,-317.9495 214.9822,-321.8396 226.0615,-325.2486"/>
<polygon fill="#757575" stroke="#757575" points="225.0806,-328.6084 235.664,-328.1172 227.0842,-321.9013 225.0806,-328.6084"/>
</g>
<!-- view.js&#45;&gt;core.js -->
<g id="edge40" class="edge">
<title>view.js&#45;&gt;core.js</title>
<path fill="none" stroke="#757575" d="M133.5058,-291.5033C143.3164,-309.446 164.5718,-343.254 193,-359.7129 280.2896,-410.2504 402.8864,-415.0665 465.4087,-413.7329"/>
<polygon fill="#757575" stroke="#757575" points="465.7396,-417.2251 475.638,-413.4474 465.5442,-410.2278 465.7396,-417.2251"/>
</g>
<!-- view.js&#45;&gt;components/selectionHelper.js -->
<g id="edge39" class="edge">
<title>view.js&#45;&gt;components/selectionHelper.js</title>
<path fill="none" stroke="#757575" d="M127.8004,-291.213C129.5088,-346.7516 139.9088,-586.4285 193,-632.7129 339.9037,-760.782 600.3235,-703.3504 704.5473,-673.0927"/>
<polygon fill="#757575" stroke="#757575" points="705.5402,-676.449 714.1369,-670.2565 703.5548,-669.7364 705.5402,-676.449"/>
</g>
<!-- view.js&#45;&gt;scenarios.js -->
<g id="edge45" class="edge">
<title>view.js&#45;&gt;scenarios.js</title>
<path fill="none" stroke="#757575" d="M157.0819,-280.7116C254.0451,-283.9853 563.4129,-294.4302 692.293,-298.7815"/>
<polygon fill="#757575" stroke="#757575" points="692.2463,-302.2818 702.3587,-299.1213 692.4826,-295.2858 692.2463,-302.2818"/>
</g>
<!-- menu/info.js -->
<g id="node18" class="node">
<title>menu/info.js</title>
<path fill="none" stroke="#c6c5fe" d="M320.8333,-271.2129C320.8333,-271.2129 241.1667,-271.2129 241.1667,-271.2129 237.3333,-271.2129 233.5,-267.3795 233.5,-263.5462 233.5,-263.5462 233.5,-255.8795 233.5,-255.8795 233.5,-252.0462 237.3333,-248.2129 241.1667,-248.2129 241.1667,-248.2129 320.8333,-248.2129 320.8333,-248.2129 324.6667,-248.2129 328.5,-252.0462 328.5,-255.8795 328.5,-255.8795 328.5,-263.5462 328.5,-263.5462 328.5,-267.3795 324.6667,-271.2129 320.8333,-271.2129"/>
<text text-anchor="middle" x="281" y="-256.0129" font-family="Arial" font-size="14.00" fill="#c6c5fe">menu/info.js</text>
</g>
<!-- view.js&#45;&gt;menu/info.js -->
<g id="edge42" class="edge">
<title>view.js&#45;&gt;menu/info.js</title>
<path fill="none" stroke="#757575" d="M157.0963,-275.8567C175.8325,-273.4155 200.6899,-270.1767 223.2203,-267.2412"/>
<polygon fill="#757575" stroke="#757575" points="223.914,-270.6805 233.378,-265.9177 223.0096,-263.7391 223.914,-270.6805"/>
</g>
<!-- scenariosHelpers.js -->
<g id="node19" class="node">
<title>scenariosHelpers.js</title>
<path fill="none" stroke="#c6c5fe" d="M813.8333,-118.2129C813.8333,-118.2129 685.1667,-118.2129 685.1667,-118.2129 681.3333,-118.2129 677.5,-114.3795 677.5,-110.5462 677.5,-110.5462 677.5,-102.8795 677.5,-102.8795 677.5,-99.0462 681.3333,-95.2129 685.1667,-95.2129 685.1667,-95.2129 813.8333,-95.2129 813.8333,-95.2129 817.6667,-95.2129 821.5,-99.0462 821.5,-102.8795 821.5,-102.8795 821.5,-110.5462 821.5,-110.5462 821.5,-114.3795 817.6667,-118.2129 813.8333,-118.2129"/>
<text text-anchor="middle" x="749.5" y="-103.0129" font-family="Arial" font-size="14.00" fill="#c6c5fe">scenariosHelpers.js</text>
</g>
<!-- view.js&#45;&gt;scenariosHelpers.js -->
<g id="edge46" class="edge">
<title>view.js&#45;&gt;scenariosHelpers.js</title>
<path fill="none" stroke="#757575" d="M128.4156,-267.8245C131.4305,-237.8923 143.8893,-159.4116 193,-125.7129 267.6758,-74.4719 531.1516,-88.0603 667.0555,-99.0289"/>
<polygon fill="#757575" stroke="#757575" points="667.1589,-102.5491 677.4119,-99.8797 667.7321,-95.5726 667.1589,-102.5491"/>
</g>
<!-- menu/info.js&#45;&gt;helpers.js -->
<g id="edge31" class="edge">
<title>menu/info.js&#45;&gt;helpers.js</title>
<path fill="none" stroke="#757575" d="M328.6215,-257.5332C427.4827,-253.6868 662.0226,-248.0871 857,-270.7129 893.6847,-274.9699 934.4134,-283.8372 965.3303,-291.4487"/>
<polygon fill="#757575" stroke="#757575" points="964.8684,-294.941 975.419,-293.9734 966.5678,-288.1504 964.8684,-294.941"/>
</g>
<!-- menu/info.js&#45;&gt;core.js -->
<g id="edge30" class="edge">
<title>menu/info.js&#45;&gt;core.js</title>
<path fill="none" stroke="#757575" d="M298.5571,-271.4284C316.3376,-283.3061 344.6168,-302.233 369,-318.7129 407.6345,-344.8249 452.2649,-375.2893 479.6843,-394.0402"/>
<polygon fill="#757575" stroke="#757575" points="478.06,-397.1696 488.2898,-399.9269 482.0123,-391.3921 478.06,-397.1696"/>
</g>
<!-- scenariosHelpers.js&#45;&gt;particle.js -->
<g id="edge34" class="edge">
<title>scenariosHelpers.js&#45;&gt;particle.js</title>
<path fill="none" stroke="#757575" d="M808.1621,-118.2585C908.12,-140.275 1114.102,-196.0508 1253,-304.7129 1280.3886,-326.1394 1303.2232,-359.8476 1316.1221,-381.3557"/>
<polygon fill="#757575" stroke="#757575" points="1313.1163,-383.1491 1321.1783,-390.0233 1319.1627,-379.6219 1313.1163,-383.1491"/>
</g>
<!-- scenariosHelpers.js&#45;&gt;helpers.js -->
<g id="edge33" class="edge">
<title>scenariosHelpers.js&#45;&gt;helpers.js</title>
<path fill="none" stroke="#757575" d="M821.5543,-115.2733C834.2362,-119.158 846.6654,-124.733 857,-132.7129 883.7562,-153.3726 871.8337,-173.3556 893,-199.7129 921.4541,-235.1453 962.9868,-267.9311 989.501,-287.1354"/>
<polygon fill="#757575" stroke="#757575" points="987.7033,-290.1523 997.8765,-293.1117 991.7692,-284.4542 987.7033,-290.1523"/>
</g>
</g>
</svg>
