<?xml version="1.0" encoding="UTF-8" standalone="no"?>
<!DOCTYPE svg PUBLIC "-//W3C//DTD SVG 1.1//EN"
 "http://www.w3.org/Graphics/SVG/1.1/DTD/svg11.dtd">
<!-- Generated by graphviz version 2.43.0 (0)
 -->
<!-- Title: G Pages: 1 -->
<svg width="1577pt" height="1053pt"
 viewBox="0.00 0.00 1577.20 1053.21" xmlns="http://www.w3.org/2000/svg" xmlns:xlink="http://www.w3.org/1999/xlink">
<g id="graph0" class="graph" transform="scale(1 1) rotate(0) translate(21.6 1031.61)">
<title>G</title>
<polygon fill="#111111" stroke="transparent" points="-21.6,21.6 -21.6,-1031.61 1555.6,-1031.61 1555.6,21.6 -21.6,21.6"/>
<!-- components/keyboard.js -->
<g id="node1" class="node">
<title>components/keyboard.js</title>
<path fill="none" stroke="#cfffac" d="M421.33,-790C421.33,-790 272.67,-790 272.67,-790 268.83,-790 265,-786.17 265,-782.33 265,-782.33 265,-774.67 265,-774.67 265,-770.83 268.83,-767 272.67,-767 272.67,-767 421.33,-767 421.33,-767 425.17,-767 429,-770.83 429,-774.67 429,-774.67 429,-782.33 429,-782.33 429,-786.17 425.17,-790 421.33,-790"/>
<text text-anchor="middle" x="347" y="-774.8" font-family="Arial" font-size="14.00" fill="#cfffac">components/keyboard.js</text>
</g>
<!-- components/mouse.js -->
<g id="node2" class="node">
<title>components/mouse.js</title>
<path fill="none" stroke="#c6c5fe" d="M861.33,-982C861.33,-982 727.67,-982 727.67,-982 723.83,-982 720,-978.17 720,-974.33 720,-974.33 720,-966.67 720,-966.67 720,-962.83 723.83,-959 727.67,-959 727.67,-959 861.33,-959 861.33,-959 865.17,-959 869,-962.83 869,-966.67 869,-966.67 869,-974.33 869,-974.33 869,-978.17 865.17,-982 861.33,-982"/>
<text text-anchor="middle" x="794.5" y="-966.8" font-family="Arial" font-size="14.00" fill="#c6c5fe">components/mouse.js</text>
</g>
<!-- helpers.js -->
<g id="node3" class="node">
<title>helpers.js</title>
<path fill="none" stroke="#c6c5fe" d="M1228.83,-633C1228.83,-633 1170.17,-633 1170.17,-633 1166.33,-633 1162.5,-629.17 1162.5,-625.33 1162.5,-625.33 1162.5,-617.67 1162.5,-617.67 1162.5,-613.83 1166.33,-610 1170.17,-610 1170.17,-610 1228.83,-610 1228.83,-610 1232.67,-610 1236.5,-613.83 1236.5,-617.67 1236.5,-617.67 1236.5,-625.33 1236.5,-625.33 1236.5,-629.17 1232.67,-633 1228.83,-633"/>
<text text-anchor="middle" x="1199.5" y="-617.8" font-family="Arial" font-size="14.00" fill="#c6c5fe">helpers.js</text>
</g>
<!-- components/mouse.js&#45;&gt;helpers.js -->
<g id="edge1" class="edge">
<title>components/mouse.js&#45;&gt;helpers.js</title>
<path fill="none" stroke="#757575" d="M815.54,-958.83C860.16,-932.37 970.06,-864.48 1050,-792.5 1104.72,-743.23 1158.85,-674.54 1183.97,-641.21"/>
<polygon fill="#757575" stroke="#757575" points="1186.8,-643.26 1189.99,-633.16 1181.2,-639.07 1186.8,-643.26"/>
</g>
<!-- particle.js -->
<g id="node7" class="node">
<title>particle.js</title>
<path fill="none" stroke="#cfffac" d="M1526.33,-555C1526.33,-555 1467.67,-555 1467.67,-555 1463.83,-555 1460,-551.17 1460,-547.33 1460,-547.33 1460,-539.67 1460,-539.67 1460,-535.83 1463.83,-532 1467.67,-532 1467.67,-532 1526.33,-532 1526.33,-532 1530.17,-532 1534,-535.83 1534,-539.67 1534,-539.67 1534,-547.33 1534,-547.33 1534,-551.17 1530.17,-555 1526.33,-555"/>
<text text-anchor="middle" x="1497" y="-539.8" font-family="Arial" font-size="14.00" fill="#cfffac">particle.js</text>
</g>
<!-- helpers.js&#45;&gt;particle.js -->
<g id="edge47" class="edge">
<title>helpers.js&#45;&gt;particle.js</title>
<path fill="none" stroke="#757575" d="M1236.67,-622.8C1282.01,-623.21 1361.37,-619.84 1424,-595.5 1443.52,-587.91 1462.59,-573.74 1476.2,-562.11"/>
<polygon fill="#757575" stroke="#757575" points="1478.75,-564.52 1483.92,-555.27 1474.11,-559.28 1478.75,-564.52"/>
</g>
<!-- components/ruler.js -->
<g id="node4" class="node">
<title>components/ruler.js</title>
<path fill="none" stroke="#c6c5fe" d="M628.33,-632C628.33,-632 509.67,-632 509.67,-632 505.83,-632 502,-628.17 502,-624.33 502,-624.33 502,-616.67 502,-616.67 502,-612.83 505.83,-609 509.67,-609 509.67,-609 628.33,-609 628.33,-609 632.17,-609 636,-612.83 636,-616.67 636,-616.67 636,-624.33 636,-624.33 636,-628.17 632.17,-632 628.33,-632"/>
<text text-anchor="middle" x="569" y="-616.8" font-family="Arial" font-size="14.00" fill="#c6c5fe">components/ruler.js</text>
</g>
<!-- components/ruler.js&#45;&gt;helpers.js -->
<g id="edge3" class="edge">
<title>components/ruler.js&#45;&gt;helpers.js</title>
<path fill="none" stroke="#757575" d="M636.25,-632C659.21,-635.46 685.17,-638.79 709,-640.5 860.17,-651.32 898.75,-650.14 1050,-640.5 1084.46,-638.3 1123.14,-633.27 1152.38,-628.94"/>
<polygon fill="#757575" stroke="#757575" points="1152.95,-632.39 1162.31,-627.44 1151.9,-625.47 1152.95,-632.39"/>
</g>
<!-- core.js -->
<g id="node5" class="node">
<title>core.js</title>
<path fill="none" stroke="#c6c5fe" d="M814.83,-479C814.83,-479 774.17,-479 774.17,-479 770.33,-479 766.5,-475.17 766.5,-471.33 766.5,-471.33 766.5,-463.67 766.5,-463.67 766.5,-459.83 770.33,-456 774.17,-456 774.17,-456 814.83,-456 814.83,-456 818.67,-456 822.5,-459.83 822.5,-463.67 822.5,-463.67 822.5,-471.33 822.5,-471.33 822.5,-475.17 818.67,-479 814.83,-479"/>
<text text-anchor="middle" x="794.5" y="-463.8" font-family="Arial" font-size="14.00" fill="#c6c5fe">core.js</text>
</g>
<!-- components/ruler.js&#45;&gt;core.js -->
<g id="edge2" class="edge">
<title>components/ruler.js&#45;&gt;core.js</title>
<path fill="none" stroke="#757575" d="M636.25,-614.15C648.98,-611.15 661.81,-606.81 673,-600.5 722.23,-572.75 762.19,-517.56 781.3,-487.74"/>
<polygon fill="#757575" stroke="#757575" points="784.42,-489.35 786.76,-479.02 778.49,-485.64 784.42,-489.35"/>
</g>
<!-- core.js&#45;&gt;helpers.js -->
<g id="edge12" class="edge">
<title>core.js&#45;&gt;helpers.js</title>
<path fill="none" stroke="#757575" d="M805.41,-479.21C824.44,-500.86 868.44,-546.98 916,-569.5 993.44,-606.17 1094.17,-617.04 1152.06,-620.22"/>
<polygon fill="#757575" stroke="#757575" points="1152.19,-623.74 1162.35,-620.73 1152.54,-616.74 1152.19,-623.74"/>
</g>
<!-- core.js&#45;&gt;particle.js -->
<g id="edge13" class="edge">
<title>core.js&#45;&gt;particle.js</title>
<path fill="none" stroke="#757575" d="M822.66,-469.22C869.23,-472.26 967.33,-479.07 1050,-487.5 1196.18,-502.41 1368.61,-525.68 1449.59,-536.95"/>
<polygon fill="#757575" stroke="#757575" points="1449.55,-540.48 1459.93,-538.39 1450.51,-533.55 1449.55,-540.48"/>
</g>
<!-- physics.js -->
<g id="node8" class="node">
<title>physics.js</title>
<path fill="none" stroke="#c6c5fe" d="M1416.33,-418C1416.33,-418 1356.67,-418 1356.67,-418 1352.83,-418 1349,-414.17 1349,-410.33 1349,-410.33 1349,-402.67 1349,-402.67 1349,-398.83 1352.83,-395 1356.67,-395 1356.67,-395 1416.33,-395 1416.33,-395 1420.17,-395 1424,-398.83 1424,-402.67 1424,-402.67 1424,-410.33 1424,-410.33 1424,-414.17 1420.17,-418 1416.33,-418"/>
<text text-anchor="middle" x="1386.5" y="-402.8" font-family="Arial" font-size="14.00" fill="#c6c5fe">physics.js</text>
</g>
<!-- core.js&#45;&gt;physics.js -->
<g id="edge14" class="edge">
<title>core.js&#45;&gt;physics.js</title>
<path fill="none" stroke="#757575" d="M807.26,-455.92C827.5,-436.8 871.1,-399.1 916,-382.5 1081.63,-321.27 1141.99,-322.46 1313,-366.5 1330.31,-370.96 1347.9,-380.52 1361.42,-389.17"/>
<polygon fill="#757575" stroke="#757575" points="1359.82,-392.31 1370.08,-394.95 1363.7,-386.49 1359.82,-392.31"/>
</g>
<!-- gpu/field.js -->
<g id="node9" class="node">
<title>gpu/field.js</title>
<path fill="none" stroke="#c6c5fe" d="M1015.83,-560C1015.83,-560 950.17,-560 950.17,-560 946.33,-560 942.5,-556.17 942.5,-552.33 942.5,-552.33 942.5,-544.67 942.5,-544.67 942.5,-540.83 946.33,-537 950.17,-537 950.17,-537 1015.83,-537 1015.83,-537 1019.67,-537 1023.5,-540.83 1023.5,-544.67 1023.5,-544.67 1023.5,-552.33 1023.5,-552.33 1023.5,-556.17 1019.67,-560 1015.83,-560"/>
<text text-anchor="middle" x="983" y="-544.8" font-family="Arial" font-size="14.00" fill="#c6c5fe">gpu/field.js</text>
</g>
<!-- core.js&#45;&gt;gpu/field.js -->
<g id="edge8" class="edge">
<title>core.js&#45;&gt;gpu/field.js</title>
<path fill="none" stroke="#757575" d="M815.89,-479.21C839.45,-492.41 879.66,-513.92 916,-528.5 921.21,-530.59 926.72,-532.58 932.26,-534.45"/>
<polygon fill="#757575" stroke="#757575" points="931.58,-537.91 942.17,-537.66 933.74,-531.25 931.58,-537.91"/>
</g>
<!-- gpu/graphics.js -->
<g id="node10" class="node">
<title>gpu/graphics.js</title>
<path fill="none" stroke="#c6c5fe" d="M1028.83,-439C1028.83,-439 937.17,-439 937.17,-439 933.33,-439 929.5,-435.17 929.5,-431.33 929.5,-431.33 929.5,-423.67 929.5,-423.67 929.5,-419.83 933.33,-416 937.17,-416 937.17,-416 1028.83,-416 1028.83,-416 1032.67,-416 1036.5,-419.83 1036.5,-423.67 1036.5,-423.67 1036.5,-431.33 1036.5,-431.33 1036.5,-435.17 1032.67,-439 1028.83,-439"/>
<text text-anchor="middle" x="983" y="-423.8" font-family="Arial" font-size="14.00" fill="#c6c5fe">gpu/graphics.js</text>
</g>
<!-- core.js&#45;&gt;gpu/graphics.js -->
<g id="edge9" class="edge">
<title>core.js&#45;&gt;gpu/graphics.js</title>
<path fill="none" stroke="#757575" d="M822.62,-461.68C847.89,-456.26 886.51,-447.98 919.4,-440.93"/>
<polygon fill="#757575" stroke="#757575" points="920.36,-444.3 929.4,-438.78 918.89,-437.46 920.36,-444.3"/>
</g>
<!-- gpu/shaders/computeShader.glsl.js -->
<g id="node11" class="node">
<title>gpu/shaders/computeShader.glsl.js</title>
<path fill="none" stroke="#c6c5fe" d="M1305.33,-398C1305.33,-398 1093.67,-398 1093.67,-398 1089.83,-398 1086,-394.17 1086,-390.33 1086,-390.33 1086,-382.67 1086,-382.67 1086,-378.83 1089.83,-375 1093.67,-375 1093.67,-375 1305.33,-375 1305.33,-375 1309.17,-375 1313,-378.83 1313,-382.67 1313,-382.67 1313,-390.33 1313,-390.33 1313,-394.17 1309.17,-398 1305.33,-398"/>
<text text-anchor="middle" x="1199.5" y="-382.8" font-family="Arial" font-size="14.00" fill="#c6c5fe">gpu/shaders/computeShader.glsl.js</text>
</g>
<!-- core.js&#45;&gt;gpu/shaders/computeShader.glsl.js -->
<g id="edge10" class="edge">
<title>core.js&#45;&gt;gpu/shaders/computeShader.glsl.js</title>
<path fill="none" stroke="#757575" d="M813.39,-455.8C836.17,-441.57 877.24,-418.15 916,-407.5 967.13,-393.45 1025.31,-387.51 1075.52,-385.34"/>
<polygon fill="#757575" stroke="#757575" points="1075.92,-388.83 1085.78,-384.95 1075.65,-381.84 1075.92,-388.83"/>
</g>
<!-- gpu/simulation.js -->
<g id="node12" class="node">
<title>gpu/simulation.js</title>
<path fill="none" stroke="#c6c5fe" d="M1034.33,-519C1034.33,-519 931.67,-519 931.67,-519 927.83,-519 924,-515.17 924,-511.33 924,-511.33 924,-503.67 924,-503.67 924,-499.83 927.83,-496 931.67,-496 931.67,-496 1034.33,-496 1034.33,-496 1038.17,-496 1042,-499.83 1042,-503.67 1042,-503.67 1042,-511.33 1042,-511.33 1042,-515.17 1038.17,-519 1034.33,-519"/>
<text text-anchor="middle" x="983" y="-503.8" font-family="Arial" font-size="14.00" fill="#c6c5fe">gpu/simulation.js</text>
</g>
<!-- core.js&#45;&gt;gpu/simulation.js -->
<g id="edge11" class="edge">
<title>core.js&#45;&gt;gpu/simulation.js</title>
<path fill="none" stroke="#757575" d="M822.62,-473.32C847.61,-478.68 885.67,-486.84 918.32,-493.84"/>
<polygon fill="#757575" stroke="#757575" points="917.75,-497.3 928.26,-495.97 919.22,-490.46 917.75,-497.3"/>
</g>
<!-- scenarios.js -->
<g id="node13" class="node">
<title>scenarios.js</title>
<path fill="none" stroke="#cfffac" d="M1019.33,-321C1019.33,-321 946.67,-321 946.67,-321 942.83,-321 939,-317.17 939,-313.33 939,-313.33 939,-305.67 939,-305.67 939,-301.83 942.83,-298 946.67,-298 946.67,-298 1019.33,-298 1019.33,-298 1023.17,-298 1027,-301.83 1027,-305.67 1027,-305.67 1027,-313.33 1027,-313.33 1027,-317.17 1023.17,-321 1019.33,-321"/>
<text text-anchor="middle" x="983" y="-305.8" font-family="Arial" font-size="14.00" fill="#cfffac">scenarios.js</text>
</g>
<!-- core.js&#45;&gt;scenarios.js -->
<g id="edge15" class="edge">
<title>core.js&#45;&gt;scenarios.js</title>
<path fill="none" stroke="#757575" d="M807.63,-455.74C824.39,-439.34 855.35,-408.45 880,-380.5 896.94,-361.29 895.39,-350.71 916,-335.5 921.39,-331.52 927.48,-328.06 933.71,-325.07"/>
<polygon fill="#757575" stroke="#757575" points="935.15,-328.26 942.89,-321.04 932.33,-321.86 935.15,-328.26"/>
</g>
<!-- components/selection.js -->
<g id="node6" class="node">
<title>components/selection.js</title>
<path fill="none" stroke="#c6c5fe" d="M641.83,-750C641.83,-750 496.17,-750 496.17,-750 492.33,-750 488.5,-746.17 488.5,-742.33 488.5,-742.33 488.5,-734.67 488.5,-734.67 488.5,-730.83 492.33,-727 496.17,-727 496.17,-727 641.83,-727 641.83,-727 645.67,-727 649.5,-730.83 649.5,-734.67 649.5,-734.67 649.5,-742.33 649.5,-742.33 649.5,-746.17 645.67,-750 641.83,-750"/>
<text text-anchor="middle" x="569" y="-734.8" font-family="Arial" font-size="14.00" fill="#c6c5fe">components/selection.js</text>
</g>
<!-- components/selection.js&#45;&gt;helpers.js -->
<g id="edge5" class="edge">
<title>components/selection.js&#45;&gt;helpers.js</title>
<path fill="none" stroke="#757575" d="M649.92,-747.22C747.02,-755.02 914.64,-759.48 1050,-716.5 1100.76,-700.38 1151.12,-662.29 1178.18,-639.54"/>
<polygon fill="#757575" stroke="#757575" points="1180.48,-642.17 1185.8,-633.01 1175.93,-636.85 1180.48,-642.17"/>
</g>
<!-- components/selection.js&#45;&gt;core.js -->
<g id="edge4" class="edge">
<title>components/selection.js&#45;&gt;core.js</title>
<path fill="none" stroke="#757575" d="M647.25,-726.98C656.54,-723.37 665.4,-718.65 673,-712.5 746.66,-652.88 778.76,-536.95 789.29,-489.03"/>
<polygon fill="#757575" stroke="#757575" points="792.74,-489.64 791.37,-479.13 785.89,-488.2 792.74,-489.64"/>
</g>
<!-- components/selection.js&#45;&gt;particle.js -->
<g id="edge6" class="edge">
<title>components/selection.js&#45;&gt;particle.js</title>
<path fill="none" stroke="#757575" d="M594.42,-750.13C621.65,-762.42 667.35,-781.03 709,-788.5 858.18,-815.26 899.9,-811.48 1050,-790.5 1170.38,-773.67 1206.21,-773.56 1313,-715.5 1370.56,-684.21 1376.6,-663.73 1424,-618.5 1443.24,-600.14 1464.18,-578.08 1478.49,-562.65"/>
<polygon fill="#757575" stroke="#757575" points="1481.12,-564.96 1485.33,-555.24 1475.97,-560.22 1481.12,-564.96"/>
</g>
<!-- components/selection.js&#45;&gt;physics.js -->
<g id="edge7" class="edge">
<title>components/selection.js&#45;&gt;physics.js</title>
<path fill="none" stroke="#757575" d="M617.18,-750.07C749.66,-779.44 1127.49,-841.2 1313,-642.5 1370.71,-580.69 1382.53,-473.99 1384.91,-428.3"/>
<polygon fill="#757575" stroke="#757575" points="1388.42,-428.2 1385.34,-418.06 1381.43,-427.9 1388.42,-428.2"/>
</g>
<!-- physics.js&#45;&gt;particle.js -->
<g id="edge50" class="edge">
<title>physics.js&#45;&gt;particle.js</title>
<path fill="none" stroke="#757575" d="M1396.75,-418.18C1415.33,-441.64 1457.35,-494.7 1480.31,-523.69"/>
<polygon fill="#757575" stroke="#757575" points="1477.82,-526.18 1486.77,-531.85 1483.31,-521.84 1477.82,-526.18"/>
</g>
<!-- gpu/field.js&#45;&gt;helpers.js -->
<g id="edge16" class="edge">
<title>gpu/field.js&#45;&gt;helpers.js</title>
<path fill="none" stroke="#757575" d="M1016.32,-560.1C1027.17,-564.29 1039.25,-569.29 1050,-574.5 1066.67,-582.58 1068.78,-588.67 1086,-595.5 1107.22,-603.92 1131.82,-609.99 1152.59,-614.14"/>
<polygon fill="#757575" stroke="#757575" points="1151.97,-617.58 1162.45,-616.02 1153.29,-610.71 1151.97,-617.58"/>
</g>
<!-- gpu/field.js&#45;&gt;particle.js -->
<g id="edge17" class="edge">
<title>gpu/field.js&#45;&gt;particle.js</title>
<path fill="none" stroke="#757575" d="M1023.75,-548.11C1117.13,-547.2 1350.09,-544.92 1449.67,-543.95"/>
<polygon fill="#757575" stroke="#757575" points="1449.77,-547.45 1459.73,-543.85 1449.7,-540.45 1449.77,-547.45"/>
</g>
<!-- gpu/graphics.js&#45;&gt;helpers.js -->
<g id="edge20" class="edge">
<title>gpu/graphics.js&#45;&gt;helpers.js</title>
<path fill="none" stroke="#757575" d="M996.78,-439.05C1032.61,-471.46 1134.28,-563.42 1178.05,-603.01"/>
<polygon fill="#757575" stroke="#757575" points="1175.76,-605.65 1185.52,-609.76 1180.45,-600.46 1175.76,-605.65"/>
</g>
<!-- gpu/graphics.js&#45;&gt;particle.js -->
<g id="edge21" class="edge">
<title>gpu/graphics.js&#45;&gt;particle.js</title>
<path fill="none" stroke="#757575" d="M1036.01,-439.01C1052,-442.33 1069.68,-445.79 1086,-448.5 1235.38,-473.34 1283.15,-435.89 1424,-491.5 1443.48,-499.19 1462.55,-513.36 1476.17,-524.96"/>
<polygon fill="#757575" stroke="#757575" points="1474.08,-527.79 1483.9,-531.78 1478.71,-522.54 1474.08,-527.79"/>
</g>
<!-- gpu/graphics.js&#45;&gt;gpu/shaders/computeShader.glsl.js -->
<g id="edge18" class="edge">
<title>gpu/graphics.js&#45;&gt;gpu/shaders/computeShader.glsl.js</title>
<path fill="none" stroke="#757575" d="M1036.66,-417.08C1052.51,-413.97 1069.96,-410.57 1086,-407.5 1098.98,-405.02 1112.82,-402.4 1126.19,-399.9"/>
<polygon fill="#757575" stroke="#757575" points="1127.11,-403.29 1136.29,-398.01 1125.82,-396.41 1127.11,-403.29"/>
</g>
<!-- gpu/shaders/particleShader.glsl.js -->
<g id="node14" class="node">
<title>gpu/shaders/particleShader.glsl.js</title>
<path fill="none" stroke="#cfffac" d="M1300.83,-439C1300.83,-439 1098.17,-439 1098.17,-439 1094.33,-439 1090.5,-435.17 1090.5,-431.33 1090.5,-431.33 1090.5,-423.67 1090.5,-423.67 1090.5,-419.83 1094.33,-416 1098.17,-416 1098.17,-416 1300.83,-416 1300.83,-416 1304.67,-416 1308.5,-419.83 1308.5,-423.67 1308.5,-423.67 1308.5,-431.33 1308.5,-431.33 1308.5,-435.17 1304.67,-439 1300.83,-439"/>
<text text-anchor="middle" x="1199.5" y="-423.8" font-family="Arial" font-size="14.00" fill="#cfffac">gpu/shaders/particleShader.glsl.js</text>
</g>
<!-- gpu/graphics.js&#45;&gt;gpu/shaders/particleShader.glsl.js -->
<g id="edge19" class="edge">
<title>gpu/graphics.js&#45;&gt;gpu/shaders/particleShader.glsl.js</title>
<path fill="none" stroke="#757575" d="M1036.75,-427.5C1049.95,-427.5 1064.65,-427.5 1079.66,-427.5"/>
<polygon fill="#757575" stroke="#757575" points="1080.09,-431 1090.09,-427.5 1080.09,-424 1080.09,-431"/>
</g>
<!-- gpu/shaders/computeShader.glsl.js&#45;&gt;physics.js -->
<g id="edge22" class="edge">
<title>gpu/shaders/computeShader.glsl.js&#45;&gt;physics.js</title>
<path fill="none" stroke="#757575" d="M1307.04,-398.02C1318.01,-399.2 1328.72,-400.36 1338.51,-401.42"/>
<polygon fill="#757575" stroke="#757575" points="1338.43,-404.93 1348.75,-402.53 1339.19,-397.97 1338.43,-404.93"/>
</g>
<!-- gpu/simulation.js&#45;&gt;helpers.js -->
<g id="edge23" class="edge">
<title>gpu/simulation.js&#45;&gt;helpers.js</title>
<path fill="none" stroke="#757575" d="M1028.25,-519.07C1035.71,-521.72 1043.22,-524.86 1050,-528.5 1068.1,-538.23 1069.02,-545.94 1086,-557.5 1112.12,-575.28 1143.49,-592.84 1166.46,-605.05"/>
<polygon fill="#757575" stroke="#757575" points="1164.96,-608.22 1175.44,-609.79 1168.23,-602.03 1164.96,-608.22"/>
</g>
<!-- gpu/simulation.js&#45;&gt;physics.js -->
<g id="edge24" class="edge">
<title>gpu/simulation.js&#45;&gt;physics.js</title>
<path fill="none" stroke="#757575" d="M1042.05,-503.21C1109.05,-496.88 1221.74,-481.94 1313,-448.5 1329.76,-442.36 1347.1,-432.46 1360.63,-423.81"/>
<polygon fill="#757575" stroke="#757575" points="1362.9,-426.51 1369.32,-418.09 1359.05,-420.66 1362.9,-426.51"/>
</g>
<!-- gui/advanced.js -->
<g id="node15" class="node">
<title>gui/advanced.js</title>
<path fill="none" stroke="#c6c5fe" d="M616.33,-591C616.33,-591 521.67,-591 521.67,-591 517.83,-591 514,-587.17 514,-583.33 514,-583.33 514,-575.67 514,-575.67 514,-571.83 517.83,-568 521.67,-568 521.67,-568 616.33,-568 616.33,-568 620.17,-568 624,-571.83 624,-575.67 624,-575.67 624,-583.33 624,-583.33 624,-587.17 620.17,-591 616.33,-591"/>
<text text-anchor="middle" x="569" y="-575.8" font-family="Arial" font-size="14.00" fill="#c6c5fe">gui/advanced.js</text>
</g>
<!-- gui/advanced.js&#45;&gt;helpers.js -->
<g id="edge26" class="edge">
<title>gui/advanced.js&#45;&gt;helpers.js</title>
<path fill="none" stroke="#757575" d="M624.13,-583.12C745.69,-591.24 1038.58,-610.81 1152.28,-618.41"/>
<polygon fill="#757575" stroke="#757575" points="1152.19,-621.91 1162.4,-619.09 1152.65,-614.93 1152.19,-621.91"/>
</g>
<!-- gui/advanced.js&#45;&gt;core.js -->
<g id="edge25" class="edge">
<title>gui/advanced.js&#45;&gt;core.js</title>
<path fill="none" stroke="#757575" d="M624.23,-569.81C640.35,-565.87 657.77,-560.55 673,-553.5 711.43,-535.71 750.31,-505.19 773.14,-485.7"/>
<polygon fill="#757575" stroke="#757575" points="775.53,-488.26 780.79,-479.07 770.94,-482.97 775.53,-488.26"/>
</g>
<!-- gui/controls.js -->
<g id="node16" class="node">
<title>gui/controls.js</title>
<path fill="none" stroke="#c6c5fe" d="M610.83,-434C610.83,-434 527.17,-434 527.17,-434 523.33,-434 519.5,-430.17 519.5,-426.33 519.5,-426.33 519.5,-418.67 519.5,-418.67 519.5,-414.83 523.33,-411 527.17,-411 527.17,-411 610.83,-411 610.83,-411 614.67,-411 618.5,-414.83 618.5,-418.67 618.5,-418.67 618.5,-426.33 618.5,-426.33 618.5,-430.17 614.67,-434 610.83,-434"/>
<text text-anchor="middle" x="569" y="-418.8" font-family="Arial" font-size="14.00" fill="#c6c5fe">gui/controls.js</text>
</g>
<!-- gui/controls.js&#45;&gt;helpers.js -->
<g id="edge28" class="edge">
<title>gui/controls.js&#45;&gt;helpers.js</title>
<path fill="none" stroke="#757575" d="M618.52,-421.58C636.99,-419.17 657.34,-413.8 673,-402.5 699.46,-383.4 682.93,-358.13 709,-338.5 770.16,-292.45 990.19,-241.72 1050,-289.5 1106.61,-334.72 1057.81,-381.75 1086,-448.5 1111.48,-508.84 1157.94,-571.22 1182.42,-601.96"/>
<polygon fill="#757575" stroke="#757575" points="1179.71,-604.17 1188.71,-609.76 1185.16,-599.78 1179.71,-604.17"/>
</g>
<!-- gui/controls.js&#45;&gt;core.js -->
<g id="edge27" class="edge">
<title>gui/controls.js&#45;&gt;core.js</title>
<path fill="none" stroke="#757575" d="M618.77,-432.32C660.1,-440.64 718.49,-452.4 756.17,-459.98"/>
<polygon fill="#757575" stroke="#757575" points="755.73,-463.46 766.22,-462.01 757.11,-456.6 755.73,-463.46"/>
</g>
<!-- gui/controls.js&#45;&gt;scenarios.js -->
<g id="edge29" class="edge">
<title>gui/controls.js&#45;&gt;scenarios.js</title>
<path fill="none" stroke="#757575" d="M618.69,-414.09C635.93,-410.83 655.4,-406.84 673,-402.5 768.37,-378.95 878.07,-344.03 937.72,-324.36"/>
<polygon fill="#757575" stroke="#757575" points="939.16,-327.57 947.56,-321.11 936.97,-320.93 939.16,-327.57"/>
</g>
<!-- gui/dat.gui.js -->
<g id="node17" class="node">
<title>gui/dat.gui.js</title>
<path fill="none" stroke="#cfffac" d="M385.33,-872C385.33,-872 308.67,-872 308.67,-872 304.83,-872 301,-868.17 301,-864.33 301,-864.33 301,-856.67 301,-856.67 301,-852.83 304.83,-849 308.67,-849 308.67,-849 385.33,-849 385.33,-849 389.17,-849 393,-852.83 393,-856.67 393,-856.67 393,-864.33 393,-864.33 393,-868.17 389.17,-872 385.33,-872"/>
<text text-anchor="middle" x="347" y="-856.8" font-family="Arial" font-size="14.00" fill="#cfffac">gui/dat.gui.js</text>
</g>
<!-- gui/field.js -->
<g id="node18" class="node">
<title>gui/field.js</title>
<path fill="none" stroke="#c6c5fe" d="M377.83,-474C377.83,-474 316.17,-474 316.17,-474 312.33,-474 308.5,-470.17 308.5,-466.33 308.5,-466.33 308.5,-458.67 308.5,-458.67 308.5,-454.83 312.33,-451 316.17,-451 316.17,-451 377.83,-451 377.83,-451 381.67,-451 385.5,-454.83 385.5,-458.67 385.5,-458.67 385.5,-466.33 385.5,-466.33 385.5,-470.17 381.67,-474 377.83,-474"/>
<text text-anchor="middle" x="347" y="-458.8" font-family="Arial" font-size="14.00" fill="#c6c5fe">gui/field.js</text>
</g>
<!-- gui/field.js&#45;&gt;core.js -->
<g id="edge30" class="edge">
<title>gui/field.js&#45;&gt;core.js</title>
<path fill="none" stroke="#757575" d="M385.6,-462.92C469.79,-463.87 672.62,-466.14 756.37,-467.08"/>
<polygon fill="#757575" stroke="#757575" points="756.4,-470.58 766.44,-467.2 756.48,-463.58 756.4,-470.58"/>
</g>
<!-- gui/generator.js -->
<g id="node19" class="node">
<title>gui/generator.js</title>
<path fill="none" stroke="#c6c5fe" d="M393.83,-749C393.83,-749 300.17,-749 300.17,-749 296.33,-749 292.5,-745.17 292.5,-741.33 292.5,-741.33 292.5,-733.67 292.5,-733.67 292.5,-729.83 296.33,-726 300.17,-726 300.17,-726 393.83,-726 393.83,-726 397.67,-726 401.5,-729.83 401.5,-733.67 401.5,-733.67 401.5,-741.33 401.5,-741.33 401.5,-745.17 397.67,-749 393.83,-749"/>
<text text-anchor="middle" x="347" y="-733.8" font-family="Arial" font-size="14.00" fill="#c6c5fe">gui/generator.js</text>
</g>
<!-- gui/generator.js&#45;&gt;helpers.js -->
<g id="edge33" class="edge">
<title>gui/generator.js&#45;&gt;helpers.js</title>
<path fill="none" stroke="#757575" d="M390.2,-749.04C502.91,-777.56 818.14,-842.19 1050,-743.5 1105.61,-719.83 1156.86,-668.59 1182.09,-640.63"/>
<polygon fill="#757575" stroke="#757575" points="1184.77,-642.89 1188.78,-633.08 1179.53,-638.25 1184.77,-642.89"/>
</g>
<!-- gui/generator.js&#45;&gt;core.js -->
<g id="edge32" class="edge">
<title>gui/generator.js&#45;&gt;core.js</title>
<path fill="none" stroke="#757575" d="M401.57,-726.23C482.05,-708.55 629.38,-673.05 673,-641.5 729.34,-600.76 768.22,-525.19 784.68,-488.53"/>
<polygon fill="#757575" stroke="#757575" points="787.92,-489.85 788.72,-479.28 781.51,-487.05 787.92,-489.85"/>
</g>
<!-- gui/generator.js&#45;&gt;components/selection.js -->
<g id="edge31" class="edge">
<title>gui/generator.js&#45;&gt;components/selection.js</title>
<path fill="none" stroke="#757575" d="M401.54,-737.74C424.55,-737.85 452.1,-737.97 478.09,-738.09"/>
<polygon fill="#757575" stroke="#757575" points="478.33,-741.59 488.35,-738.14 478.36,-734.59 478.33,-741.59"/>
</g>
<!-- gui/generator.js&#45;&gt;physics.js -->
<g id="edge34" class="edge">
<title>gui/generator.js&#45;&gt;physics.js</title>
<path fill="none" stroke="#757575" d="M401.82,-747.26C411.21,-750.13 420.64,-753.8 429,-758.5 448.45,-769.44 444.32,-785.11 465,-793.5 815.68,-935.87 1051.78,-989.38 1313,-715.5 1333.22,-694.3 1369.89,-495.02 1381.71,-428.21"/>
<polygon fill="#757575" stroke="#757575" points="1385.22,-428.46 1383.51,-418.01 1378.33,-427.25 1385.22,-428.46"/>
</g>
<!-- scenariosHelpers.js -->
<g id="node20" class="node">
<title>scenariosHelpers.js</title>
<path fill="none" stroke="#c6c5fe" d="M1042.33,-982C1042.33,-982 923.67,-982 923.67,-982 919.83,-982 916,-978.17 916,-974.33 916,-974.33 916,-966.67 916,-966.67 916,-962.83 919.83,-959 923.67,-959 923.67,-959 1042.33,-959 1042.33,-959 1046.17,-959 1050,-962.83 1050,-966.67 1050,-966.67 1050,-974.33 1050,-974.33 1050,-978.17 1046.17,-982 1042.33,-982"/>
<text text-anchor="middle" x="983" y="-966.8" font-family="Arial" font-size="14.00" fill="#c6c5fe">scenariosHelpers.js</text>
</g>
<!-- gui/generator.js&#45;&gt;scenariosHelpers.js -->
<g id="edge35" class="edge">
<title>gui/generator.js&#45;&gt;scenariosHelpers.js</title>
<path fill="none" stroke="#757575" d="M401.59,-742.77C411.77,-745.99 421.56,-750.94 429,-758.5 476.51,-806.73 414.06,-861.92 465,-906.5 534.79,-967.57 788.3,-936.68 880,-950.5 892.32,-952.36 905.41,-954.67 917.97,-957.05"/>
<polygon fill="#757575" stroke="#757575" points="917.41,-960.51 927.9,-958.97 918.74,-953.64 917.41,-960.51"/>
</g>
<!-- scenariosHelpers.js&#45;&gt;helpers.js -->
<g id="edge51" class="edge">
<title>scenariosHelpers.js&#45;&gt;helpers.js</title>
<path fill="none" stroke="#757575" d="M998.44,-958.89C1012.77,-946.86 1034.74,-926.97 1050,-906.5 1117.1,-816.48 1170.47,-691.88 1190.23,-642.69"/>
<polygon fill="#757575" stroke="#757575" points="1193.59,-643.71 1194.03,-633.12 1187.09,-641.12 1193.59,-643.71"/>
</g>
<!-- scenariosHelpers.js&#45;&gt;particle.js -->
<g id="edge52" class="edge">
<title>scenariosHelpers.js&#45;&gt;particle.js</title>
<path fill="none" stroke="#757575" d="M1022.15,-982.07C1106.4,-1005.03 1309.84,-1045.86 1424,-944.5 1481.23,-893.69 1493.15,-642.26 1495.47,-565.68"/>
<polygon fill="#757575" stroke="#757575" points="1498.98,-565.41 1495.76,-555.32 1491.98,-565.22 1498.98,-565.41"/>
</g>
<!-- gui/info.js -->
<g id="node21" class="node">
<title>gui/info.js</title>
<path fill="none" stroke="#c6c5fe" d="M598.33,-393C598.33,-393 539.67,-393 539.67,-393 535.83,-393 532,-389.17 532,-385.33 532,-385.33 532,-377.67 532,-377.67 532,-373.83 535.83,-370 539.67,-370 539.67,-370 598.33,-370 598.33,-370 602.17,-370 606,-373.83 606,-377.67 606,-377.67 606,-385.33 606,-385.33 606,-389.17 602.17,-393 598.33,-393"/>
<text text-anchor="middle" x="569" y="-377.8" font-family="Arial" font-size="14.00" fill="#c6c5fe">gui/info.js</text>
</g>
<!-- gui/info.js&#45;&gt;helpers.js -->
<g id="edge37" class="edge">
<title>gui/info.js&#45;&gt;helpers.js</title>
<path fill="none" stroke="#757575" d="M606.45,-382.62C627.95,-381.45 654.49,-376.56 673,-361.5 705.14,-335.35 675.07,-299.28 709,-275.5 771.08,-231.99 991.45,-217.34 1050,-265.5 1114.02,-318.15 1054.84,-371.69 1086,-448.5 1110.62,-509.19 1157.45,-571.42 1182.21,-602.05"/>
<polygon fill="#757575" stroke="#757575" points="1179.53,-604.3 1188.57,-609.82 1184.95,-599.86 1179.53,-604.3"/>
</g>
<!-- gui/info.js&#45;&gt;core.js -->
<g id="edge36" class="edge">
<title>gui/info.js&#45;&gt;core.js</title>
<path fill="none" stroke="#757575" d="M606.46,-386.26C626.49,-389.53 651.55,-394.72 673,-402.5 707.13,-414.88 743.42,-435.62 767.15,-450.34"/>
<polygon fill="#757575" stroke="#757575" points="765.58,-453.49 775.9,-455.85 769.31,-447.56 765.58,-453.49"/>
</g>
<!-- gui/info.js&#45;&gt;physics.js -->
<g id="edge38" class="edge">
<title>gui/info.js&#45;&gt;physics.js</title>
<path fill="none" stroke="#757575" d="M606.16,-383.48C628.1,-382.7 655.21,-377.95 673,-361.5 717.02,-320.8 661.28,-267.8 709,-231.5 829.62,-139.74 900.89,-204.37 1050,-231.5 1172.88,-253.86 1208.84,-261.59 1313,-330.5 1336.18,-345.84 1357.46,-369.85 1370.88,-386.78"/>
<polygon fill="#757575" stroke="#757575" points="1368.27,-389.12 1377.16,-394.9 1373.81,-384.84 1368.27,-389.12"/>
</g>
<!-- gui/parameters.js -->
<g id="node22" class="node">
<title>gui/parameters.js</title>
<path fill="none" stroke="#c6c5fe" d="M621.83,-352C621.83,-352 516.17,-352 516.17,-352 512.33,-352 508.5,-348.17 508.5,-344.33 508.5,-344.33 508.5,-336.67 508.5,-336.67 508.5,-332.83 512.33,-329 516.17,-329 516.17,-329 621.83,-329 621.83,-329 625.67,-329 629.5,-332.83 629.5,-336.67 629.5,-336.67 629.5,-344.33 629.5,-344.33 629.5,-348.17 625.67,-352 621.83,-352"/>
<text text-anchor="middle" x="569" y="-336.8" font-family="Arial" font-size="14.00" fill="#c6c5fe">gui/parameters.js</text>
</g>
<!-- gui/parameters.js&#45;&gt;core.js -->
<g id="edge39" class="edge">
<title>gui/parameters.js&#45;&gt;core.js</title>
<path fill="none" stroke="#757575" d="M629.76,-347.24C644.4,-350.35 659.68,-354.88 673,-361.5 716.08,-382.91 755.86,-423.65 777.19,-447.91"/>
<polygon fill="#757575" stroke="#757575" points="774.77,-450.46 783.95,-455.75 780.07,-445.89 774.77,-450.46"/>
</g>
<!-- gui/parameters.js&#45;&gt;physics.js -->
<g id="edge40" class="edge">
<title>gui/parameters.js&#45;&gt;physics.js</title>
<path fill="none" stroke="#757575" d="M592.47,-328.96C615.43,-316.18 650.78,-293.61 673,-265.5 698.7,-232.99 674.5,-202.46 709,-179.5 772.27,-137.39 804.06,-176.38 880,-179.5 1073.83,-187.47 1160.14,-115.06 1313,-234.5 1360.9,-271.93 1377.53,-346.86 1383,-384.24"/>
<polygon fill="#757575" stroke="#757575" points="1379.58,-385.09 1384.36,-394.55 1386.52,-384.18 1379.58,-385.09"/>
</g>
<!-- gui/particle.js -->
<g id="node23" class="node">
<title>gui/particle.js</title>
<path fill="none" stroke="#c6c5fe" d="M608.83,-256C608.83,-256 529.17,-256 529.17,-256 525.33,-256 521.5,-252.17 521.5,-248.33 521.5,-248.33 521.5,-240.67 521.5,-240.67 521.5,-236.83 525.33,-233 529.17,-233 529.17,-233 608.83,-233 608.83,-233 612.67,-233 616.5,-236.83 616.5,-240.67 616.5,-240.67 616.5,-248.33 616.5,-248.33 616.5,-252.17 612.67,-256 608.83,-256"/>
<text text-anchor="middle" x="569" y="-240.8" font-family="Arial" font-size="14.00" fill="#c6c5fe">gui/particle.js</text>
</g>
<!-- gui/particle.js&#45;&gt;helpers.js -->
<g id="edge42" class="edge">
<title>gui/particle.js&#45;&gt;helpers.js</title>
<path fill="none" stroke="#757575" d="M596.84,-232.89C676.75,-200.34 915.83,-117.75 1050,-231.5 1124.57,-294.72 1050.6,-357.37 1086,-448.5 1109.71,-509.55 1156.93,-571.63 1181.99,-602.14"/>
<polygon fill="#757575" stroke="#757575" points="1179.34,-604.43 1188.43,-609.88 1184.72,-599.95 1179.34,-604.43"/>
</g>
<!-- gui/particle.js&#45;&gt;core.js -->
<g id="edge41" class="edge">
<title>gui/particle.js&#45;&gt;core.js</title>
<path fill="none" stroke="#757575" d="M588.55,-256.15C610.04,-270.09 645.94,-294.78 673,-320.5 716.14,-361.5 758.3,-417.68 779.45,-447.31"/>
<polygon fill="#757575" stroke="#757575" points="776.69,-449.47 785.32,-455.61 782.4,-445.42 776.69,-449.47"/>
</g>
<!-- gui/particle.js&#45;&gt;particle.js -->
<g id="edge43" class="edge">
<title>gui/particle.js&#45;&gt;particle.js</title>
<path fill="none" stroke="#757575" d="M585.94,-232.9C639.17,-195.34 816.73,-79.5 982,-79.5 982,-79.5 982,-79.5 1200.5,-79.5 1412.74,-79.5 1479.18,-429.16 1493.01,-521.41"/>
<polygon fill="#757575" stroke="#757575" points="1489.58,-522.17 1494.47,-531.56 1496.51,-521.17 1489.58,-522.17"/>
</g>
<!-- gui/selection.js -->
<g id="node24" class="node">
<title>gui/selection.js</title>
<path fill="none" stroke="#c6c5fe" d="M391.83,-669C391.83,-669 302.17,-669 302.17,-669 298.33,-669 294.5,-665.17 294.5,-661.33 294.5,-661.33 294.5,-653.67 294.5,-653.67 294.5,-649.83 298.33,-646 302.17,-646 302.17,-646 391.83,-646 391.83,-646 395.67,-646 399.5,-649.83 399.5,-653.67 399.5,-653.67 399.5,-661.33 399.5,-661.33 399.5,-665.17 395.67,-669 391.83,-669"/>
<text text-anchor="middle" x="347" y="-653.8" font-family="Arial" font-size="14.00" fill="#c6c5fe">gui/selection.js</text>
</g>
<!-- gui/selection.js&#45;&gt;helpers.js -->
<g id="edge46" class="edge">
<title>gui/selection.js&#45;&gt;helpers.js</title>
<path fill="none" stroke="#757575" d="M399.77,-661.68C516.38,-670.19 808.27,-686.38 1050,-657.5 1084.87,-653.33 1123.39,-643.85 1152.46,-635.66"/>
<polygon fill="#757575" stroke="#757575" points="1153.68,-638.95 1162.33,-632.83 1151.75,-632.22 1153.68,-638.95"/>
</g>
<!-- gui/selection.js&#45;&gt;core.js -->
<g id="edge45" class="edge">
<title>gui/selection.js&#45;&gt;core.js</title>
<path fill="none" stroke="#757575" d="M358.29,-645.71C377.21,-624.84 419.73,-581.53 465,-559.5 549.97,-518.16 582.56,-542.86 673,-515.5 702.55,-506.56 735.01,-493.43 758.79,-483.16"/>
<polygon fill="#757575" stroke="#757575" points="760.33,-486.3 768.1,-479.09 757.53,-479.89 760.33,-486.3"/>
</g>
<!-- gui/selection.js&#45;&gt;components/selection.js -->
<g id="edge44" class="edge">
<title>gui/selection.js&#45;&gt;components/selection.js</title>
<path fill="none" stroke="#757575" d="M385.68,-669.02C399.38,-673.37 414.96,-678.47 429,-683.5 463.86,-695.98 503.04,-711.63 530.9,-723.04"/>
<polygon fill="#757575" stroke="#757575" points="529.67,-726.32 540.25,-726.89 532.33,-719.85 529.67,-726.32"/>
</g>
<!-- gui/stats.js -->
<g id="node25" class="node">
<title>gui/stats.js</title>
<path fill="none" stroke="#cfffac" d="M379.33,-831C379.33,-831 314.67,-831 314.67,-831 310.83,-831 307,-827.17 307,-823.33 307,-823.33 307,-815.67 307,-815.67 307,-811.83 310.83,-808 314.67,-808 314.67,-808 379.33,-808 379.33,-808 383.17,-808 387,-811.83 387,-815.67 387,-815.67 387,-823.33 387,-823.33 387,-827.17 383.17,-831 379.33,-831"/>
<text text-anchor="middle" x="347" y="-815.8" font-family="Arial" font-size="14.00" fill="#cfffac">gui/stats.js</text>
</g>
<!-- main.js -->
<g id="node26" class="node">
<title>main.js</title>
<path fill="none" stroke="#c6c5fe" d="M81.33,-450C81.33,-450 36.67,-450 36.67,-450 32.83,-450 29,-446.17 29,-442.33 29,-442.33 29,-434.67 29,-434.67 29,-430.83 32.83,-427 36.67,-427 36.67,-427 81.33,-427 81.33,-427 85.17,-427 89,-430.83 89,-434.67 89,-434.67 89,-442.33 89,-442.33 89,-446.17 85.17,-450 81.33,-450"/>
<text text-anchor="middle" x="59" y="-434.8" font-family="Arial" font-size="14.00" fill="#c6c5fe">main.js</text>
</g>
<!-- ui/App.jsx -->
<g id="node27" class="node">
<title>ui/App.jsx</title>
<path fill="none" stroke="#c6c5fe" d="M221.33,-430C221.33,-430 161.67,-430 161.67,-430 157.83,-430 154,-426.17 154,-422.33 154,-422.33 154,-414.67 154,-414.67 154,-410.83 157.83,-407 161.67,-407 161.67,-407 221.33,-407 221.33,-407 225.17,-407 229,-410.83 229,-414.67 229,-414.67 229,-422.33 229,-422.33 229,-426.17 225.17,-430 221.33,-430"/>
<text text-anchor="middle" x="191.5" y="-414.8" font-family="Arial" font-size="14.00" fill="#c6c5fe">ui/App.jsx</text>
</g>
<!-- main.js&#45;&gt;ui/App.jsx -->
<g id="edge48" class="edge">
<title>main.js&#45;&gt;ui/App.jsx</title>
<path fill="none" stroke="#757575" d="M89.29,-434.01C105.32,-431.55 125.56,-428.45 143.72,-425.67"/>
<polygon fill="#757575" stroke="#757575" points="144.49,-429.09 153.84,-424.12 143.43,-422.17 144.49,-429.09"/>
</g>
<!-- view.js -->
<g id="node28" class="node">
<title>view.js</title>
<path fill="none" stroke="#c6c5fe" d="M211.83,-610C211.83,-610 171.17,-610 171.17,-610 167.33,-610 163.5,-606.17 163.5,-602.33 163.5,-602.33 163.5,-594.67 163.5,-594.67 163.5,-590.83 167.33,-587 171.17,-587 171.17,-587 211.83,-587 211.83,-587 215.67,-587 219.5,-590.83 219.5,-594.67 219.5,-594.67 219.5,-602.33 219.5,-602.33 219.5,-606.17 215.67,-610 211.83,-610"/>
<text text-anchor="middle" x="191.5" y="-594.8" font-family="Arial" font-size="14.00" fill="#c6c5fe">view.js</text>
</g>
<!-- main.js&#45;&gt;view.js -->
<g id="edge49" class="edge">
<title>main.js&#45;&gt;view.js</title>
<path fill="none" stroke="#757575" d="M89.09,-444.44C99.11,-447.61 109.86,-452.38 118,-459.5 154.67,-491.58 175.51,-546.76 184.72,-577.05"/>
<polygon fill="#757575" stroke="#757575" points="181.46,-578.36 187.6,-587 188.18,-576.42 181.46,-578.36"/>
</g>
<!-- ui/views/Information.jsx -->
<g id="node30" class="node">
<title>ui/views/Information.jsx</title>
<path fill="none" stroke="#c6c5fe" d="M417.83,-85C417.83,-85 276.17,-85 276.17,-85 272.33,-85 268.5,-81.17 268.5,-77.33 268.5,-77.33 268.5,-69.67 268.5,-69.67 268.5,-65.83 272.33,-62 276.17,-62 276.17,-62 417.83,-62 417.83,-62 421.67,-62 425.5,-65.83 425.5,-69.67 425.5,-69.67 425.5,-77.33 425.5,-77.33 425.5,-81.17 421.67,-85 417.83,-85"/>
<text text-anchor="middle" x="347" y="-69.8" font-family="Arial" font-size="14.00" fill="#c6c5fe">ui/views/Information.jsx</text>
</g>
<!-- ui/App.jsx&#45;&gt;ui/views/Information.jsx -->
<g id="edge53" class="edge">
<title>ui/App.jsx&#45;&gt;ui/views/Information.jsx</title>
<path fill="none" stroke="#757575" d="M197.78,-406.62C220.2,-356.24 307.63,-159.75 336.61,-94.61"/>
<polygon fill="#757575" stroke="#757575" points="339.87,-95.89 340.74,-85.33 333.48,-93.04 339.87,-95.89"/>
</g>
<!-- view.js&#45;&gt;components/keyboard.js -->
<g id="edge58" class="edge">
<title>view.js&#45;&gt;components/keyboard.js</title>
<path fill="none" stroke="#757575" d="M194.26,-610.26C199.36,-639.97 216.93,-718.53 265,-758.5 266.38,-759.65 267.81,-760.73 269.29,-761.75"/>
<polygon fill="#757575" stroke="#757575" points="267.84,-764.95 278.24,-766.96 271.36,-758.9 267.84,-764.95"/>
</g>
<!-- view.js&#45;&gt;components/mouse.js -->
<g id="edge59" class="edge">
<title>view.js&#45;&gt;components/mouse.js</title>
<path fill="none" stroke="#757575" d="M193.92,-610.01C200.07,-657.94 225.82,-841.07 265,-881.5 381.91,-1002.14 596.79,-996.88 713.3,-983.3"/>
<polygon fill="#757575" stroke="#757575" points="714.07,-986.74 723.58,-982.05 713.23,-979.79 714.07,-986.74"/>
</g>
<!-- view.js&#45;&gt;components/ruler.js -->
<g id="edge60" class="edge">
<title>view.js&#45;&gt;components/ruler.js</title>
<path fill="none" stroke="#757575" d="M219.69,-600.46C233.3,-601.42 250.02,-602.56 265,-603.5 342.05,-608.32 430.16,-613.19 491.43,-616.48"/>
<polygon fill="#757575" stroke="#757575" points="491.61,-619.99 501.78,-617.03 491.99,-613 491.61,-619.99"/>
</g>
<!-- view.js&#45;&gt;core.js -->
<g id="edge62" class="edge">
<title>view.js&#45;&gt;core.js</title>
<path fill="none" stroke="#757575" d="M219.6,-588.75C268.17,-571.62 373.55,-535.99 465,-515.5 569.47,-492.1 695.29,-477.38 756.47,-471.07"/>
<polygon fill="#757575" stroke="#757575" points="756.83,-474.55 766.42,-470.06 756.12,-467.59 756.83,-474.55"/>
</g>
<!-- view.js&#45;&gt;components/selection.js -->
<g id="edge61" class="edge">
<title>view.js&#45;&gt;components/selection.js</title>
<path fill="none" stroke="#757575" d="M199.54,-610.18C210.93,-627.98 235.15,-661.61 265,-678.5 284.26,-689.4 404.62,-711.18 487.72,-725.29"/>
<polygon fill="#757575" stroke="#757575" points="487.22,-728.75 497.66,-726.97 488.38,-721.85 487.22,-728.75"/>
</g>
<!-- view.js&#45;&gt;gui/advanced.js -->
<g id="edge63" class="edge">
<title>view.js&#45;&gt;gui/advanced.js</title>
<path fill="none" stroke="#757575" d="M219.51,-597.13C278.51,-594.15 420.3,-586.97 503.71,-582.75"/>
<polygon fill="#757575" stroke="#757575" points="504.02,-586.24 513.83,-582.24 503.66,-579.25 504.02,-586.24"/>
</g>
<!-- view.js&#45;&gt;gui/controls.js -->
<g id="edge64" class="edge">
<title>view.js&#45;&gt;gui/controls.js</title>
<path fill="none" stroke="#757575" d="M193.91,-586.95C198.23,-557.1 214.25,-477.28 265,-442.5 337.34,-392.92 443.61,-399.33 509.16,-409.9"/>
<polygon fill="#757575" stroke="#757575" points="508.88,-413.4 519.32,-411.62 510.05,-406.5 508.88,-413.4"/>
</g>
<!-- view.js&#45;&gt;gui/dat.gui.js -->
<g id="edge65" class="edge">
<title>view.js&#45;&gt;gui/dat.gui.js</title>
<path fill="none" stroke="#757575" d="M192.23,-610.13C191.99,-648.98 196.71,-775.48 265,-840.5 272.24,-847.39 281.46,-852.02 291.07,-855.11"/>
<polygon fill="#757575" stroke="#757575" points="290.18,-858.49 300.75,-857.71 292,-851.73 290.18,-858.49"/>
</g>
<!-- view.js&#45;&gt;gui/field.js -->
<g id="edge66" class="edge">
<title>view.js&#45;&gt;gui/field.js</title>
<path fill="none" stroke="#757575" d="M196.98,-586.99C206.25,-564.67 229.66,-515.33 265,-488.5 274.83,-481.03 286.88,-475.67 298.65,-471.84"/>
<polygon fill="#757575" stroke="#757575" points="299.81,-475.14 308.41,-468.96 297.83,-468.43 299.81,-475.14"/>
</g>
<!-- view.js&#45;&gt;gui/generator.js -->
<g id="edge67" class="edge">
<title>view.js&#45;&gt;gui/generator.js</title>
<path fill="none" stroke="#757575" d="M196.89,-610.32C206,-633.26 229.15,-683.94 265,-711.5 270.43,-715.67 276.55,-719.19 282.93,-722.15"/>
<polygon fill="#757575" stroke="#757575" points="281.84,-725.48 292.41,-726.09 284.52,-719.02 281.84,-725.48"/>
</g>
<!-- view.js&#45;&gt;gui/info.js -->
<g id="edge68" class="edge">
<title>view.js&#45;&gt;gui/info.js</title>
<path fill="none" stroke="#757575" d="M194.96,-586.79C203.47,-547.47 232.91,-421.33 265,-397.5 304.43,-368.22 447.19,-373.11 521.82,-377.92"/>
<polygon fill="#757575" stroke="#757575" points="521.67,-381.42 531.88,-378.6 522.14,-374.43 521.67,-381.42"/>
</g>
<!-- view.js&#45;&gt;gui/parameters.js -->
<g id="edge69" class="edge">
<title>view.js&#45;&gt;gui/parameters.js</title>
<path fill="none" stroke="#757575" d="M194.48,-586.75C201.93,-544.04 229.65,-398.07 265,-369.5 331.45,-315.78 434.84,-318.36 502,-327.54"/>
<polygon fill="#757575" stroke="#757575" points="501.64,-331.02 512.04,-329 502.65,-324.1 501.64,-331.02"/>
</g>
<!-- view.js&#45;&gt;gui/particle.js -->
<g id="edge70" class="edge">
<title>view.js&#45;&gt;gui/particle.js</title>
<path fill="none" stroke="#757575" d="M195.14,-586.89C206.98,-535.11 254.94,-327.39 265,-317.5 330.76,-252.79 443.32,-241.9 511.18,-241.84"/>
<polygon fill="#757575" stroke="#757575" points="511.24,-245.34 521.27,-241.91 511.29,-238.34 511.24,-245.34"/>
</g>
<!-- view.js&#45;&gt;gui/selection.js -->
<g id="edge71" class="edge">
<title>view.js&#45;&gt;gui/selection.js</title>
<path fill="none" stroke="#757575" d="M216.04,-610.06C230.08,-616.74 248.36,-625.07 265,-631.5 275.34,-635.5 286.57,-639.38 297.29,-642.88"/>
<polygon fill="#757575" stroke="#757575" points="296.36,-646.26 306.95,-645.98 298.5,-639.59 296.36,-646.26"/>
</g>
<!-- view.js&#45;&gt;gui/stats.js -->
<g id="edge72" class="edge">
<title>view.js&#45;&gt;gui/stats.js</title>
<path fill="none" stroke="#757575" d="M193.04,-610.09C195.3,-644.53 206.85,-747.11 265,-799.5 273.82,-807.45 285.3,-812.36 296.83,-815.36"/>
<polygon fill="#757575" stroke="#757575" points="296.4,-818.85 306.91,-817.53 297.87,-812 296.4,-818.85"/>
</g>
<!-- mock/graphics.js -->
<g id="node29" class="node">
<title>mock/graphics.js</title>
<path fill="none" stroke="#cfffac" d="M110.33,-491C110.33,-491 7.67,-491 7.67,-491 3.83,-491 0,-487.17 0,-483.33 0,-483.33 0,-475.67 0,-475.67 0,-471.83 3.83,-468 7.67,-468 7.67,-468 110.33,-468 110.33,-468 114.17,-468 118,-471.83 118,-475.67 118,-475.67 118,-483.33 118,-483.33 118,-487.17 114.17,-491 110.33,-491"/>
<text text-anchor="middle" x="59" y="-475.8" font-family="Arial" font-size="14.00" fill="#cfffac">mock/graphics.js</text>
</g>
<!-- ui/components/Dialog.jsx -->
<g id="node32" class="node">
<title>ui/components/Dialog.jsx</title>
<path fill="none" stroke="#c6c5fe" d="M644.83,-105C644.83,-105 493.17,-105 493.17,-105 489.33,-105 485.5,-101.17 485.5,-97.33 485.5,-97.33 485.5,-89.67 485.5,-89.67 485.5,-85.83 489.33,-82 493.17,-82 493.17,-82 644.83,-82 644.83,-82 648.67,-82 652.5,-85.83 652.5,-89.67 652.5,-89.67 652.5,-97.33 652.5,-97.33 652.5,-101.17 648.67,-105 644.83,-105"/>
<text text-anchor="middle" x="569" y="-89.8" font-family="Arial" font-size="14.00" fill="#c6c5fe">ui/components/Dialog.jsx</text>
</g>
<!-- ui/views/Information.jsx&#45;&gt;ui/components/Dialog.jsx -->
<g id="edge55" class="edge">
<title>ui/views/Information.jsx&#45;&gt;ui/components/Dialog.jsx</title>
<path fill="none" stroke="#757575" d="M425.56,-80.55C441.55,-82 458.53,-83.55 474.99,-85.04"/>
<polygon fill="#757575" stroke="#757575" points="474.89,-88.55 485.17,-85.97 475.52,-81.58 474.89,-88.55"/>
</g>
<!-- ui/components/NumberInput.jsx -->
<g id="node33" class="node">
<title>ui/components/NumberInput.jsx</title>
<path fill="none" stroke="#cfffac" d="M665.33,-64C665.33,-64 472.67,-64 472.67,-64 468.83,-64 465,-60.17 465,-56.33 465,-56.33 465,-48.67 465,-48.67 465,-44.83 468.83,-41 472.67,-41 472.67,-41 665.33,-41 665.33,-41 669.17,-41 673,-44.83 673,-48.67 673,-48.67 673,-56.33 673,-56.33 673,-60.17 669.17,-64 665.33,-64"/>
<text text-anchor="middle" x="569" y="-48.8" font-family="Arial" font-size="14.00" fill="#cfffac">ui/components/NumberInput.jsx</text>
</g>
<!-- ui/views/Information.jsx&#45;&gt;ui/components/NumberInput.jsx -->
<g id="edge56" class="edge">
<title>ui/views/Information.jsx&#45;&gt;ui/components/NumberInput.jsx</title>
<path fill="none" stroke="#757575" d="M425.56,-66.1C435.02,-65.19 444.83,-64.26 454.67,-63.32"/>
<polygon fill="#757575" stroke="#757575" points="455.31,-66.77 464.93,-62.34 454.64,-59.8 455.31,-66.77"/>
</g>
<!-- ui/components/TextInput.jsx -->
<g id="node34" class="node">
<title>ui/components/TextInput.jsx</title>
<path fill="none" stroke="#cfffac" d="M653.33,-23C653.33,-23 484.67,-23 484.67,-23 480.83,-23 477,-19.17 477,-15.33 477,-15.33 477,-7.67 477,-7.67 477,-3.83 480.83,0 484.67,0 484.67,0 653.33,0 653.33,0 657.17,0 661,-3.83 661,-7.67 661,-7.67 661,-15.33 661,-15.33 661,-19.17 657.17,-23 653.33,-23"/>
<text text-anchor="middle" x="569" y="-7.8" font-family="Arial" font-size="14.00" fill="#cfffac">ui/components/TextInput.jsx</text>
</g>
<!-- ui/views/Information.jsx&#45;&gt;ui/components/TextInput.jsx -->
<g id="edge57" class="edge">
<title>ui/views/Information.jsx&#45;&gt;ui/components/TextInput.jsx</title>
<path fill="none" stroke="#757575" d="M377.46,-61.92C400.91,-53.02 434.71,-40.85 465,-32.5 474.5,-29.88 484.58,-27.43 494.56,-25.2"/>
<polygon fill="#757575" stroke="#757575" points="495.46,-28.58 504.49,-23.04 493.98,-21.74 495.46,-28.58"/>
</g>
<!-- ui/components/Dialog.css -->
<g id="node31" class="node">
<title>ui/components/Dialog.css</title>
<path fill="none" stroke="#cfffac" d="M872.33,-51C872.33,-51 716.67,-51 716.67,-51 712.83,-51 709,-47.17 709,-43.33 709,-43.33 709,-35.67 709,-35.67 709,-31.83 712.83,-28 716.67,-28 716.67,-28 872.33,-28 872.33,-28 876.17,-28 880,-31.83 880,-35.67 880,-35.67 880,-43.33 880,-43.33 880,-47.17 876.17,-51 872.33,-51"/>
<text text-anchor="middle" x="794.5" y="-35.8" font-family="Arial" font-size="14.00" fill="#cfffac">ui/components/Dialog.css</text>
</g>
<!-- ui/components/Dialog.jsx&#45;&gt;ui/components/Dialog.css -->
<g id="edge54" class="edge">
<title>ui/components/Dialog.jsx&#45;&gt;ui/components/Dialog.css</title>
<path fill="none" stroke="#757575" d="M633.91,-81.95C646.89,-79.36 660.42,-76.49 673,-73.5 697.21,-67.75 723.86,-60.34 745.93,-53.91"/>
<polygon fill="#757575" stroke="#757575" points="747.11,-57.21 755.72,-51.03 745.14,-50.49 747.11,-57.21"/>
</g>
</g>
</svg>
