<?xml version="1.0" encoding="UTF-8" standalone="no"?>
<!DOCTYPE svg PUBLIC "-//W3C//DTD SVG 1.1//EN"
 "http://www.w3.org/Graphics/SVG/1.1/DTD/svg11.dtd">
<!-- Generated by graphviz version 2.40.1 (20161225.0304)
 -->
<!-- Title: G Pages: 1 -->
<svg width="1409pt" height="774pt"
 viewBox="0.00 0.00 1409.20 773.88" xmlns="http://www.w3.org/2000/svg" xmlns:xlink="http://www.w3.org/1999/xlink">
<g id="graph0" class="graph" transform="scale(1 1) rotate(0) translate(21.6 752.2754)">
<title>G</title>
<polygon fill="#111111" stroke="transparent" points="-21.6,21.6 -21.6,-752.2754 1387.6,-752.2754 1387.6,21.6 -21.6,21.6"/>
<!-- components/csv.js -->
<g id="node1" class="node">
<title>components/csv.js</title>
<path fill="none" stroke="#c6c5fe" d="M1075.8333,-663.4365C1075.8333,-663.4365 954.1667,-663.4365 954.1667,-663.4365 950.3333,-663.4365 946.5,-659.6032 946.5,-655.7698 946.5,-655.7698 946.5,-648.1032 946.5,-648.1032 946.5,-644.2698 950.3333,-640.4365 954.1667,-640.4365 954.1667,-640.4365 1075.8333,-640.4365 1075.8333,-640.4365 1079.6667,-640.4365 1083.5,-644.2698 1083.5,-648.1032 1083.5,-648.1032 1083.5,-655.7698 1083.5,-655.7698 1083.5,-659.6032 1079.6667,-663.4365 1075.8333,-663.4365"/>
<text text-anchor="middle" x="1015" y="-648.2365" font-family="Arial" font-size="14.00" fill="#c6c5fe">components/csv.js</text>
</g>
<!-- particle.js -->
<g id="node2" class="node">
<title>particle.js</title>
<path fill="none" stroke="#cfffac" d="M1358.3333,-391.4365C1358.3333,-391.4365 1296.6667,-391.4365 1296.6667,-391.4365 1292.8333,-391.4365 1289,-387.6032 1289,-383.7698 1289,-383.7698 1289,-376.1032 1289,-376.1032 1289,-372.2698 1292.8333,-368.4365 1296.6667,-368.4365 1296.6667,-368.4365 1358.3333,-368.4365 1358.3333,-368.4365 1362.1667,-368.4365 1366,-372.2698 1366,-376.1032 1366,-376.1032 1366,-383.7698 1366,-383.7698 1366,-387.6032 1362.1667,-391.4365 1358.3333,-391.4365"/>
<text text-anchor="middle" x="1327.5" y="-376.2365" font-family="Arial" font-size="14.00" fill="#cfffac">particle.js</text>
</g>
<!-- components/csv.js&#45;&gt;particle.js -->
<g id="edge1" class="edge">
<title>components/csv.js&#45;&gt;particle.js</title>
<path fill="none" stroke="#757575" d="M1083.7368,-663.1751C1135.9445,-667.6798 1206.4639,-664.5618 1253,-625.9365 1288.2561,-596.6737 1314.8879,-456.067 1324.0456,-401.5767"/>
<polygon fill="#757575" stroke="#757575" points="1327.5162,-402.041 1325.6867,-391.6054 1320.6091,-400.9042 1327.5162,-402.041"/>
</g>
<!-- physics.js -->
<g id="node3" class="node">
<title>physics.js</title>
<path fill="none" stroke="#c6c5fe" d="M1245.3333,-528.4365C1245.3333,-528.4365 1180.6667,-528.4365 1180.6667,-528.4365 1176.8333,-528.4365 1173,-524.6032 1173,-520.7698 1173,-520.7698 1173,-513.1032 1173,-513.1032 1173,-509.2698 1176.8333,-505.4365 1180.6667,-505.4365 1180.6667,-505.4365 1245.3333,-505.4365 1245.3333,-505.4365 1249.1667,-505.4365 1253,-509.2698 1253,-513.1032 1253,-513.1032 1253,-520.7698 1253,-520.7698 1253,-524.6032 1249.1667,-528.4365 1245.3333,-528.4365"/>
<text text-anchor="middle" x="1213" y="-513.2365" font-family="Arial" font-size="14.00" fill="#c6c5fe">physics.js</text>
</g>
<!-- components/csv.js&#45;&gt;physics.js -->
<g id="edge2" class="edge">
<title>components/csv.js&#45;&gt;physics.js</title>
<path fill="none" stroke="#757575" d="M1041.8856,-640.3769C1067.43,-628.8183 1106.3782,-609.6714 1137,-587.9365 1158.8174,-572.4509 1180.8395,-551.1059 1195.5205,-535.8721"/>
<polygon fill="#757575" stroke="#757575" points="1198.1458,-538.1902 1202.4885,-528.5263 1193.0671,-533.3728 1198.1458,-538.1902"/>
</g>
<!-- physics.js&#45;&gt;particle.js -->
<g id="edge30" class="edge">
<title>physics.js&#45;&gt;particle.js</title>
<path fill="none" stroke="#757575" d="M1222.7622,-505.256C1242.4509,-481.6982 1287.096,-428.2802 1311.2517,-399.3776"/>
<polygon fill="#757575" stroke="#757575" points="1314.0352,-401.505 1317.7625,-391.5875 1308.664,-397.016 1314.0352,-401.505"/>
</g>
<!-- components/keyboard.js -->
<g id="node4" class="node">
<title>components/keyboard.js</title>
<path fill="none" stroke="#cfffac" d="M361.3333,-74.4365C361.3333,-74.4365 200.6667,-74.4365 200.6667,-74.4365 196.8333,-74.4365 193,-70.6032 193,-66.7698 193,-66.7698 193,-59.1032 193,-59.1032 193,-55.2698 196.8333,-51.4365 200.6667,-51.4365 200.6667,-51.4365 361.3333,-51.4365 361.3333,-51.4365 365.1667,-51.4365 369,-55.2698 369,-59.1032 369,-59.1032 369,-66.7698 369,-66.7698 369,-70.6032 365.1667,-74.4365 361.3333,-74.4365"/>
<text text-anchor="middle" x="281" y="-59.2365" font-family="Arial" font-size="14.00" fill="#cfffac">components/keyboard.js</text>
</g>
<!-- components/mouseHelper.js -->
<g id="node5" class="node">
<title>components/mouseHelper.js</title>
<path fill="none" stroke="#c6c5fe" d="M598.3333,-153.4365C598.3333,-153.4365 412.6667,-153.4365 412.6667,-153.4365 408.8333,-153.4365 405,-149.6032 405,-145.7698 405,-145.7698 405,-138.1032 405,-138.1032 405,-134.2698 408.8333,-130.4365 412.6667,-130.4365 412.6667,-130.4365 598.3333,-130.4365 598.3333,-130.4365 602.1667,-130.4365 606,-134.2698 606,-138.1032 606,-138.1032 606,-145.7698 606,-145.7698 606,-149.6032 602.1667,-153.4365 598.3333,-153.4365"/>
<text text-anchor="middle" x="505.5" y="-138.2365" font-family="Arial" font-size="14.00" fill="#c6c5fe">components/mouseHelper.js</text>
</g>
<!-- helpers.js -->
<g id="node6" class="node">
<title>helpers.js</title>
<path fill="none" stroke="#c6c5fe" d="M1046.8333,-271.4365C1046.8333,-271.4365 983.1667,-271.4365 983.1667,-271.4365 979.3333,-271.4365 975.5,-267.6032 975.5,-263.7698 975.5,-263.7698 975.5,-256.1032 975.5,-256.1032 975.5,-252.2698 979.3333,-248.4365 983.1667,-248.4365 983.1667,-248.4365 1046.8333,-248.4365 1046.8333,-248.4365 1050.6667,-248.4365 1054.5,-252.2698 1054.5,-256.1032 1054.5,-256.1032 1054.5,-263.7698 1054.5,-263.7698 1054.5,-267.6032 1050.6667,-271.4365 1046.8333,-271.4365"/>
<text text-anchor="middle" x="1015" y="-256.2365" font-family="Arial" font-size="14.00" fill="#c6c5fe">helpers.js</text>
</g>
<!-- components/mouseHelper.js&#45;&gt;helpers.js -->
<g id="edge3" class="edge">
<title>components/mouseHelper.js&#45;&gt;helpers.js</title>
<path fill="none" stroke="#757575" d="M606.3017,-135.5984C677.8628,-134.1171 775.3302,-138.2926 857,-163.9365 910.5134,-180.7394 964.5911,-219.3352 993.5273,-242.1418"/>
<polygon fill="#757575" stroke="#757575" points="991.3439,-244.8773 1001.3367,-248.398 995.7205,-239.4142 991.3439,-244.8773"/>
</g>
<!-- helpers.js&#45;&gt;particle.js -->
<g id="edge28" class="edge">
<title>helpers.js&#45;&gt;particle.js</title>
<path fill="none" stroke="#757575" d="M1054.8448,-255.3312C1104.4961,-251.5128 1190.4219,-251.366 1253,-285.9365 1283.1671,-302.6019 1305.4669,-337.0087 1317.4627,-359.2509"/>
<polygon fill="#757575" stroke="#757575" points="1314.4024,-360.9528 1322.1034,-368.2292 1320.6209,-357.7386 1314.4024,-360.9528"/>
</g>
<!-- components/ruler.js -->
<g id="node7" class="node">
<title>components/ruler.js</title>
<path fill="none" stroke="#c6c5fe" d="M344.8333,-233.4365C344.8333,-233.4365 217.1667,-233.4365 217.1667,-233.4365 213.3333,-233.4365 209.5,-229.6032 209.5,-225.7698 209.5,-225.7698 209.5,-218.1032 209.5,-218.1032 209.5,-214.2698 213.3333,-210.4365 217.1667,-210.4365 217.1667,-210.4365 344.8333,-210.4365 344.8333,-210.4365 348.6667,-210.4365 352.5,-214.2698 352.5,-218.1032 352.5,-218.1032 352.5,-225.7698 352.5,-225.7698 352.5,-229.6032 348.6667,-233.4365 344.8333,-233.4365"/>
<text text-anchor="middle" x="281" y="-218.2365" font-family="Arial" font-size="14.00" fill="#c6c5fe">components/ruler.js</text>
</g>
<!-- components/ruler.js&#45;&gt;helpers.js -->
<g id="edge5" class="edge">
<title>components/ruler.js&#45;&gt;helpers.js</title>
<path fill="none" stroke="#757575" d="M340.5338,-210.365C445.7996,-191.8901 671.216,-161.2629 857,-196.9365 903.2565,-205.8185 953.2067,-228.0885 984.2917,-243.6159"/>
<polygon fill="#757575" stroke="#757575" points="982.8073,-246.7875 993.3081,-248.196 985.9776,-240.5466 982.8073,-246.7875"/>
</g>
<!-- core.js -->
<g id="node8" class="node">
<title>core.js</title>
<path fill="none" stroke="#c6c5fe" d="M527.3333,-350.4365C527.3333,-350.4365 483.6667,-350.4365 483.6667,-350.4365 479.8333,-350.4365 476,-346.6032 476,-342.7698 476,-342.7698 476,-335.1032 476,-335.1032 476,-331.2698 479.8333,-327.4365 483.6667,-327.4365 483.6667,-327.4365 527.3333,-327.4365 527.3333,-327.4365 531.1667,-327.4365 535,-331.2698 535,-335.1032 535,-335.1032 535,-342.7698 535,-342.7698 535,-346.6032 531.1667,-350.4365 527.3333,-350.4365"/>
<text text-anchor="middle" x="505.5" y="-335.2365" font-family="Arial" font-size="14.00" fill="#c6c5fe">core.js</text>
</g>
<!-- components/ruler.js&#45;&gt;core.js -->
<g id="edge4" class="edge">
<title>components/ruler.js&#45;&gt;core.js</title>
<path fill="none" stroke="#757575" d="M303.3467,-233.5826C343.6052,-254.5637 428.3894,-298.7497 474.3292,-322.6916"/>
<polygon fill="#757575" stroke="#757575" points="472.7581,-325.8196 483.2437,-327.3374 475.9933,-319.612 472.7581,-325.8196"/>
</g>
<!-- core.js&#45;&gt;components/csv.js -->
<g id="edge10" class="edge">
<title>core.js&#45;&gt;components/csv.js</title>
<path fill="none" stroke="#757575" d="M507.7865,-350.6564C516.5618,-392.2197 552.2028,-533.467 642,-596.9365 665.602,-613.6186 834.1796,-633.4614 936.4564,-644.1632"/>
<polygon fill="#757575" stroke="#757575" points="936.1371,-647.6487 946.4454,-645.2014 936.8608,-640.6862 936.1371,-647.6487"/>
</g>
<!-- core.js&#45;&gt;particle.js -->
<g id="edge16" class="edge">
<title>core.js&#45;&gt;particle.js</title>
<path fill="none" stroke="#757575" d="M524.5061,-350.547C550.1009,-365.4353 597.5751,-390.4616 642,-399.9365 698.1835,-411.9193 1127.7361,-406.562 1253,-393.9365 1261.3761,-393.0923 1270.2179,-391.7958 1278.7697,-390.3258"/>
<polygon fill="#757575" stroke="#757575" points="1279.4155,-393.7659 1288.6302,-388.5372 1278.1661,-386.8783 1279.4155,-393.7659"/>
</g>
<!-- core.js&#45;&gt;physics.js -->
<g id="edge17" class="edge">
<title>core.js&#45;&gt;physics.js</title>
<path fill="none" stroke="#757575" d="M513.8024,-350.5273C532.9799,-376.2548 583.2408,-437.9073 642,-463.9365 734.6501,-504.9788 1041.0052,-514.2615 1162.6119,-516.3424"/>
<polygon fill="#757575" stroke="#757575" points="1162.7088,-519.8443 1172.7642,-516.5066 1162.8221,-512.8452 1162.7088,-519.8443"/>
</g>
<!-- core.js&#45;&gt;helpers.js -->
<g id="edge15" class="edge">
<title>core.js&#45;&gt;helpers.js</title>
<path fill="none" stroke="#757575" d="M535.0951,-334.3477C619.2629,-321.2971 860.6556,-283.8682 965.4528,-267.619"/>
<polygon fill="#757575" stroke="#757575" points="966.1111,-271.0588 975.4567,-266.0678 965.0385,-264.1415 966.1111,-271.0588"/>
</g>
<!-- gpu/field.js -->
<g id="node10" class="node">
<title>gpu/field.js</title>
<path fill="none" stroke="#c6c5fe" d="M784.8333,-270.4365C784.8333,-270.4365 714.1667,-270.4365 714.1667,-270.4365 710.3333,-270.4365 706.5,-266.6032 706.5,-262.7698 706.5,-262.7698 706.5,-255.1032 706.5,-255.1032 706.5,-251.2698 710.3333,-247.4365 714.1667,-247.4365 714.1667,-247.4365 784.8333,-247.4365 784.8333,-247.4365 788.6667,-247.4365 792.5,-251.2698 792.5,-255.1032 792.5,-255.1032 792.5,-262.7698 792.5,-262.7698 792.5,-266.6032 788.6667,-270.4365 784.8333,-270.4365"/>
<text text-anchor="middle" x="749.5" y="-255.2365" font-family="Arial" font-size="14.00" fill="#c6c5fe">gpu/field.js</text>
</g>
<!-- core.js&#45;&gt;gpu/field.js -->
<g id="edge11" class="edge">
<title>core.js&#45;&gt;gpu/field.js</title>
<path fill="none" stroke="#757575" d="M531.5298,-327.3788C558.7097,-315.6106 602.7663,-297.3748 642,-284.9365 659.5192,-279.3824 678.9655,-274.3469 696.4489,-270.2187"/>
<polygon fill="#757575" stroke="#757575" points="697.5332,-273.5603 706.4866,-267.8958 695.955,-266.7406 697.5332,-273.5603"/>
</g>
<!-- gpu/graphics.js -->
<g id="node11" class="node">
<title>gpu/graphics.js</title>
<path fill="none" stroke="#c6c5fe" d="M799.3333,-391.4365C799.3333,-391.4365 699.6667,-391.4365 699.6667,-391.4365 695.8333,-391.4365 692,-387.6032 692,-383.7698 692,-383.7698 692,-376.1032 692,-376.1032 692,-372.2698 695.8333,-368.4365 699.6667,-368.4365 699.6667,-368.4365 799.3333,-368.4365 799.3333,-368.4365 803.1667,-368.4365 807,-372.2698 807,-376.1032 807,-376.1032 807,-383.7698 807,-383.7698 807,-387.6032 803.1667,-391.4365 799.3333,-391.4365"/>
<text text-anchor="middle" x="749.5" y="-376.2365" font-family="Arial" font-size="14.00" fill="#c6c5fe">gpu/graphics.js</text>
</g>
<!-- core.js&#45;&gt;gpu/graphics.js -->
<g id="edge12" class="edge">
<title>core.js&#45;&gt;gpu/graphics.js</title>
<path fill="none" stroke="#757575" d="M535.4192,-343.9639C571.6548,-350.0527 633.8005,-360.4952 681.8291,-368.5656"/>
<polygon fill="#757575" stroke="#757575" points="681.4075,-372.0437 691.8493,-370.2493 682.5675,-365.1405 681.4075,-372.0437"/>
</g>
<!-- gpu/shaders/computeShader.glsl.js -->
<g id="node12" class="node">
<title>gpu/shaders/computeShader.glsl.js</title>
<path fill="none" stroke="#c6c5fe" d="M1129.3333,-469.4365C1129.3333,-469.4365 900.6667,-469.4365 900.6667,-469.4365 896.8333,-469.4365 893,-465.6032 893,-461.7698 893,-461.7698 893,-454.1032 893,-454.1032 893,-450.2698 896.8333,-446.4365 900.6667,-446.4365 900.6667,-446.4365 1129.3333,-446.4365 1129.3333,-446.4365 1133.1667,-446.4365 1137,-450.2698 1137,-454.1032 1137,-454.1032 1137,-461.7698 1137,-461.7698 1137,-465.6032 1133.1667,-469.4365 1129.3333,-469.4365"/>
<text text-anchor="middle" x="1015" y="-454.2365" font-family="Arial" font-size="14.00" fill="#c6c5fe">gpu/shaders/computeShader.glsl.js</text>
</g>
<!-- core.js&#45;&gt;gpu/shaders/computeShader.glsl.js -->
<g id="edge13" class="edge">
<title>core.js&#45;&gt;gpu/shaders/computeShader.glsl.js</title>
<path fill="none" stroke="#757575" d="M517.3624,-350.6819C539.5798,-371.8173 589.94,-415.747 642,-433.9365 718.791,-460.7669 809.813,-467.076 882.7169,-466.5278"/>
<polygon fill="#757575" stroke="#757575" points="882.9229,-470.0257 892.8803,-466.4063 882.8392,-463.0262 882.9229,-470.0257"/>
</g>
<!-- gpu/simulation.js -->
<g id="node13" class="node">
<title>gpu/simulation.js</title>
<path fill="none" stroke="#c6c5fe" d="M804.3333,-350.4365C804.3333,-350.4365 694.6667,-350.4365 694.6667,-350.4365 690.8333,-350.4365 687,-346.6032 687,-342.7698 687,-342.7698 687,-335.1032 687,-335.1032 687,-331.2698 690.8333,-327.4365 694.6667,-327.4365 694.6667,-327.4365 804.3333,-327.4365 804.3333,-327.4365 808.1667,-327.4365 812,-331.2698 812,-335.1032 812,-335.1032 812,-342.7698 812,-342.7698 812,-346.6032 808.1667,-350.4365 804.3333,-350.4365"/>
<text text-anchor="middle" x="749.5" y="-335.2365" font-family="Arial" font-size="14.00" fill="#c6c5fe">gpu/simulation.js</text>
</g>
<!-- core.js&#45;&gt;gpu/simulation.js -->
<g id="edge14" class="edge">
<title>core.js&#45;&gt;gpu/simulation.js</title>
<path fill="none" stroke="#757575" d="M535.4192,-338.9365C570.3934,-338.9365 629.5053,-338.9365 676.7638,-338.9365"/>
<polygon fill="#757575" stroke="#757575" points="676.961,-342.4366 686.961,-338.9365 676.961,-335.4366 676.961,-342.4366"/>
</g>
<!-- scenarios.js -->
<g id="node14" class="node">
<title>scenarios.js</title>
<path fill="none" stroke="#cfffac" d="M788.8333,-229.4365C788.8333,-229.4365 710.1667,-229.4365 710.1667,-229.4365 706.3333,-229.4365 702.5,-225.6032 702.5,-221.7698 702.5,-221.7698 702.5,-214.1032 702.5,-214.1032 702.5,-210.2698 706.3333,-206.4365 710.1667,-206.4365 710.1667,-206.4365 788.8333,-206.4365 788.8333,-206.4365 792.6667,-206.4365 796.5,-210.2698 796.5,-214.1032 796.5,-214.1032 796.5,-221.7698 796.5,-221.7698 796.5,-225.6032 792.6667,-229.4365 788.8333,-229.4365"/>
<text text-anchor="middle" x="749.5" y="-214.2365" font-family="Arial" font-size="14.00" fill="#cfffac">scenarios.js</text>
</g>
<!-- core.js&#45;&gt;scenarios.js -->
<g id="edge18" class="edge">
<title>core.js&#45;&gt;scenarios.js</title>
<path fill="none" stroke="#757575" d="M517.097,-327.3903C539.2691,-306.0424 590.1008,-260.5233 642,-237.9365 657.64,-231.1299 675.544,-226.6375 692.1962,-223.6733"/>
<polygon fill="#757575" stroke="#757575" points="693.063,-227.0784 702.3713,-222.0182 691.939,-220.1692 693.063,-227.0784"/>
</g>
<!-- components/selectionHelper.js -->
<g id="node9" class="node">
<title>components/selectionHelper.js</title>
<path fill="none" stroke="#c6c5fe" d="M849.3333,-587.4365C849.3333,-587.4365 649.6667,-587.4365 649.6667,-587.4365 645.8333,-587.4365 642,-583.6032 642,-579.7698 642,-579.7698 642,-572.1032 642,-572.1032 642,-568.2698 645.8333,-564.4365 649.6667,-564.4365 649.6667,-564.4365 849.3333,-564.4365 849.3333,-564.4365 853.1667,-564.4365 857,-568.2698 857,-572.1032 857,-572.1032 857,-579.7698 857,-579.7698 857,-583.6032 853.1667,-587.4365 849.3333,-587.4365"/>
<text text-anchor="middle" x="749.5" y="-572.2365" font-family="Arial" font-size="14.00" fill="#c6c5fe">components/selectionHelper.js</text>
</g>
<!-- components/selectionHelper.js&#45;&gt;components/csv.js -->
<g id="edge6" class="edge">
<title>components/selectionHelper.js&#45;&gt;components/csv.js</title>
<path fill="none" stroke="#757575" d="M813.2433,-587.4547C827.9411,-591.1701 843.2802,-595.9301 857,-601.9365 874.6155,-609.6484 875.2808,-618.4661 893,-625.9365 906.6194,-631.6785 921.6483,-636.2068 936.367,-639.7604"/>
<polygon fill="#757575" stroke="#757575" points="935.9583,-643.257 946.4862,-642.0679 937.5146,-636.4322 935.9583,-643.257"/>
</g>
<!-- components/selectionHelper.js&#45;&gt;particle.js -->
<g id="edge8" class="edge">
<title>components/selectionHelper.js&#45;&gt;particle.js</title>
<path fill="none" stroke="#757575" d="M857.2408,-576.7684C869.3043,-576.8374 881.4152,-576.8961 893,-576.9365 1053.9352,-577.4972 1132.7812,-644.9313 1253,-537.9365 1294.7013,-500.8223 1314.951,-435.39 1323.0377,-401.5537"/>
<polygon fill="#757575" stroke="#757575" points="1326.4619,-402.2791 1325.2476,-391.7541 1319.6334,-400.7392 1326.4619,-402.2791"/>
</g>
<!-- components/selectionHelper.js&#45;&gt;physics.js -->
<g id="edge9" class="edge">
<title>components/selectionHelper.js&#45;&gt;physics.js</title>
<path fill="none" stroke="#757575" d="M857.0725,-578.5024C935.6803,-578.0274 1044.2894,-572.4594 1137,-549.9365 1152.5222,-546.1656 1168.8784,-539.4568 1182.4243,-533.0684"/>
<polygon fill="#757575" stroke="#757575" points="1184.289,-536.0529 1191.7391,-528.5199 1181.2174,-529.7628 1184.289,-536.0529"/>
</g>
<!-- components/selectionHelper.js&#45;&gt;helpers.js -->
<g id="edge7" class="edge">
<title>components/selectionHelper.js&#45;&gt;helpers.js</title>
<path fill="none" stroke="#757575" d="M757.3455,-564.2957C775.8901,-536.5354 823.3921,-463.9787 857,-399.9365 875.3062,-365.0527 865.5956,-347.2384 893,-318.9365 912.8664,-298.4195 941.3225,-284.0942 965.7559,-274.7018"/>
<polygon fill="#757575" stroke="#757575" points="967.0623,-277.9507 975.2439,-271.2193 964.6502,-271.3793 967.0623,-277.9507"/>
</g>
<!-- gpu/field.js&#45;&gt;particle.js -->
<g id="edge20" class="edge">
<title>gpu/field.js&#45;&gt;particle.js</title>
<path fill="none" stroke="#757575" d="M792.6657,-251.3306C821.07,-246.7192 859.1235,-241.2859 893,-238.9365 1052.7945,-227.8545 1119.6923,-167.1326 1253,-255.9365 1289.8819,-280.5057 1311.3155,-330.1187 1321.0743,-358.5776"/>
<polygon fill="#757575" stroke="#757575" points="1317.8315,-359.9239 1324.2507,-368.3527 1324.4889,-357.7606 1317.8315,-359.9239"/>
</g>
<!-- gpu/field.js&#45;&gt;helpers.js -->
<g id="edge19" class="edge">
<title>gpu/field.js&#45;&gt;helpers.js</title>
<path fill="none" stroke="#757575" d="M792.7481,-259.0994C839.9383,-259.2771 915.3733,-259.5613 965.0524,-259.7484"/>
<polygon fill="#757575" stroke="#757575" points="965.2299,-263.249 975.243,-259.7867 965.2563,-256.249 965.2299,-263.249"/>
</g>
<!-- gpu/graphics.js&#45;&gt;particle.js -->
<g id="edge24" class="edge">
<title>gpu/graphics.js&#45;&gt;particle.js</title>
<path fill="none" stroke="#757575" d="M807.034,-379.9365C920.7485,-379.9365 1172.4424,-379.9365 1278.6762,-379.9365"/>
<polygon fill="#757575" stroke="#757575" points="1278.7945,-383.4366 1288.7945,-379.9365 1278.7945,-376.4366 1278.7945,-383.4366"/>
</g>
<!-- gpu/graphics.js&#45;&gt;helpers.js -->
<g id="edge23" class="edge">
<title>gpu/graphics.js&#45;&gt;helpers.js</title>
<path fill="none" stroke="#757575" d="M807.1426,-375.641C824.0082,-372.5855 841.9438,-367.4664 857,-358.9365 877.81,-347.1469 873.8762,-333.3007 893,-318.9365 917.4958,-300.5374 948.6365,-285.5909 973.3246,-275.345"/>
<polygon fill="#757575" stroke="#757575" points="974.8281,-278.5123 982.7844,-271.5161 972.2018,-272.0237 974.8281,-278.5123"/>
</g>
<!-- gpu/graphics.js&#45;&gt;gpu/shaders/computeShader.glsl.js -->
<g id="edge21" class="edge">
<title>gpu/graphics.js&#45;&gt;gpu/shaders/computeShader.glsl.js</title>
<path fill="none" stroke="#757575" d="M788.6754,-391.4457C835.7353,-405.2711 914.7166,-428.4747 965.8304,-443.4912"/>
<polygon fill="#757575" stroke="#757575" points="965.0827,-446.9194 975.6638,-446.3801 967.0559,-440.2032 965.0827,-446.9194"/>
</g>
<!-- gpu/shaders/particleShader.glsl.js -->
<g id="node15" class="node">
<title>gpu/shaders/particleShader.glsl.js</title>
<path fill="none" stroke="#cfffac" d="M1124.3333,-351.4365C1124.3333,-351.4365 905.6667,-351.4365 905.6667,-351.4365 901.8333,-351.4365 898,-347.6032 898,-343.7698 898,-343.7698 898,-336.1032 898,-336.1032 898,-332.2698 901.8333,-328.4365 905.6667,-328.4365 905.6667,-328.4365 1124.3333,-328.4365 1124.3333,-328.4365 1128.1667,-328.4365 1132,-332.2698 1132,-336.1032 1132,-336.1032 1132,-343.7698 1132,-343.7698 1132,-347.6032 1128.1667,-351.4365 1124.3333,-351.4365"/>
<text text-anchor="middle" x="1015" y="-336.2365" font-family="Arial" font-size="14.00" fill="#cfffac">gpu/shaders/particleShader.glsl.js</text>
</g>
<!-- gpu/graphics.js&#45;&gt;gpu/shaders/particleShader.glsl.js -->
<g id="edge22" class="edge">
<title>gpu/graphics.js&#45;&gt;gpu/shaders/particleShader.glsl.js</title>
<path fill="none" stroke="#757575" d="M807.1095,-371.2571C842.5398,-365.9192 888.6177,-358.9771 928.3867,-352.9856"/>
<polygon fill="#757575" stroke="#757575" points="928.9842,-356.4351 938.3512,-351.4843 927.9413,-349.5133 928.9842,-356.4351"/>
</g>
<!-- gpu/shaders/computeShader.glsl.js&#45;&gt;physics.js -->
<g id="edge25" class="edge">
<title>gpu/shaders/computeShader.glsl.js&#45;&gt;physics.js</title>
<path fill="none" stroke="#757575" d="M1080.846,-469.4589C1099.2182,-473.3496 1119.0561,-478.1923 1137,-483.9365 1151.5517,-488.5948 1167.1118,-495.0686 1180.3383,-501.0494"/>
<polygon fill="#757575" stroke="#757575" points="1178.9629,-504.2694 1189.509,-505.2842 1181.8976,-497.9143 1178.9629,-504.2694"/>
</g>
<!-- gpu/simulation.js&#45;&gt;particle.js -->
<g id="edge27" class="edge">
<title>gpu/simulation.js&#45;&gt;particle.js</title>
<path fill="none" stroke="#757575" d="M812.1694,-328.2837C837.2261,-324.5272 866.4007,-320.7812 893,-318.9365 1001.1846,-311.4338 1029.8547,-302.2005 1137,-318.9365 1192.2763,-327.5706 1253.4248,-349.4956 1291.1634,-364.5639"/>
<polygon fill="#757575" stroke="#757575" points="1290.1162,-367.9158 1300.6988,-368.4248 1292.7434,-361.4275 1290.1162,-367.9158"/>
</g>
<!-- gpu/simulation.js&#45;&gt;helpers.js -->
<g id="edge26" class="edge">
<title>gpu/simulation.js&#45;&gt;helpers.js</title>
<path fill="none" stroke="#757575" d="M812.0823,-328.3229C827.1995,-324.5421 843.0179,-319.5259 857,-312.9365 875.0916,-304.4104 874.7936,-294.2146 893,-285.9365 915.652,-275.6371 942.5473,-269.3454 965.3136,-265.5387"/>
<polygon fill="#757575" stroke="#757575" points="966.1111,-268.9567 975.4531,-263.959 965.0335,-262.0402 966.1111,-268.9567"/>
</g>
<!-- main.js -->
<g id="node16" class="node">
<title>main.js</title>
<path fill="none" stroke="#c6c5fe" d="M54.3333,-213.4365C54.3333,-213.4365 7.6667,-213.4365 7.6667,-213.4365 3.8333,-213.4365 0,-209.6032 0,-205.7698 0,-205.7698 0,-198.1032 0,-198.1032 0,-194.2698 3.8333,-190.4365 7.6667,-190.4365 7.6667,-190.4365 54.3333,-190.4365 54.3333,-190.4365 58.1667,-190.4365 62,-194.2698 62,-198.1032 62,-198.1032 62,-205.7698 62,-205.7698 62,-209.6032 58.1667,-213.4365 54.3333,-213.4365"/>
<text text-anchor="middle" x="31" y="-198.2365" font-family="Arial" font-size="14.00" fill="#c6c5fe">main.js</text>
</g>
<!-- view.js -->
<g id="node17" class="node">
<title>view.js</title>
<path fill="none" stroke="#c6c5fe" d="M149.3333,-213.4365C149.3333,-213.4365 105.6667,-213.4365 105.6667,-213.4365 101.8333,-213.4365 98,-209.6032 98,-205.7698 98,-205.7698 98,-198.1032 98,-198.1032 98,-194.2698 101.8333,-190.4365 105.6667,-190.4365 105.6667,-190.4365 149.3333,-190.4365 149.3333,-190.4365 153.1667,-190.4365 157,-194.2698 157,-198.1032 157,-198.1032 157,-205.7698 157,-205.7698 157,-209.6032 153.1667,-213.4365 149.3333,-213.4365"/>
<text text-anchor="middle" x="127.5" y="-198.2365" font-family="Arial" font-size="14.00" fill="#c6c5fe">view.js</text>
</g>
<!-- main.js&#45;&gt;view.js -->
<g id="edge29" class="edge">
<title>main.js&#45;&gt;view.js</title>
<path fill="none" stroke="#757575" d="M62.0644,-201.9365C70.212,-201.9365 79.1116,-201.9365 87.6492,-201.9365"/>
<polygon fill="#757575" stroke="#757575" points="87.8088,-205.4366 97.8088,-201.9365 87.8087,-198.4366 87.8088,-205.4366"/>
</g>
<!-- view.js&#45;&gt;components/csv.js -->
<g id="edge31" class="edge">
<title>view.js&#45;&gt;components/csv.js</title>
<path fill="none" stroke="#757575" d="M127.6657,-213.537C128.7631,-273.0479 136.8189,-543.4683 193,-599.9365 407.4935,-815.5259 832.9267,-708.7933 970.7741,-666.4951"/>
<polygon fill="#757575" stroke="#757575" points="972.0657,-669.7589 980.5749,-663.4467 969.9866,-663.0747 972.0657,-669.7589"/>
</g>
<!-- view.js&#45;&gt;particle.js -->
<g id="edge38" class="edge">
<title>view.js&#45;&gt;particle.js</title>
<path fill="none" stroke="#757575" d="M128.2669,-190.1301C130.9506,-159.6028 142.7299,-77.9372 193,-41.9365 306.1277,39.0793 366.3546,-22.9365 505.5,-22.9365 505.5,-22.9365 505.5,-22.9365 1015,-22.9365 1194.3676,-22.9365 1294.698,-281.2433 1320.6708,-358.4168"/>
<polygon fill="#757575" stroke="#757575" points="1317.3928,-359.653 1323.8426,-368.0585 1324.0423,-357.4655 1317.3928,-359.653"/>
</g>
<!-- view.js&#45;&gt;physics.js -->
<g id="edge39" class="edge">
<title>view.js&#45;&gt;physics.js</title>
<path fill="none" stroke="#757575" d="M133.3002,-213.8237C163.2514,-273.3223 306.7093,-535.9365 505.5,-535.9365 505.5,-535.9365 505.5,-535.9365 749.5,-535.9365 899.8713,-535.9365 1077.4537,-525.8295 1162.5654,-520.3586"/>
<polygon fill="#757575" stroke="#757575" points="1162.9717,-523.8397 1172.724,-519.6993 1162.5182,-516.8544 1162.9717,-523.8397"/>
</g>
<!-- view.js&#45;&gt;components/keyboard.js -->
<g id="edge32" class="edge">
<title>view.js&#45;&gt;components/keyboard.js</title>
<path fill="none" stroke="#757575" d="M130.9641,-190.402C138.4317,-167.5266 158.2423,-116.2691 193,-88.9365 198.0951,-84.9298 203.7935,-81.54 209.7748,-78.6721"/>
<polygon fill="#757575" stroke="#757575" points="211.5369,-81.7256 219.3608,-74.5815 208.7895,-75.2873 211.5369,-81.7256"/>
</g>
<!-- view.js&#45;&gt;components/mouseHelper.js -->
<g id="edge33" class="edge">
<title>view.js&#45;&gt;components/mouseHelper.js</title>
<path fill="none" stroke="#757575" d="M145.0424,-190.3831C157.7923,-182.6114 175.7659,-172.9091 193,-167.9365 258.1459,-149.1398 333.8686,-142.4786 394.4578,-140.5939"/>
<polygon fill="#757575" stroke="#757575" points="394.9148,-144.0829 404.8164,-140.3133 394.7252,-137.0854 394.9148,-144.0829"/>
</g>
<!-- view.js&#45;&gt;helpers.js -->
<g id="edge37" class="edge">
<title>view.js&#45;&gt;helpers.js</title>
<path fill="none" stroke="#757575" d="M135.4163,-190.2294C146.3655,-175.134 167.6745,-149.4569 193,-137.9365 327.3175,-76.8362 719.0197,-79.6312 857,-131.9365 917.6486,-154.927 972.625,-210.8464 998.8328,-240.5881"/>
<polygon fill="#757575" stroke="#757575" points="996.2548,-242.9577 1005.4427,-248.2335 1001.5501,-238.3796 996.2548,-242.9577"/>
</g>
<!-- view.js&#45;&gt;components/ruler.js -->
<g id="edge34" class="edge">
<title>view.js&#45;&gt;components/ruler.js</title>
<path fill="none" stroke="#757575" d="M157.0963,-205.7927C169.3884,-207.3943 184.3151,-209.3391 199.4908,-211.3164"/>
<polygon fill="#757575" stroke="#757575" points="199.1058,-214.7957 209.4743,-212.6172 200.0103,-207.8544 199.1058,-214.7957"/>
</g>
<!-- view.js&#45;&gt;core.js -->
<g id="edge36" class="edge">
<title>view.js&#45;&gt;core.js</title>
<path fill="none" stroke="#757575" d="M143.8348,-213.4865C156.72,-222.2017 175.3954,-233.9773 193,-241.9365 287.1938,-284.5223 405.376,-315.5777 465.8489,-329.9772"/>
<polygon fill="#757575" stroke="#757575" points="465.213,-333.4232 475.749,-332.3081 466.8173,-326.6095 465.213,-333.4232"/>
</g>
<!-- view.js&#45;&gt;components/selectionHelper.js -->
<g id="edge35" class="edge">
<title>view.js&#45;&gt;components/selectionHelper.js</title>
<path fill="none" stroke="#757575" d="M127.8403,-213.6417C129.7139,-269.0811 140.6928,-504.4541 193,-549.9365 339.9203,-677.6874 599.869,-620.6088 704.2542,-590.382"/>
<polygon fill="#757575" stroke="#757575" points="705.5548,-593.6474 714.1548,-587.4595 703.573,-586.9338 705.5548,-593.6474"/>
</g>
<!-- view.js&#45;&gt;scenarios.js -->
<g id="edge40" class="edge">
<title>view.js&#45;&gt;scenarios.js</title>
<path fill="none" stroke="#757575" d="M157.1706,-201.3877C168.3953,-201.2052 181.2863,-201.0259 193,-200.9365 271.2199,-200.3394 290.7973,-199.1904 369,-200.9365 483.7546,-203.4987 617.8313,-210.4024 692.2652,-214.5819"/>
<polygon fill="#757575" stroke="#757575" points="692.1824,-218.0827 702.3641,-215.1528 692.5776,-211.0939 692.1824,-218.0827"/>
</g>
</g>
</svg>
