<?xml version="1.0" encoding="UTF-8" standalone="no"?>
<!DOCTYPE svg PUBLIC "-//W3C//DTD SVG 1.1//EN"
 "http://www.w3.org/Graphics/SVG/1.1/DTD/svg11.dtd">
<!-- Generated by graphviz version 2.40.1 (20161225.0304)
 -->
<!-- Title: G Pages: 1 -->
<svg width="1552pt" height="988pt"
 viewBox="0.00 0.00 1552.20 988.48" xmlns="http://www.w3.org/2000/svg" xmlns:xlink="http://www.w3.org/1999/xlink">
<g id="graph0" class="graph" transform="scale(1 1) rotate(0) translate(21.6 966.8803)">
<title>G</title>
<polygon fill="#111111" stroke="transparent" points="-21.6,21.6 -21.6,-966.8803 1530.6,-966.8803 1530.6,21.6 -21.6,21.6"/>
<!-- components/csv.js -->
<g id="node1" class="node">
<title>components/csv.js</title>
<path fill="none" stroke="#c6c5fe" d="M988.8333,-86.2803C988.8333,-86.2803 867.1667,-86.2803 867.1667,-86.2803 863.3333,-86.2803 859.5,-82.447 859.5,-78.6136 859.5,-78.6136 859.5,-70.947 859.5,-70.947 859.5,-67.1136 863.3333,-63.2803 867.1667,-63.2803 867.1667,-63.2803 988.8333,-63.2803 988.8333,-63.2803 992.6667,-63.2803 996.5,-67.1136 996.5,-70.947 996.5,-70.947 996.5,-78.6136 996.5,-78.6136 996.5,-82.447 992.6667,-86.2803 988.8333,-86.2803"/>
<text text-anchor="middle" x="928" y="-71.0803" font-family="Arial" font-size="14.00" fill="#c6c5fe">components/csv.js</text>
</g>
<!-- particle.js -->
<g id="node2" class="node">
<title>particle.js</title>
<path fill="none" stroke="#cfffac" d="M1501.3333,-458.2803C1501.3333,-458.2803 1439.6667,-458.2803 1439.6667,-458.2803 1435.8333,-458.2803 1432,-454.447 1432,-450.6136 1432,-450.6136 1432,-442.947 1432,-442.947 1432,-439.1136 1435.8333,-435.2803 1439.6667,-435.2803 1439.6667,-435.2803 1501.3333,-435.2803 1501.3333,-435.2803 1505.1667,-435.2803 1509,-439.1136 1509,-442.947 1509,-442.947 1509,-450.6136 1509,-450.6136 1509,-454.447 1505.1667,-458.2803 1501.3333,-458.2803"/>
<text text-anchor="middle" x="1470.5" y="-443.0803" font-family="Arial" font-size="14.00" fill="#cfffac">particle.js</text>
</g>
<!-- components/csv.js&#45;&gt;particle.js -->
<g id="edge1" class="edge">
<title>components/csv.js&#45;&gt;particle.js</title>
<path fill="none" stroke="#757575" d="M960.4518,-63.2705C1024.8276,-42.4549 1171.8087,-5.0992 1280,-54.7803 1427.8391,-122.6675 1461.7213,-353.0137 1468.7823,-425.0586"/>
<polygon fill="#757575" stroke="#757575" points="1465.314,-425.568 1469.6986,-435.213 1472.2856,-424.9389 1465.314,-425.568"/>
</g>
<!-- physics.js -->
<g id="node3" class="node">
<title>physics.js</title>
<path fill="none" stroke="#c6c5fe" d="M1388.3333,-221.2803C1388.3333,-221.2803 1323.6667,-221.2803 1323.6667,-221.2803 1319.8333,-221.2803 1316,-217.447 1316,-213.6136 1316,-213.6136 1316,-205.947 1316,-205.947 1316,-202.1136 1319.8333,-198.2803 1323.6667,-198.2803 1323.6667,-198.2803 1388.3333,-198.2803 1388.3333,-198.2803 1392.1667,-198.2803 1396,-202.1136 1396,-205.947 1396,-205.947 1396,-213.6136 1396,-213.6136 1396,-217.447 1392.1667,-221.2803 1388.3333,-221.2803"/>
<text text-anchor="middle" x="1356" y="-206.0803" font-family="Arial" font-size="14.00" fill="#c6c5fe">physics.js</text>
</g>
<!-- components/csv.js&#45;&gt;physics.js -->
<g id="edge2" class="edge">
<title>components/csv.js&#45;&gt;physics.js</title>
<path fill="none" stroke="#757575" d="M996.5104,-63.3288C1071.3143,-54.3986 1192.1474,-50.7327 1280,-100.7803 1314.507,-120.4382 1336.9721,-162.9473 1347.9866,-188.6856"/>
<polygon fill="#757575" stroke="#757575" points="1344.7506,-190.0193 1351.769,-197.9561 1351.2319,-187.3749 1344.7506,-190.0193"/>
</g>
<!-- physics.js&#45;&gt;particle.js -->
<g id="edge55" class="edge">
<title>physics.js&#45;&gt;particle.js</title>
<path fill="none" stroke="#757575" d="M1368.4966,-221.4333C1377.1235,-230.0048 1388.3712,-242.2922 1396,-254.7803 1430.9475,-311.9876 1454.6661,-388.3869 1464.8579,-425.1802"/>
<polygon fill="#757575" stroke="#757575" points="1461.4873,-426.1236 1467.4785,-434.8618 1468.2441,-424.2946 1461.4873,-426.1236"/>
</g>
<!-- components/keyboard.js -->
<g id="node4" class="node">
<title>components/keyboard.js</title>
<path fill="none" stroke="#cfffac" d="M424.3333,-282.2803C424.3333,-282.2803 263.6667,-282.2803 263.6667,-282.2803 259.8333,-282.2803 256,-278.447 256,-274.6136 256,-274.6136 256,-266.947 256,-266.947 256,-263.1136 259.8333,-259.2803 263.6667,-259.2803 263.6667,-259.2803 424.3333,-259.2803 424.3333,-259.2803 428.1667,-259.2803 432,-263.1136 432,-266.947 432,-266.947 432,-274.6136 432,-274.6136 432,-278.447 428.1667,-282.2803 424.3333,-282.2803"/>
<text text-anchor="middle" x="344" y="-267.0803" font-family="Arial" font-size="14.00" fill="#cfffac">components/keyboard.js</text>
</g>
<!-- components/mouse.js -->
<g id="node5" class="node">
<title>components/mouse.js</title>
<path fill="none" stroke="#c6c5fe" d="M805.3333,-945.2803C805.3333,-945.2803 661.6667,-945.2803 661.6667,-945.2803 657.8333,-945.2803 654,-941.447 654,-937.6136 654,-937.6136 654,-929.947 654,-929.947 654,-926.1136 657.8333,-922.2803 661.6667,-922.2803 661.6667,-922.2803 805.3333,-922.2803 805.3333,-922.2803 809.1667,-922.2803 813,-926.1136 813,-929.947 813,-929.947 813,-937.6136 813,-937.6136 813,-941.447 809.1667,-945.2803 805.3333,-945.2803"/>
<text text-anchor="middle" x="733.5" y="-930.0803" font-family="Arial" font-size="14.00" fill="#c6c5fe">components/mouse.js</text>
</g>
<!-- helpers.js -->
<g id="node6" class="node">
<title>helpers.js</title>
<path fill="none" stroke="#c6c5fe" d="M1189.8333,-597.2803C1189.8333,-597.2803 1126.1667,-597.2803 1126.1667,-597.2803 1122.3333,-597.2803 1118.5,-593.447 1118.5,-589.6136 1118.5,-589.6136 1118.5,-581.947 1118.5,-581.947 1118.5,-578.1136 1122.3333,-574.2803 1126.1667,-574.2803 1126.1667,-574.2803 1189.8333,-574.2803 1189.8333,-574.2803 1193.6667,-574.2803 1197.5,-578.1136 1197.5,-581.947 1197.5,-581.947 1197.5,-589.6136 1197.5,-589.6136 1197.5,-593.447 1193.6667,-597.2803 1189.8333,-597.2803"/>
<text text-anchor="middle" x="1158" y="-582.0803" font-family="Arial" font-size="14.00" fill="#c6c5fe">helpers.js</text>
</g>
<!-- components/mouse.js&#45;&gt;helpers.js -->
<g id="edge3" class="edge">
<title>components/mouse.js&#45;&gt;helpers.js</title>
<path fill="none" stroke="#757575" d="M813.2631,-931.2875C870.3433,-925.8075 946.2805,-910.5667 1000,-869.7803 1091.86,-800.0358 1137.761,-660.593 1152.5292,-607.2303"/>
<polygon fill="#757575" stroke="#757575" points="1155.9348,-608.0431 1155.143,-597.4779 1149.1734,-606.2309 1155.9348,-608.0431"/>
</g>
<!-- helpers.js&#45;&gt;particle.js -->
<g id="edge53" class="edge">
<title>helpers.js&#45;&gt;particle.js</title>
<path fill="none" stroke="#757575" d="M1184.1061,-574.1683C1240.0572,-549.2812 1371.5846,-490.7779 1435.0345,-462.5553"/>
<polygon fill="#757575" stroke="#757575" points="1436.534,-465.7191 1444.2485,-458.457 1433.6891,-459.3232 1436.534,-465.7191"/>
</g>
<!-- components/ruler.js -->
<g id="node7" class="node">
<title>components/ruler.js</title>
<path fill="none" stroke="#c6c5fe" d="M603.3333,-827.2803C603.3333,-827.2803 475.6667,-827.2803 475.6667,-827.2803 471.8333,-827.2803 468,-823.447 468,-819.6136 468,-819.6136 468,-811.947 468,-811.947 468,-808.1136 471.8333,-804.2803 475.6667,-804.2803 475.6667,-804.2803 603.3333,-804.2803 603.3333,-804.2803 607.1667,-804.2803 611,-808.1136 611,-811.947 611,-811.947 611,-819.6136 611,-819.6136 611,-823.447 607.1667,-827.2803 603.3333,-827.2803"/>
<text text-anchor="middle" x="539.5" y="-812.0803" font-family="Arial" font-size="14.00" fill="#c6c5fe">components/ruler.js</text>
</g>
<!-- components/ruler.js&#45;&gt;helpers.js -->
<g id="edge5" class="edge">
<title>components/ruler.js&#45;&gt;helpers.js</title>
<path fill="none" stroke="#757575" d="M611.4533,-819.6184C723.7416,-824.4057 934.5718,-828.2142 1000,-793.7803 1079.3184,-752.0362 1130.3421,-650.7596 1149.4799,-606.7635"/>
<polygon fill="#757575" stroke="#757575" points="1152.7909,-607.9201 1153.466,-597.3468 1146.3446,-605.1913 1152.7909,-607.9201"/>
</g>
<!-- core.js -->
<g id="node8" class="node">
<title>core.js</title>
<path fill="none" stroke="#c6c5fe" d="M755.3333,-557.2803C755.3333,-557.2803 711.6667,-557.2803 711.6667,-557.2803 707.8333,-557.2803 704,-553.447 704,-549.6136 704,-549.6136 704,-541.947 704,-541.947 704,-538.1136 707.8333,-534.2803 711.6667,-534.2803 711.6667,-534.2803 755.3333,-534.2803 755.3333,-534.2803 759.1667,-534.2803 763,-538.1136 763,-541.947 763,-541.947 763,-549.6136 763,-549.6136 763,-553.447 759.1667,-557.2803 755.3333,-557.2803"/>
<text text-anchor="middle" x="733.5" y="-542.0803" font-family="Arial" font-size="14.00" fill="#c6c5fe">core.js</text>
</g>
<!-- components/ruler.js&#45;&gt;core.js -->
<g id="edge4" class="edge">
<title>components/ruler.js&#45;&gt;core.js</title>
<path fill="none" stroke="#757575" d="M547.8359,-804.1787C577.9333,-762.2907 681.2151,-618.548 719.2719,-565.5823"/>
<polygon fill="#757575" stroke="#757575" points="722.2023,-567.502 725.1951,-557.3386 716.5176,-563.4174 722.2023,-567.502"/>
</g>
<!-- core.js&#45;&gt;components/csv.js -->
<g id="edge10" class="edge">
<title>core.js&#45;&gt;components/csv.js</title>
<path fill="none" stroke="#757575" d="M737.2382,-534.1471C751.1887,-491.102 802.1749,-337.0342 856,-214.7803 875.1268,-171.3373 901.439,-122.4055 916.3846,-95.426"/>
<polygon fill="#757575" stroke="#757575" points="919.5313,-96.9693 921.3422,-86.5303 913.4168,-93.5616 919.5313,-96.9693"/>
</g>
<!-- core.js&#45;&gt;particle.js -->
<g id="edge16" class="edge">
<title>core.js&#45;&gt;particle.js</title>
<path fill="none" stroke="#757575" d="M737.2111,-557.3427C748.5872,-590.5836 786.4877,-686.3526 856,-722.7803 912.6877,-752.4873 936.4035,-729.9559 1000,-722.7803 1187.6496,-701.6076 1270.1269,-709.5517 1396,-568.7803 1424.3312,-537.0958 1448.0988,-493.2021 1460.7288,-467.6162"/>
<polygon fill="#757575" stroke="#757575" points="1463.9509,-468.9927 1465.1543,-458.4664 1457.6493,-465.9447 1463.9509,-468.9927"/>
</g>
<!-- core.js&#45;&gt;physics.js -->
<g id="edge17" class="edge">
<title>core.js&#45;&gt;physics.js</title>
<path fill="none" stroke="#757575" d="M746.7698,-534.1383C766.1709,-516.3129 801.9292,-480.2549 820,-441.7803 857.0953,-362.8008 791.1013,-307.1069 856,-248.7803 888.9569,-219.1609 1185.6584,-211.9868 1305.8148,-210.2907"/>
<polygon fill="#757575" stroke="#757575" points="1305.908,-213.7898 1315.8601,-210.1559 1305.814,-206.7904 1305.908,-213.7898"/>
</g>
<!-- core.js&#45;&gt;helpers.js -->
<g id="edge15" class="edge">
<title>core.js&#45;&gt;helpers.js</title>
<path fill="none" stroke="#757575" d="M763.0759,-551.7642C787.8075,-556.5476 824.0666,-563.0495 856,-566.7803 944.3568,-577.1032 1047.9578,-582.0828 1107.9779,-584.2712"/>
<polygon fill="#757575" stroke="#757575" points="1108.1877,-587.7807 1118.3049,-584.6358 1108.4347,-580.7851 1108.1877,-587.7807"/>
</g>
<!-- gpu/field.js -->
<g id="node10" class="node">
<title>gpu/field.js</title>
<path fill="none" stroke="#c6c5fe" d="M963.3333,-713.2803C963.3333,-713.2803 892.6667,-713.2803 892.6667,-713.2803 888.8333,-713.2803 885,-709.447 885,-705.6136 885,-705.6136 885,-697.947 885,-697.947 885,-694.1136 888.8333,-690.2803 892.6667,-690.2803 892.6667,-690.2803 963.3333,-690.2803 963.3333,-690.2803 967.1667,-690.2803 971,-694.1136 971,-697.947 971,-697.947 971,-705.6136 971,-705.6136 971,-709.447 967.1667,-713.2803 963.3333,-713.2803"/>
<text text-anchor="middle" x="928" y="-698.0803" font-family="Arial" font-size="14.00" fill="#c6c5fe">gpu/field.js</text>
</g>
<!-- core.js&#45;&gt;gpu/field.js -->
<g id="edge11" class="edge">
<title>core.js&#45;&gt;gpu/field.js</title>
<path fill="none" stroke="#757575" d="M748.1191,-557.5056C781.8532,-584.5623 865.3186,-651.5063 905.5755,-683.7946"/>
<polygon fill="#757575" stroke="#757575" points="903.4858,-686.6052 913.4766,-690.1317 907.8656,-681.1446 903.4858,-686.6052"/>
</g>
<!-- gpu/graphics.js -->
<g id="node11" class="node">
<title>gpu/graphics.js</title>
<path fill="none" stroke="#c6c5fe" d="M977.8333,-360.2803C977.8333,-360.2803 878.1667,-360.2803 878.1667,-360.2803 874.3333,-360.2803 870.5,-356.447 870.5,-352.6136 870.5,-352.6136 870.5,-344.947 870.5,-344.947 870.5,-341.1136 874.3333,-337.2803 878.1667,-337.2803 878.1667,-337.2803 977.8333,-337.2803 977.8333,-337.2803 981.6667,-337.2803 985.5,-341.1136 985.5,-344.947 985.5,-344.947 985.5,-352.6136 985.5,-352.6136 985.5,-356.447 981.6667,-360.2803 977.8333,-360.2803"/>
<text text-anchor="middle" x="928" y="-345.0803" font-family="Arial" font-size="14.00" fill="#c6c5fe">gpu/graphics.js</text>
</g>
<!-- core.js&#45;&gt;gpu/graphics.js -->
<g id="edge12" class="edge">
<title>core.js&#45;&gt;gpu/graphics.js</title>
<path fill="none" stroke="#757575" d="M744.8555,-534.0099C762.3925,-515.4435 796.4938,-477.7588 820,-441.7803 839.5684,-411.829 828.5321,-392.7044 856,-369.7803 857.9681,-368.1378 860.0593,-366.6236 862.2431,-365.2279"/>
<polygon fill="#757575" stroke="#757575" points="863.9629,-368.2767 871.0601,-360.4103 860.6064,-362.1339 863.9629,-368.2767"/>
</g>
<!-- gpu/shaders/computeShader.glsl.js -->
<g id="node12" class="node">
<title>gpu/shaders/computeShader.glsl.js</title>
<path fill="none" stroke="#c6c5fe" d="M1272.3333,-320.2803C1272.3333,-320.2803 1043.6667,-320.2803 1043.6667,-320.2803 1039.8333,-320.2803 1036,-316.447 1036,-312.6136 1036,-312.6136 1036,-304.947 1036,-304.947 1036,-301.1136 1039.8333,-297.2803 1043.6667,-297.2803 1043.6667,-297.2803 1272.3333,-297.2803 1272.3333,-297.2803 1276.1667,-297.2803 1280,-301.1136 1280,-304.947 1280,-304.947 1280,-312.6136 1280,-312.6136 1280,-316.447 1276.1667,-320.2803 1272.3333,-320.2803"/>
<text text-anchor="middle" x="1158" y="-305.0803" font-family="Arial" font-size="14.00" fill="#c6c5fe">gpu/shaders/computeShader.glsl.js</text>
</g>
<!-- core.js&#45;&gt;gpu/shaders/computeShader.glsl.js -->
<g id="edge13" class="edge">
<title>core.js&#45;&gt;gpu/shaders/computeShader.glsl.js</title>
<path fill="none" stroke="#757575" d="M745.8575,-534.1312C764.4095,-516.0173 799.467,-479.2672 820,-441.7803 845.3213,-395.5515 814.4979,-361.2741 856,-328.7803 882.322,-308.1717 957.0865,-303.1087 1025.635,-303.2291"/>
<polygon fill="#757575" stroke="#757575" points="1025.6784,-306.7293 1035.6971,-303.2832 1025.7161,-299.7294 1025.6784,-306.7293"/>
</g>
<!-- gpu/simulation.js -->
<g id="node13" class="node">
<title>gpu/simulation.js</title>
<path fill="none" stroke="#c6c5fe" d="M982.8333,-401.2803C982.8333,-401.2803 873.1667,-401.2803 873.1667,-401.2803 869.3333,-401.2803 865.5,-397.447 865.5,-393.6136 865.5,-393.6136 865.5,-385.947 865.5,-385.947 865.5,-382.1136 869.3333,-378.2803 873.1667,-378.2803 873.1667,-378.2803 982.8333,-378.2803 982.8333,-378.2803 986.6667,-378.2803 990.5,-382.1136 990.5,-385.947 990.5,-385.947 990.5,-393.6136 990.5,-393.6136 990.5,-397.447 986.6667,-401.2803 982.8333,-401.2803"/>
<text text-anchor="middle" x="928" y="-386.0803" font-family="Arial" font-size="14.00" fill="#c6c5fe">gpu/simulation.js</text>
</g>
<!-- core.js&#45;&gt;gpu/simulation.js -->
<g id="edge14" class="edge">
<title>core.js&#45;&gt;gpu/simulation.js</title>
<path fill="none" stroke="#757575" d="M748.1191,-534.0549C781.8532,-506.9983 865.3186,-440.0543 905.5755,-407.766"/>
<polygon fill="#757575" stroke="#757575" points="907.8656,-410.416 913.4766,-401.4289 903.4858,-404.9554 907.8656,-410.416"/>
</g>
<!-- scenarios.js -->
<g id="node14" class="node">
<title>scenarios.js</title>
<path fill="none" stroke="#cfffac" d="M967.3333,-557.2803C967.3333,-557.2803 888.6667,-557.2803 888.6667,-557.2803 884.8333,-557.2803 881,-553.447 881,-549.6136 881,-549.6136 881,-541.947 881,-541.947 881,-538.1136 884.8333,-534.2803 888.6667,-534.2803 888.6667,-534.2803 967.3333,-534.2803 967.3333,-534.2803 971.1667,-534.2803 975,-538.1136 975,-541.947 975,-541.947 975,-549.6136 975,-549.6136 975,-553.447 971.1667,-557.2803 967.3333,-557.2803"/>
<text text-anchor="middle" x="928" y="-542.0803" font-family="Arial" font-size="14.00" fill="#cfffac">scenarios.js</text>
</g>
<!-- core.js&#45;&gt;scenarios.js -->
<g id="edge18" class="edge">
<title>core.js&#45;&gt;scenarios.js</title>
<path fill="none" stroke="#757575" d="M763.0404,-545.7803C791.477,-545.7803 835.2472,-545.7803 870.5563,-545.7803"/>
<polygon fill="#757575" stroke="#757575" points="870.7425,-549.2804 880.7424,-545.7803 870.7424,-542.2804 870.7425,-549.2804"/>
</g>
<!-- components/selection.js -->
<g id="node9" class="node">
<title>components/selection.js</title>
<path fill="none" stroke="#c6c5fe" d="M812.3333,-145.2803C812.3333,-145.2803 654.6667,-145.2803 654.6667,-145.2803 650.8333,-145.2803 647,-141.447 647,-137.6136 647,-137.6136 647,-129.947 647,-129.947 647,-126.1136 650.8333,-122.2803 654.6667,-122.2803 654.6667,-122.2803 812.3333,-122.2803 812.3333,-122.2803 816.1667,-122.2803 820,-126.1136 820,-129.947 820,-129.947 820,-137.6136 820,-137.6136 820,-141.447 816.1667,-145.2803 812.3333,-145.2803"/>
<text text-anchor="middle" x="733.5" y="-130.0803" font-family="Arial" font-size="14.00" fill="#c6c5fe">components/selection.js</text>
</g>
<!-- components/selection.js&#45;&gt;components/csv.js -->
<g id="edge6" class="edge">
<title>components/selection.js&#45;&gt;components/csv.js</title>
<path fill="none" stroke="#757575" d="M772.265,-122.1695C787.1904,-117.6882 804.3927,-112.5103 820,-107.7803 839.7217,-101.8033 861.4551,-95.1714 880.2236,-89.4298"/>
<polygon fill="#757575" stroke="#757575" points="881.489,-92.7029 890.0268,-86.4294 879.4403,-86.0094 881.489,-92.7029"/>
</g>
<!-- components/selection.js&#45;&gt;particle.js -->
<g id="edge8" class="edge">
<title>components/selection.js&#45;&gt;particle.js</title>
<path fill="none" stroke="#757575" d="M747.1045,-122.0087C768.6264,-104.0912 812.5572,-70.3164 856,-53.7803 1032.474,13.393 1095.0697,11.3785 1280,-26.7803 1334.9826,-38.1255 1360.644,-33.1712 1396,-76.7803 1440.2627,-131.3752 1462.6576,-354.2902 1468.7525,-425.0895"/>
<polygon fill="#757575" stroke="#757575" points="1465.2682,-425.4247 1469.5916,-435.0972 1472.2438,-424.8397 1465.2682,-425.4247"/>
</g>
<!-- components/selection.js&#45;&gt;physics.js -->
<g id="edge9" class="edge">
<title>components/selection.js&#45;&gt;physics.js</title>
<path fill="none" stroke="#757575" d="M785.2191,-122.2669C885.1099,-102.5664 1109.7383,-70.7217 1280,-138.7803 1305.8427,-149.1104 1328.1167,-172.739 1341.7513,-189.9079"/>
<polygon fill="#757575" stroke="#757575" points="1339.2209,-192.3618 1348.067,-198.1926 1344.7878,-188.118 1339.2209,-192.3618"/>
</g>
<!-- components/selection.js&#45;&gt;helpers.js -->
<g id="edge7" class="edge">
<title>components/selection.js&#45;&gt;helpers.js</title>
<path fill="none" stroke="#757575" d="M738.3888,-145.5705C759.8306,-197.182 844.978,-401.0683 856,-410.7803 906.1136,-454.9376 941.164,-422.1645 1000,-453.7803 1015.2119,-461.9545 1097.4966,-533.0103 1136.919,-567.3511"/>
<polygon fill="#757575" stroke="#757575" points="1134.8042,-570.1508 1144.6411,-574.0859 1139.4052,-564.8753 1134.8042,-570.1508"/>
</g>
<!-- gpu/field.js&#45;&gt;particle.js -->
<g id="edge20" class="edge">
<title>gpu/field.js&#45;&gt;particle.js</title>
<path fill="none" stroke="#757575" d="M971.0747,-696.2677C1039.6757,-686.1805 1176.5545,-660.6376 1280,-606.7803 1352.3988,-569.087 1421.7217,-499.8505 1453.055,-466.1842"/>
<polygon fill="#757575" stroke="#757575" points="1455.9902,-468.1629 1460.1813,-458.4322 1450.8369,-463.4254 1455.9902,-468.1629"/>
</g>
<!-- gpu/field.js&#45;&gt;helpers.js -->
<g id="edge19" class="edge">
<title>gpu/field.js&#45;&gt;helpers.js</title>
<path fill="none" stroke="#757575" d="M966.2196,-690.2089C977.3853,-686.2395 989.424,-681.3673 1000,-675.7803 1017.4511,-666.5613 1019.2187,-660.1687 1036,-649.7803 1065.033,-631.8076 1099.6253,-613.977 1124.5475,-601.7194"/>
<polygon fill="#757575" stroke="#757575" points="1126.1413,-604.8363 1133.594,-597.3058 1123.0719,-598.5451 1126.1413,-604.8363"/>
</g>
<!-- gpu/graphics.js&#45;&gt;particle.js -->
<g id="edge24" class="edge">
<title>gpu/graphics.js&#45;&gt;particle.js</title>
<path fill="none" stroke="#757575" d="M983.1617,-360.3245C1000.0942,-363.7852 1018.7968,-367.5242 1036,-370.7803 1175.5199,-397.1873 1340.88,-425.2124 1421.4506,-438.6576"/>
<polygon fill="#757575" stroke="#757575" points="1421.3409,-442.1875 1431.7802,-440.379 1422.4916,-435.2827 1421.3409,-442.1875"/>
</g>
<!-- gpu/graphics.js&#45;&gt;helpers.js -->
<g id="edge23" class="edge">
<title>gpu/graphics.js&#45;&gt;helpers.js</title>
<path fill="none" stroke="#757575" d="M984.9399,-360.4103C990.3597,-362.9426 995.5015,-366.0259 1000,-369.7803 1027.4679,-392.7044 1016.2957,-411.9182 1036,-441.7803 1067.8906,-490.1108 1113.8885,-540.335 1139.3204,-566.8078"/>
<polygon fill="#757575" stroke="#757575" points="1137.0421,-569.4862 1146.5144,-574.2326 1142.0694,-564.6152 1137.0421,-569.4862"/>
</g>
<!-- gpu/graphics.js&#45;&gt;gpu/shaders/computeShader.glsl.js -->
<g id="edge21" class="edge">
<title>gpu/graphics.js&#45;&gt;gpu/shaders/computeShader.glsl.js</title>
<path fill="none" stroke="#757575" d="M985.7238,-338.5847C1001.9821,-335.724 1019.6822,-332.62 1036,-329.7803 1050.4511,-327.2654 1065.8682,-324.5988 1080.709,-322.0403"/>
<polygon fill="#757575" stroke="#757575" points="1081.6118,-325.4364 1090.8724,-320.2894 1080.4233,-318.538 1081.6118,-325.4364"/>
</g>
<!-- gpu/shaders/particleShader.glsl.js -->
<g id="node15" class="node">
<title>gpu/shaders/particleShader.glsl.js</title>
<path fill="none" stroke="#cfffac" d="M1267.3333,-361.2803C1267.3333,-361.2803 1048.6667,-361.2803 1048.6667,-361.2803 1044.8333,-361.2803 1041,-357.447 1041,-353.6136 1041,-353.6136 1041,-345.947 1041,-345.947 1041,-342.1136 1044.8333,-338.2803 1048.6667,-338.2803 1048.6667,-338.2803 1267.3333,-338.2803 1267.3333,-338.2803 1271.1667,-338.2803 1275,-342.1136 1275,-345.947 1275,-345.947 1275,-353.6136 1275,-353.6136 1275,-357.447 1271.1667,-361.2803 1267.3333,-361.2803"/>
<text text-anchor="middle" x="1158" y="-346.0803" font-family="Arial" font-size="14.00" fill="#cfffac">gpu/shaders/particleShader.glsl.js</text>
</g>
<!-- gpu/graphics.js&#45;&gt;gpu/shaders/particleShader.glsl.js -->
<g id="edge22" class="edge">
<title>gpu/graphics.js&#45;&gt;gpu/shaders/particleShader.glsl.js</title>
<path fill="none" stroke="#757575" d="M985.7418,-349.0313C999.6047,-349.0916 1014.958,-349.1584 1030.6212,-349.2265"/>
<polygon fill="#757575" stroke="#757575" points="1030.9312,-352.7278 1040.9464,-349.2714 1030.9617,-345.7278 1030.9312,-352.7278"/>
</g>
<!-- gpu/shaders/computeShader.glsl.js&#45;&gt;physics.js -->
<g id="edge25" class="edge">
<title>gpu/shaders/computeShader.glsl.js&#45;&gt;physics.js</title>
<path fill="none" stroke="#757575" d="M1181.1006,-297.23C1216.3271,-279.6167 1283.5947,-245.983 1323.6596,-225.9505"/>
<polygon fill="#757575" stroke="#757575" points="1325.3614,-229.0128 1332.7404,-221.4101 1322.2309,-222.7518 1325.3614,-229.0128"/>
</g>
<!-- gpu/simulation.js&#45;&gt;particle.js -->
<g id="edge27" class="edge">
<title>gpu/simulation.js&#45;&gt;particle.js</title>
<path fill="none" stroke="#757575" d="M988.2593,-401.3665C992.329,-402.9474 996.2837,-404.7424 1000,-406.7803 1019.5665,-417.51 1015.3723,-433.2671 1036,-441.7803 1166.7035,-495.7223 1338.9317,-473.3565 1421.8151,-457.5057"/>
<polygon fill="#757575" stroke="#757575" points="1422.5723,-460.9239 1431.7103,-455.5623 1421.2232,-454.0551 1422.5723,-460.9239"/>
</g>
<!-- gpu/simulation.js&#45;&gt;physics.js -->
<g id="edge28" class="edge">
<title>gpu/simulation.js&#45;&gt;physics.js</title>
<path fill="none" stroke="#757575" d="M975.1666,-401.3293C1047.5007,-416.17 1187.1797,-433.1765 1280,-370.7803 1328.1214,-338.4318 1346.5276,-267.039 1352.9283,-231.1947"/>
<polygon fill="#757575" stroke="#757575" points="1356.3874,-231.7286 1354.5489,-221.2945 1349.4794,-230.5977 1356.3874,-231.7286"/>
</g>
<!-- gpu/simulation.js&#45;&gt;helpers.js -->
<g id="edge26" class="edge">
<title>gpu/simulation.js&#45;&gt;helpers.js</title>
<path fill="none" stroke="#757575" d="M975.1741,-401.3383C984.0527,-404.9689 992.7981,-409.6837 1000,-415.7803 1024.9091,-436.8664 1015.3795,-454.4844 1036,-479.7803 1064.9888,-515.3418 1106.7189,-548.7206 1133.0869,-568.1966"/>
<polygon fill="#757575" stroke="#757575" points="1131.2559,-571.1929 1141.3996,-574.2516 1135.3773,-565.5348 1131.2559,-571.1929"/>
</g>
<!-- gui/advanced.js -->
<g id="node16" class="node">
<title>gui/advanced.js</title>
<path fill="none" stroke="#c6c5fe" d="M591.3333,-678.2803C591.3333,-678.2803 487.6667,-678.2803 487.6667,-678.2803 483.8333,-678.2803 480,-674.447 480,-670.6136 480,-670.6136 480,-662.947 480,-662.947 480,-659.1136 483.8333,-655.2803 487.6667,-655.2803 487.6667,-655.2803 591.3333,-655.2803 591.3333,-655.2803 595.1667,-655.2803 599,-659.1136 599,-662.947 599,-662.947 599,-670.6136 599,-670.6136 599,-674.447 595.1667,-678.2803 591.3333,-678.2803"/>
<text text-anchor="middle" x="539.5" y="-663.0803" font-family="Arial" font-size="14.00" fill="#c6c5fe">gui/advanced.js</text>
</g>
<!-- gui/advanced.js&#45;&gt;helpers.js -->
<g id="edge30" class="edge">
<title>gui/advanced.js&#45;&gt;helpers.js</title>
<path fill="none" stroke="#757575" d="M599.2818,-661.3604C687.2756,-653.0816 856.7407,-635.9901 1000,-614.7803 1036.3117,-609.4043 1077.051,-601.8904 1108.0661,-595.858"/>
<polygon fill="#757575" stroke="#757575" points="1109.0506,-599.2318 1118.1911,-593.8743 1107.7047,-592.3624 1109.0506,-599.2318"/>
</g>
<!-- gui/advanced.js&#45;&gt;core.js -->
<g id="edge29" class="edge">
<title>gui/advanced.js&#45;&gt;core.js</title>
<path fill="none" stroke="#757575" d="M590.8946,-655.2206C597.8311,-652.8553 604.7155,-650.0611 611,-646.7803 652.748,-624.9862 693.3354,-587.2948 715.7156,-564.6336"/>
<polygon fill="#757575" stroke="#757575" points="718.3868,-566.907 722.8445,-557.2956 713.366,-562.0293 718.3868,-566.907"/>
</g>
<!-- gui/controls.js -->
<g id="node17" class="node">
<title>gui/controls.js</title>
<path fill="none" stroke="#c6c5fe" d="M388.8333,-483.2803C388.8333,-483.2803 299.1667,-483.2803 299.1667,-483.2803 295.3333,-483.2803 291.5,-479.447 291.5,-475.6136 291.5,-475.6136 291.5,-467.947 291.5,-467.947 291.5,-464.1136 295.3333,-460.2803 299.1667,-460.2803 299.1667,-460.2803 388.8333,-460.2803 388.8333,-460.2803 392.6667,-460.2803 396.5,-464.1136 396.5,-467.947 396.5,-467.947 396.5,-475.6136 396.5,-475.6136 396.5,-479.447 392.6667,-483.2803 388.8333,-483.2803"/>
<text text-anchor="middle" x="344" y="-468.0803" font-family="Arial" font-size="14.00" fill="#c6c5fe">gui/controls.js</text>
</g>
<!-- gui/controls.js&#45;&gt;components/csv.js -->
<g id="edge31" class="edge">
<title>gui/controls.js&#45;&gt;components/csv.js</title>
<path fill="none" stroke="#757575" d="M348.4317,-459.9516C370.2317,-403.7174 472.1371,-162.5496 647,-75.7803 718.5709,-40.2659 813.574,-49.7827 872.7356,-61.2488"/>
<polygon fill="#757575" stroke="#757575" points="872.1366,-64.6984 882.632,-63.25 873.5241,-57.8373 872.1366,-64.6984"/>
</g>
<!-- gui/controls.js&#45;&gt;helpers.js -->
<g id="edge34" class="edge">
<title>gui/controls.js&#45;&gt;helpers.js</title>
<path fill="none" stroke="#757575" d="M392.8234,-483.3949C407.3568,-489.1022 422.0425,-497.501 432,-509.7803 482.837,-572.4713 407.8872,-633.9191 468,-687.7803 644.4781,-845.905 777.9983,-805.6248 1000,-722.7803 1063.1166,-699.227 1117.7447,-637.8422 1143.0301,-605.8423"/>
<polygon fill="#757575" stroke="#757575" points="1146.0158,-607.7029 1149.3665,-597.6518 1140.4792,-603.4196 1146.0158,-607.7029"/>
</g>
<!-- gui/controls.js&#45;&gt;core.js -->
<g id="edge32" class="edge">
<title>gui/controls.js&#45;&gt;core.js</title>
<path fill="none" stroke="#757575" d="M396.5297,-481.7603C475.4984,-496.7633 623.064,-524.7989 693.7561,-538.2295"/>
<polygon fill="#757575" stroke="#757575" points="693.1334,-541.6737 703.611,-540.1018 694.44,-534.7967 693.1334,-541.6737"/>
</g>
<!-- gui/controls.js&#45;&gt;scenarios.js -->
<g id="edge35" class="edge">
<title>gui/controls.js&#45;&gt;scenarios.js</title>
<path fill="none" stroke="#757575" d="M396.575,-474.0466C450.5234,-476.7177 536.821,-481.95 611,-490.7803 704.5221,-501.9132 727.2482,-509.4271 820,-525.7803 836.5623,-528.7004 854.5312,-531.9823 870.9717,-535.0301"/>
<polygon fill="#757575" stroke="#757575" points="870.5131,-538.5047 880.9845,-536.8921 871.7931,-531.6227 870.5131,-538.5047"/>
</g>
<!-- gui/parameters.js -->
<g id="node18" class="node">
<title>gui/parameters.js</title>
<path fill="none" stroke="#c6c5fe" d="M595.8333,-443.2803C595.8333,-443.2803 483.1667,-443.2803 483.1667,-443.2803 479.3333,-443.2803 475.5,-439.447 475.5,-435.6136 475.5,-435.6136 475.5,-427.947 475.5,-427.947 475.5,-424.1136 479.3333,-420.2803 483.1667,-420.2803 483.1667,-420.2803 595.8333,-420.2803 595.8333,-420.2803 599.6667,-420.2803 603.5,-424.1136 603.5,-427.947 603.5,-427.947 603.5,-435.6136 603.5,-435.6136 603.5,-439.447 599.6667,-443.2803 595.8333,-443.2803"/>
<text text-anchor="middle" x="539.5" y="-428.0803" font-family="Arial" font-size="14.00" fill="#c6c5fe">gui/parameters.js</text>
</g>
<!-- gui/controls.js&#45;&gt;gui/parameters.js -->
<g id="edge33" class="edge">
<title>gui/controls.js&#45;&gt;gui/parameters.js</title>
<path fill="none" stroke="#757575" d="M396.6476,-461.0084C420.1058,-456.2088 448.0025,-450.501 472.8915,-445.4086"/>
<polygon fill="#757575" stroke="#757575" points="473.8927,-448.7764 482.9882,-443.3428 472.4895,-441.9184 473.8927,-448.7764"/>
</g>
<!-- gui/parameters.js&#45;&gt;physics.js -->
<g id="edge45" class="edge">
<title>gui/parameters.js&#45;&gt;physics.js</title>
<path fill="none" stroke="#757575" d="M589.5854,-420.2589C596.9285,-417.8613 604.2759,-415.0478 611,-411.7803 714.5413,-361.4658 734.5974,-335.9732 820,-258.7803 837.7436,-242.7424 834.5162,-229.292 856,-218.7803 933.909,-180.6606 1194.7841,-196.5623 1305.5609,-205.3804"/>
<polygon fill="#757575" stroke="#757575" points="1305.5516,-208.891 1315.8015,-206.2096 1306.1166,-201.9139 1305.5516,-208.891"/>
</g>
<!-- gui/parameters.js&#45;&gt;core.js -->
<g id="edge44" class="edge">
<title>gui/parameters.js&#45;&gt;core.js</title>
<path fill="none" stroke="#757575" d="M559.1694,-443.3386C593.6653,-463.6094 665.1883,-505.6384 705.0678,-529.0727"/>
<polygon fill="#757575" stroke="#757575" points="703.3837,-532.1426 713.7786,-534.1914 706.9302,-526.1075 703.3837,-532.1426"/>
</g>
<!-- gui/dat.gui.js -->
<g id="node19" class="node">
<title>gui/dat.gui.js</title>
<path fill="none" stroke="#cfffac" d="M385.3333,-241.2803C385.3333,-241.2803 302.6667,-241.2803 302.6667,-241.2803 298.8333,-241.2803 295,-237.447 295,-233.6136 295,-233.6136 295,-225.947 295,-225.947 295,-222.1136 298.8333,-218.2803 302.6667,-218.2803 302.6667,-218.2803 385.3333,-218.2803 385.3333,-218.2803 389.1667,-218.2803 393,-222.1136 393,-225.947 393,-225.947 393,-233.6136 393,-233.6136 393,-237.447 389.1667,-241.2803 385.3333,-241.2803"/>
<text text-anchor="middle" x="344" y="-226.0803" font-family="Arial" font-size="14.00" fill="#cfffac">gui/dat.gui.js</text>
</g>
<!-- gui/field.js -->
<g id="node20" class="node">
<title>gui/field.js</title>
<path fill="none" stroke="#c6c5fe" d="M376.3333,-541.2803C376.3333,-541.2803 311.6667,-541.2803 311.6667,-541.2803 307.8333,-541.2803 304,-537.447 304,-533.6136 304,-533.6136 304,-525.947 304,-525.947 304,-522.1136 307.8333,-518.2803 311.6667,-518.2803 311.6667,-518.2803 376.3333,-518.2803 376.3333,-518.2803 380.1667,-518.2803 384,-522.1136 384,-525.947 384,-525.947 384,-533.6136 384,-533.6136 384,-537.447 380.1667,-541.2803 376.3333,-541.2803"/>
<text text-anchor="middle" x="344" y="-526.0803" font-family="Arial" font-size="14.00" fill="#c6c5fe">gui/field.js</text>
</g>
<!-- gui/field.js&#45;&gt;core.js -->
<g id="edge36" class="edge">
<title>gui/field.js&#45;&gt;core.js</title>
<path fill="none" stroke="#757575" d="M384.2163,-531.4323C459.0603,-534.5068 618.8885,-541.0722 693.5388,-544.1388"/>
<polygon fill="#757575" stroke="#757575" points="693.7793,-547.6515 703.9145,-544.565 694.0666,-540.6574 693.7793,-547.6515"/>
</g>
<!-- gui/generator.js -->
<g id="node21" class="node">
<title>gui/generator.js</title>
<path fill="none" stroke="#c6c5fe" d="M589.8333,-402.2803C589.8333,-402.2803 489.1667,-402.2803 489.1667,-402.2803 485.3333,-402.2803 481.5,-398.447 481.5,-394.6136 481.5,-394.6136 481.5,-386.947 481.5,-386.947 481.5,-383.1136 485.3333,-379.2803 489.1667,-379.2803 489.1667,-379.2803 589.8333,-379.2803 589.8333,-379.2803 593.6667,-379.2803 597.5,-383.1136 597.5,-386.947 597.5,-386.947 597.5,-394.6136 597.5,-394.6136 597.5,-398.447 593.6667,-402.2803 589.8333,-402.2803"/>
<text text-anchor="middle" x="539.5" y="-387.0803" font-family="Arial" font-size="14.00" fill="#c6c5fe">gui/generator.js</text>
</g>
<!-- gui/generator.js&#45;&gt;physics.js -->
<g id="edge40" class="edge">
<title>gui/generator.js&#45;&gt;physics.js</title>
<path fill="none" stroke="#757575" d="M597.3996,-379.1981C602.2711,-376.8841 606.8951,-374.1088 611,-370.7803 637.867,-348.9948 623.2625,-326.9393 647,-301.7803 721.2773,-223.0552 751.6722,-205.5983 856,-176.7803 1037.6421,-126.606 1095.4946,-138.4518 1280,-176.7803 1296.0205,-180.1083 1312.809,-186.9942 1326.5201,-193.619"/>
<polygon fill="#757575" stroke="#757575" points="1324.9664,-196.7553 1335.4734,-198.1168 1328.1088,-190.5002 1324.9664,-196.7553"/>
</g>
<!-- gui/generator.js&#45;&gt;helpers.js -->
<g id="edge39" class="edge">
<title>gui/generator.js&#45;&gt;helpers.js</title>
<path fill="none" stroke="#757575" d="M579.5406,-402.3249C683.9344,-432.4515 959.179,-512.069 1000,-525.7803 1041.5917,-539.7504 1088.5019,-557.8713 1120.3272,-570.5276"/>
<polygon fill="#757575" stroke="#757575" points="1119.1123,-573.8111 1129.6972,-574.2694 1121.7083,-567.3103 1119.1123,-573.8111"/>
</g>
<!-- gui/generator.js&#45;&gt;core.js -->
<g id="edge38" class="edge">
<title>gui/generator.js&#45;&gt;core.js</title>
<path fill="none" stroke="#757575" d="M595.6213,-402.363C601.1474,-404.9039 606.4018,-408.0022 611,-411.7803 637.7257,-433.7389 624.6209,-454.4057 647,-480.7803 663.3978,-500.1056 686.5381,-517.1156 704.759,-528.8828"/>
<polygon fill="#757575" stroke="#757575" points="702.9287,-531.8663 713.2575,-534.2254 706.6543,-525.94 702.9287,-531.8663"/>
</g>
<!-- gui/generator.js&#45;&gt;components/selection.js -->
<g id="edge37" class="edge">
<title>gui/generator.js&#45;&gt;components/selection.js</title>
<path fill="none" stroke="#757575" d="M597.5777,-381.0172C602.5991,-378.3487 607.203,-374.9932 611,-370.7803 674.6903,-300.1133 583.9924,-231.0566 647,-159.7803 650.1222,-156.2483 653.704,-153.1874 657.5943,-150.5355"/>
<polygon fill="#757575" stroke="#757575" points="659.6406,-153.3953 666.5453,-145.3594 656.1364,-147.3355 659.6406,-153.3953"/>
</g>
<!-- scenariosHelpers.js -->
<g id="node22" class="node">
<title>scenariosHelpers.js</title>
<path fill="none" stroke="#c6c5fe" d="M992.3333,-280.2803C992.3333,-280.2803 863.6667,-280.2803 863.6667,-280.2803 859.8333,-280.2803 856,-276.447 856,-272.6136 856,-272.6136 856,-264.947 856,-264.947 856,-261.1136 859.8333,-257.2803 863.6667,-257.2803 863.6667,-257.2803 992.3333,-257.2803 992.3333,-257.2803 996.1667,-257.2803 1000,-261.1136 1000,-264.947 1000,-264.947 1000,-272.6136 1000,-272.6136 1000,-276.447 996.1667,-280.2803 992.3333,-280.2803"/>
<text text-anchor="middle" x="928" y="-265.0803" font-family="Arial" font-size="14.00" fill="#c6c5fe">scenariosHelpers.js</text>
</g>
<!-- gui/generator.js&#45;&gt;scenariosHelpers.js -->
<g id="edge41" class="edge">
<title>gui/generator.js&#45;&gt;scenariosHelpers.js</title>
<path fill="none" stroke="#757575" d="M581.9226,-379.2046C591.5058,-376.509 601.6186,-373.6005 611,-370.7803 708.8121,-341.3759 822.5909,-303.9793 883.7176,-283.6248"/>
<polygon fill="#757575" stroke="#757575" points="885.0455,-286.8715 893.425,-280.3881 882.8314,-280.2309 885.0455,-286.8715"/>
</g>
<!-- scenariosHelpers.js&#45;&gt;particle.js -->
<g id="edge57" class="edge">
<title>scenariosHelpers.js&#45;&gt;particle.js</title>
<path fill="none" stroke="#757575" d="M1000.2382,-260.0467C1073.4243,-254.1005 1188.5705,-252.8352 1280,-288.7803 1356.3096,-318.7811 1424.7056,-391.8488 1454.5842,-427.1072"/>
<polygon fill="#757575" stroke="#757575" points="1452.2422,-429.7642 1461.3319,-435.2074 1457.6206,-425.2838 1452.2422,-429.7642"/>
</g>
<!-- scenariosHelpers.js&#45;&gt;helpers.js -->
<g id="edge56" class="edge">
<title>scenariosHelpers.js&#45;&gt;helpers.js</title>
<path fill="none" stroke="#757575" d="M944.7699,-280.3093C960.2827,-291.5083 983.3844,-309.5909 1000,-328.7803 1068.2101,-407.5561 1125.8284,-519.1115 1148.1205,-564.9176"/>
<polygon fill="#757575" stroke="#757575" points="1145.0693,-566.6485 1152.5615,-574.1397 1151.3762,-563.6114 1145.0693,-566.6485"/>
</g>
<!-- gui/info.js -->
<g id="node23" class="node">
<title>gui/info.js</title>
<path fill="none" stroke="#c6c5fe" d="M570.3333,-637.2803C570.3333,-637.2803 508.6667,-637.2803 508.6667,-637.2803 504.8333,-637.2803 501,-633.447 501,-629.6136 501,-629.6136 501,-621.947 501,-621.947 501,-618.1136 504.8333,-614.2803 508.6667,-614.2803 508.6667,-614.2803 570.3333,-614.2803 570.3333,-614.2803 574.1667,-614.2803 578,-618.1136 578,-621.947 578,-621.947 578,-629.6136 578,-629.6136 578,-633.447 574.1667,-637.2803 570.3333,-637.2803"/>
<text text-anchor="middle" x="539.5" y="-622.0803" font-family="Arial" font-size="14.00" fill="#c6c5fe">gui/info.js</text>
</g>
<!-- gui/info.js&#45;&gt;helpers.js -->
<g id="edge43" class="edge">
<title>gui/info.js&#45;&gt;helpers.js</title>
<path fill="none" stroke="#757575" d="M578.1899,-623.2781C685.733,-616.323 988.1962,-596.7619 1108.116,-589.0064"/>
<polygon fill="#757575" stroke="#757575" points="1108.3736,-592.4972 1118.1269,-588.359 1107.9218,-585.5118 1108.3736,-592.4972"/>
</g>
<!-- gui/info.js&#45;&gt;core.js -->
<g id="edge42" class="edge">
<title>gui/info.js&#45;&gt;core.js</title>
<path fill="none" stroke="#757575" d="M572.7796,-614.197C584.8804,-609.8491 598.621,-604.7531 611,-599.7803 641.0825,-587.6958 674.7504,-572.7489 699.166,-561.6464"/>
<polygon fill="#757575" stroke="#757575" points="700.727,-564.7813 708.3698,-557.4439 697.8195,-558.4136 700.727,-564.7813"/>
</g>
<!-- gui/particle.js -->
<g id="node24" class="node">
<title>gui/particle.js</title>
<path fill="none" stroke="#c6c5fe" d="M582.3333,-868.2803C582.3333,-868.2803 496.6667,-868.2803 496.6667,-868.2803 492.8333,-868.2803 489,-864.447 489,-860.6136 489,-860.6136 489,-852.947 489,-852.947 489,-849.1136 492.8333,-845.2803 496.6667,-845.2803 496.6667,-845.2803 582.3333,-845.2803 582.3333,-845.2803 586.1667,-845.2803 590,-849.1136 590,-852.947 590,-852.947 590,-860.6136 590,-860.6136 590,-864.447 586.1667,-868.2803 582.3333,-868.2803"/>
<text text-anchor="middle" x="539.5" y="-853.0803" font-family="Arial" font-size="14.00" fill="#c6c5fe">gui/particle.js</text>
</g>
<!-- gui/particle.js&#45;&gt;particle.js -->
<g id="edge48" class="edge">
<title>gui/particle.js&#45;&gt;particle.js</title>
<path fill="none" stroke="#757575" d="M585.5164,-868.3288C604.4428,-872.6324 626.6569,-877.1149 647,-879.7803 770.9841,-896.0247 802.9562,-893.7803 928,-893.7803 928,-893.7803 928,-893.7803 1158,-893.7803 1367.9719,-893.7803 1448.6598,-558.3837 1466.4913,-468.6414"/>
<polygon fill="#757575" stroke="#757575" points="1469.9445,-469.218 1468.3993,-458.7365 1463.0709,-467.8939 1469.9445,-469.218"/>
</g>
<!-- gui/particle.js&#45;&gt;helpers.js -->
<g id="edge47" class="edge">
<title>gui/particle.js&#45;&gt;helpers.js</title>
<path fill="none" stroke="#757575" d="M590.0739,-866.2152C679.6515,-880.162 869.0763,-896.9801 1000,-819.7803 1084.596,-769.8978 1133.5521,-654.773 1150.8395,-607.0759"/>
<polygon fill="#757575" stroke="#757575" points="1154.2024,-608.0632 1154.2201,-597.4684 1147.5992,-605.7397 1154.2024,-608.0632"/>
</g>
<!-- gui/particle.js&#45;&gt;core.js -->
<g id="edge46" class="edge">
<title>gui/particle.js&#45;&gt;core.js</title>
<path fill="none" stroke="#757575" d="M590.1221,-848.8363C597.7205,-845.9632 605.0053,-842.0651 611,-836.7803 695.0681,-762.6667 722.9901,-621.3195 730.8258,-567.4063"/>
<polygon fill="#757575" stroke="#757575" points="734.3228,-567.6658 732.206,-557.2846 727.3869,-566.72 734.3228,-567.6658"/>
</g>
<!-- gui/selection.js -->
<g id="node25" class="node">
<title>gui/selection.js</title>
<path fill="none" stroke="#c6c5fe" d="M587.8333,-361.2803C587.8333,-361.2803 491.1667,-361.2803 491.1667,-361.2803 487.3333,-361.2803 483.5,-357.447 483.5,-353.6136 483.5,-353.6136 483.5,-345.947 483.5,-345.947 483.5,-342.1136 487.3333,-338.2803 491.1667,-338.2803 491.1667,-338.2803 587.8333,-338.2803 587.8333,-338.2803 591.6667,-338.2803 595.5,-342.1136 595.5,-345.947 595.5,-345.947 595.5,-353.6136 595.5,-353.6136 595.5,-357.447 591.6667,-361.2803 587.8333,-361.2803"/>
<text text-anchor="middle" x="539.5" y="-346.0803" font-family="Arial" font-size="14.00" fill="#c6c5fe">gui/selection.js</text>
</g>
<!-- gui/selection.js&#45;&gt;components/csv.js -->
<g id="edge49" class="edge">
<title>gui/selection.js&#45;&gt;components/csv.js</title>
<path fill="none" stroke="#757575" d="M540.8552,-338.2261C546.1075,-299.1137 568.8864,-170.9016 647,-112.7803 678.1033,-89.6375 777.3016,-80.5877 849.0304,-77.0497"/>
<polygon fill="#757575" stroke="#757575" points="849.5763,-80.5282 859.4026,-76.5667 849.2506,-73.5358 849.5763,-80.5282"/>
</g>
<!-- gui/selection.js&#45;&gt;helpers.js -->
<g id="edge52" class="edge">
<title>gui/selection.js&#45;&gt;helpers.js</title>
<path fill="none" stroke="#757575" d="M595.7554,-356.8318C654.04,-365.6665 746.6906,-384.0569 820,-418.7803 838.075,-427.3416 837.9412,-437.1849 856,-445.7803 915.5665,-474.1322 939.5918,-455.2691 1000,-481.7803 1052.2756,-504.7224 1106.4122,-544.4633 1135.7768,-567.6089"/>
<polygon fill="#757575" stroke="#757575" points="1133.7224,-570.4473 1143.7229,-573.946 1138.087,-564.9746 1133.7224,-570.4473"/>
</g>
<!-- gui/selection.js&#45;&gt;core.js -->
<g id="edge51" class="edge">
<title>gui/selection.js&#45;&gt;core.js</title>
<path fill="none" stroke="#757575" d="M593.6767,-361.3593C599.8169,-363.9059 605.746,-367.0066 611,-370.7803 667.993,-411.7157 707.6572,-487.7383 724.4743,-524.6199"/>
<polygon fill="#757575" stroke="#757575" points="721.3486,-526.205 728.6072,-533.9227 727.7457,-523.363 721.3486,-526.205"/>
</g>
<!-- gui/selection.js&#45;&gt;components/selection.js -->
<g id="edge50" class="edge">
<title>gui/selection.js&#45;&gt;components/selection.js</title>
<path fill="none" stroke="#757575" d="M591.1569,-338.2325C598.6309,-334.6443 605.606,-329.9421 611,-323.7803 660.1531,-267.6308 596.2727,-214.5118 647,-159.7803 650.3544,-156.1611 654.1912,-153.0388 658.3411,-150.3459"/>
<polygon fill="#757575" stroke="#757575" points="660.2026,-153.3157 667.2448,-145.4 656.8034,-147.1964 660.2026,-153.3157"/>
</g>
<!-- gui/stats.js -->
<g id="node26" class="node">
<title>gui/stats.js</title>
<path fill="none" stroke="#cfffac" d="M378.8333,-200.2803C378.8333,-200.2803 309.1667,-200.2803 309.1667,-200.2803 305.3333,-200.2803 301.5,-196.447 301.5,-192.6136 301.5,-192.6136 301.5,-184.947 301.5,-184.947 301.5,-181.1136 305.3333,-177.2803 309.1667,-177.2803 309.1667,-177.2803 378.8333,-177.2803 378.8333,-177.2803 382.6667,-177.2803 386.5,-181.1136 386.5,-184.947 386.5,-184.947 386.5,-192.6136 386.5,-192.6136 386.5,-196.447 382.6667,-200.2803 378.8333,-200.2803"/>
<text text-anchor="middle" x="344" y="-185.0803" font-family="Arial" font-size="14.00" fill="#cfffac">gui/stats.js</text>
</g>
<!-- main.js -->
<g id="node27" class="node">
<title>main.js</title>
<path fill="none" stroke="#c6c5fe" d="M85.8333,-483.2803C85.8333,-483.2803 39.1667,-483.2803 39.1667,-483.2803 35.3333,-483.2803 31.5,-479.447 31.5,-475.6136 31.5,-475.6136 31.5,-467.947 31.5,-467.947 31.5,-464.1136 35.3333,-460.2803 39.1667,-460.2803 39.1667,-460.2803 85.8333,-460.2803 85.8333,-460.2803 89.6667,-460.2803 93.5,-464.1136 93.5,-467.947 93.5,-467.947 93.5,-475.6136 93.5,-475.6136 93.5,-479.447 89.6667,-483.2803 85.8333,-483.2803"/>
<text text-anchor="middle" x="62.5" y="-468.0803" font-family="Arial" font-size="14.00" fill="#c6c5fe">main.js</text>
</g>
<!-- view.js -->
<g id="node28" class="node">
<title>view.js</title>
<path fill="none" stroke="#c6c5fe" d="M212.3333,-483.2803C212.3333,-483.2803 168.6667,-483.2803 168.6667,-483.2803 164.8333,-483.2803 161,-479.447 161,-475.6136 161,-475.6136 161,-467.947 161,-467.947 161,-464.1136 164.8333,-460.2803 168.6667,-460.2803 168.6667,-460.2803 212.3333,-460.2803 212.3333,-460.2803 216.1667,-460.2803 220,-464.1136 220,-467.947 220,-467.947 220,-475.6136 220,-475.6136 220,-479.447 216.1667,-483.2803 212.3333,-483.2803"/>
<text text-anchor="middle" x="190.5" y="-468.0803" font-family="Arial" font-size="14.00" fill="#c6c5fe">view.js</text>
</g>
<!-- main.js&#45;&gt;view.js -->
<g id="edge54" class="edge">
<title>main.js&#45;&gt;view.js</title>
<path fill="none" stroke="#757575" d="M93.8123,-471.7803C110.9681,-471.7803 132.4075,-471.7803 150.7355,-471.7803"/>
<polygon fill="#757575" stroke="#757575" points="150.8302,-475.2804 160.8301,-471.7803 150.8301,-468.2804 150.8302,-475.2804"/>
</g>
<!-- view.js&#45;&gt;components/keyboard.js -->
<g id="edge58" class="edge">
<title>view.js&#45;&gt;components/keyboard.js</title>
<path fill="none" stroke="#757575" d="M191.38,-460.0312C194.3649,-428.7213 206.8645,-342.5517 256,-296.7803 260.0798,-292.9798 264.689,-289.7325 269.6064,-286.9582"/>
<polygon fill="#757575" stroke="#757575" points="271.3188,-290.0164 278.7431,-282.4579 268.2258,-283.7368 271.3188,-290.0164"/>
</g>
<!-- view.js&#45;&gt;components/mouse.js -->
<g id="edge59" class="edge">
<title>view.js&#45;&gt;components/mouse.js</title>
<path fill="none" stroke="#757575" d="M191.2773,-483.3225C195.0419,-535.9863 212.9858,-753.0452 256,-802.7803 352.5185,-914.3795 534.2643,-935.2191 643.5633,-936.8352"/>
<polygon fill="#757575" stroke="#757575" points="643.5495,-940.3351 653.5831,-936.9325 643.6176,-933.3354 643.5495,-940.3351"/>
</g>
<!-- view.js&#45;&gt;components/ruler.js -->
<g id="edge60" class="edge">
<title>view.js&#45;&gt;components/ruler.js</title>
<path fill="none" stroke="#757575" d="M191.4561,-483.4382C194.7076,-516.3372 207.9717,-611.3025 256,-669.7803 314.9517,-741.558 418.3988,-781.9622 482.6992,-801.2862"/>
<polygon fill="#757575" stroke="#757575" points="482.0894,-804.7546 492.6701,-804.2081 484.058,-798.0371 482.0894,-804.7546"/>
</g>
<!-- view.js&#45;&gt;core.js -->
<g id="edge62" class="edge">
<title>view.js&#45;&gt;core.js</title>
<path fill="none" stroke="#757575" d="M195.944,-483.3887C205.2654,-501.7097 226.2022,-536.6925 256,-550.7803 404.545,-621.0094 609.2864,-579.4999 694.1764,-557.1727"/>
<polygon fill="#757575" stroke="#757575" points="695.1737,-560.5289 703.9229,-554.5538 693.3572,-553.7687 695.1737,-560.5289"/>
</g>
<!-- view.js&#45;&gt;components/selection.js -->
<g id="edge61" class="edge">
<title>view.js&#45;&gt;components/selection.js</title>
<path fill="none" stroke="#757575" d="M193.0694,-460.183C199.2755,-434.9244 217.4983,-374.6548 256,-342.7803 318.7322,-290.846 357.5166,-324.7154 432,-291.7803 534.5497,-246.4349 544.677,-205.6348 647,-159.7803 656.5429,-155.5038 666.9838,-151.691 677.2073,-148.3905"/>
<polygon fill="#757575" stroke="#757575" points="678.3905,-151.6881 686.9062,-145.3847 676.3183,-145.0019 678.3905,-151.6881"/>
</g>
<!-- view.js&#45;&gt;gui/advanced.js -->
<g id="edge63" class="edge">
<title>view.js&#45;&gt;gui/advanced.js</title>
<path fill="none" stroke="#757575" d="M191.3317,-483.5705C194.1717,-514.0843 206.2959,-595.8988 256,-633.7803 316.8508,-680.1571 407.4299,-682.5951 469.7402,-677.2259"/>
<polygon fill="#757575" stroke="#757575" points="470.2499,-680.6934 479.8739,-676.2629 469.5876,-673.7248 470.2499,-680.6934"/>
</g>
<!-- view.js&#45;&gt;gui/controls.js -->
<g id="edge64" class="edge">
<title>view.js&#45;&gt;gui/controls.js</title>
<path fill="none" stroke="#757575" d="M220.0963,-471.7803C237.4658,-471.7803 260.096,-471.7803 281.256,-471.7803"/>
<polygon fill="#757575" stroke="#757575" points="281.4961,-475.2804 291.4961,-471.7803 281.496,-468.2804 281.4961,-475.2804"/>
</g>
<!-- view.js&#45;&gt;gui/parameters.js -->
<g id="edge69" class="edge">
<title>view.js&#45;&gt;gui/parameters.js</title>
<path fill="none" stroke="#757575" d="M220.1459,-461.1764C231.2553,-457.6162 244.0757,-453.9919 256,-451.7803 326.2505,-438.7506 407.7348,-434.0622 465.2669,-432.4475"/>
<polygon fill="#757575" stroke="#757575" points="465.4562,-435.9439 475.3632,-432.1888 465.2768,-428.9462 465.4562,-435.9439"/>
</g>
<!-- view.js&#45;&gt;gui/dat.gui.js -->
<g id="edge65" class="edge">
<title>view.js&#45;&gt;gui/dat.gui.js</title>
<path fill="none" stroke="#757575" d="M192.4029,-460.0351C199.3338,-418.6726 224.4821,-280.6442 256,-250.7803 264.0309,-243.1708 274.3046,-238.1589 284.9788,-234.8913"/>
<polygon fill="#757575" stroke="#757575" points="286.0276,-238.2356 294.8415,-232.3564 284.285,-231.456 286.0276,-238.2356"/>
</g>
<!-- view.js&#45;&gt;gui/field.js -->
<g id="edge66" class="edge">
<title>view.js&#45;&gt;gui/field.js</title>
<path fill="none" stroke="#757575" d="M220.0963,-482.9633C243.8896,-491.9536 277.5541,-504.6737 303.789,-514.5865"/>
<polygon fill="#757575" stroke="#757575" points="302.8522,-517.9741 313.4439,-518.2347 305.3265,-511.4259 302.8522,-517.9741"/>
</g>
<!-- view.js&#45;&gt;gui/generator.js -->
<g id="edge67" class="edge">
<title>view.js&#45;&gt;gui/generator.js</title>
<path fill="none" stroke="#757575" d="M204.0611,-460.2284C216.6566,-450.1761 236.3728,-436.1028 256,-428.7803 326.3356,-402.5397 412.4626,-394.0392 471.2036,-391.4774"/>
<polygon fill="#757575" stroke="#757575" points="471.6224,-394.9639 481.4788,-391.0777 471.3502,-387.9692 471.6224,-394.9639"/>
</g>
<!-- view.js&#45;&gt;gui/info.js -->
<g id="edge68" class="edge">
<title>view.js&#45;&gt;gui/info.js</title>
<path fill="none" stroke="#757575" d="M192.5948,-483.4606C197.9288,-509.419 214.6441,-571.8117 256,-599.7803 326.4387,-647.4174 430.2458,-642.7679 490.7558,-634.5952"/>
<polygon fill="#757575" stroke="#757575" points="491.4074,-638.0376 500.808,-633.1509 490.4118,-631.1088 491.4074,-638.0376"/>
</g>
<!-- view.js&#45;&gt;gui/particle.js -->
<g id="edge70" class="edge">
<title>view.js&#45;&gt;gui/particle.js</title>
<path fill="none" stroke="#757575" d="M191.9781,-483.5107C198.026,-529.8986 222.1776,-699.9849 256,-740.7803 311.9789,-808.3001 413.4967,-836.9673 478.6428,-848.8189"/>
<polygon fill="#757575" stroke="#757575" points="478.3219,-852.3155 488.7736,-850.58 479.5208,-845.4189 478.3219,-852.3155"/>
</g>
<!-- view.js&#45;&gt;gui/selection.js -->
<g id="edge71" class="edge">
<title>view.js&#45;&gt;gui/selection.js</title>
<path fill="none" stroke="#757575" d="M196.064,-460.2114C205.554,-441.8689 226.7226,-406.4845 256,-389.7803 322.9323,-351.592 412.7683,-344.9871 473.2207,-345.7175"/>
<polygon fill="#757575" stroke="#757575" points="473.3418,-349.2204 483.4073,-345.9132 473.4764,-342.2217 473.3418,-349.2204"/>
</g>
<!-- view.js&#45;&gt;gui/stats.js -->
<g id="edge72" class="edge">
<title>view.js&#45;&gt;gui/stats.js</title>
<path fill="none" stroke="#757575" d="M191.8094,-460.1602C197.2149,-414.2373 219.2529,-246.1354 256,-209.7803 265.5205,-200.3613 278.4614,-194.887 291.4879,-191.7746"/>
<polygon fill="#757575" stroke="#757575" points="292.2713,-195.1877 301.4109,-189.8287 290.9242,-188.3186 292.2713,-195.1877"/>
</g>
<!-- mock/graphics.js -->
<g id="node29" class="node">
<title>mock/graphics.js</title>
<path fill="none" stroke="#cfffac" d="M117.3333,-524.2803C117.3333,-524.2803 7.6667,-524.2803 7.6667,-524.2803 3.8333,-524.2803 0,-520.447 0,-516.6136 0,-516.6136 0,-508.947 0,-508.947 0,-505.1136 3.8333,-501.2803 7.6667,-501.2803 7.6667,-501.2803 117.3333,-501.2803 117.3333,-501.2803 121.1667,-501.2803 125,-505.1136 125,-508.947 125,-508.947 125,-516.6136 125,-516.6136 125,-520.447 121.1667,-524.2803 117.3333,-524.2803"/>
<text text-anchor="middle" x="62.5" y="-509.0803" font-family="Arial" font-size="14.00" fill="#cfffac">mock/graphics.js</text>
</g>
</g>
</svg>
