<?xml version="1.0" encoding="UTF-8" standalone="no"?>
<!DOCTYPE svg PUBLIC "-//W3C//DTD SVG 1.1//EN"
 "http://www.w3.org/Graphics/SVG/1.1/DTD/svg11.dtd">
<!-- Generated by graphviz version 2.40.1 (20161225.0304)
 -->
<!-- Title: G Pages: 1 -->
<svg width="704pt" height="348pt"
 viewBox="0.00 0.00 704.20 347.74" xmlns="http://www.w3.org/2000/svg" xmlns:xlink="http://www.w3.org/1999/xlink">
<g id="graph0" class="graph" transform="scale(1 1) rotate(0) translate(21.6 326.1384)">
<title>G</title>
<polygon fill="#111111" stroke="transparent" points="-21.6,21.6 -21.6,-326.1384 682.6,-326.1384 682.6,21.6 -21.6,21.6"/>
<!-- core.js -->
<g id="node1" class="node">
<title>core.js</title>
<path fill="none" stroke="#c6c5fe" d="M244.3333,-183.5384C244.3333,-183.5384 200.6667,-183.5384 200.6667,-183.5384 196.8333,-183.5384 193,-179.7051 193,-175.8717 193,-175.8717 193,-168.2051 193,-168.2051 193,-164.3717 196.8333,-160.5384 200.6667,-160.5384 200.6667,-160.5384 244.3333,-160.5384 244.3333,-160.5384 248.1667,-160.5384 252,-164.3717 252,-168.2051 252,-168.2051 252,-175.8717 252,-175.8717 252,-179.7051 248.1667,-183.5384 244.3333,-183.5384"/>
<text text-anchor="middle" x="222.5" y="-168.3384" font-family="Arial" font-size="14.00" fill="#c6c5fe">core.js</text>
</g>
<!-- gpu/field.js -->
<g id="node2" class="node">
<title>gpu/field.js</title>
<path fill="none" stroke="#c6c5fe" d="M395.3333,-224.5384C395.3333,-224.5384 324.6667,-224.5384 324.6667,-224.5384 320.8333,-224.5384 317,-220.7051 317,-216.8717 317,-216.8717 317,-209.2051 317,-209.2051 317,-205.3717 320.8333,-201.5384 324.6667,-201.5384 324.6667,-201.5384 395.3333,-201.5384 395.3333,-201.5384 399.1667,-201.5384 403,-205.3717 403,-209.2051 403,-209.2051 403,-216.8717 403,-216.8717 403,-220.7051 399.1667,-224.5384 395.3333,-224.5384"/>
<text text-anchor="middle" x="360" y="-209.3384" font-family="Arial" font-size="14.00" fill="#c6c5fe">gpu/field.js</text>
</g>
<!-- core.js&#45;&gt;gpu/field.js -->
<g id="edge1" class="edge">
<title>core.js&#45;&gt;gpu/field.js</title>
<path fill="none" stroke="#757575" d="M252.1479,-181.1773C263.37,-184.6139 276.2651,-188.5356 288,-192.0384 295.2005,-194.1877 302.8136,-196.4352 310.2873,-198.6273"/>
<polygon fill="#757575" stroke="#757575" points="309.4051,-202.0159 319.9856,-201.4644 311.3705,-195.2974 309.4051,-202.0159"/>
</g>
<!-- gpu/graphics.js -->
<g id="node3" class="node">
<title>gpu/graphics.js</title>
<path fill="none" stroke="#c6c5fe" d="M409.8333,-183.5384C409.8333,-183.5384 310.1667,-183.5384 310.1667,-183.5384 306.3333,-183.5384 302.5,-179.7051 302.5,-175.8717 302.5,-175.8717 302.5,-168.2051 302.5,-168.2051 302.5,-164.3717 306.3333,-160.5384 310.1667,-160.5384 310.1667,-160.5384 409.8333,-160.5384 409.8333,-160.5384 413.6667,-160.5384 417.5,-164.3717 417.5,-168.2051 417.5,-168.2051 417.5,-175.8717 417.5,-175.8717 417.5,-179.7051 413.6667,-183.5384 409.8333,-183.5384"/>
<text text-anchor="middle" x="360" y="-168.3384" font-family="Arial" font-size="14.00" fill="#c6c5fe">gpu/graphics.js</text>
</g>
<!-- core.js&#45;&gt;gpu/graphics.js -->
<g id="edge2" class="edge">
<title>core.js&#45;&gt;gpu/graphics.js</title>
<path fill="none" stroke="#757575" d="M252.3355,-172.0384C264.0936,-172.0384 278.1161,-172.0384 292.0922,-172.0384"/>
<polygon fill="#757575" stroke="#757575" points="292.2278,-175.5385 302.2277,-172.0384 292.2277,-168.5385 292.2278,-175.5385"/>
</g>
<!-- gpu/simulation.js -->
<g id="node4" class="node">
<title>gpu/simulation.js</title>
<path fill="none" stroke="#c6c5fe" d="M414.8333,-62.5384C414.8333,-62.5384 305.1667,-62.5384 305.1667,-62.5384 301.3333,-62.5384 297.5,-58.7051 297.5,-54.8717 297.5,-54.8717 297.5,-47.2051 297.5,-47.2051 297.5,-43.3717 301.3333,-39.5384 305.1667,-39.5384 305.1667,-39.5384 414.8333,-39.5384 414.8333,-39.5384 418.6667,-39.5384 422.5,-43.3717 422.5,-47.2051 422.5,-47.2051 422.5,-54.8717 422.5,-54.8717 422.5,-58.7051 418.6667,-62.5384 414.8333,-62.5384"/>
<text text-anchor="middle" x="360" y="-47.3384" font-family="Arial" font-size="14.00" fill="#c6c5fe">gpu/simulation.js</text>
</g>
<!-- core.js&#45;&gt;gpu/simulation.js -->
<g id="edge3" class="edge">
<title>core.js&#45;&gt;gpu/simulation.js</title>
<path fill="none" stroke="#757575" d="M226.8001,-160.3793C235.1982,-139.2554 255.8211,-94.6589 288,-71.0384 289.8269,-69.6974 291.7398,-68.4462 293.7183,-67.279"/>
<polygon fill="#757575" stroke="#757575" points="295.4281,-70.336 302.7513,-62.6796 292.2518,-64.0981 295.4281,-70.336"/>
</g>
<!-- helpers.js -->
<g id="node5" class="node">
<title>helpers.js</title>
<path fill="none" stroke="#c6c5fe" d="M539.8333,-143.5384C539.8333,-143.5384 476.1667,-143.5384 476.1667,-143.5384 472.3333,-143.5384 468.5,-139.7051 468.5,-135.8717 468.5,-135.8717 468.5,-128.2051 468.5,-128.2051 468.5,-124.3717 472.3333,-120.5384 476.1667,-120.5384 476.1667,-120.5384 539.8333,-120.5384 539.8333,-120.5384 543.6667,-120.5384 547.5,-124.3717 547.5,-128.2051 547.5,-128.2051 547.5,-135.8717 547.5,-135.8717 547.5,-139.7051 543.6667,-143.5384 539.8333,-143.5384"/>
<text text-anchor="middle" x="508" y="-128.3384" font-family="Arial" font-size="14.00" fill="#c6c5fe">helpers.js</text>
</g>
<!-- core.js&#45;&gt;helpers.js -->
<g id="edge4" class="edge">
<title>core.js&#45;&gt;helpers.js</title>
<path fill="none" stroke="#757575" d="M252.1266,-160.987C263.2339,-157.2578 276.058,-153.4368 288,-151.0384 345.7097,-139.448 413.3329,-134.926 458.2189,-133.1629"/>
<polygon fill="#757575" stroke="#757575" points="458.4118,-136.6583 468.2787,-132.7991 458.1587,-129.6629 458.4118,-136.6583"/>
</g>
<!-- particle.js -->
<g id="node6" class="node">
<title>particle.js</title>
<path fill="none" stroke="#cfffac" d="M653.3333,-143.5384C653.3333,-143.5384 591.6667,-143.5384 591.6667,-143.5384 587.8333,-143.5384 584,-139.7051 584,-135.8717 584,-135.8717 584,-128.2051 584,-128.2051 584,-124.3717 587.8333,-120.5384 591.6667,-120.5384 591.6667,-120.5384 653.3333,-120.5384 653.3333,-120.5384 657.1667,-120.5384 661,-124.3717 661,-128.2051 661,-128.2051 661,-135.8717 661,-135.8717 661,-139.7051 657.1667,-143.5384 653.3333,-143.5384"/>
<text text-anchor="middle" x="622.5" y="-128.3384" font-family="Arial" font-size="14.00" fill="#cfffac">particle.js</text>
</g>
<!-- core.js&#45;&gt;particle.js -->
<g id="edge5" class="edge">
<title>core.js&#45;&gt;particle.js</title>
<path fill="none" stroke="#757575" d="M230.6115,-183.7572C241.6225,-198.5149 262.84,-223.1371 288,-233.0384 347.5544,-256.4751 368.7231,-242.6315 432,-233.0384 485.3714,-224.947 500.8661,-223.3513 548,-197.0384 569.8772,-184.8253 591.0273,-165.4071 605.1668,-150.9711"/>
<polygon fill="#757575" stroke="#757575" points="607.8866,-153.1908 612.2609,-143.5411 602.8238,-148.3568 607.8866,-153.1908"/>
</g>
<!-- physics.js -->
<g id="node7" class="node">
<title>physics.js</title>
<path fill="none" stroke="#c6c5fe" d="M540.3333,-25.5384C540.3333,-25.5384 475.6667,-25.5384 475.6667,-25.5384 471.8333,-25.5384 468,-21.7051 468,-17.8717 468,-17.8717 468,-10.2051 468,-10.2051 468,-6.3717 471.8333,-2.5384 475.6667,-2.5384 475.6667,-2.5384 540.3333,-2.5384 540.3333,-2.5384 544.1667,-2.5384 548,-6.3717 548,-10.2051 548,-10.2051 548,-17.8717 548,-17.8717 548,-21.7051 544.1667,-25.5384 540.3333,-25.5384"/>
<text text-anchor="middle" x="508" y="-10.3384" font-family="Arial" font-size="14.00" fill="#c6c5fe">physics.js</text>
</g>
<!-- core.js&#45;&gt;physics.js -->
<g id="edge6" class="edge">
<title>core.js&#45;&gt;physics.js</title>
<path fill="none" stroke="#757575" d="M223.9335,-160.3335C228.052,-132.3185 242.6888,-61.4118 288,-30.0384 337.7186,4.3867 409.8099,2.4297 457.7548,-4.1237"/>
<polygon fill="#757575" stroke="#757575" points="457.4951,-7.6234 467.9003,-5.628 458.5218,-.6991 457.4951,-7.6234"/>
</g>
<!-- scenarios.js -->
<g id="node8" class="node">
<title>scenarios.js</title>
<path fill="none" stroke="#cfffac" d="M399.3333,-304.5384C399.3333,-304.5384 320.6667,-304.5384 320.6667,-304.5384 316.8333,-304.5384 313,-300.7051 313,-296.8717 313,-296.8717 313,-289.2051 313,-289.2051 313,-285.3717 316.8333,-281.5384 320.6667,-281.5384 320.6667,-281.5384 399.3333,-281.5384 399.3333,-281.5384 403.1667,-281.5384 407,-285.3717 407,-289.2051 407,-289.2051 407,-296.8717 407,-296.8717 407,-300.7051 403.1667,-304.5384 399.3333,-304.5384"/>
<text text-anchor="middle" x="360" y="-289.3384" font-family="Arial" font-size="14.00" fill="#cfffac">scenarios.js</text>
</g>
<!-- core.js&#45;&gt;scenarios.js -->
<g id="edge7" class="edge">
<title>core.js&#45;&gt;scenarios.js</title>
<path fill="none" stroke="#757575" d="M227.596,-183.7182C236.8305,-203.5866 258.1744,-244.0405 288,-267.0384 293.111,-270.9794 298.8739,-274.3608 304.8573,-277.2531"/>
<polygon fill="#757575" stroke="#757575" points="303.8141,-280.6165 314.3795,-281.4057 306.6123,-274.2 303.8141,-280.6165"/>
</g>
<!-- gpu/field.js&#45;&gt;helpers.js -->
<g id="edge8" class="edge">
<title>gpu/field.js&#45;&gt;helpers.js</title>
<path fill="none" stroke="#757575" d="M403.3067,-203.334C413.0243,-200.3635 423.0887,-196.633 432,-192.0384 453.1798,-181.1183 474.2059,-163.8956 488.7549,-150.698"/>
<polygon fill="#757575" stroke="#757575" points="491.1867,-153.2161 496.1311,-143.8457 486.4225,-148.0875 491.1867,-153.2161"/>
</g>
<!-- gpu/field.js&#45;&gt;particle.js -->
<g id="edge9" class="edge">
<title>gpu/field.js&#45;&gt;particle.js</title>
<path fill="none" stroke="#757575" d="M403.147,-207.1261C441.8877,-201.0033 499.8965,-189.8012 548,-172.0384 564.4483,-165.9646 581.7652,-156.8515 595.5597,-148.8571"/>
<polygon fill="#757575" stroke="#757575" points="597.6819,-151.6676 604.4932,-143.5523 594.1078,-145.6487 597.6819,-151.6676"/>
</g>
<!-- gpu/graphics.js&#45;&gt;helpers.js -->
<g id="edge10" class="edge">
<title>gpu/graphics.js&#45;&gt;helpers.js</title>
<path fill="none" stroke="#757575" d="M402.8077,-160.4687C420.2395,-155.7575 440.4977,-150.2822 458.5557,-145.4017"/>
<polygon fill="#757575" stroke="#757575" points="459.5892,-148.7481 468.3296,-142.7601 457.7628,-141.9905 459.5892,-148.7481"/>
</g>
<!-- gpu/graphics.js&#45;&gt;particle.js -->
<g id="edge11" class="edge">
<title>gpu/graphics.js&#45;&gt;particle.js</title>
<path fill="none" stroke="#757575" d="M417.5174,-168.2615C454.9085,-165.2315 504.5992,-160.1213 548,-152.0384 556.6091,-150.4351 565.6809,-148.3459 574.4173,-146.1237"/>
<polygon fill="#757575" stroke="#757575" points="575.3158,-149.5065 584.096,-143.5771 573.5345,-142.7369 575.3158,-149.5065"/>
</g>
<!-- gpu/simulation.js&#45;&gt;helpers.js -->
<g id="edge12" class="edge">
<title>gpu/simulation.js&#45;&gt;helpers.js</title>
<path fill="none" stroke="#757575" d="M411.7145,-62.6464C418.7055,-65.0044 425.6502,-67.7837 432,-71.0384 453.5963,-82.1078 474.8511,-99.9231 489.3671,-113.4496"/>
<polygon fill="#757575" stroke="#757575" points="487.0493,-116.0758 496.6976,-120.4531 491.8848,-111.0144 487.0493,-116.0758"/>
</g>
<!-- gpu/simulation.js&#45;&gt;particle.js -->
<g id="edge13" class="edge">
<title>gpu/simulation.js&#45;&gt;particle.js</title>
<path fill="none" stroke="#757575" d="M422.7907,-62.5384C459.8029,-70.1841 507.2216,-81.497 548,-96.0384 563.0251,-101.3963 579.0332,-108.8797 592.3444,-115.6366"/>
<polygon fill="#757575" stroke="#757575" points="591.0189,-118.8918 601.5077,-120.3874 594.2409,-112.6774 591.0189,-118.8918"/>
</g>
<!-- gpu/simulation.js&#45;&gt;physics.js -->
<g id="edge14" class="edge">
<title>gpu/simulation.js&#45;&gt;physics.js</title>
<path fill="none" stroke="#757575" d="M406.0168,-39.5342C422.3196,-35.4585 440.7474,-30.8515 457.4098,-26.6859"/>
<polygon fill="#757575" stroke="#757575" points="458.6691,-29.9789 467.5217,-24.158 456.9713,-23.1879 458.6691,-29.9789"/>
</g>
<!-- helpers.js&#45;&gt;particle.js -->
<g id="edge15" class="edge">
<title>helpers.js&#45;&gt;particle.js</title>
<path fill="none" stroke="#757575" d="M547.7252,-132.0384C555.9908,-132.0384 564.7957,-132.0384 573.354,-132.0384"/>
<polygon fill="#757575" stroke="#757575" points="573.6182,-135.5385 583.6182,-132.0384 573.6182,-128.5385 573.6182,-135.5385"/>
</g>
<!-- physics.js&#45;&gt;particle.js -->
<g id="edge17" class="edge">
<title>physics.js&#45;&gt;particle.js</title>
<path fill="none" stroke="#757575" d="M528.4205,-25.5755C534.9902,-29.7301 542.0922,-34.7167 548,-40.0384 572.366,-61.9869 595.3004,-92.316 609.1219,-112.0518"/>
<polygon fill="#757575" stroke="#757575" points="606.2504,-114.0532 614.8034,-120.306 612.0165,-110.0843 606.2504,-114.0532"/>
</g>
<!-- main.js -->
<g id="node9" class="node">
<title>main.js</title>
<path fill="none" stroke="#c6c5fe" d="M54.3333,-183.5384C54.3333,-183.5384 7.6667,-183.5384 7.6667,-183.5384 3.8333,-183.5384 0,-179.7051 0,-175.8717 0,-175.8717 0,-168.2051 0,-168.2051 0,-164.3717 3.8333,-160.5384 7.6667,-160.5384 7.6667,-160.5384 54.3333,-160.5384 54.3333,-160.5384 58.1667,-160.5384 62,-164.3717 62,-168.2051 62,-168.2051 62,-175.8717 62,-175.8717 62,-179.7051 58.1667,-183.5384 54.3333,-183.5384"/>
<text text-anchor="middle" x="31" y="-168.3384" font-family="Arial" font-size="14.00" fill="#c6c5fe">main.js</text>
</g>
<!-- view.js -->
<g id="node10" class="node">
<title>view.js</title>
<path fill="none" stroke="#c6c5fe" d="M149.3333,-183.5384C149.3333,-183.5384 105.6667,-183.5384 105.6667,-183.5384 101.8333,-183.5384 98,-179.7051 98,-175.8717 98,-175.8717 98,-168.2051 98,-168.2051 98,-164.3717 101.8333,-160.5384 105.6667,-160.5384 105.6667,-160.5384 149.3333,-160.5384 149.3333,-160.5384 153.1667,-160.5384 157,-164.3717 157,-168.2051 157,-168.2051 157,-175.8717 157,-175.8717 157,-179.7051 153.1667,-183.5384 149.3333,-183.5384"/>
<text text-anchor="middle" x="127.5" y="-168.3384" font-family="Arial" font-size="14.00" fill="#c6c5fe">view.js</text>
</g>
<!-- main.js&#45;&gt;view.js -->
<g id="edge16" class="edge">
<title>main.js&#45;&gt;view.js</title>
<path fill="none" stroke="#757575" d="M62.0644,-172.0384C70.212,-172.0384 79.1116,-172.0384 87.6492,-172.0384"/>
<polygon fill="#757575" stroke="#757575" points="87.8088,-175.5385 97.8088,-172.0384 87.8087,-168.5385 87.8088,-175.5385"/>
</g>
<!-- view.js&#45;&gt;core.js -->
<g id="edge20" class="edge">
<title>view.js&#45;&gt;core.js</title>
<path fill="none" stroke="#757575" d="M157.0378,-172.0384C165.1697,-172.0384 174.1252,-172.0384 182.7327,-172.0384"/>
<polygon fill="#757575" stroke="#757575" points="182.9805,-175.5385 192.9804,-172.0384 182.9804,-168.5385 182.9805,-175.5385"/>
</g>
<!-- scenariosHelpers.js -->
<g id="node11" class="node">
<title>scenariosHelpers.js</title>
<path fill="none" stroke="#c6c5fe" d="M424.3333,-103.5384C424.3333,-103.5384 295.6667,-103.5384 295.6667,-103.5384 291.8333,-103.5384 288,-99.7051 288,-95.8717 288,-95.8717 288,-88.2051 288,-88.2051 288,-84.3717 291.8333,-80.5384 295.6667,-80.5384 295.6667,-80.5384 424.3333,-80.5384 424.3333,-80.5384 428.1667,-80.5384 432,-84.3717 432,-88.2051 432,-88.2051 432,-95.8717 432,-95.8717 432,-99.7051 428.1667,-103.5384 424.3333,-103.5384"/>
<text text-anchor="middle" x="360" y="-88.3384" font-family="Arial" font-size="14.00" fill="#c6c5fe">scenariosHelpers.js</text>
</g>
<!-- scenariosHelpers.js&#45;&gt;helpers.js -->
<g id="edge18" class="edge">
<title>scenariosHelpers.js&#45;&gt;helpers.js</title>
<path fill="none" stroke="#757575" d="M402.8077,-103.608C420.2395,-108.3193 440.4977,-113.7945 458.5557,-118.6751"/>
<polygon fill="#757575" stroke="#757575" points="457.7628,-122.0863 468.3296,-121.3167 459.5892,-115.3287 457.7628,-122.0863"/>
</g>
<!-- scenariosHelpers.js&#45;&gt;particle.js -->
<g id="edge19" class="edge">
<title>scenariosHelpers.js&#45;&gt;particle.js</title>
<path fill="none" stroke="#757575" d="M432.2881,-96.3877C467.4195,-99.2515 510.1312,-103.8443 548,-111.0384 557.3074,-112.8065 567.1385,-115.1935 576.499,-117.7243"/>
<polygon fill="#757575" stroke="#757575" points="575.851,-121.1774 586.4244,-120.5044 577.7391,-114.4368 575.851,-121.1774"/>
</g>
</g>
</svg>
