<?xml version="1.0" encoding="UTF-8" standalone="no"?>
<!DOCTYPE svg PUBLIC "-//W3C//DTD SVG 1.1//EN"
 "http://www.w3.org/Graphics/SVG/1.1/DTD/svg11.dtd">
<!-- Generated by graphviz version 2.43.0 (0)
 -->
<!-- Title: G Pages: 1 -->
<svg width="1261pt" height="426pt"
 viewBox="0.00 0.00 1261.20 426.20" xmlns="http://www.w3.org/2000/svg" xmlns:xlink="http://www.w3.org/1999/xlink">
<g id="graph0" class="graph" transform="scale(1 1) rotate(0) translate(21.6 404.6)">
<title>G</title>
<polygon fill="#111111" stroke="transparent" points="-21.6,21.6 -21.6,-404.6 1239.6,-404.6 1239.6,21.6 -21.6,21.6"/>
<!-- main.js -->
<g id="node1" class="node">
<title>main.js</title>
<path fill="none" stroke="#c6c5fe" d="M52.33,-63C52.33,-63 7.67,-63 7.67,-63 3.83,-63 0,-59.17 0,-55.33 0,-55.33 0,-47.67 0,-47.67 0,-43.83 3.83,-40 7.67,-40 7.67,-40 52.33,-40 52.33,-40 56.17,-40 60,-43.83 60,-47.67 60,-47.67 60,-55.33 60,-55.33 60,-59.17 56.17,-63 52.33,-63"/>
<text text-anchor="middle" x="30" y="-47.8" font-family="Arial" font-size="14.00" fill="#c6c5fe">main.js</text>
</g>
<!-- simulation/view.js -->
<g id="node2" class="node">
<title>simulation/view.js</title>
<path fill="none" stroke="#c6c5fe" d="M210.33,-63C210.33,-63 103.67,-63 103.67,-63 99.83,-63 96,-59.17 96,-55.33 96,-55.33 96,-47.67 96,-47.67 96,-43.83 99.83,-40 103.67,-40 103.67,-40 210.33,-40 210.33,-40 214.17,-40 218,-43.83 218,-47.67 218,-47.67 218,-55.33 218,-55.33 218,-59.17 214.17,-63 210.33,-63"/>
<text text-anchor="middle" x="157" y="-47.8" font-family="Arial" font-size="14.00" fill="#c6c5fe">simulation/view.js</text>
</g>
<!-- main.js&#45;&gt;simulation/view.js -->
<g id="edge1" class="edge">
<title>main.js&#45;&gt;simulation/view.js</title>
<path fill="none" stroke="#757575" d="M60.31,-51.5C68.07,-51.5 76.79,-51.5 85.72,-51.5"/>
<polygon fill="#757575" stroke="#757575" points="85.87,-55 95.87,-51.5 85.87,-48 85.87,-55"/>
</g>
<!-- simulation/core.js -->
<g id="node3" class="node">
<title>simulation/core.js</title>
<path fill="none" stroke="#c6c5fe" d="M368.33,-181C368.33,-181 261.67,-181 261.67,-181 257.83,-181 254,-177.17 254,-173.33 254,-173.33 254,-165.67 254,-165.67 254,-161.83 257.83,-158 261.67,-158 261.67,-158 368.33,-158 368.33,-158 372.17,-158 376,-161.83 376,-165.67 376,-165.67 376,-173.33 376,-173.33 376,-177.17 372.17,-181 368.33,-181"/>
<text text-anchor="middle" x="315" y="-165.8" font-family="Arial" font-size="14.00" fill="#c6c5fe">simulation/core.js</text>
</g>
<!-- simulation/view.js&#45;&gt;simulation/core.js -->
<g id="edge15" class="edge">
<title>simulation/view.js&#45;&gt;simulation/core.js</title>
<path fill="none" stroke="#757575" d="M173.24,-63.03C200.55,-83.68 257.98,-127.13 290.41,-151.66"/>
<polygon fill="#757575" stroke="#757575" points="288.38,-154.51 298.47,-157.75 292.6,-148.93 288.38,-154.51"/>
</g>
<!-- simulation/particle.js -->
<g id="node6" class="node">
<title>simulation/particle.js</title>
<path fill="none" stroke="#cfffac" d="M1210.33,-221C1210.33,-221 1086.67,-221 1086.67,-221 1082.83,-221 1079,-217.17 1079,-213.33 1079,-213.33 1079,-205.67 1079,-205.67 1079,-201.83 1082.83,-198 1086.67,-198 1086.67,-198 1210.33,-198 1210.33,-198 1214.17,-198 1218,-201.83 1218,-205.67 1218,-205.67 1218,-213.33 1218,-213.33 1218,-217.17 1214.17,-221 1210.33,-221"/>
<text text-anchor="middle" x="1148.5" y="-205.8" font-family="Arial" font-size="14.00" fill="#cfffac">simulation/particle.js</text>
</g>
<!-- simulation/view.js&#45;&gt;simulation/particle.js -->
<g id="edge16" class="edge">
<title>simulation/view.js&#45;&gt;simulation/particle.js</title>
<path fill="none" stroke="#757575" d="M218.13,-51.5C284.18,-51.5 393.4,-51.5 487.5,-51.5 487.5,-51.5 487.5,-51.5 735,-51.5 891.05,-51.5 1059.66,-151.33 1122.25,-192.29"/>
<polygon fill="#757575" stroke="#757575" points="1120.44,-195.28 1130.71,-197.88 1124.3,-189.44 1120.44,-195.28"/>
</g>
<!-- ui/App.jsx -->
<g id="node12" class="node">
<title>ui/App.jsx</title>
<path fill="none" stroke="#cfffac" d="M344.83,-23C344.83,-23 285.17,-23 285.17,-23 281.33,-23 277.5,-19.17 277.5,-15.33 277.5,-15.33 277.5,-7.67 277.5,-7.67 277.5,-3.83 281.33,0 285.17,0 285.17,0 344.83,0 344.83,0 348.67,0 352.5,-3.83 352.5,-7.67 352.5,-7.67 352.5,-15.33 352.5,-15.33 352.5,-19.17 348.67,-23 344.83,-23"/>
<text text-anchor="middle" x="315" y="-7.8" font-family="Arial" font-size="14.00" fill="#cfffac">ui/App.jsx</text>
</g>
<!-- simulation/view.js&#45;&gt;ui/App.jsx -->
<g id="edge17" class="edge">
<title>simulation/view.js&#45;&gt;ui/App.jsx</title>
<path fill="none" stroke="#757575" d="M203.12,-39.93C223.38,-34.74 247.27,-28.61 267.67,-23.38"/>
<polygon fill="#757575" stroke="#757575" points="268.56,-26.77 277.37,-20.89 266.82,-19.99 268.56,-26.77"/>
</g>
<!-- simulation/field.js -->
<g id="node4" class="node">
<title>simulation/field.js</title>
<path fill="none" stroke="#c6c5fe" d="M1025.33,-383C1025.33,-383 920.67,-383 920.67,-383 916.83,-383 913,-379.17 913,-375.33 913,-375.33 913,-367.67 913,-367.67 913,-363.83 916.83,-360 920.67,-360 920.67,-360 1025.33,-360 1025.33,-360 1029.17,-360 1033,-363.83 1033,-367.67 1033,-367.67 1033,-375.33 1033,-375.33 1033,-379.17 1029.17,-383 1025.33,-383"/>
<text text-anchor="middle" x="973" y="-367.8" font-family="Arial" font-size="14.00" fill="#c6c5fe">simulation/field.js</text>
</g>
<!-- simulation/core.js&#45;&gt;simulation/field.js -->
<g id="edge2" class="edge">
<title>simulation/core.js&#45;&gt;simulation/field.js</title>
<path fill="none" stroke="#757575" d="M321.56,-181.19C333.99,-205.99 366.58,-263.97 412,-292.5 566,-389.23 790.3,-387.34 902.56,-378.91"/>
<polygon fill="#757575" stroke="#757575" points="903.05,-382.38 912.74,-378.1 902.49,-375.4 903.05,-382.38"/>
</g>
<!-- simulation/graphics.js -->
<g id="node5" class="node">
<title>simulation/graphics.js</title>
<path fill="none" stroke="#c6c5fe" d="M553.83,-283C553.83,-283 423.17,-283 423.17,-283 419.33,-283 415.5,-279.17 415.5,-275.33 415.5,-275.33 415.5,-267.67 415.5,-267.67 415.5,-263.83 419.33,-260 423.17,-260 423.17,-260 553.83,-260 553.83,-260 557.67,-260 561.5,-263.83 561.5,-267.67 561.5,-267.67 561.5,-275.33 561.5,-275.33 561.5,-279.17 557.67,-283 553.83,-283"/>
<text text-anchor="middle" x="488.5" y="-267.8" font-family="Arial" font-size="14.00" fill="#c6c5fe">simulation/graphics.js</text>
</g>
<!-- simulation/core.js&#45;&gt;simulation/graphics.js -->
<g id="edge3" class="edge">
<title>simulation/core.js&#45;&gt;simulation/graphics.js</title>
<path fill="none" stroke="#757575" d="M335.34,-181C365.58,-198.99 424.2,-233.85 459.19,-254.66"/>
<polygon fill="#757575" stroke="#757575" points="457.58,-257.78 467.97,-259.88 461.16,-251.76 457.58,-257.78"/>
</g>
<!-- simulation/core.js&#45;&gt;simulation/particle.js -->
<g id="edge4" class="edge">
<title>simulation/core.js&#45;&gt;simulation/particle.js</title>
<path fill="none" stroke="#757575" d="M376.16,-166.61C388.04,-166.15 400.41,-165.74 412,-165.5 479.99,-164.08 497,-165.27 565,-165.5 699.22,-165.94 733.06,-158.72 867,-167.5 945.66,-172.66 965.14,-177.2 1043,-189.5 1055.31,-191.45 1068.39,-193.75 1080.98,-196.1"/>
<polygon fill="#757575" stroke="#757575" points="1080.47,-199.57 1090.94,-197.98 1081.77,-192.69 1080.47,-199.57"/>
</g>
<!-- simulation/physics.js -->
<g id="node7" class="node">
<title>simulation/physics.js</title>
<path fill="none" stroke="#c6c5fe" d="M1035.33,-221C1035.33,-221 910.67,-221 910.67,-221 906.83,-221 903,-217.17 903,-213.33 903,-213.33 903,-205.67 903,-205.67 903,-201.83 906.83,-198 910.67,-198 910.67,-198 1035.33,-198 1035.33,-198 1039.17,-198 1043,-201.83 1043,-205.67 1043,-205.67 1043,-213.33 1043,-213.33 1043,-217.17 1039.17,-221 1035.33,-221"/>
<text text-anchor="middle" x="973" y="-205.8" font-family="Arial" font-size="14.00" fill="#c6c5fe">simulation/physics.js</text>
</g>
<!-- simulation/core.js&#45;&gt;simulation/physics.js -->
<g id="edge5" class="edge">
<title>simulation/core.js&#45;&gt;simulation/physics.js</title>
<path fill="none" stroke="#757575" d="M376.15,-168.7C477.68,-168.02 689.36,-169.48 867,-189.5 880.95,-191.07 895.82,-193.46 909.85,-196.05"/>
<polygon fill="#757575" stroke="#757575" points="909.42,-199.53 919.9,-197.96 910.73,-192.65 909.42,-199.53"/>
</g>
<!-- simulation/scenarios.js -->
<g id="node8" class="node">
<title>simulation/scenarios.js</title>
<path fill="none" stroke="#cfffac" d="M557.33,-103C557.33,-103 419.67,-103 419.67,-103 415.83,-103 412,-99.17 412,-95.33 412,-95.33 412,-87.67 412,-87.67 412,-83.83 415.83,-80 419.67,-80 419.67,-80 557.33,-80 557.33,-80 561.17,-80 565,-83.83 565,-87.67 565,-87.67 565,-95.33 565,-95.33 565,-99.17 561.17,-103 557.33,-103"/>
<text text-anchor="middle" x="488.5" y="-87.8" font-family="Arial" font-size="14.00" fill="#cfffac">simulation/scenarios.js</text>
</g>
<!-- simulation/core.js&#45;&gt;simulation/scenarios.js -->
<g id="edge6" class="edge">
<title>simulation/core.js&#45;&gt;simulation/scenarios.js</title>
<path fill="none" stroke="#757575" d="M335.02,-157.98C354.06,-146.75 384.41,-129.62 412,-117.5 420.95,-113.57 430.7,-109.83 440.12,-106.48"/>
<polygon fill="#757575" stroke="#757575" points="441.48,-109.71 449.78,-103.13 439.19,-103.1 441.48,-109.71"/>
</g>
<!-- simulation/simulation.js -->
<g id="node9" class="node">
<title>simulation/simulation.js</title>
<path fill="none" stroke="#c6c5fe" d="M804.83,-221C804.83,-221 663.17,-221 663.17,-221 659.33,-221 655.5,-217.17 655.5,-213.33 655.5,-213.33 655.5,-205.67 655.5,-205.67 655.5,-201.83 659.33,-198 663.17,-198 663.17,-198 804.83,-198 804.83,-198 808.67,-198 812.5,-201.83 812.5,-205.67 812.5,-205.67 812.5,-213.33 812.5,-213.33 812.5,-217.17 808.67,-221 804.83,-221"/>
<text text-anchor="middle" x="734" y="-205.8" font-family="Arial" font-size="14.00" fill="#c6c5fe">simulation/simulation.js</text>
</g>
<!-- simulation/core.js&#45;&gt;simulation/simulation.js -->
<g id="edge7" class="edge">
<title>simulation/core.js&#45;&gt;simulation/simulation.js</title>
<path fill="none" stroke="#757575" d="M376.1,-178.87C387.98,-180.55 400.37,-182.18 412,-183.5 490.71,-192.42 580.61,-199.43 645.21,-203.91"/>
<polygon fill="#757575" stroke="#757575" points="645.14,-207.41 655.35,-204.61 645.62,-200.43 645.14,-207.41"/>
</g>
<!-- simulation/field.js&#45;&gt;simulation/particle.js -->
<g id="edge8" class="edge">
<title>simulation/field.js&#45;&gt;simulation/particle.js</title>
<path fill="none" stroke="#757575" d="M1016.05,-359.9C1025.44,-356.18 1034.98,-351.45 1043,-345.5 1085.98,-313.63 1120.11,-259.5 1136.64,-230.06"/>
<polygon fill="#757575" stroke="#757575" points="1139.82,-231.54 1141.55,-221.08 1133.68,-228.17 1139.82,-231.54"/>
</g>
<!-- simulation/graphics.js&#45;&gt;simulation/particle.js -->
<g id="edge9" class="edge">
<title>simulation/graphics.js&#45;&gt;simulation/particle.js</title>
<path fill="none" stroke="#757575" d="M513.6,-283.19C535.73,-293.23 569.73,-306.93 601,-312.5 717.39,-333.22 750.6,-333.19 867,-312.5 960.81,-295.82 1064.39,-250.06 1115.44,-225.53"/>
<polygon fill="#757575" stroke="#757575" points="1117.17,-228.58 1124.64,-221.06 1114.11,-222.28 1117.17,-228.58"/>
</g>
<!-- simulation/shaders/computeShader.glsl.js -->
<g id="node10" class="node">
<title>simulation/shaders/computeShader.glsl.js</title>
<path fill="none" stroke="#c6c5fe" d="M859.33,-262C859.33,-262 608.67,-262 608.67,-262 604.83,-262 601,-258.17 601,-254.33 601,-254.33 601,-246.67 601,-246.67 601,-242.83 604.83,-239 608.67,-239 608.67,-239 859.33,-239 859.33,-239 863.17,-239 867,-242.83 867,-246.67 867,-246.67 867,-254.33 867,-254.33 867,-258.17 863.17,-262 859.33,-262"/>
<text text-anchor="middle" x="734" y="-246.8" font-family="Arial" font-size="14.00" fill="#c6c5fe">simulation/shaders/computeShader.glsl.js</text>
</g>
<!-- simulation/graphics.js&#45;&gt;simulation/shaders/computeShader.glsl.js -->
<g id="edge10" class="edge">
<title>simulation/graphics.js&#45;&gt;simulation/shaders/computeShader.glsl.js</title>
<path fill="none" stroke="#757575" d="M561.57,-265.28C570.93,-264.48 580.76,-263.63 590.79,-262.76"/>
<polygon fill="#757575" stroke="#757575" points="591.2,-266.24 600.87,-261.9 590.6,-259.27 591.2,-266.24"/>
</g>
<!-- simulation/shaders/particleShader.glsl.js -->
<g id="node11" class="node">
<title>simulation/shaders/particleShader.glsl.js</title>
<path fill="none" stroke="#cfffac" d="M854.83,-303C854.83,-303 613.17,-303 613.17,-303 609.33,-303 605.5,-299.17 605.5,-295.33 605.5,-295.33 605.5,-287.67 605.5,-287.67 605.5,-283.83 609.33,-280 613.17,-280 613.17,-280 854.83,-280 854.83,-280 858.67,-280 862.5,-283.83 862.5,-287.67 862.5,-287.67 862.5,-295.33 862.5,-295.33 862.5,-299.17 858.67,-303 854.83,-303"/>
<text text-anchor="middle" x="734" y="-287.8" font-family="Arial" font-size="14.00" fill="#cfffac">simulation/shaders/particleShader.glsl.js</text>
</g>
<!-- simulation/graphics.js&#45;&gt;simulation/shaders/particleShader.glsl.js -->
<g id="edge11" class="edge">
<title>simulation/graphics.js&#45;&gt;simulation/shaders/particleShader.glsl.js</title>
<path fill="none" stroke="#757575" d="M561.57,-277.42C572.31,-278.3 583.67,-279.23 595.22,-280.18"/>
<polygon fill="#757575" stroke="#757575" points="595.17,-283.69 605.42,-281.02 595.74,-276.71 595.17,-283.69"/>
</g>
<!-- simulation/physics.js&#45;&gt;simulation/particle.js -->
<g id="edge12" class="edge">
<title>simulation/physics.js&#45;&gt;simulation/particle.js</title>
<path fill="none" stroke="#757575" d="M1043.07,-209.5C1051.56,-209.5 1060.29,-209.5 1068.9,-209.5"/>
<polygon fill="#757575" stroke="#757575" points="1068.95,-213 1078.95,-209.5 1068.95,-206 1068.95,-213"/>
</g>
<!-- simulation/simulation.js&#45;&gt;simulation/physics.js -->
<g id="edge14" class="edge">
<title>simulation/simulation.js&#45;&gt;simulation/physics.js</title>
<path fill="none" stroke="#757575" d="M812.6,-209.5C838.23,-209.5 866.76,-209.5 892.52,-209.5"/>
<polygon fill="#757575" stroke="#757575" points="892.62,-213 902.62,-209.5 892.62,-206 892.62,-213"/>
</g>
<!-- simulation/shaders/computeShader.glsl.js&#45;&gt;simulation/physics.js -->
<g id="edge13" class="edge">
<title>simulation/shaders/computeShader.glsl.js&#45;&gt;simulation/physics.js</title>
<path fill="none" stroke="#757575" d="M815.02,-238.99C832.2,-236.35 850.22,-233.45 867,-230.5 879.91,-228.23 893.68,-225.62 906.85,-223.03"/>
<polygon fill="#757575" stroke="#757575" points="907.66,-226.43 916.78,-221.05 906.29,-219.57 907.66,-226.43"/>
</g>
</g>
</svg>
