<?xml version="1.0" encoding="UTF-8" standalone="no"?>
<!DOCTYPE svg PUBLIC "-//W3C//DTD SVG 1.1//EN"
 "http://www.w3.org/Graphics/SVG/1.1/DTD/svg11.dtd">
<!-- Generated by graphviz version 2.43.0 (0)
 -->
<!-- Title: G Pages: 1 -->
<svg width="1261pt" height="372pt"
 viewBox="0.00 0.00 1261.20 371.80" xmlns="http://www.w3.org/2000/svg" xmlns:xlink="http://www.w3.org/1999/xlink">
<g id="graph0" class="graph" transform="scale(1 1) rotate(0) translate(21.6 350.2)">
<title>G</title>
<polygon fill="#111111" stroke="transparent" points="-21.6,21.6 -21.6,-350.2 1239.6,-350.2 1239.6,21.6 -21.6,21.6"/>
<!-- main.js -->
<g id="node1" class="node">
<title>main.js</title>
<path fill="none" stroke="#c6c5fe" d="M52.33,-230.6C52.33,-230.6 7.67,-230.6 7.67,-230.6 3.83,-230.6 0,-226.77 0,-222.94 0,-222.94 0,-215.27 0,-215.27 0,-211.44 3.83,-207.6 7.67,-207.6 7.67,-207.6 52.33,-207.6 52.33,-207.6 56.17,-207.6 60,-211.44 60,-215.27 60,-215.27 60,-222.94 60,-222.94 60,-226.77 56.17,-230.6 52.33,-230.6"/>
<text text-anchor="middle" x="30" y="-215.4" font-family="Arial" font-size="14.00" fill="#c6c5fe">main.js</text>
</g>
<!-- simulation/view.js -->
<g id="node2" class="node">
<title>simulation/view.js</title>
<path fill="none" stroke="#c6c5fe" d="M210.33,-210.6C210.33,-210.6 103.67,-210.6 103.67,-210.6 99.83,-210.6 96,-206.77 96,-202.94 96,-202.94 96,-195.27 96,-195.27 96,-191.44 99.83,-187.6 103.67,-187.6 103.67,-187.6 210.33,-187.6 210.33,-187.6 214.17,-187.6 218,-191.44 218,-195.27 218,-195.27 218,-202.94 218,-202.94 218,-206.77 214.17,-210.6 210.33,-210.6"/>
<text text-anchor="middle" x="157" y="-195.4" font-family="Arial" font-size="14.00" fill="#c6c5fe">simulation/view.js</text>
</g>
<!-- main.js&#45;&gt;simulation/view.js -->
<g id="edge1" class="edge">
<title>main.js&#45;&gt;simulation/view.js</title>
<path fill="none" stroke="#757575" d="M60.31,-214.41C68.07,-213.17 76.79,-211.78 85.72,-210.35"/>
<polygon fill="#757575" stroke="#757575" points="86.54,-213.76 95.87,-208.73 85.44,-206.85 86.54,-213.76"/>
</g>
<!-- ui/App.jsx -->
<g id="node3" class="node">
<title>ui/App.jsx</title>
<path fill="none" stroke="#cfffac" d="M344.83,-251.6C344.83,-251.6 285.17,-251.6 285.17,-251.6 281.33,-251.6 277.5,-247.77 277.5,-243.94 277.5,-243.94 277.5,-236.27 277.5,-236.27 277.5,-232.44 281.33,-228.6 285.17,-228.6 285.17,-228.6 344.83,-228.6 344.83,-228.6 348.67,-228.6 352.5,-232.44 352.5,-236.27 352.5,-236.27 352.5,-243.94 352.5,-243.94 352.5,-247.77 348.67,-251.6 344.83,-251.6"/>
<text text-anchor="middle" x="315" y="-236.4" font-family="Arial" font-size="14.00" fill="#cfffac">ui/App.jsx</text>
</g>
<!-- main.js&#45;&gt;ui/App.jsx -->
<g id="edge2" class="edge">
<title>main.js&#45;&gt;ui/App.jsx</title>
<path fill="none" stroke="#757575" d="M60.22,-221.27C109.25,-224.91 208.46,-232.27 267.27,-236.64"/>
<polygon fill="#757575" stroke="#757575" points="267.17,-240.14 277.4,-237.39 267.69,-233.16 267.17,-240.14"/>
</g>
<!-- simulation/view.js&#45;&gt;ui/App.jsx -->
<g id="edge18" class="edge">
<title>simulation/view.js&#45;&gt;ui/App.jsx</title>
<path fill="none" stroke="#757575" d="M201.87,-210.63C222.32,-216.01 246.66,-222.41 267.43,-227.86"/>
<polygon fill="#757575" stroke="#757575" points="266.75,-231.3 277.31,-230.46 268.53,-224.53 266.75,-231.3"/>
</g>
<!-- simulation/core.js -->
<g id="node4" class="node">
<title>simulation/core.js</title>
<path fill="none" stroke="#c6c5fe" d="M368.33,-210.6C368.33,-210.6 261.67,-210.6 261.67,-210.6 257.83,-210.6 254,-206.77 254,-202.94 254,-202.94 254,-195.27 254,-195.27 254,-191.44 257.83,-187.6 261.67,-187.6 261.67,-187.6 368.33,-187.6 368.33,-187.6 372.17,-187.6 376,-191.44 376,-195.27 376,-195.27 376,-202.94 376,-202.94 376,-206.77 372.17,-210.6 368.33,-210.6"/>
<text text-anchor="middle" x="315" y="-195.4" font-family="Arial" font-size="14.00" fill="#c6c5fe">simulation/core.js</text>
</g>
<!-- simulation/view.js&#45;&gt;simulation/core.js -->
<g id="edge16" class="edge">
<title>simulation/view.js&#45;&gt;simulation/core.js</title>
<path fill="none" stroke="#757575" d="M218.31,-199.1C226.6,-199.1 235.17,-199.1 243.63,-199.1"/>
<polygon fill="#757575" stroke="#757575" points="243.85,-202.6 253.85,-199.1 243.85,-195.6 243.85,-202.6"/>
</g>
<!-- simulation/particle.js -->
<g id="node7" class="node">
<title>simulation/particle.js</title>
<path fill="none" stroke="#cfffac" d="M1210.33,-170.6C1210.33,-170.6 1086.67,-170.6 1086.67,-170.6 1082.83,-170.6 1079,-166.77 1079,-162.94 1079,-162.94 1079,-155.27 1079,-155.27 1079,-151.44 1082.83,-147.6 1086.67,-147.6 1086.67,-147.6 1210.33,-147.6 1210.33,-147.6 1214.17,-147.6 1218,-151.44 1218,-155.27 1218,-155.27 1218,-162.94 1218,-162.94 1218,-166.77 1214.17,-170.6 1210.33,-170.6"/>
<text text-anchor="middle" x="1148.5" y="-155.4" font-family="Arial" font-size="14.00" fill="#cfffac">simulation/particle.js</text>
</g>
<!-- simulation/view.js&#45;&gt;simulation/particle.js -->
<g id="edge17" class="edge">
<title>simulation/view.js&#45;&gt;simulation/particle.js</title>
<path fill="none" stroke="#757575" d="M167.74,-187.54C204.68,-145.07 341.48,-0.1 487.5,-0.1 487.5,-0.1 487.5,-0.1 735,-0.1 874.63,-0.1 918.72,1.56 1043,-62.1 1080.12,-81.12 1113.64,-117.12 1132.22,-139.51"/>
<polygon fill="#757575" stroke="#757575" points="1129.57,-141.8 1138.59,-147.36 1135.01,-137.39 1129.57,-141.8"/>
</g>
<!-- simulation/field.js -->
<g id="node5" class="node">
<title>simulation/field.js</title>
<path fill="none" stroke="#c6c5fe" d="M1025.33,-230.6C1025.33,-230.6 920.67,-230.6 920.67,-230.6 916.83,-230.6 913,-226.77 913,-222.94 913,-222.94 913,-215.27 913,-215.27 913,-211.44 916.83,-207.6 920.67,-207.6 920.67,-207.6 1025.33,-207.6 1025.33,-207.6 1029.17,-207.6 1033,-211.44 1033,-215.27 1033,-215.27 1033,-222.94 1033,-222.94 1033,-226.77 1029.17,-230.6 1025.33,-230.6"/>
<text text-anchor="middle" x="973" y="-215.4" font-family="Arial" font-size="14.00" fill="#c6c5fe">simulation/field.js</text>
</g>
<!-- simulation/core.js&#45;&gt;simulation/field.js -->
<g id="edge3" class="edge">
<title>simulation/core.js&#45;&gt;simulation/field.js</title>
<path fill="none" stroke="#757575" d="M376.05,-208.88C387.94,-210.52 400.34,-212.04 412,-213.1 613.41,-231.47 664.76,-221.07 867,-220.1 878.49,-220.05 890.69,-219.96 902.55,-219.86"/>
<polygon fill="#757575" stroke="#757575" points="902.89,-223.36 912.86,-219.77 902.83,-216.36 902.89,-223.36"/>
</g>
<!-- simulation/graphics.js -->
<g id="node6" class="node">
<title>simulation/graphics.js</title>
<path fill="none" stroke="#c6c5fe" d="M553.83,-109.6C553.83,-109.6 423.17,-109.6 423.17,-109.6 419.33,-109.6 415.5,-105.77 415.5,-101.94 415.5,-101.94 415.5,-94.27 415.5,-94.27 415.5,-90.44 419.33,-86.6 423.17,-86.6 423.17,-86.6 553.83,-86.6 553.83,-86.6 557.67,-86.6 561.5,-90.44 561.5,-94.27 561.5,-94.27 561.5,-101.94 561.5,-101.94 561.5,-105.77 557.67,-109.6 553.83,-109.6"/>
<text text-anchor="middle" x="488.5" y="-94.4" font-family="Arial" font-size="14.00" fill="#c6c5fe">simulation/graphics.js</text>
</g>
<!-- simulation/core.js&#45;&gt;simulation/graphics.js -->
<g id="edge4" class="edge">
<title>simulation/core.js&#45;&gt;simulation/graphics.js</title>
<path fill="none" stroke="#757575" d="M335.67,-187.52C365.96,-169.68 424.15,-135.41 459.04,-114.87"/>
<polygon fill="#757575" stroke="#757575" points="460.95,-117.8 467.79,-109.71 457.4,-111.77 460.95,-117.8"/>
</g>
<!-- simulation/core.js&#45;&gt;simulation/particle.js -->
<g id="edge5" class="edge">
<title>simulation/core.js&#45;&gt;simulation/particle.js</title>
<path fill="none" stroke="#757575" d="M348.91,-210.62C374.09,-219.33 405.55,-229.99 412,-231.1 688.36,-278.96 777.63,-330.91 1043,-240.1 1078.5,-227.96 1111.28,-198.29 1130.33,-178.44"/>
<polygon fill="#757575" stroke="#757575" points="1133.13,-180.56 1137.39,-170.86 1128.01,-175.79 1133.13,-180.56"/>
</g>
<!-- simulation/physics.js -->
<g id="node8" class="node">
<title>simulation/physics.js</title>
<path fill="none" stroke="#c6c5fe" d="M1035.33,-170.6C1035.33,-170.6 910.67,-170.6 910.67,-170.6 906.83,-170.6 903,-166.77 903,-162.94 903,-162.94 903,-155.27 903,-155.27 903,-151.44 906.83,-147.6 910.67,-147.6 910.67,-147.6 1035.33,-147.6 1035.33,-147.6 1039.17,-147.6 1043,-151.44 1043,-155.27 1043,-155.27 1043,-162.94 1043,-162.94 1043,-166.77 1039.17,-170.6 1035.33,-170.6"/>
<text text-anchor="middle" x="973" y="-155.4" font-family="Arial" font-size="14.00" fill="#c6c5fe">simulation/physics.js</text>
</g>
<!-- simulation/core.js&#45;&gt;simulation/physics.js -->
<g id="edge6" class="edge">
<title>simulation/core.js&#45;&gt;simulation/physics.js</title>
<path fill="none" stroke="#757575" d="M376.03,-194.61C433.69,-190.36 523.28,-183.93 601,-179.1 701.53,-172.87 817.46,-166.8 892.59,-163.01"/>
<polygon fill="#757575" stroke="#757575" points="893.11,-166.49 902.92,-162.49 892.76,-159.5 893.11,-166.49"/>
</g>
<!-- simulation/scenarios.js -->
<g id="node9" class="node">
<title>simulation/scenarios.js</title>
<path fill="none" stroke="#cfffac" d="M557.33,-328.6C557.33,-328.6 419.67,-328.6 419.67,-328.6 415.83,-328.6 412,-324.77 412,-320.94 412,-320.94 412,-313.27 412,-313.27 412,-309.44 415.83,-305.6 419.67,-305.6 419.67,-305.6 557.33,-305.6 557.33,-305.6 561.17,-305.6 565,-309.44 565,-313.27 565,-313.27 565,-320.94 565,-320.94 565,-324.77 561.17,-328.6 557.33,-328.6"/>
<text text-anchor="middle" x="488.5" y="-313.4" font-family="Arial" font-size="14.00" fill="#cfffac">simulation/scenarios.js</text>
</g>
<!-- simulation/core.js&#45;&gt;simulation/scenarios.js -->
<g id="edge7" class="edge">
<title>simulation/core.js&#45;&gt;simulation/scenarios.js</title>
<path fill="none" stroke="#757575" d="M361.35,-210.66C366.64,-213.21 371.68,-216.32 376,-220.1 402.62,-243.41 385.32,-267.87 412,-291.1 416.49,-295.01 421.59,-298.34 426.98,-301.17"/>
<polygon fill="#757575" stroke="#757575" points="425.72,-304.45 436.26,-305.49 428.67,-298.1 425.72,-304.45"/>
</g>
<!-- simulation/simulation.js -->
<g id="node10" class="node">
<title>simulation/simulation.js</title>
<path fill="none" stroke="#c6c5fe" d="M804.83,-210.6C804.83,-210.6 663.17,-210.6 663.17,-210.6 659.33,-210.6 655.5,-206.77 655.5,-202.94 655.5,-202.94 655.5,-195.27 655.5,-195.27 655.5,-191.44 659.33,-187.6 663.17,-187.6 663.17,-187.6 804.83,-187.6 804.83,-187.6 808.67,-187.6 812.5,-191.44 812.5,-195.27 812.5,-195.27 812.5,-202.94 812.5,-202.94 812.5,-206.77 808.67,-210.6 804.83,-210.6"/>
<text text-anchor="middle" x="734" y="-195.4" font-family="Arial" font-size="14.00" fill="#c6c5fe">simulation/simulation.js</text>
</g>
<!-- simulation/core.js&#45;&gt;simulation/simulation.js -->
<g id="edge8" class="edge">
<title>simulation/core.js&#45;&gt;simulation/simulation.js</title>
<path fill="none" stroke="#757575" d="M376.19,-199.1C446.81,-199.1 564.5,-199.1 645.27,-199.1"/>
<polygon fill="#757575" stroke="#757575" points="645.43,-202.6 655.43,-199.1 645.43,-195.6 645.43,-202.6"/>
</g>
<!-- simulation/field.js&#45;&gt;simulation/particle.js -->
<g id="edge9" class="edge">
<title>simulation/field.js&#45;&gt;simulation/particle.js</title>
<path fill="none" stroke="#757575" d="M1007.45,-207.54C1035.06,-197.99 1074.41,-184.38 1104.38,-174.02"/>
<polygon fill="#757575" stroke="#757575" points="1105.84,-177.21 1114.15,-170.64 1103.56,-170.6 1105.84,-177.21"/>
</g>
<!-- simulation/graphics.js&#45;&gt;simulation/particle.js -->
<g id="edge10" class="edge">
<title>simulation/graphics.js&#45;&gt;simulation/particle.js</title>
<path fill="none" stroke="#757575" d="M513.6,-86.42C535.73,-76.38 569.73,-62.67 601,-57.1 717.39,-36.38 750.57,-36.59 867,-57.1 960.49,-73.57 1063.81,-118.7 1115.03,-143.04"/>
<polygon fill="#757575" stroke="#757575" points="1113.73,-146.3 1124.26,-147.48 1116.76,-139.99 1113.73,-146.3"/>
</g>
<!-- simulation/shaders/computeShader.glsl.js -->
<g id="node11" class="node">
<title>simulation/shaders/computeShader.glsl.js</title>
<path fill="none" stroke="#c6c5fe" d="M859.33,-130.6C859.33,-130.6 608.67,-130.6 608.67,-130.6 604.83,-130.6 601,-126.77 601,-122.94 601,-122.94 601,-115.27 601,-115.27 601,-111.44 604.83,-107.6 608.67,-107.6 608.67,-107.6 859.33,-107.6 859.33,-107.6 863.17,-107.6 867,-111.44 867,-115.27 867,-115.27 867,-122.94 867,-122.94 867,-126.77 863.17,-130.6 859.33,-130.6"/>
<text text-anchor="middle" x="734" y="-115.4" font-family="Arial" font-size="14.00" fill="#c6c5fe">simulation/shaders/computeShader.glsl.js</text>
</g>
<!-- simulation/graphics.js&#45;&gt;simulation/shaders/computeShader.glsl.js -->
<g id="edge11" class="edge">
<title>simulation/graphics.js&#45;&gt;simulation/shaders/computeShader.glsl.js</title>
<path fill="none" stroke="#757575" d="M561.57,-104.32C570.93,-105.13 580.76,-105.97 590.79,-106.84"/>
<polygon fill="#757575" stroke="#757575" points="590.6,-110.34 600.87,-107.71 591.2,-103.36 590.6,-110.34"/>
</g>
<!-- simulation/shaders/particleShader.glsl.js -->
<g id="node12" class="node">
<title>simulation/shaders/particleShader.glsl.js</title>
<path fill="none" stroke="#cfffac" d="M854.83,-89.6C854.83,-89.6 613.17,-89.6 613.17,-89.6 609.33,-89.6 605.5,-85.77 605.5,-81.94 605.5,-81.94 605.5,-74.27 605.5,-74.27 605.5,-70.44 609.33,-66.6 613.17,-66.6 613.17,-66.6 854.83,-66.6 854.83,-66.6 858.67,-66.6 862.5,-70.44 862.5,-74.27 862.5,-74.27 862.5,-81.94 862.5,-81.94 862.5,-85.77 858.67,-89.6 854.83,-89.6"/>
<text text-anchor="middle" x="734" y="-74.4" font-family="Arial" font-size="14.00" fill="#cfffac">simulation/shaders/particleShader.glsl.js</text>
</g>
<!-- simulation/graphics.js&#45;&gt;simulation/shaders/particleShader.glsl.js -->
<g id="edge12" class="edge">
<title>simulation/graphics.js&#45;&gt;simulation/shaders/particleShader.glsl.js</title>
<path fill="none" stroke="#757575" d="M561.57,-92.18C572.31,-91.3 583.67,-90.37 595.22,-89.42"/>
<polygon fill="#757575" stroke="#757575" points="595.74,-92.89 605.42,-88.58 595.17,-85.91 595.74,-92.89"/>
</g>
<!-- simulation/physics.js&#45;&gt;simulation/particle.js -->
<g id="edge13" class="edge">
<title>simulation/physics.js&#45;&gt;simulation/particle.js</title>
<path fill="none" stroke="#757575" d="M1043.07,-159.1C1051.56,-159.1 1060.29,-159.1 1068.9,-159.1"/>
<polygon fill="#757575" stroke="#757575" points="1068.95,-162.6 1078.95,-159.1 1068.95,-155.6 1068.95,-162.6"/>
</g>
<!-- simulation/simulation.js&#45;&gt;simulation/physics.js -->
<g id="edge15" class="edge">
<title>simulation/simulation.js&#45;&gt;simulation/physics.js</title>
<path fill="none" stroke="#757575" d="M803.23,-187.59C831.49,-182.82 864.43,-177.26 893.67,-172.33"/>
<polygon fill="#757575" stroke="#757575" points="894.56,-175.72 903.84,-170.61 893.4,-168.82 894.56,-175.72"/>
</g>
<!-- simulation/shaders/computeShader.glsl.js&#45;&gt;simulation/physics.js -->
<g id="edge14" class="edge">
<title>simulation/shaders/computeShader.glsl.js&#45;&gt;simulation/physics.js</title>
<path fill="none" stroke="#757575" d="M803.23,-130.62C831.49,-135.39 864.43,-140.95 893.67,-145.88"/>
<polygon fill="#757575" stroke="#757575" points="893.4,-149.39 903.84,-147.6 894.56,-142.48 893.4,-149.39"/>
</g>
</g>
</svg>
