<?xml version="1.0" encoding="UTF-8" standalone="no"?>
<!DOCTYPE svg PUBLIC "-//W3C//DTD SVG 1.1//EN"
 "http://www.w3.org/Graphics/SVG/1.1/DTD/svg11.dtd">
<!-- Generated by graphviz version 2.40.1 (20161225.0304)
 -->
<!-- Title: G Pages: 1 -->
<svg width="704pt" height="339pt"
 viewBox="0.00 0.00 704.20 339.40" xmlns="http://www.w3.org/2000/svg" xmlns:xlink="http://www.w3.org/1999/xlink">
<g id="graph0" class="graph" transform="scale(1 1) rotate(0) translate(21.6 317.7971)">
<title>G</title>
<polygon fill="#111111" stroke="transparent" points="-21.6,21.6 -21.6,-317.7971 682.6,-317.7971 682.6,21.6 -21.6,21.6"/>
<!-- core.js -->
<g id="node1" class="node">
<title>core.js</title>
<path fill="none" stroke="#c6c5fe" d="M244.3333,-142C244.3333,-142 200.6667,-142 200.6667,-142 196.8333,-142 193,-138.1667 193,-134.3333 193,-134.3333 193,-126.6667 193,-126.6667 193,-122.8333 196.8333,-119 200.6667,-119 200.6667,-119 244.3333,-119 244.3333,-119 248.1667,-119 252,-122.8333 252,-126.6667 252,-126.6667 252,-134.3333 252,-134.3333 252,-138.1667 248.1667,-142 244.3333,-142"/>
<text text-anchor="middle" x="222.5" y="-126.8" font-family="Arial" font-size="14.00" fill="#c6c5fe">core.js</text>
</g>
<!-- gpu/field.js -->
<g id="node2" class="node">
<title>gpu/field.js</title>
<path fill="none" stroke="#c6c5fe" d="M395.3333,-142C395.3333,-142 324.6667,-142 324.6667,-142 320.8333,-142 317,-138.1667 317,-134.3333 317,-134.3333 317,-126.6667 317,-126.6667 317,-122.8333 320.8333,-119 324.6667,-119 324.6667,-119 395.3333,-119 395.3333,-119 399.1667,-119 403,-122.8333 403,-126.6667 403,-126.6667 403,-134.3333 403,-134.3333 403,-138.1667 399.1667,-142 395.3333,-142"/>
<text text-anchor="middle" x="360" y="-126.8" font-family="Arial" font-size="14.00" fill="#c6c5fe">gpu/field.js</text>
</g>
<!-- core.js&#45;&gt;gpu/field.js -->
<g id="edge1" class="edge">
<title>core.js&#45;&gt;gpu/field.js</title>
<path fill="none" stroke="#757575" d="M252.3355,-130.5C268.2631,-130.5 288.3457,-130.5 306.8396,-130.5"/>
<polygon fill="#757575" stroke="#757575" points="306.9141,-134.0001 316.9141,-130.5 306.9141,-127.0001 306.9141,-134.0001"/>
</g>
<!-- gpu/graphics.js -->
<g id="node3" class="node">
<title>gpu/graphics.js</title>
<path fill="none" stroke="#cfffac" d="M409.8333,-265C409.8333,-265 310.1667,-265 310.1667,-265 306.3333,-265 302.5,-261.1667 302.5,-257.3333 302.5,-257.3333 302.5,-249.6667 302.5,-249.6667 302.5,-245.8333 306.3333,-242 310.1667,-242 310.1667,-242 409.8333,-242 409.8333,-242 413.6667,-242 417.5,-245.8333 417.5,-249.6667 417.5,-249.6667 417.5,-257.3333 417.5,-257.3333 417.5,-261.1667 413.6667,-265 409.8333,-265"/>
<text text-anchor="middle" x="360" y="-249.8" font-family="Arial" font-size="14.00" fill="#cfffac">gpu/graphics.js</text>
</g>
<!-- core.js&#45;&gt;gpu/graphics.js -->
<g id="edge2" class="edge">
<title>core.js&#45;&gt;gpu/graphics.js</title>
<path fill="none" stroke="#757575" d="M226.6046,-142.0521C234.8103,-163.4515 255.3081,-209.2779 288,-233.5 289.8209,-234.8492 291.7286,-236.1073 293.7027,-237.2806"/>
<polygon fill="#757575" stroke="#757575" points="292.2247,-240.456 302.7206,-241.9004 295.4163,-234.2259 292.2247,-240.456"/>
</g>
<!-- gpu/simulation.js -->
<g id="node4" class="node">
<title>gpu/simulation.js</title>
<path fill="none" stroke="#c6c5fe" d="M414.8333,-62C414.8333,-62 305.1667,-62 305.1667,-62 301.3333,-62 297.5,-58.1667 297.5,-54.3333 297.5,-54.3333 297.5,-46.6667 297.5,-46.6667 297.5,-42.8333 301.3333,-39 305.1667,-39 305.1667,-39 414.8333,-39 414.8333,-39 418.6667,-39 422.5,-42.8333 422.5,-46.6667 422.5,-46.6667 422.5,-54.3333 422.5,-54.3333 422.5,-58.1667 418.6667,-62 414.8333,-62"/>
<text text-anchor="middle" x="360" y="-46.8" font-family="Arial" font-size="14.00" fill="#c6c5fe">gpu/simulation.js</text>
</g>
<!-- core.js&#45;&gt;gpu/simulation.js -->
<g id="edge3" class="edge">
<title>core.js&#45;&gt;gpu/simulation.js</title>
<path fill="none" stroke="#757575" d="M234.1179,-118.7864C246.5372,-106.8059 267.2569,-88.3216 288,-76.5 295.1417,-72.4299 303.0354,-68.8088 310.9008,-65.6573"/>
<polygon fill="#757575" stroke="#757575" points="312.3171,-68.8635 320.4283,-62.0475 309.8369,-62.3176 312.3171,-68.8635"/>
</g>
<!-- helpers.js -->
<g id="node5" class="node">
<title>helpers.js</title>
<path fill="none" stroke="#c6c5fe" d="M539.8333,-103C539.8333,-103 476.1667,-103 476.1667,-103 472.3333,-103 468.5,-99.1667 468.5,-95.3333 468.5,-95.3333 468.5,-87.6667 468.5,-87.6667 468.5,-83.8333 472.3333,-80 476.1667,-80 476.1667,-80 539.8333,-80 539.8333,-80 543.6667,-80 547.5,-83.8333 547.5,-87.6667 547.5,-87.6667 547.5,-95.3333 547.5,-95.3333 547.5,-99.1667 543.6667,-103 539.8333,-103"/>
<text text-anchor="middle" x="508" y="-87.8" font-family="Arial" font-size="14.00" fill="#c6c5fe">helpers.js</text>
</g>
<!-- core.js&#45;&gt;helpers.js -->
<g id="edge4" class="edge">
<title>core.js&#45;&gt;helpers.js</title>
<path fill="none" stroke="#757575" d="M252.1208,-119.4193C263.2275,-115.687 276.0526,-111.8715 288,-109.5 345.7138,-98.0442 413.3362,-93.855 458.2208,-92.3368"/>
<polygon fill="#757575" stroke="#757575" points="458.3923,-95.8333 468.2804,-92.0285 458.1778,-88.8366 458.3923,-95.8333"/>
</g>
<!-- particle.js -->
<g id="node6" class="node">
<title>particle.js</title>
<path fill="none" stroke="#cfffac" d="M653.3333,-123C653.3333,-123 591.6667,-123 591.6667,-123 587.8333,-123 584,-119.1667 584,-115.3333 584,-115.3333 584,-107.6667 584,-107.6667 584,-103.8333 587.8333,-100 591.6667,-100 591.6667,-100 653.3333,-100 653.3333,-100 657.1667,-100 661,-103.8333 661,-107.6667 661,-107.6667 661,-115.3333 661,-115.3333 661,-119.1667 657.1667,-123 653.3333,-123"/>
<text text-anchor="middle" x="622.5" y="-107.8" font-family="Arial" font-size="14.00" fill="#cfffac">particle.js</text>
</g>
<!-- core.js&#45;&gt;particle.js -->
<g id="edge5" class="edge">
<title>core.js&#45;&gt;particle.js</title>
<path fill="none" stroke="#757575" d="M223.6783,-142.1567C227.268,-170.7384 240.8891,-244.1734 288,-274.5 341.8141,-309.1416 371.9658,-296.6786 432,-274.5 510.6236,-245.4539 578.7513,-167.8791 607.6878,-131.2162"/>
<polygon fill="#757575" stroke="#757575" points="610.5157,-133.281 613.8768,-123.2334 604.9835,-128.992 610.5157,-133.281"/>
</g>
<!-- physics.js -->
<g id="node7" class="node">
<title>physics.js</title>
<path fill="none" stroke="#c6c5fe" d="M540.3333,-23C540.3333,-23 475.6667,-23 475.6667,-23 471.8333,-23 468,-19.1667 468,-15.3333 468,-15.3333 468,-7.6667 468,-7.6667 468,-3.8333 471.8333,0 475.6667,0 475.6667,0 540.3333,0 540.3333,0 544.1667,0 548,-3.8333 548,-7.6667 548,-7.6667 548,-15.3333 548,-15.3333 548,-19.1667 544.1667,-23 540.3333,-23"/>
<text text-anchor="middle" x="508" y="-7.8" font-family="Arial" font-size="14.00" fill="#c6c5fe">physics.js</text>
</g>
<!-- core.js&#45;&gt;physics.js -->
<g id="edge6" class="edge">
<title>core.js&#45;&gt;physics.js</title>
<path fill="none" stroke="#757575" d="M226.1569,-118.919C233.7289,-97.0881 253.3739,-50.1878 288,-29.5 339.6433,1.3549 410.6758,1.1372 457.8991,-3.6472"/>
<polygon fill="#757575" stroke="#757575" points="457.5658,-7.1317 467.8926,-4.7637 458.3431,-.175 457.5658,-7.1317"/>
</g>
<!-- scenarios.js -->
<g id="node8" class="node">
<title>scenarios.js</title>
<path fill="none" stroke="#cfffac" d="M399.3333,-224C399.3333,-224 320.6667,-224 320.6667,-224 316.8333,-224 313,-220.1667 313,-216.3333 313,-216.3333 313,-208.6667 313,-208.6667 313,-204.8333 316.8333,-201 320.6667,-201 320.6667,-201 399.3333,-201 399.3333,-201 403.1667,-201 407,-204.8333 407,-208.6667 407,-208.6667 407,-216.3333 407,-216.3333 407,-220.1667 403.1667,-224 399.3333,-224"/>
<text text-anchor="middle" x="360" y="-208.8" font-family="Arial" font-size="14.00" fill="#cfffac">scenarios.js</text>
</g>
<!-- core.js&#45;&gt;scenarios.js -->
<g id="edge7" class="edge">
<title>core.js&#45;&gt;scenarios.js</title>
<path fill="none" stroke="#757575" d="M231.9338,-142.1078C243.6853,-155.8304 265.0335,-178.4472 288,-191.5 292.8111,-194.2344 298.0092,-196.6396 303.3332,-198.7497"/>
<polygon fill="#757575" stroke="#757575" points="302.4015,-202.1343 312.9958,-202.2363 304.7774,-195.5499 302.4015,-202.1343"/>
</g>
<!-- gpu/field.js&#45;&gt;helpers.js -->
<g id="edge8" class="edge">
<title>gpu/field.js&#45;&gt;helpers.js</title>
<path fill="none" stroke="#757575" d="M403.2056,-119.1147C420.483,-114.5619 440.4864,-109.2908 458.3567,-104.5817"/>
<polygon fill="#757575" stroke="#757575" points="459.2564,-107.9642 468.0344,-102.0315 457.4726,-101.1952 459.2564,-107.9642"/>
</g>
<!-- gpu/field.js&#45;&gt;particle.js -->
<g id="edge9" class="edge">
<title>gpu/field.js&#45;&gt;particle.js</title>
<path fill="none" stroke="#757575" d="M403.0526,-127.3838C449.9007,-123.9929 524.6511,-118.5824 573.6584,-115.0352"/>
<polygon fill="#757575" stroke="#757575" points="573.9848,-118.5208 583.706,-114.3079 573.4794,-111.5391 573.9848,-118.5208"/>
</g>
<!-- gpu/simulation.js&#45;&gt;helpers.js -->
<g id="edge10" class="edge">
<title>gpu/simulation.js&#45;&gt;helpers.js</title>
<path fill="none" stroke="#757575" d="M401.6201,-62.0299C419.3759,-66.9487 440.2297,-72.7258 458.7471,-77.8556"/>
<polygon fill="#757575" stroke="#757575" points="457.9017,-81.2532 468.4732,-80.55 459.7705,-74.5072 457.9017,-81.2532"/>
</g>
<!-- gpu/simulation.js&#45;&gt;particle.js -->
<g id="edge11" class="edge">
<title>gpu/simulation.js&#45;&gt;particle.js</title>
<path fill="none" stroke="#757575" d="M422.6439,-50.9877C459.8173,-52.7858 507.4501,-57.7543 548,-70.5 565.4454,-75.9835 583.4504,-85.7593 597.3892,-94.39"/>
<polygon fill="#757575" stroke="#757575" points="595.6042,-97.4029 605.915,-99.8395 599.3742,-91.5048 595.6042,-97.4029"/>
</g>
<!-- gpu/simulation.js&#45;&gt;physics.js -->
<g id="edge12" class="edge">
<title>gpu/simulation.js&#45;&gt;physics.js</title>
<path fill="none" stroke="#757575" d="M404.0042,-38.9043C420.9565,-34.4371 440.437,-29.3038 457.9211,-24.6965"/>
<polygon fill="#757575" stroke="#757575" points="459.1726,-27.9862 467.9506,-22.0536 457.3888,-21.2173 459.1726,-27.9862"/>
</g>
<!-- helpers.js&#45;&gt;particle.js -->
<g id="edge13" class="edge">
<title>helpers.js&#45;&gt;particle.js</title>
<path fill="none" stroke="#757575" d="M547.7252,-98.4389C556.0816,-99.8985 564.9893,-101.4545 573.6361,-102.9648"/>
<polygon fill="#757575" stroke="#757575" points="573.1651,-106.4355 583.6182,-104.7084 574.3696,-99.5399 573.1651,-106.4355"/>
</g>
<!-- physics.js&#45;&gt;particle.js -->
<g id="edge15" class="edge">
<title>physics.js&#45;&gt;particle.js</title>
<path fill="none" stroke="#757575" d="M527.6854,-23.1599C534.3424,-27.396 541.6845,-32.4012 548,-37.5 569.1381,-54.5658 590.9119,-76.8389 605.4182,-92.4738"/>
<polygon fill="#757575" stroke="#757575" points="602.9628,-94.9748 612.2998,-99.982 608.1232,-90.2451 602.9628,-94.9748"/>
</g>
<!-- main.js -->
<g id="node9" class="node">
<title>main.js</title>
<path fill="none" stroke="#c6c5fe" d="M54.3333,-142C54.3333,-142 7.6667,-142 7.6667,-142 3.8333,-142 0,-138.1667 0,-134.3333 0,-134.3333 0,-126.6667 0,-126.6667 0,-122.8333 3.8333,-119 7.6667,-119 7.6667,-119 54.3333,-119 54.3333,-119 58.1667,-119 62,-122.8333 62,-126.6667 62,-126.6667 62,-134.3333 62,-134.3333 62,-138.1667 58.1667,-142 54.3333,-142"/>
<text text-anchor="middle" x="31" y="-126.8" font-family="Arial" font-size="14.00" fill="#c6c5fe">main.js</text>
</g>
<!-- view.js -->
<g id="node10" class="node">
<title>view.js</title>
<path fill="none" stroke="#c6c5fe" d="M149.3333,-142C149.3333,-142 105.6667,-142 105.6667,-142 101.8333,-142 98,-138.1667 98,-134.3333 98,-134.3333 98,-126.6667 98,-126.6667 98,-122.8333 101.8333,-119 105.6667,-119 105.6667,-119 149.3333,-119 149.3333,-119 153.1667,-119 157,-122.8333 157,-126.6667 157,-126.6667 157,-134.3333 157,-134.3333 157,-138.1667 153.1667,-142 149.3333,-142"/>
<text text-anchor="middle" x="127.5" y="-126.8" font-family="Arial" font-size="14.00" fill="#c6c5fe">view.js</text>
</g>
<!-- main.js&#45;&gt;view.js -->
<g id="edge14" class="edge">
<title>main.js&#45;&gt;view.js</title>
<path fill="none" stroke="#757575" d="M62.0644,-130.5C70.212,-130.5 79.1116,-130.5 87.6492,-130.5"/>
<polygon fill="#757575" stroke="#757575" points="87.8088,-134.0001 97.8088,-130.5 87.8087,-127.0001 87.8088,-134.0001"/>
</g>
<!-- view.js&#45;&gt;core.js -->
<g id="edge18" class="edge">
<title>view.js&#45;&gt;core.js</title>
<path fill="none" stroke="#757575" d="M157.0378,-130.5C165.1697,-130.5 174.1252,-130.5 182.7327,-130.5"/>
<polygon fill="#757575" stroke="#757575" points="182.9805,-134.0001 192.9804,-130.5 182.9804,-127.0001 182.9805,-134.0001"/>
</g>
<!-- scenariosHelpers.js -->
<g id="node11" class="node">
<title>scenariosHelpers.js</title>
<path fill="none" stroke="#c6c5fe" d="M424.3333,-183C424.3333,-183 295.6667,-183 295.6667,-183 291.8333,-183 288,-179.1667 288,-175.3333 288,-175.3333 288,-167.6667 288,-167.6667 288,-163.8333 291.8333,-160 295.6667,-160 295.6667,-160 424.3333,-160 424.3333,-160 428.1667,-160 432,-163.8333 432,-167.6667 432,-167.6667 432,-175.3333 432,-175.3333 432,-179.1667 428.1667,-183 424.3333,-183"/>
<text text-anchor="middle" x="360" y="-167.8" font-family="Arial" font-size="14.00" fill="#c6c5fe">scenariosHelpers.js</text>
</g>
<!-- scenariosHelpers.js&#45;&gt;helpers.js -->
<g id="edge16" class="edge">
<title>scenariosHelpers.js&#45;&gt;helpers.js</title>
<path fill="none" stroke="#757575" d="M408.9883,-159.9218C416.879,-157.2944 424.8096,-154.1702 432,-150.5 452.8937,-139.835 473.7353,-123.1156 488.2941,-110.1941"/>
<polygon fill="#757575" stroke="#757575" points="491.0511,-112.4176 496.093,-103.0994 486.3406,-107.2396 491.0511,-112.4176"/>
</g>
<!-- scenariosHelpers.js&#45;&gt;particle.js -->
<g id="edge17" class="edge">
<title>scenariosHelpers.js&#45;&gt;particle.js</title>
<path fill="none" stroke="#757575" d="M427.8178,-159.9329C463.7404,-153.3586 508.486,-144.4585 548,-134.5 557.8445,-132.019 568.3151,-129.0175 578.2,-126.0136"/>
<polygon fill="#757575" stroke="#757575" points="579.327,-129.3287 587.8448,-123.028 577.257,-122.6417 579.327,-129.3287"/>
</g>
</g>
</svg>
