<?xml version="1.0" encoding="UTF-8" standalone="no"?>
<!DOCTYPE svg PUBLIC "-//W3C//DTD SVG 1.1//EN"
 "http://www.w3.org/Graphics/SVG/1.1/DTD/svg11.dtd">
<!-- Generated by graphviz version 2.43.0 (0)
 -->
<!-- Title: G Pages: 1 -->
<svg width="678pt" height="347pt"
 viewBox="0.00 0.00 678.20 346.58" xmlns="http://www.w3.org/2000/svg" xmlns:xlink="http://www.w3.org/1999/xlink">
<g id="graph0" class="graph" transform="scale(1 1) rotate(0) translate(21.6 324.98)">
<title>G</title>
<polygon fill="#111111" stroke="transparent" points="-21.6,21.6 -21.6,-324.98 656.6,-324.98 656.6,21.6 -21.6,21.6"/>
<!-- core.js -->
<g id="node1" class="node">
<title>core.js</title>
<path fill="none" stroke="#c6c5fe" d="M236.33,-182.38C236.33,-182.38 195.67,-182.38 195.67,-182.38 191.83,-182.38 188,-178.55 188,-174.72 188,-174.72 188,-167.05 188,-167.05 188,-163.22 191.83,-159.38 195.67,-159.38 195.67,-159.38 236.33,-159.38 236.33,-159.38 240.17,-159.38 244,-163.22 244,-167.05 244,-167.05 244,-174.72 244,-174.72 244,-178.55 240.17,-182.38 236.33,-182.38"/>
<text text-anchor="middle" x="216" y="-167.18" font-family="Arial" font-size="14.00" fill="#c6c5fe">core.js</text>
</g>
<!-- gpu/field.js -->
<g id="node2" class="node">
<title>gpu/field.js</title>
<path fill="none" stroke="#c6c5fe" d="M379.83,-223.38C379.83,-223.38 314.17,-223.38 314.17,-223.38 310.33,-223.38 306.5,-219.55 306.5,-215.72 306.5,-215.72 306.5,-208.05 306.5,-208.05 306.5,-204.22 310.33,-200.38 314.17,-200.38 314.17,-200.38 379.83,-200.38 379.83,-200.38 383.67,-200.38 387.5,-204.22 387.5,-208.05 387.5,-208.05 387.5,-215.72 387.5,-215.72 387.5,-219.55 383.67,-223.38 379.83,-223.38"/>
<text text-anchor="middle" x="347" y="-208.18" font-family="Arial" font-size="14.00" fill="#c6c5fe">gpu/field.js</text>
</g>
<!-- core.js&#45;&gt;gpu/field.js -->
<g id="edge1" class="edge">
<title>core.js&#45;&gt;gpu/field.js</title>
<path fill="none" stroke="#757575" d="M244.04,-179.48C260.27,-184.64 281.35,-191.33 300.12,-197.3"/>
<polygon fill="#757575" stroke="#757575" points="299.1,-200.65 309.69,-200.34 301.22,-193.98 299.1,-200.65"/>
</g>
<!-- gpu/graphics.js -->
<g id="node3" class="node">
<title>gpu/graphics.js</title>
<path fill="none" stroke="#c6c5fe" d="M392.83,-182.38C392.83,-182.38 301.17,-182.38 301.17,-182.38 297.33,-182.38 293.5,-178.55 293.5,-174.72 293.5,-174.72 293.5,-167.05 293.5,-167.05 293.5,-163.22 297.33,-159.38 301.17,-159.38 301.17,-159.38 392.83,-159.38 392.83,-159.38 396.67,-159.38 400.5,-163.22 400.5,-167.05 400.5,-167.05 400.5,-174.72 400.5,-174.72 400.5,-178.55 396.67,-182.38 392.83,-182.38"/>
<text text-anchor="middle" x="347" y="-167.18" font-family="Arial" font-size="14.00" fill="#c6c5fe">gpu/graphics.js</text>
</g>
<!-- core.js&#45;&gt;gpu/graphics.js -->
<g id="edge2" class="edge">
<title>core.js&#45;&gt;gpu/graphics.js</title>
<path fill="none" stroke="#757575" d="M244.04,-170.88C255.58,-170.88 269.55,-170.88 283.42,-170.88"/>
<polygon fill="#757575" stroke="#757575" points="283.45,-174.38 293.45,-170.88 283.45,-167.38 283.45,-174.38"/>
</g>
<!-- gpu/simulation.js -->
<g id="node4" class="node">
<title>gpu/simulation.js</title>
<path fill="none" stroke="#c6c5fe" d="M398.33,-61.38C398.33,-61.38 295.67,-61.38 295.67,-61.38 291.83,-61.38 288,-57.55 288,-53.72 288,-53.72 288,-46.05 288,-46.05 288,-42.22 291.83,-38.38 295.67,-38.38 295.67,-38.38 398.33,-38.38 398.33,-38.38 402.17,-38.38 406,-42.22 406,-46.05 406,-46.05 406,-53.72 406,-53.72 406,-57.55 402.17,-61.38 398.33,-61.38"/>
<text text-anchor="middle" x="347" y="-46.18" font-family="Arial" font-size="14.00" fill="#c6c5fe">gpu/simulation.js</text>
</g>
<!-- core.js&#45;&gt;gpu/simulation.js -->
<g id="edge3" class="edge">
<title>core.js&#45;&gt;gpu/simulation.js</title>
<path fill="none" stroke="#757575" d="M221.06,-159.3C229.02,-138.29 248.66,-93.89 280,-69.88 281.78,-68.52 283.64,-67.25 285.58,-66.07"/>
<polygon fill="#757575" stroke="#757575" points="287.22,-69.16 294.45,-61.42 283.97,-62.96 287.22,-69.16"/>
</g>
<!-- helpers.js -->
<g id="node5" class="node">
<title>helpers.js</title>
<path fill="none" stroke="#c6c5fe" d="M516.83,-142.38C516.83,-142.38 458.17,-142.38 458.17,-142.38 454.33,-142.38 450.5,-138.55 450.5,-134.72 450.5,-134.72 450.5,-127.05 450.5,-127.05 450.5,-123.22 454.33,-119.38 458.17,-119.38 458.17,-119.38 516.83,-119.38 516.83,-119.38 520.67,-119.38 524.5,-123.22 524.5,-127.05 524.5,-127.05 524.5,-134.72 524.5,-134.72 524.5,-138.55 520.67,-142.38 516.83,-142.38"/>
<text text-anchor="middle" x="487.5" y="-127.18" font-family="Arial" font-size="14.00" fill="#c6c5fe">helpers.js</text>
</g>
<!-- core.js&#45;&gt;helpers.js -->
<g id="edge4" class="edge">
<title>core.js&#45;&gt;helpers.js</title>
<path fill="none" stroke="#757575" d="M244.22,-160.29C255.18,-156.42 268.04,-152.39 280,-149.88 334.25,-138.5 397.93,-133.94 440.08,-132.11"/>
<polygon fill="#757575" stroke="#757575" points="440.46,-135.6 450.31,-131.7 440.18,-128.6 440.46,-135.6"/>
</g>
<!-- particle.js -->
<g id="node6" class="node">
<title>particle.js</title>
<path fill="none" stroke="#cfffac" d="M627.33,-142.38C627.33,-142.38 568.67,-142.38 568.67,-142.38 564.83,-142.38 561,-138.55 561,-134.72 561,-134.72 561,-127.05 561,-127.05 561,-123.22 564.83,-119.38 568.67,-119.38 568.67,-119.38 627.33,-119.38 627.33,-119.38 631.17,-119.38 635,-123.22 635,-127.05 635,-127.05 635,-134.72 635,-134.72 635,-138.55 631.17,-142.38 627.33,-142.38"/>
<text text-anchor="middle" x="598" y="-127.18" font-family="Arial" font-size="14.00" fill="#cfffac">particle.js</text>
</g>
<!-- core.js&#45;&gt;particle.js -->
<g id="edge5" class="edge">
<title>core.js&#45;&gt;particle.js</title>
<path fill="none" stroke="#757575" d="M224.69,-182.59C235.17,-197.33 255.45,-221.94 280,-231.88 335.2,-254.23 355.18,-241.18 414,-231.88 465.23,-223.78 480.1,-221.83 525,-195.88 546.16,-183.65 566.47,-164.4 580.09,-150.02"/>
<polygon fill="#757575" stroke="#757575" points="582.72,-152.33 586.93,-142.6 577.58,-147.58 582.72,-152.33"/>
</g>
<!-- physics.js -->
<g id="node7" class="node">
<title>physics.js</title>
<path fill="none" stroke="#c6c5fe" d="M517.33,-24.38C517.33,-24.38 457.67,-24.38 457.67,-24.38 453.83,-24.38 450,-20.55 450,-16.72 450,-16.72 450,-9.05 450,-9.05 450,-5.22 453.83,-1.38 457.67,-1.38 457.67,-1.38 517.33,-1.38 517.33,-1.38 521.17,-1.38 525,-5.22 525,-9.05 525,-9.05 525,-16.72 525,-16.72 525,-20.55 521.17,-24.38 517.33,-24.38"/>
<text text-anchor="middle" x="487.5" y="-9.18" font-family="Arial" font-size="14.00" fill="#c6c5fe">physics.js</text>
</g>
<!-- core.js&#45;&gt;physics.js -->
<g id="edge6" class="edge">
<title>core.js&#45;&gt;physics.js</title>
<path fill="none" stroke="#757575" d="M218.23,-159.21C221.87,-131.26 235.29,-60.48 280,-28.88 326.58,4.04 394.73,2.31 439.83,-3.78"/>
<polygon fill="#757575" stroke="#757575" points="439.52,-7.27 449.93,-5.26 440.54,-0.35 439.52,-7.27"/>
</g>
<!-- scenarios.js -->
<g id="node8" class="node">
<title>scenarios.js</title>
<path fill="none" stroke="#cfffac" d="M383.33,-303.38C383.33,-303.38 310.67,-303.38 310.67,-303.38 306.83,-303.38 303,-299.55 303,-295.72 303,-295.72 303,-288.05 303,-288.05 303,-284.22 306.83,-280.38 310.67,-280.38 310.67,-280.38 383.33,-280.38 383.33,-280.38 387.17,-280.38 391,-284.22 391,-288.05 391,-288.05 391,-295.72 391,-295.72 391,-299.55 387.17,-303.38 383.33,-303.38"/>
<text text-anchor="middle" x="347" y="-288.18" font-family="Arial" font-size="14.00" fill="#cfffac">scenarios.js</text>
</g>
<!-- core.js&#45;&gt;scenarios.js -->
<g id="edge7" class="edge">
<title>core.js&#45;&gt;scenarios.js</title>
<path fill="none" stroke="#757575" d="M221.85,-182.48C230.66,-202.22 251.08,-242.48 280,-265.88 284.84,-269.8 290.34,-273.18 296.05,-276.09"/>
<polygon fill="#757575" stroke="#757575" points="294.59,-279.27 305.13,-280.27 297.52,-272.91 294.59,-279.27"/>
</g>
<!-- gpu/field.js&#45;&gt;helpers.js -->
<g id="edge8" class="edge">
<title>gpu/field.js&#45;&gt;helpers.js</title>
<path fill="none" stroke="#757575" d="M387.76,-201.95C396.66,-198.99 405.87,-195.32 414,-190.88 434.14,-179.89 454,-162.9 467.83,-149.8"/>
<polygon fill="#757575" stroke="#757575" points="470.49,-152.09 475.23,-142.62 465.62,-147.07 470.49,-152.09"/>
</g>
<!-- gpu/field.js&#45;&gt;particle.js -->
<g id="edge9" class="edge">
<title>gpu/field.js&#45;&gt;particle.js</title>
<path fill="none" stroke="#757575" d="M387.61,-205.97C424.11,-199.77 479.37,-188.44 525,-170.88 540.83,-164.79 557.45,-155.75 570.73,-147.81"/>
<polygon fill="#757575" stroke="#757575" points="572.64,-150.75 579.34,-142.54 568.98,-144.78 572.64,-150.75"/>
</g>
<!-- gpu/graphics.js&#45;&gt;helpers.js -->
<g id="edge10" class="edge">
<title>gpu/graphics.js&#45;&gt;helpers.js</title>
<path fill="none" stroke="#757575" d="M388.06,-159.31C404.49,-154.57 423.6,-149.05 440.59,-144.14"/>
<polygon fill="#757575" stroke="#757575" points="441.68,-147.47 450.31,-141.33 439.73,-140.75 441.68,-147.47"/>
</g>
<!-- gpu/graphics.js&#45;&gt;particle.js -->
<g id="edge11" class="edge">
<title>gpu/graphics.js&#45;&gt;particle.js</title>
<path fill="none" stroke="#757575" d="M400.61,-167.14C435.99,-164.08 483.56,-158.93 525,-150.88 533.42,-149.25 542.3,-147.12 550.83,-144.87"/>
<polygon fill="#757575" stroke="#757575" points="551.91,-148.2 560.64,-142.19 550.07,-141.45 551.91,-148.2"/>
</g>
<!-- gpu/simulation.js&#45;&gt;helpers.js -->
<g id="edge12" class="edge">
<title>gpu/simulation.js&#45;&gt;helpers.js</title>
<path fill="none" stroke="#757575" d="M394.77,-61.45C401.4,-63.83 408,-66.63 414,-69.88 434.55,-81.02 454.63,-98.59 468.42,-112.02"/>
<polygon fill="#757575" stroke="#757575" points="466.23,-114.78 475.77,-119.37 471.17,-109.82 466.23,-114.78"/>
</g>
<!-- gpu/simulation.js&#45;&gt;particle.js -->
<g id="edge13" class="edge">
<title>gpu/simulation.js&#45;&gt;particle.js</title>
<path fill="none" stroke="#757575" d="M403.88,-61.41C439.15,-69.42 485.38,-81.27 525,-95.88 539.13,-101.09 554.2,-108.17 566.88,-114.59"/>
<polygon fill="#757575" stroke="#757575" points="565.57,-117.85 576.06,-119.33 568.78,-111.63 565.57,-117.85"/>
</g>
<!-- gpu/simulation.js&#45;&gt;physics.js -->
<g id="edge14" class="edge">
<title>gpu/simulation.js&#45;&gt;physics.js</title>
<path fill="none" stroke="#757575" d="M391.06,-38.38C406.57,-34.24 424.12,-29.55 439.91,-25.33"/>
<polygon fill="#757575" stroke="#757575" points="441.24,-28.6 449.99,-22.63 439.43,-21.83 441.24,-28.6"/>
</g>
<!-- helpers.js&#45;&gt;particle.js -->
<g id="edge15" class="edge">
<title>helpers.js&#45;&gt;particle.js</title>
<path fill="none" stroke="#757575" d="M524.63,-130.88C532.96,-130.88 541.93,-130.88 550.63,-130.88"/>
<polygon fill="#757575" stroke="#757575" points="550.66,-134.38 560.66,-130.88 550.66,-127.38 550.66,-134.38"/>
</g>
<!-- physics.js&#45;&gt;particle.js -->
<g id="edge17" class="edge">
<title>physics.js&#45;&gt;particle.js</title>
<path fill="none" stroke="#757575" d="M507.12,-24.61C513.12,-28.77 519.6,-33.72 525,-38.88 548.29,-61.14 570.4,-91.2 583.82,-110.81"/>
<polygon fill="#757575" stroke="#757575" points="581.03,-112.92 589.52,-119.26 586.84,-109.01 581.03,-112.92"/>
</g>
<!-- main.js -->
<g id="node9" class="node">
<title>main.js</title>
<path fill="none" stroke="#c6c5fe" d="M52.33,-182.38C52.33,-182.38 7.67,-182.38 7.67,-182.38 3.83,-182.38 0,-178.55 0,-174.72 0,-174.72 0,-167.05 0,-167.05 0,-163.22 3.83,-159.38 7.67,-159.38 7.67,-159.38 52.33,-159.38 52.33,-159.38 56.17,-159.38 60,-163.22 60,-167.05 60,-167.05 60,-174.72 60,-174.72 60,-178.55 56.17,-182.38 52.33,-182.38"/>
<text text-anchor="middle" x="30" y="-167.18" font-family="Arial" font-size="14.00" fill="#c6c5fe">main.js</text>
</g>
<!-- view.js -->
<g id="node10" class="node">
<title>view.js</title>
<path fill="none" stroke="#c6c5fe" d="M144.33,-182.38C144.33,-182.38 103.67,-182.38 103.67,-182.38 99.83,-182.38 96,-178.55 96,-174.72 96,-174.72 96,-167.05 96,-167.05 96,-163.22 99.83,-159.38 103.67,-159.38 103.67,-159.38 144.33,-159.38 144.33,-159.38 148.17,-159.38 152,-163.22 152,-167.05 152,-167.05 152,-174.72 152,-174.72 152,-178.55 148.17,-182.38 144.33,-182.38"/>
<text text-anchor="middle" x="124" y="-167.18" font-family="Arial" font-size="14.00" fill="#c6c5fe">view.js</text>
</g>
<!-- main.js&#45;&gt;view.js -->
<g id="edge16" class="edge">
<title>main.js&#45;&gt;view.js</title>
<path fill="none" stroke="#757575" d="M60.11,-170.88C68.27,-170.88 77.25,-170.88 85.81,-170.88"/>
<polygon fill="#757575" stroke="#757575" points="85.96,-174.38 95.96,-170.88 85.96,-167.38 85.96,-174.38"/>
</g>
<!-- view.js&#45;&gt;core.js -->
<g id="edge20" class="edge">
<title>view.js&#45;&gt;core.js</title>
<path fill="none" stroke="#757575" d="M152,-170.88C160.03,-170.88 168.97,-170.88 177.53,-170.88"/>
<polygon fill="#757575" stroke="#757575" points="177.71,-174.38 187.71,-170.88 177.7,-167.38 177.71,-174.38"/>
</g>
<!-- scenariosHelpers.js -->
<g id="node11" class="node">
<title>scenariosHelpers.js</title>
<path fill="none" stroke="#c6c5fe" d="M406.33,-102.38C406.33,-102.38 287.67,-102.38 287.67,-102.38 283.83,-102.38 280,-98.55 280,-94.72 280,-94.72 280,-87.05 280,-87.05 280,-83.22 283.83,-79.38 287.67,-79.38 287.67,-79.38 406.33,-79.38 406.33,-79.38 410.17,-79.38 414,-83.22 414,-87.05 414,-87.05 414,-94.72 414,-94.72 414,-98.55 410.17,-102.38 406.33,-102.38"/>
<text text-anchor="middle" x="347" y="-87.18" font-family="Arial" font-size="14.00" fill="#c6c5fe">scenariosHelpers.js</text>
</g>
<!-- scenariosHelpers.js&#45;&gt;helpers.js -->
<g id="edge18" class="edge">
<title>scenariosHelpers.js&#45;&gt;helpers.js</title>
<path fill="none" stroke="#757575" d="M388.06,-102.45C404.49,-107.2 423.6,-112.72 440.59,-117.62"/>
<polygon fill="#757575" stroke="#757575" points="439.73,-121.02 450.31,-120.43 441.68,-114.29 439.73,-121.02"/>
</g>
<!-- scenariosHelpers.js&#45;&gt;particle.js -->
<g id="edge19" class="edge">
<title>scenariosHelpers.js&#45;&gt;particle.js</title>
<path fill="none" stroke="#757575" d="M414.4,-95.21C447.8,-98.1 488.77,-102.71 525,-109.88 533.91,-111.65 543.31,-114.01 552.27,-116.51"/>
<polygon fill="#757575" stroke="#757575" points="551.57,-119.95 562.15,-119.37 553.52,-113.23 551.57,-119.95"/>
</g>
</g>
</svg>
