<?xml version="1.0" encoding="UTF-8" standalone="no"?>
<!DOCTYPE svg PUBLIC "-//W3C//DTD SVG 1.1//EN"
 "http://www.w3.org/Graphics/SVG/1.1/DTD/svg11.dtd">
<!-- Generated by graphviz version 2.43.0 (0)
 -->
<!-- Title: G Pages: 1 -->
<svg width="678pt" height="336pt"
 viewBox="0.00 0.00 678.20 335.72" xmlns="http://www.w3.org/2000/svg" xmlns:xlink="http://www.w3.org/1999/xlink">
<g id="graph0" class="graph" transform="scale(1 1) rotate(0) translate(21.6 314.12)">
<title>G</title>
<polygon fill="#111111" stroke="transparent" points="-21.6,21.6 -21.6,-314.12 656.6,-314.12 656.6,21.6 -21.6,21.6"/>
<!-- core.js -->
<g id="node1" class="node">
<title>core.js</title>
<path fill="none" stroke="#c6c5fe" d="M236.33,-171.52C236.33,-171.52 195.67,-171.52 195.67,-171.52 191.83,-171.52 188,-167.69 188,-163.85 188,-163.85 188,-156.19 188,-156.19 188,-152.35 191.83,-148.52 195.67,-148.52 195.67,-148.52 236.33,-148.52 236.33,-148.52 240.17,-148.52 244,-152.35 244,-156.19 244,-156.19 244,-163.85 244,-163.85 244,-167.69 240.17,-171.52 236.33,-171.52"/>
<text text-anchor="middle" x="216" y="-156.32" font-family="Arial" font-size="14.00" fill="#c6c5fe">core.js</text>
</g>
<!-- gpu/field.js -->
<g id="node2" class="node">
<title>gpu/field.js</title>
<path fill="none" stroke="#c6c5fe" d="M379.83,-212.52C379.83,-212.52 314.17,-212.52 314.17,-212.52 310.33,-212.52 306.5,-208.69 306.5,-204.85 306.5,-204.85 306.5,-197.19 306.5,-197.19 306.5,-193.35 310.33,-189.52 314.17,-189.52 314.17,-189.52 379.83,-189.52 379.83,-189.52 383.67,-189.52 387.5,-193.35 387.5,-197.19 387.5,-197.19 387.5,-204.85 387.5,-204.85 387.5,-208.69 383.67,-212.52 379.83,-212.52"/>
<text text-anchor="middle" x="347" y="-197.32" font-family="Arial" font-size="14.00" fill="#c6c5fe">gpu/field.js</text>
</g>
<!-- core.js&#45;&gt;gpu/field.js -->
<g id="edge1" class="edge">
<title>core.js&#45;&gt;gpu/field.js</title>
<path fill="none" stroke="#757575" d="M244.04,-168.62C260.27,-173.78 281.35,-180.47 300.12,-186.44"/>
<polygon fill="#757575" stroke="#757575" points="299.1,-189.79 309.69,-189.48 301.22,-183.12 299.1,-189.79"/>
</g>
<!-- gpu/graphics.js -->
<g id="node3" class="node">
<title>gpu/graphics.js</title>
<path fill="none" stroke="#c6c5fe" d="M392.83,-171.52C392.83,-171.52 301.17,-171.52 301.17,-171.52 297.33,-171.52 293.5,-167.69 293.5,-163.85 293.5,-163.85 293.5,-156.19 293.5,-156.19 293.5,-152.35 297.33,-148.52 301.17,-148.52 301.17,-148.52 392.83,-148.52 392.83,-148.52 396.67,-148.52 400.5,-152.35 400.5,-156.19 400.5,-156.19 400.5,-163.85 400.5,-163.85 400.5,-167.69 396.67,-171.52 392.83,-171.52"/>
<text text-anchor="middle" x="347" y="-156.32" font-family="Arial" font-size="14.00" fill="#c6c5fe">gpu/graphics.js</text>
</g>
<!-- core.js&#45;&gt;gpu/graphics.js -->
<g id="edge2" class="edge">
<title>core.js&#45;&gt;gpu/graphics.js</title>
<path fill="none" stroke="#757575" d="M244.04,-160.02C255.58,-160.02 269.55,-160.02 283.42,-160.02"/>
<polygon fill="#757575" stroke="#757575" points="283.45,-163.52 293.45,-160.02 283.45,-156.52 283.45,-163.52"/>
</g>
<!-- gpu/simulation.js -->
<g id="node4" class="node">
<title>gpu/simulation.js</title>
<path fill="none" stroke="#c6c5fe" d="M398.33,-50.52C398.33,-50.52 295.67,-50.52 295.67,-50.52 291.83,-50.52 288,-46.69 288,-42.85 288,-42.85 288,-35.19 288,-35.19 288,-31.35 291.83,-27.52 295.67,-27.52 295.67,-27.52 398.33,-27.52 398.33,-27.52 402.17,-27.52 406,-31.35 406,-35.19 406,-35.19 406,-42.85 406,-42.85 406,-46.69 402.17,-50.52 398.33,-50.52"/>
<text text-anchor="middle" x="347" y="-35.32" font-family="Arial" font-size="14.00" fill="#c6c5fe">gpu/simulation.js</text>
</g>
<!-- core.js&#45;&gt;gpu/simulation.js -->
<g id="edge3" class="edge">
<title>core.js&#45;&gt;gpu/simulation.js</title>
<path fill="none" stroke="#757575" d="M221.06,-148.44C229.02,-127.43 248.66,-83.02 280,-59.02 281.78,-57.66 283.64,-56.39 285.58,-55.21"/>
<polygon fill="#757575" stroke="#757575" points="287.22,-58.3 294.45,-50.56 283.97,-52.1 287.22,-58.3"/>
</g>
<!-- helpers.js -->
<g id="node5" class="node">
<title>helpers.js</title>
<path fill="none" stroke="#c6c5fe" d="M516.83,-131.52C516.83,-131.52 458.17,-131.52 458.17,-131.52 454.33,-131.52 450.5,-127.69 450.5,-123.85 450.5,-123.85 450.5,-116.19 450.5,-116.19 450.5,-112.35 454.33,-108.52 458.17,-108.52 458.17,-108.52 516.83,-108.52 516.83,-108.52 520.67,-108.52 524.5,-112.35 524.5,-116.19 524.5,-116.19 524.5,-123.85 524.5,-123.85 524.5,-127.69 520.67,-131.52 516.83,-131.52"/>
<text text-anchor="middle" x="487.5" y="-116.32" font-family="Arial" font-size="14.00" fill="#c6c5fe">helpers.js</text>
</g>
<!-- core.js&#45;&gt;helpers.js -->
<g id="edge4" class="edge">
<title>core.js&#45;&gt;helpers.js</title>
<path fill="none" stroke="#757575" d="M244.22,-149.42C255.18,-145.56 268.04,-141.53 280,-139.02 334.25,-127.64 397.93,-123.08 440.08,-121.25"/>
<polygon fill="#757575" stroke="#757575" points="440.46,-124.74 450.31,-120.84 440.18,-117.74 440.46,-124.74"/>
</g>
<!-- particle.js -->
<g id="node6" class="node">
<title>particle.js</title>
<path fill="none" stroke="#cfffac" d="M627.33,-151.52C627.33,-151.52 568.67,-151.52 568.67,-151.52 564.83,-151.52 561,-147.69 561,-143.85 561,-143.85 561,-136.19 561,-136.19 561,-132.35 564.83,-128.52 568.67,-128.52 568.67,-128.52 627.33,-128.52 627.33,-128.52 631.17,-128.52 635,-132.35 635,-136.19 635,-136.19 635,-143.85 635,-143.85 635,-147.69 631.17,-151.52 627.33,-151.52"/>
<text text-anchor="middle" x="598" y="-136.32" font-family="Arial" font-size="14.00" fill="#cfffac">particle.js</text>
</g>
<!-- core.js&#45;&gt;particle.js -->
<g id="edge5" class="edge">
<title>core.js&#45;&gt;particle.js</title>
<path fill="none" stroke="#757575" d="M224.69,-171.73C235.17,-186.47 255.45,-211.08 280,-221.02 335.2,-243.37 355.14,-230.08 414,-221.02 465.13,-213.15 478.13,-207.91 525,-186.02 541.87,-178.14 559.5,-166.93 573.1,-157.55"/>
<polygon fill="#757575" stroke="#757575" points="575.24,-160.32 581.4,-151.7 571.21,-154.6 575.24,-160.32"/>
</g>
<!-- physics.js -->
<g id="node7" class="node">
<title>physics.js</title>
<path fill="none" stroke="#c6c5fe" d="M517.33,-50.52C517.33,-50.52 457.67,-50.52 457.67,-50.52 453.83,-50.52 450,-46.69 450,-42.85 450,-42.85 450,-35.19 450,-35.19 450,-31.35 453.83,-27.52 457.67,-27.52 457.67,-27.52 517.33,-27.52 517.33,-27.52 521.17,-27.52 525,-31.35 525,-35.19 525,-35.19 525,-42.85 525,-42.85 525,-46.69 521.17,-50.52 517.33,-50.52"/>
<text text-anchor="middle" x="487.5" y="-35.32" font-family="Arial" font-size="14.00" fill="#c6c5fe">physics.js</text>
</g>
<!-- core.js&#45;&gt;physics.js -->
<g id="edge6" class="edge">
<title>core.js&#45;&gt;physics.js</title>
<path fill="none" stroke="#757575" d="M218.08,-148.12C221.38,-119.67 234.1,-47.87 280,-18.02 332.66,16.23 409.35,-5.9 452.93,-23.51"/>
<polygon fill="#757575" stroke="#757575" points="451.65,-26.77 462.22,-27.4 454.35,-20.31 451.65,-26.77"/>
</g>
<!-- scenarios.js -->
<g id="node8" class="node">
<title>scenarios.js</title>
<path fill="none" stroke="#cfffac" d="M383.33,-292.52C383.33,-292.52 310.67,-292.52 310.67,-292.52 306.83,-292.52 303,-288.69 303,-284.85 303,-284.85 303,-277.19 303,-277.19 303,-273.35 306.83,-269.52 310.67,-269.52 310.67,-269.52 383.33,-269.52 383.33,-269.52 387.17,-269.52 391,-273.35 391,-277.19 391,-277.19 391,-284.85 391,-284.85 391,-288.69 387.17,-292.52 383.33,-292.52"/>
<text text-anchor="middle" x="347" y="-277.32" font-family="Arial" font-size="14.00" fill="#cfffac">scenarios.js</text>
</g>
<!-- core.js&#45;&gt;scenarios.js -->
<g id="edge7" class="edge">
<title>core.js&#45;&gt;scenarios.js</title>
<path fill="none" stroke="#757575" d="M221.85,-171.62C230.66,-191.36 251.08,-231.62 280,-255.02 284.84,-258.94 290.34,-262.32 296.05,-265.22"/>
<polygon fill="#757575" stroke="#757575" points="294.59,-268.4 305.13,-269.41 297.52,-262.05 294.59,-268.4"/>
</g>
<!-- gpu/field.js&#45;&gt;helpers.js -->
<g id="edge8" class="edge">
<title>gpu/field.js&#45;&gt;helpers.js</title>
<path fill="none" stroke="#757575" d="M387.76,-191.09C396.66,-188.13 405.87,-184.46 414,-180.02 434.14,-169.03 454,-152.04 467.83,-138.94"/>
<polygon fill="#757575" stroke="#757575" points="470.49,-141.23 475.23,-131.75 465.62,-136.21 470.49,-141.23"/>
</g>
<!-- gpu/field.js&#45;&gt;particle.js -->
<g id="edge9" class="edge">
<title>gpu/field.js&#45;&gt;particle.js</title>
<path fill="none" stroke="#757575" d="M387.63,-193.66C423.68,-186.7 478.23,-175.48 525,-163.02 534.32,-160.54 544.22,-157.59 553.6,-154.64"/>
<polygon fill="#757575" stroke="#757575" points="554.68,-157.97 563.14,-151.59 552.55,-151.3 554.68,-157.97"/>
</g>
<!-- gpu/graphics.js&#45;&gt;helpers.js -->
<g id="edge10" class="edge">
<title>gpu/graphics.js&#45;&gt;helpers.js</title>
<path fill="none" stroke="#757575" d="M388.06,-148.45C404.49,-143.71 423.6,-138.19 440.59,-133.28"/>
<polygon fill="#757575" stroke="#757575" points="441.68,-136.61 450.31,-130.47 439.73,-129.89 441.68,-136.61"/>
</g>
<!-- gpu/graphics.js&#45;&gt;particle.js -->
<g id="edge11" class="edge">
<title>gpu/graphics.js&#45;&gt;particle.js</title>
<path fill="none" stroke="#757575" d="M400.5,-155.8C444.92,-152.24 507.98,-147.17 550.58,-143.75"/>
<polygon fill="#757575" stroke="#757575" points="550.99,-147.23 560.68,-142.94 550.43,-140.25 550.99,-147.23"/>
</g>
<!-- gpu/simulation.js&#45;&gt;helpers.js -->
<g id="edge12" class="edge">
<title>gpu/simulation.js&#45;&gt;helpers.js</title>
<path fill="none" stroke="#757575" d="M394.77,-50.59C401.4,-52.97 408,-55.77 414,-59.02 434.55,-70.16 454.63,-87.73 468.42,-101.16"/>
<polygon fill="#757575" stroke="#757575" points="466.23,-103.91 475.77,-108.51 471.17,-98.96 466.23,-103.91"/>
</g>
<!-- gpu/simulation.js&#45;&gt;physics.js -->
<g id="edge13" class="edge">
<title>gpu/simulation.js&#45;&gt;physics.js</title>
<path fill="none" stroke="#757575" d="M406.34,-39.02C417.54,-39.02 429.14,-39.02 439.91,-39.02"/>
<polygon fill="#757575" stroke="#757575" points="439.95,-42.52 449.95,-39.02 439.95,-35.52 439.95,-42.52"/>
</g>
<!-- helpers.js&#45;&gt;particle.js -->
<g id="edge14" class="edge">
<title>helpers.js&#45;&gt;particle.js</title>
<path fill="none" stroke="#757575" d="M524.63,-126.68C532.96,-128.22 541.93,-129.87 550.63,-131.47"/>
<polygon fill="#757575" stroke="#757575" points="550.19,-134.95 560.66,-133.32 551.46,-128.07 550.19,-134.95"/>
</g>
<!-- physics.js&#45;&gt;particle.js -->
<g id="edge16" class="edge">
<title>physics.js&#45;&gt;particle.js</title>
<path fill="none" stroke="#757575" d="M505.29,-50.57C511.64,-55.16 518.83,-60.63 525,-66.02 545,-83.49 565.97,-105.53 580.09,-121"/>
<polygon fill="#757575" stroke="#757575" points="577.5,-123.35 586.8,-128.42 582.69,-118.66 577.5,-123.35"/>
</g>
<!-- main.js -->
<g id="node9" class="node">
<title>main.js</title>
<path fill="none" stroke="#c6c5fe" d="M52.33,-171.52C52.33,-171.52 7.67,-171.52 7.67,-171.52 3.83,-171.52 0,-167.69 0,-163.85 0,-163.85 0,-156.19 0,-156.19 0,-152.35 3.83,-148.52 7.67,-148.52 7.67,-148.52 52.33,-148.52 52.33,-148.52 56.17,-148.52 60,-152.35 60,-156.19 60,-156.19 60,-163.85 60,-163.85 60,-167.69 56.17,-171.52 52.33,-171.52"/>
<text text-anchor="middle" x="30" y="-156.32" font-family="Arial" font-size="14.00" fill="#c6c5fe">main.js</text>
</g>
<!-- view.js -->
<g id="node10" class="node">
<title>view.js</title>
<path fill="none" stroke="#c6c5fe" d="M144.33,-171.52C144.33,-171.52 103.67,-171.52 103.67,-171.52 99.83,-171.52 96,-167.69 96,-163.85 96,-163.85 96,-156.19 96,-156.19 96,-152.35 99.83,-148.52 103.67,-148.52 103.67,-148.52 144.33,-148.52 144.33,-148.52 148.17,-148.52 152,-152.35 152,-156.19 152,-156.19 152,-163.85 152,-163.85 152,-167.69 148.17,-171.52 144.33,-171.52"/>
<text text-anchor="middle" x="124" y="-156.32" font-family="Arial" font-size="14.00" fill="#c6c5fe">view.js</text>
</g>
<!-- main.js&#45;&gt;view.js -->
<g id="edge15" class="edge">
<title>main.js&#45;&gt;view.js</title>
<path fill="none" stroke="#757575" d="M60.11,-160.02C68.27,-160.02 77.25,-160.02 85.81,-160.02"/>
<polygon fill="#757575" stroke="#757575" points="85.96,-163.52 95.96,-160.02 85.96,-156.52 85.96,-163.52"/>
</g>
<!-- view.js&#45;&gt;core.js -->
<g id="edge19" class="edge">
<title>view.js&#45;&gt;core.js</title>
<path fill="none" stroke="#757575" d="M152,-160.02C160.03,-160.02 168.97,-160.02 177.53,-160.02"/>
<polygon fill="#757575" stroke="#757575" points="177.71,-163.52 187.71,-160.02 177.7,-156.52 177.71,-163.52"/>
</g>
<!-- scenariosHelpers.js -->
<g id="node11" class="node">
<title>scenariosHelpers.js</title>
<path fill="none" stroke="#c6c5fe" d="M406.33,-91.52C406.33,-91.52 287.67,-91.52 287.67,-91.52 283.83,-91.52 280,-87.69 280,-83.85 280,-83.85 280,-76.19 280,-76.19 280,-72.35 283.83,-68.52 287.67,-68.52 287.67,-68.52 406.33,-68.52 406.33,-68.52 410.17,-68.52 414,-72.35 414,-76.19 414,-76.19 414,-83.85 414,-83.85 414,-87.69 410.17,-91.52 406.33,-91.52"/>
<text text-anchor="middle" x="347" y="-76.32" font-family="Arial" font-size="14.00" fill="#c6c5fe">scenariosHelpers.js</text>
</g>
<!-- scenariosHelpers.js&#45;&gt;helpers.js -->
<g id="edge17" class="edge">
<title>scenariosHelpers.js&#45;&gt;helpers.js</title>
<path fill="none" stroke="#757575" d="M388.06,-91.59C404.49,-96.34 423.6,-101.86 440.59,-106.76"/>
<polygon fill="#757575" stroke="#757575" points="439.73,-110.16 450.31,-109.57 441.68,-103.43 439.73,-110.16"/>
</g>
<!-- scenariosHelpers.js&#45;&gt;particle.js -->
<g id="edge18" class="edge">
<title>scenariosHelpers.js&#45;&gt;particle.js</title>
<path fill="none" stroke="#757575" d="M414.06,-80.71C447.92,-82.66 489.41,-87.53 525,-99.02 541.79,-104.44 559.03,-114.09 572.42,-122.66"/>
<polygon fill="#757575" stroke="#757575" points="570.76,-125.75 581.03,-128.36 574.62,-119.92 570.76,-125.75"/>
</g>
</g>
</svg>
