<?xml version="1.0" encoding="UTF-8" standalone="no"?>
<!DOCTYPE svg PUBLIC "-//W3C//DTD SVG 1.1//EN"
 "http://www.w3.org/Graphics/SVG/1.1/DTD/svg11.dtd">
<!-- Generated by graphviz version 2.43.0 (0)
 -->
<!-- Title: G Pages: 1 -->
<svg width="1172pt" height="421pt"
 viewBox="0.00 0.00 1172.20 421.02" xmlns="http://www.w3.org/2000/svg" xmlns:xlink="http://www.w3.org/1999/xlink">
<g id="graph0" class="graph" transform="scale(1 1) rotate(0) translate(21.6 399.42)">
<title>G</title>
<polygon fill="#111111" stroke="transparent" points="-21.6,21.6 -21.6,-399.42 1150.6,-399.42 1150.6,21.6 -21.6,21.6"/>
<!-- core.js -->
<g id="node1" class="node">
<title>core.js</title>
<path fill="none" stroke="#c6c5fe" d="M416.83,-171.75C416.83,-171.75 376.17,-171.75 376.17,-171.75 372.33,-171.75 368.5,-167.91 368.5,-164.08 368.5,-164.08 368.5,-156.41 368.5,-156.41 368.5,-152.58 372.33,-148.75 376.17,-148.75 376.17,-148.75 416.83,-148.75 416.83,-148.75 420.67,-148.75 424.5,-152.58 424.5,-156.41 424.5,-156.41 424.5,-164.08 424.5,-164.08 424.5,-167.91 420.67,-171.75 416.83,-171.75"/>
<text text-anchor="middle" x="396.5" y="-156.55" font-family="Arial" font-size="14.00" fill="#c6c5fe">core.js</text>
</g>
<!-- gpu/field.js -->
<g id="node2" class="node">
<title>gpu/field.js</title>
<path fill="none" stroke="#c6c5fe" d="M610.83,-231.75C610.83,-231.75 545.17,-231.75 545.17,-231.75 541.33,-231.75 537.5,-227.91 537.5,-224.08 537.5,-224.08 537.5,-216.41 537.5,-216.41 537.5,-212.58 541.33,-208.75 545.17,-208.75 545.17,-208.75 610.83,-208.75 610.83,-208.75 614.67,-208.75 618.5,-212.58 618.5,-216.41 618.5,-216.41 618.5,-224.08 618.5,-224.08 618.5,-227.91 614.67,-231.75 610.83,-231.75"/>
<text text-anchor="middle" x="578" y="-216.55" font-family="Arial" font-size="14.00" fill="#c6c5fe">gpu/field.js</text>
</g>
<!-- core.js&#45;&gt;gpu/field.js -->
<g id="edge1" class="edge">
<title>core.js&#45;&gt;gpu/field.js</title>
<path fill="none" stroke="#757575" d="M424.6,-166.88C439.57,-170.72 458.43,-175.85 475,-181.25 487.12,-185.2 514.65,-195.76 538.06,-204.89"/>
<polygon fill="#757575" stroke="#757575" points="536.86,-208.18 547.45,-208.57 539.41,-201.66 536.86,-208.18"/>
</g>
<!-- gpu/graphics.js -->
<g id="node3" class="node">
<title>gpu/graphics.js</title>
<path fill="none" stroke="#c6c5fe" d="M623.83,-110.75C623.83,-110.75 532.17,-110.75 532.17,-110.75 528.33,-110.75 524.5,-106.91 524.5,-103.08 524.5,-103.08 524.5,-95.41 524.5,-95.41 524.5,-91.58 528.33,-87.75 532.17,-87.75 532.17,-87.75 623.83,-87.75 623.83,-87.75 627.67,-87.75 631.5,-91.58 631.5,-95.41 631.5,-95.41 631.5,-103.08 631.5,-103.08 631.5,-106.91 627.67,-110.75 623.83,-110.75"/>
<text text-anchor="middle" x="578" y="-95.55" font-family="Arial" font-size="14.00" fill="#c6c5fe">gpu/graphics.js</text>
</g>
<!-- core.js&#45;&gt;gpu/graphics.js -->
<g id="edge2" class="edge">
<title>core.js&#45;&gt;gpu/graphics.js</title>
<path fill="none" stroke="#757575" d="M424.88,-149.9C447.78,-141.36 481.37,-129.08 511,-119.25 516.53,-117.41 522.35,-115.55 528.14,-113.74"/>
<polygon fill="#757575" stroke="#757575" points="529.28,-117.05 537.81,-110.75 527.22,-110.36 529.28,-117.05"/>
</g>
<!-- gpu/shaders/computeShader.glsl.js -->
<g id="node4" class="node">
<title>gpu/shaders/computeShader.glsl.js</title>
<path fill="none" stroke="#c6c5fe" d="M900.33,-70.75C900.33,-70.75 688.67,-70.75 688.67,-70.75 684.83,-70.75 681,-66.91 681,-63.08 681,-63.08 681,-55.41 681,-55.41 681,-51.58 684.83,-47.75 688.67,-47.75 688.67,-47.75 900.33,-47.75 900.33,-47.75 904.17,-47.75 908,-51.58 908,-55.41 908,-55.41 908,-63.08 908,-63.08 908,-66.91 904.17,-70.75 900.33,-70.75"/>
<text text-anchor="middle" x="794.5" y="-55.55" font-family="Arial" font-size="14.00" fill="#c6c5fe">gpu/shaders/computeShader.glsl.js</text>
</g>
<!-- core.js&#45;&gt;gpu/shaders/computeShader.glsl.js -->
<g id="edge3" class="edge">
<title>core.js&#45;&gt;gpu/shaders/computeShader.glsl.js</title>
<path fill="none" stroke="#757575" d="M408.78,-148.65C427.83,-129.93 468.47,-93.6 511,-78.25 561.39,-60.06 620.08,-53.91 670.86,-52.85"/>
<polygon fill="#757575" stroke="#757575" points="670.96,-56.35 680.91,-52.71 670.86,-49.35 670.96,-56.35"/>
</g>
<!-- gpu/simulation.js -->
<g id="node5" class="node">
<title>gpu/simulation.js</title>
<path fill="none" stroke="#c6c5fe" d="M629.33,-151.75C629.33,-151.75 526.67,-151.75 526.67,-151.75 522.83,-151.75 519,-147.91 519,-144.08 519,-144.08 519,-136.41 519,-136.41 519,-132.58 522.83,-128.75 526.67,-128.75 526.67,-128.75 629.33,-128.75 629.33,-128.75 633.17,-128.75 637,-132.58 637,-136.41 637,-136.41 637,-144.08 637,-144.08 637,-147.91 633.17,-151.75 629.33,-151.75"/>
<text text-anchor="middle" x="578" y="-136.55" font-family="Arial" font-size="14.00" fill="#c6c5fe">gpu/simulation.js</text>
</g>
<!-- core.js&#45;&gt;gpu/simulation.js -->
<g id="edge4" class="edge">
<title>core.js&#45;&gt;gpu/simulation.js</title>
<path fill="none" stroke="#757575" d="M424.76,-157.21C447.05,-154.73 479.53,-151.11 508.78,-147.85"/>
<polygon fill="#757575" stroke="#757575" points="509.41,-151.3 518.97,-146.71 508.64,-144.34 509.41,-151.3"/>
</g>
<!-- helpers.js -->
<g id="node6" class="node">
<title>helpers.js</title>
<path fill="none" stroke="#c6c5fe" d="M823.83,-229.75C823.83,-229.75 765.17,-229.75 765.17,-229.75 761.33,-229.75 757.5,-225.91 757.5,-222.08 757.5,-222.08 757.5,-214.41 757.5,-214.41 757.5,-210.58 761.33,-206.75 765.17,-206.75 765.17,-206.75 823.83,-206.75 823.83,-206.75 827.67,-206.75 831.5,-210.58 831.5,-214.41 831.5,-214.41 831.5,-222.08 831.5,-222.08 831.5,-225.91 827.67,-229.75 823.83,-229.75"/>
<text text-anchor="middle" x="794.5" y="-214.55" font-family="Arial" font-size="14.00" fill="#c6c5fe">helpers.js</text>
</g>
<!-- core.js&#45;&gt;helpers.js -->
<g id="edge5" class="edge">
<title>core.js&#45;&gt;helpers.js</title>
<path fill="none" stroke="#757575" d="M424.72,-164.23C491.57,-174.02 664.39,-199.34 747.51,-211.51"/>
<polygon fill="#757575" stroke="#757575" points="747.03,-214.98 757.43,-212.96 748.05,-208.05 747.03,-214.98"/>
</g>
<!-- particle.js -->
<g id="node7" class="node">
<title>particle.js</title>
<path fill="none" stroke="#cfffac" d="M1121.33,-250.75C1121.33,-250.75 1062.67,-250.75 1062.67,-250.75 1058.83,-250.75 1055,-246.91 1055,-243.08 1055,-243.08 1055,-235.41 1055,-235.41 1055,-231.58 1058.83,-227.75 1062.67,-227.75 1062.67,-227.75 1121.33,-227.75 1121.33,-227.75 1125.17,-227.75 1129,-231.58 1129,-235.41 1129,-235.41 1129,-243.08 1129,-243.08 1129,-246.91 1125.17,-250.75 1121.33,-250.75"/>
<text text-anchor="middle" x="1092" y="-235.55" font-family="Arial" font-size="14.00" fill="#cfffac">particle.js</text>
</g>
<!-- core.js&#45;&gt;particle.js -->
<g id="edge6" class="edge">
<title>core.js&#45;&gt;particle.js</title>
<path fill="none" stroke="#757575" d="M424.6,-160.94C441.28,-162.8 461.9,-167.93 475,-181.25 520.66,-227.66 459.62,-283.26 511,-323.25 682.98,-457.07 973.15,-308.19 1063.38,-255.96"/>
<polygon fill="#757575" stroke="#757575" points="1065.34,-258.87 1072.19,-250.8 1061.8,-252.83 1065.34,-258.87"/>
</g>
<!-- physics.js -->
<g id="node8" class="node">
<title>physics.js</title>
<path fill="none" stroke="#c6c5fe" d="M1011.33,-91.75C1011.33,-91.75 951.67,-91.75 951.67,-91.75 947.83,-91.75 944,-87.91 944,-84.08 944,-84.08 944,-76.41 944,-76.41 944,-72.58 947.83,-68.75 951.67,-68.75 951.67,-68.75 1011.33,-68.75 1011.33,-68.75 1015.17,-68.75 1019,-72.58 1019,-76.41 1019,-76.41 1019,-84.08 1019,-84.08 1019,-87.91 1015.17,-91.75 1011.33,-91.75"/>
<text text-anchor="middle" x="981.5" y="-76.55" font-family="Arial" font-size="14.00" fill="#c6c5fe">physics.js</text>
</g>
<!-- core.js&#45;&gt;physics.js -->
<g id="edge7" class="edge">
<title>core.js&#45;&gt;physics.js</title>
<path fill="none" stroke="#757575" d="M405.19,-148.57C421.45,-125.01 461.89,-72.18 511,-50.25 672.18,21.75 737.52,7.57 908,-38.25 925.98,-43.08 944.1,-53.57 957.73,-62.86"/>
<polygon fill="#757575" stroke="#757575" points="955.81,-65.79 965.99,-68.72 959.85,-60.08 955.81,-65.79"/>
</g>
<!-- scenarios.js -->
<g id="node9" class="node">
<title>scenarios.js</title>
<path fill="none" stroke="#cfffac" d="M614.33,-272.75C614.33,-272.75 541.67,-272.75 541.67,-272.75 537.83,-272.75 534,-268.91 534,-265.08 534,-265.08 534,-257.41 534,-257.41 534,-253.58 537.83,-249.75 541.67,-249.75 541.67,-249.75 614.33,-249.75 614.33,-249.75 618.17,-249.75 622,-253.58 622,-257.41 622,-257.41 622,-265.08 622,-265.08 622,-268.91 618.17,-272.75 614.33,-272.75"/>
<text text-anchor="middle" x="578" y="-257.55" font-family="Arial" font-size="14.00" fill="#cfffac">scenarios.js</text>
</g>
<!-- core.js&#45;&gt;scenarios.js -->
<g id="edge8" class="edge">
<title>core.js&#45;&gt;scenarios.js</title>
<path fill="none" stroke="#757575" d="M424.84,-162.56C440.79,-165.07 460.55,-170.32 475,-181.25 499.8,-200.01 486.48,-222.12 511,-241.25 515.08,-244.43 519.67,-247.11 524.48,-249.37"/>
<polygon fill="#757575" stroke="#757575" points="523.33,-252.68 533.92,-253.2 525.97,-246.19 523.33,-252.68"/>
</g>
<!-- gpu/field.js&#45;&gt;helpers.js -->
<g id="edge9" class="edge">
<title>gpu/field.js&#45;&gt;helpers.js</title>
<path fill="none" stroke="#757575" d="M618.59,-219.88C654.89,-219.54 708.65,-219.04 746.98,-218.68"/>
<polygon fill="#757575" stroke="#757575" points="747.38,-222.18 757.35,-218.58 747.32,-215.18 747.38,-222.18"/>
</g>
<!-- gpu/field.js&#45;&gt;particle.js -->
<g id="edge10" class="edge">
<title>gpu/field.js&#45;&gt;particle.js</title>
<path fill="none" stroke="#757575" d="M618.5,-229.18C637.32,-233.03 660.21,-237.13 681,-239.25 830.46,-254.48 868.85,-249.45 1019,-244.25 1027.28,-243.96 1036.09,-243.49 1044.59,-242.94"/>
<polygon fill="#757575" stroke="#757575" points="1045.03,-246.42 1054.77,-242.26 1044.55,-239.44 1045.03,-246.42"/>
</g>
<!-- gpu/graphics.js&#45;&gt;gpu/shaders/computeShader.glsl.js -->
<g id="edge11" class="edge">
<title>gpu/graphics.js&#45;&gt;gpu/shaders/computeShader.glsl.js</title>
<path fill="none" stroke="#757575" d="M631.64,-88.74C647.5,-85.63 664.95,-82.25 681,-79.25 692.73,-77.05 705.16,-74.79 717.31,-72.6"/>
<polygon fill="#757575" stroke="#757575" points="718.21,-76 727.43,-70.79 716.97,-69.11 718.21,-76"/>
</g>
<!-- gpu/graphics.js&#45;&gt;helpers.js -->
<g id="edge13" class="edge">
<title>gpu/graphics.js&#45;&gt;helpers.js</title>
<path fill="none" stroke="#757575" d="M627.03,-110.82C633.27,-113.17 639.43,-115.96 645,-119.25 664.22,-130.58 663.16,-140.84 681,-154.25 705.95,-172.99 736.93,-190.23 760.07,-202.08"/>
<polygon fill="#757575" stroke="#757575" points="758.64,-205.28 769.14,-206.67 761.79,-199.03 758.64,-205.28"/>
</g>
<!-- gpu/graphics.js&#45;&gt;particle.js -->
<g id="edge14" class="edge">
<title>gpu/graphics.js&#45;&gt;particle.js</title>
<path fill="none" stroke="#757575" d="M621.33,-110.82C716.54,-136.85 946.85,-199.83 1045.22,-226.73"/>
<polygon fill="#757575" stroke="#757575" points="1044.31,-230.11 1054.88,-229.37 1046.15,-223.36 1044.31,-230.11"/>
</g>
<!-- gpu/shaders/particleShader.glsl.js -->
<g id="node10" class="node">
<title>gpu/shaders/particleShader.glsl.js</title>
<path fill="none" stroke="#cfffac" d="M895.83,-111.75C895.83,-111.75 693.17,-111.75 693.17,-111.75 689.33,-111.75 685.5,-107.91 685.5,-104.08 685.5,-104.08 685.5,-96.41 685.5,-96.41 685.5,-92.58 689.33,-88.75 693.17,-88.75 693.17,-88.75 895.83,-88.75 895.83,-88.75 899.67,-88.75 903.5,-92.58 903.5,-96.41 903.5,-96.41 903.5,-104.08 903.5,-104.08 903.5,-107.91 899.67,-111.75 895.83,-111.75"/>
<text text-anchor="middle" x="794.5" y="-96.55" font-family="Arial" font-size="14.00" fill="#cfffac">gpu/shaders/particleShader.glsl.js</text>
</g>
<!-- gpu/graphics.js&#45;&gt;gpu/shaders/particleShader.glsl.js -->
<g id="edge12" class="edge">
<title>gpu/graphics.js&#45;&gt;gpu/shaders/particleShader.glsl.js</title>
<path fill="none" stroke="#757575" d="M631.75,-99.49C644.95,-99.55 659.65,-99.62 674.66,-99.69"/>
<polygon fill="#757575" stroke="#757575" points="675.07,-103.19 685.09,-99.74 675.11,-96.19 675.07,-103.19"/>
</g>
<!-- gpu/shaders/computeShader.glsl.js&#45;&gt;physics.js -->
<g id="edge15" class="edge">
<title>gpu/shaders/computeShader.glsl.js&#45;&gt;physics.js</title>
<path fill="none" stroke="#757575" d="M896.93,-70.76C909.82,-72.22 922.47,-73.66 933.88,-74.95"/>
<polygon fill="#757575" stroke="#757575" points="933.64,-78.45 943.97,-76.1 934.43,-71.5 933.64,-78.45"/>
</g>
<!-- gpu/simulation.js&#45;&gt;helpers.js -->
<g id="edge16" class="edge">
<title>gpu/simulation.js&#45;&gt;helpers.js</title>
<path fill="none" stroke="#757575" d="M612.98,-151.76C623.49,-155.82 634.95,-160.75 645,-166.25 662.32,-175.72 663.03,-184.09 681,-192.25 701.86,-201.72 726.52,-207.92 747.43,-211.88"/>
<polygon fill="#757575" stroke="#757575" points="746.9,-215.34 757.36,-213.64 748.12,-208.45 746.9,-215.34"/>
</g>
<!-- gpu/simulation.js&#45;&gt;physics.js -->
<g id="edge17" class="edge">
<title>gpu/simulation.js&#45;&gt;physics.js</title>
<path fill="none" stroke="#757575" d="M637.07,-144.32C703.84,-147.28 816.09,-146.92 908,-120.25 924.94,-115.33 942.29,-105.94 955.77,-97.49"/>
<polygon fill="#757575" stroke="#757575" points="957.96,-100.25 964.44,-91.86 954.14,-94.38 957.96,-100.25"/>
</g>
<!-- helpers.js&#45;&gt;particle.js -->
<g id="edge18" class="edge">
<title>helpers.js&#45;&gt;particle.js</title>
<path fill="none" stroke="#757575" d="M831.73,-220.82C885.38,-224.63 985.92,-231.78 1044.8,-235.96"/>
<polygon fill="#757575" stroke="#757575" points="1044.71,-239.47 1054.93,-236.68 1045.21,-232.48 1044.71,-239.47"/>
</g>
<!-- physics.js&#45;&gt;particle.js -->
<g id="edge21" class="edge">
<title>physics.js&#45;&gt;particle.js</title>
<path fill="none" stroke="#757575" d="M992.45,-92.09C1000,-101.23 1010.48,-114.29 1019,-126.25 1041.32,-157.58 1064.85,-195.59 1078.71,-218.57"/>
<polygon fill="#757575" stroke="#757575" points="1075.88,-220.66 1084.03,-227.44 1081.89,-217.06 1075.88,-220.66"/>
</g>
<!-- main.js -->
<g id="node11" class="node">
<title>main.js</title>
<path fill="none" stroke="#c6c5fe" d="M107.83,-191.75C107.83,-191.75 63.17,-191.75 63.17,-191.75 59.33,-191.75 55.5,-187.91 55.5,-184.08 55.5,-184.08 55.5,-176.41 55.5,-176.41 55.5,-172.58 59.33,-168.75 63.17,-168.75 63.17,-168.75 107.83,-168.75 107.83,-168.75 111.67,-168.75 115.5,-172.58 115.5,-176.41 115.5,-176.41 115.5,-184.08 115.5,-184.08 115.5,-187.91 111.67,-191.75 107.83,-191.75"/>
<text text-anchor="middle" x="85.5" y="-176.55" font-family="Arial" font-size="14.00" fill="#c6c5fe">main.js</text>
</g>
<!-- ui/App.jsx -->
<g id="node12" class="node">
<title>ui/App.jsx</title>
<path fill="none" stroke="#c6c5fe" d="M274.33,-212.75C274.33,-212.75 214.67,-212.75 214.67,-212.75 210.83,-212.75 207,-208.91 207,-205.08 207,-205.08 207,-197.41 207,-197.41 207,-193.58 210.83,-189.75 214.67,-189.75 214.67,-189.75 274.33,-189.75 274.33,-189.75 278.17,-189.75 282,-193.58 282,-197.41 282,-197.41 282,-205.08 282,-205.08 282,-208.91 278.17,-212.75 274.33,-212.75"/>
<text text-anchor="middle" x="244.5" y="-197.55" font-family="Arial" font-size="14.00" fill="#c6c5fe">ui/App.jsx</text>
</g>
<!-- main.js&#45;&gt;ui/App.jsx -->
<g id="edge19" class="edge">
<title>main.js&#45;&gt;ui/App.jsx</title>
<path fill="none" stroke="#757575" d="M115.66,-184.15C138.37,-187.18 170.33,-191.46 196.61,-194.98"/>
<polygon fill="#757575" stroke="#757575" points="196.37,-198.47 206.74,-196.33 197.3,-191.54 196.37,-198.47"/>
</g>
<!-- view.js -->
<g id="node13" class="node">
<title>view.js</title>
<path fill="none" stroke="#c6c5fe" d="M264.83,-171.75C264.83,-171.75 224.17,-171.75 224.17,-171.75 220.33,-171.75 216.5,-167.91 216.5,-164.08 216.5,-164.08 216.5,-156.41 216.5,-156.41 216.5,-152.58 220.33,-148.75 224.17,-148.75 224.17,-148.75 264.83,-148.75 264.83,-148.75 268.67,-148.75 272.5,-152.58 272.5,-156.41 272.5,-156.41 272.5,-164.08 272.5,-164.08 272.5,-167.91 268.67,-171.75 264.83,-171.75"/>
<text text-anchor="middle" x="244.5" y="-156.55" font-family="Arial" font-size="14.00" fill="#c6c5fe">view.js</text>
</g>
<!-- main.js&#45;&gt;view.js -->
<g id="edge20" class="edge">
<title>main.js&#45;&gt;view.js</title>
<path fill="none" stroke="#757575" d="M115.66,-176.53C141.22,-173.28 178.51,-168.53 206.22,-165"/>
<polygon fill="#757575" stroke="#757575" points="206.85,-168.44 216.33,-163.71 205.97,-161.5 206.85,-168.44"/>
</g>
<!-- ui/views/Information.jsx -->
<g id="node15" class="node">
<title>ui/views/Information.jsx</title>
<path fill="none" stroke="#cfffac" d="M467.33,-212.75C467.33,-212.75 325.67,-212.75 325.67,-212.75 321.83,-212.75 318,-208.91 318,-205.08 318,-205.08 318,-197.41 318,-197.41 318,-193.58 321.83,-189.75 325.67,-189.75 325.67,-189.75 467.33,-189.75 467.33,-189.75 471.17,-189.75 475,-193.58 475,-197.41 475,-197.41 475,-205.08 475,-205.08 475,-208.91 471.17,-212.75 467.33,-212.75"/>
<text text-anchor="middle" x="396.5" y="-197.55" font-family="Arial" font-size="14.00" fill="#cfffac">ui/views/Information.jsx</text>
</g>
<!-- ui/App.jsx&#45;&gt;ui/views/Information.jsx -->
<g id="edge24" class="edge">
<title>ui/App.jsx&#45;&gt;ui/views/Information.jsx</title>
<path fill="none" stroke="#757575" d="M282.19,-201.25C290.07,-201.25 298.72,-201.25 307.62,-201.25"/>
<polygon fill="#757575" stroke="#757575" points="307.74,-204.75 317.74,-201.25 307.74,-197.75 307.74,-204.75"/>
</g>
<!-- view.js&#45;&gt;core.js -->
<g id="edge25" class="edge">
<title>view.js&#45;&gt;core.js</title>
<path fill="none" stroke="#757575" d="M272.66,-160.25C296.59,-160.25 331.66,-160.25 358.21,-160.25"/>
<polygon fill="#757575" stroke="#757575" points="358.29,-163.75 368.29,-160.25 358.29,-156.75 358.29,-163.75"/>
</g>
<!-- scenariosHelpers.js -->
<g id="node14" class="node">
<title>scenariosHelpers.js</title>
<path fill="none" stroke="#c6c5fe" d="M637.33,-313.75C637.33,-313.75 518.67,-313.75 518.67,-313.75 514.83,-313.75 511,-309.91 511,-306.08 511,-306.08 511,-298.41 511,-298.41 511,-294.58 514.83,-290.75 518.67,-290.75 518.67,-290.75 637.33,-290.75 637.33,-290.75 641.17,-290.75 645,-294.58 645,-298.41 645,-298.41 645,-306.08 645,-306.08 645,-309.91 641.17,-313.75 637.33,-313.75"/>
<text text-anchor="middle" x="578" y="-298.55" font-family="Arial" font-size="14.00" fill="#c6c5fe">scenariosHelpers.js</text>
</g>
<!-- scenariosHelpers.js&#45;&gt;helpers.js -->
<g id="edge22" class="edge">
<title>scenariosHelpers.js&#45;&gt;helpers.js</title>
<path fill="none" stroke="#757575" d="M619.73,-290.69C628.14,-288.08 636.9,-285.21 645,-282.25 685.21,-267.54 730.21,-247.65 760.02,-233.96"/>
<polygon fill="#757575" stroke="#757575" points="761.53,-237.12 769.14,-229.75 758.6,-230.77 761.53,-237.12"/>
</g>
<!-- scenariosHelpers.js&#45;&gt;particle.js -->
<g id="edge23" class="edge">
<title>scenariosHelpers.js&#45;&gt;particle.js</title>
<path fill="none" stroke="#757575" d="M645.1,-299.37C731.62,-294.78 887.71,-283.71 1019,-259.25 1027.43,-257.68 1036.31,-255.58 1044.85,-253.34"/>
<polygon fill="#757575" stroke="#757575" points="1045.93,-256.67 1054.66,-250.66 1044.09,-249.92 1045.93,-256.67"/>
</g>
<!-- ui/components/Dialog.css -->
<g id="node16" class="node">
<title>ui/components/Dialog.css</title>
<path fill="none" stroke="#cfffac" d="M163.33,-232.75C163.33,-232.75 7.67,-232.75 7.67,-232.75 3.83,-232.75 0,-228.91 0,-225.08 0,-225.08 0,-217.41 0,-217.41 0,-213.58 3.83,-209.75 7.67,-209.75 7.67,-209.75 163.33,-209.75 163.33,-209.75 167.17,-209.75 171,-213.58 171,-217.41 171,-217.41 171,-225.08 171,-225.08 171,-228.91 167.17,-232.75 163.33,-232.75"/>
<text text-anchor="middle" x="85.5" y="-217.55" font-family="Arial" font-size="14.00" fill="#cfffac">ui/components/Dialog.css</text>
</g>
</g>
</svg>
